<?xml version="1.0" encoding="utf-8"?>
<!-- Generator: Adobe Illustrator 24.0.1, SVG Export Plug-In . SVG Version: 6.00 Build 0)  -->
<svg version="1.1" id="圖層_1" xmlns="http://www.w3.org/2000/svg" xmlns:xlink="http://www.w3.org/1999/xlink" x="0px" y="0px"
	 viewBox="0 0 81.3 215" style="enable-background:new 0 0 81.3 215;" xml:space="preserve">
<style type="text/css">
	.st0{clip-path:url(#SVGID_2_);fill:#87C2ED;}
	.st1{clip-path:url(#SVGID_4_);fill:#064B82;}
</style>
<title>Index_FAol_1107</title>
<g>
	<g>
		<defs>
			<rect id="SVGID_1_" x="-0.9" y="-13.7" width="83" height="231.5"/>
		</defs>
		<clipPath id="SVGID_2_">
			<use xlink:href="#SVGID_1_"  style="overflow:visible;"/>
		</clipPath>
		<path class="st0" d="M123.3,35.3c-4.1,16.3-21,28.2-41.2,28.2S45,51.6,40.9,35.3h-0.3h-0.3c-4.1,16.3-21,28.2-40.9,28.2
			s-36.8-12.2-41.2-28.2h-0.3v324.5h82.7h82.7V35.3L123.3,35.3z"/>
	</g>
	<g>
		<defs>
			<rect id="SVGID_3_" x="-0.9" y="-13.7" width="83" height="231.5"/>
		</defs>
		<clipPath id="SVGID_4_">
			<use xlink:href="#SVGID_3_"  style="overflow:visible;"/>
		</clipPath>
		<path class="st1" d="M40.6,63.5c-19.9,0-36.8-11.9-41.2-28.2l0,0v182.5h82.7V35.3h-0.3C77.7,51.6,60.8,63.5,40.6,63.5z"/>
	</g>
</g>
</svg>
