<svg xmlns="http://www.w3.org/2000/svg" xmlns:xlink="http://www.w3.org/1999/xlink" viewBox="0 0 285 85"><defs><style>.cls-1{fill:none;}.cls-2{isolation:isolate;}.cls-3{fill:url(#未命名漸層_118);}.cls-4{fill:#b3b3b3;}.cls-5{fill:#42210b;}.cls-6{clip-path:url(#clip-path);}.cls-7{fill:url(#未命名漸層_103);}.cls-8{mix-blend-mode:multiply;}.cls-9{fill:url(#未命名漸層_126);}.cls-10{fill:#fff;}.cls-11{clip-path:url(#clip-path-2);}.cls-12{fill:url(#未命名漸層_103-2);}.cls-13{fill:url(#未命名漸層_126-2);}</style><linearGradient id="未命名漸層_118" x1="142.74" y1="85.23" x2="142.74" y2="16.4" gradientUnits="userSpaceOnUse"><stop offset="0" stop-color="#cdfff0"/><stop offset="0.1" stop-color="#00a1e9"/><stop offset="1" stop-color="#008dd7"/></linearGradient><clipPath id="clip-path"><path id="SVGID" class="cls-1" d="M32.73,17.91a7.5,7.5,0,1,0,7.44-7.55A7.51,7.51,0,0,0,32.73,17.91Z"/></clipPath><linearGradient id="未命名漸層_103" x1="103.9" y1="11.88" x2="118.9" y2="11.88" gradientTransform="translate(-71.3 7.24) rotate(-0.65)" gradientUnits="userSpaceOnUse"><stop offset="0" stop-color="#cdfff0"/><stop offset="0.5" stop-color="#00a1e9"/><stop offset="1" stop-color="#008dd7"/></linearGradient><radialGradient id="未命名漸層_126" cx="118.39" cy="-81.65" r="7.35" gradientTransform="matrix(0.96, -0.01, 0.01, 0.9, -72.72, 93.79)" gradientUnits="userSpaceOnUse"><stop offset="0" stop-color="#fff"/><stop offset="0.06" stop-color="#e3f4fb"/><stop offset="0.19" stop-color="#b2e1f5"/><stop offset="0.32" stop-color="#88d0ef"/><stop offset="0.45" stop-color="#66c3ea"/><stop offset="0.58" stop-color="#4bb8e7"/><stop offset="0.71" stop-color="#38b1e4"/><stop offset="0.85" stop-color="#2dace3"/><stop offset="1" stop-color="#29abe2"/></radialGradient><clipPath id="clip-path-2"><path id="SVGID-2" data-name="SVGID" class="cls-1" d="M242.73,17.91a7.5,7.5,0,1,0,7.44-7.55A7.51,7.51,0,0,0,242.73,17.91Z"/></clipPath><linearGradient id="未命名漸層_103-2" x1="313.9" y1="14.25" x2="328.9" y2="14.25" xlink:href="#未命名漸層_103"/><radialGradient id="未命名漸層_126-2" cx="336.72" cy="-79.18" r="7.35" xlink:href="#未命名漸層_126"/></defs><title>頁面_FAol_1108</title><g class="cls-2"><g id="頁面內容"><rect class="cls-3" x="0.24" y="16.23" width="285" height="69" rx="10"/><rect class="cls-4" x="24.57" y="4.7" width="31" height="6" transform="translate(32.33 47.76) rotate(-89.93)"/><ellipse class="cls-5" cx="40.57" cy="18.77" rx="7.49" ry="7.51" transform="translate(-1.39 34.17) rotate(-44.98)"/><g class="cls-6"><path class="cls-7" d="M32.73,17.91a7.5,7.5,0,1,0,7.44-7.55A7.51,7.51,0,0,0,32.73,17.91Z"/><g class="cls-8"><path class="cls-9" d="M38.38,21a7.47,7.47,0,0,0,7.43-7.55c0-.21,0-.41-.06-.62a7.47,7.47,0,1,1-13,5.67A7.43,7.43,0,0,0,38.38,21Z"/></g><path class="cls-10" d="M36.45,14.29a1.74,1.74,0,1,0,1.72-1.74A1.73,1.73,0,0,0,36.45,14.29Z"/></g><rect class="cls-4" x="235.07" y="4.84" width="31" height="6" transform="translate(242.43 258.4) rotate(-89.93)"/><ellipse class="cls-5" cx="250.57" cy="18.77" rx="7.49" ry="7.51" transform="translate(60.08 182.63) rotate(-44.98)"/><g class="cls-11"><path class="cls-12" d="M242.73,17.91a7.5,7.5,0,1,0,7.44-7.55A7.51,7.51,0,0,0,242.73,17.91Z"/><g class="cls-8"><path class="cls-13" d="M248.38,21a7.47,7.47,0,0,0,7.43-7.55c0-.21,0-.41-.06-.62a7.47,7.47,0,1,1-13,5.67A7.43,7.43,0,0,0,248.38,21Z"/></g><path class="cls-10" d="M246.45,14.29a1.74,1.74,0,1,0,1.72-1.74A1.73,1.73,0,0,0,246.45,14.29Z"/></g><path class="cls-10" d="M40.7,38.74v-.56a2.29,2.29,0,0,1,.56-1.78,2.65,2.65,0,0,1,1.89-.53A2.62,2.62,0,0,1,45,36.4a2.3,2.3,0,0,1,.6,1.78v.56H57.09v-.56a2.33,2.33,0,0,1,.56-1.78,2.55,2.55,0,0,1,1.89-.53,2.65,2.65,0,0,1,1.89.53A2.46,2.46,0,0,1,62,38.18v.56h2.48A2.47,2.47,0,0,1,66,39.2a2.21,2.21,0,0,1,.46,1.57,2.13,2.13,0,0,1-.39,1.4,1.93,1.93,0,0,1-1.64.67H62V56.49h3.42A2.34,2.34,0,0,1,67,57a2.23,2.23,0,0,1,.46,1.58,2.13,2.13,0,0,1-.39,1.4,2.07,2.07,0,0,1-1.68.66H57.72a34.42,34.42,0,0,0,3.78,2,44.93,44.93,0,0,0,4.58,1.93,1.17,1.17,0,0,1,.56,1.08,1.86,1.86,0,0,1-.46,1.19,3.7,3.7,0,0,1-1.32,1.05,4,4,0,0,1-1.37.21,6.93,6.93,0,0,1-2.66-.63,16.66,16.66,0,0,1-3.91-2.2,8.15,8.15,0,0,1-2.31-1.93,2.86,2.86,0,0,1-.14-1,2.38,2.38,0,0,1,.14-.77,5.42,5.42,0,0,1,.7-.84.85.85,0,0,1,.21-.14H47.34a2.67,2.67,0,0,1,.49.46,2.14,2.14,0,0,1,.66,1.43,1.5,1.5,0,0,1-.69,1.37,7.91,7.91,0,0,1-2.1,1.43,39.33,39.33,0,0,1-4.44,2.28,5.83,5.83,0,0,1-2.48.52,2.58,2.58,0,0,1-2-.91,2.53,2.53,0,0,1-.49-1.68c0-.56.38-1,1.08-1.36a45,45,0,0,0,7-3.36c.14-.07.31-.11.45-.18H37.55A2,2,0,0,1,36,60.13a1.92,1.92,0,0,1-.53-1.57A2,2,0,0,1,36,57a2.14,2.14,0,0,1,1.53-.46H40.7V42.84H38.64a2,2,0,0,1-1.54-.49,2,2,0,0,1-.49-1.58,2,2,0,0,1,.49-1.61,2.31,2.31,0,0,1,1.54-.42Zm16.39,6.13v-2H45.63v2Zm0,5.74V48.44H45.63v2.17Zm0,5.88V54.18H45.63v2.31Z"/><path class="cls-10" d="M81.32,36.78a1.45,1.45,0,0,1,.88,1.54,4.19,4.19,0,0,1-.28,1.44,43.93,43.93,0,0,1-1.37,4.3v21.6a2,2,0,0,1-.63,1.65,2.38,2.38,0,0,1-1.71.56,2.14,2.14,0,0,1-1.57-.56,2,2,0,0,1-.6-1.65v-13c-.14.21-.28.42-.42.6a1.66,1.66,0,0,1-1.36.52,2.2,2.2,0,0,1-1.71-.59,1.74,1.74,0,0,1-.6-1.44,3.62,3.62,0,0,1,.46-1.58A45.79,45.79,0,0,0,78,37.62a1.49,1.49,0,0,1,1.5-1.36A3.13,3.13,0,0,1,81.32,36.78Zm20.84,5.5c.49,1.15.77,3.53.77,7.14a17.52,17.52,0,0,1-.7,5.95,3,3,0,0,1-2.83,1.68H97.23a6.9,6.9,0,0,1-1.68-.21v.49a2.22,2.22,0,0,1-.42,1.4,2.34,2.34,0,0,1-3.43,0,2,2,0,0,1-.52-1.44V47.07l-2.73.74v14c0,.56.28.8.84.8h8.18a1,1,0,0,0,.91-.42,4,4,0,0,0,.7-1.47c.14-.56.25-1,.32-1.5a1.64,1.64,0,0,1,1.5-.84A3.76,3.76,0,0,1,103,59a2.17,2.17,0,0,1,.87,1.86,10.67,10.67,0,0,1-.41,2.13,10,10,0,0,1-.95,2.21,5,5,0,0,1-1.71,1.36,7.05,7.05,0,0,1-2.41.6H87.51A3.24,3.24,0,0,1,85,66a5.52,5.52,0,0,1-.91-3.33V48.93a4.18,4.18,0,0,1-.94.17,1.55,1.55,0,0,1-1.47-.8,3,3,0,0,1-.45-1.79,1.86,1.86,0,0,1,.42-1.36,2.36,2.36,0,0,1,1.08-.42c.46-.11.91-.21,1.36-.35V40.11a2,2,0,0,1,.56-1.54,4,4,0,0,1,1.65-.39,3,3,0,0,1,1.71.39c.28.21.42.73.45,1.54v3.15c1-.21,1.89-.46,2.73-.67V38.18a2,2,0,0,1,.67-1.61A1.89,1.89,0,0,1,93.38,36a2.29,2.29,0,0,1,1.58.59,2.19,2.19,0,0,1,.59,1.61v3.33c2.38-.56,3.71-.88,4-.88A2.79,2.79,0,0,1,102.16,42.28ZM95.55,52.39h3c.07,0,.1-.24.1-.73,0-1,0-2.87,0-5.67,0-.46-.32-.7-1-.7-.77.21-1.5.42-2.2.59Z"/><path class="cls-10" d="M112,45.5A22.17,22.17,0,0,1,115.9,48a1.93,1.93,0,0,1,.8,1.5,2.84,2.84,0,0,1-.49,1.65,2.09,2.09,0,0,1-1.81,1.08,1.42,1.42,0,0,1-.84-.21,1.34,1.34,0,0,1-.67-.38c-1-.77-2.06-1.51-3.25-2.28a.49.49,0,0,1-.31-.28,1.45,1.45,0,0,1-.67-1.36,2.43,2.43,0,0,1,.7-1.72,1.83,1.83,0,0,1,1.61-.73A2.77,2.77,0,0,1,112,45.5Zm3.92,9.24a2,2,0,0,1,.94,1.89,4.79,4.79,0,0,1-.35,1.65c-.59,2-1.08,3.64-1.47,4.9s-.8,2.2-1,2.76a2.44,2.44,0,0,1-2.31,1.79,3.66,3.66,0,0,1-1.82-.81,2.42,2.42,0,0,1-.66-1.78c.28-1,1.08-3.4,2.48-7.32a14.46,14.46,0,0,1,.66-1.85c.35-1.09,1-1.65,1.78-1.65A3.56,3.56,0,0,1,115.9,54.74ZM113,36.92a21.44,21.44,0,0,1,4.23,2.63,1.91,1.91,0,0,1,.81,1.5,2.92,2.92,0,0,1-.49,1.65,2.1,2.1,0,0,1-1.82,1.08,1.83,1.83,0,0,1-.91-.21,2.08,2.08,0,0,1-.74-.42,40,40,0,0,0-3.49-2.38c-.17-.07-.28-.14-.31-.28a1.42,1.42,0,0,1-.7-1.36,2.36,2.36,0,0,1,.7-1.72,1.8,1.8,0,0,1,1.6-.73A3.37,3.37,0,0,1,113,36.92Zm26.15,0a2.46,2.46,0,0,1,.73,1.82,1.69,1.69,0,0,1-.8,1.61,42.47,42.47,0,0,1-7.52,1.58v3.64h7a2.53,2.53,0,0,1,1.71.49,2.21,2.21,0,0,1,.49,1.68,2.19,2.19,0,0,1-.42,1.5,2.09,2.09,0,0,1-1.78.7h-7v3.54h5.6a2.43,2.43,0,0,1,2.72,2.77v8A2.41,2.41,0,0,1,137.19,67H121.35a2.41,2.41,0,0,1-2.73-2.73v-8a2.44,2.44,0,0,1,2.73-2.77h5.46V49.94h-7a2.24,2.24,0,0,1-1.64-.52,2,2,0,0,1-.56-1.68,2,2,0,0,1,.56-1.68,2.26,2.26,0,0,1,1.64-.49h7V42.49c-1.89.21-3.89.35-6,.49a2,2,0,0,1-2.17-2.21,1.79,1.79,0,0,1,1.51-2c6.57-.66,11.71-1.4,15.48-2.17a17.18,17.18,0,0,1,1.86-.31A2,2,0,0,1,139.18,36.92ZM135,62V58.56a.52.52,0,0,0-.56-.56H124.08a.5.5,0,0,0-.56.56V62c0,.35.17.52.56.52h10.38C134.81,62.51,135,62.34,135,62Z"/><path class="cls-10" d="M163.23,36.89a1.79,1.79,0,0,1,.42,1.15,1.42,1.42,0,0,1-1.08,1.51c-1.64.28-3.43.52-5.31.73V42h5.31a1.89,1.89,0,0,1,1.26.38,1.66,1.66,0,0,1,.38,1.26,1.58,1.58,0,0,1-.31,1.12,1.63,1.63,0,0,1-1.33.53h-5.31v1.5h4.89a2,2,0,0,1,2.2,2.21v6.27a1.94,1.94,0,0,1-2.2,2.2h-4.89V58.7H162a1.81,1.81,0,0,1,1.19.31,1.68,1.68,0,0,1,.31,1.19,1.57,1.57,0,0,1-.28,1,1.42,1.42,0,0,1-1.22.49h-4.75v1.36l4.61-.28a2.18,2.18,0,0,1,1.43.42,1.12,1.12,0,0,1,.18.21,31.84,31.84,0,0,0,2.86-8.05,46.53,46.53,0,0,0,1-9h-.8a1.78,1.78,0,0,1-1.47-.52,2.11,2.11,0,0,1-.56-1.65,2.18,2.18,0,0,1,.56-1.61,2,2,0,0,1,1.47-.45h.84V37.76a2,2,0,0,1,.52-1.4,2.87,2.87,0,0,1,3,.07,2,2,0,0,1,.46,1.33v4.38h2c1.67,0,2.76.45,3.28,1.29.56,1,.84,3.29.84,6.79q0,11.3-.63,13.45a5.48,5.48,0,0,1-2,3.15,5.32,5.32,0,0,1-3.11.91,6.4,6.4,0,0,1-2.62-.56,2.32,2.32,0,0,1-1-1.93,2.26,2.26,0,0,1,.56-1.57,2,2,0,0,1,1.37-.6c.1,0,.2,0,.31,0a4.78,4.78,0,0,0,1.33.24c.8,0,1.26-.49,1.36-1.5.14-.53.25-4.9.25-13.13a4.38,4.38,0,0,0-.32-2.1,1.48,1.48,0,0,0-.91-.25h-.87a53.74,53.74,0,0,1-.67,8A41.14,41.14,0,0,1,166.38,67a2.28,2.28,0,0,1-1.64.7,2.16,2.16,0,0,1-1.68-.6,1.62,1.62,0,0,1-.6-1h0l-15,1A1.91,1.91,0,0,1,146,66.5a1.59,1.59,0,0,1-.42-1.26,1.62,1.62,0,0,1,.56-1.26,1.78,1.78,0,0,1,1.09-.35l6.15-.35V61.71h-5.17a1.61,1.61,0,0,1-1.16-.35,1.5,1.5,0,0,1-.35-1.16,1.58,1.58,0,0,1,.35-1.19,1.65,1.65,0,0,1,1.16-.31h5.17V57.47h-4.65a1.92,1.92,0,0,1-2.17-2.2V49a1.93,1.93,0,0,1,2.17-2.21h4.65v-1.5h-6.15A1.63,1.63,0,0,1,146,44.9a2.1,2.1,0,0,1,0-2.52,1.75,1.75,0,0,1,1.23-.38h6.15V40.63c-2.27.21-4.09.28-5.45.28-1.12,0-1.65-.66-1.65-2,0-.84.53-1.29,1.51-1.4a110.93,110.93,0,0,0,13.42-1,8.56,8.56,0,0,1,.91-.07A1.41,1.41,0,0,1,163.23,36.89Zm-9.82,14V49.52h-2.73a.24.24,0,0,0-.28.28v1.09Zm0,2.48h-3v1.09c0,.21.07.28.28.28h2.73Zm3.85-2.48h3.25V49.8a.26.26,0,0,0-.28-.28h-3Zm3.25,3.57V53.37h-3.25v1.37h3A.24.24,0,0,0,160.51,54.46Z"/><path class="cls-10" d="M192,36.82a1.57,1.57,0,0,1,.88,1.64,4.52,4.52,0,0,1-.25,1.4,39.32,39.32,0,0,1-1.12,3.85V65.52a2.22,2.22,0,0,1-.63,1.79,2.31,2.31,0,0,1-1.68.56,2.28,2.28,0,0,1-1.67-.56,2.11,2.11,0,0,1-.67-1.79V53.1a1.8,1.8,0,0,1-1.61.66,2.55,2.55,0,0,1-2-.7,1.88,1.88,0,0,1-.74-1.61,3.09,3.09,0,0,1,.49-1.54,43.48,43.48,0,0,0,5.53-12.29c.24-.91.73-1.36,1.5-1.36A3.69,3.69,0,0,1,192,36.82Zm8.92-.46c.56.21.83.74.83,1.54a3.62,3.62,0,0,1-.21,1.26c-.14.56-.27,1.12-.41,1.61h11.15a2.15,2.15,0,0,1,1.6.49,2.72,2.72,0,0,1,.46,1.72,2.54,2.54,0,0,1-.39,1.57,2,2,0,0,1-1.67.6H203v4h8.88a2.08,2.08,0,0,1,1.5.42,2.16,2.16,0,0,1,.42,1.51,2.75,2.75,0,0,1-.35,1.51,1.93,1.93,0,0,1-1.57.56H203v3.67h8.88a2.08,2.08,0,0,1,1.5.42,2.16,2.16,0,0,1,.42,1.51,2.5,2.5,0,0,1-.35,1.47,1.82,1.82,0,0,1-1.57.59H203v4.76a2.42,2.42,0,0,1-.56,1.75,2.85,2.85,0,0,1-3.5,0,2.3,2.3,0,0,1-.56-1.75V47.39a32.71,32.71,0,0,1-2.06,3.36,1.58,1.58,0,0,1-1.5.7,2.39,2.39,0,0,1-1.92-.7,2,2,0,0,1-.67-1.65,2.75,2.75,0,0,1,.42-1.29,37.19,37.19,0,0,0,4.89-10.57c.25-.91.74-1.37,1.51-1.37A3.48,3.48,0,0,1,200.89,36.36Z"/><path class="cls-10" d="M230.92,52.39a2.56,2.56,0,0,1,2.86,2.88v8.47a2.55,2.55,0,0,1-2.86,2.87H223.3a2.54,2.54,0,0,1-2.87-2.87V55.27a2.54,2.54,0,0,1,2.87-2.88Zm13.8-14.77a2.67,2.67,0,0,1,3,3v6.16c0,2-1,3-3,3H225.46c-2,0-3-1-3-3V40.63c0-2,1-3,3-3ZM229.27,62V57.05a.6.6,0,0,0-.66-.66h-3c-.49,0-.7.24-.7.66V62c0,.45.21.66.7.66h3A.59.59,0,0,0,229.27,62Zm13.67-16.7V42.14a.49.49,0,0,0-.56-.53H227.77a.46.46,0,0,0-.52.53v3.15c0,.38.17.56.52.56h14.61A.5.5,0,0,0,242.94,45.29Zm4.09,7.1a2.56,2.56,0,0,1,2.87,2.88v8.47A2.56,2.56,0,0,1,247,66.61h-7.76a2.54,2.54,0,0,1-2.87-2.87V55.27a2.55,2.55,0,0,1,2.87-2.88ZM245.39,62V57.05a.61.61,0,0,0-.67-.66h-3.14c-.49,0-.7.24-.7.66V62c0,.45.21.66.7.66h3.14A.59.59,0,0,0,245.39,62Z"/></g></g></svg>