<svg xmlns="http://www.w3.org/2000/svg" xmlns:xlink="http://www.w3.org/1999/xlink" viewBox="0 0 190 85"><defs><style>.cls-1{fill:none;}.cls-2{isolation:isolate;}.cls-3{fill:#b3b3b3;}.cls-4{fill:url(#未命名漸層_94);}.cls-5{fill:#42210b;}.cls-6{clip-path:url(#clip-path);}.cls-7{fill:url(#未命名漸層_451);}.cls-8{mix-blend-mode:multiply;}.cls-9{fill:url(#未命名漸層_83);}.cls-10{fill:#fff;}.cls-11{clip-path:url(#clip-path-2);}.cls-12{fill:url(#未命名漸層_451-2);}.cls-13{fill:url(#未命名漸層_83-2);}</style><linearGradient id="未命名漸層_94" x1="94.76" y1="85" x2="94.76" y2="16.17" gradientUnits="userSpaceOnUse"><stop offset="0" stop-color="#ffa6ff"/><stop offset="0.03" stop-color="#ff94e9"/><stop offset="0.09" stop-color="#ff65b1"/><stop offset="0.1" stop-color="#ff61ac"/><stop offset="0.38" stop-color="#ff76c2"/><stop offset="0.95" stop-color="#ffacfa"/><stop offset="1" stop-color="#ffb0ff"/></linearGradient><clipPath id="clip-path"><path class="cls-1" d="M25.58,17.65A7.49,7.49,0,1,0,33,10.1,7.51,7.51,0,0,0,25.58,17.65Z"/></clipPath><linearGradient id="未命名漸層_451" x1="96.78" y1="5.26" x2="111.74" y2="5.26" gradientTransform="translate(-71.24 13.51) rotate(-0.65)" gradientUnits="userSpaceOnUse"><stop offset="0" stop-color="#ff7bac"/><stop offset="0.31" stop-color="#ff89c2"/><stop offset="0.95" stop-color="#ffadfa"/><stop offset="1" stop-color="#ffb0ff"/></linearGradient><radialGradient id="未命名漸層_83" cx="88.5" cy="-88.58" r="7.35" gradientTransform="matrix(0.96, -0.01, 0.01, 0.9, -50.85, 99.45)" gradientUnits="userSpaceOnUse"><stop offset="0" stop-color="#fff"/><stop offset="0.13" stop-color="#ffebef"/><stop offset="0.34" stop-color="#ffd0db"/><stop offset="0.55" stop-color="#ffbdcd"/><stop offset="0.77" stop-color="#ffb2c4"/><stop offset="1" stop-color="#ffaec1"/></radialGradient><clipPath id="clip-path-2"><path class="cls-1" d="M149.28,17.65a7.48,7.48,0,1,0,7.42-7.55A7.49,7.49,0,0,0,149.28,17.65Z"/></clipPath><linearGradient id="未命名漸層_451-2" x1="220.46" y1="6.66" x2="235.43" y2="6.66" xlink:href="#未命名漸層_451"/><radialGradient id="未命名漸層_83-2" cx="217.43" cy="-87.12" r="7.35" xlink:href="#未命名漸層_83"/></defs><title>頁面_FAol_1108</title><g class="cls-2"><g id="頁面內容"><rect class="cls-3" x="154.1" width="5.98" height="23"/><rect class="cls-4" y="16" width="189.51" height="69" rx="10"/><rect class="cls-3" x="29.91" width="5.98" height="23"/><ellipse class="cls-5" cx="33.4" cy="18.5" rx="7.48" ry="7.5" transform="translate(-3.84 10.08) rotate(-16.25)"/><g class="cls-6"><path class="cls-7" d="M25.58,17.65A7.49,7.49,0,1,0,33,10.1,7.51,7.51,0,0,0,25.58,17.65Z"/><g class="cls-8"><path class="cls-9" d="M31.22,20.78a7.48,7.48,0,0,0,7.42-7.55c0-.22,0-.42-.07-.63a7.47,7.47,0,1,1-12.95,5.67A7.47,7.47,0,0,0,31.22,20.78Z"/></g><path class="cls-10" d="M29.29,14A1.73,1.73,0,1,0,31,12.28,1.73,1.73,0,0,0,29.29,14Z"/></g><ellipse class="cls-5" cx="157.1" cy="18.5" rx="7.48" ry="7.5" transform="translate(1.1 44.69) rotate(-16.25)"/><g class="cls-11"><path class="cls-12" d="M149.28,17.65a7.48,7.48,0,1,0,7.42-7.55A7.49,7.49,0,0,0,149.28,17.65Z"/><g class="cls-8"><path class="cls-13" d="M154.91,20.78a7.48,7.48,0,0,0,7.42-7.55c0-.22-.05-.42-.07-.63a7.47,7.47,0,1,1-12.95,5.67A7.47,7.47,0,0,0,154.91,20.78Z"/></g><path class="cls-10" d="M153,14a1.73,1.73,0,1,0,1.71-1.74A1.73,1.73,0,0,0,153,14Z"/></g><path class="cls-10" d="M54.17,48.17a2,2,0,0,1,1.37.39,2.43,2.43,0,0,1,.07,2.59,1.68,1.68,0,0,1-1.44.59H40.24V65.81a1.88,1.88,0,0,1-.52,1.51,2.26,2.26,0,0,1-1.64.52,2,2,0,0,1-1.54-.52A1.88,1.88,0,0,1,36,65.81v-.63a65.26,65.26,0,0,1-10.51,1.16,1.75,1.75,0,0,1-1.36-.49,2.13,2.13,0,0,1-.39-1.4A2,2,0,0,1,24.22,63a1.85,1.85,0,0,1,1.18-.35,4.38,4.38,0,0,0,1-.1V51.74h-.7a1.85,1.85,0,0,1-1.33-.42A1.75,1.75,0,0,1,23.9,50a1.8,1.8,0,0,1,.42-1.4,1.87,1.87,0,0,1,1.33-.39ZM50.61,36.55a2.3,2.3,0,0,1,2.59,2.59v5.22A2.29,2.29,0,0,1,50.61,47H29.49a2.26,2.26,0,0,1-2.58-2.59V39.14a2.28,2.28,0,0,1,2.58-2.59ZM36,51.74H30.43v1.37H36Zm0,5.74V56H30.43v1.5Zm0,2.87H30.43v1.82c1.89-.17,3.74-.38,5.59-.59Zm12.57-20V40a.63.63,0,0,0-.7-.7H32.21a.62.62,0,0,0-.7.7v.39Zm0,2.87v-.53H31.51v.53c0,.49.21.7.7.7H47.89A.62.62,0,0,0,48.59,43.24ZM52,53.11a3.49,3.49,0,0,1,2.31.59A3.1,3.1,0,0,1,55.12,56a6.49,6.49,0,0,1-1.71,3.71,28.37,28.37,0,0,1-2,2.24c1.08.7,2.23,1.33,3.42,2A1.57,1.57,0,0,1,56,65.39a1.9,1.9,0,0,1-.48,1.4,1.92,1.92,0,0,1-1.85.81,5.18,5.18,0,0,1-1.79-.46,26.39,26.39,0,0,1-2.4-1.33c-.49-.31-.91-.63-1.33-.91-.45.35-.87.67-1.29.95a12.23,12.23,0,0,1-3.42,1.75A2.3,2.3,0,0,1,41.67,67a2,2,0,0,1-.59-1.3A2.24,2.24,0,0,1,41.74,64c1.09-.63,2.1-1.26,3-1.89a26.42,26.42,0,0,1-2-2,3.6,3.6,0,0,1-.91-1.22,2.29,2.29,0,0,1-.27-1.19,1.73,1.73,0,0,1,.55-1.26,1,1,0,0,1,.28-.18,1.58,1.58,0,0,1-.83-1.57,1.53,1.53,0,0,1,1.64-1.61ZM48,59.58a7.38,7.38,0,0,0,.94-.91c.91-.84,1.36-1.47,1.36-1.89a.25.25,0,0,0-.24-.28H44.5A25.55,25.55,0,0,0,48,59.58Z"/><path class="cls-10" d="M71,36.06a1.9,1.9,0,0,1,.73,1.58v1.08h3.53a1.93,1.93,0,0,1,1.39.46c.35.21.53.77.53,1.61a2.22,2.22,0,0,1-.32,1.4,1.78,1.78,0,0,1-1.6.66h-.32l-.59,3.82h1.19a2.16,2.16,0,0,1,1.39.38c.35.21.53.74.53,1.54a2.2,2.2,0,0,1-.32,1.4,2,2,0,0,1-1.6.63H71.45V53h3.28a2.34,2.34,0,0,1,1.51.42c.34.24.52.77.52,1.61a2.5,2.5,0,0,1-.31,1.5,2,2,0,0,1-1.72.7H71.45v1.19l.07-.07A2.21,2.21,0,0,1,72.67,58a1.82,1.82,0,0,1,1.23.42,13.63,13.63,0,0,1,1.57,2,10.36,10.36,0,0,1,1,1.78,20,20,0,0,0,1.81-8.26V42.29c0-1.82.46-3,1.43-3.6a4.65,4.65,0,0,1,2.69-.77,25.46,25.46,0,0,0,6.81-1.68,1.73,1.73,0,0,1,.56-.11,1.76,1.76,0,0,1,1.43.67,2.15,2.15,0,0,1,.73,1.82,2.41,2.41,0,0,1-1.64,2.45,29.39,29.39,0,0,1-6.53,1.22c-.77.11-1.12.46-1.12,1.09v3.15h8.07A2.34,2.34,0,0,1,92.4,47a3,3,0,0,1,.45,1.82,3.41,3.41,0,0,1-.34,1.71,2.35,2.35,0,0,1-1.82.63h-.94V65.67a2.06,2.06,0,0,1-.56,1.61,2.68,2.68,0,0,1-3.28,0,2.06,2.06,0,0,1-.53-1.61V51.18H82.62v2.73c0,5.22-1,9.42-3,12.57a3,3,0,0,1-2.86,1.36,2,2,0,0,1-1.4-.8,3,3,0,0,1-.49-1.65,2.8,2.8,0,0,1,.67-1.4.11.11,0,0,0,0-.07,2.07,2.07,0,0,1-1,.25,1.06,1.06,0,0,1-1.08-.56c-.63-1-1.29-2.07-2.06-3.12v5.32a2.06,2.06,0,0,1-.56,1.61,2.21,2.21,0,0,1-1.6.56,2.25,2.25,0,0,1-1.64-.56,1.93,1.93,0,0,1-.56-1.61v-5a19.4,19.4,0,0,1-3.42,4.83,1.45,1.45,0,0,1-1.09.42,1.73,1.73,0,0,1-1.46-.77,2,2,0,0,1-.46-1.57,3,3,0,0,1,.42-1.23,41,41,0,0,0,3.11-3.67c.38-.53.77-1.09,1.12-1.65H63.14a2,2,0,0,1-1.46-.52c-.42-.28-.6-.84-.6-1.68a2,2,0,0,1,.6-1.68A2.47,2.47,0,0,1,63.14,53h4V50.62H62.58a1.77,1.77,0,0,1-1.92-2A1.83,1.83,0,0,1,61.22,47a2.14,2.14,0,0,1,1.36-.35H64.4l-.73-3.82h-.39a1.82,1.82,0,0,1-1.39-.49,1.92,1.92,0,0,1-.53-1.57,2.18,2.18,0,0,1,.53-1.68,2,2,0,0,1,1.39-.39h3.53V37.64a2.24,2.24,0,0,1,.7-1.61,2.89,2.89,0,0,1,1.78-.42A2.72,2.72,0,0,1,71,36.06Zm-.32,10.61.6-3.82h-4l.74,3.82Z"/><path class="cls-10" d="M100.39,45.23a21.73,21.73,0,0,1,3.91,2.52,1.93,1.93,0,0,1,.81,1.51,2.86,2.86,0,0,1-.49,1.64A2.11,2.11,0,0,1,102.8,52a1.49,1.49,0,0,1-.84-.21,1.47,1.47,0,0,1-.66-.39c-1-.77-2.06-1.5-3.25-2.27a.51.51,0,0,1-.31-.28,1.48,1.48,0,0,1-.66-1.37,2.42,2.42,0,0,1,.69-1.71A1.84,1.84,0,0,1,99.38,45,2.77,2.77,0,0,1,100.39,45.23Zm3.91,9.24a2,2,0,0,1,1,1.89A4.79,4.79,0,0,1,104.9,58c-.6,2-1.09,3.64-1.47,4.9s-.8,2.2-1.05,2.76a2.42,2.42,0,0,1-2.3,1.79,3.66,3.66,0,0,1-1.82-.81,2.42,2.42,0,0,1-.66-1.78c.28-1,1.08-3.4,2.48-7.32a14.46,14.46,0,0,1,.66-1.85c.35-1.09.94-1.65,1.78-1.65A3.53,3.53,0,0,1,104.3,54.47Zm-2.86-17.81a21,21,0,0,1,4.22,2.62,1.93,1.93,0,0,1,.81,1.51,2.86,2.86,0,0,1-.49,1.64,2.1,2.1,0,0,1-1.82,1.09,1.79,1.79,0,0,1-.9-.21,2,2,0,0,1-.74-.42A39.3,39.3,0,0,0,99,40.51c-.17-.07-.28-.14-.31-.28a1.43,1.43,0,0,1-.7-1.37,2.34,2.34,0,0,1,.7-1.71,1.82,1.82,0,0,1,1.6-.74A3.39,3.39,0,0,1,101.44,36.66Zm26.12,0a2.48,2.48,0,0,1,.73,1.82,1.69,1.69,0,0,1-.8,1.61A42.65,42.65,0,0,1,120,41.66V45.3h7a2.58,2.58,0,0,1,1.71.49,3,3,0,0,1,.07,3.19,2.11,2.11,0,0,1-1.78.7h-7v3.53h5.59A2.44,2.44,0,0,1,128.29,56V64a2.41,2.41,0,0,1-2.72,2.73H109.75A2.41,2.41,0,0,1,107,64V56a2.43,2.43,0,0,1,2.72-2.77h5.45V49.68h-7a2.26,2.26,0,0,1-1.64-.53,2,2,0,0,1-.56-1.68,2,2,0,0,1,.56-1.68,2.31,2.31,0,0,1,1.64-.49h7V42.22c-1.89.21-3.88.35-6,.49a2,2,0,0,1-2.16-2.2,1.78,1.78,0,0,1,1.5-2c6.56-.67,11.69-1.4,15.46-2.17a17.48,17.48,0,0,1,1.85-.32A2,2,0,0,1,127.56,36.66ZM123.4,61.72V58.29a.52.52,0,0,0-.56-.56H112.47a.5.5,0,0,0-.56.56v3.43c0,.35.18.52.56.52h10.37C123.19,62.24,123.4,62.07,123.4,61.72Z"/><path class="cls-10" d="M151.57,36.62a1.82,1.82,0,0,1,.42,1.16,1.42,1.42,0,0,1-1.08,1.5c-1.64.28-3.42.53-5.31.74v1.71h5.31a1.84,1.84,0,0,1,1.26.39,1.66,1.66,0,0,1,.38,1.26,1.6,1.6,0,0,1-.31,1.12,1.62,1.62,0,0,1-1.33.52H145.6v1.51h4.89a1.94,1.94,0,0,1,2.2,2.2V55a1.94,1.94,0,0,1-2.2,2.2H145.6v1.23h4.75a1.81,1.81,0,0,1,1.19.31,1.68,1.68,0,0,1,.31,1.19,1.57,1.57,0,0,1-.28,1,1.42,1.42,0,0,1-1.22.49H145.6V62.8l4.61-.28a2.18,2.18,0,0,1,1.43.42,1.12,1.12,0,0,1,.18.21,32.23,32.23,0,0,0,2.86-8,47.22,47.22,0,0,0,1-9h-.81a1.78,1.78,0,0,1-1.46-.53,2.05,2.05,0,0,1-.56-1.64,2.12,2.12,0,0,1,.56-1.61,2,2,0,0,1,1.46-.46h.84V37.5a2,2,0,0,1,.53-1.4,2.79,2.79,0,0,1,3,.07,2,2,0,0,1,.46,1.33v4.37h2c1.68,0,2.76.46,3.28,1.3.56,1,.84,3.29.84,6.79q0,11.28-.63,13.44a5.43,5.43,0,0,1-2,3.15,5.26,5.26,0,0,1-3.1.91,6.4,6.4,0,0,1-2.62-.56,2.48,2.48,0,0,1-.39-3.5,2,2,0,0,1,1.37-.6c.1,0,.21,0,.31,0a4.78,4.78,0,0,0,1.33.24c.8,0,1.25-.49,1.36-1.5.14-.53.24-4.9.24-13.13a4.47,4.47,0,0,0-.31-2.1,1.5,1.5,0,0,0-.91-.24h-.87a53.61,53.61,0,0,1-.67,7.94,41.14,41.14,0,0,1-4.18,12.71,2.32,2.32,0,0,1-1.65.7,2.15,2.15,0,0,1-1.67-.6,1.62,1.62,0,0,1-.6-1h0l-15,1a1.86,1.86,0,0,1-1.36-.53,1.88,1.88,0,0,1,.13-2.52,1.78,1.78,0,0,1,1.09-.35l6.14-.35V61.44h-5.17a1.6,1.6,0,0,1-1.15-.35,1.5,1.5,0,0,1-.35-1.16,1.58,1.58,0,0,1,.35-1.19,1.63,1.63,0,0,1,1.15-.31h5.17V57.2h-4.64A1.92,1.92,0,0,1,135,55V48.73a1.92,1.92,0,0,1,2.17-2.2h4.64V45h-6.14a1.59,1.59,0,0,1-1.22-.38,2.1,2.1,0,0,1,0-2.52,1.67,1.67,0,0,1,1.22-.39h6.14V40.37c-2.27.21-4.08.28-5.44.28-1.12,0-1.65-.67-1.65-2,0-.84.53-1.3,1.51-1.4a112.65,112.65,0,0,0,13.4-1c.35,0,.67-.07.91-.07A1.44,1.44,0,0,1,151.57,36.62Zm-9.81,14V49.26H139c-.21,0-.28.1-.28.28v1.08Zm0,2.49h-3v1.08c0,.21.07.28.28.28h2.72Zm3.84-2.49h3.25V49.54a.26.26,0,0,0-.28-.28h-3Zm3.25,3.57V53.11H145.6v1.36h3A.24.24,0,0,0,148.85,54.19Z"/></g></g></svg>