<svg xmlns="http://www.w3.org/2000/svg" xmlns:xlink="http://www.w3.org/1999/xlink" viewBox="0 0 285 85"><defs><style>.cls-1{fill:none;}.cls-2{isolation:isolate;}.cls-3{fill:url(#未命名漸層_94);}.cls-4{fill:#fff;}.cls-5{fill:#b3b3b3;}.cls-6{fill:#42210b;}.cls-7{clip-path:url(#clip-path);}.cls-8{fill:url(#未命名漸層_451);}.cls-9{mix-blend-mode:multiply;}.cls-10{fill:url(#未命名漸層_83);}.cls-11{clip-path:url(#clip-path-2);}.cls-12{fill:url(#未命名漸層_451-2);}.cls-13{fill:url(#未命名漸層_83-2);}</style><linearGradient id="未命名漸層_94" x1="142.87" y1="84.82" x2="142.87" y2="15.99" gradientUnits="userSpaceOnUse"><stop offset="0" stop-color="#ffa6ff"/><stop offset="0.03" stop-color="#ff94e9"/><stop offset="0.09" stop-color="#ff65b1"/><stop offset="0.1" stop-color="#ff61ac"/><stop offset="0.38" stop-color="#ff76c2"/><stop offset="0.95" stop-color="#ffacfa"/><stop offset="1" stop-color="#ffb0ff"/></linearGradient><clipPath id="clip-path"><path class="cls-1" d="M25.58,17.65A7.49,7.49,0,1,0,33,10.1,7.51,7.51,0,0,0,25.58,17.65Z"/></clipPath><linearGradient id="未命名漸層_451" x1="96.77" y1="7.81" x2="111.73" y2="7.81" gradientTransform="translate(-71.26 10.96) rotate(-0.65)" gradientUnits="userSpaceOnUse"><stop offset="0" stop-color="#ff7bac"/><stop offset="0.31" stop-color="#ff89c2"/><stop offset="0.95" stop-color="#ffadfa"/><stop offset="1" stop-color="#ffb0ff"/></linearGradient><radialGradient id="未命名漸層_83" cx="98.07" cy="-85.91" r="7.35" gradientTransform="matrix(0.96, -0.01, 0.01, 0.9, -60.06, 97.15)" gradientUnits="userSpaceOnUse"><stop offset="0" stop-color="#fff"/><stop offset="0.13" stop-color="#ffebef"/><stop offset="0.34" stop-color="#ffd0db"/><stop offset="0.55" stop-color="#ffbdcd"/><stop offset="0.77" stop-color="#ffb2c4"/><stop offset="1" stop-color="#ffaec1"/></radialGradient><clipPath id="clip-path-2"><path class="cls-1" d="M242.28,17.65a7.48,7.48,0,1,0,7.42-7.55A7.49,7.49,0,0,0,242.28,17.65Z"/></clipPath><linearGradient id="未命名漸層_451-2" x1="313.46" y1="10.26" x2="328.42" y2="10.26" xlink:href="#未命名漸層_451"/><radialGradient id="未命名漸層_83-2" cx="323.94" cy="-83.35" r="7.35" xlink:href="#未命名漸層_83"/></defs><title>頁面_FAol_1108</title><g class="cls-2"><g id="頁面內容"><rect class="cls-3" x="0.37" y="15.82" width="285" height="69" rx="10"/><path class="cls-4" d="M67.76,48a2.09,2.09,0,0,1,1.37.38,1.81,1.81,0,0,1,.42,1.4A1.78,1.78,0,0,1,69.2,51a1.69,1.69,0,0,1-1.44.6h-14V65.68a1.86,1.86,0,0,1-.53,1.5,2.27,2.27,0,0,1-1.65.53,2.07,2.07,0,0,1-1.54-.53,1.85,1.85,0,0,1-.52-1.5v-.63A65.34,65.34,0,0,1,39,66.2a1.72,1.72,0,0,1-1.36-.49,2.13,2.13,0,0,1-.39-1.4,1.93,1.93,0,0,1,.46-1.43,1.8,1.8,0,0,1,1.19-.35,4.31,4.31,0,0,0,.94-.11V51.61h-.7a1.85,1.85,0,0,1-1.33-.42,1.78,1.78,0,0,1-.42-1.37,1.81,1.81,0,0,1,.42-1.4A1.92,1.92,0,0,1,39.16,48ZM64.19,36.41A2.3,2.3,0,0,1,66.78,39v5.21a2.28,2.28,0,0,1-2.59,2.59H43a2.27,2.27,0,0,1-2.59-2.59V39A2.29,2.29,0,0,1,43,36.41ZM49.56,51.61H44V53h5.6Zm0,5.74V55.84H44v1.51Zm0,2.87H44V62c1.89-.18,3.74-.39,5.6-.6Zm12.6-20v-.38a.62.62,0,0,0-.7-.7H45.74a.61.61,0,0,0-.7.7v.38Zm0,2.87v-.52H45v.52c0,.49.21.7.7.7H61.46A.61.61,0,0,0,62.16,43.1ZM65.56,53a3.43,3.43,0,0,1,2.31.6,3.09,3.09,0,0,1,.84,2.27A6.45,6.45,0,0,1,67,59.55a25,25,0,0,1-2,2.24c1.08.7,2.24,1.33,3.43,2a1.6,1.6,0,0,1,1.12,1.51,1.91,1.91,0,0,1-.49,1.4,1.94,1.94,0,0,1-1.86.8A5.09,5.09,0,0,1,65.42,67,26.75,26.75,0,0,1,63,65.68c-.49-.32-.91-.63-1.33-.91-.45.35-.87.66-1.29.94A11.94,11.94,0,0,1,57,67.46a2.3,2.3,0,0,1-1.72-.63,1.87,1.87,0,0,1-.59-1.29,2.28,2.28,0,0,1,.66-1.65c1.09-.63,2.1-1.26,3-1.89a26.29,26.29,0,0,1-2-2,3.73,3.73,0,0,1-.91-1.23,2.3,2.3,0,0,1-.28-1.19,1.77,1.77,0,0,1,.56-1.26,1,1,0,0,1,.28-.17,1.6,1.6,0,0,1-.84-1.58A1.54,1.54,0,0,1,56.8,53Zm-4,6.48a8.24,8.24,0,0,0,.95-.91c.91-.84,1.36-1.47,1.36-1.89,0-.18-.1-.28-.24-.28h-5.6A25.64,25.64,0,0,0,61.6,59.45Z"/><path class="cls-4" d="M84.63,35.92a1.91,1.91,0,0,1,.73,1.58v1.09H88.9a2,2,0,0,1,1.4.45c.35.21.53.77.53,1.61a2.2,2.2,0,0,1-.32,1.4,1.79,1.79,0,0,1-1.61.67h-.31L88,46.53h1.19a2.13,2.13,0,0,1,1.4.39c.35.21.52.73.52,1.54a2.23,2.23,0,0,1-.31,1.4,2,2,0,0,1-1.61.63h-4.1v2.34h3.29a2.34,2.34,0,0,1,1.51.42c.35.25.52.77.52,1.61a2.49,2.49,0,0,1-.31,1.51,2,2,0,0,1-1.72.7H85.08v1.19l.07-.07a2.22,2.22,0,0,1,1.16-.32,1.77,1.77,0,0,1,1.22.42,13.41,13.41,0,0,1,1.58,2,10.32,10.32,0,0,1,1,1.79,19.87,19.87,0,0,0,1.82-8.26V42.16c0-1.82.46-3,1.44-3.61A4.65,4.65,0,0,1,96,37.78a25.55,25.55,0,0,0,6.83-1.68,1.73,1.73,0,0,1,.56-.11,1.76,1.76,0,0,1,1.43.67,2.15,2.15,0,0,1,.74,1.82A2.4,2.4,0,0,1,104,40.93a30,30,0,0,1-6.54,1.23c-.77.1-1.12.45-1.12,1.08v3.15h8.08a2.43,2.43,0,0,1,1.72.49,3,3,0,0,1,.45,1.82,3.41,3.41,0,0,1-.35,1.72,2.33,2.33,0,0,1-1.82.63h-.94V65.54a2.08,2.08,0,0,1-.56,1.61,2.7,2.7,0,0,1-3.29,0,2.08,2.08,0,0,1-.53-1.61V51.05H96.29v2.73c0,5.21-1,9.41-3,12.56a3,3,0,0,1-2.88,1.37A1.94,1.94,0,0,1,89,66.9a2.9,2.9,0,0,1-.5-1.64,2.76,2.76,0,0,1,.67-1.4s0,0,0-.07a2.24,2.24,0,0,1-1,.24,1,1,0,0,1-1.08-.56c-.63-1-1.3-2.06-2.07-3.11v5.32a2.08,2.08,0,0,1-.56,1.61,2.24,2.24,0,0,1-1.61.56,2.27,2.27,0,0,1-1.64-.56,1.94,1.94,0,0,1-.56-1.61v-5a19.59,19.59,0,0,1-3.43,4.83,1.45,1.45,0,0,1-1.09.42,1.73,1.73,0,0,1-1.47-.77,2.1,2.1,0,0,1-.45-1.58,2.91,2.91,0,0,1,.42-1.22,43.06,43.06,0,0,0,3.11-3.68c.39-.52.77-1.08,1.12-1.64H76.75a2,2,0,0,1-1.47-.53c-.42-.28-.59-.84-.59-1.68a2,2,0,0,1,.59-1.68,2.5,2.5,0,0,1,1.47-.35h4V50.49H76.19a2.17,2.17,0,0,1-1.36-3.61,2.12,2.12,0,0,1,1.36-.35H78l-.73-3.81h-.39a1.86,1.86,0,0,1-1.4-.49A2,2,0,0,1,75,40.65,2.21,2.21,0,0,1,75.49,39a2.13,2.13,0,0,1,1.4-.38h3.54V37.5a2.24,2.24,0,0,1,.7-1.61,2.89,2.89,0,0,1,1.78-.42A2.73,2.73,0,0,1,84.63,35.92Zm-.32,10.61.6-3.81H81l.74,3.81Z"/><path class="cls-4" d="M114.1,45.1A22.17,22.17,0,0,1,118,47.62a1.93,1.93,0,0,1,.8,1.5,2.84,2.84,0,0,1-.49,1.65,2.09,2.09,0,0,1-1.82,1.08,1.49,1.49,0,0,1-.84-.21,1.44,1.44,0,0,1-.66-.38c-1-.77-2.07-1.51-3.26-2.28a.49.49,0,0,1-.31-.28,1.45,1.45,0,0,1-.67-1.36,2.43,2.43,0,0,1,.7-1.72,1.83,1.83,0,0,1,1.61-.73A2.78,2.78,0,0,1,114.1,45.1ZM118,54.34a2,2,0,0,1,.94,1.89,4.79,4.79,0,0,1-.35,1.64c-.59,2-1.08,3.64-1.47,4.9s-.8,2.21-1,2.77a2.41,2.41,0,0,1-2.31,1.78,3.56,3.56,0,0,1-1.82-.8,2.44,2.44,0,0,1-.66-1.79c.28-1,1.08-3.39,2.48-7.31a13.65,13.65,0,0,1,.67-1.86c.35-1.08.94-1.64,1.78-1.64A3.56,3.56,0,0,1,118,54.34Zm-2.87-17.82a21.44,21.44,0,0,1,4.23,2.63,1.91,1.91,0,0,1,.81,1.5,2.92,2.92,0,0,1-.49,1.65,2.1,2.1,0,0,1-1.82,1.08,1.83,1.83,0,0,1-.91-.21,2,2,0,0,1-.74-.42,41.78,41.78,0,0,0-3.5-2.38c-.17-.07-.28-.14-.31-.28a1.42,1.42,0,0,1-.7-1.36,2.36,2.36,0,0,1,.7-1.72,1.83,1.83,0,0,1,1.61-.74A3.45,3.45,0,0,1,115.15,36.52Zm26.18,0a2.47,2.47,0,0,1,.74,1.82,1.68,1.68,0,0,1-.81,1.61,42.67,42.67,0,0,1-7.52,1.58v3.64h7a2.56,2.56,0,0,1,1.72.49,2.25,2.25,0,0,1,.49,1.68,2.19,2.19,0,0,1-.42,1.5,2.12,2.12,0,0,1-1.79.7h-7v3.54h5.6a2.43,2.43,0,0,1,2.73,2.76v8a2.41,2.41,0,0,1-2.73,2.73H123.48a2.41,2.41,0,0,1-2.73-2.73v-8a2.43,2.43,0,0,1,2.73-2.76h5.46V49.54h-7a2.26,2.26,0,0,1-1.64-.52,2,2,0,0,1-.56-1.68,2,2,0,0,1,.56-1.68,2.26,2.26,0,0,1,1.64-.49h7V42.09c-1.89.21-3.89.35-6,.49a2,2,0,0,1-2.17-2.21,1.78,1.78,0,0,1,1.5-2c6.59-.66,11.73-1.4,15.51-2.17a17.22,17.22,0,0,1,1.86-.32A2,2,0,0,1,141.33,36.52Zm-4.16,25.06V58.15a.52.52,0,0,0-.56-.56h-10.4a.5.5,0,0,0-.56.56v3.43c0,.35.17.53.56.53h10.4A.49.49,0,0,0,137.17,61.58Z"/><path class="cls-4" d="M165.41,36.48a1.84,1.84,0,0,1,.42,1.16,1.42,1.42,0,0,1-1.08,1.51c-1.65.28-3.44.52-5.33.73V41.6h5.33A1.93,1.93,0,0,1,166,42a1.66,1.66,0,0,1,.38,1.26,1.58,1.58,0,0,1-.31,1.12,1.63,1.63,0,0,1-1.33.53h-5.33v1.5h4.91a2,2,0,0,1,2.2,2.21v6.26a2,2,0,0,1-2.2,2.21h-4.91v1.22h4.76a1.81,1.81,0,0,1,1.2.32,1.67,1.67,0,0,1,.31,1.19,1.56,1.56,0,0,1-.28,1,1.42,1.42,0,0,1-1.23.49h-4.76v1.37l4.63-.28a2.18,2.18,0,0,1,1.43.42,1.12,1.12,0,0,1,.18.21A32.26,32.26,0,0,0,168.53,55a47.33,47.33,0,0,0,1-9h-.81a1.78,1.78,0,0,1-1.47-.52,2.11,2.11,0,0,1-.56-1.65,2.18,2.18,0,0,1,.56-1.61,2,2,0,0,1,1.47-.45h.84V37.36a2,2,0,0,1,.53-1.4,2.81,2.81,0,0,1,3,.07,2,2,0,0,1,.46,1.33v4.38h2c1.68,0,2.76.45,3.29,1.29.56,1,.84,3.29.84,6.79q0,11.3-.63,13.44a5.49,5.49,0,0,1-2,3.15,5.25,5.25,0,0,1-3.11.91,6.3,6.3,0,0,1-2.63-.56,2.46,2.46,0,0,1-.38-3.5,2,2,0,0,1,1.36-.59c.11,0,.21,0,.32,0a5.16,5.16,0,0,0,1.33.25c.8,0,1.26-.49,1.36-1.51.14-.52.25-4.9.25-13.12a4.38,4.38,0,0,0-.32-2.1,1.48,1.48,0,0,0-.91-.25h-.87a53.74,53.74,0,0,1-.67,8,40.83,40.83,0,0,1-4.2,12.7,2.24,2.24,0,0,1-1.64.7,2.22,2.22,0,0,1-1.69-.59,1.65,1.65,0,0,1-.59-1h0l-15,.94a1.88,1.88,0,0,1-1.36-.52,1.62,1.62,0,0,1-.42-1.26,1.57,1.57,0,0,1,.56-1.26,1.69,1.69,0,0,1,1.08-.35l6.16-.35V61.3h-5.18a1.54,1.54,0,0,1-1.15-.35,1.44,1.44,0,0,1-.35-1.15,1.54,1.54,0,0,1,.35-1.19,1.61,1.61,0,0,1,1.15-.32h5.18V57.07h-4.65a1.93,1.93,0,0,1-2.17-2.21V48.6a1.93,1.93,0,0,1,2.17-2.21h4.65v-1.5h-6.16a1.6,1.6,0,0,1-1.22-.39,2.1,2.1,0,0,1,0-2.52,1.71,1.71,0,0,1,1.22-.38h6.16V40.23c-2.27.21-4.09.28-5.46.28-1.12,0-1.64-.66-1.64-2,0-.84.52-1.3,1.5-1.4a113.56,113.56,0,0,0,13.45-1c.34,0,.66-.07.91-.07A1.44,1.44,0,0,1,165.41,36.48Zm-9.84,14V49.12h-2.73a.24.24,0,0,0-.28.28v1.09Zm0,2.48h-3v1.09c0,.21.07.28.28.28h2.73Zm3.85-2.48h3.26V49.4a.26.26,0,0,0-.28-.28h-3Zm3.26,3.57V53h-3.26v1.37h3A.24.24,0,0,0,162.68,54.06Z"/><path class="cls-4" d="M194.18,36.41c.56.21.87.77.87,1.65a4.51,4.51,0,0,1-.24,1.4c-.32,1.33-.7,2.63-1.12,3.85V65.12a2.2,2.2,0,0,1-.63,1.78,2.8,2.8,0,0,1-3.36,0,2.09,2.09,0,0,1-.67-1.78V52.69a1.78,1.78,0,0,1-1.61.67,2.56,2.56,0,0,1-2-.7,1.87,1.87,0,0,1-.73-1.61,3.09,3.09,0,0,1,.49-1.54,43.48,43.48,0,0,0,5.53-12.29c.24-.91.73-1.37,1.5-1.37A3.72,3.72,0,0,1,194.18,36.41ZM203.1,36A1.44,1.44,0,0,1,204,37.5a3.62,3.62,0,0,1-.21,1.26c-.14.56-.28,1.12-.42,1.61h11.16a2.18,2.18,0,0,1,1.61.49,2.72,2.72,0,0,1,.46,1.72,2.54,2.54,0,0,1-.39,1.57,2.06,2.06,0,0,1-1.68.6h-9.31v4h8.89a2.1,2.1,0,0,1,1.51.42,2.16,2.16,0,0,1,.42,1.51,2.69,2.69,0,0,1-.35,1.5,1.92,1.92,0,0,1-1.58.56h-8.89v3.68h8.89a2.1,2.1,0,0,1,1.51.42,2.13,2.13,0,0,1,.42,1.5,2.5,2.5,0,0,1-.35,1.47,1.84,1.84,0,0,1-1.58.6h-8.89v4.76a2.46,2.46,0,0,1-4.06,1.75,2.28,2.28,0,0,1-.56-1.75V47a31.1,31.1,0,0,1-2.07,3.36,1.58,1.58,0,0,1-1.5.7,2.43,2.43,0,0,1-1.93-.7,2.07,2.07,0,0,1-.66-1.65,2.75,2.75,0,0,1,.42-1.29,37.47,37.47,0,0,0,4.9-10.57c.25-.92.73-1.37,1.51-1.37A3.36,3.36,0,0,1,203.1,36Z"/><path class="cls-4" d="M233.17,52A2.56,2.56,0,0,1,236,54.86v8.47a2.56,2.56,0,0,1-2.87,2.87h-7.63a2.54,2.54,0,0,1-2.87-2.87V54.86A2.54,2.54,0,0,1,225.54,52ZM247,37.22a2.67,2.67,0,0,1,3,3v6.16c0,2-1,3-3,3H227.71c-2,0-3-1-3-3V40.23c0-2,1-3,3-3ZM231.52,61.58V56.65a.61.61,0,0,0-.66-.67h-3c-.49,0-.7.25-.7.67v4.93c0,.46.21.67.7.67h3A.59.59,0,0,0,231.52,61.58Zm13.69-16.69V41.74a.49.49,0,0,0-.56-.53H230a.47.47,0,0,0-.53.53v3.15c0,.38.18.56.53.56h14.63A.5.5,0,0,0,245.21,44.89Zm4.1,7.1a2.56,2.56,0,0,1,2.87,2.87v8.47a2.56,2.56,0,0,1-2.87,2.87h-7.77a2.54,2.54,0,0,1-2.87-2.87V54.86A2.54,2.54,0,0,1,241.54,52Zm-1.65,9.59V56.65A.61.61,0,0,0,247,56h-3.15c-.49,0-.7.25-.7.67v4.93c0,.46.21.67.7.67H247A.59.59,0,0,0,247.66,61.58Z"/><rect class="cls-5" x="247.1" width="5.98" height="23"/><rect class="cls-5" x="29.91" width="5.98" height="23"/><ellipse class="cls-6" cx="33.4" cy="18.5" rx="7.48" ry="7.5" transform="translate(-3.84 10.08) rotate(-16.25)"/><g class="cls-7"><path class="cls-8" d="M25.58,17.65A7.49,7.49,0,1,0,33,10.1,7.51,7.51,0,0,0,25.58,17.65Z"/><g class="cls-9"><path class="cls-10" d="M31.22,20.78a7.48,7.48,0,0,0,7.42-7.55c0-.22,0-.42-.07-.63a7.47,7.47,0,1,1-12.95,5.67A7.47,7.47,0,0,0,31.22,20.78Z"/></g><path class="cls-4" d="M29.29,14A1.73,1.73,0,1,0,31,12.28,1.73,1.73,0,0,0,29.29,14Z"/></g><ellipse class="cls-6" cx="250.1" cy="18.5" rx="7.48" ry="7.5" transform="translate(4.81 70.71) rotate(-16.25)"/><g class="cls-11"><path class="cls-12" d="M242.28,17.65a7.48,7.48,0,1,0,7.42-7.55A7.49,7.49,0,0,0,242.28,17.65Z"/><g class="cls-9"><path class="cls-13" d="M247.91,20.78a7.48,7.48,0,0,0,7.42-7.55c0-.22-.05-.42-.07-.63a7.47,7.47,0,1,1-12.95,5.67A7.47,7.47,0,0,0,247.91,20.78Z"/></g><path class="cls-4" d="M246,14a1.73,1.73,0,1,0,1.71-1.74A1.73,1.73,0,0,0,246,14Z"/></g></g></g></svg>