<svg xmlns="http://www.w3.org/2000/svg" xmlns:xlink="http://www.w3.org/1999/xlink" viewBox="0 0 61.45 59.55"><defs><style>.cls-1{fill:#603813;stroke:#603813;stroke-width:10px;}.cls-1,.cls-2{stroke-miterlimit:10;}.cls-2,.cls-4{fill:#fff;}.cls-2{stroke:#fff;stroke-width:5px;}.cls-3{fill:url(#未命名漸層_36);}</style><linearGradient id="未命名漸層_36" x1="30.72" y1="48.36" x2="30.72" y2="2.25" gradientUnits="userSpaceOnUse"><stop offset="0" stop-color="#ff9456"/><stop offset="1" stop-color="red"/></linearGradient></defs><title>頁面_FAol_1108</title><g id="跳出內容"><path class="cls-1" d="M50.24,22.64,42,30.2l8.28,7.73C52.05,39.65,53,41.11,53,42.48A9.86,9.86,0,0,1,50.82,49a7.86,7.86,0,0,1-6.07,2.49,7.44,7.44,0,0,1-4.84-2.15l-9.35-8.59-9.35,8.59a7.25,7.25,0,0,1-4.76,2.15,7.58,7.58,0,0,1-5.82-2.58,8.85,8.85,0,0,1-2.3-6.18c0-1.55.82-3.18,2.55-4.81l8.28-7.73-8.28-7.56a6.79,6.79,0,0,1-2.55-5.16,8.32,8.32,0,0,1,2.3-5.84,7,7,0,0,1,5.5-2.57,7.71,7.71,0,0,1,5.08,2.14l9.35,8.59,9.35-8.59a7.49,7.49,0,0,1,4.92-2.14,8.07,8.07,0,0,1,5.82,2.57,8.9,8.9,0,0,1,2.46,6.1C53.11,19.29,52.13,20.92,50.24,22.64Z"/><path class="cls-2" d="M50.24,21.62,42,29.18l8.28,7.73C52.05,38.63,53,40.09,53,41.46A9.86,9.86,0,0,1,50.82,48a7.86,7.86,0,0,1-6.07,2.49,7.44,7.44,0,0,1-4.84-2.15l-9.35-8.59-9.35,8.59a7.25,7.25,0,0,1-4.76,2.15,7.58,7.58,0,0,1-5.82-2.58,8.83,8.83,0,0,1-2.3-6.18c0-1.55.82-3.18,2.55-4.81l8.28-7.73-8.28-7.56a6.79,6.79,0,0,1-2.55-5.16,8.32,8.32,0,0,1,2.3-5.84,7.06,7.06,0,0,1,5.5-2.57,7.71,7.71,0,0,1,5.08,2.14l9.35,8.59,9.35-8.59a7.49,7.49,0,0,1,4.92-2.14,8.11,8.11,0,0,1,5.82,2.57,8.9,8.9,0,0,1,2.46,6.1C53.11,18.27,52.13,19.9,50.24,21.62Z"/><path class="cls-3" d="M50.24,21.62,42,29.18l8.28,7.73C52.05,38.63,53,40.09,53,41.46A9.86,9.86,0,0,1,50.82,48a7.86,7.86,0,0,1-6.07,2.49,7.44,7.44,0,0,1-4.84-2.15l-9.35-8.59-9.35,8.59a7.25,7.25,0,0,1-4.76,2.15,7.58,7.58,0,0,1-5.82-2.58,8.83,8.83,0,0,1-2.3-6.18c0-1.55.82-3.18,2.55-4.81l8.28-7.73-8.28-7.56a6.79,6.79,0,0,1-2.55-5.16,8.32,8.32,0,0,1,2.3-5.84,7.06,7.06,0,0,1,5.5-2.57,7.71,7.71,0,0,1,5.08,2.14l9.35,8.59,9.35-8.59a7.49,7.49,0,0,1,4.92-2.14,8.11,8.11,0,0,1,5.82,2.57,8.9,8.9,0,0,1,2.46,6.1C53.11,18.27,52.13,19.9,50.24,21.62Z"/><path class="cls-4" d="M15,11.07a7.12,7.12,0,0,0-3.47,3.54,1.51,1.51,0,0,0,2.06,1.9,1.64,1.64,0,0,0,.78-.84l.15-.3-.18.34a5.69,5.69,0,0,1,.78-1.11l-.26.29A5.55,5.55,0,0,1,15.92,14l-.33.21a5.57,5.57,0,0,1,.68-.37,1.6,1.6,0,0,0,.78-.84A1.52,1.52,0,0,0,15,11.07Z"/></g></svg>