<svg xmlns="http://www.w3.org/2000/svg" xmlns:xlink="http://www.w3.org/1999/xlink" viewBox="0 0 45 45"><defs><style>.cls-1{fill:url(#未命名漸層_59);}.cls-2{fill:#fff;}</style><linearGradient id="未命名漸層_59" x1="9.88" y1="1.58" x2="30.59" y2="35.91" gradientUnits="userSpaceOnUse"><stop offset="0" stop-color="#00b0ff"/><stop offset="0.02" stop-color="#0bf"/><stop offset="0.03" stop-color="#0cf"/><stop offset="0.29" stop-color="#00c0ff"/><stop offset="0.75" stop-color="#009fff"/><stop offset="1" stop-color="#008bff"/></linearGradient></defs><title>頁面_FAol_1108</title><g id="頁面內容"><circle class="cls-1" cx="22.5" cy="22.5" r="22"/><path class="cls-2" d="M36,20.42c0-1,0-1.89,0-2.84A1.9,1.9,0,0,0,34,15.64c-1.42,0-2.83,0-4.25,0a.46.46,0,0,1-.34-.16c-.18-.27-.31-.58-.47-.87-.38-.69-.75-1.4-1.17-2.07a1.55,1.55,0,0,0-1.39-.75h-8a1.32,1.32,0,0,0-.43.09,2,2,0,0,0-1,.9c-.42.75-.84,1.51-1.21,2.29a.86.86,0,0,1-.9.59c-1.32-.05-2.65,0-4,0a2,2,0,0,0-.54.07A1.79,1.79,0,0,0,9,17.29l0,5.14C9,23.22,9,24,9,24.8v6.42a2.19,2.19,0,0,0,.08.68,2,2,0,0,0,2,1.31H34a1.92,1.92,0,0,0,1.62-.82A2.06,2.06,0,0,0,36,31c0-2.68,0-5.35,0-8C36,22.15,36,21.29,36,20.42ZM22.35,31.67a7.25,7.25,0,1,1,7.4-7.26A7.22,7.22,0,0,1,22.35,31.67ZM33.73,19.44H31.28a.48.48,0,0,1-.53-.51,9.55,9.55,0,0,1,0-1.07.46.46,0,0,1,.52-.5h2.45a.47.47,0,0,1,.51.5c0,.36,0,.72,0,1.07A.47.47,0,0,1,33.73,19.44Z"/><path class="cls-2" d="M22.14,19.5a4.93,4.93,0,0,0,.35,9.85,4.93,4.93,0,1,0-.35-9.85Z"/></g></svg>