<svg xmlns="http://www.w3.org/2000/svg" xmlns:xlink="http://www.w3.org/1999/xlink" viewBox="0 0 61.45 59.55"><defs><style>.cls-1{fill:#603813;}.cls-2{fill:#fff;}.cls-3{fill:url(#綠色_2);}</style><linearGradient id="綠色_2" x1="30.72" y1="50.54" x2="30.72" y2="5.12" gradientUnits="userSpaceOnUse"><stop offset="0" stop-color="#69ba82"/><stop offset="0.5" stop-color="#159748"/><stop offset="1" stop-color="#128846"/></linearGradient></defs><title>頁面_FAol_1108</title><g id="跳出內容"><path class="cls-1" d="M57.61,3.25l-.2-.18A12.8,12.8,0,0,0,49.17,0a12,12,0,0,0-11,6.68L26.35,28.58l-3.06-5.72c-2.34-4.23-6-6.56-10.37-6.56a14,14,0,0,0-8.73,2.93A10.88,10.88,0,0,0,0,27.87a10.72,10.72,0,0,0,1.89,6.24L13.5,52.48a14.34,14.34,0,0,0,12.83,7.07,15,15,0,0,0,13.28-7.09L59.75,17.81a11.39,11.39,0,0,0,1.7-6.17A11.26,11.26,0,0,0,57.61,3.25Z"/><path class="cls-2" d="M54.56,5.55a8.42,8.42,0,0,0-5.39-2,7.51,7.51,0,0,0-7.08,4.31L26.33,37.09,19.35,24c-1.53-2.78-3.75-4.24-6.43-4.24A9.42,9.42,0,0,0,7,21.72a6.62,6.62,0,0,0-1.37,9L17.33,49.13a9.93,9.93,0,0,0,9,4.92,10.47,10.47,0,0,0,9.44-4.94L55.94,14.42a7,7,0,0,0,1-3.78A6.9,6.9,0,0,0,54.56,5.55Z"/><path class="cls-2" d="M26.33,56.55A12.44,12.44,0,0,1,15.2,50.44L3.58,32.05A9.11,9.11,0,0,1,5.45,19.78a11.93,11.93,0,0,1,7.47-2.48c3.59,0,6.65,2,8.62,5.53l4.8,9L39.89,6.63A10,10,0,0,1,49.17,1a10.83,10.83,0,0,1,7,2.62l.15.12a9.36,9.36,0,0,1,3.16,6.9,9.5,9.5,0,0,1-1.39,5.11L37.88,50.45A13,13,0,0,1,26.33,56.55ZM12.92,22.3a6.88,6.88,0,0,0-4.36,1.4A3.89,3.89,0,0,0,7,26.87a3.94,3.94,0,0,0,.72,2.38l.06.08L19.45,47.79a7.47,7.47,0,0,0,6.88,3.76,8,8,0,0,0,7.31-3.74L53.78,13.16a4.59,4.59,0,0,0,.67-2.52,4.35,4.35,0,0,0-1.54-3.21A5.89,5.89,0,0,0,49.17,6a5,5,0,0,0-4.86,3l-18,33.41L17.15,25.22C16.07,23.26,14.68,22.3,12.92,22.3Z"/><path class="cls-3" d="M54.56,5.55a8.42,8.42,0,0,0-5.39-2,7.51,7.51,0,0,0-7.08,4.31L26.33,37.09,19.35,24c-1.53-2.78-3.75-4.24-6.43-4.24A9.42,9.42,0,0,0,7,21.72a6.62,6.62,0,0,0-1.37,9L17.33,49.13a9.93,9.93,0,0,0,9,4.92,10.47,10.47,0,0,0,9.44-4.94L55.94,14.42a7,7,0,0,0,1-3.78A6.9,6.9,0,0,0,54.56,5.55Z"/><path class="cls-2" d="M11.94,23a7,7,0,0,0-3.48,3.53,1.56,1.56,0,0,0,0,1.18,1.53,1.53,0,0,0,2,.73,1.7,1.7,0,0,0,.77-.84l.15-.31-.18.34a5.74,5.74,0,0,1,.79-1.11l-.27.29a5.55,5.55,0,0,1,1.08-.91l-.33.21c.22-.13.45-.26.68-.37a1.51,1.51,0,0,0,.78-.83A1.56,1.56,0,0,0,14,23.76a1.53,1.53,0,0,0-2-.73Z"/></g></svg>