<svg xmlns="http://www.w3.org/2000/svg" xmlns:xlink="http://www.w3.org/1999/xlink" viewBox="0 0 210 85"><defs><style>.cls-1{fill:none;}.cls-2{fill:#fff;}.cls-3{clip-path:url(#clip-path);}.cls-4{fill:#005e7e;}.cls-5{fill:#e20920;}.cls-6{fill:#a8822c;}.cls-7{fill:#e43859;}.cls-8{fill:#ec858d;}.cls-9{fill:#ffdf00;}.cls-10{clip-path:url(#clip-path-2);}.cls-11{fill:#231815;}.cls-12{fill:#168bd1;}</style><clipPath id="clip-path"><circle class="cls-1" cx="105" cy="36.5" r="45.5"/></clipPath><clipPath id="clip-path-2"><circle class="cls-1" cx="47" cy="-80.77" r="45.5"/></clipPath></defs><title>頁面_Mobile_FAol</title><g id="內容"><circle class="cls-2" cx="105" cy="42.51" r="39.49"/><g class="cls-3"><path class="cls-4" d="M120.13,87.39c-3.86-.17-5.64-2.08-6-2.52-1.84.2-4,.36-6.56.44.08,1,.24,3.75-.76,4.8a1.19,1.19,0,0,1-.34.26,42.25,42.25,0,0,1,.41,4.95c0,.41,0,.86.07,1.34.05,1.1.11,2.31.17,2.92a1.38,1.38,0,0,0,0,.22l.38.06a44.8,44.8,0,0,0,6.91.24c1.71-.07,3.16-.21,4.24-.36l.39-.06.4-.07a5.84,5.84,0,0,0,1.12-.26C120.57,98.29,120.33,92.28,120.13,87.39Z"/><path class="cls-4" d="M103.77,85.34h-.88c-1.86,0-3.78-.12-5.72-.34l-.28,0L97,85a7.05,7.05,0,0,1-1.12,1.13c-.14.11-.28.22-.43.32l-.49.31a7.8,7.8,0,0,1-3.67,1h0l-.11,12c.15,0,.37.1.69.16l.4.07.4,0a36.79,36.79,0,0,0,5.08.25,51.23,51.23,0,0,0,6.07-.3l.4,0,.4-.06.13,0a65,65,0,0,1,.68-9.37C104,89.89,103.79,86.51,103.77,85.34Z"/><path class="cls-4" d="M93.76,86.42c.18-.07.36-.16.54-.25s.32-.17.48-.27a7.09,7.09,0,0,0,1-.75,2.76,2.76,0,0,0,.29-.3c-.81-.11-1.63-.25-2.44-.41s-1.55-.34-2.32-.56v.81h0v.49l0,1.76.52,0A7.08,7.08,0,0,0,93.76,86.42Z"/><path class="cls-4" d="M119.13,86.5c.31,0,.63.07,1,.09,0-.94-.08-1.82-.11-2.6-.74.16-2.41.48-4.85.77l.22.19A7.67,7.67,0,0,0,119.13,86.5Z"/><path class="cls-5" d="M119.65,75.87a5.87,5.87,0,0,1-.62.07c-.18,0-.37,0-.55,0A8,8,0,0,1,113,73.91a9.32,9.32,0,0,1-1-1,6.2,6.2,0,0,1-3.11,1.26l-.72,0a10.44,10.44,0,0,1-1.48-.1v.06a.39.39,0,0,1-.24.31A41.82,41.82,0,0,1,100,76.31a26.37,26.37,0,0,1-4.84.56,12.86,12.86,0,0,1-3.91-.49c0,.37,0,.75,0,1.12s0,.92,0,1.36h0V79c0,.28,0,.55,0,.81,0,.86,0,1.62,0,2.21h0v.42c0,.21,0,.39,0,.53l.16,0c.88.26,1.78.47,2.68.65,1.09.21,2.19.37,3.29.5,2,.21,3.92.31,5.81.34H106a73.48,73.48,0,0,0,14-1.35c0-.16,0-.37,0-.63C119.88,81.21,119.81,78.59,119.65,75.87Z"/><path class="cls-5" d="M105.76,73.85l.15-.06c0-.08,0-.19,0-.31s0-.26,0-.41a21.45,21.45,0,0,0-.11-3.95,29.6,29.6,0,0,0-.6-3.34c0-.15-.07-.28-.11-.4s-.07-.29-.11-.41l0-.09c-1.73,0-10.85-.22-13.92,1.28a.39.39,0,0,1-.45-.07.44.44,0,0,1-.08-.11.4.4,0,0,1,0-.32.36.36,0,0,1,.19-.21,4.68,4.68,0,0,1,.45-.2,10.55,10.55,0,0,1,1.7-.48,28.21,28.21,0,0,1,2.28-5.52.39.39,0,0,1,.55-.13.4.4,0,0,1,.14.55,26.92,26.92,0,0,0-2.08,4.93,69.36,69.36,0,0,1,11.54-.51.38.38,0,0,1,.36.27,1.1,1.1,0,0,1,.06.18l1.64-1a3.76,3.76,0,0,1-.55-1.63,1.34,1.34,0,0,1-.35,0,1.71,1.71,0,0,1-.58-.31,2.34,2.34,0,0,1-.78-1.07,3,3,0,0,1-.06-1.36,4.37,4.37,0,0,1,.17-.62l-.31,0a23.17,23.17,0,0,1-6.09-1.18A8.3,8.3,0,0,1,96,55.71a3.65,3.65,0,0,1-.46-.52,2.77,2.77,0,0,1-.22-.37,2.6,2.6,0,0,1-.1-.25l-.58.48c-2.88,2.47-6.73,6.88-7.19,13.06,0,.19,0,.38,0,.57s0,.4,0,.6a5.42,5.42,0,0,0,0,.57V70A7.16,7.16,0,0,0,88,72.7a5,5,0,0,0,1.83,2.14l.08,0a4.17,4.17,0,0,0,.46.26l.12.06.33.15.07,0,.39.15C96.1,77.19,104,74.5,105.76,73.85Z"/><path class="cls-5" d="M123.43,65.92c-.4-4-2.93-7.09-5-9a11.47,11.47,0,0,1-1.47,2.77l-.08.12-.16.21-.24.32a14.9,14.9,0,0,1-1.06,1.17l-.42.41-.46.4a11.15,11.15,0,0,1-2.21,1.49l-.36.17-.37.16a6.43,6.43,0,0,1-1.68.41h-.14a20,20,0,0,0,.83,4c.07.19.13.39.2.58l.21.52a11.53,11.53,0,0,0,1.14,2.12l.24.33.25.32a7.52,7.52,0,0,0,.87.91A7.08,7.08,0,0,0,119,75.14a4.2,4.2,0,0,0,.62-.08A2.46,2.46,0,0,0,120,75a2.64,2.64,0,0,0,.4-.12,4,4,0,0,0,1.68-1.18C123.33,72.17,123.79,69.57,123.43,65.92Z"/><path class="cls-5" d="M96,54.51a1.73,1.73,0,0,0,.31.43,7.65,7.65,0,0,0,3.33,1.79,21.18,21.18,0,0,0,2.58.62,25.23,25.23,0,0,0,2.72.33l.7,0,0-.06a3,3,0,0,1,.9-.76l.33-.16.25-.08a2.35,2.35,0,0,1,.13-.43c-.68,0-1.43,0-2.25,0-3.34-.22-5.79-.86-7.28-1.89a4.79,4.79,0,0,1-.79-.69l0,0a.81.81,0,0,1-.12-.14l-.05-.06-.14-.22v0l-.18.14-.33.3c-.19.2-.31.38-.3.48h0v0A1.35,1.35,0,0,0,96,54.51Z"/><path class="cls-2" d="M92.17,16.05a19.18,19.18,0,0,1,2.17-1.41,2.76,2.76,0,0,0-1.32-1,2.22,2.22,0,0,0-.81-.13,2.87,2.87,0,0,0-1.63.55,3,3,0,0,0-1.36,2.29,2.51,2.51,0,0,0,.66,1.75A19,19,0,0,1,92.17,16.05Z"/><path class="cls-2" d="M126.86,19A2.75,2.75,0,0,0,124.75,18h-.12a2.64,2.64,0,0,0-1.55.64,19.67,19.67,0,0,1,1.7,1.94,19.3,19.3,0,0,1,1.66,2.56,2.55,2.55,0,0,0,1.11-1.5A3,3,0,0,0,126.86,19Z"/><path class="cls-2" d="M96.53,52.05l.19.09.18.07.13,0,.18.06.07,0,.23.09.06,0,.37.14,1.06.34a28.85,28.85,0,0,0,3.11.75c.48.09,1,.17,1.45.24a29,29,0,0,0,6.34.19,1.17,1.17,0,0,0,0-.11l.06-.14a2,2,0,0,1,.75-.89,1.79,1.79,0,0,1,.31-.15,2,2,0,0,1,.31-.07,2.08,2.08,0,0,1,.61,0,2.22,2.22,0,0,1,.72.26,2,2,0,0,1,1.5-1.22,1.75,1.75,0,0,1,1.49.65c.41-1.4,1.25-2.11,2.29-1.88.33.07.59.35.78.85A17.47,17.47,0,0,0,120.91,50a9.63,9.63,0,0,0-.76-2.7,17.26,17.26,0,0,0-5.59-6,24.81,24.81,0,0,0-6.25-3.11s0,.05,0,.08a.83.83,0,0,1-.22.82A3.08,3.08,0,0,1,106,40.17h0l-.42,3c1.26.48,1.92,2.26,1.78,4.9a3.3,3.3,0,0,1-1.18,2.54,2.68,2.68,0,0,1-1.64.58,2.32,2.32,0,0,1-.53-.05,3,3,0,0,1-2.26-3.32,6.92,6.92,0,0,1,2-4.33,2,2,0,0,1,1.08-.44l.42-3.08a3,3,0,0,1-1.49-1.57c-.16-.46-.05-.72.08-.85a.61.61,0,0,1,.22-.15,24.65,24.65,0,0,0-7.47,1.34,16.66,16.66,0,0,0-6.88,4.33,14,14,0,0,0-1.55,2.51A19.88,19.88,0,0,0,96.53,52.05Z"/><path class="cls-2" d="M95,32.67c.59.08,1.2-.74,1.35-1.82s-.21-2-.81-2.13-1.2.74-1.35,1.83S94.4,32.59,95,32.67Z"/><path class="cls-2" d="M116.12,35.54c.6.09,1.2-.73,1.35-1.82s-.21-2-.8-2.12-1.2.73-1.35,1.82S115.53,35.46,116.12,35.54Z"/><path class="cls-6" d="M107.54,38.51a6,6,0,0,0-1.55-.4h0a5.61,5.61,0,0,0-1.6,0,2,2,0,0,0,1.43,1.25A2.17,2.17,0,0,0,107.54,38.51Z"/><path class="cls-7" d="M104.56,47.13a4.33,4.33,0,0,1,1.92.94v0c.1-1.89-.24-4-1.49-4.17a1.11,1.11,0,0,0-.87.26,5.76,5.76,0,0,0-1.56,3.19A4.39,4.39,0,0,1,104.56,47.13Z"/><path class="cls-8" d="M104.41,47.92a4,4,0,0,0-1.94.29,2.2,2.2,0,0,0,1.61,2.17,1.91,1.91,0,0,0,1.54-.37,2.14,2.14,0,0,0,.68-1A3.75,3.75,0,0,0,104.41,47.92Z"/><path class="cls-9" d="M89.52,79.14a2.86,2.86,0,0,0-1.28,1,9.09,9.09,0,0,0,2.08,3.25.31.31,0,0,1,0-.08s0-1.9.09-4.34A2.7,2.7,0,0,0,89.52,79.14Z"/><path class="cls-9" d="M84.69,66.87A2,2,0,0,0,82.9,69a9.88,9.88,0,0,1,2.55,2.39,2.41,2.41,0,0,1,1-1.17l.14-.08a.15.15,0,0,1,0-.07c0-.54,0-1.07,0-1.59A14.15,14.15,0,0,0,84.69,66.87Z"/><path class="cls-9" d="M90.22,76.66c0-.18-.06-.36-.1-.54l0-.2c-.25-.13-.49-.26-.72-.4a5.79,5.79,0,0,1-2.11-2.44,3.15,3.15,0,0,0-.6.62,20.47,20.47,0,0,1,.69,2.93c0,.16.07.32.1.48A3.38,3.38,0,0,1,89,76.45,2.16,2.16,0,0,1,90.22,76.66Z"/><path class="cls-9" d="M108.82,73.35a5.35,5.35,0,0,0,2.69-1.11A13.28,13.28,0,0,1,109.9,69c-.09-.27-.17-.54-.25-.82-.14-.47-.26-1-.37-1.46a21.28,21.28,0,0,1-.34-2.23h-.07a2.75,2.75,0,0,1-.41-.11,3.11,3.11,0,0,1-.41-.2l-.09-.07-2,1.22a28.28,28.28,0,0,1,.68,3.68,22.13,22.13,0,0,1,.11,4.25A8.12,8.12,0,0,0,108.82,73.35Z"/><path class="cls-9" d="M107.84,55.39a2.24,2.24,0,0,1,.4-.34l0,0h-.21a30.65,30.65,0,0,1-4.61-.3,30,30,0,0,1-5.36-1.23c.94.73,2.92,1.61,7,1.88A20.64,20.64,0,0,0,107.84,55.39Z"/><path class="cls-9" d="M87.1,21.61a22.19,22.19,0,0,1,2.22-3,3.29,3.29,0,0,1-.9-2.36,3.8,3.8,0,0,1,1.71-2.93,3.33,3.33,0,0,1,4.9.9,20.73,20.73,0,0,1,3.34-1.37A7.13,7.13,0,0,0,94.53,9.5a6.21,6.21,0,0,0-2.1-.35,7.63,7.63,0,0,0-4.17,1.4,7.72,7.72,0,0,0-3.48,5.9A6.54,6.54,0,0,0,87.1,21.61Z"/><path class="cls-9" d="M130,16.31a7,7,0,0,0-5.76-2.71,7.07,7.07,0,0,0-4.61,2.23A21.81,21.81,0,0,1,122.51,18a3.54,3.54,0,0,1,2.07-.88,3.5,3.5,0,0,1,2.9,1.35,3.82,3.82,0,0,1,.85,3.28,3.29,3.29,0,0,1-1.51,2,20.85,20.85,0,0,1,1.33,3.45,6.56,6.56,0,0,0,3.64-4.34A7.71,7.71,0,0,0,130,16.31Z"/><path class="cls-9" d="M87.26,47.25l.47-.71-.09-.12Z"/><path class="cls-9" d="M121,51c0,.36.09.78.09.78,0-.28,0-.54-.06-.8Z"/><path class="cls-9" d="M126.12,32.23c.08-.33.88-.62,1.92-.73h.08a20.68,20.68,0,0,0-.51-3.15c0-.13-.07-.26-.1-.39l-.11-.38a19.32,19.32,0,0,0-1.31-3.42c-.06-.12-.12-.24-.19-.36s-.12-.24-.19-.36a19,19,0,0,0-1.56-2.4,20.19,20.19,0,0,0-1.61-1.84l-.29-.28a3.83,3.83,0,0,0-.29-.28,19.5,19.5,0,0,0-2.82-2.19l-.34-.22-.34-.2a23.73,23.73,0,0,0-7.2-2.75c-.07.35-.15.77-.25,1.24h0l1,.22.39.1.28.07a18.07,18.07,0,0,1,1.75.57,7.65,7.65,0,0,1,1.27.58c1.25.73,1.56,1.29.54,1.3a39,39,0,0,1-5.74-.26c-.08.38-.17.76-.27,1.13a8.42,8.42,0,0,1,2.53,1.2c.81.58,1.08.95.53,1.16a11.17,11.17,0,0,1-3.84.24c-.46,1.21-1,2-1.51,2s-.82-1-.93-2.3a11.08,11.08,0,0,1-3.57-1.26c-.47-.34-.11-.63.83-1a8.79,8.79,0,0,1,2.69-.46c0-.4,0-.81,0-1.22a48,48,0,0,1-5.75-1.29c-.82-.28-.38-.75,1-1.07a19,19,0,0,1,4.62-.26l.26,0c0-.47.08-.9.11-1.26-.71,0-1.41-.07-2.1-.06a22.76,22.76,0,0,0-5.67.76l-.38.1-.39.12A19.94,19.94,0,0,0,95.4,15l-.35.19-.36.2a19.36,19.36,0,0,0-2,1.34,18.32,18.32,0,0,0-2.15,1.88l-.29.3-.27.3a19.11,19.11,0,0,0-2.19,2.93l-.21.34c-.07.12-.14.23-.2.35a21.18,21.18,0,0,0-1.13,2.35c-.1.24-.2.49-.29.73,1.09.38,2,1,2,1.34s-1.3.53-2.64.63a23.66,23.66,0,0,0-.61,3,25.47,25.47,0,0,0-.23,3.65,4.52,4.52,0,0,1,2.34.46c.2.31-.89,1-2.2,1.73a17.8,17.8,0,0,0,.32,2l.53.08c.19,0,.38.05.56.09l.51.12c.16,0,.32.06.46.11a5.34,5.34,0,0,1,.66.23.8.8,0,0,1,.23.16.11.11,0,0,1,0,.16l-.06,0h0a1,1,0,0,1-.28,0,5.23,5.23,0,0,1-.65-.18,4.47,4.47,0,0,0-.45-.09l-.49-.1-.54-.09-.36,0a18.11,18.11,0,0,0,.62,2.06l.23,0,1-.19c.28,0,.51-.1.68-.11a.79.79,0,0,1,.27,0h0a.11.11,0,0,1,.07.15.13.13,0,0,1,0,.06,1,1,0,0,1-.24.12,5.2,5.2,0,0,1-.66.15l-.94.21-.16,0a17.91,17.91,0,0,0,1.94,3.61c.1.14.19.28.3.42a14,14,0,0,1,1.55-2.51,16.66,16.66,0,0,1,6.88-4.33A24.65,24.65,0,0,1,104,37.42a5.48,5.48,0,0,1,2.15-.1c.87.12,1.93.36,2.21.84a24.81,24.81,0,0,1,6.25,3.11,17.26,17.26,0,0,1,5.59,6,9.63,9.63,0,0,1,.76,2.7l.42-.35A18.36,18.36,0,0,0,124,46.82l-.08-.06-.81-.48c-.23-.15-.44-.26-.57-.36a.71.71,0,0,1-.18-.19.13.13,0,0,1,0-.17l.06,0a.77.77,0,0,1,.26.06,5,5,0,0,1,.6.31l.82.48.12.07a16.12,16.12,0,0,0,1-1.59c-.22,0-.43,0-.63,0s-.64,0-.9,0-.49,0-.64,0a.73.73,0,0,1-.25-.09h0a.11.11,0,0,1,0-.16.1.1,0,0,1,0,0,.9.9,0,0,1,.24-.08c.16,0,.39,0,.66,0s.58,0,.92,0,.55,0,.83,0a18.54,18.54,0,0,0,.95-2c-1.19-1.33-1.8-2-1.47-2.35s1.08-.11,2.21.23a24,24,0,0,0,.75-3.53,23.64,23.64,0,0,0,.23-3.12C126.93,33.15,126,32.63,126.12,32.23Zm-10-8.61a.92.92,0,0,1,.24-.4,1.75,1.75,0,0,1,.41-.31,3.55,3.55,0,0,1,.39-.2l.22-.1.15-.05.39-.11a3.67,3.67,0,0,1,1.12-.12,3.92,3.92,0,0,1,1.86.57l.22.15.19.14c.12.11.25.21.36.32a5.62,5.62,0,0,1,.61.71,6.57,6.57,0,0,1,.45.73,7,7,0,0,1,.32.7,3.78,3.78,0,0,1,.32,1.08,1.52,1.52,0,0,1,0,.33.63.63,0,0,1,0,.13h0a.25.25,0,0,1-.32.12l-.08-.06-.08-.09a1.85,1.85,0,0,1-.16-.25,3,3,0,0,1-.17-.42c-.06-.16-.13-.34-.21-.53s-.19-.4-.31-.6a5.62,5.62,0,0,0-.41-.63,4.7,4.7,0,0,0-.52-.58c-.09-.09-.2-.17-.3-.26l-.17-.12-.15-.1a3.1,3.1,0,0,0-1.44-.47,3.23,3.23,0,0,0-.77,0l-.4.1-.15,0-.22.09a1.82,1.82,0,0,0-.28.13l-.37.2a1.66,1.66,0,0,1-.4.11h0a.25.25,0,0,1-.28-.22Zm-18.12-3-.11-.05-.31-.08-.35-.07a3,3,0,0,0-.73,0,2.32,2.32,0,0,0-.38,0,1.9,1.9,0,0,0-.36.09c-.11,0-.26.08-.39.12a3.52,3.52,0,0,0-.35.16l-.34.17c-.11.06-.21.14-.32.21l-.3.2-.27.23a5.23,5.23,0,0,0-.48.44,4.27,4.27,0,0,0-.36.42,3.19,3.19,0,0,1-.29.32,1.33,1.33,0,0,1-.23.17l-.1.06a.25.25,0,0,1-.33-.12.36.36,0,0,1,0-.07h0v-.12a1.45,1.45,0,0,1,.09-.32,1.73,1.73,0,0,1,.25-.41c.12-.14.23-.31.39-.48s.32-.35.52-.52l.3-.27.34-.25.37-.25.4-.2a2.83,2.83,0,0,1,.43-.2,3.58,3.58,0,0,1,.43-.15,4.52,4.52,0,0,1,.47-.11,3.75,3.75,0,0,1,.47,0,4,4,0,0,1,.92,0,3.4,3.4,0,0,1,.79.21h0a3.13,3.13,0,0,1,.32.15,2.89,2.89,0,0,1,.35.19h0l.29.2.23.21a1.43,1.43,0,0,1,.33.39,1.34,1.34,0,0,1,.11.32,1.16,1.16,0,0,1,0,.13.25.25,0,0,1-.26.23h-.1a.36.36,0,0,1-.1-.05,1.45,1.45,0,0,1-.23-.15,2.12,2.12,0,0,1-.3-.26L98.72,21l-.22-.14-.08,0ZM95.19,38l-.28,0a1.1,1.1,0,0,1-.26-.06c-1.61-.47-2.53-3.08-2.11-6.15A9,9,0,0,1,94,27.91a2.8,2.8,0,0,1,2.56-1.47c1.77.25,2.81,3,2.37,6.21a8.56,8.56,0,0,1-1.7,4.25A2.78,2.78,0,0,1,95.19,38Zm21.23,3h-.28a2.64,2.64,0,0,1-1.91-1.75,8.5,8.5,0,0,1-.46-4.46,9,9,0,0,1,1.41-3.87,2.41,2.41,0,0,1,4.62.64,9.1,9.1,0,0,1,.31,4.1c-.42,3-2,5.26-3.62,5.35Z"/><path class="cls-9" d="M113.63,53.78l.11.13h0l0,0c0,.05.09.11.14.17l0,.06.08.09a7,7,0,0,1,.4.6l.1.15.23-.34a.35.35,0,0,1,0-.08l.17-.29.21-.38c.08-.16.15-.33.22-.5h0a3,3,0,0,0-.25-.34,1,1,0,0,0-.85-.45,1.09,1.09,0,0,0-.78.57,1.34,1.34,0,0,0-.12.24l0,.09s0,0,0,0l.06,0Z"/><path class="cls-9" d="M118.17,52.25h0s0,0,0-.06a1.82,1.82,0,0,0-.09-.34,1,1,0,0,0-.25-.48c-.72-.14-1.11.62-1.3,1.21-.05.14-.08.28-.11.38l0,.11h0a2.5,2.5,0,0,1-.07.26c0,.08,0,.16-.08.24l-.11.27c0,.09-.07.17-.11.25l-.11.23a.83.83,0,0,0-.07.13c-.07.12-.13.24-.2.35s-.27.44-.39.61-.21.3-.28.39l0,.08L115,56a2.57,2.57,0,0,1,.19.49,1.24,1.24,0,0,1,0,.47.08.08,0,0,1,0,0,.22.22,0,0,1-.18.14H115l-.09,0h0L114.8,57a1.38,1.38,0,0,1-.24-.27,2.52,2.52,0,0,1-.15-.24l0,0c0-.08-.08-.16-.13-.24l0-.09,0,0,0-.07-.14-.25h0v0l-.1-.16q-.14-.23-.3-.45a5.54,5.54,0,0,0-.49-.62h0l0,0-.09-.09-.16-.17-.06,0,0,0h0a.39.39,0,0,0-.1-.08L112.5,54l-.1-.07-.16-.09-.13-.06a1.27,1.27,0,0,0-.62-.09.76.76,0,0,0-.16,0l-.11.05a1.12,1.12,0,0,0-.2.18L111,54a1,1,0,0,0-.14.24l0,.1a.42.42,0,0,1,0,.1h0a1.43,1.43,0,0,0-.08.22h0l.16.06.14.07h0a2.26,2.26,0,0,1,.42.26l.14.11,0,0a1.07,1.07,0,0,1,.16.14l.31.33.14.18.22.3c.07.1.13.2.19.3l.05.08,0,0v0c0,.07.07.14.11.2l.07.13.06.12.06.11.06.13c0,.1.08.19.11.28a1.67,1.67,0,0,1,0,.18,1.29,1.29,0,0,1,0,.5.23.23,0,0,1-.28.19.24.24,0,0,1-.1,0h0l0,0a.8.8,0,0,1-.15-.16,1.11,1.11,0,0,1-.12-.16,3.81,3.81,0,0,1-.25-.43l-.06-.12-.13-.24a.75.75,0,0,1-.07-.12l0,0a.16.16,0,0,0,0-.07s-.06-.09-.08-.14l-.09-.12a3.83,3.83,0,0,0-.83-.93,1,1,0,0,0-.2-.15,1.66,1.66,0,0,0-.32-.17l-.09,0-.07,0-.12,0-.13,0h-.12l-.3,0h-.11l-.14,0a2.58,2.58,0,0,0-.49.17l-.12.07a1.65,1.65,0,0,0-.4.39l-.11.15-.11.24a1.84,1.84,0,0,1,.42.1,2.06,2.06,0,0,1,.37.16l.25.15.09.07a2.87,2.87,0,0,1,.45.39l0,0,.22.24,0,.06s0,0,0,0l.23.31,0,.05.16.26a1.74,1.74,0,0,1,.15.26,3.23,3.23,0,0,1,.15.34,2.55,2.55,0,0,1,.09.43.67.67,0,0,1,0,.16h0a.23.23,0,0,1-.26.2.17.17,0,0,1-.12,0l-.08-.07,0,0c-.07-.07-.15-.18-.26-.31l-.35-.55c-.11-.16-.22-.32-.36-.49l0,0-.05-.06-.26-.28h0a2.09,2.09,0,0,0-.29-.23l-.06,0a.53.53,0,0,0-.1-.06l0,0-.17-.08a1.43,1.43,0,0,0-.42-.1h-.07a.75.75,0,0,0-.21,0h-.14l-.07,0h0a2.15,2.15,0,0,0-.27.1l-.16.08h0l0,0h0a2.16,2.16,0,0,0-.46.39l0,0a1.84,1.84,0,0,0-.17.22l-.09.15,0,0a2.4,2.4,0,0,0-.27.75,2.21,2.21,0,0,0,0,.93,1.58,1.58,0,0,0,.47.67.84.84,0,0,0,.36.19H107l0,0,.09-.07s.06,0,0-.06l.06-.07v0l.06-.09a1,1,0,0,0,0-.23.76.76,0,0,0,0-.21c0-.12,0-.24,0-.32v-.19a.21.21,0,0,1,.35-.15h0a.36.36,0,0,1,.09.09l0,0a1.09,1.09,0,0,1,.23.45A1.41,1.41,0,0,1,108,61a2.26,2.26,0,0,1-.11.22,2,2,0,0,1-.18.25.37.37,0,0,1-.09.09h0a3,3,0,0,0,.45,1.52v0a2,2,0,0,0,.19.22.24.24,0,0,0,.08.06.48.48,0,0,0,.11.09,1.47,1.47,0,0,0,.28.14l.12,0h0a1.76,1.76,0,0,0,.41.07,2.64,2.64,0,0,0,.4,0h.15a5.31,5.31,0,0,0,1.35-.32l.38-.15.36-.17a9.59,9.59,0,0,0,1.3-.77c.17-.13.35-.26.53-.41l.49-.4a14.84,14.84,0,0,0,1.64-1.76l.25-.32a.76.76,0,0,0,.08-.11c.06-.07.1-.15.15-.22a10.94,10.94,0,0,0,1.41-2.76c0-.15.09-.29.13-.42s.08-.3.11-.44a8.4,8.4,0,0,0,.23-2.82C118.21,52.52,118.19,52.38,118.17,52.25Z"/><path d="M130.65,15.8a7.78,7.78,0,0,0-6.42-3A8,8,0,0,0,119,15.39a26.89,26.89,0,0,0-19.84-2.73A8,8,0,0,0,94.8,8.74a7.76,7.76,0,0,0-7,1.15A8.52,8.52,0,0,0,84,16.43a7.34,7.34,0,0,0,2.71,5.88,24.44,24.44,0,0,0-2.62,16.22l-.32,0c-.36,0-.7,0-1,0a4.82,4.82,0,0,0-.7,0,.73.73,0,0,0-.26.09h0l0,0a.12.12,0,0,0,.06.16,1.53,1.53,0,0,0,.26.07c.17,0,.4,0,.69,0l1,.05.45,0a19.9,19.9,0,0,0,.68,2.35h-.06l-.55.15c-.18.06-.36.1-.52.16l-.93.3a5.14,5.14,0,0,0-.64.26.73.73,0,0,0-.22.17.16.16,0,0,0,0,.06.12.12,0,0,0,.1.13h0a.82.82,0,0,0,.27,0,5.77,5.77,0,0,0,.64-.21l.92-.28.52-.14.54-.14.11,0a18.36,18.36,0,0,0,2.63,4.65l.09.12a20.73,20.73,0,0,0,8.19,6.13,2.83,2.83,0,0,0-.74.88c-2.92,2.24-7.73,6.93-8.51,13.86a16.19,16.19,0,0,0-2.5-1.83,2.28,2.28,0,0,0-3,.68,2,2,0,0,0-.3,1.6,2.08,2.08,0,0,0,1,1.34c3.75,2.25,4.19,4.6,4.75,7.58.46,2.44,1,5.22,3.62,7.57l.27.23L90.3,100a.4.4,0,0,0,.24.37,6.32,6.32,0,0,0,1.27.31l0,4.88s0,0,0,.08l0,2.14a4.56,4.56,0,0,0-.59.14.39.39,0,0,0-.16.1l-1.53,1.51a25.53,25.53,0,0,0-3.37,3.07.39.39,0,0,0-.11.28.5.5,0,0,0,0,.12c-1.68,1.69-2.76,2.87-2.82,3.49a.27.27,0,0,0,0,.09c-.22,1-.4,3.26,1.55,4.46a9.69,9.69,0,0,0,5.2,1.08,38.42,38.42,0,0,0,7.37-1c4.33-.92,7.61-2.83,8-3.56a7.88,7.88,0,0,0,.33-2.13.59.59,0,0,0,0-.14,27.39,27.39,0,0,0-.26-4.47c0-.05,0-.25,0-.42s0-.42,0-.7a1.56,1.56,0,0,0-.46-1.08.41.41,0,0,0-.3-.11l0,0,0-2.89,0-5a4.18,4.18,0,0,0,.61-.12.42.42,0,0,0,.3-.37c.09-2.86.26-5.92.44-7.86.1,1.35.19,3.11.25,4.37.17,3.51.19,3.53.37,3.7a.66.66,0,0,0,.21.11l.06,5.17,0,3a1.57,1.57,0,0,0-.43,1.08c0,.28,0,.51,0,.7s0,.37,0,.4a27.48,27.48,0,0,0-.15,4.49.23.23,0,0,0,0,.14,7.46,7.46,0,0,0,.38,2.13c.36.72,3.69,2.55,8,3.38a38.29,38.29,0,0,0,7.4.8,9.75,9.75,0,0,0,5.17-1.19c1.92-1.25,1.69-3.44,1.45-4.5V116c-.09-.62-1.19-1.77-2.9-3.42,0,0,0-.08,0-.13a.39.39,0,0,0-.12-.28,25.25,25.25,0,0,0-3.43-3l-1.57-1.48a.51.51,0,0,0-.16-.09,4.36,4.36,0,0,0-.94-.17l0-2.14s0,0,0-.08l-.06-4.85c1.7-.28,1.87-.52,1.91-.81s-.45-12-.66-17.06h0c0-1.38-.1-4.09-.27-6.88a4.75,4.75,0,0,0,2.24-1.48c1.41-1.67,1.93-4.48,1.54-8.35-.44-4.48-3.29-7.8-5.54-9.77a9,9,0,0,0,.3-3.8A17.76,17.76,0,0,0,121,51l0,0a18.33,18.33,0,0,0,3.68-3.68l.13.09.47.29c.15.1.31.18.45.28l.77.54a6.53,6.53,0,0,0,.56.37.78.78,0,0,0,.25.08h.07a.12.12,0,0,0,.06-.16.8.8,0,0,0-.16-.21,5.65,5.65,0,0,0-.54-.41c-.22-.16-.48-.36-.77-.56-.14-.11-.29-.2-.44-.3l-.47-.3-.11-.07A21,21,0,0,0,126.19,45c.53,0,1,.12,1.45.19a5.64,5.64,0,0,0,.64.09,1,1,0,0,0,.25,0l.05,0a.11.11,0,0,0,0-.17h0a.63.63,0,0,0-.23-.13,5.17,5.17,0,0,0-.64-.15l-1.29-.2a23.66,23.66,0,0,0,2.36-7.64,23.42,23.42,0,0,0-.42-8.83,7.41,7.41,0,0,0,4.21-4.93A8.53,8.53,0,0,0,130.65,15.8Zm1.14,7.13a6.56,6.56,0,0,1-3.64,4.34,20.85,20.85,0,0,0-1.33-3.45,3.29,3.29,0,0,0,1.51-2,3.82,3.82,0,0,0-.85-3.28,3.5,3.5,0,0,0-2.9-1.35,3.54,3.54,0,0,0-2.07.88,21.81,21.81,0,0,0-2.84-2.21,7.07,7.07,0,0,1,4.61-2.23A7,7,0,0,1,130,16.31,7.71,7.71,0,0,1,131.79,22.93ZM128,31.5c-1,.11-1.84.4-1.92.73s.81.92,2.09,1.43a23.64,23.64,0,0,1-.23,3.12,24,24,0,0,1-.75,3.53c-1.13-.34-1.94-.48-2.21-.23s.28,1,1.47,2.35a18.54,18.54,0,0,1-.95,2c-.28,0-.57,0-.83,0s-.65,0-.92,0-.5,0-.66,0a.9.9,0,0,0-.24.08.1.1,0,0,0,0,0,.11.11,0,0,0,0,.16h0a.73.73,0,0,0,.25.09c.15,0,.37,0,.64,0s.57,0,.9,0,.41,0,.63,0a16.12,16.12,0,0,1-1,1.59l-.12-.07-.82-.48a5,5,0,0,0-.6-.31.77.77,0,0,0-.26-.06l-.06,0a.13.13,0,0,0,0,.17.71.71,0,0,0,.18.19c.13.1.34.21.57.36l.81.48.08.06a18.36,18.36,0,0,1-2.68,2.82l-.42.35a17.47,17.47,0,0,1-2.14,1.45c-.19-.5-.45-.78-.78-.85-1-.23-1.88.48-2.29,1.88a1.75,1.75,0,0,0-1.49-.65,2,2,0,0,0-1.5,1.22,2.22,2.22,0,0,0-.72-.26,2.08,2.08,0,0,0-.61,0,2,2,0,0,0-.31.07,1.79,1.79,0,0,0-.31.15,2,2,0,0,0-.75.89L110,54a1.17,1.17,0,0,1,0,.11,29,29,0,0,1-6.34-.19c-.49-.07-1-.15-1.45-.24A28.85,28.85,0,0,1,99,52.94l-1.06-.34-.37-.14-.06,0-.23-.09-.07,0L97,52.26l-.13,0-.18-.07-.19-.09a19.88,19.88,0,0,1-8.48-6.45c-.11-.14-.2-.28-.3-.42a17.91,17.91,0,0,1-1.94-3.61l.16,0,.94-.21a5.2,5.2,0,0,0,.66-.15,1,1,0,0,0,.24-.12.13.13,0,0,0,0-.06.11.11,0,0,0-.07-.15h0a.79.79,0,0,0-.27,0c-.17,0-.4.06-.68.11l-1,.19-.23,0A18.11,18.11,0,0,1,85,39.09l.36,0,.54.09.49.1a4.47,4.47,0,0,1,.45.09,5.23,5.23,0,0,0,.65.18,1,1,0,0,0,.28,0h0l.06,0a.11.11,0,0,0,0-.16.8.8,0,0,0-.23-.16A5.34,5.34,0,0,0,87,39c-.14,0-.3-.07-.46-.11L86,38.78c-.18,0-.37-.06-.56-.09l-.53-.08a17.8,17.8,0,0,1-.32-2c1.31-.77,2.4-1.42,2.2-1.73a4.52,4.52,0,0,0-2.34-.46,25.47,25.47,0,0,1,.23-3.65,23.66,23.66,0,0,1,.61-3c1.34-.1,2.63-.29,2.64-.63s-.93-1-2-1.34c.09-.24.19-.49.29-.73a21.18,21.18,0,0,1,1.13-2.35c.06-.12.13-.23.2-.35l.21-.34a19.11,19.11,0,0,1,2.19-2.93l.27-.3.29-.3a18.32,18.32,0,0,1,2.15-1.88,19.36,19.36,0,0,1,2-1.34l.36-.2L95.4,15a19.94,19.94,0,0,1,3.31-1.34l.39-.12.38-.1a22.76,22.76,0,0,1,5.67-.76c.69,0,1.39,0,2.1.06,0,.36-.07.79-.11,1.26l-.26,0a19,19,0,0,0-4.62.26c-1.42.32-1.86.79-1,1.07A48,48,0,0,0,107,16.56c0,.41,0,.82,0,1.22a8.79,8.79,0,0,0-2.69.46c-.94.35-1.3.64-.83,1A11.08,11.08,0,0,0,107,20.48c.11,1.29.38,2.22.93,2.3s1-.75,1.51-2a11.17,11.17,0,0,0,3.84-.24c.55-.21.28-.58-.53-1.16a8.42,8.42,0,0,0-2.53-1.2c.1-.37.19-.75.27-1.13a39,39,0,0,0,5.74.26c1,0,.71-.57-.54-1.3a7.65,7.65,0,0,0-1.27-.58,18.07,18.07,0,0,0-1.75-.57l-.28-.07-.39-.1-1-.22h0c.1-.47.18-.89.25-1.24a23.73,23.73,0,0,1,7.2,2.75l.34.2.34.22A19.5,19.5,0,0,1,122,18.63a3.83,3.83,0,0,1,.29.28l.29.28A20.19,20.19,0,0,1,124.15,21a19,19,0,0,1,1.56,2.4c.07.12.13.24.19.36s.13.24.19.36a19.32,19.32,0,0,1,1.31,3.42l.11.38c0,.13.07.26.1.39a20.68,20.68,0,0,1,.51,3.15Zm-10,24c0,.14-.07.29-.11.44s-.09.27-.13.42a10.94,10.94,0,0,1-1.41,2.76c0,.07-.09.15-.15.22a.76.76,0,0,1-.08.11l-.25.32a14.84,14.84,0,0,1-1.64,1.76l-.49.4c-.18.15-.36.28-.53.41a9.59,9.59,0,0,1-1.3.77l-.36.17-.38.15a5.31,5.31,0,0,1-1.35.32h-.15a2.64,2.64,0,0,1-.4,0,1.76,1.76,0,0,1-.41-.07h0l-.12,0a1.47,1.47,0,0,1-.28-.14.48.48,0,0,1-.11-.09.24.24,0,0,1-.08-.06,2,2,0,0,1-.19-.22v0a3,3,0,0,1-.45-1.52h0a.37.37,0,0,0,.09-.09,2,2,0,0,0,.18-.25A2.26,2.26,0,0,0,108,61a1.41,1.41,0,0,0,.07-.82,1.09,1.09,0,0,0-.23-.45l0,0a.36.36,0,0,0-.09-.09h0a.21.21,0,0,0-.35.15V60c0,.08,0,.2,0,.32a.76.76,0,0,1,0,.21,1,1,0,0,1,0,.23l-.06.09v0l-.06.07s0,0,0,.06L107,61l0,0h-.15a.84.84,0,0,1-.36-.19,1.58,1.58,0,0,1-.47-.67,2.21,2.21,0,0,1,0-.93,2.4,2.4,0,0,1,.27-.75l0,0,.09-.15a1.84,1.84,0,0,1,.17-.22l0,0a2.16,2.16,0,0,1,.46-.39h0l0,0h0l.16-.08a2.15,2.15,0,0,1,.27-.1h0l.07,0h.14a.75.75,0,0,1,.21,0H108a1.43,1.43,0,0,1,.42.1l.17.08,0,0a.53.53,0,0,1,.1.06l.06,0a2.09,2.09,0,0,1,.29.23h0l.26.28.05.06,0,0c.14.17.25.33.36.49l.35.55c.11.13.19.24.26.31l0,0,.08.07a.17.17,0,0,0,.12,0,.23.23,0,0,0,.26-.2h0a.67.67,0,0,0,0-.16,2.55,2.55,0,0,0-.09-.43,3.23,3.23,0,0,0-.15-.34,1.74,1.74,0,0,0-.15-.26l-.16-.26,0-.05-.23-.31s0,0,0,0l0-.06-.22-.24,0,0a2.87,2.87,0,0,0-.45-.39l-.09-.07-.25-.15a2.06,2.06,0,0,0-.37-.16,1.84,1.84,0,0,0-.42-.1l.11-.24.11-.15a1.65,1.65,0,0,1,.4-.39l.12-.07a2.58,2.58,0,0,1,.49-.17l.14,0h.11l.3,0h.12l.13,0,.12,0,.07,0,.09,0a1.66,1.66,0,0,1,.32.17,1,1,0,0,1,.2.15,3.83,3.83,0,0,1,.83.93l.09.12s.06.09.08.14a.16.16,0,0,1,0,.07l0,0a.75.75,0,0,0,.07.12l.13.24.06.12a3.81,3.81,0,0,0,.25.43,1.11,1.11,0,0,0,.12.16.8.8,0,0,0,.15.16l0,0h0a.24.24,0,0,0,.1,0,.23.23,0,0,0,.28-.19,1.29,1.29,0,0,0,0-.5,1.67,1.67,0,0,0,0-.18c0-.09-.07-.18-.11-.28L113,57.2l-.06-.11-.06-.12-.07-.13c0-.06-.07-.13-.11-.2v0l0,0-.05-.08c-.06-.1-.12-.2-.19-.3l-.22-.3-.14-.18-.31-.33a1.07,1.07,0,0,0-.16-.14l0,0-.14-.11a2.26,2.26,0,0,0-.42-.26h0l-.14-.07-.16-.06h0a1.43,1.43,0,0,1,.08-.22h0a.42.42,0,0,0,0-.1l0-.1A1,1,0,0,1,111,54l.07-.09a1.12,1.12,0,0,1,.2-.18l.11-.05a.76.76,0,0,1,.16,0,1.27,1.27,0,0,1,.62.09l.13.06.16.09.1.07.12.09a.39.39,0,0,1,.1.08h0l0,0,.06,0,.16.17.09.09,0,0h0a5.54,5.54,0,0,1,.49.62q.16.22.3.45l.1.16v0h0l.14.25,0,.07,0,0,0,.09c0,.08.09.16.13.24l0,0a2.52,2.52,0,0,0,.15.24,1.38,1.38,0,0,0,.24.27l.07.06h0l.09,0h.08a.22.22,0,0,0,.18-.14.08.08,0,0,0,0,0,1.24,1.24,0,0,0,0-.47A2.57,2.57,0,0,0,115,56l-.05-.09,0-.08c.07-.09.17-.22.28-.39s.26-.38.39-.61.13-.23.2-.35a.83.83,0,0,1,.07-.13l.11-.23c0-.08.07-.16.11-.25l.11-.27c0-.08,0-.16.08-.24a2.5,2.5,0,0,0,.07-.26h0l0-.11c0-.1.06-.24.11-.38.19-.59.58-1.35,1.3-1.21a1,1,0,0,1,.25.48,1.82,1.82,0,0,1,.09.34s0,0,0,.06h0c0,.13,0,.27.06.43A8.4,8.4,0,0,1,118,55.5Zm4.07,18.17a4,4,0,0,1-1.68,1.18,2.64,2.64,0,0,1-.4.12,2.46,2.46,0,0,1-.39.09,4.2,4.2,0,0,1-.62.08,7.08,7.08,0,0,1-5.49-1.83,7.52,7.52,0,0,1-.87-.91l-.25-.32-.24-.33A11.53,11.53,0,0,1,111,69.63l-.21-.52c-.07-.19-.13-.39-.2-.58a20,20,0,0,1-.83-4h.14a6.43,6.43,0,0,0,1.68-.41l.37-.16.36-.17a11.15,11.15,0,0,0,2.21-1.49l.46-.4.42-.41a14.9,14.9,0,0,0,1.06-1.17l.24-.32.16-.21.08-.12a11.47,11.47,0,0,0,1.47-2.77c2.1,1.91,4.63,5,5,9C123.79,69.57,123.33,72.17,122.07,73.67Zm-2.16,8.89c0,.26,0,.47,0,.63a73.48,73.48,0,0,1-14,1.35h-2.91c-1.89,0-3.85-.13-5.81-.34-1.1-.13-2.2-.29-3.29-.5-.9-.18-1.8-.39-2.68-.65l-.16,0c0-.14,0-.32,0-.53v-.42h0c0-.59,0-1.35,0-2.21,0-.26,0-.53,0-.81v-.17h0c0-.44,0-.89,0-1.36s0-.75,0-1.12a12.86,12.86,0,0,0,3.91.49,26.37,26.37,0,0,0,4.84-.56,41.82,41.82,0,0,0,6.44-1.86.39.39,0,0,0,.24-.31v-.06a10.44,10.44,0,0,0,1.48.1l.72,0A6.2,6.2,0,0,0,112,72.89a9.32,9.32,0,0,0,1,1A8,8,0,0,0,118.48,76c.18,0,.37,0,.55,0a5.87,5.87,0,0,0,.62-.07C119.81,78.59,119.88,81.21,119.91,82.56Zm-.44,17-.4.07-.39.06c-1.08.15-2.53.29-4.24.36a44.8,44.8,0,0,1-6.91-.24l-.38-.06a1.38,1.38,0,0,1,0-.22c-.06-.61-.12-1.82-.17-2.92,0-.48,0-.93-.07-1.34a42.25,42.25,0,0,0-.41-4.95,1.19,1.19,0,0,0,.34-.26c1-1,.84-3.85.76-4.8,2.51-.08,4.72-.24,6.56-.44.35.44,2.13,2.35,6,2.52.2,4.89.44,10.9.46,12A5.84,5.84,0,0,1,119.47,99.61Zm2.4,10.31a27.67,27.67,0,0,1,2.95,2.57l-.23.09-.23.08-.15,0-.24.09-.39.15a5.19,5.19,0,0,0-1.17.61,18.29,18.29,0,0,0-1.84,1.61c-.23.23-.43.43-.6.57a10.54,10.54,0,0,1-2.82-2.54,2.14,2.14,0,0,1,.61-1.17,4.15,4.15,0,0,1,.36-.39,5.11,5.11,0,0,1,.41-.38l.25-.21,0,0a3.6,3.6,0,0,1,.4-.28l.39-.25a7.56,7.56,0,0,1,1.17-.52,3,3,0,0,1,.45-.12,1.62,1.62,0,0,1,.4-.06l.08,0Zm-.93-.83-.39.11-.42.15c-.17.07-.35.16-.53.25l-.39.21a3.26,3.26,0,0,0-.4.24,6,6,0,0,0-.52.36,8.16,8.16,0,0,0-.87.8,3.9,3.9,0,0,0-.33.38c-.11.13-.2.26-.29.39a1.72,1.72,0,0,0-.37,1.55c.22.49,2.38,2.76,3.39,3a.75.75,0,0,0,.21,0,.55.55,0,0,0,.38-.13c.21-.17.45-.4.72-.66a16.44,16.44,0,0,1,1.76-1.55,5.28,5.28,0,0,1,1.19-.59l.39-.14h0l.37-.14.37-.15c.69.67,1.54,1.5,2.09,2.13a6.31,6.31,0,0,0-1.81.1l-.41.1-.42.14-.17.08a6,6,0,0,0-2.34,2,5.41,5.41,0,0,0-.31.47c-.1.15-.18.3-.26.43s-.21.4-.27.54a42.35,42.35,0,0,1-8.31-1.16,17.19,17.19,0,0,1-5.94-2.75c0-.71,0-1.55,0-2.29s.08-1.47.11-1.76a.88.88,0,0,1,0-.14,2.53,2.53,0,0,0,0-.67c0-.19,0-.41,0-.68a1.1,1.1,0,0,1,0-.18l0,0a3.36,3.36,0,0,0,.41.25,8.05,8.05,0,0,0,2.46.82l.21,0A17.79,17.79,0,0,0,114,111a1,1,0,0,0,.72-.27l0,0a5.28,5.28,0,0,1,2.61-2,7.34,7.34,0,0,1,1.44-.38l.18,0h.62a3.37,3.37,0,0,1,.61.1ZM126.8,120c-2,1.31-6,1.4-12,.27l-.2,0a20.43,20.43,0,0,1-6.86-2.57,2,2,0,0,1-.37-.3l0,0a3.15,3.15,0,0,1-.18-.75l0-.19c.35.23.81.52,1.37.83a18.31,18.31,0,0,0,4.3,1.66,42.27,42.27,0,0,0,5.79,1c1.79.18,3,.19,3,.19a.4.4,0,0,0,.37-.25l0-.08a8.11,8.11,0,0,1,.67-1.2c.12-.18.25-.37.4-.56a5,5,0,0,1,1.75-1.46l0,0a2.84,2.84,0,0,1,.49-.17,5,5,0,0,1,2.55,0h0a4.83,4.83,0,0,1,.1.52,3.21,3.21,0,0,1,0,.55A2.86,2.86,0,0,1,126.8,120Zm-8-12.46h0a7.29,7.29,0,0,0-1.67.42,6.14,6.14,0,0,0-3,2.24,13.25,13.25,0,0,1-3.86-.28,6.34,6.34,0,0,1-2.63-1l0-2.68a24.33,24.33,0,0,0,6.22.48,14.74,14.74,0,0,0,4.93-.61h0Zm-5.44-6.57c.4,0,.79,0,1.14,0,1.49-.06,3-.18,4.2-.35v.7c-3.56.39-7,.94-7.26,1.34s2.16,1.39,7.29,1.38l0,1.24c-.27.17-1.31.65-4.93.69-4,0-5.65-.32-6.22-.51l0-4.73A45.07,45.07,0,0,0,113.34,100.93Zm-8.79-1.07-.4.06-.4,0a51.23,51.23,0,0,1-6.07.3A36.79,36.79,0,0,1,92.6,100l-.4,0-.4-.07c-.32-.06-.54-.12-.69-.16l.11-12h0a7.8,7.8,0,0,0,3.67-1l.49-.31c.15-.1.29-.21.43-.32A7.05,7.05,0,0,0,97,85l-.06,0,.28,0c1.94.22,3.86.31,5.72.34h.88c0,1.17.2,4.55,1.59,5.13a65,65,0,0,0-.68,9.37Zm.13,17.4-.05.06a1.69,1.69,0,0,1-.26.22,20,20,0,0,1-6.9,2.81l-.2,0c-5.9,1.27-9.93,1.27-12,0a2.85,2.85,0,0,1-1.3-2.61,4.75,4.75,0,0,1,0-.56,3.5,3.5,0,0,1,.09-.52h0a4.78,4.78,0,0,1,2.15-.11,4,4,0,0,1,.47.11,3,3,0,0,1,.42.15,1.11,1.11,0,0,1,.19.09,4.71,4.71,0,0,1,1.26.94,7.46,7.46,0,0,1,.53.61,4.71,4.71,0,0,1,.34.48,7.86,7.86,0,0,1,.6,1l0,.07a.4.4,0,0,0,.37.25h0s1.18,0,3-.26A43,43,0,0,0,99.25,119a18.15,18.15,0,0,0,4.26-1.77,15,15,0,0,0,1.35-.86,1.11,1.11,0,0,1,0,.19A2.86,2.86,0,0,1,104.68,117.26Zm.23-2A17.25,17.25,0,0,1,99,118.18a42.18,42.18,0,0,1-8.29,1.35,4.53,4.53,0,0,0-.25-.47c-.07-.13-.15-.27-.24-.41s-.19-.28-.3-.43a6.12,6.12,0,0,0-2.46-2.11,3.58,3.58,0,0,0-.55-.19,2.71,2.71,0,0,0-.41-.09l-.41-.07a6.38,6.38,0,0,0-1.45,0c.54-.64,1.37-1.5,2-2.18l.11,0,.39.14.24.08.15.05a5.73,5.73,0,0,1,1.46.65,16.13,16.13,0,0,1,1.79,1.5,9,9,0,0,0,.74.65.58.58,0,0,0,.39.12l.21,0c1-.25,3.1-2.57,3.32-3.06a1.7,1.7,0,0,0-.4-1.53l-.29-.38c-.11-.13-.22-.25-.34-.37a7.66,7.66,0,0,0-.91-.8,7.53,7.53,0,0,0-.88-.55c-.13-.08-.27-.14-.4-.21l-.4-.17-.41-.16-.44-.13-.14,0,.71-.7a2.61,2.61,0,0,1,.27-.06h0a2.92,2.92,0,0,1,.39-.07l.28,0h.12a6,6,0,0,1,1.81.37,5.33,5.33,0,0,1,2.65,1.93l0,0c.11.16.41.23.8.26a17.36,17.36,0,0,0,3.45-.34l.35-.07a8.31,8.31,0,0,0,2.09-.69l.4-.21c.14-.09.27-.17.37-.25a1.1,1.1,0,0,1,0,.18c0,.27,0,.49,0,.67a4.2,4.2,0,0,0,0,.55.14.14,0,0,0,0,.07v0A30,30,0,0,1,104.91,115.29Zm-14.68-5.18h.14a3.55,3.55,0,0,1,.47.08,6.47,6.47,0,0,1,1.07.39l.4.21.4.23c.13.09.26.17.39.27l.29.23c.15.12.29.25.42.37l.36.38c.46.55.65,1,.61,1.13A10.26,10.26,0,0,1,92,116c-.17-.14-.38-.33-.61-.55a17.14,17.14,0,0,0-1.88-1.58,5.42,5.42,0,0,0-1.42-.66l-.4-.14h0l-.38-.13h0l-.2-.07c.46-.48,1-1,1.41-1.39a11.78,11.78,0,0,1,1.63-1.35ZM101.6,110a13.65,13.65,0,0,1-3.86.37,6.1,6.1,0,0,0-3-2.18,6.66,6.66,0,0,0-2-.4h0l0-1.36h0a14.94,14.94,0,0,0,5,.5,24.64,24.64,0,0,0,6.2-.62l0,2.86A7.09,7.09,0,0,1,101.6,110Zm2.21-4.52c-.57.2-2.2.61-6.2.66-3.62,0-4.68-.41-5-.58v-1.24c5.13-.11,7.5-1.15,7.26-1.54s-3.72-.88-7.29-1.18v-.72a39.54,39.54,0,0,0,5.07.25,55.08,55.08,0,0,0,6.08-.3ZM87.34,76.63a20.47,20.47,0,0,0-.69-2.93,3.15,3.15,0,0,1,.6-.62,5.79,5.79,0,0,0,2.11,2.44c.23.14.47.27.72.4l0,.2c0,.18.07.36.1.54A2.16,2.16,0,0,0,89,76.45a3.38,3.38,0,0,0-1.51.66C87.41,77,87.37,76.79,87.34,76.63ZM82.9,69a2,2,0,0,1,1.79-2.08,14.15,14.15,0,0,1,1.9,1.56c0,.52,0,1,0,1.59a.15.15,0,0,0,0,.07l-.14.08a2.41,2.41,0,0,0-1,1.17A9.88,9.88,0,0,0,82.9,69Zm4.51-.84c.46-6.18,4.31-10.59,7.19-13.06l.58-.48a2.6,2.6,0,0,0,.1.25,2.77,2.77,0,0,0,.22.37,3.65,3.65,0,0,0,.46.52,8.3,8.3,0,0,0,2.88,1.58,23.17,23.17,0,0,0,6.09,1.18l.31,0a4.37,4.37,0,0,0-.17.62,3,3,0,0,0,.06,1.36,2.34,2.34,0,0,0,.78,1.07,1.71,1.71,0,0,0,.58.31,1.34,1.34,0,0,0,.35,0,3.76,3.76,0,0,0,.55,1.63l-1.64,1a1.1,1.1,0,0,0-.06-.18.38.38,0,0,0-.36-.27,69.36,69.36,0,0,0-11.54.51,26.92,26.92,0,0,1,2.08-4.93.4.4,0,0,0-.14-.55.39.39,0,0,0-.55.13,28.21,28.21,0,0,0-2.28,5.52,10.55,10.55,0,0,0-1.7.48,4.68,4.68,0,0,0-.45.2.36.36,0,0,0-.19.21.4.4,0,0,0,0,.32.44.44,0,0,0,.08.11.39.39,0,0,0,.45.07c3.07-1.5,12.19-1.33,13.92-1.28l0,.09c0,.12.07.25.11.41s.07.25.11.4a29.6,29.6,0,0,1,.6,3.34,21.45,21.45,0,0,1,.11,3.95c0,.15,0,.29,0,.41s0,.23,0,.31l-.15.06c-1.78.65-9.66,3.34-14.51,1.69l-.39-.15-.07,0-.33-.15-.12-.06a4.17,4.17,0,0,1-.46-.26l-.08,0A5,5,0,0,1,88,72.7a7.16,7.16,0,0,1-.6-2.71v-.14a5.42,5.42,0,0,1,0-.57c0-.2,0-.4,0-.6S87.39,68.3,87.41,68.11Zm28-14.7h0c-.07.17-.14.34-.22.5l-.21.38-.17.29a.35.35,0,0,0,0,.08l-.23.34-.1-.15a7,7,0,0,0-.4-.6l-.08-.09,0-.06c0-.06-.09-.12-.14-.17l0,0h0l-.11-.13-.16-.16-.06,0s0,0,0,0l0-.09a1.34,1.34,0,0,1,.12-.24,1.09,1.09,0,0,1,.78-.57,1,1,0,0,1,.85.45A3,3,0,0,1,115.41,53.41Zm-9.35,36.28a.49.49,0,0,1-.3.06l-.06,0c-.7-.18-1.1-2.55-1.13-4.38h2.2c.14,1.37.11,3.56-.53,4.23A.68.68,0,0,1,106.06,89.69Zm3.22-23c.11.51.23,1,.37,1.46.08.28.16.55.25.82a13.28,13.28,0,0,0,1.61,3.22,5.35,5.35,0,0,1-2.69,1.11,8.12,8.12,0,0,1-2.06-.08,22.13,22.13,0,0,0-.11-4.25,28.28,28.28,0,0,0-.68-3.68l2-1.22.09.07a3.11,3.11,0,0,0,.41.2,2.75,2.75,0,0,0,.41.11h.07A21.28,21.28,0,0,0,109.28,66.74Zm-1.44-11.35a20.64,20.64,0,0,1-2.71,0c-4.12-.27-6.1-1.15-7-1.88a30,30,0,0,0,5.36,1.23,30.65,30.65,0,0,0,4.61.3h.21l0,0A2.24,2.24,0,0,0,107.84,55.39Zm-.64,1.26-.25.08-.33.16a3,3,0,0,0-.9.76l0,.06-.7,0a25.23,25.23,0,0,1-2.72-.33,21.18,21.18,0,0,1-2.58-.62,7.65,7.65,0,0,1-3.33-1.79,1.73,1.73,0,0,1-.31-.43,1.35,1.35,0,0,1-.16-.45v0h0c0-.1.11-.28.3-.48l.33-.3.18-.14v0l.14.22.05.06a.81.81,0,0,0,.12.14l0,0a4.79,4.79,0,0,0,.79.69c1.49,1,3.94,1.67,7.28,1.89.82,0,1.57.06,2.25,0A2.35,2.35,0,0,0,107.2,56.65ZM89.52,79.14a2.7,2.7,0,0,1,.87-.18c0,2.44-.09,4.34-.09,4.34a.31.31,0,0,0,0,.08,9.09,9.09,0,0,1-2.08-3.25A2.86,2.86,0,0,1,89.52,79.14Zm1.73,6v-.49h0v-.81c.77.22,1.54.4,2.32.56s1.63.3,2.44.41a2.76,2.76,0,0,1-.29.3,7.09,7.09,0,0,1-1,.75q-.24.15-.48.27c-.18.09-.36.18-.54.25a7.08,7.08,0,0,1-2,.49l-.52,0Zm28.85,1.41c-.34,0-.66,0-1-.09A7.67,7.67,0,0,1,115.36,85l-.22-.19c2.44-.29,4.11-.61,4.85-.77C120,84.77,120.06,85.65,120.1,86.59ZM84.78,16.45a7.72,7.72,0,0,1,3.48-5.9,7.63,7.63,0,0,1,4.17-1.4,6.21,6.21,0,0,1,2.1.35,7.13,7.13,0,0,1,3.84,3.39A20.73,20.73,0,0,0,95,14.26a3.33,3.33,0,0,0-4.9-.9,3.8,3.8,0,0,0-1.71,2.93,3.29,3.29,0,0,0,.9,2.36,22.19,22.19,0,0,0-2.22,3A6.54,6.54,0,0,1,84.78,16.45Zm9.56-1.81a19.56,19.56,0,0,0-4.46,3.42,2.51,2.51,0,0,1-.66-1.75A3,3,0,0,1,90.58,14a2.87,2.87,0,0,1,1.63-.55,2.22,2.22,0,0,1,.81.13A2.76,2.76,0,0,1,94.34,14.64Zm28.74,4a2.64,2.64,0,0,1,1.55-.64h.12A2.75,2.75,0,0,1,126.86,19a3,3,0,0,1,.69,2.58,2.55,2.55,0,0,1-1.11,1.5,19.3,19.3,0,0,0-1.66-2.56A19.67,19.67,0,0,0,123.08,18.6Z"/><path d="M96.51,26.44A2.8,2.8,0,0,0,94,27.91a9,9,0,0,0-1.41,3.87c-.42,3.07.5,5.68,2.11,6.15a1.1,1.1,0,0,0,.26.06l.28,0a2.78,2.78,0,0,0,2-1.11,8.56,8.56,0,0,0,1.7-4.25C99.32,29.42,98.28,26.69,96.51,26.44ZM95,32.67c-.6-.08-1-1-.81-2.12s.75-1.91,1.35-1.83,1,1,.81,2.13S95.59,32.75,95,32.67Z"/><path d="M117.74,29.4a2.78,2.78,0,0,0-2.56,1.47,9,9,0,0,0-1.41,3.87,8.5,8.5,0,0,0,.46,4.46A2.64,2.64,0,0,0,116.14,41h.35c1.65-.09,3.2-2.33,3.62-5.35a9.1,9.1,0,0,0-.31-4.1A2.78,2.78,0,0,0,117.74,29.4Zm-2.42,4c.15-1.09.75-1.9,1.35-1.82s1,1,.8,2.12-.75,1.91-1.35,1.82S115.17,34.51,115.32,33.42Z"/><path d="M99.78,20.93a1.43,1.43,0,0,0-.33-.39l-.23-.21-.29-.2h0a2.89,2.89,0,0,0-.35-.19,3.13,3.13,0,0,0-.32-.15h0a3.4,3.4,0,0,0-.79-.21,4,4,0,0,0-.92,0,3.75,3.75,0,0,0-.47,0,4.52,4.52,0,0,0-.47.11,3.58,3.58,0,0,0-.43.15,2.83,2.83,0,0,0-.43.2l-.4.2-.37.25-.34.25-.3.27c-.2.17-.36.36-.52.52s-.27.34-.39.48a1.73,1.73,0,0,0-.25.41,1.45,1.45,0,0,0-.09.32v.12h0a.36.36,0,0,0,0,.07.25.25,0,0,0,.33.12l.1-.06a1.33,1.33,0,0,0,.23-.17,3.19,3.19,0,0,0,.29-.32,4.27,4.27,0,0,1,.36-.42,5.23,5.23,0,0,1,.48-.44l.27-.23.3-.2c.11-.07.21-.15.32-.21l.34-.17a3.52,3.52,0,0,1,.35-.16c.13,0,.28-.1.39-.12a1.9,1.9,0,0,1,.36-.09,2.32,2.32,0,0,1,.38,0,3,3,0,0,1,.73,0l.35.07.31.08.11.05.37.17.08,0,.22.14.19.15a2.12,2.12,0,0,0,.3.26,1.45,1.45,0,0,0,.23.15.36.36,0,0,0,.1.05h.1a.25.25,0,0,0,.26-.23,1.16,1.16,0,0,0,0-.13A1.34,1.34,0,0,0,99.78,20.93Z"/><path d="M122.78,25a6.57,6.57,0,0,0-.45-.73,5.62,5.62,0,0,0-.61-.71c-.11-.11-.24-.21-.36-.32l-.19-.14L121,22.9a3.92,3.92,0,0,0-1.86-.57,3.67,3.67,0,0,0-1.12.12l-.39.11-.15.05-.22.1a3.55,3.55,0,0,0-.39.2,1.75,1.75,0,0,0-.41.31.92.92,0,0,0-.24.4v.08a.25.25,0,0,0,.28.22h0a1.66,1.66,0,0,0,.4-.11l.37-.2a1.82,1.82,0,0,1,.28-.13l.22-.09.15,0,.4-.1a3.23,3.23,0,0,1,.77,0,3.1,3.1,0,0,1,1.44.47l.15.1.17.12c.1.09.21.17.3.26a4.7,4.7,0,0,1,.52.58,5.62,5.62,0,0,1,.41.63c.12.2.22.41.31.6s.15.37.21.53a3,3,0,0,0,.17.42,1.85,1.85,0,0,0,.16.25l.08.09.08.06a.25.25,0,0,0,.32-.12h0a.63.63,0,0,0,0-.13,1.52,1.52,0,0,0,0-.33,3.78,3.78,0,0,0-.32-1.08A7,7,0,0,0,122.78,25Z"/><path d="M108.31,38.16c-.28-.48-1.34-.72-2.21-.84a5.48,5.48,0,0,0-2.15.1.61.61,0,0,0-.22.15c-.13.13-.24.39-.08.85A3,3,0,0,0,105.14,40l-.42,3.08a2,2,0,0,0-1.08.44,6.92,6.92,0,0,0-2,4.33,3,3,0,0,0,2.26,3.32,2.32,2.32,0,0,0,.53.05,2.68,2.68,0,0,0,1.64-.58,3.3,3.3,0,0,0,1.18-2.54c.14-2.64-.52-4.42-1.78-4.9l.42-3h0a3.08,3.08,0,0,0,2.16-1.11.83.83,0,0,0,.22-.82S108.32,38.19,108.31,38.16Zm-2.49,1.2a2,2,0,0,1-1.43-1.25,5.61,5.61,0,0,1,1.6,0h0a6,6,0,0,1,1.55.4A2.17,2.17,0,0,1,105.82,39.36Zm-1.74,11a2.2,2.2,0,0,1-1.61-2.17,4,4,0,0,1,1.94-.29A3.75,3.75,0,0,1,106.3,49a2.14,2.14,0,0,1-.68,1A1.91,1.91,0,0,1,104.08,50.38Zm2.41-2.33v0a4.33,4.33,0,0,0-1.92-.94,4.39,4.39,0,0,0-2,.2,5.76,5.76,0,0,1,1.56-3.19,1.11,1.11,0,0,1,.87-.26C106.25,44.07,106.59,46.16,106.49,48.05Z"/></g><g class="cls-10"><path class="cls-11" d="M39.24-4.19s0,0,0,0a.39.39,0,0,0-.42.27v0c-.1.27-1.08,2.85-3,3.43L35.3-.9c-.26-.23-.56-.5-.92-.77L34-2a5.55,5.55,0,0,0-.48-.29,8.57,8.57,0,0,0-3-1,5.42,5.42,0,0,0-3.92.56c-.12.07-.23.15-.33.22l-.3.26L25.74-2a6.71,6.71,0,0,1-.67-1.82.74.74,0,0,1,0-.15.4.4,0,0,0-.33-.43h0a.4.4,0,0,0-.43.25.08.08,0,0,0,0,0c0,.13-.81,3.34,1,5.07.94.9,4.11,1.63,7.23,1.66h.16c6.82,0,6.87-4.55,6.89-6.06,0-.11,0-.21,0-.29v0A.4.4,0,0,0,39.24-4.19Zm-6.48,6h-.25c-3.42,0-6.08-.86-6.69-1.44a3.51,3.51,0,0,1-.91-2.28,1.62,1.62,0,0,0,.1.18,1.75,1.75,0,0,0,.46.6.51.51,0,0,0,.53,0,.61.61,0,0,0,.16-.16,2,2,0,0,1,.46-.54A4,4,0,0,1,27-2a2.81,2.81,0,0,1,.52-.27,5.09,5.09,0,0,1,2.88-.21,8.58,8.58,0,0,1,1.6.43,7,7,0,0,1,.78.34c.2.1.39.21.57.32A10.34,10.34,0,0,1,34.77-.3a8.43,8.43,0,0,0,.75.61.37.37,0,0,0,.31,0,4.17,4.17,0,0,0,2-1.23,6.24,6.24,0,0,0,.77-1,4.79,4.79,0,0,1-.19.72C37.9.34,36.5,1.8,32.76,1.83Z"/><path class="cls-2" d="M35.83.36a.37.37,0,0,1-.31,0,8.43,8.43,0,0,1-.75-.61,10.34,10.34,0,0,0-1.43-1.13c-.18-.11-.37-.22-.57-.32A7,7,0,0,0,32-2.09a8.58,8.58,0,0,0-1.6-.43,5.09,5.09,0,0,0-2.88.21A2.81,2.81,0,0,0,27-2a4,4,0,0,0-.37.27,2,2,0,0,0-.46.54.61.61,0,0,1-.16.16.51.51,0,0,1-.53,0,1.75,1.75,0,0,1-.46-.6,1.62,1.62,0,0,1-.1-.18A3.51,3.51,0,0,0,25.82.39c.61.58,3.27,1.4,6.69,1.44h.25c3.74,0,5.14-1.49,5.67-3a4.79,4.79,0,0,0,.19-.72,6.24,6.24,0,0,1-.77,1A4.17,4.17,0,0,1,35.83.36Z"/><path class="cls-2" d="M66.17-2.25l0,0a3.61,3.61,0,0,0-.93-.12h-.4l-.41,0a3.66,3.66,0,0,0-1,.27A6.07,6.07,0,0,0,60.74.72v0l-.06.13a.38.38,0,0,1-.3.23l-.07,0a37.05,37.05,0,0,1-4.18-.4C55.54.65,54.93.55,54.28.42S52.91.14,52.19,0a17.09,17.09,0,0,1-2.82-1A16.94,16.94,0,0,1,47-2.34s0,.1,0,.15a2.52,2.52,0,0,0,.15.63C47.42-1.2,50.06.38,54,1.18l1.84.33c4.48.73,7.59.58,9.25-.45a2.53,2.53,0,0,0,1.16-2.28,4.58,4.58,0,0,0,0-.55A4.79,4.79,0,0,0,66.17-2.25Z"/><path class="cls-12" d="M63.74-5l-.06,0-.39.15-.23.07-.17.06a5.35,5.35,0,0,0-1.3.59A15.26,15.26,0,0,0,60-2.77c-.26.24-.48.45-.68.6A.6.6,0,0,1,58.9-2l-.21,0c-.94-.23-2.91-2.32-3.12-2.76l0-.1a.92.92,0,0,1,0-.41,2,2,0,0,1,.11-.38,5.4,5.4,0,0,1,1.72-2,7.55,7.55,0,0,1,1.27-.75l.4-.17,0,0,.35-.12.08,0,.27-.07-.34-.32-.28-.26-.12,0h0l-.4-.07h0a4.67,4.67,0,0,0-2.11.33,4.93,4.93,0,0,0-2.43,1.77l0,0c-.48.64-4.25-.07-4.29-.08a7.72,7.72,0,0,1-2.23-.74,4.1,4.1,0,0,1-.4-.25h0a.49.49,0,0,0,0,.12c0,.24,0,.44,0,.61a2.42,2.42,0,0,1,0,.6c0,.09-.05.44-.09.92S46.93-5,46.92-4.32c0,.33,0,.66,0,1l.54.38c.27.18.63.4,1.06.64A16.64,16.64,0,0,0,52.38-.82c.72.18,1.42.34,2.08.47a40.38,40.38,0,0,0,5.59.67,6.73,6.73,0,0,1,3-3.13,4.68,4.68,0,0,1,1.05-.3l.42-.06.43,0c.23,0,.44,0,.65,0C65.08-3.73,64.35-4.46,63.74-5Z"/><path d="M67-2.46c-.07-.53-.88-1.42-2.65-3.14,0,0,0-.07,0-.1A.36.36,0,0,0,64.2-6,21.67,21.67,0,0,0,61-8.74l-1.43-1.35a.42.42,0,0,0-.16-.09h0l-.4-.09h0l-.4-.06h0a5.56,5.56,0,0,0-2.36.37,5.73,5.73,0,0,0-2.78,2,13.13,13.13,0,0,1-3.56-.3,6,6,0,0,1-2.38-.9,1.36,1.36,0,0,1-.21-.18.39.39,0,0,0-.19-.12l-.09,0a.41.41,0,0,0-.3.11h0a1.49,1.49,0,0,0-.42,1c0,.25,0,.46,0,.63s0,.33,0,.35a23.37,23.37,0,0,0-.19,4.08.23.23,0,0,0,0,.14,6.47,6.47,0,0,0,.33,2c.33.66,3.4,2.37,7.43,3.17a36.6,36.6,0,0,0,6.84.8,9.16,9.16,0,0,0,4.82-1A3.67,3.67,0,0,0,67-2.38S67-2.43,67-2.46Zm-11.08,4L54,1.18c-4-.8-6.62-2.38-6.87-2.74A2.52,2.52,0,0,1,47-2.19c0-.05,0-.1,0-.15A16.94,16.94,0,0,0,49.37-1a17.09,17.09,0,0,0,2.82,1c.72.19,1.42.34,2.09.47s1.26.23,1.84.31a37.05,37.05,0,0,0,4.18.4l.07,0a.38.38,0,0,0,.3-.23l.06-.13v0a6.07,6.07,0,0,1,2.62-2.8,3.66,3.66,0,0,1,1-.27l.41,0h.4a3.61,3.61,0,0,1,.93.12l0,0a4.79,4.79,0,0,1,.08.48,4.58,4.58,0,0,1,0,.55,2.53,2.53,0,0,1-1.16,2.28C63.47,2.09,60.36,2.24,55.88,1.51ZM47.13-7.75c0-.17,0-.37,0-.61a.49.49,0,0,1,0-.12h0a4.1,4.1,0,0,0,.4.25,7.72,7.72,0,0,0,2.23.74s3.81.72,4.29.08l0,0a4.93,4.93,0,0,1,2.43-1.77,4.67,4.67,0,0,1,2.11-.33h0l.4.07h0l.12,0,.28.26.34.32-.27.07-.08,0-.35.12,0,0-.4.17a7.55,7.55,0,0,0-1.27.75,5.4,5.4,0,0,0-1.72,2,2,2,0,0,0-.11.38.92.92,0,0,0,0,.41l0,.1c.21.44,2.18,2.53,3.12,2.76l.21,0a.6.6,0,0,0,.37-.12c.2-.15.42-.36.68-.6a15.26,15.26,0,0,1,1.64-1.38,5.35,5.35,0,0,1,1.3-.59l.17-.06.23-.07L63.68-5l.06,0c.61.59,1.34,1.32,1.85,1.88-.21,0-.42,0-.65,0l-.43,0-.42.06a4.68,4.68,0,0,0-1.05.3,6.73,6.73,0,0,0-3,3.13,40.38,40.38,0,0,1-5.59-.67c-.66-.13-1.36-.29-2.08-.47a16.64,16.64,0,0,1-3.84-1.52c-.43-.24-.79-.46-1.06-.64l-.54-.38c0-.3,0-.63,0-1,0-.67,0-1.37.09-1.91s.08-.83.09-.92A2.42,2.42,0,0,0,47.13-7.75Zm14.39.37c.54.46,1.19,1.06,1.8,1.65l-.18.07h0l-.3.1-.08,0-.41.14a4.87,4.87,0,0,0-1.19.58A16.15,16.15,0,0,0,59.4-3.35c-.21.2-.39.37-.55.5a9.22,9.22,0,0,1-2.26-1.94,2.26,2.26,0,0,1-.29-.37s0,0,0-.08a1.41,1.41,0,0,1,.16-.38,5,5,0,0,1,1.36-1.44,6.9,6.9,0,0,1,.79-.5l.4-.2.4-.16.31-.1a4,4,0,0,1,.46-.12l.27,0,.06,0A6.92,6.92,0,0,1,61.52-7.38Z"/></g></g></svg>