<?xml version="1.0" encoding="utf-8"?>
<!-- Generator: Adobe Illustrator 24.0.1, SVG Export Plug-In . SVG Version: 6.00 Build 0)  -->
<svg version="1.1" id="圖層_1" xmlns="http://www.w3.org/2000/svg" xmlns:xlink="http://www.w3.org/1999/xlink" x="0px" y="0px"
	 viewBox="0 0 350 208.4" style="enable-background:new 0 0 350 208.4;" xml:space="preserve">
<style type="text/css">
	.st0{clip-path:url(#SVGID_2_);fill:url(#SVGID_3_);}
	.st1{clip-path:url(#SVGID_5_);fill:url(#SVGID_6_);}
	.st2{opacity:0.5;clip-path:url(#SVGID_8_);}
	.st3{clip-path:url(#SVGID_10_);}
	.st4{fill:#FFFFFF;}
	.st5{clip-path:url(#SVGID_12_);fill:url(#SVGID_13_);}
	.st6{clip-path:url(#SVGID_15_);fill:#FAF2C7;}
	.st7{clip-path:url(#SVGID_17_);}
	.st8{clip-path:url(#SVGID_19_);}
	.st9{fill:none;}
	.st10{fill:#009245;}
	.st11{clip-path:url(#SVGID_21_);}
	.st12{clip-path:url(#SVGID_23_);}
	.st13{fill:url(#SVGID_24_);}
	.st14{opacity:0.5;}
	.st15{fill:url(#SVGID_25_);}
	.st16{clip-path:url(#SVGID_27_);fill:url(#SVGID_28_);}
	.st17{clip-path:url(#SVGID_30_);fill:#FAF2C7;}
	.st18{clip-path:url(#SVGID_32_);}
	.st19{clip-path:url(#SVGID_34_);}
	.st20{clip-path:url(#SVGID_36_);}
	.st21{clip-path:url(#SVGID_38_);}
	.st22{fill:url(#SVGID_39_);}
	.st23{fill:url(#SVGID_40_);}
	.st24{clip-path:url(#SVGID_42_);fill:#603813;}
	.st25{clip-path:url(#SVGID_44_);fill:#42210B;}
	.st26{clip-path:url(#SVGID_46_);fill:#FFFFFF;}
	.st27{clip-path:url(#SVGID_48_);fill:#FFFFFF;}
	.st28{clip-path:url(#SVGID_50_);fill:url(#SVGID_51_);}
	.st29{clip-path:url(#SVGID_53_);fill:#FFFFFF;}
	.st30{clip-path:url(#SVGID_55_);fill:url(#SVGID_56_);}
	.st31{clip-path:url(#SVGID_58_);fill:#FFFFFF;}
	.st32{clip-path:url(#SVGID_60_);fill:url(#SVGID_61_);}
	.st33{clip-path:url(#SVGID_63_);fill:#FFFFFF;}
	.st34{clip-path:url(#SVGID_65_);fill:#FFFFFF;}
	.st35{clip-path:url(#SVGID_67_);fill:#FFFFFF;}
	.st36{clip-path:url(#SVGID_69_);fill:#FFFFFF;}
	.st37{clip-path:url(#SVGID_71_);fill:#FFFFFF;}
	.st38{clip-path:url(#SVGID_73_);fill:#FFFFFF;}
	.st39{clip-path:url(#SVGID_75_);fill:#FFFFFF;}
	.st40{clip-path:url(#SVGID_77_);fill:#FFFFFF;}
	.st41{clip-path:url(#SVGID_79_);fill:#FFFFFF;}
	.st42{clip-path:url(#SVGID_81_);fill:#FFFFFF;}
	.st43{clip-path:url(#SVGID_83_);fill:#FFFFFF;}
	.st44{clip-path:url(#SVGID_85_);fill:#FFFFFF;}
	.st45{clip-path:url(#SVGID_87_);fill:#FFFFFF;}
	.st46{clip-path:url(#SVGID_89_);fill:#FFFFFF;}
	.st47{clip-path:url(#SVGID_91_);fill:#FFFFFF;}
	.st48{clip-path:url(#SVGID_93_);fill:#754C24;}
	.st49{clip-path:url(#SVGID_95_);fill:#754C24;}
	.st50{clip-path:url(#SVGID_97_);fill:#754C24;}
	.st51{clip-path:url(#SVGID_99_);fill:#754C24;}
	.st52{clip-path:url(#SVGID_101_);fill:#754C24;}
	.st53{clip-path:url(#SVGID_103_);fill:#754C24;}
	.st54{clip-path:url(#SVGID_105_);fill:#FFFFFF;}
	.st55{clip-path:url(#SVGID_107_);fill:#FFFFFF;}
	.st56{clip-path:url(#SVGID_109_);fill:#FFFFFF;}
	.st57{clip-path:url(#SVGID_111_);fill:#FFFFFF;}
	.st58{clip-path:url(#SVGID_113_);fill:#FFFFFF;}
	.st59{clip-path:url(#SVGID_115_);fill:#FFFFFF;}
	.st60{clip-path:url(#SVGID_117_);fill:url(#SVGID_118_);}
	.st61{clip-path:url(#SVGID_120_);fill:url(#SVGID_121_);}
	.st62{clip-path:url(#SVGID_123_);fill:url(#SVGID_124_);}
	.st63{clip-path:url(#SVGID_126_);fill:#754C24;}
	.st64{clip-path:url(#SVGID_128_);fill:#754C24;}
	.st65{clip-path:url(#SVGID_130_);fill:#754C24;}
	.st66{clip-path:url(#SVGID_132_);fill:#754C24;}
	.st67{clip-path:url(#SVGID_134_);fill:#754C24;}
	.st68{clip-path:url(#SVGID_136_);fill:#754C24;}
	.st69{clip-path:url(#SVGID_138_);fill:#FFFFFF;}
	.st70{clip-path:url(#SVGID_140_);fill:#FFFFFF;}
	.st71{clip-path:url(#SVGID_142_);fill:#FFFFFF;}
	.st72{clip-path:url(#SVGID_144_);fill:#FFFFFF;}
	.st73{clip-path:url(#SVGID_146_);fill:#FFFFFF;}
	.st74{clip-path:url(#SVGID_148_);fill:#FFFFFF;}
	.st75{clip-path:url(#SVGID_150_);fill:url(#SVGID_151_);}
	.st76{clip-path:url(#SVGID_153_);fill:url(#SVGID_154_);}
	.st77{clip-path:url(#SVGID_156_);fill:url(#SVGID_157_);}
	.st78{clip-path:url(#SVGID_159_);fill:#95C0ED;}
	.st79{clip-path:url(#SVGID_161_);fill:#95C0ED;}
	.st80{clip-path:url(#SVGID_163_);fill:#B39FED;}
	.st81{clip-path:url(#SVGID_165_);fill:#B39FED;}
	.st82{clip-path:url(#SVGID_167_);fill:#FFFFFF;}
	.st83{clip-path:url(#SVGID_169_);fill:#FFFFFF;}
	.st84{clip-path:url(#SVGID_171_);fill:url(#SVGID_172_);}
	.st85{opacity:0.3;clip-path:url(#SVGID_174_);fill:#00FFFF;enable-background:new    ;}
	.st86{clip-path:url(#SVGID_176_);fill:url(#SVGID_177_);}
	.st87{opacity:0.3;clip-path:url(#SVGID_179_);fill:#00FFFF;enable-background:new    ;}
	.st88{clip-path:url(#SVGID_181_);fill:url(#SVGID_182_);}
	.st89{clip-path:url(#SVGID_184_);fill:url(#SVGID_185_);}
	.st90{clip-path:url(#SVGID_187_);fill:url(#SVGID_188_);}
</style>
<title>login_logo</title>
<g>
	<g id="標題">
		<g>
			<g>
				<g>
					<defs>
						<rect id="SVGID_1_" y="0" width="350" height="230"/>
					</defs>
					<clipPath id="SVGID_2_">
						<use xlink:href="#SVGID_1_"  style="overflow:visible;"/>
					</clipPath>
					
						<linearGradient id="SVGID_3_" gradientUnits="userSpaceOnUse" x1="19.7" y1="-502.4102" x2="354.2" y2="-502.4102" gradientTransform="matrix(1 0 0 -1 0 -382.1102)">
						<stop  offset="2.000000e-02" style="stop-color:#FFECA5"/>
						<stop  offset="0.19" style="stop-color:#FFECA3"/>
						<stop  offset="0.25" style="stop-color:#FFEA9C"/>
						<stop  offset="0.3" style="stop-color:#FFE891"/>
						<stop  offset="0.33" style="stop-color:#FEE580"/>
						<stop  offset="0.36" style="stop-color:#FEE16A"/>
						<stop  offset="0.39" style="stop-color:#FDDC4E"/>
						<stop  offset="0.41" style="stop-color:#FCD62E"/>
						<stop  offset="0.44" style="stop-color:#FBD00A"/>
						<stop  offset="0.44" style="stop-color:#FBCE00"/>
						<stop  offset="0.59" style="stop-color:#FACA00"/>
						<stop  offset="0.73" style="stop-color:#F8BF00"/>
						<stop  offset="0.84" style="stop-color:#F6B100"/>
					</linearGradient>
					<path class="st0" d="M29.6,153.8c1.1,14.6,2.5,15.6,4.5,15.6c19.6,0,35.5,16.6,35.5,37v2h211.9v-2c0-20.4,15.9-37,35.5-37
						c2.1,0,3.4-1,4.5-15.6c0.7-9,1.1-20.8,1.1-33.5s-0.4-24.5-1.1-33.5c-1.1-14.6-2.5-15.6-4.5-15.6c-19.6,0-35.5-16.6-35.5-37v-2
						H69.7v2c0,20.4-15.9,37-35.5,37c-2.1,0-3.4,1-4.5,15.6c-0.7,9-1.1,20.8-1.1,33.5S28.9,144.8,29.6,153.8z"/>
				</g>
			</g>
			<g>
				<g>
					<defs>
						<rect id="SVGID_4_" y="0" width="350" height="230"/>
					</defs>
					<clipPath id="SVGID_5_">
						<use xlink:href="#SVGID_4_"  style="overflow:visible;"/>
					</clipPath>
					
						<linearGradient id="SVGID_6_" gradientUnits="userSpaceOnUse" x1="175.1434" y1="-591.1101" x2="175.1434" y2="-413.6201" gradientTransform="matrix(1 0 0 -1 0 -382.1102)">
						<stop  offset="2.000000e-02" style="stop-color:#FFECA5"/>
						<stop  offset="0.23" style="stop-color:#FFECA3"/>
						<stop  offset="0.3" style="stop-color:#FFEA9C"/>
						<stop  offset="0.36" style="stop-color:#FFE891"/>
						<stop  offset="0.4" style="stop-color:#FEE580"/>
						<stop  offset="0.44" style="stop-color:#FEE16A"/>
						<stop  offset="0.47" style="stop-color:#FDDC4E"/>
						<stop  offset="0.5" style="stop-color:#FCD62E"/>
						<stop  offset="0.53" style="stop-color:#FBD00A"/>
						<stop  offset="0.53" style="stop-color:#FBCE00"/>
						<stop  offset="0.64" style="stop-color:#FACA00"/>
						<stop  offset="0.75" style="stop-color:#F8BF00"/>
						<stop  offset="0.83" style="stop-color:#F6B100"/>
					</linearGradient>
					<path class="st1" d="M313.5,73.4c-20.3,0.1-36.8-17-36.9-38.1l-101.9,0.5l-102,0.4c0.1,21.1-16.3,38.4-36.6,38.4
						c-2,0-3.5,20.7-3.3,46.3s1.8,46.3,3.8,46.3c20.3-0.1,36.8,17,36.9,38.1l102-0.5l102-0.5c-0.1-21.1,16.3-38.4,36.6-38.4
						c2,0,3.5-20.8,3.4-46.3S315.5,73.3,313.5,73.4z"/>
				</g>
			</g>
			<g>
				<g>
					<defs>
						<rect id="SVGID_7_" y="0" width="350" height="230"/>
					</defs>
					<clipPath id="SVGID_8_">
						<use xlink:href="#SVGID_7_"  style="overflow:visible;"/>
					</clipPath>
					<g class="st2">
						<g>
							<g>
								<g>
									<defs>
										<path id="SVGID_9_" d="M313.5,73.4c-20.3,0.1-36.8-17-36.9-38.1l-101.9,0.5l-102,0.4c0.1,21.1-16.3,38.4-36.6,38.4
											c-2,0-3.5,20.7-3.3,46.3s1.8,46.3,3.8,46.3c20.3-0.1,36.8,17,36.9,38.1l102-0.5l102-0.5c-0.1-21.1,16.3-38.4,36.6-38.4
											c2,0,3.5-20.8,3.4-46.3S315.5,73.3,313.5,73.4z"/>
									</defs>
									<clipPath id="SVGID_10_">
										<use xlink:href="#SVGID_9_"  style="overflow:visible;"/>
									</clipPath>
									<g class="st3">
										<polygon class="st4" points="32.8,35.6 32.8,66.6 51,35.6 										"/>
										<polygon class="st4" points="73.9,35.6 32.9,105.8 33,143.6 96.2,35.5 										"/>
										<polygon class="st4" points="164.4,35.5 62.1,210.4 84.3,210.4 186.6,35.4 										"/>
										<polygon class="st4" points="209.6,35.4 107.3,210.3 129.5,210.3 231.9,35.4 										"/>
										<polygon class="st4" points="254.9,35.4 152.5,210.3 174.8,210.3 277.1,35.3 										"/>
										<polygon class="st4" points="300.1,35.3 197.8,210.2 220,210.2 322.3,35.3 										"/>
										<path class="st4" d="M345.4,35.3c-0.1,0-102.4,174.9-102.4,174.9h22.2L345.4,73V35.3z"/>
										<polygon class="st4" points="345.6,112.1 288.2,210.1 310.4,210.1 345.6,149.9 										"/>
										<polygon class="st4" points="333.4,210.1 345.8,210.1 345.7,189.1 										"/>
										<polygon class="st4" points="119.2,35.5 33.1,182.7 33.1,210.4 39.1,210.4 141.4,35.5 										"/>
									</g>
								</g>
							</g>
						</g>
					</g>
				</g>
			</g>
			<g>
				<g>
					<defs>
						<rect id="SVGID_11_" y="0" width="350" height="230"/>
					</defs>
					<clipPath id="SVGID_12_">
						<use xlink:href="#SVGID_11_"  style="overflow:visible;"/>
					</clipPath>
					
						<radialGradient id="SVGID_13_" cx="1002.8358" cy="-2056.0437" r="27.84" gradientTransform="matrix(1.12 0 0 -1.65 -869.77 -3426.9319)" gradientUnits="userSpaceOnUse">
						<stop  offset="0" style="stop-color:#FFFFFF"/>
						<stop  offset="7.000000e-02" style="stop-color:#FEFAE1"/>
						<stop  offset="0.2" style="stop-color:#FEF2AC"/>
						<stop  offset="0.34" style="stop-color:#FDEB7E"/>
						<stop  offset="0.48" style="stop-color:#FCE558"/>
						<stop  offset="0.61" style="stop-color:#FCE13B"/>
						<stop  offset="0.74" style="stop-color:#FBDE27"/>
						<stop  offset="0.87" style="stop-color:#FBDC1A"/>
						<stop  offset="1" style="stop-color:#FBDB16"/>
					</radialGradient>
					<path class="st5" d="M255.8-100.3L255.8-100.3c1.5,0,2.7,1.2,2.7,2.7V26.7c0,1.5-1.2,2.7-2.7,2.7l0,0c-1.5,0-2.7-1.2-2.7-2.7
						V-97.6C253.1-99.1,254.3-100.3,255.8-100.3z"/>
				</g>
			</g>
			<g>
				<g>
					<defs>
						<rect id="SVGID_14_" y="0" width="350" height="230"/>
					</defs>
					<clipPath id="SVGID_15_">
						<use xlink:href="#SVGID_14_"  style="overflow:visible;"/>
					</clipPath>
					<path class="st6" d="M254.3-100.3L254.3-100.3c1.5,0,2.7,1.2,2.7,2.7l0,0V26.7c0,1.5-1.2,2.7-2.7,2.7l0,0
						c-1.5,0-2.7-1.2-2.7-2.7V-97.6C251.6-99.1,252.8-100.3,254.3-100.3z"/>
				</g>
			</g>
			<g>
				<g>
					<defs>
						<rect id="SVGID_16_" y="0" width="350" height="230"/>
					</defs>
					<clipPath id="SVGID_17_">
						<use xlink:href="#SVGID_16_"  style="overflow:visible;"/>
					</clipPath>
					<g class="st7">
						<g>
							<g>
								<defs>
									<path id="SVGID_18_" d="M255.5,38.3h-0.9c-1.7,0-3-1.3-3-3V-88.4c0-1.7,1.3-3,3-3h0.9c1.7,0,3,1.3,3,3V35.3
										C258.5,36.9,257.2,38.3,255.5,38.3z"/>
								</defs>
								<clipPath id="SVGID_19_">
									<use xlink:href="#SVGID_18_"  style="overflow:visible;"/>
								</clipPath>
								<g class="st8">
									<line class="st9" x1="240.9" y1="9.4" x2="264.8" y2="-4.2"/>
									<polygon class="st10" points="242.1,12.1 239.8,6.7 263.7,-6.8 266,-1.5 									"/>
									<line class="st9" x1="240.9" y1="25.2" x2="264.8" y2="11.7"/>
									<polygon class="st10" points="242.1,27.9 239.8,22.6 263.7,9 266,14.3 									"/>
								</g>
							</g>
						</g>
					</g>
				</g>
			</g>
			<g>
				<g>
					<defs>
						<rect id="SVGID_20_" y="0" width="350" height="230"/>
					</defs>
					<clipPath id="SVGID_21_">
						<use xlink:href="#SVGID_20_"  style="overflow:visible;"/>
					</clipPath>
					<g class="st11">
						<g>
							<g>
								<defs>
									
										<ellipse id="SVGID_22_" transform="matrix(0.9999 -1.222134e-02 1.222134e-02 0.9999 -0.4123 3.1214)" cx="255.2" cy="35.3" rx="7.7" ry="8.2"/>
								</defs>
								<clipPath id="SVGID_23_">
									<use xlink:href="#SVGID_22_"  style="overflow:visible;"/>
								</clipPath>
								<g class="st12">
									
										<linearGradient id="SVGID_24_" gradientUnits="userSpaceOnUse" x1="312.1633" y1="-335.5222" x2="327.5033" y2="-335.5222" gradientTransform="matrix(0.9999 -1.221700e-02 -1.221700e-02 -0.9999 -68.7563 -296.2805)">
										<stop  offset="0" style="stop-color:#3FBFF0"/>
										<stop  offset="0.5" style="stop-color:#00A1E9"/>
										<stop  offset="1" style="stop-color:#008DD7"/>
									</linearGradient>
									<path class="st13" d="M255.1,27.1c4.2-0.1,7.7,3.6,7.8,8.1c0.1,4.5-3.3,8.2-7.6,8.3c-4.2,0.1-7.7-3.6-7.8-8.1
										C247.5,30.8,250.9,27.1,255.1,27.1z"/>
									<g class="st14">
										<path class="st4" d="M251.3,31.4c0.1,1,0.9,1.7,1.9,1.6s1.7-0.9,1.6-1.9c-0.1-0.9-0.9-1.7-1.8-1.6
											C252.1,29.5,251.3,30.4,251.3,31.4z"/>
									</g>
									<g>
										
											<radialGradient id="SVGID_25_" cx="3035.2319" cy="-2048.113" r="4.38" gradientTransform="matrix(1.6499 -1.871825e-02 -1.871825e-02 -1.6499 -4789.3364 -3284.72)" gradientUnits="userSpaceOnUse">
											<stop  offset="0" style="stop-color:#FFFFFF"/>
											<stop  offset="0.12" style="stop-color:#D7EDF1"/>
											<stop  offset="0.25" style="stop-color:#ADDAE2"/>
											<stop  offset="0.4" style="stop-color:#8BCAD6"/>
											<stop  offset="0.54" style="stop-color:#70BECD"/>
											<stop  offset="0.69" style="stop-color:#5DB5C6"/>
											<stop  offset="0.84" style="stop-color:#52B0C2"/>
											<stop  offset="1" style="stop-color:#4EAEC1"/>
										</radialGradient>
										<path class="st15" d="M253.3,38.8c4.4-0.2,7.8-3.9,7.6-8.3c0-0.2,0-0.5-0.1-0.7c1.3,1.5,2,3.4,2,5.4
											c0.4,4.2-2.7,7.9-7,8.3s-7.9-2.7-8.3-7c0-0.2,0-0.4,0-0.5C249,37.8,251.1,38.8,253.3,38.8z"/>
									</g>
								</g>
							</g>
						</g>
					</g>
				</g>
			</g>
			<g>
				<g>
					<defs>
						<rect id="SVGID_26_" y="0" width="350" height="230"/>
					</defs>
					<clipPath id="SVGID_27_">
						<use xlink:href="#SVGID_26_"  style="overflow:visible;"/>
					</clipPath>
					
						<radialGradient id="SVGID_28_" cx="896.55" cy="-2417.6802" r="27.84" gradientTransform="matrix(1 0 0 -1 0 -382.1102)" gradientUnits="userSpaceOnUse">
						<stop  offset="0" style="stop-color:#FFFFFF"/>
						<stop  offset="7.000000e-02" style="stop-color:#FEFAE1"/>
						<stop  offset="0.2" style="stop-color:#FEF2AC"/>
						<stop  offset="0.34" style="stop-color:#FDEB7E"/>
						<stop  offset="0.48" style="stop-color:#FCE558"/>
						<stop  offset="0.61" style="stop-color:#FCE13B"/>
						<stop  offset="0.74" style="stop-color:#FBDE27"/>
						<stop  offset="0.87" style="stop-color:#FBDC1A"/>
						<stop  offset="1" style="stop-color:#FBDB16"/>
					</radialGradient>
					<path class="st16" d="M92.5-100.3L92.5-100.3c1.5,0,2.7,1.2,2.7,2.7V26.7c0,1.5-1.2,2.7-2.7,2.7l0,0c-1.5,0-2.7-1.2-2.7-2.7
						V-97.6C89.8-99.1,91-100.3,92.5-100.3z"/>
				</g>
			</g>
			<g>
				<g>
					<defs>
						<rect id="SVGID_29_" y="0" width="350" height="230"/>
					</defs>
					<clipPath id="SVGID_30_">
						<use xlink:href="#SVGID_29_"  style="overflow:visible;"/>
					</clipPath>
					<path class="st17" d="M91-100.3L91-100.3c1.5,0,2.7,1.2,2.7,2.7V26.7c0,1.5-1.2,2.7-2.7,2.7l0,0c-1.5,0-2.7-1.2-2.7-2.7V-97.6
						C88.3-99.1,89.5-100.3,91-100.3z"/>
				</g>
			</g>
			<g>
				<g>
					<defs>
						<rect id="SVGID_31_" y="0" width="350" height="230"/>
					</defs>
					<clipPath id="SVGID_32_">
						<use xlink:href="#SVGID_31_"  style="overflow:visible;"/>
					</clipPath>
					<g class="st18">
						<g>
							<g>
								<defs>
									<path id="SVGID_33_" d="M92.2,38.3h-0.9c-1.7,0-3-1.3-3-3V-88.4c0-1.7,1.3-3,3-3h0.9c1.7,0,3,1.3,3,3V35.3
										C95.2,36.9,93.9,38.3,92.2,38.3z"/>
								</defs>
								<clipPath id="SVGID_34_">
									<use xlink:href="#SVGID_33_"  style="overflow:visible;"/>
								</clipPath>
								<g class="st19">
									<line class="st9" x1="77.6" y1="9.4" x2="101.5" y2="-4.2"/>
									<polygon class="st10" points="78.8,12.1 76.5,6.7 100.4,-6.8 102.7,-1.5 									"/>
									<line class="st9" x1="77.6" y1="25.2" x2="101.5" y2="11.7"/>
									<polygon class="st10" points="78.8,27.9 76.5,22.6 100.4,9 102.7,14.3 									"/>
								</g>
							</g>
						</g>
					</g>
				</g>
			</g>
			<g>
				<g>
					<defs>
						<rect id="SVGID_35_" y="0" width="350" height="230"/>
					</defs>
					<clipPath id="SVGID_36_">
						<use xlink:href="#SVGID_35_"  style="overflow:visible;"/>
					</clipPath>
					<g class="st20">
						<g>
							<g>
								<defs>
									<path id="SVGID_37_" d="M84.2,35.3c-0.3,4.2,2.9,7.9,7.2,8.2s7.9-2.9,8.2-7.2c0-0.4,0-0.7,0-1.1c0.3-4.2-2.9-7.9-7.2-8.2
										s-7.9,2.9-8.2,7.2C84.2,34.6,84.2,35,84.2,35.3z"/>
								</defs>
								<clipPath id="SVGID_38_">
									<use xlink:href="#SVGID_37_"  style="overflow:visible;"/>
								</clipPath>
								<g class="st21">
									
										<linearGradient id="SVGID_39_" gradientUnits="userSpaceOnUse" x1="149.6806" y1="-333.0253" x2="165.0206" y2="-333.0253" gradientTransform="matrix(0.9999 -1.134440e-02 -1.134440e-02 -0.9999 -69.223 -295.9568)">
										<stop  offset="0" style="stop-color:#3FBFF0"/>
										<stop  offset="0.5" style="stop-color:#00A1E9"/>
										<stop  offset="1" style="stop-color:#008DD7"/>
									</linearGradient>
									<path class="st22" d="M84.2,35.3c-0.3,4.2,2.9,7.9,7.2,8.2s7.9-2.9,8.2-7.2c0-0.4,0-0.7,0-1.1c0.3-4.2-2.9-7.9-7.2-8.2
										s-7.9,2.9-8.2,7.2C84.2,34.6,84.2,35,84.2,35.3z"/>
									<g class="st14">
										<path class="st4" d="M88,31.4c0.1,1,0.9,1.7,1.9,1.6s1.7-0.9,1.6-1.9c-0.1-0.9-0.9-1.7-1.8-1.6C88.7,29.5,88,30.4,88,31.4
											z"/>
									</g>
									<g>
										
											<radialGradient id="SVGID_40_" cx="3086.75" cy="-2406.1504" r="4.38" gradientTransform="matrix(1 0 0 -1 0 -382.1102)" gradientUnits="userSpaceOnUse">
											<stop  offset="0" style="stop-color:#FFFFFF"/>
											<stop  offset="0.12" style="stop-color:#D7EDF1"/>
											<stop  offset="0.25" style="stop-color:#ADDAE2"/>
											<stop  offset="0.4" style="stop-color:#8BCAD6"/>
											<stop  offset="0.54" style="stop-color:#70BECD"/>
											<stop  offset="0.69" style="stop-color:#5DB5C6"/>
											<stop  offset="0.84" style="stop-color:#52B0C2"/>
											<stop  offset="1" style="stop-color:#4EAEC1"/>
										</radialGradient>
										<path class="st23" d="M90,38.8c4.4-0.2,7.8-3.9,7.6-8.3c0-0.2,0-0.5-0.1-0.7c1.3,1.5,2,3.4,2,5.4c0.4,4.2-2.7,7.9-7,8.3
											s-7.9-2.7-8.3-7c0-0.2,0-0.4,0-0.5C85.7,37.8,87.8,38.8,90,38.8z"/>
									</g>
								</g>
							</g>
						</g>
					</g>
				</g>
			</g>
			<g>
				<g>
					<defs>
						<rect id="SVGID_41_" y="0" width="350" height="230"/>
					</defs>
					<clipPath id="SVGID_42_">
						<use xlink:href="#SVGID_41_"  style="overflow:visible;"/>
					</clipPath>
					<path class="st24" d="M281.2,113.4c-0.2-0.2-0.5-0.4-0.7-0.6c-4.7-3.1-10.1-4.9-15.7-5.3c-4.5-0.4-9-0.3-13.5,0.2
						c-1.4-0.6-2.8-0.8-4.3-0.8l-9.8,0.2c-2.4-2.4-5.3-4.2-8.5-5.2c-0.7-0.2-1.5-0.4-2.3-0.4c-3.2-0.3-6.5,0.7-10.7,3
						c-0.3,0.2-0.7,0.4-1,0.6c-4,2.9-8.8,6.8-12,11.7c-4.2-4.2-10.1-6.3-16-6c-6,0.3-12,1.7-17.6,3.9c-3.2-1.6-6.7-2.3-10.2-2.1
						c-5.7,0.3-11.3,1.6-16.6,3.7c-1.4-6.5-4.6-11.3-9.3-14.3c-0.2-0.1-0.4-0.2-0.6-0.3c-4.1-2.2-8.7-3-13.3-2.3
						c-2.8,0.5-5.6,1.2-8.2,2.2l-0.5-0.1l-6.8-0.8c-3-0.3-6,0.6-8.3,2.5c-2.7-1.6-6-1.9-9-0.9c-8,2.7-16.3,5.7-24.8,9
						c-5.6,2.1-8.4,8.4-6.3,14c0.1,0.4,0.3,0.7,0.5,1l3.7,7.3c0.3,0.6,0.7,1.2,1.1,1.7c0.1,1.4,0.3,2.9,0.6,4.4
						c0.2,1.3,0.4,2.6,0.7,3.9c-2.3,2.8-3.1,6.6-2,10.1c2,6.4,4.6,12.7,7.8,18.6c1.1,2,2.9,3.7,5,4.7l0.6,2.4
						c1.5,5.8,7.4,9.3,13.2,7.9c0.2,0,0.3-0.1,0.5-0.1c3-0.9,6.1-1.8,9.2-2.7c0.6,0.5,1.3,0.9,2,1.3l9,4.6c3.4,1.8,7.5,1.6,10.8-0.5
						c6.5-4.1,9.5-8.8,10.8-13.1c1.4-0.3,2.9-0.6,4.4-0.8c1.4,4.9,5.3,11.5,16.3,14.4l0.5,0.1c4.9,1,10,1.5,15,1.4
						c1.8,0,3.7-0.1,5.7-0.1l7.7-0.4c12.3-0.6,20.4-2.8,25.8-6.9l4.3,0.9c0.2,0.2,0.4,0.4,0.6,0.6c2.1,2.1,5,3.3,8,3.2l10.5-0.3
						c1.3-0.1,2.6-0.3,3.7-0.8c1.8,1.1,3.9,1.7,6,1.7l10.6-0.2c2,0,3.9-0.6,5.6-1.6c1.1,0.8,2.3,1.4,3.6,1.8l9.4,2.6
						c0.9,0.3,1.9,0.4,2.9,0.4c5,0,9.3-3.4,10.5-8.2c4.9-19.1,7.9-34.9,9.1-48.3C289.5,125.8,287.1,118.1,281.2,113.4z M224.2,125.4
						l0.6,0.8l-2.4,1C222.8,126.7,223.4,126.1,224.2,125.4z M224.9,126.7l0.9,3l-4.7-0.4L224.9,126.7z M222.6,129.8l-1.6-0.1
						c0-0.1,0-0.2,0-0.2L222.6,129.8z M226,129.7l-0.4-2c0.3,0.5,0.5,1,0.6,1.5c0,0.2,0.1,0.3,0.1,0.5H226z"/>
				</g>
			</g>
			<g>
				<g>
					<defs>
						<rect id="SVGID_43_" y="0" width="350" height="230"/>
					</defs>
					<clipPath id="SVGID_44_">
						<use xlink:href="#SVGID_43_"  style="overflow:visible;"/>
					</clipPath>
					<path class="st25" d="M279.1,116.2c-0.1-0.1-0.3-0.2-0.4-0.3c-4-2.6-8.6-4.1-13.4-4.4c-4.6-0.4-9.3-0.3-13.9,0.3
						c-1-0.6-2.1-1-3.3-0.9l-10.6,0.2c-0.4,0-0.8,0.1-1.3,0.2c-2.1-2.6-4.9-4.5-8-5.6c-0.4-0.1-0.8-0.2-1.2-0.2
						c-2.2-0.2-4.5,0.5-7.8,2.4c-0.2,0.1-0.4,0.2-0.5,0.3c-8.7,6.3-13,11.9-13.5,17.7c-0.1,0.8-0.1,1.7-0.1,2.5
						c-0.8-3.1-2.2-6-4.3-8.4c-0.1-0.2-0.3-0.3-0.4-0.5c-3.3-3.2-7.8-4.9-12.4-4.7c-6.3,0.4-12.4,1.9-18.1,4.6
						c-2.8-1.9-6.2-2.8-9.6-2.7c-6.6,0.4-13.1,2.1-19,5c-0.6,0.3-1.2,0.7-1.7,1.2c-0.1-1-0.2-2.1-0.4-3l-0.3-1.8
						c-1-6.1-3.5-10.4-7.4-12.8l-0.3-0.2c-3.1-1.7-6.7-2.3-10.2-1.8c-3,0.5-5.9,1.3-8.7,2.5c-0.5-0.2-0.9-0.3-1.4-0.3l-6.8-0.8
						c-2.4-0.3-4.8,1-5.9,3.1c-0.4,0.7-0.7,1.4-1.1,2.1h-0.5l-0.6-1.1c-1.4-2.5-4.4-3.7-7.1-2.7c-7.9,2.7-16.2,5.7-24.6,8.9
						c-3.1,1.2-4.6,4.6-3.4,7.7c0.1,0.2,0.2,0.4,0.2,0.6l3.7,7.3c0.4,0.7,0.8,1.3,1.4,1.8c0.1,1.9,0.4,3.8,0.7,5.8
						c0.4,2.3,0.8,4.4,1.2,6.4c-2.4,1.4-3.5,4.2-2.7,6.9c1.9,6.1,4.4,12,7.4,17.6c1,1.8,2.8,2.9,4.8,3l1.3,5.2
						c0.9,3.2,4.1,5.1,7.3,4.3h0.1c4-1.2,8.2-2.4,12.4-3.6c0.6,1.1,1.5,1.9,2.5,2.5l9,4.6c1.9,1,4.1,0.9,5.9-0.3
						c6.6-4.2,8.8-9,9.2-13.1c3.9-0.8,8-1.5,12.8-2.4h0.1c0,0.4,0,0.9,0,1.3c0.2,4.9,2.8,11.3,13.3,14.1l0.3,0.1
						c4.6,0.9,9.3,1.4,13.9,1.3c1.8,0,3.6-0.1,5.5-0.1l7.7-0.4c12.7-0.6,20.6-3,24.8-7.6l0.1-0.1c0.6,0.4,1.3,0.7,2,0.8l6.3,1.3
						c0.3,0.6,0.7,1.1,1.1,1.6c1.2,1.1,2.7,1.8,4.4,1.7l10.5-0.3c1.8,0,3.4-0.9,4.5-2.2c0.3,0.5,0.6,1,1.1,1.4
						c1.1,1.1,2.7,1.7,4.3,1.7l10.6-0.2c3.3-0.1,5.9-2.7,5.8-6c0-0.7,0-1.4,0-2.2l0.8,0.2l-0.3,1c-0.8,3.2,1,6.4,4.2,7.3l9.4,2.6
						c0.5,0.1,1,0.2,1.5,0.2c1.1,0,2.1-0.3,3-0.8c1.4-0.8,2.4-2.1,2.8-3.6c4.9-18.8,7.8-34.4,9-47.5
						C285.5,126.1,283.6,119.9,279.1,116.2z M140.1,133.8l-0.4-0.2v-0.7L140.1,133.8z M133.7,143.8c0,0.3,0,0.6,0,0.8
						c-0.1-0.3-0.2-0.7-0.4-1C133.5,143.7,133.6,143.7,133.7,143.8L133.7,143.8z M80.5,149.8c0.2,0.2,0.4,0.4,0.6,0.6
						c-1.2,1.1-1.9,2.6-2,4.3c-0.3-0.7-0.5-1.4-0.8-2C79.3,151.9,80,151,80.5,149.8L80.5,149.8z M113.3,164.9
						c-0.3-0.3-0.5-0.5-0.8-0.7c0.4-0.1,0.9-0.2,1.3-0.3C113.6,164.2,113.4,164.5,113.3,164.9L113.3,164.9z M117.7,160.9
						c-0.2,0.1-0.4,0.1-0.6,0.2c0.3-0.3,0.5-0.7,0.8-1c0.1,0.1,0.2,0.3,0.3,0.4c0.1,0.1,0.2,0.2,0.3,0.3L117.7,160.9z M152.6,172.4
						c-2.5-1-2.6-2-2.6-2.6c-0.1-1.2,0-2.4,0.1-3.6c0.3,0.4,0.6,0.8,0.9,1.1c0.5,0.5,1.1,0.9,1.7,1.2c-0.2,0.4-0.3,0.9-0.3,1.3
						C152.3,170.7,152.3,171.6,152.6,172.4L152.6,172.4z M205.8,133.4c0.2,0.8,0.5,1.6,0.8,2.3c-0.4,0.7-0.7,1.4-1,2.1
						c0.1-0.8,0.2-1.7,0.2-2.5c0-0.2,0-0.4,0-0.6V133.4z M203.5,149.2c0.1,0.6,0.2,1.2,0.4,1.8c-0.2-0.2-0.5-0.4-0.7-0.6l0,0
						C203.3,150.1,203.4,149.7,203.5,149.2L203.5,149.2z M170.6,153.2c0-0.1,0-0.1,0.1-0.2l0.1,0.1L170.6,153.2z M181.5,164.7
						L181.5,164.7l0.7-0.1L181.5,164.7z M224.9,125.5L224.9,125.5l-0.3,0.2L224.9,125.5z M223.5,153.6c-0.1-0.1-0.1-0.2-0.2-0.3h0.4
						C223.6,153.4,223.6,153.5,223.5,153.6L223.5,153.6z M223.7,166.1v-0.7v-0.9c0.2,0.3,0.5,0.6,0.8,0.8
						C224.2,165.6,223.9,165.9,223.7,166.1L223.7,166.1z M225,128.3c-0.7,0-1.4-0.3-2-0.6v-0.1l2.4-1.6l0.1,0.1
						c0.5,0.6,0.8,1.3,0.9,2C225.9,128.3,225.5,128.3,225,128.3z M242.3,129.1L242.3,129.1v-0.2V129.1z M243.6,139.3v-0.4l0.2,0.2
						L243.6,139.3z M243.6,123.8v-1h0.8l0.1,0.1C244.2,123.1,243.9,123.5,243.6,123.8L243.6,123.8z"/>
				</g>
			</g>
			<g>
				<g>
					<defs>
						<rect id="SVGID_45_" y="0" width="350" height="230"/>
					</defs>
					<clipPath id="SVGID_46_">
						<use xlink:href="#SVGID_45_"  style="overflow:visible;"/>
					</clipPath>
					<path class="st26" d="M280.4,116l-0.3-0.2c-3.9-2.5-8.3-4-12.9-4.3c-4.7-0.4-9.4-0.3-14,0.4c-0.9-0.7-2-1-3.1-1l-10.6,0.3
						c-0.6,0-1.1,0.1-1.6,0.3c-2-2.7-4.8-4.7-8-5.8c-0.3-0.1-0.7-0.2-1-0.2c-2-0.2-4.1,0.5-7.2,2.3c-0.2,0.1-0.3,0.2-0.4,0.3
						c-8.4,6.1-12.6,11.5-13.1,17c-0.4,3.4,0.1,6.8,1.5,9.9c-1.7,3.1-2.8,6.6-3.2,10.1c-0.3,2.9,0.3,5.9,1.9,8.4
						c-0.2,0.3-0.3,0.6-0.5,0.9c0,0.1-0.1,0.2-0.1,0.3c-0.8-1.9-2.1-3.5-3.8-4.8c0.1-0.2,0.2-0.4,0.2-0.6c1.5-4.8,2.4-9.8,2.6-14.8
						c0-0.2,0-0.3,0-0.5l-0.1-2.3c-0.2-4.4-1.8-8.6-4.7-12l-0.4-0.4c-3.1-3.1-7.3-4.7-11.6-4.4c-6.3,0.4-12.6,2-18.3,4.7
						c-2.8-2-6.1-3-9.5-2.8c-6.5,0.4-12.8,2.1-18.6,4.9c-2.3,1.1-3.4,3.8-2.5,6.3l2,5.1c-0.3,0.4-0.4,0.9-0.5,1.4
						c-0.6-0.5-1.3-0.9-2-1.2c0-0.8,0.1-1.7,0.1-2.6c0.2-3.9,0-7.7-0.6-11.5l-0.3-1.7c-0.9-5.8-3.3-9.8-7-12.1l-0.3-0.2
						c-2.9-1.6-6.3-2.2-9.6-1.7c-3,0.5-6,1.4-8.8,2.6c-0.5-0.2-1-0.4-1.6-0.4l-6.8-0.8c-2-0.2-4,0.8-4.9,2.6
						c-0.4,0.8-0.9,1.7-1.3,2.6l-1.7-0.1l-0.9-1.6c-1.2-2.1-3.7-3-5.9-2.3c-7.9,2.7-16.2,5.7-24.6,8.9c-1.3,0.5-2.4,1.5-2.9,2.8
						s-0.4,2.8,0.2,4l3.7,7.3c0.4,0.7,0.9,1.3,1.5,1.8c0.1,2,0.4,4,0.7,6.1c0.4,2.6,0.9,4.9,1.4,7.1l-0.3,0.2
						c-2.2,1.1-3.2,3.6-2.5,5.9c1.8,6,4.3,11.9,7.3,17.4c0.9,1.7,2.8,2.7,4.7,2.5l1.5,5.9c0.7,2.7,3.3,4.3,6,3.6
						c0.1,0,0.2-0.1,0.3-0.1c4.3-1.3,8.8-2.6,13.2-3.8c0.4,1.2,1.3,2.2,2.4,2.8l9,4.6c0.7,0.4,1.5,0.6,2.3,0.6
						c0.9,0,1.9-0.3,2.7-0.8c6.7-4.2,8.7-9.1,8.8-13.1c4.1-0.8,8.5-1.6,13.6-2.5c0.4-0.1,0.8-0.2,1.2-0.4c0,0.9,0,1.8,0,2.6
						c0.2,4.5,2.6,10.5,12.6,13.2l0.2,0.1c4.5,0.9,9.1,1.4,13.7,1.3c1.7,0,3.6-0.1,5.4-0.1l7.7-0.4c12.5-0.6,20.1-2.9,24.1-7.3
						c0.2-0.2,0.5-0.5,0.7-0.8c0.7,0.6,1.5,1,2.4,1.2l6.8,1.4c0.7,2,2.6,3.2,4.7,3.2L230,181c2.5-0.1,4.5-2,4.8-4.4v0.4
						c0,1.3,0.5,2.6,1.5,3.5c0.9,0.9,2.2,1.4,3.6,1.4l10.6-0.2c2.7,0,4.9-2.3,4.9-5c0-1.1,0-2.3,0-3.5c1,0.3,2,0.5,3.1,0.7
						c-0.1,0.2-0.1,0.5-0.2,0.7l-0.4,1.4c-0.7,2.6,0.9,5.3,3.5,6.1l9.4,2.6c0.4,0.1,0.9,0.2,1.3,0.2c2.3,0,4.2-1.5,4.8-3.7
						c4.9-18.8,7.8-34.3,8.9-47.4C286.4,125.3,284.6,119.4,280.4,116z"/>
				</g>
			</g>
			<g>
				<g>
					<defs>
						<rect id="SVGID_47_" y="0" width="350" height="230"/>
					</defs>
					<clipPath id="SVGID_48_">
						<use xlink:href="#SVGID_47_"  style="overflow:visible;"/>
					</clipPath>
					<path class="st27" d="M178.1,149.5c5.9-0.2,10.1-0.2,12.4,0.2c4.6,0.6,8,1.8,10.3,3.8c2.3,1.6,3.6,4.8,3.9,9.5l0.1,1.2
						c0.2,3.2-1,6.3-3.3,8.5c-3,3.3-9.9,5.2-20.8,5.7l-7.7,0.4c-6,0.4-12,0.1-17.9-1c-5.8-1.6-8.7-4.4-8.9-8.7
						c-0.2-5,0.9-10.9,3.5-17.6l6,1.1c3.8-0.9,7.6-1.6,11.4-2.2c-0.3-0.5-0.6-1.1-0.9-1.7l1.6-0.8l-4.2-0.6c0.1-0.7,0.2-1.4,0.4-2.2
						c-3.9,1.4-7.9,2.7-12,4.1l-2.1-6c5.1-1.8,10-3.4,14.8-4.9c0-0.8,0-1.6,0-2.2c-4.8,1.7-9.7,3.4-14.8,5.3l-2.1-6
						c5.4-2,10.6-3.9,15.6-5.5c-0.6-0.7-1.5-1-2.5-1c-4.3,0.5-8.4,1.8-12.2,3.9L146,126c5.2-2.6,10.9-4.1,16.7-4.4
						c2.8-0.2,5.6,0.9,7.6,2.9c2.1,2.5,3.3,5.6,3.4,8.9l0.1,2.2c0,3.5-0.2,6.9-0.5,9.9l1.9-0.9C175.8,146.3,176.8,148,178.1,149.5z
						 M157.4,161c-0.1,0.5-0.2,0.9-0.3,1.2c6.5-1.1,13.1-1.9,19.7-2.2l1.2,7.9c-6,0.3-11.9,0.9-17.8,1.8c0.3,0.1,0.6,0.2,0.9,0.2
						c2.7,0.6,8.3,0.7,16.7,0.3c3.1-0.1,6.3-0.4,9.4-0.9c1.8-0.2,3.4-1,4.8-2.1c1-0.6,1.6-1.8,1.6-3.7c0.1-2.6-1.8-4.9-4.4-5.4
						c-1.7-0.4-6-0.5-12.8-0.1C170,158.3,163.7,159.3,157.4,161z M198.2,122.7c2.1,2.5,3.4,5.7,3.5,9l0.1,2.3
						c-0.2,4.6-1,9.2-2.4,13.6l-9.2-1.3c0.5-1.2,0.8-2.3,1.1-3.3c-4,1.4-8.1,2.8-12.4,4.3l-2.1-6c5.5-2.1,10.8-3.9,15.8-5.6
						c0-0.5,0-1.1,0-1.6v-0.7c-5,1.8-10.1,3.8-15.4,5.7l-2.1-6c5.3-2.1,10.4-4,15.3-5.7c-0.7-0.4-1.4-0.6-2.2-0.6
						c-4.6,0.5-9,1.9-13,4.2l-2.6-6.7c5.5-2.8,11.4-4.4,17.5-4.7C193.3,119.4,196.2,120.6,198.2,122.7L198.2,122.7z"/>
				</g>
			</g>
			<g>
				<g>
					<defs>
						<rect id="SVGID_49_" y="0" width="350" height="230"/>
					</defs>
					<clipPath id="SVGID_50_">
						<use xlink:href="#SVGID_49_"  style="overflow:visible;"/>
					</clipPath>
					
						<linearGradient id="SVGID_51_" gradientUnits="userSpaceOnUse" x1="144.4469" y1="-480.3476" x2="180.4769" y2="-543.1376" gradientTransform="matrix(1 0 0 -1 0 -382.1102)">
						<stop  offset="0" style="stop-color:#FFECA5"/>
						<stop  offset="0.5" style="stop-color:#FBCE00"/>
						<stop  offset="1" style="stop-color:#F6B100"/>
					</linearGradient>
					<path class="st28" d="M178.1,149.5c5.9-0.2,10.1-0.2,12.4,0.2c4.6,0.6,8,1.8,10.3,3.8c2.3,1.6,3.6,4.8,3.9,9.5l0.1,1.2
						c0.2,3.2-1,6.3-3.3,8.5c-3,3.3-9.9,5.2-20.8,5.7l-7.7,0.4c-6,0.4-12,0.1-17.9-1c-5.8-1.6-8.7-4.4-8.9-8.7
						c-0.2-5,0.9-10.9,3.5-17.6l6,1.1c3.8-0.9,7.6-1.6,11.4-2.2c-0.3-0.5-0.6-1.1-0.9-1.7l1.6-0.8l-4.2-0.6c0.1-0.7,0.2-1.4,0.4-2.2
						c-3.9,1.4-7.9,2.7-12,4.1l-2.1-6c5.1-1.8,10-3.4,14.8-4.9c0-0.8,0-1.6,0-2.2c-4.8,1.7-9.7,3.4-14.8,5.3l-2.1-6
						c5.4-2,10.6-3.9,15.6-5.5c-0.6-0.7-1.5-1-2.5-1c-4.3,0.5-8.4,1.8-12.2,3.9L146,126c5.2-2.6,10.9-4.1,16.7-4.4
						c2.8-0.2,5.6,0.9,7.6,2.9c2.1,2.5,3.3,5.6,3.4,8.9l0.1,2.2c0,3.5-0.2,6.9-0.5,9.9l1.9-0.9C175.8,146.3,176.8,148,178.1,149.5z
						 M157.4,161c-0.1,0.5-0.2,0.9-0.3,1.2c6.5-1.1,13.1-1.9,19.7-2.2l1.2,7.9c-6,0.3-11.9,0.9-17.8,1.8c0.3,0.1,0.6,0.2,0.9,0.2
						c2.7,0.6,8.3,0.7,16.7,0.3c3.1-0.1,6.3-0.4,9.4-0.9c1.8-0.2,3.4-1,4.8-2.1c1-0.6,1.6-1.8,1.6-3.7c0.1-2.6-1.8-4.9-4.4-5.4
						c-1.7-0.4-6-0.5-12.8-0.1C170,158.3,163.7,159.3,157.4,161z M198.2,122.7c2.1,2.5,3.4,5.7,3.5,9l0.1,2.3
						c-0.2,4.6-1,9.2-2.4,13.6l-9.2-1.3c0.5-1.2,0.8-2.3,1.1-3.3c-4,1.4-8.1,2.8-12.4,4.3l-2.1-6c5.5-2.1,10.8-3.9,15.8-5.6
						c0-0.5,0-1.1,0-1.6v-0.7c-5,1.8-10.1,3.8-15.4,5.7l-2.1-6c5.3-2.1,10.4-4,15.3-5.7c-0.7-0.4-1.4-0.6-2.2-0.6
						c-4.6,0.5-9,1.9-13,4.2l-2.6-6.7c5.5-2.8,11.4-4.4,17.5-4.7C193.3,119.4,196.2,120.6,198.2,122.7L198.2,122.7z"/>
				</g>
			</g>
			<g>
				<g>
					<defs>
						<rect id="SVGID_52_" y="0" width="350" height="230"/>
					</defs>
					<clipPath id="SVGID_53_">
						<use xlink:href="#SVGID_52_"  style="overflow:visible;"/>
					</clipPath>
					<path class="st29" d="M95.8,116.5l0.2-1.7c2.3,0.1,4.5,0.1,6.5,0.2c0.9-1.9,1.8-3.6,2.7-5.3l6.8,0.8c-0.9,1.7-1.7,3.4-2.4,5.1
						c1.7,0.2,3.4,0.4,4.9,0.6l-0.9,6.2c-2.4-0.2-4.7-0.3-6.7-0.6c-0.8,1.9-1.6,3.8-2.2,5.7l-6.9-1.1c0.6-1.7,1.2-3.4,1.9-5.1
						c-1.7,0-3.2-0.2-4.6-0.3l0.4-2.9c-3.9,1.4-7.8,2.9-11.7,4.3l-0.1,2.3c3.5-0.3,7-0.6,10.4-0.8l0.5,6.9
						c-3.7,0.3-7.2,0.6-10.5,0.8c0.1,0.9,0.2,1.8,0.3,2.6l10.9-0.8l0.5,6.9c-3.5,0.3-6.8,0.6-9.9,0.7c0.3,1.4,0.6,2.7,0.9,3.9
						c5.9-2.5,12-4.6,18.2-6.2l-4.5-0.7c0.5-1.2,1-2.4,1.5-3.6c-2-0.1-3.8-0.2-5.5-0.4l0.6-5.9c2.7,0.1,5.4,0.2,7.9,0.3
						c0.8-1.5,1.6-2.8,2.4-4.1l6.8,0.8c-0.7,1.4-1.4,2.7-2.1,3.9c1.5,0.2,2.9,0.4,4.4,0.5l-0.6,5.9c-2.4-0.2-4.7-0.4-6.7-0.6
						c-0.5,1-1,2-1.4,3c2.6-0.6,5.1-1.1,7.7-1.6c3.2-0.5,6.5-0.8,9.7-1c0.1-1,0.2-1.9,0.3-2.9c-2.8,0.3-5.4,0.6-7.8,0.8l-0.1-5.8
						l8.1-0.8c0-0.8-0.1-1.5-0.1-2.1l-8.3,0.9v-5.8l7.8-0.8c-0.2-0.8-0.6-1.6-1.1-2.2c-0.5-0.3-1.1-0.3-1.6-0.2
						c-1.9,0.6-3.8,1.3-5.6,2.1l-3.2-7.1c3.1-1.7,6.5-2.8,10-3.4c2.2-0.3,4.5,0.1,6.5,1.1c2.4,1.5,4,4.3,4.7,8.7l0.3,1.8
						c0.5,3.5,0.7,7,0.5,10.6c-0.1,2.4-0.2,4.3-0.4,6c3.7,1.1,5.7,2.5,6,4.5l0.2,1.4c0,3.1-0.5,6.2-1.6,9.2l-12.2-0.1
						c1.6-2.4,2.3-4.4,2.1-5.9c-0.2-1.3-1.6-1.9-4-1.9c-3.8,0.1-7.5,0.5-11.3,1.2c-9.6,1.9-18.9,5-27.7,9.2c1,2.2,2,4.3,3.1,6.3
						l-10.2,5c-2.9-5.2-5.2-10.8-6.9-16.5l4-2c-1-3.5-1.8-7-2.3-10.5c-0.5-3.3-0.8-6.7-0.7-10c-0.7,0.3-1.3,0.4-1.9,0.7l-3.7-7.3
						c8.5-3.2,16.7-6.2,24.4-8.8L95.8,116.5z M120.5,147.6c2.3,0.7,3.9,2.7,4.2,5.1c0.2,1,0.1,2-0.2,2.9c4.1-0.8,8.2-1.5,12.1-2.2
						l2.4,9c-6.2,1.1-12.3,2.2-18.1,3.5c0.1,0.7,0.3,1.3,0.4,1.8c0.7,4.3-1.5,7.9-6.4,11.1l-9-4.6c3.8-1.7,5.6-3.5,5.3-5.4
						c0-0.2-0.1-0.4-0.2-0.7c-8.2,2-16.4,4.3-24.5,6.7l-2.3-9.1c8.6-2.5,16.9-4.7,25.1-6.7l1.2-2.1c1.1,0,2.2,0.1,3.3,0.4
						c0.5-0.6,1-1.2,1.6-2c0.2-0.2,0.2-0.5,0.3-0.7c-0.1-0.4-0.9-0.5-2.6-0.2c-7,1.5-13.7,3.9-20,7.2l-3-6.8
						c8.6-4,16.2-6.6,22.7-7.6C115.2,146.5,118,146.7,120.5,147.6z"/>
				</g>
			</g>
			<g>
				<g>
					<defs>
						<rect id="SVGID_54_" y="0" width="350" height="230"/>
					</defs>
					<clipPath id="SVGID_55_">
						<use xlink:href="#SVGID_54_"  style="overflow:visible;"/>
					</clipPath>
					
						<linearGradient id="SVGID_56_" gradientUnits="userSpaceOnUse" x1="110.3162" y1="-546.8726" x2="102.3862" y2="-499.2525" gradientTransform="matrix(1 0 0 -1 0 -382.1102)">
						<stop  offset="0" style="stop-color:#ED7F07"/>
						<stop  offset="1" style="stop-color:#FF5E22"/>
					</linearGradient>
					<path class="st30" d="M95.8,116.5l0.2-1.7c2.3,0.1,4.5,0.1,6.5,0.2c0.9-1.9,1.8-3.6,2.7-5.3l6.8,0.8c-0.9,1.7-1.7,3.4-2.4,5.1
						c1.7,0.2,3.4,0.4,4.9,0.6l-0.9,6.2c-2.4-0.2-4.7-0.3-6.7-0.6c-0.8,1.9-1.6,3.8-2.2,5.7l-6.9-1.1c0.6-1.7,1.2-3.4,1.9-5.1
						c-1.7,0-3.2-0.2-4.6-0.3l0.4-2.9c-3.9,1.4-7.8,2.9-11.7,4.3l-0.1,2.3c3.5-0.3,7-0.6,10.4-0.8l0.5,6.9
						c-3.7,0.3-7.2,0.6-10.5,0.8c0.1,0.9,0.2,1.8,0.3,2.6l10.9-0.8l0.5,6.9c-3.5,0.3-6.8,0.6-9.9,0.7c0.3,1.4,0.6,2.7,0.9,3.9
						c5.9-2.5,12-4.6,18.2-6.2l-4.5-0.7c0.5-1.2,1-2.4,1.5-3.6c-2-0.1-3.8-0.2-5.5-0.4l0.6-5.9c2.7,0.1,5.4,0.2,7.9,0.3
						c0.8-1.5,1.6-2.8,2.4-4.1l6.8,0.8c-0.7,1.4-1.4,2.7-2.1,3.9c1.5,0.2,2.9,0.4,4.4,0.5l-0.6,5.9c-2.4-0.2-4.7-0.4-6.7-0.6
						c-0.5,1-1,2-1.4,3c2.6-0.6,5.1-1.1,7.7-1.6c3.2-0.5,6.5-0.8,9.7-1c0.1-1,0.2-1.9,0.3-2.9c-2.8,0.3-5.4,0.6-7.8,0.8l-0.1-5.8
						l8.1-0.8c0-0.8-0.1-1.5-0.1-2.1l-8.3,0.9v-5.8l7.8-0.8c-0.2-0.8-0.6-1.6-1.1-2.2c-0.5-0.3-1.1-0.3-1.6-0.2
						c-1.9,0.6-3.8,1.3-5.6,2.1l-3.2-7.1c3.1-1.7,6.5-2.8,10-3.4c2.2-0.3,4.5,0.1,6.5,1.1c2.4,1.5,4,4.3,4.7,8.7l0.3,1.8
						c0.5,3.5,0.7,7,0.5,10.6c-0.1,2.4-0.2,4.3-0.4,6c3.7,1.1,5.7,2.5,6,4.5l0.2,1.4c0,3.1-0.5,6.2-1.6,9.2l-12.2-0.1
						c1.6-2.4,2.3-4.4,2.1-5.9c-0.2-1.3-1.6-1.9-4-1.9c-3.8,0.1-7.5,0.5-11.3,1.2c-9.6,1.9-18.9,5-27.7,9.2c1,2.2,2,4.3,3.1,6.3
						l-10.2,5c-2.9-5.2-5.2-10.8-6.9-16.5l4-2c-1-3.5-1.8-7-2.3-10.5c-0.5-3.3-0.8-6.7-0.7-10c-0.7,0.3-1.3,0.4-1.9,0.7l-3.7-7.3
						c8.5-3.2,16.7-6.2,24.4-8.8L95.8,116.5z M120.5,147.6c2.3,0.7,3.9,2.7,4.2,5.1c0.2,1,0.1,2-0.2,2.9c4.1-0.8,8.2-1.5,12.1-2.2
						l2.4,9c-6.2,1.1-12.3,2.2-18.1,3.5c0.1,0.7,0.3,1.3,0.4,1.8c0.7,4.3-1.5,7.9-6.4,11.1l-9-4.6c3.8-1.7,5.6-3.5,5.3-5.4
						c0-0.2-0.1-0.4-0.2-0.7c-8.2,2-16.4,4.3-24.5,6.7l-2.3-9.1c8.6-2.5,16.9-4.7,25.1-6.7l1.2-2.1c1.1,0,2.2,0.1,3.3,0.4
						c0.5-0.6,1-1.2,1.6-2c0.2-0.2,0.2-0.5,0.3-0.7c-0.1-0.4-0.9-0.5-2.6-0.2c-7,1.5-13.7,3.9-20,7.2l-3-6.8
						c8.6-4,16.2-6.6,22.7-7.6C115.2,146.5,118,146.7,120.5,147.6z"/>
				</g>
			</g>
			<g>
				<g>
					<defs>
						<rect id="SVGID_57_" y="0" width="350" height="230"/>
					</defs>
					<clipPath id="SVGID_58_">
						<use xlink:href="#SVGID_57_"  style="overflow:visible;"/>
					</clipPath>
					<path class="st31" d="M234.6,115.2c2.2,2.7,4,5.8,5.1,9.1c0-2.8,0-5.5,0-8.2l10.6-0.3c0,0.5,0,1,0,1.5c5.4-1.1,11-1.4,16.5-0.9
						c3.8,0.2,7.4,1.4,10.5,3.4c2.9,2.3,4,6.8,3.5,13.3c-1.2,12.8-4.1,28.4-8.8,46.6l-9.4-2.6c0.8-2.9,1.6-5.8,2.3-8.6
						c-1.6,0.4-3.3,0.5-5,0.4c-3-0.3-5.2-1.1-6.6-2.7c-1.3-1.3-2-3.1-2-5c0.2-2.4,0.8-4.8,1.8-7.1h-2.5c-0.1,7.3-0.1,14.9,0,22.5
						l-10.6,0.2c0-16.3-0.1-31.4-0.1-45c-0.4,1.9-1.5,3.6-3,4.8c0.8,1.6,1.5,3.3,1.9,5c0.5,1.9,0.7,3.9,0.5,5.9
						c-0.2,2.8-1.8,5.3-4.2,6.5c-1.4,0.7-2.8,1.3-4.3,1.6c-0.1,1.5-0.1,2.9-0.2,4.3c2.6,0.6,5.2,1,7.8,1.2l-1.7,8.9
						c-2.2-0.2-4.3-0.5-6.4-1c-0.1,2.2-0.2,4.5-0.2,6.8l-10.5,0.3c0.2-6.1,0.4-11.7,0.5-16.9c-1.5,4.6-2.5,9.3-2.9,14.1l-8.1-1.5
						c0.5-5.4,1.6-10.7,3.5-15.8l7.6,1.5c0-0.8,0-1.5,0.1-2.3c-1.4-0.3-2.8-0.7-4.1-1.4c-3.2-1.5-5.1-4.9-4.6-8.4
						c0.2-2.7,1.5-6.2,3.9-10.6c-1.8-2.7-2.6-6-2.2-9.3c0.3-3.9,4-8.3,11.1-13.4c2-1.2,3.5-1.7,4.3-1.6
						C230.5,111,232.5,112.6,234.6,115.2z M221.4,143.1c-0.2,0.9,0.1,1.8,0.8,2.4c0.4,0.5,1.4,0.7,3,0.9c1.2,0.2,2.4,0,3.4-0.8
						c0.6-0.4,0.9-1.1,0.9-1.8c0.1-1-0.4-2.6-1.5-4.9c-1.5,0.1-3.1,0.1-4.6,0C222.6,140.2,221.9,141.6,221.4,143.1z M229.4,129.8
						c0.7-0.2,1.2-0.8,1.3-1.5c0-1.6-0.4-3.3-1-4.8c-0.9-1.3-1.6-2-2.2-2.1c-0.9-0.1-1.8,0.5-2.8,1.7c-1,1.1-1.8,2.5-2.1,4
						c-0.1,0.9,0,1.5,0.4,1.8c0.6,0.7,1.4,1,2.3,1C226.7,130.1,228.1,130.1,229.4,129.8L229.4,129.8z M250.3,134.2
						c1.2,0.1,2.3,0.3,3.5,0.4c-0.8-1.9-1.4-3.8-1.8-5.8l6.9-2c0.5,2.5,1.3,4.9,2.4,7.3c1.3-2.4,2.6-4.6,3.6-6.4l6,2.7
						c-0.9-3.2-3.4-5.1-7.5-5.5c-4.4-0.1-8.9,0.5-13.1,1.6C250.2,129.1,250.2,131.7,250.3,134.2L250.3,134.2z M250.3,146.9
						c1.3,0,2.6,0,3.8,0c0.2-1.5,0.5-2.9,0.9-4.3c-1.7-0.2-3.2-0.4-4.7-0.6V146.9z M259.6,160.5c-0.1,0.8,0.3,1.2,1.4,1.3
						c1.4,0,2.8-0.3,4.2-0.8l0.3,4.7c0.9-3.8,1.6-7.5,2.4-11.1c-2.1-0.1-4-0.2-6-0.2C260.7,156.2,260,158.3,259.6,160.5L259.6,160.5
						z M269.3,147.5c0.1-0.9,0.3-1.7,0.4-2.5c-2.1-0.4-4-0.8-6-1.1c-0.3,1.1-0.6,2.2-0.8,3.3L269.3,147.5z M270.9,137.5
						c0.1-0.8,0.2-1.6,0.4-2.5c0.1-1.3,0.1-2.6-0.2-3.9c-1.2,2-2.3,3.9-3.3,5.8C268.8,137,269.9,137.2,270.9,137.5L270.9,137.5z"/>
				</g>
			</g>
			<g>
				<g>
					<defs>
						<rect id="SVGID_59_" y="0" width="350" height="230"/>
					</defs>
					<clipPath id="SVGID_60_">
						<use xlink:href="#SVGID_59_"  style="overflow:visible;"/>
					</clipPath>
					
						<linearGradient id="SVGID_61_" gradientUnits="userSpaceOnUse" x1="248.0148" y1="-550.0778" x2="239.5248" y2="-499.1378" gradientTransform="matrix(1 0 0 -1 0 -382.1102)">
						<stop  offset="0" style="stop-color:#ED7F07"/>
						<stop  offset="1" style="stop-color:#FF5E22"/>
					</linearGradient>
					<path class="st32" d="M234.6,115.2c2.2,2.7,4,5.8,5.1,9.1c0-2.8,0-5.5,0-8.2l10.6-0.3c0,0.5,0,1,0,1.5c5.4-1.1,11-1.4,16.5-0.9
						c3.8,0.2,7.4,1.4,10.5,3.4c2.9,2.3,4,6.8,3.5,13.3c-1.2,12.8-4.1,28.4-8.8,46.6l-9.4-2.6c0.8-2.9,1.6-5.8,2.3-8.6
						c-1.6,0.4-3.3,0.5-5,0.4c-3-0.3-5.2-1.1-6.6-2.7c-1.3-1.3-2-3.1-2-5c0.2-2.4,0.8-4.8,1.8-7.1h-2.5c-0.1,7.3-0.1,14.9,0,22.5
						l-10.6,0.2c0-16.3-0.1-31.4-0.1-45c-0.4,1.9-1.5,3.6-3,4.8c0.8,1.6,1.5,3.3,1.9,5c0.5,1.9,0.7,3.9,0.5,5.9
						c-0.2,2.8-1.8,5.3-4.2,6.5c-1.4,0.7-2.8,1.3-4.3,1.6c-0.1,1.5-0.1,2.9-0.2,4.3c2.6,0.6,5.2,1,7.8,1.2l-1.7,8.9
						c-2.2-0.2-4.3-0.5-6.4-1c-0.1,2.2-0.2,4.5-0.2,6.8l-10.5,0.3c0.2-6.1,0.4-11.7,0.5-16.9c-1.5,4.6-2.5,9.3-2.9,14.1l-8.1-1.5
						c0.5-5.4,1.6-10.7,3.5-15.8l7.6,1.5c0-0.8,0-1.5,0.1-2.3c-1.4-0.3-2.8-0.7-4.1-1.4c-3.2-1.5-5.1-4.9-4.6-8.4
						c0.2-2.7,1.5-6.2,3.9-10.6c-1.8-2.7-2.6-6-2.2-9.3c0.3-3.9,4-8.3,11.1-13.4c2-1.2,3.5-1.7,4.3-1.6
						C230.5,111,232.5,112.6,234.6,115.2z M221.4,143.1c-0.2,0.9,0.1,1.8,0.8,2.4c0.4,0.5,1.4,0.7,3,0.9c1.2,0.2,2.4,0,3.4-0.8
						c0.6-0.4,0.9-1.1,0.9-1.8c0.1-1-0.4-2.6-1.5-4.9c-1.5,0.1-3.1,0.1-4.6,0C222.6,140.2,221.9,141.6,221.4,143.1z M229.4,129.8
						c0.7-0.2,1.2-0.8,1.3-1.5c0-1.6-0.4-3.3-1-4.8c-0.9-1.3-1.6-2-2.2-2.1c-0.9-0.1-1.8,0.5-2.8,1.7c-1,1.1-1.8,2.5-2.1,4
						c-0.1,0.9,0,1.5,0.4,1.8c0.6,0.7,1.4,1,2.3,1C226.7,130.1,228.1,130.1,229.4,129.8L229.4,129.8z M250.3,134.2
						c1.2,0.1,2.3,0.3,3.5,0.4c-0.8-1.9-1.4-3.8-1.8-5.8l6.9-2c0.5,2.5,1.3,4.9,2.4,7.3c1.3-2.4,2.6-4.6,3.6-6.4l6,2.7
						c-0.9-3.2-3.4-5.1-7.5-5.5c-4.4-0.1-8.9,0.5-13.1,1.6C250.2,129.1,250.2,131.7,250.3,134.2L250.3,134.2z M250.3,146.9
						c1.3,0,2.6,0,3.8,0c0.2-1.5,0.5-2.9,0.9-4.3c-1.7-0.2-3.2-0.4-4.7-0.6V146.9z M259.6,160.5c-0.1,0.8,0.3,1.2,1.4,1.3
						c1.4,0,2.8-0.3,4.2-0.8l0.3,4.7c0.9-3.8,1.6-7.5,2.4-11.1c-2.1-0.1-4-0.2-6-0.2C260.7,156.2,260,158.3,259.6,160.5L259.6,160.5
						z M269.3,147.5c0.1-0.9,0.3-1.7,0.4-2.5c-2.1-0.4-4-0.8-6-1.1c-0.3,1.1-0.6,2.2-0.8,3.3L269.3,147.5z M270.9,137.5
						c0.1-0.8,0.2-1.6,0.4-2.5c0.1-1.3,0.1-2.6-0.2-3.9c-1.2,2-2.3,3.9-3.3,5.8C268.8,137,269.9,137.2,270.9,137.5L270.9,137.5z"/>
				</g>
			</g>
			<g>
				<g>
					<defs>
						<rect id="SVGID_62_" y="0" width="350" height="230"/>
					</defs>
					<clipPath id="SVGID_63_">
						<use xlink:href="#SVGID_62_"  style="overflow:visible;"/>
					</clipPath>
					<path class="st33" d="M198.8,162.6c0.1,0.3,0.2,0.6,0.2,0.9c0,0.1,0,0.3,0-0.1c0,0.1,0,0.1,0,0.2c0,0.2,0,0.3,0,0.5
						c0,0.1,0,0.3,0,0.4c0,0.1,0,0.2,0,0.2c0,0.3,0-0.2,0-0.1c-0.1,0.3-0.1,0.6-0.2,0.9l-0.1,0.4c-0.1,0.2,0.2-0.3,0,0l-0.1,0.2
						c-0.1,0.3-0.3,0.5-0.4,0.8c0,0.1-0.1,0.1-0.1,0.2c0,0,0.2-0.3,0,0s-0.2,0.2-0.3,0.3s-0.2,0.2-0.3,0.3l-0.1,0.1
						c0.3-0.3,0.1-0.1,0,0c-0.7,0.4-1,1.3-0.7,2c0.4,0.7,1.3,1,2,0.7c0.1,0,0.1-0.1,0.2-0.1c2.7-1.9,3.9-5.3,2.9-8.5
						c-0.2-0.8-1-1.2-1.8-1C199,161.1,198.6,161.9,198.8,162.6L198.8,162.6z"/>
				</g>
			</g>
			<g>
				<g>
					<defs>
						<rect id="SVGID_64_" y="0" width="350" height="230"/>
					</defs>
					<clipPath id="SVGID_65_">
						<use xlink:href="#SVGID_64_"  style="overflow:visible;"/>
					</clipPath>
					<path class="st34" d="M149.1,165.5c-0.1,3.3,1.3,6.4,3.8,8.5c0.6,0.6,1.5,0.6,2.1,0s0.6-1.5,0-2.1c-0.2-0.2-0.5-0.4-0.7-0.7
						l-0.4-0.4l-0.1-0.2c0,0-0.2-0.3-0.1-0.1s0-0.1-0.1-0.1l-0.2-0.2c-0.1-0.1-0.2-0.3-0.2-0.4c-0.2-0.3-0.3-0.6-0.5-0.9
						c0-0.1-0.1-0.1-0.1-0.2c0,0.1,0.1,0.2,0,0l-0.2-0.5c-0.1-0.3-0.2-0.6-0.3-1l-0.1-0.5c0-0.2,0,0.3,0,0v-0.3c0-0.3,0-0.7,0-1
						c0-0.8-0.7-1.5-1.5-1.5C149.8,163.9,149.2,164.6,149.1,165.5L149.1,165.5z"/>
				</g>
			</g>
			<g>
				<g>
					<defs>
						<rect id="SVGID_66_" y="0" width="350" height="230"/>
					</defs>
					<clipPath id="SVGID_67_">
						<use xlink:href="#SVGID_66_"  style="overflow:visible;"/>
					</clipPath>
					<path class="st35" d="M164.7,127.3c0.2,0.2,0.3,0.3,0.5,0.5c0,0.1,0.1,0.1,0.1,0.2c0,0-0.2-0.3-0.1-0.1l0.2,0.3
						c0.1,0.2,0.2,0.4,0.3,0.6c0,0.1,0.1,0.1,0.1,0.2c0,0-0.1-0.3-0.1-0.1l0.1,0.4c0.1,0.2,0.1,0.4,0.2,0.7v0.2c0,0.2,0-0.1,0-0.1
						s0,0.3,0,0.4c0,0.2,0,0.5,0,0.7c0,0,0,0.1,0,0.2c0,0.2,0-0.1,0-0.1c0,0.1,0,0.3-0.1,0.4c-0.2,0.8,0.2,1.6,1,1.8s1.6-0.2,1.8-1
						c0.6-2.5-0.2-5.1-2.1-6.8c-0.6-0.6-1.5-0.6-2.1,0S164.1,126.7,164.7,127.3L164.7,127.3z"/>
				</g>
			</g>
			<g>
				<g>
					<defs>
						<rect id="SVGID_68_" y="0" width="350" height="230"/>
					</defs>
					<clipPath id="SVGID_69_">
						<use xlink:href="#SVGID_68_"  style="overflow:visible;"/>
					</clipPath>
					<path class="st36" d="M193,125.6c0.1,0,0.3,0.1,0.4,0.1c0.2,0.1-0.3-0.2-0.1,0l0.2,0.1c0.1,0.1,0.2,0.1,0.4,0.2l0.2,0.1
						c-0.4-0.2-0.2-0.1-0.1,0s0.4,0.4,0.6,0.6c-0.3-0.3-0.1-0.2-0.1-0.1l0.1,0.2c0.1,0.1,0.1,0.2,0.2,0.4s0,0.1,0.1,0.2
						s0.1,0.3,0-0.1c0,0.1,0.1,0.3,0.1,0.4s0.1,0.3,0.1,0.4c0,0.1,0,0.1,0,0.2c-0.1-0.4,0-0.2,0-0.1s0,0.5,0,0.8c0-0.4,0-0.2,0-0.1
						c0,0.1,0,0.1,0,0.2c0,0.1-0.1,0.3-0.1,0.4c-0.2,0.8,0.2,1.6,1,1.8s1.6-0.2,1.8-1c1-3.2-0.8-6.5-3.9-7.5c0,0,0,0-0.1,0
						c-0.8-0.2-1.6,0.2-1.8,1C191.8,124.6,192.2,125.4,193,125.6L193,125.6z"/>
				</g>
			</g>
			<g>
				<g>
					<defs>
						<rect id="SVGID_70_" y="0" width="350" height="230"/>
					</defs>
					<clipPath id="SVGID_71_">
						<use xlink:href="#SVGID_70_"  style="overflow:visible;"/>
					</clipPath>
					<path class="st37" d="M273,124.6c0.2,0.2,0.3,0.3,0.5,0.5l0.1,0.1c0.1,0.1-0.2-0.2-0.1-0.1l0.2,0.3c0.1,0.2,0.2,0.4,0.4,0.6
						s0.2,0.4,0.1,0.2s0,0,0,0c0,0.1,0.1,0.1,0.1,0.2c0.1,0.2,0.1,0.4,0.2,0.6c0,0.1,0,0.2,0.1,0.4s0,0.3,0,0s0,0,0,0
						c0,0.2,0,0.5,0,0.7c0,0.2,0,0.2,0,0.4s0,0.1,0,0.2s0.1-0.4,0-0.1c-0.1,0.4,0,0.8,0.1,1.1c0.4,0.7,1.3,0.9,2,0.5
						c0.3-0.2,0.6-0.5,0.7-0.9c0.2-1.2,0.1-2.5-0.3-3.7s-1.1-2.3-2-3.1c-0.6-0.6-1.5-0.6-2.1,0S272.4,124,273,124.6L273,124.6
						L273,124.6z"/>
				</g>
			</g>
			<g>
				<g>
					<defs>
						<rect id="SVGID_72_" y="0" width="350" height="230"/>
					</defs>
					<clipPath id="SVGID_73_">
						<use xlink:href="#SVGID_72_"  style="overflow:visible;"/>
					</clipPath>
					<path class="st38" d="M214.3,145.6c-0.6,2.9,1,5.7,3.8,6.6c0.8,0.2,1.6-0.2,1.8-1s-0.2-1.6-1-1.8l-0.4-0.1l0.4,0.1
						c-0.2-0.1-0.5-0.2-0.7-0.4c-0.1,0-0.1-0.1-0.2-0.1c0.4,0.3,0.2,0.1,0.1,0.1l-0.3-0.3c0-0.1-0.2-0.2-0.3-0.3s0.2,0.3,0.1,0.1
						l-0.1-0.2c-0.1-0.2-0.3-0.5-0.4-0.7l0.1,0.4c-0.1-0.3-0.2-0.7-0.3-1.1l0.1,0.4c0-0.3,0-0.7,0-1l-0.1,0.4c0-0.1,0-0.2,0.1-0.3
						c0.2-0.8-0.2-1.6-1-1.8S214.5,144.8,214.3,145.6L214.3,145.6L214.3,145.6z"/>
				</g>
			</g>
			<g>
				<g>
					<defs>
						<rect id="SVGID_74_" y="0" width="350" height="230"/>
					</defs>
					<clipPath id="SVGID_75_">
						<use xlink:href="#SVGID_74_"  style="overflow:visible;"/>
					</clipPath>
					<path class="st39" d="M226.5,113.7c-0.8,0.1-1.5,0.4-2.1,0.8c-0.7,0.4-1.3,0.8-1.8,1.4c-0.3,0.3-0.4,0.6-0.4,1s0.2,0.7,0.4,1
						c0.3,0.3,0.6,0.4,1,0.4s0.7-0.2,1-0.4c0.2-0.3,0.5-0.5,0.8-0.7l-0.3,0.2c0.4-0.3,0.8-0.5,1.2-0.7l-0.4,0.1
						c0.4-0.2,0.8-0.3,1.3-0.3c0.4-0.1,0.7-0.3,0.9-0.7c0.4-0.7,0.2-1.6-0.5-2l0,0l-0.4-0.2C226.9,113.6,226.6,113.6,226.5,113.7
						L226.5,113.7z"/>
				</g>
			</g>
			<g>
				<g>
					<defs>
						<rect id="SVGID_76_" y="0" width="350" height="230"/>
					</defs>
					<clipPath id="SVGID_77_">
						<use xlink:href="#SVGID_76_"  style="overflow:visible;"/>
					</clipPath>
					<path class="st40" d="M268.5,170.5c0,0.1,0,0.1,0,0.2v-0.4c0.1,0.4,0.1,0.8,0,1.1V171c0,0.4-0.2,0.7-0.3,1.1l0.1-0.4
						c-0.1,0.3-0.3,0.7-0.5,0.9l0.2-0.3c-0.1,0.1-0.1,0.2-0.2,0.3c-0.3,0.3-0.4,0.6-0.4,1s0.2,0.7,0.4,1c0.3,0.3,0.6,0.4,1,0.4
						s0.8-0.2,1-0.4c1.2-1.4,1.8-3.2,1.4-5c-0.1-0.4-0.3-0.7-0.7-0.9c-0.3-0.2-0.7-0.2-1.1-0.1c-0.4,0.1-0.7,0.3-0.9,0.7
						C268.5,169.7,268.4,170.1,268.5,170.5L268.5,170.5z"/>
				</g>
			</g>
			<g>
				<g>
					<defs>
						<rect id="SVGID_78_" y="0" width="350" height="230"/>
					</defs>
					<clipPath id="SVGID_79_">
						<use xlink:href="#SVGID_78_"  style="overflow:visible;"/>
					</clipPath>
					<path class="st41" d="M213.4,161.5c-0.4,0.7-0.7,1.4-1.1,2.2c-0.1,0.2-0.2,0.3-0.2,0.5s0,0.4,0,0.6c0.1,0.4,0.3,0.7,0.7,0.9
						c0.3,0.2,0.8,0.3,1.1,0.1c0.4-0.1,0.7-0.3,0.9-0.7l1.1-2.1c0.1-0.2,0.2-0.4,0.2-0.6c0.1-0.2,0.1-0.4,0-0.6
						c-0.1-0.4-0.3-0.7-0.7-0.9C214.7,160.6,213.8,160.8,213.4,161.5L213.4,161.5z"/>
				</g>
			</g>
			<g>
				<g>
					<defs>
						<rect id="SVGID_80_" y="0" width="350" height="230"/>
					</defs>
					<clipPath id="SVGID_81_">
						<use xlink:href="#SVGID_80_"  style="overflow:visible;"/>
					</clipPath>
					<path class="st42" d="M77.8,153.6l1,3.6c0.1,0.4,0.3,0.7,0.7,0.9c0.3,0.2,0.8,0.2,1.1,0.1c0.8-0.2,1.2-1,1-1.8
						c-0.3-1.2-0.7-2.4-1-3.6c-0.1-0.4-0.3-0.7-0.7-0.9c-0.7-0.4-1.6-0.2-2,0.5C77.7,152.8,77.6,153.2,77.8,153.6L77.8,153.6z"/>
				</g>
			</g>
			<g>
				<g>
					<defs>
						<rect id="SVGID_82_" y="0" width="350" height="230"/>
					</defs>
					<clipPath id="SVGID_83_">
						<use xlink:href="#SVGID_82_"  style="overflow:visible;"/>
					</clipPath>
					<path class="st43" d="M135.6,143l0.2,0.1C136,143.2,135.7,143,135.6,143c0.1,0,0.4,0.2,0.4,0.2l0.2,0.1
						c0.1,0.1,0.2,0.2-0.1-0.1c0.1,0.1,0.2,0.2,0.3,0.3s0.2,0.2,0.3,0.3l-0.1-0.2l0.1,0.1l0.1,0.1l0.2,0.4c0,0.1,0.1,0.3,0,0
						s0,0,0,0c0.1,0.2,0.2,0.5,0.2,0.7c0.1,0.3,0-0.4,0-0.1c0,0.1,0,0.1,0,0.2c0,0.1,0,0.3,0,0.4c0,0.1,0,0.1,0,0.2
						c0,0,0.1-0.5,0-0.1c0,0.1,0,0.3-0.1,0.4c0,0,0,0.2-0.1,0.2s0.2-0.4,0.1-0.1s-0.1,0.2-0.2,0.4c-0.4,0.7-0.2,1.6,0.5,2
						s1.6,0.2,2-0.5c1.5-2.5,0.6-5.8-2-7.3c-0.3-0.2-0.6-0.3-1-0.4c-0.8-0.2-1.6,0.2-1.8,1C134.3,141.9,134.7,142.7,135.6,143
						L135.6,143L135.6,143z"/>
				</g>
			</g>
			<g>
				<g>
					<defs>
						<rect id="SVGID_84_" y="0" width="350" height="230"/>
					</defs>
					<clipPath id="SVGID_85_">
						<use xlink:href="#SVGID_84_"  style="overflow:visible;"/>
					</clipPath>
					<path class="st44" d="M127.6,114c0.1,0,0.1,0,0.2,0.1C127.7,114.1,127.5,114,127.6,114c0.3,0.2,0.3,0.2,0.5,0.3l0.2,0.1
						c0.1,0,0.2,0.2,0,0s0,0,0,0l0.2,0.2c0.1,0.1,0.2,0.2,0.3,0.3c0.1,0.1,0.1,0.1,0.1,0.2s-0.2-0.3-0.1-0.1
						c0.2,0.2,0.3,0.5,0.4,0.7c0,0,0,0.1,0.1,0.2c-0.2-0.3-0.1-0.2,0-0.1s0.1,0.2,0.1,0.4s0.1,0.3,0.1,0.4v0.2c-0.1-0.4,0-0.2,0-0.1
						s0,0.2,0,0.4c0,0.1,0,0.3,0,0.4c0-0.1,0.1-0.4,0-0.1v0.2c0,0.2-0.1,0.3-0.1,0.4c-0.2,0.8,0.2,1.6,1,1.8c0.8,0.2,1.6-0.2,1.8-1
						c0.9-3.1-0.8-6.4-3.8-7.5c-0.8-0.2-1.6,0.2-1.8,1C126.3,113,126.8,113.8,127.6,114L127.6,114z"/>
				</g>
			</g>
			<g>
				<g>
					<defs>
						<rect id="SVGID_86_" y="0" width="350" height="230"/>
					</defs>
					<clipPath id="SVGID_87_">
						<use xlink:href="#SVGID_86_"  style="overflow:visible;"/>
					</clipPath>
					<path class="st45" d="M119.1,152.2c0.1,0.1,0.3,0.1,0.4,0.2L119.1,152.2c0.2,0.1,0.4,0.3,0.5,0.4l-0.2-0.3
						c0.1,0.2,0.3,0.4,0.3,0.6l-0.2-0.4c0.1,0.2,0.2,0.5,0.2,0.7c0-0.1,0-0.3,0-0.4c0,0.2,0,0.5,0,0.7v-0.4c0,0.2-0.1,0.4-0.2,0.6
						l0.2-0.4c-0.1,0.2-0.2,0.3-0.3,0.5c-0.2,0.3-0.3,0.8-0.2,1.1c0.2,0.8,1,1.2,1.8,1l0.3-0.1c0.2-0.1,0.4-0.3,0.5-0.5
						c1.2-1.9,0.7-4.3-1.2-5.5c-0.1-0.1-0.2-0.1-0.2-0.1c-0.3-0.2-0.8-0.2-1.1-0.1c-0.8,0.2-1.2,1-1,1.8
						C118.5,151.7,118.7,152,119.1,152.2L119.1,152.2z"/>
				</g>
			</g>
			<g>
				<g>
					<defs>
						<rect id="SVGID_88_" y="0" width="350" height="230"/>
					</defs>
					<clipPath id="SVGID_89_">
						<use xlink:href="#SVGID_88_"  style="overflow:visible;"/>
					</clipPath>
					<path class="st46" d="M115.5,170.8c-0.1,0.3-0.1,0.5-0.2,0.8l0.2-0.4c-0.1,0.4-0.3,0.7-0.6,1l0.2-0.3c-0.2,0.3-0.4,0.5-0.7,0.7
						c-0.6,0.6-0.6,1.5,0,2.1l0,0c0.3,0.3,0.6,0.4,1,0.4l0.4-0.1c0.2-0.1,0.5-0.2,0.7-0.4c0.5-0.4,0.9-0.9,1.2-1.4
						c0.2-0.3,0.3-0.7,0.5-1c0.1-0.2,0.2-0.5,0.2-0.7c0.1-0.4,0-0.8-0.2-1.1s-0.5-0.6-0.9-0.7C116.5,169.6,115.7,170,115.5,170.8
						L115.5,170.8z"/>
				</g>
			</g>
			<g>
				<g>
					<defs>
						<rect id="SVGID_90_" y="0" width="350" height="230"/>
					</defs>
					<clipPath id="SVGID_91_">
						<use xlink:href="#SVGID_90_"  style="overflow:visible;"/>
					</clipPath>
					<path class="st47" d="M132.7,160.3l0.2-0.1l-0.4,0.1c0.3-0.1,0.6-0.2,0.9-0.2l-0.4,0.1c0.3,0,0.7,0,1,0c0.2,0,0.4,0,0.6-0.1
						c0.2-0.1,0.3-0.2,0.5-0.3c0.3-0.3,0.4-0.6,0.4-1s-0.2-0.7-0.4-1l-0.3-0.2c-0.2-0.1-0.5-0.2-0.7-0.2c-0.5-0.1-1,0-1.5,0.1
						s-1,0.3-1.4,0.5c-0.2,0.1-0.3,0.2-0.4,0.4c-0.1,0.1-0.2,0.3-0.3,0.5s-0.1,0.4,0,0.6c0,0.2,0.1,0.4,0.2,0.5
						c0.2,0.3,0.5,0.6,0.9,0.7l0.4,0.1C132.3,160.6,132.5,160.5,132.7,160.3L132.7,160.3z"/>
				</g>
			</g>
			<g>
				<g>
					<defs>
						<rect id="SVGID_92_" y="0" width="350" height="230"/>
					</defs>
					<clipPath id="SVGID_93_">
						<use xlink:href="#SVGID_92_"  style="overflow:visible;"/>
					</clipPath>
					<path class="st48" d="M295.6,118.8c0.1,0.1,0.2,0.1,0.3,0l16.4-14.4c0.1-0.1,0.1-0.2,0.1-0.3c0-0.1-0.1-0.3-0.2-0.4l-6.2-6
						c-0.2-0.2-0.4-0.2-0.6-0.1l0,0l-13.9,15.6c-0.1,0.2-0.1,0.4,0.1,0.6l3.6,4.7C295.3,118.7,295.4,118.8,295.6,118.8z"/>
				</g>
			</g>
			<g>
				<g>
					<defs>
						<rect id="SVGID_94_" y="0" width="350" height="230"/>
					</defs>
					<clipPath id="SVGID_95_">
						<use xlink:href="#SVGID_94_"  style="overflow:visible;"/>
					</clipPath>
					<path class="st49" d="M295.7,121.3c-0.3,0-0.5,0-0.8-0.1c-0.6-0.2-1.2-0.6-1.6-1.1l-3.6-4.7c-0.9-1.1-0.8-2.6,0-3.7l14-15.7
						c1.1-1.1,2.9-1.1,4,0l6.2,5.9c0.5,0.5,0.8,1.1,0.9,1.7c0.2,1-0.2,2-0.9,2.6l-16.4,14.4C297,121.1,296.4,121.3,295.7,121.3z
						 M297.2,117L297.2,117z M294.6,113.6l1.4,1.8l13-11.4l-3.1-3L294.6,113.6z M310.7,102.5L310.7,102.5z"/>
				</g>
			</g>
			<g>
				<g>
					<defs>
						<rect id="SVGID_96_" y="0" width="350" height="230"/>
					</defs>
					<clipPath id="SVGID_97_">
						<use xlink:href="#SVGID_96_"  style="overflow:visible;"/>
					</clipPath>
					<path class="st50" d="M299.4,132.2c0.1,0.1,0.2,0.1,0.3,0.1l19.7-3.1c0.1,0,0.2-0.1,0.2-0.2c0-0.1,0-0.3,0-0.4l-2.6-8.2
						c-0.1-0.2-0.3-0.4-0.4-0.4l0,0l-18.1,5.5c-0.1,0.1-0.2,0.3-0.2,0.5l1,5.9C299.3,132,299.3,132.1,299.4,132.2z"/>
				</g>
			</g>
			<g>
				<g>
					<defs>
						<rect id="SVGID_98_" y="0" width="350" height="230"/>
					</defs>
					<clipPath id="SVGID_99_">
						<use xlink:href="#SVGID_98_"  style="overflow:visible;"/>
					</clipPath>
					<path class="st51" d="M299.6,134.8c-0.8,0-1.5-0.3-2.1-0.9c-0.4-0.4-0.7-1-0.8-1.6l-1-5.9c-0.3-1.4,0.5-2.8,1.9-3.3l18.3-5.6
						c1.4-0.3,2.8,0.6,3.3,2l2.6,8.2c0.2,0.6,0.2,1.3,0,1.9c-0.3,1-1.2,1.8-2.2,1.9l-19.6,3.1C299.9,134.8,299.8,134.8,299.6,134.8z
						 M299.3,129.9L299.3,129.9z M301,127.3l0.4,2.3l15.1-2.4l-1.4-4.1L301,127.3z M319,126.7L319,126.7L319,126.7z"/>
				</g>
			</g>
			<g>
				<g>
					<defs>
						<rect id="SVGID_100_" y="0" width="350" height="230"/>
					</defs>
					<clipPath id="SVGID_101_">
						<use xlink:href="#SVGID_100_"  style="overflow:visible;"/>
					</clipPath>
					<path class="st52" d="M301.2,145.9c0,0.1,0.1,0.2,0.2,0.2l18.7,8.4c0.1,0,0.2,0,0.3-0.1c0.1-0.1,0.2-0.2,0.2-0.3l1.9-8.2
						c0.1-0.2,0-0.5-0.2-0.5l0,0l-18.5-5.6c-0.1-0.1-0.3,0.1-0.4,0.3l-2.1,5.4C301.2,145.6,301.2,145.8,301.2,145.9z"/>
				</g>
			</g>
			<g>
				<g>
					<defs>
						<rect id="SVGID_102_" y="0" width="350" height="230"/>
					</defs>
					<clipPath id="SVGID_103_">
						<use xlink:href="#SVGID_102_"  style="overflow:visible;"/>
					</clipPath>
					<path class="st53" d="M320.2,157.1c-0.4,0-0.8-0.1-1.1-0.3l-18.7-8.4c-0.8-0.4-1.4-1.1-1.6-2c-0.1-0.6-0.1-1.2,0.2-1.8l2.1-5.4
						c0.5-1.4,2-2.2,3.4-1.8l18.7,5.7c1.3,0.5,2,2,1.7,3.4l-1.9,8.2c-0.1,0.7-0.5,1.2-1,1.7C321.5,156.9,320.8,157.1,320.2,157.1z
						 M321,152.3L321,152.3L321,152.3z M304.2,144.7l14.5,6.5l1-4l-14.7-4.5L304.2,144.7z M320.1,145.4L320.1,145.4z M302.4,143.9
						L302.4,143.9z"/>
				</g>
			</g>
			<g>
				<g>
					<defs>
						<rect id="SVGID_104_" y="0" width="350" height="230"/>
					</defs>
					<clipPath id="SVGID_105_">
						<use xlink:href="#SVGID_104_"  style="overflow:visible;"/>
					</clipPath>
					<path class="st54" d="M293.3,116.8c0.1,0,0.2,0,0.3-0.1l16.4-14.4c0.1-0.1,0.1-0.2,0.1-0.3c0-0.1-0.1-0.3-0.2-0.4l-6.2-5.9
						c-0.2-0.2-0.4-0.2-0.5-0.1l0,0l-13.9,15.6c-0.1,0.2-0.1,0.4,0.1,0.6l3.6,4.7C293.1,116.6,293.2,116.7,293.3,116.8z"/>
				</g>
			</g>
			<g>
				<g>
					<defs>
						<rect id="SVGID_106_" y="0" width="350" height="230"/>
					</defs>
					<clipPath id="SVGID_107_">
						<use xlink:href="#SVGID_106_"  style="overflow:visible;"/>
					</clipPath>
					<path class="st55" d="M293.5,119.2c-0.3,0-0.6,0-0.8-0.1l0,0c-0.6-0.2-1.2-0.6-1.6-1.1l-3.6-4.7c-0.9-1.1-0.9-2.6,0-3.7
						l14-15.7c1.1-1.1,2.9-1.1,4,0l6.2,5.9c0.5,0.5,0.8,1.1,0.9,1.7c0.2,1-0.2,2-0.9,2.6l-16.4,14.3
						C294.7,119,294.1,119.2,293.5,119.2z M292,114.8L292,114.8z M292.3,111.6l1.4,1.8l13-11.4l-3.1-3L292.3,111.6z M308.2,103.5
						L308.2,103.5z M308.4,100.5L308.4,100.5L308.4,100.5z"/>
				</g>
			</g>
			<g>
				<g>
					<defs>
						<rect id="SVGID_108_" y="0" width="350" height="230"/>
					</defs>
					<clipPath id="SVGID_109_">
						<use xlink:href="#SVGID_108_"  style="overflow:visible;"/>
					</clipPath>
					<path class="st56" d="M297.2,130.2c0.1,0.1,0.2,0.1,0.3,0.1l19.7-3.1c0.1,0,0.2-0.1,0.2-0.2s0-0.3,0-0.4l-2.6-8.2
						c-0.1-0.2-0.3-0.4-0.4-0.4l0,0l-18.1,5.5c-0.1,0-0.2,0.3-0.2,0.5l1,5.9C297,129.9,297.1,130.1,297.2,130.2z"/>
				</g>
			</g>
			<g>
				<g>
					<defs>
						<rect id="SVGID_110_" y="0" width="350" height="230"/>
					</defs>
					<clipPath id="SVGID_111_">
						<use xlink:href="#SVGID_110_"  style="overflow:visible;"/>
					</clipPath>
					<path class="st57" d="M297.4,132.8c-0.8,0-1.5-0.3-2.1-0.9c-0.4-0.5-0.7-1-0.8-1.6l-1-5.9c-0.3-1.4,0.5-2.8,1.9-3.3l18.3-5.6
						c1.5-0.3,2.9,0.6,3.3,2l2.6,8.2c0.2,0.6,0.2,1.3,0,1.9c-0.3,1-1.2,1.8-2.2,1.9l-19.6,3.1L297.4,132.8z M298.7,125.3l0.4,2.3
						l15.1-2.4l-1.3-4.2L298.7,125.3z M316.7,124.7L316.7,124.7z M312.3,119.1L312.3,119.1z"/>
				</g>
			</g>
			<g>
				<g>
					<defs>
						<rect id="SVGID_112_" y="0" width="350" height="230"/>
					</defs>
					<clipPath id="SVGID_113_">
						<use xlink:href="#SVGID_112_"  style="overflow:visible;"/>
					</clipPath>
					<path class="st58" d="M299,143.9c0,0.1,0.1,0.2,0.2,0.2l18.7,8.4c0.1,0,0.2,0,0.3-0.1c0.1-0.1,0.2-0.2,0.2-0.3l1.9-8.2
						c0.1-0.2,0-0.4-0.2-0.5l0,0l-18.5-5.6c-0.2,0-0.3,0.1-0.4,0.3l-2.2,5.4C299,143.6,299,143.7,299,143.9z"/>
				</g>
			</g>
			<g>
				<g>
					<defs>
						<rect id="SVGID_114_" y="0" width="350" height="230"/>
					</defs>
					<clipPath id="SVGID_115_">
						<use xlink:href="#SVGID_114_"  style="overflow:visible;"/>
					</clipPath>
					<path class="st59" d="M317.9,155c-0.4,0-0.8-0.1-1.1-0.3l-18.7-8.4c-0.8-0.4-1.4-1.1-1.6-2c-0.1-0.6-0.1-1.2,0.2-1.8l2.1-5.4
						c0.5-1.4,2-2.2,3.5-1.8L321,141c1.3,0.6,2.1,2,1.7,3.4l-1.9,8.2c-0.1,0.7-0.5,1.2-1,1.7C319.2,154.8,318.6,155,317.9,155z
						 M318.8,150.2h0.1H318.8z M302,142.7l14.5,6.5l0.9-4l-14.7-4.4L302,142.7z M301.3,144.4L301.3,144.4z M300.2,141.8L300.2,141.8
						z M300.8,140.1L300.8,140.1z M303.4,139L303.4,139z"/>
				</g>
			</g>
			<g>
				<g>
					<defs>
						<rect id="SVGID_116_" y="0" width="350" height="230"/>
					</defs>
					<clipPath id="SVGID_117_">
						<use xlink:href="#SVGID_116_"  style="overflow:visible;"/>
					</clipPath>
					
						<linearGradient id="SVGID_118_" gradientUnits="userSpaceOnUse" x1="1811.5675" y1="1089.7147" x2="1834.2146" y2="1089.7147" gradientTransform="matrix(0.9642 -0.2651 -0.2651 -0.9642 -1169.6304 1639.9125)">
						<stop  offset="0" style="stop-color:#ED954F"/>
						<stop  offset="0.21" style="stop-color:#F28238"/>
						<stop  offset="0.53" style="stop-color:#F96A19"/>
						<stop  offset="0.81" style="stop-color:#FD5B07"/>
						<stop  offset="1" style="stop-color:#FF5600"/>
					</linearGradient>
					<path class="st60" d="M293.3,116.8c0.1,0,0.2,0,0.3-0.1l16.4-14.4c0.1-0.1,0.1-0.2,0.1-0.3c0-0.1-0.1-0.3-0.2-0.4l-6.2-5.9
						c-0.2-0.2-0.4-0.2-0.5-0.1l0,0l-13.9,15.6c-0.1,0.2-0.1,0.4,0.1,0.6l3.6,4.7C293.1,116.6,293.2,116.7,293.3,116.8z"/>
				</g>
			</g>
			<g>
				<g>
					<defs>
						<rect id="SVGID_119_" y="0" width="350" height="230"/>
					</defs>
					<clipPath id="SVGID_120_">
						<use xlink:href="#SVGID_119_"  style="overflow:visible;"/>
					</clipPath>
					
						<linearGradient id="SVGID_121_" gradientUnits="userSpaceOnUse" x1="-1153.1531" y1="-2542.2654" x2="-1130.0531" y2="-2542.2654" gradientTransform="matrix(0.9 0.27 0.21 -0.96 1867.1732 -2008.2059)">
						<stop  offset="0" style="stop-color:#FFA94F"/>
						<stop  offset="0.13" style="stop-color:#FB8F41"/>
						<stop  offset="0.48" style="stop-color:#F24E1E"/>
						<stop  offset="0.74" style="stop-color:#EC2508"/>
						<stop  offset="0.87" style="stop-color:#EA1600"/>
					</linearGradient>
					<path class="st61" d="M297.2,130.2c0.1,0.1,0.2,0.1,0.3,0.1l19.7-3.1c0.1,0,0.2-0.1,0.2-0.2s0-0.3,0-0.4l-2.6-8.2
						c-0.1-0.2-0.3-0.4-0.4-0.4l0,0l-18.1,5.5c-0.1,0-0.2,0.3-0.2,0.5l1,5.9C297,129.9,297.1,130.1,297.2,130.2z"/>
				</g>
			</g>
			<g>
				<g>
					<defs>
						<rect id="SVGID_122_" y="0" width="350" height="230"/>
					</defs>
					<clipPath id="SVGID_123_">
						<use xlink:href="#SVGID_122_"  style="overflow:visible;"/>
					</clipPath>
					
						<linearGradient id="SVGID_124_" gradientUnits="userSpaceOnUse" x1="-1798.3225" y1="-7214.1064" x2="-1774.4224" y2="-7214.1064" gradientTransform="matrix(0.61 0.71 0.69 -0.7 6396.5767 -3615.0771)">
						<stop  offset="0" style="stop-color:#FFA94F"/>
						<stop  offset="0.13" style="stop-color:#FB8F41"/>
						<stop  offset="0.48" style="stop-color:#F24E1E"/>
						<stop  offset="0.74" style="stop-color:#EC2508"/>
						<stop  offset="0.87" style="stop-color:#EA1600"/>
					</linearGradient>
					<path class="st62" d="M299,143.9c0,0.1,0.1,0.2,0.2,0.2l18.7,8.4c0.1,0,0.2,0,0.3-0.1c0.1-0.1,0.2-0.2,0.2-0.3l1.9-8.2
						c0.1-0.2,0-0.4-0.2-0.5l0,0l-18.5-5.6c-0.2,0-0.3,0.1-0.4,0.3l-2.2,5.4C299,143.6,299,143.7,299,143.9z"/>
				</g>
			</g>
			<g>
				<g>
					<defs>
						<rect id="SVGID_125_" y="0" width="350" height="230"/>
					</defs>
					<clipPath id="SVGID_126_">
						<use xlink:href="#SVGID_125_"  style="overflow:visible;"/>
					</clipPath>
					<path class="st63" d="M53.7,166.8c-0.1,0-0.2,0-0.3,0.1l-15.6,14.5c-0.1,0.1-0.1,0.2-0.1,0.3s0.1,0.3,0.2,0.4l6,5.9
						c0.2,0.2,0.4,0.2,0.5,0.1l0,0l13.2-15.7c0.1-0.2,0.1-0.4-0.1-0.6L54,167C53.9,166.9,53.8,166.8,53.7,166.8z"/>
				</g>
			</g>
			<g>
				<g>
					<defs>
						<rect id="SVGID_127_" y="0" width="350" height="230"/>
					</defs>
					<clipPath id="SVGID_128_">
						<use xlink:href="#SVGID_127_"  style="overflow:visible;"/>
					</clipPath>
					<path class="st64" d="M44.2,190.5c-0.8,0-1.5-0.3-2.1-0.9l-6-5.9c-0.5-0.5-0.8-1-0.9-1.7c-0.2-1,0.2-1.9,0.9-2.6L51.7,165
						c0.7-0.7,1.8-0.9,2.7-0.6c0.6,0.2,1.2,0.6,1.6,1.1l3.5,4.7c0.9,1.1,0.9,2.6,0,3.6l-13.3,15.8C45.7,190.1,45,190.4,44.2,190.5
						L44.2,190.5L44.2,190.5z M41.1,181.6l3,2.9L54.6,172l-1.3-1.7L41.1,181.6z M39.5,183.1L39.5,183.1L39.5,183.1z M55.1,168.6
						L55.1,168.6z"/>
				</g>
			</g>
			<g>
				<g>
					<defs>
						<rect id="SVGID_129_" y="0" width="350" height="230"/>
					</defs>
					<clipPath id="SVGID_130_">
						<use xlink:href="#SVGID_129_"  style="overflow:visible;"/>
					</clipPath>
					<path class="st65" d="M49.8,153.3c-0.1-0.1-0.2-0.1-0.3-0.1l-18.9,3.2c-0.1,0-0.1,0.1-0.2,0.2c0,0.1,0,0.3,0,0.4l2.6,8.2
						c0.1,0.2,0.2,0.4,0.4,0.4l0,0l17.3-5.6c0.2,0,0.2-0.3,0.2-0.5l-1-5.9C50,153.5,49.9,153.4,49.8,153.3z"/>
				</g>
			</g>
			<g>
				<g>
					<defs>
						<rect id="SVGID_131_" y="0" width="350" height="230"/>
					</defs>
					<clipPath id="SVGID_132_">
						<use xlink:href="#SVGID_131_"  style="overflow:visible;"/>
					</clipPath>
					<path class="st66" d="M33.5,168.1c-1.3,0-2.4-0.9-2.7-2.1l-2.6-8.2c-0.2-0.6-0.2-1.2,0-1.8c0.3-1,1.1-1.8,2.2-2l18.8-3.2
						c0.9-0.2,1.9,0.2,2.5,0.9c0.4,0.4,0.6,1,0.7,1.6l1,5.9c0.3,1.4-0.5,2.8-1.8,3.3L34.2,168C34,168.1,33.8,168.1,33.5,168.1z
						 M33.6,158.4l1.3,4.2l13.4-4.3l-0.4-2.3L33.6,158.4z M31.2,158.8h-0.1H31.2z M50,155.6L50,155.6z"/>
				</g>
			</g>
			<g>
				<g>
					<defs>
						<rect id="SVGID_133_" y="0" width="350" height="230"/>
					</defs>
					<clipPath id="SVGID_134_">
						<use xlink:href="#SVGID_133_"  style="overflow:visible;"/>
					</clipPath>
					<path class="st67" d="M47.9,139.6c0-0.1-0.1-0.2-0.2-0.2l-18-8.4c-0.1,0-0.2,0-0.3,0.1c-0.1,0.1-0.2,0.2-0.2,0.4l-1.8,8.2
						c0,0.2,0,0.5,0.2,0.6l0,0l17.8,5.6c0.2,0,0.3-0.1,0.4-0.3l2-5.4C48,139.8,48,139.7,47.9,139.6z"/>
				</g>
			</g>
			<g>
				<g>
					<defs>
						<rect id="SVGID_135_" y="0" width="350" height="230"/>
					</defs>
					<clipPath id="SVGID_136_">
						<use xlink:href="#SVGID_135_"  style="overflow:visible;"/>
					</clipPath>
					<path class="st68" d="M45.6,148.2c-0.3,0-0.6,0-0.8-0.1l-18-5.7c-1.3-0.5-2.1-2-1.7-3.4l1.8-8.2c0.1-0.6,0.5-1.2,1-1.7
						c0.8-0.7,2-0.9,3-0.4l18,8.4c0.8,0.4,1.4,1.1,1.5,2l0,0c0.1,0.6,0.1,1.2-0.1,1.7l-2,5.4C47.9,147.4,46.8,148.1,45.6,148.2z
						 M30.3,138.3l14,4.4l0.7-1.9l-13.8-6.5L30.3,138.3z M28.6,133.1L28.6,133.1L28.6,133.1z"/>
				</g>
			</g>
			<g>
				<g>
					<defs>
						<rect id="SVGID_137_" y="0" width="350" height="230"/>
					</defs>
					<clipPath id="SVGID_138_">
						<use xlink:href="#SVGID_137_"  style="overflow:visible;"/>
					</clipPath>
					<path class="st69" d="M55.8,168.8c-0.1,0-0.2,0-0.3,0.1l-15.6,14.5c-0.1,0.1-0.1,0.2-0.1,0.3s0.1,0.3,0.2,0.4l6,5.9
						c0.2,0.2,0.4,0.2,0.5,0.1l0,0l13.2-15.7c0.1-0.2,0.1-0.4-0.1-0.6l-3.5-4.7C56.1,168.9,56,168.9,55.8,168.8z"/>
				</g>
			</g>
			<g>
				<g>
					<defs>
						<rect id="SVGID_139_" y="0" width="350" height="230"/>
					</defs>
					<clipPath id="SVGID_140_">
						<use xlink:href="#SVGID_139_"  style="overflow:visible;"/>
					</clipPath>
					<path class="st70" d="M46.4,192.6c-0.8,0-1.5-0.3-2.1-0.9l-6-5.9c-0.5-0.5-0.8-1.1-0.9-1.7c-0.2-1,0.2-1.9,0.9-2.6L53.8,167
						c0.7-0.7,1.8-0.9,2.7-0.6c0.6,0.2,1.2,0.6,1.6,1.1l3.5,4.7c0.8,1.1,0.8,2.6,0,3.6l-13.3,15.8C47.8,192.3,47.2,192.6,46.4,192.6
						L46.4,192.6z M43.2,183.7l3,2.9L56.8,174l-1.3-1.7L43.2,183.7z M41.7,185.1L41.7,185.1L41.7,185.1z"/>
				</g>
			</g>
			<g>
				<g>
					<defs>
						<rect id="SVGID_141_" y="0" width="350" height="230"/>
					</defs>
					<clipPath id="SVGID_142_">
						<use xlink:href="#SVGID_141_"  style="overflow:visible;"/>
					</clipPath>
					<path class="st71" d="M52,155.4c-0.1-0.1-0.2-0.1-0.3-0.1l-18.9,3.2c-0.1,0-0.2,0.1-0.2,0.2c0,0.1,0,0.3,0,0.4l2.6,8.2
						c0.1,0.2,0.3,0.4,0.4,0.4l0,0l17.3-5.6c0.2,0,0.2-0.3,0.2-0.5l-1-5.9C52.1,155.6,52.1,155.5,52,155.4z"/>
				</g>
			</g>
			<g>
				<g>
					<defs>
						<rect id="SVGID_143_" y="0" width="350" height="230"/>
					</defs>
					<clipPath id="SVGID_144_">
						<use xlink:href="#SVGID_143_"  style="overflow:visible;"/>
					</clipPath>
					<path class="st72" d="M35.7,170.2c-1.2-0.1-2.3-0.9-2.7-2.1l-2.6-8.2c-0.2-0.6-0.2-1.2,0-1.8c0.3-1,1.2-1.8,2.2-2l18.8-3.2
						c0.9-0.2,1.9,0.2,2.5,0.9l0,0c0.4,0.4,0.6,1,0.7,1.5l1,5.9c0.3,1.4-0.5,2.8-1.8,3.3l-17.6,5.7C36,170.1,35.8,170.2,35.7,170.2z
						 M37.7,166.6L37.7,166.6z M35.7,160.5l1.3,4.2l13.4-4.3L50,158L35.7,160.5z M33.4,160.9L33.4,160.9L33.4,160.9z M35,158.3
						L35,158.3z M52.1,157.7L52.1,157.7z"/>
				</g>
			</g>
			<g>
				<g>
					<defs>
						<rect id="SVGID_145_" y="0" width="350" height="230"/>
					</defs>
					<clipPath id="SVGID_146_">
						<use xlink:href="#SVGID_145_"  style="overflow:visible;"/>
					</clipPath>
					<path class="st73" d="M50.1,141.6c0-0.1-0.1-0.2-0.2-0.2L31.8,133c-0.1,0-0.2,0-0.3,0.1c-0.1,0.1-0.2,0.2-0.2,0.4l-1.8,8.2
						c0,0.2,0,0.5,0.2,0.5l0,0l17.8,5.6c0.2,0.1,0.3-0.1,0.4-0.3l2-5.4C50.1,141.9,50.1,141.7,50.1,141.6z"/>
				</g>
			</g>
			<g>
				<g>
					<defs>
						<rect id="SVGID_147_" y="0" width="350" height="230"/>
					</defs>
					<clipPath id="SVGID_148_">
						<use xlink:href="#SVGID_147_"  style="overflow:visible;"/>
					</clipPath>
					<path class="st74" d="M47.8,150.2c-0.3,0-0.5,0-0.8-0.1l-18-5.7c-1.3-0.6-2-2-1.7-3.4l1.7-8.2c0.1-0.7,0.5-1.2,1-1.7
						c0.8-0.7,2-0.9,3-0.4l18,8.4c0.8,0.4,1.4,1.1,1.5,2c0.1,0.6,0.1,1.2-0.1,1.7l-2,5.4C50,149.4,49,150.2,47.8,150.2z M32.4,140.4
						l14,4.4l0.7-1.9l-13.8-6.5L32.4,140.4z M48.9,143.6L48.9,143.6z M30.8,135.2L30.8,135.2L30.8,135.2z"/>
				</g>
			</g>
			<g>
				<g>
					<defs>
						<rect id="SVGID_149_" y="0" width="350" height="230"/>
					</defs>
					<clipPath id="SVGID_150_">
						<use xlink:href="#SVGID_149_"  style="overflow:visible;"/>
					</clipPath>
					
						<linearGradient id="SVGID_151_" gradientUnits="userSpaceOnUse" x1="11573.1289" y1="-11746.2334" x2="11594.9268" y2="-11746.2334" gradientTransform="matrix(-0.9623 0.2721 0.2721 0.9623 14393.5303 8331.1416)">
						<stop  offset="0" style="stop-color:#ED954F"/>
						<stop  offset="0.21" style="stop-color:#F28238"/>
						<stop  offset="0.53" style="stop-color:#F96A19"/>
						<stop  offset="0.81" style="stop-color:#FD5B07"/>
						<stop  offset="1" style="stop-color:#FF5600"/>
					</linearGradient>
					<path class="st75" d="M55.8,168.8c-0.1,0-0.2,0-0.3,0.1l-15.6,14.5c-0.1,0.1-0.1,0.2-0.1,0.3s0.1,0.3,0.2,0.4l6,5.9
						c0.2,0.2,0.4,0.2,0.5,0.1l0,0l13.2-15.7c0.1-0.2,0.1-0.4-0.1-0.6l-3.5-4.7C56.1,168.9,56,168.9,55.8,168.8z"/>
				</g>
			</g>
			<g>
				<g>
					<defs>
						<rect id="SVGID_152_" y="0" width="350" height="230"/>
					</defs>
					<clipPath id="SVGID_153_">
						<use xlink:href="#SVGID_152_"  style="overflow:visible;"/>
					</clipPath>
					
						<linearGradient id="SVGID_154_" gradientUnits="userSpaceOnUse" x1="14544.7402" y1="-8391.7021" x2="14566.9707" y2="-8391.7021" gradientTransform="matrix(-0.9 -0.26 -0.21 0.96 11388.3574 12003.9766)">
						<stop  offset="0" style="stop-color:#FFA94F"/>
						<stop  offset="0.13" style="stop-color:#FB8F41"/>
						<stop  offset="0.48" style="stop-color:#F24E1E"/>
						<stop  offset="0.74" style="stop-color:#EC2508"/>
						<stop  offset="0.87" style="stop-color:#EA1600"/>
					</linearGradient>
					<path class="st76" d="M52,155.4c-0.1-0.1-0.2-0.1-0.3-0.1l-18.9,3.2c-0.1,0-0.2,0.1-0.2,0.2c0,0.1,0,0.3,0,0.4l2.6,8.2
						c0.1,0.2,0.3,0.4,0.4,0.4l0,0l17.3-5.6c0.2,0,0.2-0.3,0.2-0.5l-1-5.9C52.1,155.6,52.1,155.5,52,155.4z"/>
				</g>
			</g>
			<g>
				<g>
					<defs>
						<rect id="SVGID_155_" y="0" width="350" height="230"/>
					</defs>
					<clipPath id="SVGID_156_">
						<use xlink:href="#SVGID_155_"  style="overflow:visible;"/>
					</clipPath>
					
						<linearGradient id="SVGID_157_" gradientUnits="userSpaceOnUse" x1="15360.7969" y1="-3919.1968" x2="15384.3281" y2="-3919.1968" gradientTransform="matrix(-0.62 -0.7 -0.69 0.7 6867.4844 13647.0879)">
						<stop  offset="0" style="stop-color:#FFA94F"/>
						<stop  offset="0.13" style="stop-color:#FB8F41"/>
						<stop  offset="0.48" style="stop-color:#F24E1E"/>
						<stop  offset="0.74" style="stop-color:#EC2508"/>
						<stop  offset="0.87" style="stop-color:#EA1600"/>
					</linearGradient>
					<path class="st77" d="M50.1,141.6c0-0.1-0.1-0.2-0.2-0.2L31.8,133c-0.1,0-0.2,0-0.3,0.1c-0.1,0.1-0.2,0.2-0.2,0.4l-1.8,8.2
						c0,0.2,0,0.5,0.2,0.5l0,0l17.8,5.6c0.2,0.1,0.3-0.1,0.4-0.3l2-5.4C50.1,141.9,50.1,141.7,50.1,141.6z"/>
				</g>
			</g>
			<g>
				<g>
					<defs>
						<rect id="SVGID_158_" y="0" width="350" height="230"/>
					</defs>
					<clipPath id="SVGID_159_">
						<use xlink:href="#SVGID_158_"  style="overflow:visible;"/>
					</clipPath>
					<path class="st78" d="M219.9,87.1c-0.3-1.1-1.2-2-2.3-2.4l0,0c-1.2-0.5-2.3-1.1-3.3-1.8c0.9-3.9,1.4-7.9,1.4-11.9v-0.2h0.4
						c1.1-0.2,2-0.8,2.6-1.7c0.6-0.9,0.8-2,0.5-3.1l-1.8-6.8c-0.5-2.1-2.6-3.3-4.7-2.8c-0.1,0-0.1,0-0.2,0l-1.9,0.6
						c0.1-1.7-0.9-3.2-2.5-3.8l-4.2-1.6c-2-0.7-4.2,0.3-5,2.3V54c-0.2,0.5-0.3,1-0.5,1.4h-0.1l-0.1-0.5c-0.3-2-2.2-3.5-4.3-3.2
						l-4.2,0.5c-0.6-0.6-1.4-1-2.3-1.1l-3.8-0.4c-1.1-0.1-2.1,0.2-2.9,0.9c-0.6,0.5-1,1.2-1.2,1.9l-4.2,0.6
						c-1.7,0.2-3.1,1.6-3.3,3.4l-0.3,2.4c-2,0.5-3.2,2.5-2.8,4.5l0.6,3c0.2,0.8,0.6,1.5,1.1,2l-0.1,0.9c-0.1,0.6,0,1.1,0.2,1.7
						l-0.9,7.8c0,0.3,0,0.5,0,0.8c-0.3,0.7-0.4,1.4-0.2,2.2l0.7,3.7c0.1,0.8,0.5,1.5,1.1,2c-0.3,0.8-0.3,1.6-0.1,2.3l1.9,6.6
						c0.5,1.6,2,2.8,3.7,2.8h0.4c3.6-0.3,7.1-1.2,10.3-2.7c0.8,0.6,1.6,1.2,2.4,1.8c0.9,0.8,2.1,1,3.3,0.8c1.2-0.3,2.1-1,2.6-2.1
						l0.6-1.2l1.3,1.8c1.2,1.6,3.4,2,5.1,1c1.3-0.8,2.5-1.7,3.6-2.7c0.7,0.7,1.4,1.3,2.1,2c0.8,0.7,2,1.1,3.1,0.9
						c1.1-0.1,2.1-0.8,2.7-1.7l5.1-7.8C220,89.5,220.2,88.2,219.9,87.1z"/>
				</g>
			</g>
			<g>
				<g>
					<defs>
						<rect id="SVGID_160_" y="0" width="350" height="230"/>
					</defs>
					<clipPath id="SVGID_161_">
						<use xlink:href="#SVGID_160_"  style="overflow:visible;"/>
					</clipPath>
					<path class="st79" d="M267.9,91.4l-1-7.8c-0.1-1-0.7-1.9-1.5-2.6c-0.7-0.5-1.5-0.7-2.3-0.8c0.5-3,1-6.1,1.4-9.6
						c0-0.1,0-0.2,0-0.3c0.7-0.2,1.3-0.6,1.8-1.2c0.7-0.8,1-1.9,0.9-2.9l-1.1-7.9c-0.1-1-0.7-1.9-1.5-2.5s-1.9-0.9-2.9-0.7l-4.4,0.7
						l-0.1-1.2c-0.2-1.8-1.6-3.2-3.4-3.3l-5.4-0.6c-2-0.2-3.8,1.1-4.2,3l-0.9,4.4l-2.1,0.3c0.2-0.9,0.4-1.9,0.6-2.8
						c0.3-1.8-0.7-3.5-2.4-4.2l-4.6-1.8c-1-0.4-2.2-0.4-3.2,0.1s-1.7,1.4-2,2.5c-1.9,7.4-4.9,12.4-9.1,14.8
						c-1.6,0.9-2.3,2.9-1.6,4.7l3.6,9c0.3,0.7,0.8,1.3,1.5,1.8l-1.1,11.1c-0.1,1.1,0.3,2.2,1.1,3c0.7,0.7,1.7,1.1,2.6,1.2
						c0.1,0,0.2,0,0.4,0l8.2-0.5c0.4,0,0.9-0.1,1.3-0.3h0.4l27.5-1.1c1.1,0,2.1-0.5,2.8-1.3C267.7,93.6,268,92.5,267.9,91.4z
						 M251.3,71.1c-0.4,1-0.7,2.1-1.1,3.2c-0.5-1.1-1-2.1-1.6-3.1L251.3,71.1z"/>
				</g>
			</g>
			<g>
				<g>
					<defs>
						<rect id="SVGID_162_" y="0" width="350" height="230"/>
					</defs>
					<clipPath id="SVGID_163_">
						<use xlink:href="#SVGID_162_"  style="overflow:visible;"/>
					</clipPath>
					<path class="st80" d="M215.7,86.8c-1.8-0.7-3.5-1.8-5-3.1c1.1-4.1,1.7-8.4,1.7-12.7c0-0.7,0-1.3,0-1.9V69l2.2-0.4
						c0.5-0.1,0.9-0.3,1.1-0.7c0.3-0.4,0.3-0.9,0.2-1.3l-1.8-6.8c-0.1-0.4-0.4-0.8-0.8-1c-0.4-0.2-0.9-0.3-1.3-0.1l-5.5,1.7
						c0.3-1,0.5-2,0.7-3.1c0.2-0.8-0.2-1.6-1-1.9l-4.2-1.6c-0.4-0.2-0.9-0.1-1.3,0.1c-0.4,0.2-0.7,0.6-0.9,1
						c-0.5,1.5-1.1,2.9-1.8,4.4V59c-0.2-0.9-1-1.5-1.9-1.3l0,0l-0.8,0.2l-0.4-2.5c-0.1-0.9-1-1.5-1.8-1.4l-5.6,0.7
						c-0.2-0.7-0.7-1.2-1.4-1.3l-3.9-0.5c-0.9-0.1-1.7,0.6-1.8,1.5v0.1v1l-6,0.8c-0.7,0.1-1.3,0.7-1.4,1.5l-0.4,4l-1.3,0.2
						c-0.4,0.1-0.8,0.3-1.1,0.7c-0.2,0.4-0.3,0.8-0.2,1.2l0.6,3c0.1,0.7,0.7,1.2,1.3,1.3l-0.2,2.3c0,0.4,0.1,0.8,0.3,1.1
						c0,0.1-0.1,0.2-0.1,0.3L171,80c0,0.3,0,0.6,0.1,0.9c0,0-0.1,0.1-0.1,0.2c-0.3,0.4-0.4,0.8-0.3,1.2l0.7,3.7
						c0.1,0.8,0.9,1.4,1.7,1.3l1.7-0.1c-0.2,0.3-0.2,0.6-0.2,0.8H174c-0.5,0-1,0.2-1.4,0.6c-0.3,0.4-0.4,1-0.3,1.5l1.9,6.6
						c0.2,0.7,0.8,1.2,1.6,1.2h0.2c3.7-0.3,7.4-1.3,10.8-3c1.2,0.8,2.4,1.7,3.6,2.7c0.4,0.3,0.9,0.4,1.4,0.3s0.9-0.4,1.1-0.9
						l2.1-4.5l3.5,4.7c0.5,0.7,1.4,0.9,2.1,0.4c1.8-1.1,3.4-2.4,4.8-4c1.1,1.3,2.3,2.4,3.5,3.5c0.7,0.6,1.7,0.5,2.3-0.2
						c0-0.1,0.1-0.1,0.1-0.2l5.1-7.8c0.3-0.4,0.4-0.9,0.2-1.4C216.5,87.4,216.2,87,215.7,86.8z M204.3,70.2
						c-0.1,1.3-0.2,2.5-0.4,3.7c-0.4-0.9-0.7-1.9-1.1-2.9c0-0.2-0.1-0.3-0.2-0.4c0,0,0-0.1,0.1-0.1L204.3,70.2z M193.8,87.4
						c0.1-0.3,0.3-0.7,0.4-1.1l2.6-0.1c-0.9,0.5-1.8,1-2.8,1.3L193.8,87.4z"/>
				</g>
			</g>
			<g>
				<g>
					<defs>
						<rect id="SVGID_164_" y="0" width="350" height="230"/>
					</defs>
					<clipPath id="SVGID_165_">
						<use xlink:href="#SVGID_164_"  style="overflow:visible;"/>
					</clipPath>
					<path class="st81" d="M264.6,91.7l-1-7.8c-0.1-0.4-0.3-0.8-0.6-1.1c-0.4-0.3-0.8-0.4-1.2-0.3l-2.4,0.4
						c0.7-3.8,1.3-7.8,1.9-12.4c0.1-0.7-0.3-1.4-1-1.7l-0.7-0.2l2.8-0.1c0.5,0,0.9-0.2,1.2-0.6c0.3-0.3,0.4-0.8,0.4-1.2l-1.1-7.9
						c-0.1-0.4-0.3-0.8-0.6-1.1c-0.4-0.3-0.8-0.4-1.2-0.3l-6.6,1.1l-0.4-3.5c-0.1-0.8-0.7-1.3-1.5-1.4l-5.4-0.6
						c-0.8-0.1-1.6,0.5-1.8,1.3l-1.3,5.9l-6.8,1.1c0.5-1.9,0.9-3.8,1.3-5.9c0.1-0.8-0.3-1.5-1-1.8l-4.6-1.8
						c-0.4-0.2-0.9-0.2-1.4,0.1c-0.4,0.2-0.7,0.6-0.9,1c-2,8-5.4,13.4-10.2,16.2c-0.7,0.4-1,1.3-0.7,2l3.6,9c0.2,0.5,0.6,0.9,1.1,1
						c0.2,0,0.5,0,0.7,0L223.9,94c0,0.5,0.1,0.9,0.4,1.3c0.3,0.3,0.7,0.5,1.1,0.5h0.2l8.2-0.5c0.4,0,0.7-0.2,1-0.4
						c0.2,0.1,0.5,0.1,0.7,0.1l27.5-1.2c0.5,0,0.9-0.2,1.2-0.6C264.5,92.6,264.6,92.1,264.6,91.7z M243.7,69.1l9.6-0.4
						c-1.2,3.8-2.6,7.7-4,11.8C247.9,76.5,246,72.7,243.7,69.1z M234.6,68.5c0.2-0.4,0.3-0.8,0.5-1.2l0.1,0.8
						c0.1,0.6,0.6,1.2,1.2,1.3c-0.6,0.4-0.8,1.2-0.6,1.8c1.6,4.7,2.6,9.6,3.1,14.6l-3.7,0.5L234.6,68.5z"/>
				</g>
			</g>
			<g>
				<g>
					<defs>
						<rect id="SVGID_166_" y="0" width="350" height="230"/>
					</defs>
					<clipPath id="SVGID_167_">
						<use xlink:href="#SVGID_166_"  style="overflow:visible;"/>
					</clipPath>
					<path class="st82" d="M265.8,90.8l-1-7.8c-0.1-0.4-0.3-0.8-0.6-1.1c-0.4-0.3-0.8-0.4-1.2-0.3l-2.4,0.4
						c0.7-3.8,1.4-7.8,1.9-12.4c0.1-0.7-0.3-1.4-1-1.7l-0.7-0.2l2.8-0.1c0.5,0,0.9-0.2,1.2-0.6c0.3-0.3,0.4-0.8,0.4-1.2l-1.1-7.9
						c-0.1-0.4-0.3-0.8-0.6-1.1c-0.4-0.3-0.8-0.4-1.2-0.3l-6.6,1.1l-0.4-3.5c-0.1-0.8-0.7-1.4-1.4-1.4l-5.4-0.6
						c-0.8-0.1-1.6,0.4-1.8,1.3l-1.3,5.9l-6.8,1.1c0.5-1.8,0.9-3.8,1.3-5.9c0.1-0.8-0.3-1.5-1-1.8l-4.5-1.8
						c-0.4-0.2-0.9-0.2-1.4,0.1c-0.4,0.2-0.7,0.6-0.9,1c-2,8-5.5,13.4-10.2,16.1c-0.7,0.4-1,1.2-0.7,2l3.6,9c0.2,0.5,0.6,0.9,1.1,1
						c0.2,0.1,0.5,0.1,0.7,0L225,92.7c-0.1,0.5,0.1,1,0.4,1.3c0.3,0.3,0.7,0.5,1.1,0.5h0.1L235,94c0.4,0,0.7-0.2,1-0.4
						c0.2,0.1,0.5,0.1,0.7,0.1l27.5-1c0.5,0,0.9-0.2,1.2-0.6C265.7,91.8,265.8,91.3,265.8,90.8z M245,68.2l9.6-0.4
						c-1.2,3.8-2.6,7.7-4.1,11.8C249.2,75.6,247.3,71.8,245,68.2z M235.9,67.6c0.2-0.4,0.3-0.8,0.5-1.2l0.1,0.8
						c0.1,0.6,0.5,1.2,1.2,1.3c-0.6,0.4-0.8,1.2-0.6,1.8c1.6,4.7,2.6,9.6,3,14.6l-3.7,0.5L235.9,67.6z"/>
				</g>
			</g>
			<g>
				<g>
					<defs>
						<rect id="SVGID_168_" y="0" width="350" height="230"/>
					</defs>
					<clipPath id="SVGID_169_">
						<use xlink:href="#SVGID_168_"  style="overflow:visible;"/>
					</clipPath>
					<path class="st83" d="M216.9,85.7c-1.8-0.7-3.5-1.8-5-3.1c1.1-4.1,1.7-8.3,1.7-12.6c0-0.7,0-1.3,0-1.9v-0.2l2.2-0.4
						c0.5-0.1,0.9-0.3,1.1-0.7c0.3-0.4,0.3-0.9,0.2-1.3l-1.8-6.8c-0.1-0.4-0.4-0.8-0.8-1c-0.4-0.2-0.9-0.3-1.3-0.1l-5.5,1.7
						c0.3-1,0.5-2,0.8-3.1c0.2-0.8-0.2-1.6-1-1.9l-4.2-1.6c-0.9-0.3-1.8,0.1-2.1,1l0,0c-0.5,1.5-1.1,2.9-1.8,4.3v-0.1
						c-0.2-0.9-1-1.5-1.9-1.3l0,0l-0.9,0.2l-0.4-2.5c-0.1-0.9-1-1.5-1.8-1.4l-5.6,0.7c-0.2-0.7-0.7-1.2-1.4-1.3l-3.8-0.4
						c-0.5,0-0.9,0.1-1.2,0.4c-0.3,0.3-0.5,0.7-0.6,1.2l-0.1,1l-6,0.8c-0.7,0.1-1.3,0.7-1.4,1.4l-0.4,4l-1.3,0.2
						c-0.4,0.1-0.8,0.3-1.1,0.7c-0.2,0.4-0.3,0.8-0.3,1.2l0.6,3c0.1,0.7,0.7,1.2,1.3,1.3l-0.3,2.3c0,0.4,0.1,0.8,0.3,1.1
						c0,0.1-0.1,0.2-0.1,0.3l-1,8.1c0,0.3,0,0.6,0.1,0.9L172,80c-0.3,0.4-0.4,0.8-0.3,1.3l0.7,3.7c0.1,0.8,0.9,1.4,1.7,1.4l1.7-0.1
						c-0.2,0.3-0.2,0.5-0.2,0.8h-0.5c-0.5,0-1,0.2-1.4,0.6c-0.3,0.4-0.4,1-0.3,1.5l1.9,6.6c0.2,0.7,0.8,1.2,1.6,1.2h0.2
						c3.7-0.3,7.4-1.3,10.8-3c1.2,0.8,2.4,1.7,3.6,2.7c0.4,0.3,0.9,0.4,1.4,0.3s1-0.5,1.2-1l2.1-4.4l3.5,4.7
						c0.5,0.7,1.4,0.9,2.1,0.4c1.8-1.1,3.4-2.4,4.8-4c1.1,1.2,2.3,2.4,3.5,3.5c0.4,0.3,0.8,0.5,1.3,0.4s0.9-0.3,1.1-0.7l5.2-7.8
						c0.5-0.8,0.3-1.8-0.5-2.3C217,85.8,216.9,85.7,216.9,85.7L216.9,85.7z M205.6,69.1c-0.1,1.3-0.2,2.6-0.4,3.7
						c-0.4-0.9-0.7-1.9-1-2.9c-0.1-0.2-0.1-0.3-0.2-0.4l0.1-0.1L205.6,69.1z M195,86.2c0.2-0.4,0.3-0.7,0.4-1.1L198,85
						c-0.9,0.5-1.8,0.9-2.8,1.3L195,86.2z"/>
				</g>
			</g>
			<g>
				<g>
					<defs>
						<rect id="SVGID_170_" y="0" width="350" height="230"/>
					</defs>
					<clipPath id="SVGID_171_">
						<use xlink:href="#SVGID_170_"  style="overflow:visible;"/>
					</clipPath>
					
						<linearGradient id="SVGID_172_" gradientUnits="userSpaceOnUse" x1="184.176" y1="-456.634" x2="182.846" y2="-488.894" gradientTransform="matrix(1 2.617991e-03 2.617991e-03 -1 12.027 -393.742)">
						<stop  offset="0" style="stop-color:#5F6BF0"/>
						<stop  offset="0.14" style="stop-color:#5177F2"/>
						<stop  offset="0.48" style="stop-color:#358FF8"/>
						<stop  offset="0.78" style="stop-color:#239EFB"/>
						<stop  offset="1" style="stop-color:#1DA3FC"/>
					</linearGradient>
					<path class="st84" d="M215.5,65.7l-3.6,0.6c0,1.1,0,2.2,0,3.5c0,4.5-0.6,8.9-1.9,13.2c1.8,1.8,4,3.2,6.3,4.1l-5.1,7.8
						c-1.7-1.5-3.2-3.1-4.6-4.8c-1.5,2.1-3.4,3.8-5.6,5.2l-5.1-6.8l-3.3,6.9c-1.5-1.2-3-2.3-4.6-3.3c-3.4,1.9-7.1,3-11,3.3l-1.9-6.6
						c0.9,0,1.9,0.1,2.9,0.1c1.1,0,2.2-0.1,3.3-0.3l-3.9-1.4c0.6-0.8,1.1-1.7,1.7-2.7l-4.8,0.3l-0.7-3.7l7.9-1.1
						c0.3-0.6,0.5-1.1,0.8-1.7l-1.6,0.2l0.1,0.7l-7,0.2l0.9-8.1l7.9-1.2v-1.3l-1.2,0.1l0.1,0.8l-7.1,0.2l0.5-4.3l-1.6,0.2l-0.6-3
						l2.5-0.5l0.6-5.3l7.3-1l0.1-2.4L187,54l0.1,1.5l7.3-1l0.7,4.2l2.6-0.4l0.8,4.6l-2.6,0.3l0.4,2.6c2.8-3.4,5-7.3,6.3-11.5
						l4.2,1.6c-0.5,2.1-1,4.1-1.5,5.9l8.4-2.5L215.5,65.7z M182.4,75.1l0.1-1.9l-2.8,0.3l0.4,2.1L182.4,75.1z M183,60.6l0.1-1.3
						l-3,0.2l0.2,1.6L183,60.6z M182.8,65.6v-1.3l-2,0.2L181,66L182.8,65.6z M188,85.8c0.7-0.6,1.4-1.2,1.9-2l-5.1,0.3
						c-0.1,0.3-0.3,0.6-0.4,0.9C185.6,85.2,186.8,85.5,188,85.8z M192.7,87.1c1,0.3,1.9,0.7,2.9,0.9l-0.1-0.1c2.6-0.9,5-2.4,7.1-4.3
						c-1.9-3.8-3.4-7.8-4.4-11.9l1-0.3l-2.9-2.5l2,8.1l-6.6,0.7v-0.5l-6.6,0.7l1.5,0.4c-0.1,0.3-0.1,0.6-0.2,0.9l12.1-1.8l1,5.9
						l-5,0.3C194,84.8,193.4,86,192.7,87.1L192.7,87.1z M187.8,59.8l2.4-0.5v-0.5l-2.5,0.2L187.8,59.8z M188.2,63.8l0.1,0.7l1.8-0.4
						v-0.6L188.2,63.8z M188.7,68.9l6.3-1l-0.4-0.3l-4.7,0.5v-0.4l-1.3,0.1L188.7,68.9z M189.3,74l2.4-0.5v-1.1l-2.5,0.2L189.3,74z
						 M201.3,70.8l1.3-0.5c0.8,2.6,1.9,5.1,3.3,7.4c0.9-3.5,1.4-7.1,1.5-10.6l-4.4,0.7C202.3,68.8,201.8,69.8,201.3,70.8L201.3,70.8
						z"/>
				</g>
			</g>
			<g>
				<g>
					<defs>
						<rect id="SVGID_173_" y="0" width="350" height="230"/>
					</defs>
					<clipPath id="SVGID_174_">
						<use xlink:href="#SVGID_173_"  style="overflow:visible;"/>
					</clipPath>
					<path class="st85" d="M200.4,89.2c1.6-0.9,3.1-2,4.4-3.3l1.2-1.3l0.1,0.2l-2.4,3.2c-0.7,0.9-1.5,1.8-2.3,2.6L200.4,89.2z
						 M190.9,90l0.2,0.1v0.1L190.9,90z M210.5,89.7c-0.5-0.5-1-1.1-1.5-1.7l-2-2.6l0.1-0.5l0.4,0.4c1.2,1.1,2.5,2.1,3.8,3
						L210.5,89.7z M211.3,63.1L211.3,63.1L211.3,63.1z"/>
				</g>
			</g>
			<g>
				<g>
					<defs>
						<rect id="SVGID_175_" y="0" width="350" height="230"/>
					</defs>
					<clipPath id="SVGID_176_">
						<use xlink:href="#SVGID_175_"  style="overflow:visible;"/>
					</clipPath>
					
						<linearGradient id="SVGID_177_" gradientUnits="userSpaceOnUse" x1="123.6742" y1="-574.9607" x2="122.3743" y2="-606.7207" gradientTransform="matrix(0.9995 3.175965e-02 3.175965e-02 -0.9995 139.1568 -514.7166)">
						<stop  offset="0" style="stop-color:#5F6BF0"/>
						<stop  offset="0.14" style="stop-color:#5177F2"/>
						<stop  offset="0.48" style="stop-color:#358FF8"/>
						<stop  offset="0.78" style="stop-color:#239EFB"/>
						<stop  offset="1" style="stop-color:#1DA3FC"/>
					</linearGradient>
					<path class="st86" d="M238,53.7c-0.7,4.6-2,9-3.8,13.3l0.8,25.1l-8.2,0.5l1.6-16.7c-0.7,0.7-1.5,1.4-2.3,2l-3.6-9
						c5.2-3,8.8-8.7,10.9-17.2L238,53.7z M260.8,69.1c-0.6,5.2-1.4,10-2.3,14.5l4.7-0.7l1,7.8l-27.5,1.1l-0.6-5l14.1-2
						c2.2-5.8,4.2-11.6,6-17.4L260.8,69.1z M253.4,53.8L254,59l8.3-1.4l1.1,7.9l-25.3,1.1l-0.7-5l9.1-1.5l1.5-7L253.4,53.8z
						 M249.4,81.6l-7.7,3.1c-0.4-5.2-1.5-10.2-3.1-15.2l4.1-1.9C245.7,71.9,248,76.6,249.4,81.6z"/>
				</g>
			</g>
			<g>
				<g>
					<defs>
						<rect id="SVGID_178_" y="0" width="350" height="230"/>
					</defs>
					<clipPath id="SVGID_179_">
						<use xlink:href="#SVGID_178_"  style="overflow:visible;"/>
					</clipPath>
					<path class="st87" d="M231.2,79.9l0.3,9.2l-1.2,0.1L231.2,79.9z M252.5,87.7l0.7-1.8c1-2.7,1.9-5.2,2.8-7.7
						c-0.3,1.6-0.6,3.2-0.9,4.7l-0.9,4.6l6.1-0.9l0.1,1L250.2,88L252.5,87.7z M244.4,80.1c-0.2-1.5-0.5-2.9-0.8-4.3
						c0.6,1.2,1.1,2.5,1.6,3.9L244.4,80.1z M226.4,70.3c2-1.6,3.8-3.6,5.2-5.7c-0.2,0.4-0.3,0.8-0.5,1.2l-0.3,0.7l0.1,2.2l-3.6,3.8
						L226.4,70.3z M250.4,57.2l0.7,5.5l8.4-1.4l0.1,1.1l-10.4,0.5L250.4,57.2z"/>
				</g>
			</g>
			<g>
				<g>
					<defs>
						<rect id="SVGID_180_" y="0" width="350" height="230"/>
					</defs>
					<clipPath id="SVGID_181_">
						<use xlink:href="#SVGID_180_"  style="overflow:visible;"/>
					</clipPath>
					
						<linearGradient id="SVGID_182_" gradientUnits="userSpaceOnUse" x1="99.6" y1="-482.7902" x2="99.6" y2="-441.2003" gradientTransform="matrix(1 0 0 -1 0 -382.1102)">
						<stop  offset="0" style="stop-color:#5F6BF0"/>
						<stop  offset="0.14" style="stop-color:#5177F2"/>
						<stop  offset="0.48" style="stop-color:#358FF8"/>
						<stop  offset="0.78" style="stop-color:#239EFB"/>
						<stop  offset="1" style="stop-color:#1DA3FC"/>
					</linearGradient>
					<circle class="st88" cx="99.6" cy="77.4" r="18"/>
				</g>
			</g>
			<g>
				<g>
					<defs>
						<rect id="SVGID_183_" y="0" width="350" height="230"/>
					</defs>
					<clipPath id="SVGID_184_">
						<use xlink:href="#SVGID_183_"  style="overflow:visible;"/>
					</clipPath>
					
						<linearGradient id="SVGID_185_" gradientUnits="userSpaceOnUse" x1="122.6" y1="-482.7902" x2="122.6" y2="-441.2003" gradientTransform="matrix(1 0 0 -1 0 -382.1102)">
						<stop  offset="0" style="stop-color:#5F6BF0"/>
						<stop  offset="0.14" style="stop-color:#5177F2"/>
						<stop  offset="0.48" style="stop-color:#358FF8"/>
						<stop  offset="0.78" style="stop-color:#239EFB"/>
						<stop  offset="1" style="stop-color:#1DA3FC"/>
					</linearGradient>
					<circle class="st89" cx="122.6" cy="77.4" r="18"/>
				</g>
			</g>
			<g>
				<g>
					<defs>
						<rect id="SVGID_186_" y="0" width="350" height="230"/>
					</defs>
					<clipPath id="SVGID_187_">
						<use xlink:href="#SVGID_186_"  style="overflow:visible;"/>
					</clipPath>
					
						<linearGradient id="SVGID_188_" gradientUnits="userSpaceOnUse" x1="145.6" y1="-482.7902" x2="145.6" y2="-441.2003" gradientTransform="matrix(1 0 0 -1 0 -382.1102)">
						<stop  offset="0" style="stop-color:#5F6BF0"/>
						<stop  offset="0.14" style="stop-color:#5177F2"/>
						<stop  offset="0.48" style="stop-color:#358FF8"/>
						<stop  offset="0.78" style="stop-color:#239EFB"/>
						<stop  offset="1" style="stop-color:#1DA3FC"/>
					</linearGradient>
					<circle class="st90" cx="145.6" cy="77.4" r="18"/>
				</g>
			</g>
		</g>
	</g>
</g>
<g>
	<polygon class="st4" points="86.4,71.3 96.4,71.3 96.4,74.5 93.2,74.5 92.9,78.9 97.9,78.9 97.9,82.3 86.4,82.3 86.4,79.1 
		88.8,79.1 89.3,74.4 86.4,74.4 	"/>
	<path class="st4" d="M111.3,79.7c0-2.6-2.1-4.6-4.6-4.6c-0.9,0-1.8,0.3-2.6,0.8h-0.2l0.3-2.9h5.4v-3.4H97v3.3h3.1l-0.8,6.9h2.7h1.4
		l1.7-1.1l1.2,1.5l-3.3,2.4l-2.5,1.8l2.2,2.4l6.2-2.9v-0.1C110.3,82.9,111.3,81.4,111.3,79.7"/>
	<path class="st4" d="M116.7,68.8c1.2,0,2.2,1,2.2,2.1c0,1.2-1,2.1-2.2,2.1s-2.1-1-2.1-2.1C114.5,69.7,115.5,68.8,116.7,68.8"/>
	<path class="st4" d="M125.4,75.1h-2.9v-0.6h2.9V75.1z M125.4,77.3h-2.9v-0.6h2.9V77.3z M128.8,76.7h2.9v0.6h-2.9V76.7z M128.8,74.4
		h2.9V75h-2.9V74.4z M134.9,79.6h-6.1v-0.5h3.2l0,0c1.6-0.2,2.8-1.5,2.8-3.1s-1.2-3-2.8-3.1l0,0h-3.2v-0.7h4.7v-2.6h-4.7V69h-3.3
		v0.6h-4.8v2.6h4.8v0.7h-3c-1.7,0-3.1,1.4-3.1,3.1s1.4,3.1,3.1,3.1l0,0h3v0.5H119v2.7h6.4v0.8h3.3v-0.8h6.1L134.9,79.6L134.9,79.6z"
		/>
	<path class="st4" d="M135.2,82.7c0,0-1.5,1-4.7,1h-9.7l0,0c-1.4,0-2.5-1.1-2.5-2.5v-5.6c0-1-0.8-1.9-1.9-1.9
		c-0.3,0-0.7,0.1-0.9,0.3l0,0l-3.6,2.1l1.7,2.5l1.5-0.9v3.8c-1.8,0.5-3.2,2.2-3.2,4.2c0,0.2,0,0.4,0,0.6h2.8c0-1,0.7-1.9,1.6-2.2
		c0.8,1.5,2.4,2.5,4.2,2.5h8.3c4.7,0.2,6.9-3,6.9-3L135.2,82.7z"/>
	<path class="st4" d="M154.6,75c-0.9,0-1.6-0.7-1.6-1.6s0.7-1.6,1.6-1.6c0.9,0,1.6,0.7,1.6,1.6C156.3,74.3,155.5,75,154.6,75
		 M154.6,69.1c-2.4,0-4.3,1.9-4.3,4.3s1.9,4.3,4.3,4.3c2.4,0,4.3-1.9,4.3-4.3C159,71,157,69.1,154.6,69.1"/>
	<path class="st4" d="M142.7,72.7h-2l0.5-0.6h1.5V72.7z M148.5,75.8l-0.4-0.6h1.6v-2.5h-3v-0.6h2.9v-2.6h-8.4l-0.7-0.9l-4.4,4.6
		l1.8,0.9v1h3.9l-0.4,0.5h-3.6c0.7,1.2,1.9,2,3.4,2c1.7,0,3.1-1.1,3.7-2.6c0.2,1.3,1.3,2.4,2.7,2.4c1.1,0,2.1-0.7,2.5-1.7
		L148.5,75.8L148.5,75.8z"/>
	<path class="st4" d="M140.9,81.2c0.3-0.4,0.7-0.7,1.2-0.7h12.1c0.5,0,1,0.3,1.2,0.7H140.9z M154.3,83.5h-12.1
		c-0.5,0-0.9-0.3-1.2-0.6h14.5C155.2,83.2,154.8,83.5,154.3,83.5 M154.5,78.1L154.5,78.1h-12.4l0,0c-2.1,0-3.8,1.8-3.8,3.9
		c0,2.2,1.8,3.9,3.9,3.9c0.2,0,0.3,0,0.5,0h11.2c0.1,0,0.3,0,0.5,0c2.2,0,3.9-1.7,3.9-3.9C158.2,79.9,156.6,78.2,154.5,78.1"/>
</g>
</svg>
