<svg xmlns="http://www.w3.org/2000/svg" viewBox="0 0 190 317"><defs><style>.cls-1{fill:#fff;}.cls-2{fill:#005e7e;}.cls-3{fill:#008cd2;}.cls-4{fill:#e20920;}.cls-5{fill:#a8822c;}.cls-6{fill:#e43859;}.cls-7{fill:#ec858d;}.cls-8{fill:#ffdf00;}</style></defs><title>login_img02</title><g id="頁面內容"><ellipse class="cls-1" cx="94.62" cy="210.82" rx="85" ry="81.39"/><path class="cls-2" d="M119.84,251.71c-7-.38-10.2-3.89-10.84-4.7-3.34.31-7.35.57-11.93.65.14,1.73.37,6.82-1.47,8.72a3.13,3.13,0,0,1-.63.47,73.92,73.92,0,0,1,.65,9c0,.76.06,1.56.09,2.43.08,2,.16,4.21.25,5.32,0,.16,0,.29,0,.4l.69.13a83.06,83.06,0,0,0,12.56.58c3.11-.1,5.74-.32,7.7-.58l.73-.1.73-.11a12.73,12.73,0,0,0,2-.45C120.42,271.52,120.11,260.6,119.84,251.71Z"/><path class="cls-2" d="M90.15,247.65h0l-.78,0-.8,0c-3.38-.1-6.87-.31-10.38-.74l-.51-.06.1.07a13.07,13.07,0,0,1-2.05,2c-.26.2-.53.4-.79.57s-.6.38-.9.55a14,14,0,0,1-6.68,1.71h0l-.46,21.81c.27.08.68.19,1.25.3l.73.13.73.11a68.43,68.43,0,0,0,9.22.57,99.32,99.32,0,0,0,11-.42l.72-.09.73-.1.24,0c.49-10.62,1-15.11,1.44-17C90.42,255.91,90.16,249.77,90.15,247.65Z"/><path class="cls-2" d="M71.93,249.39a10.71,10.71,0,0,0,1-.44c.29-.15.58-.31.88-.49a10.45,10.45,0,0,0,1.74-1.33q.27-.25.54-.54c-1.48-.22-3-.48-4.42-.8s-2.82-.66-4.21-1.07v.58l0,.9h0l0,.88-.07,3.2c.26,0,.58,0,1,0A13.49,13.49,0,0,0,71.93,249.39Z"/><path class="cls-2" d="M95.61,247.68h-4c0,3.34.69,7.65,2,8l.12,0a1,1,0,0,0,.53-.1.93.93,0,0,0,.33-.24C95.73,254.16,95.83,250.17,95.61,247.68Z"/><path class="cls-2" d="M118.05,250.07c.55.08,1.14.14,1.75.18,0-1.7-.1-3.31-.14-4.72-1.35.27-4.38.82-8.82,1.3.11.1.24.22.39.34A14,14,0,0,0,118.05,250.07Z"/><path class="cls-3" d="M91.26,294.39l0-.13a7.78,7.78,0,0,1,0-1c0-.33,0-.74,0-1.22a1.14,1.14,0,0,0,0-.33c-.18.13-.41.28-.67.44s-.45.25-.72.38A15.76,15.76,0,0,1,86,293.75l-.63.11a31.51,31.51,0,0,1-6.27.55,2.1,2.1,0,0,1-1.46-.48l-.06-.07a9.62,9.62,0,0,0-4.77-3.58,11.55,11.55,0,0,0-3.27-.71H69.3l-.51,0a6.75,6.75,0,0,0-.72.12h0l-.48.1-1.31,1.27.26.07c.26.07.52.15.8.25s.48.18.73.29.49.21.73.33.49.24.73.38a14.68,14.68,0,0,1,1.58,1,13.19,13.19,0,0,1,1.63,1.46c.22.22.42.45.61.68s.37.47.52.7a3.1,3.1,0,0,1,.7,2.79c-.41.88-4.27,5.05-6.1,5.5a1.89,1.89,0,0,1-.38.05,1.17,1.17,0,0,1-.71-.23c-.38-.3-.82-.72-1.32-1.2a29.05,29.05,0,0,0-3.22-2.77,10.67,10.67,0,0,0-2.64-1.21l-.27-.09-.45-.15-.69-.27-.21-.09c-1.23,1.22-2.76,2.76-3.76,3.92a11.85,11.85,0,0,1,2.65,0c.25,0,.49.07.73.12s.51.11.76.18a8.33,8.33,0,0,1,1,.36,11.16,11.16,0,0,1,4.43,3.89c.19.26.37.53.52.78s.32.51.45.74.34.64.44.86a75.58,75.58,0,0,0,15.09-2.28,31.09,31.09,0,0,0,10.72-5.12,54.64,54.64,0,0,0-.32-7.67Z"/><path class="cls-3" d="M59.7,297.5l.68.24h0l.72.26a10.18,10.18,0,0,1,2.57,1.24,30.33,30.33,0,0,1,3.37,2.9c.43.4.8.76,1.11,1,1-.25,4.66-3.82,5.07-4.68.08-.25-.26-1.06-1.1-2.06a8,8,0,0,0-.64-.71c-.23-.22-.48-.45-.75-.68s-.33-.28-.52-.42-.47-.34-.7-.49-.49-.31-.73-.44-.49-.27-.73-.38a11,11,0,0,0-1.92-.73,6,6,0,0,0-.87-.17l-.25,0-.14.06a21.36,21.36,0,0,0-3,2.42c-.84.77-1.75,1.64-2.61,2.49l.37.15Z"/><path class="cls-3" d="M128.55,298.69l-.66.27-.68.24h0l-.71.24a9.31,9.31,0,0,0-2.17,1.05,29.05,29.05,0,0,0-3.22,2.77c-.51.48-.94.89-1.33,1.19a1.06,1.06,0,0,1-.7.23,1.76,1.76,0,0,1-.38,0c-1.83-.45-5.7-4.62-6.1-5.5s0-1.77.71-2.82c.16-.23.34-.47.53-.7s.4-.46.61-.69a13.71,13.71,0,0,1,1.61-1.43c.31-.23.62-.44.94-.64s.48-.3.73-.44.48-.26.72-.37.66-.31,1-.43l.77-.27a6.66,6.66,0,0,1,.7-.19l-1.32-1.27a6.85,6.85,0,0,0-1.12-.21h0a5.43,5.43,0,0,0-.69,0l-.41,0-.32,0a13.38,13.38,0,0,0-2.63.67,9.68,9.68,0,0,0-4.78,3.57l0,.07a1.88,1.88,0,0,1-1.32.47,31.51,31.51,0,0,1-6.66-.57l-.38-.07a14.91,14.91,0,0,1-4.47-1.54,7.56,7.56,0,0,1-.72-.47l0,0a1.12,1.12,0,0,0,0,.32c0,.49,0,.89,0,1.22a4,4,0,0,1-.06,1.22,2.36,2.36,0,0,0,0,.26c-.06.53-.17,1.76-.24,3.2s-.1,2.87,0,4.16a31.17,31.17,0,0,0,10.73,5.12,75.61,75.61,0,0,0,15.08,2.28c.12-.25.29-.58.51-1s.29-.5.47-.78.37-.56.58-.85a11.15,11.15,0,0,1,4.29-3.68l.31-.12a7.13,7.13,0,0,1,.78-.26,5.86,5.86,0,0,1,.75-.17,11.25,11.25,0,0,1,3.29-.14C131.32,301.45,129.79,299.91,128.55,298.69Z"/><path class="cls-3" d="M118.42,293.69c-.24.13-.48.28-.72.43s-.49.33-.73.51l-.06,0-.47.38c-.28.24-.53.47-.76.69s-.47.48-.66.71a3.81,3.81,0,0,0-1.13,2.1c.42.85,4,4.43,5.08,4.68.31-.26.68-.61,1.1-1a31.47,31.47,0,0,1,3.37-2.89,9.76,9.76,0,0,1,2.14-1.08l.71-.26.44-.16.28-.09.42-.15.41-.16a50.82,50.82,0,0,0-5.3-4.73,1.69,1.69,0,0,0-.3-.18l-.14-.06a3.8,3.8,0,0,0-.73.1c-.25.05-.51.12-.82.21A12.79,12.79,0,0,0,118.42,293.69Z"/><path class="cls-4" d="M119.22,230.76c-.37.05-.74.1-1.13.12s-.67,0-1,0a14.47,14.47,0,0,1-10-3.85,17.29,17.29,0,0,1-1.73-1.88,11.22,11.22,0,0,1-5.68,2.22c-.46,0-.89,0-1.31,0a15.84,15.84,0,0,1-2.68-.21.55.55,0,0,1,0,.12.74.74,0,0,1-.45.56,76.48,76.48,0,0,1-11.74,3.24,48.07,48.07,0,0,1-8.8.92,23,23,0,0,1-7.11-1c0,.69,0,1.38-.06,2,0,.85,0,1.68-.08,2.48h0c0,.1,0,.2,0,.3,0,.51,0,1,0,1.48-.05,1.56-.09,2.95-.13,4h0c0,.27,0,.52,0,.75,0,.39,0,.72,0,1l.29.08q2.4.72,4.86,1.23c2,.41,4,.73,6,1,3.56.44,7.12.65,10.55.74l.74,0,.73,0,3.82,0a132.67,132.67,0,0,0,25.4-2.16v-1.14C119.53,240.47,119.46,235.7,119.22,230.76Z"/><path class="cls-4" d="M94,226.79l.28-.09c0-.15,0-.35.06-.57s.05-.47.07-.75a39.72,39.72,0,0,0-.13-7.18,54.28,54.28,0,0,0-1-6.08c-.07-.27-.13-.51-.18-.74s-.14-.53-.2-.73,0-.12,0-.18c-3.14-.12-19.71-.62-25.32,2.05a.72.72,0,0,1-.83-.15.94.94,0,0,1-.14-.19.69.69,0,0,1,0-.58.67.67,0,0,1,.35-.39c.26-.12.54-.24.83-.34a19.25,19.25,0,0,1,3.09-.85,50.38,50.38,0,0,1,4.27-10,.73.73,0,0,1,1.24.76,49,49,0,0,0-3.88,8.92c8.27-1.28,20.34-.72,21-.69a.76.76,0,0,1,.66.5s0,.14.1.34l3-1.8a6.68,6.68,0,0,1-1-3,2.68,2.68,0,0,1-.64-.11,3.15,3.15,0,0,1-1-.57,4.38,4.38,0,0,1-1.39-2,5.35,5.35,0,0,1-.08-2.48,6.57,6.57,0,0,1,.32-1.13l-.57,0a42.31,42.31,0,0,1-11-2.27,15.08,15.08,0,0,1-5.2-2.94,6.3,6.3,0,0,1-.81-1,4.32,4.32,0,0,1-.4-.68,3.66,3.66,0,0,1-.18-.46l-1.06.86c-5.29,4.43-12.38,12.36-13.35,23.6,0,.33,0,.68-.06,1s0,.73,0,1.1,0,.68,0,1v.26a12.88,12.88,0,0,0,1,4.94A9,9,0,0,0,65,228.27l.15.09c.27.17.54.34.83.49l.21.1c.2.1.4.2.6.28l.12.05c.24.1.47.2.72.28C76.38,232.66,90.76,227.94,94,226.79Z"/><path class="cls-4" d="M126.29,212.75c-.64-7.29-5.18-12.94-8.94-16.45a21.6,21.6,0,0,1-2.74,5c0,.07-.09.14-.15.21s-.19.25-.29.38l-.46.57a24.41,24.41,0,0,1-1.93,2.11c-.26.25-.51.5-.77.73s-.56.5-.85.73a20.67,20.67,0,0,1-4,2.65l-.66.3c-.23.1-.45.2-.68.28a10.84,10.84,0,0,1-3.06.72h-.26a35.75,35.75,0,0,0,1.43,7.23c.12.36.23.72.36,1.06s.23.65.36,1a21.44,21.44,0,0,0,2,3.87c.14.2.27.41.42.6s.29.4.44.59a14.88,14.88,0,0,0,1.57,1.69,13,13,0,0,0,9.94,3.44c.39,0,.76-.08,1.13-.14s.49-.09.72-.15l.71-.22a7.22,7.22,0,0,0,3.09-2.11C126,224.12,126.87,219.39,126.29,212.75Z"/><path class="cls-4" d="M76.72,191.44a4,4,0,0,0,.56.8c1.14,1.3,3.34,2.44,6,3.32A38.37,38.37,0,0,0,88,196.74a41.47,41.47,0,0,0,4.94.64l1.27.07.08-.1A5.49,5.49,0,0,1,95.93,196l.61-.27.44-.14a4.86,4.86,0,0,1,.26-.79c-1.24,0-2.6,0-4.1-.13-6.07-.47-10.5-1.68-13.19-3.6a7.58,7.58,0,0,1-1.41-1.27l-.05-.05a2.47,2.47,0,0,1-.21-.27l-.09-.12a3.68,3.68,0,0,1-.25-.4l0,0-.33.25c-.22.18-.42.36-.6.53-.35.37-.58.69-.55.88h0v0A2.85,2.85,0,0,0,76.72,191.44Z"/><path class="cls-1" d="M96.68,285.68v4.86a11.35,11.35,0,0,0,4.75,1.86,24.59,24.59,0,0,0,7,.59,11.1,11.1,0,0,1,5.43-4,13.71,13.71,0,0,1,3.06-.74h0v-2.59h0c-1.36.53-4,1-9,1C101.47,286.68,98.21,286.11,96.68,285.68Z"/><path class="cls-1" d="M69.55,285.66h0v2.47h0a12.3,12.3,0,0,1,3.69.78,11.13,11.13,0,0,1,5.44,4,24.23,24.23,0,0,0,7-.59,13,13,0,0,0,4.11-1.43v-5.21c-1.53.43-4.79,1-11.29,1C73.52,286.68,70.91,286.19,69.55,285.66Z"/><path class="cls-1" d="M81.23,308.63a77,77,0,0,1-10.49,1.93c-3.25.37-5.37.41-5.41.41h0a.71.71,0,0,1-.67-.45l-.07-.14a15.79,15.79,0,0,0-1.06-1.92c-.18-.28-.39-.58-.61-.88s-.61-.75-1-1.12a8.48,8.48,0,0,0-2.27-1.73l-.33-.17a5.46,5.46,0,0,0-.77-.28,8.26,8.26,0,0,0-.86-.2,8.79,8.79,0,0,0-3.91.14h0a8.53,8.53,0,0,0-.18.95c0,.31-.07.65-.08,1A5.22,5.22,0,0,0,55.83,311c3.7,2.35,11,2.43,21.78.25l.37-.08a36,36,0,0,0,12.59-4.95,3.28,3.28,0,0,0,.47-.39l.1-.11a5.76,5.76,0,0,0,.31-1.36c0-.11,0-.23,0-.34-.62.43-1.45,1-2.47,1.53A33.51,33.51,0,0,1,81.23,308.63Z"/><path class="cls-1" d="M133.52,305.25c-.05-.35-.11-.67-.17-.94l0,0a9.1,9.1,0,0,0-4.62,0,6.35,6.35,0,0,0-.9.31l-.06,0a9.36,9.36,0,0,0-3.2,2.61q-.42.53-.75,1a15.94,15.94,0,0,0-1.23,2.17,1.19,1.19,0,0,0-.06.14.74.74,0,0,1-.69.45s-2.15,0-5.41-.41a78.88,78.88,0,0,1-10.49-1.93,33.86,33.86,0,0,1-7.78-3.12c-1-.57-1.86-1.11-2.48-1.54,0,.12,0,.24.05.35a5.43,5.43,0,0,0,.32,1.37l.06.07a3.94,3.94,0,0,0,.67.55,37.38,37.38,0,0,0,12.41,4.82l.37.08c10.76,2.18,18.08,2.1,21.79-.25a5.2,5.2,0,0,0,2.3-4.78A10.1,10.1,0,0,0,133.52,305.25Z"/><path class="cls-1" d="M70.52,121.45a37.43,37.43,0,0,1,4-2.52A5,5,0,0,0,72.11,117a4.28,4.28,0,0,0-1.47-.25,5.34,5.34,0,0,0-3,1,5.48,5.48,0,0,0-2.52,4.14,4.55,4.55,0,0,0,1.16,3.19A36.41,36.41,0,0,1,70.52,121.45Z"/><path class="cls-1" d="M133.51,127.58a5,5,0,0,0-3.82-2h-.21a5,5,0,0,0-2.84,1.14,34.88,34.88,0,0,1,3.06,3.57,36.24,36.24,0,0,1,3,4.68,4.67,4.67,0,0,0,2-2.71A5.45,5.45,0,0,0,133.51,127.58Z"/><path class="cls-1" d="M77.69,187l.35.15.32.14.24.09.31.12.13,0,.42.16.12.05.67.25c.62.23,1.26.45,1.91.65a52.81,52.81,0,0,0,5.64,1.43c.86.17,1.74.32,2.64.46A52.64,52.64,0,0,0,102,191l.09-.2a2,2,0,0,1,.11-.26,3.67,3.67,0,0,1,1.38-1.61,3.16,3.16,0,0,1,.58-.25,3.65,3.65,0,0,1,.55-.13,3.75,3.75,0,0,1,1.11,0,4.22,4.22,0,0,1,1.3.49,3.56,3.56,0,0,1,2.77-2.18,3.15,3.15,0,0,1,2.68,1.21c.77-2.55,2.32-3.81,4.21-3.38.59.13,1.06.66,1.4,1.57a32.48,32.48,0,0,0,3.92-2.6,18.07,18.07,0,0,0-1.32-4.92c-1.55-3.43-5-7.25-10-11A44.83,44.83,0,0,0,99.39,162c0,.05,0,.09.07.14a1.5,1.5,0,0,1-.41,1.49,5.62,5.62,0,0,1-4,2H95l-.82,5.49c2.27.89,3.43,4.14,3.12,8.94a6,6,0,0,1-2.18,4.6,4.93,4.93,0,0,1-3,1,5.31,5.31,0,0,1-1-.09c-2.82-.55-4.29-3.59-4-6.1.28-2.66,1.65-6.31,3.64-7.82a3.57,3.57,0,0,1,2-.78l.84-5.59a5.36,5.36,0,0,1-2.69-2.89,1.43,1.43,0,0,1,.17-1.54,1.17,1.17,0,0,1,.4-.27,44.86,44.86,0,0,0-13.61,2.29c-6,2.15-10.11,4.89-12.6,7.72a26.94,26.94,0,0,0-2.87,4.53A36.28,36.28,0,0,0,77.69,187Z"/><path class="cls-1" d="M75.31,151.72c1.08.17,2.19-1.31,2.49-3.28s-.34-3.71-1.42-3.87-2.2,1.3-2.49,3.28S74.23,151.56,75.31,151.72Z"/><path class="cls-1" d="M113.65,157.39c1.08.16,2.19-1.31,2.49-3.29s-.34-3.71-1.42-3.87-2.2,1.31-2.49,3.29S112.57,157.23,113.65,157.39Z"/><path class="cls-5" d="M98,162.61a10,10,0,0,0-2.82-.76h0a10.67,10.67,0,0,0-2.91,0,3.68,3.68,0,0,0,2.58,2.31A4,4,0,0,0,98,162.61Z"/><path class="cls-6" d="M92.38,178.21A7.93,7.93,0,0,1,95.87,180v0c.22-3.43-.35-7.24-2.61-7.61a2,2,0,0,0-1.59.46c-1.37,1-2.47,3.55-2.91,5.75A8.07,8.07,0,0,1,92.38,178.21Z"/><path class="cls-7" d="M92.1,179.64a7.37,7.37,0,0,0-3.53.48,4,4,0,0,0,2.88,4,3.44,3.44,0,0,0,2.8-.65,4,4,0,0,0,1.27-1.8A6.78,6.78,0,0,0,92.1,179.64Z"/><path class="cls-8" d="M107.22,276.18a81.42,81.42,0,0,1-10.54-.61v8.59c1,.35,4,1.06,11.29,1.06,6.57,0,8.49-.84,9-1.16v-2.25c-9.33-.08-13.65-1.93-13.22-2.65s6.74-1.66,13.22-2.28v-1.29c-2.25.28-4.93.48-7.65.56C108.65,276.17,108,276.18,107.22,276.18Z"/><path class="cls-8" d="M78.76,276.11a71.47,71.47,0,0,1-9.21-.55v1.32c6.48.62,12.79,1.55,13.22,2.28s-3.89,2.57-13.22,2.65v2.25c.48.32,2.4,1.16,9,1.16,7.28,0,10.25-.71,11.29-1.06v-8.45A100.91,100.91,0,0,1,78.76,276.11Z"/><path class="cls-8" d="M64.37,236.08A5.15,5.15,0,0,0,62,237.85a16.46,16.46,0,0,0,3.71,5.94.77.77,0,0,1,0-.15s.1-3.44.24-7.87A4.69,4.69,0,0,0,64.37,236.08Z"/><path class="cls-8" d="M55.87,213.67a3.61,3.61,0,0,0-3.3,3.74,18.38,18.38,0,0,1,4.57,4.39A4.49,4.49,0,0,1,59,219.7l.25-.14a.49.49,0,0,0,0-.12c0-1,0-1.94.07-2.89A25.27,25.27,0,0,0,55.87,213.67Z"/><path class="cls-8" d="M65.71,231.57c0-.32-.11-.64-.17-1l-.07-.37a13.75,13.75,0,0,1-1.3-.75A10.41,10.41,0,0,1,60.38,225a6,6,0,0,0-1.1,1.11,38.24,38.24,0,0,1,1.2,5.34c.05.29.11.59.16.88a6.08,6.08,0,0,1,2.76-1.16A4,4,0,0,1,65.71,231.57Z"/><path class="cls-8" d="M99.59,226a9.69,9.69,0,0,0,4.9-1.95,24.12,24.12,0,0,1-2.85-5.9c-.16-.48-.31-1-.45-1.48q-.36-1.29-.63-2.67c-.25-1.3-.45-2.65-.58-4l-.12,0a4.27,4.27,0,0,1-1.48-.58l-.18-.12-3.62,2.17a52,52,0,0,1,1.15,6.7,40.16,40.16,0,0,1,.12,7.73A14.91,14.91,0,0,0,99.59,226Z"/><path class="cls-8" d="M98.17,193.3a4.79,4.79,0,0,1,.73-.62l.08-.05,0,0h-.42a56.62,56.62,0,0,1-8.36-.64,55.28,55.28,0,0,1-9.72-2.35c1.69,1.34,5.26,3,12.75,3.57A42.14,42.14,0,0,0,98.17,193.3Z"/><path class="cls-8" d="M61.2,131.47a37.56,37.56,0,0,1,4.09-5.34,6,6,0,0,1-1.6-4.31,7,7,0,0,1,3.17-5.3,6.08,6.08,0,0,1,8.9,1.74,37.87,37.87,0,0,1,6.09-2.42,13,13,0,0,0-6.9-6.25,11.24,11.24,0,0,0-3.82-.66,13.68,13.68,0,0,0-7.61,2.46A14,14,0,0,0,57.07,122,12,12,0,0,0,61.2,131.47Z"/><path class="cls-8" d="M139.34,122.73a12.71,12.71,0,0,0-10.41-5.06,13,13,0,0,0-8.43,4,38.42,38.42,0,0,1,5.12,4.09,6.1,6.1,0,0,1,9,1,7,7,0,0,1,1.48,6,6.08,6.08,0,0,1-2.79,3.66,38.06,38.06,0,0,1,2.35,6.3,11.94,11.94,0,0,0,6.71-7.82C143.41,130.92,142.24,126.3,139.34,122.73Z"/><path class="cls-8" d="M61,178.07l.86-1.29-.16-.21C61.39,177.11,61.15,177.62,61,178.07Z"/><path class="cls-8" d="M122.17,185.52c.07.64.15,1.42.15,1.41,0-.5,0-1-.09-1.46Z"/><path class="cls-8" d="M131.89,151.57c.14-.59,1.61-1.1,3.5-1.28h.15a38.75,38.75,0,0,0-.87-5.74c0-.24-.12-.47-.17-.71l-.18-.7A37.21,37.21,0,0,0,132,136.9l-.33-.67-.35-.66a33.48,33.48,0,0,0-2.78-4.39,35.79,35.79,0,0,0-2.89-3.38c-.17-.18-.34-.35-.52-.52l-.51-.51a36.59,36.59,0,0,0-5.1-4l-.61-.4-.61-.37a43.18,43.18,0,0,0-13-5.15c-.14.64-.29,1.4-.47,2.25h0c.6.13,1.18.27,1.74.41l.71.19.52.14c1.18.34,2.24.69,3.17,1.06a14.82,14.82,0,0,1,2.28,1.09c2.26,1.35,2.82,2.38,1,2.38a71.37,71.37,0,0,1-10.42-.6c-.16.69-.33,1.37-.51,2a15.91,15.91,0,0,1,4.57,2.22c1.45,1.09,1.94,1.77,1,2.13a20.18,20.18,0,0,1-7,.36c-.86,2.19-1.8,3.67-2.79,3.53s-1.46-1.85-1.64-4.2a19.74,19.74,0,0,1-6.46-2.37c-.84-.63-.18-1.14,1.52-1.75a15.91,15.91,0,0,1,4.9-.79c0-.73.07-1.48.11-2.21A89.38,89.38,0,0,1,87,120.24c-1.49-.54-.67-1.38,1.91-1.93a33.4,33.4,0,0,1,8.39-.38l.49,0,.21-2.28c-1.28-.1-2.56-.16-3.81-.16a41.86,41.86,0,0,0-10.32,1.26l-.69.18-.71.21a36.35,36.35,0,0,0-6,2.37l-.64.34c-.22.11-.44.22-.65.34a37.18,37.18,0,0,0-3.75,2.4,34.37,34.37,0,0,0-4,3.38l-.52.53-.51.54a35.55,35.55,0,0,0-4,5.29L62,133c-.12.21-.25.42-.38.63a40.92,40.92,0,0,0-2.1,4.25c-.18.43-.36.88-.53,1.32,2,.71,3.66,1.92,3.64,2.47s-2.38.93-4.82,1.09a44.39,44.39,0,0,0-1.16,5.39,43.36,43.36,0,0,0-.49,6.63c2,.07,3.95.42,4.23.88s-1.64,1.72-4,3.1c.12,1.21.3,2.4.53,3.56l1,.16c.34.06.68.1,1,.19l.93.22c.29.08.58.12.83.21a11.92,11.92,0,0,1,1.21.43,2,2,0,0,1,.41.29.22.22,0,0,1,0,.3.16.16,0,0,1-.11.05h0a2,2,0,0,1-.5,0,9.38,9.38,0,0,1-1.19-.34c-.24-.08-.52-.12-.8-.19l-.91-.19c-.31-.07-.64-.11-1-.16l-.66-.09A35.6,35.6,0,0,0,58.14,167l.41-.09,1.74-.33a10.22,10.22,0,0,1,1.24-.18,1.47,1.47,0,0,1,.49.07h0a.2.2,0,0,1,.13.27.23.23,0,0,1-.07.1,1.81,1.81,0,0,1-.44.22c-.29.1-.71.15-1.21.26l-1.71.36-.29.07a32.58,32.58,0,0,0,3.44,6.6c.18.26.35.52.53.77a26.94,26.94,0,0,1,2.87-4.53c2.49-2.83,6.65-5.57,12.6-7.72a44.86,44.86,0,0,1,13.61-2.29,10,10,0,0,1,3.91-.13c1.57.24,3.5.7,4,1.57a44.83,44.83,0,0,1,11.3,5.79c5.06,3.8,8.49,7.62,10,11a18.07,18.07,0,0,1,1.32,4.92l.77-.62a32,32,0,0,0,4.92-5.08l-.15-.09-1.45-.91c-.42-.27-.79-.46-1-.65a1.63,1.63,0,0,1-.32-.36.21.21,0,0,1,.08-.3.2.2,0,0,1,.11,0,1.55,1.55,0,0,1,.47.1,7.79,7.79,0,0,1,1.07.59l1.49.88.23.14c.67-.92,1.31-1.87,1.9-2.87-.38,0-.76-.08-1.13-.1-.6,0-1.16-.1-1.64-.1a11,11,0,0,1-1.16-.06,1.7,1.7,0,0,1-.45-.15h0a.22.22,0,0,1-.07-.3.18.18,0,0,1,.08-.07,1.34,1.34,0,0,1,.44-.15,10.73,10.73,0,0,1,1.19,0c.49,0,1.06,0,1.67.06s1,.07,1.52.11a34.86,34.86,0,0,0,1.77-3.63c-2.14-2.44-3.24-3.73-2.63-4.29s2-.18,4,.46a44.81,44.81,0,0,0,1.44-6.41,41.94,41.94,0,0,0,.47-5.66C133.33,153.26,131.7,152.31,131.89,151.57ZM114,135.73a1.71,1.71,0,0,1,.43-.74,3.39,3.39,0,0,1,.76-.55,6.72,6.72,0,0,1,.71-.35l.4-.17c.09,0,.19-.06.28-.09a6.43,6.43,0,0,1,.7-.2,6.89,6.89,0,0,1,5.42.89l.39.26.34.27c.22.2.45.38.65.59a10,10,0,0,1,1.09,1.3,11.38,11.38,0,0,1,.81,1.34,13.6,13.6,0,0,1,.57,1.27,7.71,7.71,0,0,1,.56,2,2.43,2.43,0,0,1,0,.6.8.8,0,0,1-.07.22v0a.44.44,0,0,1-.58.2.5.5,0,0,1-.14-.1l-.14-.16a2.82,2.82,0,0,1-.29-.47,4.81,4.81,0,0,1-.3-.76c-.1-.29-.22-.62-.38-1s-.33-.73-.54-1.11a9.51,9.51,0,0,0-.74-1.13,8.57,8.57,0,0,0-.93-1.08c-.17-.17-.36-.32-.54-.48l-.3-.23-.28-.18a5.72,5.72,0,0,0-2.6-.88,6.43,6.43,0,0,0-1.4.06,7.17,7.17,0,0,0-.73.16l-.28.09a3.71,3.71,0,0,0-.4.15,4.08,4.08,0,0,0-.51.23,7.49,7.49,0,0,1-.68.35,3,3,0,0,1-.72.21h0a.46.46,0,0,1-.5-.41A.32.32,0,0,1,114,135.73ZM81.11,129.9l-.19-.08a5.18,5.18,0,0,0-.56-.17c-.21-.05-.43-.09-.65-.12a5.87,5.87,0,0,0-1.33,0,5.06,5.06,0,0,0-.68.09,4.68,4.68,0,0,0-.67.15,5,5,0,0,0-.7.22,4.34,4.34,0,0,0-.63.28l-.63.3c-.21.11-.39.25-.58.37s-.38.23-.56.36l-.5.41a8.51,8.51,0,0,0-.87.8c-.27.24-.47.52-.68.74a4.46,4.46,0,0,1-.51.58,3.36,3.36,0,0,1-.43.31,1.14,1.14,0,0,1-.19.1.45.45,0,0,1-.6-.23.5.5,0,0,1,0-.13h0a1.25,1.25,0,0,1,0-.22,2.84,2.84,0,0,1,.16-.57,3,3,0,0,1,.47-.74,10,10,0,0,1,.72-.86,12.15,12.15,0,0,1,1-.95L73,130c.19-.16.41-.3.63-.45s.43-.3.67-.44l.74-.36a5.11,5.11,0,0,1,.78-.36,7.67,7.67,0,0,1,.77-.26,7.09,7.09,0,0,1,.87-.18,7.89,7.89,0,0,1,.85-.09A7.12,7.12,0,0,1,80,128a6.39,6.39,0,0,1,1.43.39l.09,0a5.3,5.3,0,0,1,.59.27,6.44,6.44,0,0,1,.63.36l0,0c.18.12.35.25.51.37l.43.37a2.76,2.76,0,0,1,.58.73,1.87,1.87,0,0,1,.19.59,1.8,1.8,0,0,1,0,.23.44.44,0,0,1-.46.42.28.28,0,0,1-.13,0l0,0a.9.9,0,0,1-.19-.08,3.78,3.78,0,0,1-.42-.28,7,7,0,0,1-.53-.48l-.35-.28-.4-.27-.13-.07A6.1,6.1,0,0,0,81.11,129.9Zm-5.56,31.53a4.07,4.07,0,0,1-.5,0,3.89,3.89,0,0,1-.49-.12c-2.91-.89-4.53-5.65-3.69-11.22a16.23,16.23,0,0,1,2.63-7c1.39-1.93,3-2.87,4.68-2.62,3.22.48,5.06,5.46,4.18,11.34a15.19,15.19,0,0,1-3.18,7.67A5,5,0,0,1,75.55,161.43Zm38.53,5.82a4.38,4.38,0,0,1-.51,0c-1.49-.22-2.68-1.42-3.44-3.21a15.36,15.36,0,0,1-.73-8.13,16.28,16.28,0,0,1,2.63-7c1.39-1.93,3-2.86,4.68-2.62s2.94,1.62,3.71,3.88a16.4,16.4,0,0,1,.47,7.46c-.82,5.49-3.68,9.53-6.68,9.65Z"/><path class="cls-8" d="M108.73,190.49a2.29,2.29,0,0,1,.21.23h0l0,.05c.09.11.16.21.24.32l.09.1.12.17a13.26,13.26,0,0,1,.74,1.1l.16.27c.13-.18.28-.38.43-.61l.09-.14c.1-.16.21-.34.31-.52a7.69,7.69,0,0,0,.39-.69c.15-.3.29-.6.42-.91h0c-.15-.22-.3-.44-.46-.63a1.91,1.91,0,0,0-1.54-.84,2,2,0,0,0-1.42,1,3.75,3.75,0,0,0-.24.44c0,.05,0,.1-.07.16l.09.08.1.1Z"/><path class="cls-8" d="M117,187.79h0s0-.09,0-.12a5.21,5.21,0,0,0-.16-.63,1.75,1.75,0,0,0-.45-.86c-1.3-.28-2,1.09-2.39,2.16-.08.26-.15.51-.2.7a1.8,1.8,0,0,0-.05.19h0c0,.15-.09.31-.14.46s-.1.29-.16.44-.13.33-.2.49l-.21.45c-.07.14-.13.28-.2.41s-.09.16-.13.24-.24.43-.37.63c-.25.42-.5.79-.72,1.11s-.38.53-.51.69l.07.15a.89.89,0,0,1,.08.17,4,4,0,0,1,.33.88,2.36,2.36,0,0,1,0,.87.18.18,0,0,1,0,.09.41.41,0,0,1-.33.25.38.38,0,0,1-.15,0,.33.33,0,0,1-.16-.07h0l-.14-.11a2.55,2.55,0,0,1-.42-.49,3.15,3.15,0,0,1-.27-.45l0-.07-.23-.45a1.09,1.09,0,0,0-.08-.15l0-.06-.06-.12-.26-.47h0l0,0-.18-.3c-.16-.27-.34-.55-.53-.83s-.56-.76-.88-1.13h0l0,0,0,0a1.29,1.29,0,0,1-.16-.17l-.3-.3a.52.52,0,0,1-.11-.1l-.07,0h0l-.17-.14-.23-.17-.17-.12-.29-.17-.23-.11a2.59,2.59,0,0,0-.52-.16,2.5,2.5,0,0,0-.61,0s-.3,0-.29.07l-.21.09a1.45,1.45,0,0,0-.36.31s-.09.11-.14.17a4.28,4.28,0,0,0-.26.42c0,.06,0,.13-.08.19l-.07.18h0l-.15.41.06,0,.28.1.26.14h0a4.94,4.94,0,0,1,.76.49l.25.2a.23.23,0,0,1,.07.07l.28.25c.2.21.39.41.56.62l.25.33c.14.18.27.37.39.55s.24.37.34.55l.09.15,0,.09,0,0,.19.36.12.23.12.23.09.2a2.56,2.56,0,0,1,.11.24c.08.18.14.35.2.51s.07.23.09.33a2.31,2.31,0,0,1,0,.91.42.42,0,0,1-.5.33.41.41,0,0,1-.19-.08v0l-.07-.06c-.06-.06-.15-.15-.27-.29s-.14-.18-.21-.29a7.24,7.24,0,0,1-.44-.81,1.39,1.39,0,0,1-.11-.21c-.08-.14-.15-.29-.24-.44l-.12-.21,0,0-.07-.13-.15-.24-.15-.23a7.73,7.73,0,0,0-1.49-1.71c-.12-.1-.25-.19-.38-.28a3.43,3.43,0,0,0-.56-.31l-.16-.06-.13,0a1.8,1.8,0,0,0-.22-.06l-.23,0-.22,0a3.74,3.74,0,0,0-.55.05l-.2,0-.25.06a3.6,3.6,0,0,0-.89.31l-.24.13a2.63,2.63,0,0,0-.72.69,2.78,2.78,0,0,0-.21.27c-.08.14-.13.29-.2.43a3.43,3.43,0,0,1,.75.19,4.66,4.66,0,0,1,.68.3l.45.28.16.12a5.65,5.65,0,0,1,.8.72l.09.09.38.44a1,1,0,0,0,.08.11l.07.09c.14.19.28.38.4.57a.47.47,0,0,1,.06.09c.11.16.21.32.29.46s.19.33.27.48.19.43.26.62a4,4,0,0,1,.15.78,1.13,1.13,0,0,1,0,.3h0a.42.42,0,0,1-.47.36.39.39,0,0,1-.22-.11l-.14-.13-.06,0a6.13,6.13,0,0,1-.46-.57c-.19-.27-.39-.62-.64-1s-.39-.58-.63-.89l0,0-.09-.12q-.23-.25-.48-.51l0,0a3.62,3.62,0,0,0-.53-.42l-.1-.08-.18-.1,0,0a1.77,1.77,0,0,0-.31-.15,2,2,0,0,0-.76-.19H98.3a1,1,0,0,0-.38,0l-.19,0h-.06l-.13,0h0c-.16,0-.34.1-.48.16l-.31.15-.06,0-.08.06,0,0a3.78,3.78,0,0,0-.86.69l0,0a2.31,2.31,0,0,0-.31.39c-.07.09-.12.19-.18.28l0,.05a4.59,4.59,0,0,0-.51,1.35,3.91,3.91,0,0,0,0,1.71,2.88,2.88,0,0,0,.84,1.22,1.55,1.55,0,0,0,.65.35.63.63,0,0,0,.27,0l.1,0,.15-.13s.11-.08.11-.1.06-.07.09-.13l0,0L97,203a2.28,2.28,0,0,0,.11-.41,1.76,1.76,0,0,0,.06-.38,3.21,3.21,0,0,0,0-.59c0-.15,0-.25,0-.25l0-.1a.39.39,0,0,1,.43-.35.5.5,0,0,1,.21.09l0,0,.16.16,0,.06a1.82,1.82,0,0,1,.4.83,2.49,2.49,0,0,1-.13,1.47l-.21.42a4.09,4.09,0,0,1-.34.45c-.07.08-.12.11-.16.16h0a5.53,5.53,0,0,0,.79,2.77v0a2.37,2.37,0,0,0,.35.42.69.69,0,0,0,.13.11,1.66,1.66,0,0,0,.21.16,2.62,2.62,0,0,0,.5.26l.22.07h0a5.4,5.4,0,0,0,.74.14,5.82,5.82,0,0,0,.73,0h.27a10.13,10.13,0,0,0,2.46-.56q.34-.12.69-.27l.66-.29a18,18,0,0,0,2.37-1.38c.33-.22.66-.47,1-.73s.59-.47.88-.73a24.82,24.82,0,0,0,3-3.15l.45-.58.16-.2c.1-.13.18-.26.27-.39a19.73,19.73,0,0,0,2.61-5c.09-.25.17-.51.25-.76s.15-.53.22-.79a15.66,15.66,0,0,0,.47-5.12A7.93,7.93,0,0,0,117,187.79Z"/><path d="M140.47,121.81a14.17,14.17,0,0,0-11.62-5.59,14.45,14.45,0,0,0-9.58,4.61,46.08,46.08,0,0,0-17.48-6.17,46.21,46.21,0,0,0-18.53.78,14.43,14.43,0,0,0-7.81-7.21,14.1,14.1,0,0,0-12.74,2c-4.2,2.82-6.92,7.34-7.09,11.79a13.4,13.4,0,0,0,4.81,10.75,42.47,42.47,0,0,0-5.25,15.2,43.08,43.08,0,0,0,.14,14.23l-.57,0c-.66,0-1.27-.07-1.8-.07a7.17,7.17,0,0,0-1.28,0,1.37,1.37,0,0,0-.47.15h0a.18.18,0,0,0-.08.09.21.21,0,0,0,.1.28,1.85,1.85,0,0,0,.48.14c.3,0,.72,0,1.24.06s1.12.07,1.76.1l.81.09a35.36,35.36,0,0,0,1.18,4.27l-.11,0-1,.27c-.33.09-.66.16-1,.26l-1.7.53c-.48.19-.9.32-1.17.46a1.4,1.4,0,0,0-.39.3.24.24,0,0,0-.06.11.22.22,0,0,0,.18.24h0a1.76,1.76,0,0,0,.5,0c.29-.06.69-.21,1.17-.37l1.67-.49c.31-.09.63-.16,1-.24l1-.24.2-.05a33.59,33.59,0,0,0,4.68,8.51l.16.21A37.62,37.62,0,0,0,76.58,188.1a5.07,5.07,0,0,0-1.38,1.58c-5.34,4-14.18,12.44-15.75,25a29.1,29.1,0,0,0-4.5-3.36,4.15,4.15,0,0,0-5.54,1.16,3.77,3.77,0,0,0-.59,2.91,3.82,3.82,0,0,0,1.75,2.46c6.77,4.15,7.52,8.44,8.48,13.86.78,4.46,1.67,9.52,6.43,13.85.16.15.32.28.49.42l-.6,28.08a.71.71,0,0,0,.42.67,10.73,10.73,0,0,0,2.3.6v8.86a.8.8,0,0,0,0,.15v3.89a9.46,9.46,0,0,0-1.06.25.66.66,0,0,0-.29.17l-2.82,2.72a46.07,46.07,0,0,0-6.19,5.5.69.69,0,0,0-.17.73c-3.08,3-5.07,5.15-5.21,6.28,0,.05,0,.11,0,.16-.43,1.92-.8,5.92,2.72,8.15,2.17,1.38,5.29,2.06,9.42,2.06a69.74,69.74,0,0,0,13.43-1.61c7.88-1.6,13.89-5,14.54-6.31a13.93,13.93,0,0,0,.64-3.88.55.55,0,0,0,0-.25,50,50,0,0,0-.36-8.12,6.32,6.32,0,0,1,0-.77c0-.34,0-.76,0-1.26a2.93,2.93,0,0,0-.81-2,.75.75,0,0,0-.55-.2l-.08,0V275.52c.74-.11,1.08-.19,1.12-.2a.75.75,0,0,0,.55-.68c.23-5.19.6-10.74,1-14.27.17,2.46.28,5.66.37,8,.24,6.37.28,6.41.59,6.72a1.18,1.18,0,0,0,.38.2v14.91a2.91,2.91,0,0,0-.81,2c0,.5,0,.92,0,1.27s0,.67,0,.72a50.23,50.23,0,0,0-.38,8.17,1,1,0,0,0,0,.25,14,14,0,0,0,.65,3.88c.64,1.32,6.65,4.71,14.53,6.31a69.91,69.91,0,0,0,13.43,1.61c4.14,0,7.26-.69,9.42-2.06,3.52-2.22,3.15-6.22,2.73-8.15a.86.86,0,0,0,0-.16c-.14-1.13-2.13-3.24-5.2-6.28a1.81,1.81,0,0,0,0-.23.75.75,0,0,0-.21-.51,45.3,45.3,0,0,0-6.18-5.49l-2.82-2.72a.83.83,0,0,0-.3-.18,9.35,9.35,0,0,0-1.7-.32v-3.89a.77.77,0,0,0,0-.15v-8.81c3.09-.48,3.4-.9,3.48-1.44s-.56-21.87-.84-31h0c0-2.52-.09-7.44-.34-12.51a8.67,8.67,0,0,0,4.1-2.66c2.59-3,3.59-8.09,3-15.14-.72-8.15-5.83-14.25-9.87-17.86a16.64,16.64,0,0,0,.62-6.9,34.76,34.76,0,0,0,3.68-2.34l.06-.05a33.28,33.28,0,0,0,6.76-6.6l.24.16.84.53c.28.18.56.34.81.53l1.39,1a8.93,8.93,0,0,0,1,.68,1.71,1.71,0,0,0,.46.16h0a.25.25,0,0,0,.12,0,.23.23,0,0,0,.11-.28,1.46,1.46,0,0,0-.29-.39,10.39,10.39,0,0,0-1-.76l-1.4-1c-.25-.2-.53-.37-.8-.56l-.84-.56-.19-.12a36.45,36.45,0,0,0,2.24-3.49c1,.11,1.91.25,2.65.38.47.07.86.17,1.14.18a1.93,1.93,0,0,0,.47-.05.24.24,0,0,0,.09-.06.21.21,0,0,0,0-.31h0a1.29,1.29,0,0,0-.4-.24,8.12,8.12,0,0,0-1.16-.27c-.66-.13-1.48-.27-2.35-.4a44.38,44.38,0,0,0,3.88-29.9,13.39,13.39,0,0,0,7.74-8.88C144.93,130.85,143.66,125.74,140.47,121.81Zm1.92,13a11.94,11.94,0,0,1-6.71,7.82,38.06,38.06,0,0,0-2.35-6.3,6.08,6.08,0,0,0,2.79-3.66,7,7,0,0,0-1.48-6,6.1,6.1,0,0,0-9-1,38.42,38.42,0,0,0-5.12-4.09,13,13,0,0,1,8.43-4,12.71,12.71,0,0,1,10.41,5.06C142.24,126.3,143.41,130.92,142.39,134.79Zm-7,15.5c-1.89.18-3.36.69-3.5,1.28-.19.74,1.44,1.69,3.76,2.65a41.94,41.94,0,0,1-.47,5.66,44.81,44.81,0,0,1-1.44,6.41c-2.06-.64-3.53-.92-4-.46s.49,1.85,2.63,4.29a34.86,34.86,0,0,1-1.77,3.63c-.52,0-1-.09-1.52-.11s-1.18-.07-1.67-.06a10.73,10.73,0,0,0-1.19,0,1.34,1.34,0,0,0-.44.15.18.18,0,0,0-.08.07.22.22,0,0,0,.07.3h0a1.7,1.7,0,0,0,.45.15,11,11,0,0,0,1.16.06c.48,0,1,.06,1.64.1.37,0,.75.06,1.13.1-.59,1-1.23,2-1.9,2.87l-.23-.14-1.49-.88a7.79,7.79,0,0,0-1.07-.59,1.55,1.55,0,0,0-.47-.1.2.2,0,0,0-.11,0,.21.21,0,0,0-.08.3,1.63,1.63,0,0,0,.32.36c.24.19.61.38,1,.65l1.45.91.15.09a32,32,0,0,1-4.92,5.08l-.77.62a32.48,32.48,0,0,1-3.92,2.6c-.34-.91-.81-1.44-1.4-1.57-1.89-.43-3.44.83-4.21,3.38a3.15,3.15,0,0,0-2.68-1.21,3.56,3.56,0,0,0-2.77,2.18,4.22,4.22,0,0,0-1.3-.49,3.75,3.75,0,0,0-1.11,0,3.65,3.65,0,0,0-.55.13,3.16,3.16,0,0,0-.58.25,3.67,3.67,0,0,0-1.38,1.61,2,2,0,0,0-.11.26l-.09.2a52.64,52.64,0,0,1-11.51-.49c-.9-.14-1.78-.29-2.64-.46a52.81,52.81,0,0,1-5.64-1.43c-.65-.2-1.29-.42-1.91-.65l-.67-.25-.12-.05-.42-.16-.13,0-.31-.12-.24-.09-.32-.14-.35-.15A36.28,36.28,0,0,1,62.4,175.08c-.18-.25-.35-.51-.53-.77a32.58,32.58,0,0,1-3.44-6.6l.29-.07,1.71-.36c.5-.11.92-.16,1.21-.26a1.81,1.81,0,0,0,.44-.22.23.23,0,0,0,.07-.1.2.2,0,0,0-.13-.27h0a1.47,1.47,0,0,0-.49-.07,10.22,10.22,0,0,0-1.24.18l-1.74.33-.41.09a35.6,35.6,0,0,1-1.09-3.77l.66.09c.33,0,.66.09,1,.16l.91.19c.28.07.56.11.8.19a9.38,9.38,0,0,0,1.19.34,2,2,0,0,0,.5,0h0a.16.16,0,0,0,.11-.05.22.22,0,0,0,0-.3,2,2,0,0,0-.41-.29,11.92,11.92,0,0,0-1.21-.43c-.25-.09-.54-.13-.83-.21l-.93-.22c-.32-.09-.66-.13-1-.19l-1-.16c-.23-1.16-.41-2.35-.53-3.56,2.39-1.38,4.39-2.52,4-3.1s-2.26-.81-4.23-.88a43.36,43.36,0,0,1,.49-6.63,44.39,44.39,0,0,1,1.16-5.39c2.44-.16,4.8-.48,4.82-1.09s-1.68-1.76-3.64-2.47c.17-.44.35-.89.53-1.32a40.92,40.92,0,0,1,2.1-4.25c.13-.21.26-.42.38-.63l.38-.61a35.55,35.55,0,0,1,4-5.29l.51-.54.52-.53a34.37,34.37,0,0,1,4-3.38,37.18,37.18,0,0,1,3.75-2.4c.21-.12.43-.23.65-.34l.64-.34a36.35,36.35,0,0,1,6-2.37l.71-.21.69-.18a41.86,41.86,0,0,1,10.32-1.26c1.25,0,2.53.06,3.81.16L97.78,118l-.49,0a33.4,33.4,0,0,0-8.39.38c-2.58.55-3.4,1.39-1.91,1.93a89.38,89.38,0,0,0,10.42,2.46c0,.73-.08,1.48-.11,2.21a15.91,15.91,0,0,0-4.9.79c-1.7.61-2.36,1.12-1.52,1.75a19.74,19.74,0,0,0,6.46,2.37c.18,2.35.65,4.05,1.64,4.2s1.93-1.34,2.79-3.53a20.18,20.18,0,0,0,7-.36c1-.36.5-1-1-2.13a15.91,15.91,0,0,0-4.57-2.22c.18-.68.35-1.36.51-2a71.37,71.37,0,0,0,10.42.6c1.86,0,1.3-1-1-2.38a14.82,14.82,0,0,0-2.28-1.09c-.93-.37-2-.72-3.17-1.06l-.52-.14-.71-.19c-.56-.14-1.14-.28-1.74-.41h0c.18-.85.33-1.61.47-2.25a43.18,43.18,0,0,1,13,5.15l.61.37.61.4a36.59,36.59,0,0,1,5.1,4l.51.51c.18.17.35.34.52.52a35.79,35.79,0,0,1,2.89,3.38,33.48,33.48,0,0,1,2.78,4.39l.35.66.33.67a37.21,37.21,0,0,1,2.32,6.23l.18.7c.05.24.12.47.17.71a38.75,38.75,0,0,1,.87,5.74ZM116.65,193.7c-.07.26-.14.52-.22.79s-.16.51-.25.76a19.73,19.73,0,0,1-2.61,5c-.09.13-.17.26-.27.39l-.16.2-.45.58a24.82,24.82,0,0,1-3,3.15c-.29.26-.59.5-.88.73s-.66.51-1,.73a18,18,0,0,1-2.37,1.38l-.66.29q-.34.15-.69.27a10.13,10.13,0,0,1-2.46.56h-.27a5.82,5.82,0,0,1-.73,0,5.4,5.4,0,0,1-.74-.14h0l-.22-.07a2.62,2.62,0,0,1-.5-.26,1.66,1.66,0,0,1-.21-.16.69.69,0,0,1-.13-.11,2.37,2.37,0,0,1-.35-.42v0a5.53,5.53,0,0,1-.79-2.77h0c0-.05.09-.08.16-.16a4.09,4.09,0,0,0,.34-.45l.21-.42a2.49,2.49,0,0,0,.13-1.47,1.82,1.82,0,0,0-.4-.83l0-.06-.16-.16,0,0a.5.5,0,0,0-.21-.09.39.39,0,0,0-.43.35l0,.1s0,.1,0,.25a3.21,3.21,0,0,1,0,.59,1.76,1.76,0,0,1-.06.38A2.28,2.28,0,0,1,97,203l-.09.17,0,0c0,.06-.07.08-.09.13s-.06.06-.11.1l-.15.13-.1,0a.63.63,0,0,1-.27,0,1.55,1.55,0,0,1-.65-.35,2.88,2.88,0,0,1-.84-1.22,3.91,3.91,0,0,1,0-1.71,4.59,4.59,0,0,1,.51-1.35l0-.05c.06-.09.11-.19.18-.28a2.31,2.31,0,0,1,.31-.39l0,0a3.78,3.78,0,0,1,.86-.69l0,0,.08-.06.06,0,.31-.15c.14-.06.32-.11.48-.16h0l.13,0h.06l.19,0a1,1,0,0,1,.38,0h.13a2,2,0,0,1,.76.19,1.77,1.77,0,0,1,.31.15l0,0,.18.1.1.08a3.62,3.62,0,0,1,.53.42l0,0q.26.25.48.51l.09.12,0,0c.24.31.45.61.63.89s.45.74.64,1a6.13,6.13,0,0,0,.46.57l.06,0,.14.13a.39.39,0,0,0,.22.11.42.42,0,0,0,.47-.36h0a1.13,1.13,0,0,0,0-.3,4,4,0,0,0-.15-.78c-.07-.19-.16-.4-.26-.62s-.16-.31-.27-.48-.18-.3-.29-.46a.47.47,0,0,0-.06-.09c-.12-.19-.26-.38-.4-.57l-.07-.09a1,1,0,0,1-.08-.11l-.38-.44-.09-.09a5.65,5.65,0,0,0-.8-.72l-.16-.12-.45-.28a4.66,4.66,0,0,0-.68-.3,3.43,3.43,0,0,0-.75-.19c.07-.14.12-.29.2-.43a2.78,2.78,0,0,1,.21-.27,2.63,2.63,0,0,1,.72-.69l.24-.13a3.6,3.6,0,0,1,.89-.31l.25-.06.2,0a3.74,3.74,0,0,1,.55-.05l.22,0,.23,0a1.8,1.8,0,0,1,.22.06l.13,0,.16.06a3.43,3.43,0,0,1,.56.31c.13.09.26.18.38.28a7.73,7.73,0,0,1,1.49,1.71l.15.23.15.24.07.13,0,0,.12.21c.09.15.16.3.24.44a1.39,1.39,0,0,0,.11.21,7.24,7.24,0,0,0,.44.81c.07.11.15.2.21.29s.21.23.27.29l.07.06v0a.41.41,0,0,0,.19.08.42.42,0,0,0,.5-.33,2.31,2.31,0,0,0,0-.91c0-.1-.06-.22-.09-.33s-.12-.33-.2-.51a2.56,2.56,0,0,0-.11-.24l-.09-.2-.12-.23-.12-.23-.19-.36,0,0,0-.09-.09-.15c-.1-.18-.22-.36-.34-.55s-.25-.37-.39-.55l-.25-.33c-.17-.21-.36-.41-.56-.62l-.28-.25a.23.23,0,0,0-.07-.07l-.25-.2a4.94,4.94,0,0,0-.76-.49h0l-.26-.14-.28-.1-.06,0,.15-.41h0l.07-.18c0-.06,0-.13.08-.19a4.28,4.28,0,0,1,.26-.42c.05-.06.09-.12.14-.17a1.45,1.45,0,0,1,.36-.31l.21-.09s.28-.06.29-.07a2.5,2.5,0,0,1,.61,0,2.59,2.59,0,0,1,.52.16l.23.11.29.17.17.12.23.17.17.14h0l.07,0a.52.52,0,0,0,.11.1l.3.3a1.29,1.29,0,0,0,.16.17l0,0,0,0h0c.32.37.61.75.88,1.13s.37.56.53.83l.18.3,0,0h0l.26.47.06.12,0,.06a1.09,1.09,0,0,1,.08.15l.23.45,0,.07a3.15,3.15,0,0,0,.27.45,2.55,2.55,0,0,0,.42.49l.14.11h0a.33.33,0,0,0,.16.07.38.38,0,0,0,.15,0,.41.41,0,0,0,.33-.25.18.18,0,0,0,0-.09,2.36,2.36,0,0,0,0-.87,4,4,0,0,0-.33-.88.89.89,0,0,0-.08-.17l-.07-.15c.13-.16.31-.4.51-.69s.47-.69.72-1.11c.13-.2.25-.41.37-.63s.08-.16.13-.24.13-.27.2-.41l.21-.45c.07-.16.14-.33.2-.49s.11-.29.16-.44.09-.31.14-.46h0a1.8,1.8,0,0,1,.05-.19c0-.19.12-.44.2-.7.37-1.07,1.09-2.44,2.39-2.16a1.75,1.75,0,0,1,.45.86,5.21,5.21,0,0,1,.16.63s0,.08,0,.12h0a7.93,7.93,0,0,1,.11.79A15.66,15.66,0,0,1,116.65,193.7Zm7,33.11a7.22,7.22,0,0,1-3.09,2.11l-.71.22c-.23.06-.48.11-.72.15s-.74.11-1.13.14a13,13,0,0,1-9.94-3.44,14.88,14.88,0,0,1-1.57-1.69c-.15-.19-.3-.39-.44-.59s-.28-.4-.42-.6a21.44,21.44,0,0,1-2-3.87c-.13-.31-.24-.63-.36-1s-.24-.7-.36-1.06a35.75,35.75,0,0,1-1.43-7.23h.26a10.84,10.84,0,0,0,3.06-.72c.23-.08.45-.18.68-.28l.66-.3a20.67,20.67,0,0,0,4-2.65c.29-.23.57-.48.85-.73s.51-.48.77-.73a24.41,24.41,0,0,0,1.93-2.11l.46-.57c.1-.13.2-.25.29-.38s.1-.14.15-.21a21.6,21.6,0,0,0,2.74-5c3.76,3.51,8.3,9.16,8.94,16.45C126.87,219.39,126,224.12,123.66,226.81Zm-4.11,16.12v1.14a132.67,132.67,0,0,1-25.4,2.16l-3.82,0-.73,0-.74,0c-3.43-.09-7-.3-10.55-.74-2-.24-4-.56-6-1q-2.46-.51-4.86-1.23l-.29-.08c0-.25,0-.58,0-1,0-.23,0-.48,0-.75h0c0-1.06.08-2.45.13-4,0-.48,0-1,0-1.48,0-.1,0-.2,0-.3h0c0-.8,0-1.63.08-2.48,0-.67,0-1.36.06-2a23,23,0,0,0,7.11,1,48.07,48.07,0,0,0,8.8-.92,76.48,76.48,0,0,0,11.74-3.24.74.74,0,0,0,.45-.56.55.55,0,0,0,0-.12,15.84,15.84,0,0,0,2.68.21c.42,0,.85,0,1.31,0a11.22,11.22,0,0,0,5.68-2.22,17.29,17.29,0,0,0,1.73,1.88,14.47,14.47,0,0,0,10,3.85c.34,0,.67,0,1,0s.76-.07,1.13-.12C119.46,235.7,119.53,240.47,119.55,242.93Zm-1.15,31-.73.11-.73.1c-2,.26-4.59.48-7.7.58a83.06,83.06,0,0,1-12.56-.58L96,274c0-.11,0-.24,0-.4-.09-1.11-.17-3.32-.25-5.32,0-.87-.06-1.67-.09-2.43a73.92,73.92,0,0,0-.65-9,3.13,3.13,0,0,0,.63-.47c1.84-1.9,1.61-7,1.47-8.72,4.58-.08,8.59-.34,11.93-.65.64.81,3.83,4.32,10.84,4.7.27,8.89.58,19.81.6,21.75A12.73,12.73,0,0,1,118.4,273.91Zm4.14,18.78a50.82,50.82,0,0,1,5.3,4.73l-.41.16-.42.15-.28.09-.44.16-.71.26a9.76,9.76,0,0,0-2.14,1.08,31.47,31.47,0,0,0-3.37,2.89c-.42.41-.79.76-1.1,1-1-.25-4.66-3.83-5.08-4.68a3.81,3.81,0,0,1,1.13-2.1c.19-.23.42-.47.66-.71s.48-.45.76-.69l.47-.38.06,0c.24-.18.48-.35.73-.51s.48-.3.72-.43a12.79,12.79,0,0,1,2.13-.93c.31-.09.57-.16.82-.21a3.8,3.8,0,0,1,.73-.1l.14.06A1.69,1.69,0,0,1,122.54,292.69Zm-1.68-1.52a6.66,6.66,0,0,0-.7.19l-.77.27c-.31.12-.64.27-1,.43s-.48.24-.72.37-.49.28-.73.44-.63.41-.94.64a13.71,13.71,0,0,0-1.61,1.43c-.21.23-.42.46-.61.69s-.37.47-.53.7c-.71,1.05-1,2.07-.71,2.82s4.27,5.05,6.1,5.5a1.76,1.76,0,0,0,.38,0,1.06,1.06,0,0,0,.7-.23c.39-.3.82-.71,1.33-1.19a29.05,29.05,0,0,1,3.22-2.77,9.31,9.31,0,0,1,2.17-1.05l.71-.24h0l.68-.24.66-.27c1.24,1.22,2.77,2.76,3.77,3.92a11.25,11.25,0,0,0-3.29.14,5.86,5.86,0,0,0-.75.17,7.13,7.13,0,0,0-.78.26l-.31.12A11.15,11.15,0,0,0,122.9,307c-.21.29-.41.58-.58.85s-.33.54-.47.78-.39.72-.51,1a75.61,75.61,0,0,1-15.08-2.28,31.17,31.17,0,0,1-10.73-5.12c-.06-1.29,0-2.81,0-4.16s.18-2.67.24-3.2a2.36,2.36,0,0,1,0-.26,4,4,0,0,0,.06-1.22c0-.33,0-.73,0-1.22a1.12,1.12,0,0,1,0-.32l0,0a7.56,7.56,0,0,0,.72.47,14.91,14.91,0,0,0,4.47,1.54l.38.07a31.51,31.51,0,0,0,6.66.57,1.88,1.88,0,0,0,1.32-.47l0-.07a9.68,9.68,0,0,1,4.78-3.57,13.38,13.38,0,0,1,2.63-.67l.32,0,.41,0a5.43,5.43,0,0,1,.69,0h0a6.85,6.85,0,0,1,1.12.21ZM131.3,311c-3.71,2.35-11,2.43-21.79.25l-.37-.08a37.38,37.38,0,0,1-12.41-4.82,3.94,3.94,0,0,1-.67-.55l-.06-.07a5.43,5.43,0,0,1-.32-1.37c0-.11,0-.23-.05-.35.62.43,1.46,1,2.48,1.54a33.86,33.86,0,0,0,7.78,3.12,78.88,78.88,0,0,0,10.49,1.93c3.26.37,5.37.41,5.41.41a.74.74,0,0,0,.69-.45,1.19,1.19,0,0,1,.06-.14,15.94,15.94,0,0,1,1.23-2.17q.33-.5.75-1a9.36,9.36,0,0,1,3.2-2.61l.06,0a6.35,6.35,0,0,1,.9-.31,9.1,9.1,0,0,1,4.62,0l0,0c.06.27.12.59.17.94a10.1,10.1,0,0,1,.08,1A5.2,5.2,0,0,1,131.3,311ZM117,288.24h0a13.71,13.71,0,0,0-3.06.74,11.1,11.1,0,0,0-5.43,4,24.59,24.59,0,0,1-7-.59,11.35,11.35,0,0,1-4.75-1.86v-4.86c1.53.43,4.79,1,11.29,1,5,0,7.61-.49,9-1h0Zm-9.75-12.06c.73,0,1.43,0,2.07,0,2.72-.08,5.4-.28,7.65-.56v1.29c-6.48.62-12.79,1.55-13.22,2.28s3.89,2.57,13.22,2.65v2.25c-.48.32-2.4,1.16-9,1.16-7.28,0-10.25-.71-11.29-1.06v-8.59A81.42,81.42,0,0,0,107.22,276.18Zm-16-2.13-.73.1-.72.09a99.32,99.32,0,0,1-11,.42,68.43,68.43,0,0,1-9.22-.57l-.73-.11-.73-.13c-.57-.11-1-.22-1.25-.3l.46-21.81h0A14,14,0,0,0,74,250c.3-.17.6-.35.9-.55s.53-.37.79-.57a13.07,13.07,0,0,0,2.05-2l-.1-.07.51.06c3.51.43,7,.64,10.38.74l.8,0,.78,0h0c0,2.12.27,8.26,2.79,9.34-.47,1.91-1,6.4-1.44,17Zm-.12,31.63-.1.11a3.28,3.28,0,0,1-.47.39A36,36,0,0,1,78,311.13l-.37.08c-10.75,2.18-18.08,2.1-21.78-.25a5.22,5.22,0,0,1-2.31-4.78c0-.35,0-.69.08-1a8.53,8.53,0,0,1,.18-.95h0a8.79,8.79,0,0,1,3.91-.14,8.26,8.26,0,0,1,.86.2,5.46,5.46,0,0,1,.77.28l.33.17A8.48,8.48,0,0,1,62,306.46c.35.37.67.75,1,1.12s.43.6.61.88a15.79,15.79,0,0,1,1.06,1.92l.07.14a.71.71,0,0,0,.67.45h0s2.16,0,5.41-.41a77,77,0,0,0,10.49-1.93A33.51,33.51,0,0,0,89,305.51c1-.57,1.85-1.1,2.47-1.53,0,.11,0,.23,0,.34A5.76,5.76,0,0,1,91.14,305.68Zm.45-3.58a31.09,31.09,0,0,1-10.72,5.12,75.58,75.58,0,0,1-15.09,2.28c-.1-.22-.26-.52-.44-.86s-.28-.48-.45-.74-.33-.52-.52-.78a11.16,11.16,0,0,0-4.43-3.89,8.33,8.33,0,0,0-1-.36c-.25-.07-.5-.13-.76-.18s-.48-.09-.73-.12a11.85,11.85,0,0,0-2.65,0c1-1.16,2.53-2.7,3.76-3.92l.21.09.69.27.45.15.27.09a10.67,10.67,0,0,1,2.64,1.21,29.05,29.05,0,0,1,3.22,2.77c.5.48.94.9,1.32,1.2a1.17,1.17,0,0,0,.71.23,1.89,1.89,0,0,0,.38-.05c1.83-.45,5.69-4.62,6.1-5.5a3.1,3.1,0,0,0-.7-2.79c-.15-.23-.33-.46-.52-.7s-.39-.46-.61-.68a13.19,13.19,0,0,0-1.63-1.46,14.68,14.68,0,0,0-1.58-1c-.24-.14-.49-.26-.73-.38s-.49-.23-.73-.33-.49-.21-.73-.29-.54-.18-.8-.25l-.26-.07,1.31-1.27.48-.1h0a6.75,6.75,0,0,1,.72-.12l.51,0h.22a11.55,11.55,0,0,1,3.27.71,9.62,9.62,0,0,1,4.77,3.58l.06.07a2.1,2.1,0,0,0,1.46.48,31.51,31.51,0,0,0,6.27-.55l.63-.11a15.76,15.76,0,0,0,3.83-1.21c.27-.13.51-.26.72-.38s.49-.31.67-.44a1.14,1.14,0,0,1,0,.33c0,.48,0,.89,0,1.22a7.78,7.78,0,0,0,0,1l0,.13v0A54.64,54.64,0,0,1,91.59,302.1ZM65,292.37l.25,0a6,6,0,0,1,.87.17,11,11,0,0,1,1.92.73c.24.11.49.24.73.38s.49.28.73.44.47.31.7.49.35.28.52.42.52.46.75.68a8,8,0,0,1,.64.71c.84,1,1.18,1.81,1.1,2.06-.41.86-4,4.43-5.07,4.68-.31-.25-.68-.61-1.11-1a30.33,30.33,0,0,0-3.37-2.9A10.18,10.18,0,0,0,61.11,298l-.72-.26h0l-.68-.24h0l-.37-.15c.86-.85,1.77-1.72,2.61-2.49a21.36,21.36,0,0,1,3-2.42Zm20.68-.05a24.23,24.23,0,0,1-7,.59,11.13,11.13,0,0,0-5.44-4,12.3,12.3,0,0,0-3.69-.78h0v-2.47h0c1.36.53,4,1,9,1,6.5,0,9.76-.57,11.29-1v5.21A13,13,0,0,1,85.7,292.32Zm4.11-8.16c-1,.35-4,1.06-11.29,1.06-6.57,0-8.49-.84-9-1.16v-2.25c9.33-.08,13.65-1.93,13.22-2.65S76,277.5,69.55,276.88v-1.32a71.47,71.47,0,0,0,9.21.55,100.91,100.91,0,0,0,11-.4Zm-29.33-52.7a38.24,38.24,0,0,0-1.2-5.34,6,6,0,0,1,1.1-1.11,10.41,10.41,0,0,0,3.79,4.47,13.75,13.75,0,0,0,1.3.75l.07.37c.06.33.12.65.17,1a4,4,0,0,0-2.31-.39,6.08,6.08,0,0,0-2.76,1.16C60.59,232.05,60.53,231.75,60.48,231.46Zm-7.91-14.05a3.61,3.61,0,0,1,3.3-3.74,25.27,25.27,0,0,1,3.41,2.88c-.06.95-.09,1.9-.07,2.89a.49.49,0,0,1,0,.12l-.25.14a4.49,4.49,0,0,0-1.83,2.1A18.38,18.38,0,0,0,52.57,217.41Zm8.2-1.42c1-11.24,8.06-19.17,13.35-23.6l1.06-.86a3.66,3.66,0,0,0,.18.46,4.32,4.32,0,0,0,.4.68,6.3,6.3,0,0,0,.81,1,15.08,15.08,0,0,0,5.2,2.94,42.31,42.31,0,0,0,11,2.27l.57,0a6.57,6.57,0,0,0-.32,1.13,5.35,5.35,0,0,0,.08,2.48,4.38,4.38,0,0,0,1.39,2,3.15,3.15,0,0,0,1,.57,2.68,2.68,0,0,0,.64.11,6.68,6.68,0,0,0,1,3l-3,1.8c-.06-.2-.1-.31-.1-.34a.76.76,0,0,0-.66-.5c-.64,0-12.71-.59-21,.69a49,49,0,0,1,3.88-8.92.73.73,0,0,0-1.24-.76,50.38,50.38,0,0,0-4.27,10,19.25,19.25,0,0,0-3.09.85c-.29.1-.57.22-.83.34a.67.67,0,0,0-.35.39.69.69,0,0,0,0,.58.94.94,0,0,0,.14.19.72.72,0,0,0,.83.15c5.61-2.67,22.18-2.17,25.32-2.05,0,.06,0,.12,0,.18s.13.45.2.73.11.47.18.74a54.28,54.28,0,0,1,1,6.08,39.72,39.72,0,0,1,.13,7.18c0,.28,0,.53-.07.75s0,.42-.06.57l-.28.09c-3.25,1.15-17.63,5.87-26.4,2.77-.25-.08-.48-.18-.72-.28l-.12-.05c-.2-.08-.4-.18-.6-.28l-.21-.1c-.29-.15-.56-.32-.83-.49l-.15-.09a9,9,0,0,1-3.28-3.93,12.88,12.88,0,0,1-1-4.94v-.26c0-.35,0-.69,0-1s0-.73,0-1.1S60.75,216.32,60.77,216ZM112,189.85h0c-.13.31-.27.61-.42.91a7.69,7.69,0,0,1-.39.69c-.1.18-.21.36-.31.52l-.09.14c-.15.23-.3.43-.43.61l-.16-.27a13.26,13.26,0,0,0-.74-1.1l-.12-.17-.09-.1c-.08-.11-.15-.21-.24-.32l0-.05h0a2.29,2.29,0,0,0-.21-.23l-.28-.3-.1-.1-.09-.08c0-.06,0-.11.07-.16a3.75,3.75,0,0,1,.24-.44,2,2,0,0,1,1.42-1,1.91,1.91,0,0,1,1.54.84C111.69,189.41,111.84,189.63,112,189.85ZM94.22,255.6a1,1,0,0,1-.53.1l-.12,0c-1.28-.34-1.94-4.65-2-8h4c.22,2.49.12,6.48-1.06,7.68A.93.93,0,0,1,94.22,255.6ZM100.56,214q.27,1.38.63,2.67c.14.5.29,1,.45,1.48a24.12,24.12,0,0,0,2.85,5.9,9.69,9.69,0,0,1-4.9,1.95,14.91,14.91,0,0,1-3.74-.18,40.16,40.16,0,0,0-.12-7.73,52,52,0,0,0-1.15-6.7l3.62-2.17.18.12a4.27,4.27,0,0,0,1.48.58l.12,0C100.11,211.3,100.31,212.65,100.56,214ZM98.17,193.3a42.14,42.14,0,0,1-4.92-.1c-7.49-.58-11.06-2.23-12.75-3.57A55.28,55.28,0,0,0,90.22,192a56.62,56.62,0,0,0,8.36.64H99l0,0-.08.05A4.79,4.79,0,0,0,98.17,193.3ZM97,195.57l-.44.14-.61.27a5.49,5.49,0,0,0-1.66,1.37l-.08.1-1.27-.07a41.47,41.47,0,0,1-4.94-.64,38.37,38.37,0,0,1-4.67-1.18c-2.69-.88-4.89-2-6-3.32a4,4,0,0,1-.56-.8,2.85,2.85,0,0,1-.28-.82v0h0c0-.19.2-.51.55-.88.18-.17.38-.35.6-.53l.33-.25,0,0a3.68,3.68,0,0,0,.25.4l.09.12a2.47,2.47,0,0,0,.21.27l.05.05A7.58,7.58,0,0,0,80,191.05c2.69,1.92,7.12,3.13,13.19,3.6,1.5.11,2.86.15,4.1.13A4.86,4.86,0,0,0,97,195.57ZM64.37,236.08a4.69,4.69,0,0,1,1.59-.31c-.14,4.43-.24,7.87-.24,7.87a.77.77,0,0,0,0,.15A16.46,16.46,0,0,1,62,237.85,5.15,5.15,0,0,1,64.37,236.08Zm3,11,0-.88h0l0-.9v-.58c1.39.41,2.79.77,4.21,1.07s2.94.58,4.42.8q-.27.28-.54.54a10.45,10.45,0,0,1-1.74,1.33c-.3.18-.59.34-.88.49a10.71,10.71,0,0,1-1,.44,13.49,13.49,0,0,1-3.65.85c-.37,0-.69,0-1,0Zm52.4,3.17c-.61,0-1.2-.1-1.75-.18a14,14,0,0,1-6.82-2.9c-.15-.12-.28-.24-.39-.34,4.44-.48,7.47-1,8.82-1.3C119.7,246.94,119.75,248.55,119.8,250.25ZM57.07,122a14,14,0,0,1,6.45-10.64,13.68,13.68,0,0,1,7.61-2.46,11.24,11.24,0,0,1,3.82.66,13,13,0,0,1,6.9,6.25,37.87,37.87,0,0,0-6.09,2.42,6.08,6.08,0,0,0-8.9-1.74,7,7,0,0,0-3.17,5.3,6,6,0,0,0,1.6,4.31,37.56,37.56,0,0,0-4.09,5.34A12,12,0,0,1,57.07,122Zm17.42-3.1a37.43,37.43,0,0,0-4,2.52,36.41,36.41,0,0,0-4.21,3.61,4.55,4.55,0,0,1-1.16-3.19,5.48,5.48,0,0,1,2.52-4.14,5.34,5.34,0,0,1,3-1,4.28,4.28,0,0,1,1.47.25A5,5,0,0,1,74.49,118.93Zm52.15,7.81a5,5,0,0,1,2.84-1.14h.21a5,5,0,0,1,3.82,2,5.45,5.45,0,0,1,1.2,4.7,4.67,4.67,0,0,1-2,2.71,36.24,36.24,0,0,0-3-4.68A34.88,34.88,0,0,0,126.64,126.74Z"/><path d="M78.18,140.44c-1.63-.25-3.29.69-4.68,2.62a16.23,16.23,0,0,0-2.63,7c-.84,5.57.78,10.33,3.69,11.22a3.89,3.89,0,0,0,.49.12,4.07,4.07,0,0,0,.5,0,5,5,0,0,0,3.63-2,15.19,15.19,0,0,0,3.18-7.67C83.24,145.9,81.4,140.92,78.18,140.44Zm-2.87,11.28c-1.08-.16-1.72-1.89-1.42-3.87s1.41-3.45,2.49-3.28,1.72,1.89,1.42,3.87S76.39,151.89,75.31,151.72Z"/><path d="M116.71,146.25c-1.63-.24-3.29.69-4.68,2.62a16.28,16.28,0,0,0-2.63,7,15.36,15.36,0,0,0,.73,8.13c.76,1.79,2,3,3.44,3.21a4.38,4.38,0,0,0,.51,0h.13c3-.12,5.86-4.16,6.68-9.65a16.4,16.4,0,0,0-.47-7.46C119.65,147.87,118.33,146.5,116.71,146.25Zm-4.48,7.27c.29-2,1.41-3.45,2.49-3.29s1.72,1.9,1.42,3.87-1.41,3.45-2.49,3.29S111.93,155.49,112.23,153.52Z"/><path d="M84.24,130.49a2.76,2.76,0,0,0-.58-.73l-.43-.37c-.16-.12-.33-.25-.51-.37l0,0a6.44,6.44,0,0,0-.63-.36,5.3,5.3,0,0,0-.59-.27l-.09,0A6.39,6.39,0,0,0,80,128a7.12,7.12,0,0,0-1.67-.08,7.89,7.89,0,0,0-.85.09,7.09,7.09,0,0,0-.87.18,7.67,7.67,0,0,0-.77.26,5.11,5.11,0,0,0-.78.36l-.74.36c-.24.14-.45.3-.67.44s-.44.29-.63.45l-.56.48a12.15,12.15,0,0,0-1,.95,10,10,0,0,0-.72.86,3,3,0,0,0-.47.74,2.84,2.84,0,0,0-.16.57,1.25,1.25,0,0,0,0,.22h0a.5.5,0,0,0,0,.13.45.45,0,0,0,.6.23,1.14,1.14,0,0,0,.19-.1,3.36,3.36,0,0,0,.43-.31,4.46,4.46,0,0,0,.51-.58c.21-.22.41-.5.68-.74a8.51,8.51,0,0,1,.87-.8l.5-.41c.18-.13.37-.23.56-.36s.37-.26.58-.37l.63-.3a4.34,4.34,0,0,1,.63-.28,5,5,0,0,1,.7-.22,4.68,4.68,0,0,1,.67-.15,5.06,5.06,0,0,1,.68-.09,5.87,5.87,0,0,1,1.33,0c.22,0,.44.07.65.12a5.18,5.18,0,0,1,.56.17l.19.08a6.1,6.1,0,0,1,.68.32l.13.07.4.27.35.28a7,7,0,0,0,.53.48,3.78,3.78,0,0,0,.42.28.9.9,0,0,0,.19.08l0,0a.28.28,0,0,0,.13,0,.44.44,0,0,0,.46-.42,1.8,1.8,0,0,0,0-.23A1.87,1.87,0,0,0,84.24,130.49Z"/><path d="M126,138.28a11.38,11.38,0,0,0-.81-1.34,10,10,0,0,0-1.09-1.3c-.2-.21-.43-.39-.65-.59l-.34-.27-.39-.26a6.89,6.89,0,0,0-5.42-.89,6.43,6.43,0,0,0-.7.2c-.09,0-.19,0-.28.09l-.4.17a6.72,6.72,0,0,0-.71.35,3.39,3.39,0,0,0-.76.55,1.71,1.71,0,0,0-.43.74.32.32,0,0,0,0,.14.46.46,0,0,0,.5.41h0a3,3,0,0,0,.72-.21,7.49,7.49,0,0,0,.68-.35,4.08,4.08,0,0,1,.51-.23,3.71,3.71,0,0,1,.4-.15l.28-.09a7.17,7.17,0,0,1,.73-.16,6.43,6.43,0,0,1,1.4-.06,5.72,5.72,0,0,1,2.6.88l.28.18.3.23c.18.16.37.31.54.48a8.57,8.57,0,0,1,.93,1.08,9.51,9.51,0,0,1,.74,1.13c.21.38.39.76.54,1.11s.28.68.38,1a4.81,4.81,0,0,0,.3.76,2.82,2.82,0,0,0,.29.47l.14.16a.5.5,0,0,0,.14.1.44.44,0,0,0,.58-.2v0a.8.8,0,0,0,.07-.22,2.43,2.43,0,0,0,0-.6,7.71,7.71,0,0,0-.56-2A13.6,13.6,0,0,0,126,138.28Z"/><path d="M99.39,162c-.5-.87-2.43-1.33-4-1.57a10,10,0,0,0-3.91.13,1.17,1.17,0,0,0-.4.27,1.43,1.43,0,0,0-.17,1.54,5.36,5.36,0,0,0,2.69,2.89l-.84,5.59a3.57,3.57,0,0,0-2,.78c-2,1.51-3.36,5.16-3.64,7.82-.27,2.51,1.2,5.55,4,6.1a5.31,5.31,0,0,0,1,.09,4.93,4.93,0,0,0,3-1,6,6,0,0,0,2.18-4.6c.31-4.8-.85-8-3.12-8.94l.82-5.49h.08a5.62,5.62,0,0,0,4-2,1.5,1.5,0,0,0,.41-1.49C99.44,162.07,99.41,162,99.39,162Zm-4.55,2.13a3.68,3.68,0,0,1-2.58-2.31,10.67,10.67,0,0,1,2.91,0h0a10,10,0,0,1,2.82.76A4,4,0,0,1,94.84,164.11Zm-3.39,20a4,4,0,0,1-2.88-4,7.37,7.37,0,0,1,3.53-.48,6.78,6.78,0,0,1,3.42,2,4,4,0,0,1-1.27,1.8A3.44,3.44,0,0,1,91.45,184.1Zm4.42-4.18v0a7.93,7.93,0,0,0-3.49-1.75,8.07,8.07,0,0,0-3.62.31c.44-2.2,1.54-4.7,2.91-5.75a2,2,0,0,1,1.59-.46C95.52,172.68,96.09,176.49,95.87,179.92Z"/></g></svg>