<svg xmlns="http://www.w3.org/2000/svg" viewBox="0 0 190 317"><defs><style>.cls-1{fill:#fff;}.cls-2{fill:#a7812b;}.cls-3{fill:#e33859;}.cls-4{fill:#eb848c;}.cls-5{fill:#231815;}.cls-6{fill:#0a5e7e;}.cls-7{fill:#168bd1;}.cls-8{fill:#fdde32;}.cls-9{fill:#e10b20;}.cls-10{fill:#4d4d4d;}</style></defs><title>login_img01</title><g id="頁面內容"><path class="cls-1" d="M146.58,37.08l-.07-.79a1.73,1.73,0,0,0-.21-1,2.18,2.18,0,0,1,0-.25,1.35,1.35,0,0,0-.22-.83,5.05,5.05,0,0,0-.58-1.77,1.1,1.1,0,0,0-.24-.58l-.15-.31a3.35,3.35,0,0,0-.52-.95,7.4,7.4,0,0,0-1-1.74l0-.05a4.91,4.91,0,0,0-.86-1.24l-.14-.16a1.41,1.41,0,0,0-.5-.66,1.14,1.14,0,0,0-.37-.43l-.13-.11a.72.72,0,0,0-.35-.48,1.25,1.25,0,0,0-.54-.53,18.13,18.13,0,0,0-4.73-3.9l-.33-.22a5.58,5.58,0,0,0-1.71-.85,3.59,3.59,0,0,0-1.43-.81l-.28-.11a.91.91,0,0,0-.65-.26l-.67-.3a11.69,11.69,0,0,0-2.16-.79l-.73-.21-1.74-.4a.91.91,0,0,0-.61-.13,20.25,20.25,0,0,0-4.73-.55,19.25,19.25,0,0,0-4.15,0l-2,.17a.63.63,0,0,1-.43,0,.59.59,0,0,1-.22-.4.82.82,0,0,0-.15-.34l0-.05a3.27,3.27,0,0,0-.58-1.42l0-.1a4.41,4.41,0,0,0-.7-1.34,4.76,4.76,0,0,0-.74-1.29l-.62-.85A7.83,7.83,0,0,0,109.52,9,7.89,7.89,0,0,0,108,7.54a2.15,2.15,0,0,0-.67-.54l-.62-.54a4.05,4.05,0,0,0-1.15-.88,1.64,1.64,0,0,0-.61-.41l-.17-.09a5.22,5.22,0,0,0-1.22-.82L103.13,4a11.45,11.45,0,0,0-2.19-1.08,5.16,5.16,0,0,0-1.26-.59L97.24,1.5l-.85-.21a9.07,9.07,0,0,0-2-.52,1.67,1.67,0,0,0-.65-.12A3.66,3.66,0,0,0,92.6.47,13,13,0,0,0,89.92.15a1.28,1.28,0,0,0-.73-.08H89.1a2.43,2.43,0,0,0-1-.06l-.2,0h-.1a1.72,1.72,0,0,0-.89,0,2.36,2.36,0,0,1-.29,0L85.23.11,83.64.26A13.79,13.79,0,0,0,80.7.84l-.23,0a1.42,1.42,0,0,0-.76.2h0a6.6,6.6,0,0,0-1.81.54,3.82,3.82,0,0,0-1.39.51,15.74,15.74,0,0,0-4.54,2.34,2.63,2.63,0,0,0-.92.65,7,7,0,0,0-1.42,1.18,6.2,6.2,0,0,0-1.13,1.16,4.3,4.3,0,0,0-.84.94c-.09.13-.18.25-.29.38l-.72.94a1.21,1.21,0,0,0-.29.45,1.59,1.59,0,0,0-.35.55l0,0a2.63,2.63,0,0,0-.56.95.84.84,0,0,0-.28.45,1.28,1.28,0,0,0-.17.29,10,10,0,0,0-1.53-1.13,2.06,2.06,0,0,0-.71-.49l-.25-.12A21.71,21.71,0,0,0,57.2,8a5.84,5.84,0,0,0-1.36-.54l-.43-.14h0l-.32-.11L54.34,7a22.21,22.21,0,0,0-6.08-.9L47,6.07a10,10,0,0,0-2.33,0c-.37,0-.73.08-1.11.09l-.91.08a18.19,18.19,0,0,0-4.67,1l-.22.06a1.9,1.9,0,0,0-.74.29,5,5,0,0,0-1.34.63l-.83.35-.16.07a6.4,6.4,0,0,0-1.16.66.9.9,0,0,0-.52.34,12.58,12.58,0,0,0-2.85,2.11,8.91,8.91,0,0,0-1.87,2l-.09.11a.86.86,0,0,0-.37.49,11,11,0,0,0-1.7,2.92A5.87,5.87,0,0,0,25.44,19l-.25.77a1.77,1.77,0,0,0-.27,1,.87.87,0,0,0-.11.51s0,.05,0,.07a3.85,3.85,0,0,0-.17,1.77,1.24,1.24,0,0,0,0,.47,5.18,5.18,0,0,0,.26,2.13,1.88,1.88,0,0,1,0,.34,1.71,1.71,0,0,0,.22.92l.13.69a22.49,22.49,0,0,0-5.13.2l-.28,0a10,10,0,0,0-2.66.46c-.28.08-.57.14-.88.2a7.3,7.3,0,0,0-1.33.36,10.46,10.46,0,0,0-2.23.76l-.26.12a5.45,5.45,0,0,0-1.37.64,6.74,6.74,0,0,0-1.53.81l-.25.16a15.25,15.25,0,0,0-2.63,2l-.26.26a7.67,7.67,0,0,0-1.36,1.37,11.23,11.23,0,0,0-1.76,2.4,4.6,4.6,0,0,0-.68,1.25,2,2,0,0,0-.42.91l-.12.34a10.11,10.11,0,0,0-1,3.2,7.86,7.86,0,0,0-.24,2.77l0,.27c0,.2,0,.4,0,.6a3.12,3.12,0,0,0,.25,1.45l0,.18a4.81,4.81,0,0,0,.4,1.62,1.8,1.8,0,0,0,.19.67l0,.09a.58.58,0,0,0,0,.18L2.37,52a.75.75,0,0,0,.21.48l0,.14,0,.08.28.45A5.65,5.65,0,0,0,4,55H4a.65.65,0,0,0,.25.43,6.38,6.38,0,0,0,1,1.34A6.31,6.31,0,0,0,6.32,58a.75.75,0,0,0,.46.47l.21.18a2.11,2.11,0,0,0,.81.74l.45.39,1.86,1.32a1.29,1.29,0,0,0,.68.43,4,4,0,0,0,1.15.67,7.28,7.28,0,0,0,1.39.72,6.51,6.51,0,0,0,1.75.8,13,13,0,0,0,2.4,1c-.07.24-.18.63-.31,1.15-3.81,3.93-5.71,8.7-5.35,13.43.84,11.07,13.54,19.15,28.32,18a31.47,31.47,0,0,0,19-7.76l.29-.09c.17,0,.26.14.44.36a1.58,1.58,0,0,0,.59.55l.11.11a9.23,9.23,0,0,0,.93.84,1.59,1.59,0,0,0,.71.62l1,.8a1.63,1.63,0,0,0,.74.55l1.49,1a4.37,4.37,0,0,0,1.06.71l.29.15a14.61,14.61,0,0,0,2.85,1.43l.76.32a9.52,9.52,0,0,0,2.21.79l.17,0,.53.16.14,0,.14,0a13.15,13.15,0,0,0,2.33.56,30.54,30.54,0,0,0,6.79.56l.85-.05a3.53,3.53,0,0,0,1,.05,5.53,5.53,0,0,0,1.17-.22l.55,0a3.54,3.54,0,0,0,1.32-.23,17.62,17.62,0,0,0,4.57-1.28,7.58,7.58,0,0,0,2.4-1,8.6,8.6,0,0,0,2.1-1.1.6.6,0,0,1,.08-.08l0,0a1.25,1.25,0,0,0,.59-.32.61.61,0,0,0,.36-.28,1.22,1.22,0,0,0,.68-.46l0,0,.07,0a8.27,8.27,0,0,0,1.62-1.43,2.33,2.33,0,0,0,.69-.72l0,0a4.65,4.65,0,0,0,.89-1c.07-.1.14-.21.21-.3l.15-.17a2.32,2.32,0,0,0,.45-.67,3.73,3.73,0,0,0,.64-1,3,3,0,0,0,.49-.89l0-.1a3.67,3.67,0,0,0,.52-1c0-.11.08-.21.14-.34l.15-.49a3.85,3.85,0,0,0,.51-1.52,1.72,1.72,0,0,0,.23-.88c.07-.19.13-.37.17-.47l.25.1a14.3,14.3,0,0,0,3.21,1.37l1.23.43a12,12,0,0,0,2.35.64,5.14,5.14,0,0,0,1.36.31l.51.08a12.06,12.06,0,0,0,3,.33,1.41,1.41,0,0,0,.77.07l.19,0a6.1,6.1,0,0,0,1.86,0l.32,0,.78,0a10.19,10.19,0,0,0,2.42-.32h.08a2.25,2.25,0,0,0,1-.21,20.68,20.68,0,0,0,4.6-1.43l.18-.08a11.67,11.67,0,0,0,2-1,1.13,1.13,0,0,0,.5-.27l.12-.09.35-.2a6.79,6.79,0,0,0,1.42-1,2.93,2.93,0,0,0,.74-.56l.22-.2a3.53,3.53,0,0,0,.94-.89l.25-.25a7.2,7.2,0,0,0,1.13-1.18,2,2,0,0,0,.45-.53l.1-.17a.74.74,0,0,0,.32-.39l0,0a5.47,5.47,0,0,0,.93-1.47,2.36,2.36,0,0,0,.55-1l.47-1.16a2.77,2.77,0,0,0,.4-1.3,2.16,2.16,0,0,0,.23-1,10.75,10.75,0,0,0,.17-3.65l-.07-.79,0-.27v-.14a.88.88,0,0,0-.19-.63A8.09,8.09,0,0,0,140,63.6a.68.68,0,0,0-.2-.5,9.41,9.41,0,0,0-1.42-2.9,1.08,1.08,0,0,0-.36-.57,4.67,4.67,0,0,0-.84-1.24,1.39,1.39,0,0,0-.55-.7A10.36,10.36,0,0,0,135,55.86a3,3,0,0,0-.31-.31l-.14-.13.39-.2a4,4,0,0,0,.91-.54,3.74,3.74,0,0,0,1-.62,23,23,0,0,0,4.88-3.84,4.73,4.73,0,0,0,1-1.07l.39-.5a6,6,0,0,0,1.07-1.39l.07-.11a5.18,5.18,0,0,0,.84-1.56,2.75,2.75,0,0,0,.5-1.12,8.33,8.33,0,0,0,.74-2.71.87.87,0,0,0,.11-.6s0-.1,0-.1a4,4,0,0,0,.18-1.56A9,9,0,0,0,146.58,37.08Z"/><ellipse class="cls-1" cx="102.62" cy="211.82" rx="85" ry="81.39"/><path class="cls-1" d="M124.25,289.35c-1.33.48-3.92,1-9,1.09-6.68.13-10-.55-11.64-1.09v3.83a11,11,0,0,0,4.43,1.68,23.81,23.81,0,0,0,6.61.55,10.64,10.64,0,0,1,5.16-3.73,10.43,10.43,0,0,1,4.39-.68v-1.65Z"/><path class="cls-2" d="M107.89,161a10.57,10.57,0,0,0-2.89-.69h0a10.77,10.77,0,0,0-3,0,4,4,0,0,0,2,2.08l.06-.5a.74.74,0,0,1,1.47.18l0,.44A4.49,4.49,0,0,0,107.89,161Z"/><path class="cls-2" d="M105,161.25a.74.74,0,0,0-.82.64l-.06.5a2.5,2.5,0,0,0,.66.19,2.56,2.56,0,0,0,.82-.07l0-.44A.74.74,0,0,0,105,161.25Z"/><path class="cls-3" d="M117.81,169.61c-1.81-.72-7.54-1.86-12.81-2.57l-.8-.1-.67-.08c-3.9-.42-8.13-.68-10.87-.68a17.05,17.05,0,0,0-2.31.11c-1.74.23-2.6.67-2.82,2.53A22.59,22.59,0,0,0,89.91,181c.27.5.58,1,.92,1.56.23.35.48.7.75,1.06.15.2.31.39.48.59l.33-.3.65-.55a13.44,13.44,0,0,1,9.89-3.17c4.76.56,8.08,3.94,9.63,5.89a18.76,18.76,0,0,0,2.16-2.08A22.53,22.53,0,0,0,120,172.74C120.18,170.89,119.44,170.25,117.81,169.61Z"/><path class="cls-4" d="M102.75,181.69A11.55,11.55,0,0,0,94.69,184c-.25.18-.49.35-.7.53s-.46.37-.65.55l-.27.24a14.06,14.06,0,0,0,5.1,3.19,15.43,15.43,0,0,0,6.51.83,14.08,14.08,0,0,0,1.49-.2c.43-.09.84-.19,1.24-.31a11.63,11.63,0,0,0,1.26-.42c.4-.16.79-.34,1.16-.53s.69-.37,1-.57.36-.22.53-.33C109.94,185.2,107,182.18,102.75,181.69Z"/><path class="cls-5" d="M70.18,247.06l.12-.95.13-1a17,17,0,0,1-3-5.35,5.3,5.3,0,0,1,1.78-1.49c0-1.54,0-3.35,0-5.28h-.23a6.24,6.24,0,0,0-2.83,1.14c0-.3-.09-.6-.14-.9a41.48,41.48,0,0,0-1.13-5.45,5.27,5.27,0,0,1,2-1.62,3.56,3.56,0,0,1,2.33-.1c0-.48,0-1,0-1.42s0-1.18,0-1.75h0c0-.51,0-1,0-1.51a25,25,0,0,0-8.65-8.7A4.21,4.21,0,0,0,55,213.79a3.75,3.75,0,0,0-.64,3,3.84,3.84,0,0,0,1.73,2.52c6.81,4.34,7.51,8.71,8.39,14.23C65.18,237.83,66,242.72,70.18,247.06Zm-5.57-25.78a4.47,4.47,0,0,0-1.89,2.11,18.58,18.58,0,0,0-4.58-4.53,3.66,3.66,0,0,1,3.41-3.75,23.25,23.25,0,0,1,5.59,5.66A3.92,3.92,0,0,0,64.61,221.28Z"/><path class="cls-5" d="M90.59,278.65l-.22,1c-.58,2.58-1.16,5.19-1.68,7.54-9,1-18.36-2.09-20.82-3l.29-1.33a7,7,0,0,1-.7-.25l0,0,.75-3.12.35-1.48.71.11.94-4.18c-.25-.13-.47-.25-.68-.38l-.66-.41-2.5,11.14a.9.9,0,0,0-.08.21l-.94,4.32,0,0a.73.73,0,0,1,.59-.26l.2,0h0a.8.8,0,0,1,.42.39,1.52,1.52,0,0,0,.18.28l.78-3.61h0c2.77,1,11.8,3.9,20.82,3.05h0L87.71,292l.44-.28a.75.75,0,0,1,.33-.1h.07a.84.84,0,0,1,.34.08.81.81,0,0,1,.27.25.47.47,0,0,1,0,.1l.85-4a1.48,1.48,0,0,0,0-.21L91.81,280l.27-1.2-.75,0Z"/><path class="cls-5" d="M88.25,302.42h-.06a.73.73,0,0,0-.78.49l0,0c-.19.52-2,5.3-5.5,6.38-.29-.21-.6-.5-1-.81s-1-.93-1.71-1.43c-.24-.19-.5-.37-.78-.55s-.57-.37-.88-.56a16.5,16.5,0,0,0-5.5-1.93,10.16,10.16,0,0,0-7.28,1,6,6,0,0,0-.61.43,7.27,7.27,0,0,0-.56.47,6,6,0,0,0-.44.47,11.81,11.81,0,0,1-1.24-3.39,1.36,1.36,0,0,1,0-.28.74.74,0,0,0-.61-.79h0a.72.72,0,0,0-.79.46.26.26,0,0,0-.05.09c-.06.25-1.49,6.21,1.83,9.42,1.74,1.67,7.64,3,13.43,3.09H76c12.66,0,12.77-8.47,12.8-11.26,0-.21,0-.39,0-.54s0,0,0-.07A.76.76,0,0,0,88.25,302.42Zm-12,11.17h-.46c-6.36-.06-11.3-1.59-12.42-2.67a6.44,6.44,0,0,1-1.7-4.23l.18.34a3.52,3.52,0,0,0,.87,1.11.9.9,0,0,0,1,.06.7.7,0,0,0,.3-.29,4.09,4.09,0,0,1,.87-1,5.73,5.73,0,0,1,.68-.51,7.14,7.14,0,0,1,1-.49,9.46,9.46,0,0,1,5.36-.39,16.23,16.23,0,0,1,3,.79,14,14,0,0,1,1.45.64,11.77,11.77,0,0,1,1.06.6A19.62,19.62,0,0,1,80,309.63a12.33,12.33,0,0,0,1.39,1.14.74.74,0,0,0,.58.1,7.76,7.76,0,0,0,3.74-2.28,12.48,12.48,0,0,0,1.44-1.82,8.38,8.38,0,0,1-.36,1.32C85.76,310.83,83.15,313.55,76.21,313.59Z"/><path class="cls-5" d="M125.73,280.33l-.74.11-.74.09v.88l.74-.07v5.08h-.74v1.33c-.6.32-2.71,1.09-9,1.21-7.64.16-10.65-.77-11.61-1.19v-7.92l-.73-.08-.74-.09v13.11h0a.72.72,0,0,1,.56-.2.61.61,0,0,1,.18.05.72.72,0,0,1,.35.22,2.44,2.44,0,0,0,.38.33v-3.83c1.6.54,5,1.22,11.64,1.09,5-.09,7.62-.61,9-1.09h0V291h0c.24,0,.49.06.74.1h0l.74.18h0v-3.16s0,0,0-.06Z"/><path class="cls-5" d="M168.38,243.25l-.13-.27-.06-.14,0,0,0-.07,0,0-.06-.09a3.12,3.12,0,0,0-.51-.62l0,0,0-.12a3,3,0,0,0-.36-2.16,4.66,4.66,0,0,0-1.32-1.43,7.26,7.26,0,0,0-1.6-.85,12.55,12.55,0,0,0-3.36-.72c-.28,0-.57,0-.85-.05l-.82,0c-.54,0-1.09,0-1.63,0-1.09,0-2.18.09-3.26.18l-1,.11a3,3,0,0,0-.4-1.34c-10.75-17.59-11-18-18.7-29a66.59,66.59,0,0,0-11.59-13.2,1.34,1.34,0,0,1,.21.77,1.91,1.91,0,0,1-.06.33,2.67,2.67,0,0,1-.31.73,66.73,66.73,0,0,1,10.54,12.21c7.63,11,7.92,11.41,18.65,29a1.66,1.66,0,0,1,.19.78,1.39,1.39,0,0,1-.1.64l-.08.16-.45.87a21.39,21.39,0,0,1-1.67,2.53,14.41,14.41,0,0,1-7,5.09,7.15,7.15,0,0,1-.7.19c-.2,0-.41.11-.63.15l-.26,0c-.26.05-.51.1-.77.13h0a1.37,1.37,0,0,1-.79-.15,1.53,1.53,0,0,1-.56-.49c-1.41-2-3.2-4.21-5.26-6.73q-1.5-1.81-3.11-3.82c0,.42,0,.83,0,1.24s0,.82,0,1.22c.64.79,1.26,1.56,1.87,2.3,2.05,2.5,3.81,4.65,5.2,6.63a2.94,2.94,0,0,0,2.36,1.29.76.76,0,0,0,0,.11c.24.52.48,1,.74,1.54.51,1,1.07,2,1.65,3q.43.72.9,1.44c.31.47.63.95,1,1.41a12.88,12.88,0,0,0,2.42,2.61,5.44,5.44,0,0,0,.84.53,3,3,0,0,0,1.08.33,2,2,0,0,0,.32,0h.39l.13,0,.25-.05a3.1,3.1,0,0,0,1-.44,2.4,2.4,0,0,0,.83-.9,2.88,2.88,0,0,0,.34-1.08,6.31,6.31,0,0,0-.1-1.92c-.11-.59-.26-1.14-.39-1.68-.07-.26-.13-.52-.17-.75h0l.47.13c.52.16,1.06.34,1.61.49a19.27,19.27,0,0,0,3.41.7q.44,0,.9.06h.88a10.68,10.68,0,0,0,1.78-.21,6.79,6.79,0,0,0,3.39-1.57,3,3,0,0,0,.65-.9,2.35,2.35,0,0,0,.24-1.09,5.28,5.28,0,0,0,1.27-.84,3.4,3.4,0,0,0,.9-1.21,2.79,2.79,0,0,0,.22-1.29,3.83,3.83,0,0,0,.62-.4,2.55,2.55,0,0,0,.91-1.45A3,3,0,0,0,168.38,243.25Zm-3.57,4.82a3.63,3.63,0,0,1-.74.52,3.24,3.24,0,0,0-.57-.5,9.51,9.51,0,0,0-2.42-1.11l-.38-.11-.5-.15-.37-.1-.93-.22c-.52-.12-1.05-.22-1.57-.31l-.47-.08a18.33,18.33,0,0,0-2-.17,13.83,13.83,0,0,0-1.44,0,.37.37,0,0,0-.24.12.34.34,0,0,0-.1.16.38.38,0,0,0,.26.47c.57.17,1.15.31,1.72.45l1.5.34.74.17,1.07.24,1,.25.39.1a11.38,11.38,0,0,1,2.59,1l.25.15a1.34,1.34,0,0,1,.38.37.44.44,0,0,1,.06.16l0,0a.89.89,0,0,1,0,.11v.11a1,1,0,0,1-.19.6,1.61,1.61,0,0,1-.24.29,5.47,5.47,0,0,1-2.62,1.14,10,10,0,0,1-3.09.1,18.27,18.27,0,0,1-3.12-.66l-1.58-.5c-.28-.08-.55-.17-.87-.24h0a2.32,2.32,0,0,0-.62-.06,1,1,0,0,0-.33.07h0l-.06,0-.1.05-.08.06a1.05,1.05,0,0,0-.28.29,1.49,1.49,0,0,0-.13.25,1.67,1.67,0,0,0-.1.74,3.83,3.83,0,0,0,.05.52c.06.32.12.6.19.88.13.55.27,1.07.36,1.58a4.9,4.9,0,0,1,.08,1.4,1,1,0,0,1-.43.82,1.48,1.48,0,0,1-.49.2l-.16,0h-.31c-.08,0-.06,0-.09,0a2.57,2.57,0,0,1-1.09-.53,11.21,11.21,0,0,1-2.1-2.27c-.33-.43-.63-.87-.94-1.33s-.59-.91-.88-1.38c-.56-.94-1.11-1.89-1.61-2.86-.2-.38-.38-.76-.56-1.15l.75-.18c.27-.07.54-.14.8-.23s.56-.19.83-.3a16.18,16.18,0,0,0,6.51-5,22,22,0,0,0,2.54-4c.46-.05.93-.11,1.4-.15,1-.08,2.1-.14,3.15-.15.53,0,1.06,0,1.59,0,.26,0,.51,0,.78,0s.5,0,.76.05a10.94,10.94,0,0,1,2.9.64,4,4,0,0,1,2.07,1.57,1.52,1.52,0,0,1,.19.51,12,12,0,0,0-2-.6,26.64,26.64,0,0,0-4.2-.48l-1.66,0a8.2,8.2,0,0,0-1.29.07,5.53,5.53,0,0,0-.83.22l-.26.11-.07,0-.06.06a.41.41,0,0,0-.13.24.4.4,0,0,0,.35.44h.07l0,0,.12,0a5.33,5.33,0,0,0,.79.15,10.69,10.69,0,0,0,1.24.07c.48,0,1,0,1.6.07.83.06,1.77.15,2.73.31.4.07.79.14,1.2.24a9.3,9.3,0,0,1,1.89.62l.1.05a2.87,2.87,0,0,1,.78.52h0a1.46,1.46,0,0,1,.23.29l0,0h0l.06.14.13.27a2.09,2.09,0,0,1,.08.34c0,.05,0,.11,0,.17s0,.1,0,.15a.93.93,0,0,1-.33.51l-.18.12a2.16,2.16,0,0,0-.25-.27,4.29,4.29,0,0,0-1.22-.76,11.11,11.11,0,0,0-2.07-.64l-.27-.06-.55-.1-.83-.14c-1-.15-1.9-.23-2.72-.3-.6-.05-1.14-.08-1.63-.1-.21,0-.4,0-.58,0s-.48,0-.68,0a3.79,3.79,0,0,0-1.1.27.46.46,0,0,0-.2.19.42.42,0,0,0,.18.56h0l.07,0a4.4,4.4,0,0,0,1,.29,9.66,9.66,0,0,0,1.12.13h.1c.47,0,1,.08,1.59.14s1.28.14,2,.25l.89.14.84.17.19,0a10.92,10.92,0,0,1,2,.62l.16.08a2.62,2.62,0,0,1,.59.38.47.47,0,0,1,.1.11l0,0h0l.05.1.05.09,0,0,0,.07s0,0,0,0a.27.27,0,0,0,0,.12,1.09,1.09,0,0,1-.05.56A1.65,1.65,0,0,1,164.81,248.07Z"/><path class="cls-5" d="M124.43,122.91c1.7-.08,1.1-1.14-1.4-2.43a37.65,37.65,0,0,0-8.43-2.82c-1.45-.32-3-.59-4.57-.78-1.37-.17-2.73-.27-4-.32a38.57,38.57,0,0,0-9.49.71c-2.74.66-3.57,1.54-1.94,2a98,98,0,0,0,11.29,2.08c1.13.16,2.32.32,3.57.47,1.47.18,2.86.33,4.17.46A94.7,94.7,0,0,0,124.43,122.91Z"/><path class="cls-5" d="M113.14,124.15a18.48,18.48,0,0,0-3.84-.9,19.1,19.1,0,0,0-3.44-.08,15.68,15.68,0,0,0-5,1.11c-1.8.77-2.5,1.39-1.59,2.08a19.76,19.76,0,0,0,6.92,2.44c.75.15,1.55.28,2.39.38,1,.13,2,.19,2.94.22a19,19,0,0,0,6.78-.74c1-.45.52-1.22-1-2.4A15.33,15.33,0,0,0,113.14,124.15Z"/><path class="cls-5" d="M71.42,176.64A32.57,32.57,0,0,1,67.74,170c.73-.19,1.43-.36,2-.49a12.4,12.4,0,0,0,1.23-.3l.29-.14.15-.1a.17.17,0,0,0,.06-.1.22.22,0,0,0-.13-.28,1.75,1.75,0,0,0-.51-.05h-.12a11,11,0,0,0-1.13.2l-2.17.48a31.17,31.17,0,0,1-1.21-3.8c.5,0,1,.11,1.47.19l.19,0c.32.06.64.1.93.17l.16,0,.66.14.76.2.46.1a1.52,1.52,0,0,0,.5,0h0a.24.24,0,0,0,.11-.06.22.22,0,0,0,0-.31,1.92,1.92,0,0,0-.42-.29,7.9,7.9,0,0,0-1.24-.4l-.54-.13-.31-.07-.95-.19h-.08l-1.24-.19-.7-.09-.18-.78c-.08-.42-.17-.85-.24-1.28s-.13-.83-.19-1.25l0-.21A43.66,43.66,0,0,1,65,156a46.52,46.52,0,0,1,.34-5.82,44,44,0,0,1,1.11-5.88,40.06,40.06,0,0,1,1.44-4.5A38.64,38.64,0,0,1,70,135.3l.35-.66c.12-.21.25-.42.38-.63a35.07,35.07,0,0,1,4-5.47l.5-.57.52-.55a35.36,35.36,0,0,1,7.66-6c.21-.13.43-.25.65-.37l.65-.36a38.68,38.68,0,0,1,6.08-2.58l.71-.23.7-.2A43.4,43.4,0,0,1,104.06,116c.65,0,1.31,0,2,0,1.33,0,2.68.15,4.06.32,1.57.19,3.11.45,4.61.77a43.87,43.87,0,0,1,12.55,4.69l.63.36.63.4a36.83,36.83,0,0,1,5.29,4l.54.5.54.52a35.77,35.77,0,0,1,3,3.35,35,35,0,0,1,3,4.38l.36.66.36.67a36.86,36.86,0,0,1,2.53,6.27c.07.23.14.47.2.7l.21.72a40.43,40.43,0,0,1,1,5.2c.16,1.36.26,2.74.29,4.15a45.15,45.15,0,0,1-.31,6.22,47.8,47.8,0,0,1-1,5.57,41.79,41.79,0,0,1-1.41,4.52,36.7,36.7,0,0,1-1.84,4.13C140,174,138.85,174,138,174a7.92,7.92,0,0,0-1.2.06,1.49,1.49,0,0,0-.45.16.3.3,0,0,0-.08.08.22.22,0,0,0,.09.3h0a1.38,1.38,0,0,0,.45.13,10.15,10.15,0,0,0,1.18,0c.79,0,1.79.05,2.82.13a34.32,34.32,0,0,1-1.84,3l-1.77-1a8.21,8.21,0,0,0-1.11-.56,1.44,1.44,0,0,0-.49-.09l-.11,0a.24.24,0,0,0-.07.31,1.94,1.94,0,0,0,.34.35,11.88,11.88,0,0,0,1.06.63l1.66,1a32.27,32.27,0,0,1-4.86,5.31,34.82,34.82,0,0,1-13.76,7.28l-.93.25-1,.24c.57-.1.9-.19,1-.22h0a.5.5,0,0,1,.12,0h.11l.13,0h.09c.3.1.63.22,1,.36h0c.23.1.48.21.71.33l.28.15a35,35,0,0,0,18.34-12.91l.25.15c1.17.7,2.32,1.43,3.16,2,.42.28.76.54,1,.68a1.55,1.55,0,0,0,.46.15h0a.2.2,0,0,0,.11,0,.23.23,0,0,0,.11-.3,1.59,1.59,0,0,0-.29-.4,8,8,0,0,0-1-.75c-.84-.6-2-1.36-3.15-2.09l-.21-.12a36.86,36.86,0,0,0,2.18-3.59c1,.08,1.94.19,2.7.3.48.06.88.16,1.17.16a1.83,1.83,0,0,0,.47-.07.24.24,0,0,0,.09-.06.22.22,0,0,0,0-.32,1.3,1.3,0,0,0-.42-.23,7.5,7.5,0,0,0-1.18-.24c-.67-.11-1.51-.23-2.4-.33a45.06,45.06,0,0,0,3.09-30.49,13.62,13.62,0,0,0,7.61-9.24c1-4.41-.41-9.57-3.76-13.47a14.36,14.36,0,0,0-11.95-5.35,14.69,14.69,0,0,0-9.61,5,49.41,49.41,0,0,0-36.71-4.41,14.74,14.74,0,0,0-8.17-7.14,14.34,14.34,0,0,0-12.88,2.35c-4.19,3-6.82,7.65-6.87,12.18a13.65,13.65,0,0,0,5.17,10.77A43.19,43.19,0,0,0,63.87,150a45.55,45.55,0,0,0-.18,9.52c-2.41-2.49-4.75-5-6.89-7.55.12-.2.23-.38.34-.54s.65-.88,1.17-1.56c2-2.65,3.88-5.15,4.36-6.46a3.35,3.35,0,0,0-.8-3.49,3.74,3.74,0,0,0-3.93-1c-1.36.43-2.59,1.73-3.77,3-.86.9-2,2.13-2.54,2.07a1,1,0,0,1-.3-.26c-1-1.14-2.41-4.53-3.54-7.25a44.38,44.38,0,0,0-2.08-4.64,4.38,4.38,0,0,0-4.22-2.32,3.45,3.45,0,0,0-2.81,2.76c-.36,1.43.55,3.83,1.43,6.16a14.77,14.77,0,0,1,1,3.26.59.59,0,0,1-.74.29,44.31,44.31,0,0,1-3.26-4.18c-.61-.84-1.2-1.63-1.58-2.11-1.53-1.95-3.87-4.33-6.53-2.62-3.27,2.1-.76,6.2.07,7.55.57.93,1.19,1.91,1.77,2.83.9,1.44,2,3.16,2.42,4l-.39-.16L32,146.9c-2.81-1.37-5.9-2.85-7-3a3.44,3.44,0,0,0-3.8,2.11c-.52,1.37-.15,3.41,2.43,5,.77.49,1.5.94,2.17,1.35a31.49,31.49,0,0,1,4.87,3.34l.07.08a13.51,13.51,0,0,1-1.59,0c-1.78,0-4,0-5.51.94a3.09,3.09,0,0,0-1.5,3.29c.28,1.08,1.53,2.95,6.75,3.33,2.2.16,3.87.36,5.21.51a35.38,35.38,0,0,0,4.06.32c.56,0,1.14,0,1.75-.09a457.72,457.72,0,0,0,31.12,37.27l0-.33a.73.73,0,0,1,.23-.46.27.27,0,0,1,.08-.07l.52-.37a452,452,0,0,1-30.31-36.28c3-.55,4.88-1.65,7.91-3.73A20.63,20.63,0,0,0,56,153.34c2.47,2.87,5.19,5.78,8,8.6.13.86.27,1.7.45,2.53-.89,0-1.73-.05-2.41-.05a10.63,10.63,0,0,0-1.3.07,1.61,1.61,0,0,0-.48.18.24.24,0,0,0-.08.09.22.22,0,0,0,.1.29,1.67,1.67,0,0,0,.49.13c.31,0,.74,0,1.27,0,.74,0,1.65,0,2.61.11A36.08,36.08,0,0,0,66,169.63l-.11,0c-1.35.38-2.69.81-3.68,1.18a8,8,0,0,0-1.18.5,1.42,1.42,0,0,0-.39.32.22.22,0,0,0-.05.11.22.22,0,0,0,.19.24h0a1.46,1.46,0,0,0,.5,0c.29-.07.69-.23,1.18-.4,1-.34,2.3-.74,3.64-1.09l.2-.06c3.49,8.59,10.18,15.3,19.47,19.38a8.84,8.84,0,0,1,.77-.48h0l.33-.17a5.06,5.06,0,0,1,1.1,0,25.76,25.76,0,0,0,4.94,1.59C83.51,188.17,76.2,183.28,71.42,176.64Zm-.12-64a13.84,13.84,0,0,1,8-2.72,11.35,11.35,0,0,1,3.57.57,13.19,13.19,0,0,1,7.2,6.19,38.27,38.27,0,0,0-6.12,2.6,6.64,6.64,0,0,0-3.29-2.57,6.49,6.49,0,0,0-5.81,1.05,7,7,0,0,0-3.07,5.47,6.12,6.12,0,0,0,1.73,4.32,37.1,37.1,0,0,0-4,5.54,12.12,12.12,0,0,1-4.44-9.46C65.09,119.6,67.49,115.39,71.3,112.67Zm2,10.61A5.57,5.57,0,0,1,75.7,119a5.4,5.4,0,0,1,3.12-1.06,4.21,4.21,0,0,1,1.36.22A5,5,0,0,1,82.66,120a37.11,37.11,0,0,0-8.15,6.43A4.69,4.69,0,0,1,73.25,123.28ZM148.64,122c3.05,3.54,4.37,8.2,3.44,12.16a12.12,12.12,0,0,1-6.59,8.14,37.63,37.63,0,0,0-2.57-6.33,6.15,6.15,0,0,0,2.73-3.8,7.05,7.05,0,0,0-1.67-6,6.19,6.19,0,0,0-9.19-.7,39,39,0,0,0-5.32-4,13.21,13.21,0,0,1,8.45-4.25A12.88,12.88,0,0,1,148.64,122Zm-12.78,4.43a4.94,4.94,0,0,1,2.84-1.23,5,5,0,0,1,4.16,1.89,5.57,5.57,0,0,1,1.35,4.74,4.66,4.66,0,0,1-2,2.81,36.31,36.31,0,0,0-3.14-4.67A38.66,38.66,0,0,0,135.86,126.46ZM55.18,151.83l-.18.32a19.53,19.53,0,0,1-6.31,6.78c-3.16,2.17-4.87,3.16-8.08,3.62l-.58.07-.27,0-.87.07a28,28,0,0,1-4.6-.3c-1.35-.16-3-.35-5.28-.51-3.64-.27-5.19-1.33-5.42-2.23a1.66,1.66,0,0,1,.88-1.68,7.49,7.49,0,0,1,3.85-.71h.83c1.69,0,3,0,3.23-1.05a1.89,1.89,0,0,0-.61-1.55,30.12,30.12,0,0,0-5.17-3.58l-2.17-1.35c-1.55-1-2.23-2.19-1.83-3.26a2,2,0,0,1,2.18-1.18,54.61,54.61,0,0,1,6.58,2.9l.91.44c.7.32,1.59.64,2.21.2a1.19,1.19,0,0,0,.45-1.17c0-.52-.65-1.53-2.82-5-.58-.92-1.19-1.88-1.76-2.82-2.29-3.73-1.49-4.92-.53-5.53.6-.38,1.84-1.18,4.57,2.29.37.47.94,1.25,1.55,2.08,2.69,3.67,3.39,4.5,3.91,4.68a2.08,2.08,0,0,0,2.56-.92c.48-.74,0-2-.92-4.53-.68-1.82-1.62-4.3-1.38-5.28A2,2,0,0,1,41.7,131a2.87,2.87,0,0,1,2.73,1.59,45.93,45.93,0,0,1,2,4.46c1.29,3.12,2.62,6.35,3.8,7.68a1.93,1.93,0,0,0,1.17.73c1.3.17,2.48-1.07,3.84-2.52a9.66,9.66,0,0,1,3.14-2.59,2.26,2.26,0,0,1,2.42.57,1.91,1.91,0,0,1,.49,2c-.45,1.21-2.77,4.26-4.16,6.08-.55.72-1,1.28-1.21,1.61l-.12.2-.41.66Z"/><path class="cls-5" d="M87.56,138.55c-3.29-.4-6.43,4-7.16,10a16.68,16.68,0,0,0,.69,7.57c.84,2.27,2.22,3.63,3.88,3.83l.42,0c1.52,0,3-1,4.26-2.82a18.16,18.16,0,0,0,1.78-14.76C90.59,140.11,89.21,138.75,87.56,138.55Zm-.72,9.11c-.25,2-1.34,3.54-2.44,3.41s-1.8-1.88-1.55-3.89,1.33-3.55,2.43-3.41S87.08,145.64,86.84,147.66Z"/><path class="cls-5" d="M124.23,164.38a3,3,0,0,0,.42,0c1.52,0,3-1,4.26-2.82a16.52,16.52,0,0,0,2.47-7.19h0c.73-6-1.28-11-4.56-11.39s-6.43,4-7.16,10S120.94,164,124.23,164.38ZM122.51,152c.24-2,1.34-3.55,2.44-3.41s1.8,1.87,1.55,3.89-1.33,3.54-2.43,3.41S122.27,154,122.51,152Z"/><path class="cls-5" d="M92.81,129.49l.06,0a.25.25,0,0,0,.12,0,.44.44,0,0,0,.46-.44,2,2,0,0,0,0-.23,1.82,1.82,0,0,0-.22-.59,2.9,2.9,0,0,0-.6-.72l-.11-.09-.34-.28-.28-.19a2.2,2.2,0,0,0-.25-.17,3.78,3.78,0,0,0-.4-.22,7.28,7.28,0,0,0-.89-.41,7,7,0,0,0-1.56-.38,7.93,7.93,0,0,0-2.56.08,6.93,6.93,0,0,0-.87.22,5.85,5.85,0,0,0-.78.28,7.2,7.2,0,0,0-.73.33l-.07,0a13.91,13.91,0,0,0-1.41.86A13.18,13.18,0,0,0,80.82,129c-.2.21-.39.42-.56.62s-.51.62-.71.9a3.13,3.13,0,0,0-.45.76,2.12,2.12,0,0,0-.14.59,1,1,0,0,0,0,.23v0a.39.39,0,0,0,.05.14.45.45,0,0,0,.61.18l.19-.1a3.62,3.62,0,0,0,.42-.33c.32-.31.65-.84,1.17-1.38a11.57,11.57,0,0,1,.86-.85c.32-.28.68-.55,1-.82a11,11,0,0,1,1.21-.71c.21-.09.44-.23.64-.29a5.41,5.41,0,0,1,.71-.24,4.37,4.37,0,0,1,.67-.17,5.5,5.5,0,0,1,.69-.11,6.18,6.18,0,0,1,1.36,0,6.7,6.7,0,0,1,1.23.26,5.89,5.89,0,0,1,.84.36l.19.09.42.26,0,0,.33.25.26.23.29.24.43.27A1.09,1.09,0,0,0,92.81,129.49Z"/><path class="cls-5" d="M124.52,131.39a1.51,1.51,0,0,1-.17.1,3,3,0,0,0-.76.59,1.68,1.68,0,0,0-.42.76.33.33,0,0,0,0,.14.46.46,0,0,0,.52.4h0a3.55,3.55,0,0,0,1.09-.42l.31-.18.36-.19a5.92,5.92,0,0,1,.56-.23l.14-.05a6.4,6.4,0,0,1,2.3-.33,5.7,5.7,0,0,1,2.66.82l.3.18.31.22c.19.16.38.3.56.47a7.5,7.5,0,0,1,1,1.07,8.8,8.8,0,0,1,.78,1.13c.23.38.42.76.59,1.11a10.42,10.42,0,0,1,.41,1,5.81,5.81,0,0,0,.32.76c.12.2.23.36.31.47l.15.15a.45.45,0,0,0,.14.1.43.43,0,0,0,.59-.22v0a.66.66,0,0,0,.06-.22,2.3,2.3,0,0,0,0-.62,7.5,7.5,0,0,0-.62-2c-.08-.19-.17-.38-.26-.58s-.23-.46-.36-.69a11.89,11.89,0,0,0-.85-1.34,10.53,10.53,0,0,0-1.14-1.29l-.58-.49-.11-.09-.35-.26a4.53,4.53,0,0,0-.4-.26,7.28,7.28,0,0,0-3.46-1,7.62,7.62,0,0,0-2.57.4l-.49.18-.23.1C125,131.15,124.74,131.27,124.52,131.39Z"/><path class="cls-5" d="M105,190.81q.7-.06,1.38-.18.84-.16,1.62-.39a15.79,15.79,0,0,0,3.23-1.38c.35-.21.7-.42,1-.65s.78-.55,1.15-.84a23.92,23.92,0,0,0,8-14.45c.36-2.91-1.26-4-3.06-4.69s-7.73-1.93-13.18-2.65l.18-1.55A5.88,5.88,0,0,0,109,162a1.55,1.55,0,0,0,.37-1.53,1.61,1.61,0,0,0-.78-.74,10.16,10.16,0,0,0-3.4-.88,15.12,15.12,0,0,0-2.56-.06,2.86,2.86,0,0,0-1.81.59,1.45,1.45,0,0,0-.12,1.57,5.35,5.35,0,0,0,3.2,3l-.18,1.5c-5.51-.61-11.48-.87-13.56-.58-1.92.26-3.75.91-4.09,3.82a23.77,23.77,0,0,0,2.54,13.07.41.41,0,0,1,.05.09c.17.32.36.65.56,1s.42.68.66,1A16,16,0,0,0,97,189.64a16.17,16.17,0,0,0,4.32,1.11,18.21,18.21,0,0,0,2.17.14A14.56,14.56,0,0,0,105,190.81Zm-11.91-5.49.27-.24c.19-.18.41-.36.65-.55s.45-.35.7-.53a11.55,11.55,0,0,1,8.06-2.31c4.21.49,7.19,3.51,8.62,5.29-.17.11-.35.23-.53.33s-.66.39-1,.57-.76.37-1.16.53a11.63,11.63,0,0,1-1.26.42c-.4.12-.81.22-1.24.31a14.08,14.08,0,0,1-1.49.2,15.43,15.43,0,0,1-6.51-.83A14.06,14.06,0,0,1,93.07,185.32Zm-2.24-2.73c-.34-.53-.65-1.06-.92-1.56a22.59,22.59,0,0,1-2.38-12.21c.22-1.86,1.08-2.3,2.82-2.53a17.05,17.05,0,0,1,2.31-.11c2.74,0,7,.26,10.87.68l.67.08.8.1c5.27.71,11,1.85,12.81,2.57,1.63.64,2.37,1.28,2.14,3.13A22.53,22.53,0,0,1,114.72,184a18.76,18.76,0,0,1-2.16,2.08c-1.55-2-4.87-5.33-9.63-5.89A13.44,13.44,0,0,0,93,183.39l-.65.55-.33.3c-.17-.2-.33-.39-.48-.59C91.31,183.29,91.06,182.94,90.83,182.59ZM105,160.27h0a10.57,10.57,0,0,1,2.89.69,4.49,4.49,0,0,1-2.34,1.55,2.56,2.56,0,0,1-.82.07,2.5,2.5,0,0,1-.66-.19,4,4,0,0,1-2-2.08A10.77,10.77,0,0,1,105,160.27Z"/><path class="cls-6" d="M117,250.07h-2c-3.21,0-6.84-.09-10.83-.32-.19,2.23-.77,6.71-2.48,8.82a3.44,3.44,0,0,1-.56.58,3.08,3.08,0,0,1-.62.37c0,.19.07.4.11.64.25,1.8.44,5.27.66,12,.08,2.47.16,5,.25,5.89.15,0,.35.07.6.11l.74.09.73.08c2,.21,5.09.43,8.09.64l2.42.18a55.8,55.8,0,0,0,10.08-.14L125,279c.28,0,.52-.08.74-.13a5.88,5.88,0,0,0,.83-.19c.16-1.77.82-11.84,1.45-21.54A15.2,15.2,0,0,1,117,250.07Z"/><path class="cls-6" d="M118.91,250h-.12a13.68,13.68,0,0,0,8.11,5.32c.39.1.79.17,1.21.24.14-2.1.27-4.16.39-6.09C126.64,249.69,123.34,249.94,118.91,250Z"/><path class="cls-6" d="M72.66,249.86l.86-.07c.37,0,.76-.1,1.17-.17h0c.36-.06.73-.14,1.11-.23s.62-.16.94-.25a14.24,14.24,0,0,0,4.08-2l.25-.18c-1-.22-2-.44-3-.69q-2.92-.72-5.74-1.66l-.31-.1-.1.79-.15,1.18-.11.9h0l-.12.88-.2,1.59C71.67,249.89,72.12,249.89,72.66,249.86Z"/><path class="cls-6" d="M97.17,258.13c-1.24-2.44-1.13-7-1-9H96L95.3,249l-.75-.07c-3.74-.38-7.29-.83-10.67-1.43l-.92-.17a15.13,15.13,0,0,1-5,2.95l-1.1.36c-.41.11-.8.2-1.18.28a19.59,19.59,0,0,1-3.92.42l-.59,0-2.51,19.78c.12.11.31.27.56.46l.66.45c.19.12.42.26.66.39a34.2,34.2,0,0,0,10.82,3.41c4.6.8,7.63,1.18,9.59,1.35l.75.06.74,0c.63,0,1.06,0,1.35,0,.3-1.38,1.16-5.24,2.09-9.06,1.09-4.45,1.8-6.94,2.31-8.34q.09-.24.18-.45A3.15,3.15,0,0,1,97.17,258.13Z"/><path class="cls-6" d="M100.05,249.47l-2.41-.21c-.37,5.62.63,8.58,1.52,9l.13,0a1.14,1.14,0,0,0,.55,0,1.46,1.46,0,0,0,.42-.23c1.57-1.27,2.26-5.71,2.49-8.34Z"/><path class="cls-1" d="M67.54,285.67h0l-.78,3.61h0a4.8,4.8,0,0,0,2.38,1.6,11.36,11.36,0,0,1,6.84-1.2h0c4.13.85,6.61,2.1,8.15,4.14a18.91,18.91,0,0,0,3.53-1.77l.08-.05.69-3.29h0C79.34,289.57,70.31,286.67,67.54,285.67Z"/><path class="cls-1" d="M81.92,310.87a.74.74,0,0,1-.58-.1A12.33,12.33,0,0,1,80,309.63a19.62,19.62,0,0,0-2.66-2.08,11.77,11.77,0,0,0-1.06-.6,14,14,0,0,0-1.45-.64,16.23,16.23,0,0,0-3-.79,9.46,9.46,0,0,0-5.36.39,7.14,7.14,0,0,0-1,.49,5.73,5.73,0,0,0-.68.51,4.09,4.09,0,0,0-.87,1,.7.7,0,0,1-.3.29.9.9,0,0,1-1-.06,3.52,3.52,0,0,1-.87-1.11l-.18-.34a6.44,6.44,0,0,0,1.7,4.23c1.12,1.08,6.06,2.61,12.42,2.67h.46c6.94,0,9.55-2.76,10.53-5.5a8.38,8.38,0,0,0,.36-1.32,12.48,12.48,0,0,1-1.44,1.82A7.76,7.76,0,0,1,81.92,310.87Z"/><path class="cls-1" d="M82.66,120a5,5,0,0,0-2.48-1.89,4.21,4.21,0,0,0-1.36-.22A5.4,5.4,0,0,0,75.7,119a5.57,5.57,0,0,0-2.45,4.29,4.69,4.69,0,0,0,1.26,3.19A37.11,37.11,0,0,1,82.66,120Z"/><path class="cls-1" d="M142.86,127.12a5,5,0,0,0-4.16-1.89,4.94,4.94,0,0,0-2.84,1.23,38.66,38.66,0,0,1,3.21,3.54,36.31,36.31,0,0,1,3.14,4.67,4.66,4.66,0,0,0,2-2.81A5.57,5.57,0,0,0,142.86,127.12Z"/><path class="cls-1" d="M104.25,192.17h.25l1.11,0a65.8,65.8,0,0,0,12.29-.58h0l1-.24.93-.25a34.82,34.82,0,0,0,13.76-7.28,22.56,22.56,0,0,0-2.38-7.41c-1.67-3.44-4.64-7.17-9.89-10.89a46.22,46.22,0,0,0-12.73-5.88,1.61,1.61,0,0,1,.78.74A1.55,1.55,0,0,1,109,162a5.88,5.88,0,0,1-3.63,2.08l-.18,1.55c5.45.72,11.24,1.88,13.18,2.65s3.42,1.78,3.06,4.69a23.92,23.92,0,0,1-8,14.45c-.37.29-.75.57-1.15.84s-.68.44-1,.65a15.79,15.79,0,0,1-3.23,1.38q-.78.22-1.62.39-.67.12-1.38.18a14.56,14.56,0,0,1-1.49.08,18.21,18.21,0,0,1-2.17-.14A16.17,16.17,0,0,1,97,189.64a16,16,0,0,1-7.13-5.83c-.24-.34-.45-.68-.66-1s-.39-.67-.56-1a.41.41,0,0,0-.05-.09,23.77,23.77,0,0,1-2.54-13.07c.34-2.91,2.17-3.56,4.09-3.82,2.08-.29,8,0,13.56.58l.18-1.5a5.35,5.35,0,0,1-3.2-3,1.45,1.45,0,0,1,.12-1.57,2.86,2.86,0,0,1,1.81-.59,47.4,47.4,0,0,0-15.16,2.72c-6,2.36-9.77,5.28-12.21,8.22-.16.19-.32.42-.49.66s-.28.41-.42.63-.26.41-.39.63a48.45,48.45,0,0,0-2.53,5c4.78,6.64,12.09,11.53,21.45,14.1.74.18,1.56.35,2.47.51a61.34,61.34,0,0,0,8.06.88Z"/><path class="cls-1" d="M84.4,151.07c1.1.13,2.19-1.39,2.44-3.41s-.45-3.76-1.56-3.89-2.19,1.39-2.43,3.41S83.3,150.94,84.4,151.07Z"/><path class="cls-1" d="M124.07,155.87c1.1.13,2.19-1.39,2.43-3.41s-.45-3.76-1.55-3.89-2.2,1.39-2.44,3.41S123,155.74,124.07,155.87Z"/><path class="cls-1" d="M138.26,306l-.09,0a6.13,6.13,0,0,0-1.73-.24h-.74l-.75.07a7.37,7.37,0,0,0-1.91.5c-2.72,1.19-4.39,4.26-4.85,5.21l0,0c-.07.15-.11.24-.12.25a.76.76,0,0,1-.55.43l-.14,0a66.4,66.4,0,0,1-7.76-.73c-1.07-.16-2.22-.35-3.42-.58s-2.55-.53-3.88-.87a31.85,31.85,0,0,1-5.24-1.83,30.58,30.58,0,0,1-4.4-2.43c0,.1,0,.19,0,.28a4.88,4.88,0,0,0,.28,1.16c.46.68,5.36,3.62,12.76,5.09,1.19.24,2.33.44,3.42.62,8.32,1.35,14.09,1.07,17.18-.84a4.73,4.73,0,0,0,2.15-4.24,8.17,8.17,0,0,0-.07-1A7.82,7.82,0,0,0,138.26,306Z"/><path class="cls-7" d="M87.84,293.64l-.64.37c-1.36.76-2.86,1.44-3.6,1.3a.77.77,0,0,1-.44-.28l0,0a5.91,5.91,0,0,0-.49-.63c-1.34-1.55-3.44-2.52-7-3.24h0a10.28,10.28,0,0,0-5.85,1.05.77.77,0,0,1-.76.23,7.2,7.2,0,0,1-2.52-1.26l-.17-.15a4.33,4.33,0,0,1-.38-.34l-.32.65c-.11.21-.22.45-.34.71-.45,1-1,2.23-1.55,3.76-.27.73-.55,1.53-.83,2.39-.17.52-.31,1.07-.43,1.61a25.3,25.3,0,0,0-.56,3.3,11.81,11.81,0,0,0,1.24,3.39,6,6,0,0,1,.44-.47,7.27,7.27,0,0,1,.56-.47,6,6,0,0,1,.61-.43,10.16,10.16,0,0,1,7.28-1,16.5,16.5,0,0,1,5.5,1.93c.31.19.61.37.88.56s.54.36.78.55c.67.5,1.22,1,1.71,1.43s.66.6,1,.81c3.49-1.08,5.31-5.86,5.5-6.38s.09-.88.13-1.34l0-.58q.12-1.32.18-2.52c.08-1.57.1-2.94.1-4v-.12C87.85,294.13,87.85,293.87,87.84,293.64Zm-12,8.77c-.72-.24-1.46-.49-2.13-.65-1.42-.33-2.57-.65-3.49-.9s-1.5-.41-2.06-.53a1.22,1.22,0,0,1-.92-.81c-.49-1.29.62-4,1.2-5.08l.2-.31a1.41,1.41,0,0,1,.28-.26,3,3,0,0,1,.86-.39,15.15,15.15,0,0,1,6.28.09,15.38,15.38,0,0,1,3.68,1.28,10,10,0,0,1,1.1.62,6,6,0,0,1,.82.62,2.23,2.23,0,0,1,.27.26c.58.64.44,2,.23,3.13-.18.88-.71,3-1.88,3.54h0a2.56,2.56,0,0,1-1.05.21A11.61,11.61,0,0,1,75.82,302.41Z"/><path class="cls-7" d="M133.75,300.83l-.1,0-.73.28-.42.14-.33.11a9.9,9.9,0,0,0-2.42,1.09,28.61,28.61,0,0,0-3,2.57c-.48.44-.89.83-1.25,1.11a1.16,1.16,0,0,1-.7.22,1.37,1.37,0,0,1-.38-.05c-1.74-.42-5.41-4.31-5.8-5.12l-.06-.19a1.75,1.75,0,0,1,0-.76,3.1,3.1,0,0,1,.22-.72,10,10,0,0,1,3.18-3.65,13.43,13.43,0,0,1,2.36-1.4c.25-.11.5-.22.74-.31l.09,0c.22-.09.44-.16.65-.23l.14,0,.49-.13-.63-.6-.51-.49-.22,0h0a6.68,6.68,0,0,0-.73-.14h0a8.72,8.72,0,0,0-3.93.61,9,9,0,0,0-4.5,3.3l0,.07c-.89,1.18-7.89-.14-8-.15a14.43,14.43,0,0,1-4.15-1.38,8,8,0,0,1-.73-.46h0a.65.65,0,0,0,0,.2c0,.45,0,.83,0,1.14a4.18,4.18,0,0,1-.05,1.11c0,.17-.1.82-.17,1.71s-.14,2.3-.16,3.56c0,.62,0,1.22,0,1.77.22.17.55.41,1,.71s1.18.75,2,1.19a30.5,30.5,0,0,0,7.14,2.83c1.33.34,2.62.62,3.86.86a72.29,72.29,0,0,0,10.39,1.25c.6-1.22,2.44-4.47,5.54-5.82a8.55,8.55,0,0,1,2-.55c.26,0,.53-.08.79-.1s.53,0,.79-.05a11.75,11.75,0,0,1,1.21.05C136.25,303.27,134.88,301.92,133.75,300.83Z"/><path class="cls-7" d="M125.71,295.49l-.74.3c-.24.11-.49.23-.74.37a11.24,11.24,0,0,0-1.47.93,9.14,9.14,0,0,0-2.53,2.68,2.05,2.05,0,0,0-.29.7.35.35,0,0,0,0,.14,4.16,4.16,0,0,0,.54.69c1.08,1.23,3.38,3.39,4.21,3.6.28-.23.63-.56,1-.92a29.17,29.17,0,0,1,3.2-2.7,9.49,9.49,0,0,1,2.22-1.07l.76-.27.15-.05.55-.19,0,0,.34-.13c-1.13-1.1-2.34-2.21-3.34-3.06a12.42,12.42,0,0,0-1.87-1.41l-.11-.05a3.65,3.65,0,0,0-.51.06,6.14,6.14,0,0,0-.85.21Z"/><path class="cls-7" d="M80.36,300.4a6.59,6.59,0,0,0,.42-3.11,6.06,6.06,0,0,0-1.33-.92,12.69,12.69,0,0,0-1.36-.63,14,14,0,0,0-2.36-.73l-.35-.07a16.49,16.49,0,0,0-1.85-.24,13.93,13.93,0,0,0-2.67.06,2.73,2.73,0,0,0-1.09.3l0,0a9.3,9.3,0,0,0-1.17,3.81c.58.13,1.22.3,2,.52s2,.57,3.43.89c.74.18,1.52.44,2.27.69,1.24.42,2.78.93,3.33.67C79.72,301.64,80,301.32,80.36,300.4Z"/><path class="cls-8" d="M69.15,233c0-2.22,0-4.6,0-6.92a3.56,3.56,0,0,0-2.33.1,5.27,5.27,0,0,0-2,1.62A41.48,41.48,0,0,1,66,233.26c0,.3.09.6.14.9A6.24,6.24,0,0,1,68.92,233Z"/><path class="cls-8" d="M70.56,244l-.79-.29a.74.74,0,0,1-.48-.67c0-.06-.05-2-.09-4.79a5.3,5.3,0,0,0-1.78,1.49,17,17,0,0,0,3,5.35Z"/><path class="cls-8" d="M67.14,220.77a23.25,23.25,0,0,0-5.59-5.66,3.66,3.66,0,0,0-3.41,3.75,18.58,18.58,0,0,1,4.58,4.53,4.47,4.47,0,0,1,1.89-2.11A3.92,3.92,0,0,1,67.14,220.77Z"/><path class="cls-8" d="M70.17,274l-.94,4.18c2.74.42,12.69,1.88,15.9,3.95,4.22,2.72-11.78,2.41-17,.81l-.29,1.33c2.46.88,11.85,4,20.82,3,.52-2.35,1.1-5,1.68-7.54l.22-1c-2-.18-5.07-.57-9.53-1.34A37.17,37.17,0,0,1,70.17,274Z"/><path class="cls-8" d="M60.8,141a2.26,2.26,0,0,0-2.42-.57A9.66,9.66,0,0,0,55.24,143c-1.36,1.45-2.54,2.69-3.84,2.52a1.93,1.93,0,0,1-1.17-.73c-1.18-1.33-2.51-4.56-3.8-7.68a45.93,45.93,0,0,0-2-4.46A2.87,2.87,0,0,0,41.7,131a2,2,0,0,0-1.59,1.65c-.24,1,.7,3.46,1.38,5.28,1,2.53,1.4,3.79.92,4.53a2.08,2.08,0,0,1-2.56.92c-.52-.18-1.22-1-3.91-4.68-.61-.83-1.18-1.61-1.55-2.08-2.73-3.47-4-2.67-4.57-2.29-1,.61-1.76,1.8.53,5.53.57.94,1.18,1.9,1.76,2.82,2.17,3.45,2.77,4.46,2.82,5a1.19,1.19,0,0,1-.45,1.17c-.62.44-1.51.12-2.21-.2l-.91-.44a54.61,54.61,0,0,0-6.58-2.9,2,2,0,0,0-2.18,1.18c-.4,1.07.28,2.29,1.83,3.26l2.17,1.35a30.12,30.12,0,0,1,5.17,3.58,1.89,1.89,0,0,1,.61,1.55c-.2,1.09-1.54,1.07-3.23,1.05h-.83a7.49,7.49,0,0,0-3.85.71,1.66,1.66,0,0,0-.88,1.68c.23.9,1.78,2,5.42,2.23,2.24.16,3.93.35,5.28.51a28,28,0,0,0,4.6.3l.87-.07.27,0,.58-.07c3.21-.46,4.92-1.45,8.08-3.62A19.53,19.53,0,0,0,55,152.15l.18-.32.21-.36.41-.66.12-.2c.23-.33.66-.89,1.21-1.61,1.39-1.82,3.71-4.87,4.16-6.08A1.91,1.91,0,0,0,60.8,141Z"/><path class="cls-8" d="M118.58,280.81c-1.34,0-2.86,0-4.52-.16l-2.41-.17c-3.84-.28-6.34-.47-8-.63v7.92c1,.42,4,1.35,11.61,1.19,6.27-.12,8.38-.89,9-1.21v-1.33c-9.48-.08-13.87-2-13.43-2.7s6.84-1.68,13.43-2.31v-.88l-.89.09C122.36,280.71,120.7,280.81,118.58,280.81Z"/><path class="cls-8" d="M166.94,244.29a2.09,2.09,0,0,0-.08-.34l-.13-.27-.06-.14h0l0,0a1.46,1.46,0,0,0-.23-.29h0a2.87,2.87,0,0,0-.78-.52l-.1-.05a9.3,9.3,0,0,0-1.89-.62c-.41-.1-.8-.17-1.2-.24-1-.16-1.9-.25-2.73-.31-.59,0-1.12-.06-1.6-.07a10.69,10.69,0,0,1-1.24-.07,5.33,5.33,0,0,1-.79-.15l-.12,0,0,0h-.07a.4.4,0,0,1-.35-.44.41.41,0,0,1,.13-.24l.06-.06.07,0,.26-.11a5.53,5.53,0,0,1,.83-.22,8.2,8.2,0,0,1,1.29-.07l1.66,0a26.64,26.64,0,0,1,4.2.48,12,12,0,0,1,2,.6,1.52,1.52,0,0,0-.19-.51,4,4,0,0,0-2.07-1.57,10.94,10.94,0,0,0-2.9-.64c-.26,0-.5,0-.76-.05s-.52,0-.78,0c-.53,0-1.06,0-1.59,0-1,0-2.11.07-3.15.15-.47,0-.94.1-1.4.15a22,22,0,0,1-2.54,4,16.18,16.18,0,0,1-6.51,5c-.27.11-.55.21-.83.3s-.53.16-.8.23l-.75.18c.18.39.36.77.56,1.15.5,1,1.05,1.92,1.61,2.86.29.47.59.93.88,1.38s.61.9.94,1.33a11.21,11.21,0,0,0,2.1,2.27,2.57,2.57,0,0,0,1.09.53s0,0,.09,0h.31l.16,0a1.48,1.48,0,0,0,.49-.2,1,1,0,0,0,.43-.82,4.9,4.9,0,0,0-.08-1.4c-.09-.51-.23-1-.36-1.58-.07-.28-.13-.56-.19-.88a3.83,3.83,0,0,1-.05-.52,1.67,1.67,0,0,1,.1-.74,1.49,1.49,0,0,1,.13-.25,1.05,1.05,0,0,1,.28-.29l.08-.06.1-.05.06,0h0a1,1,0,0,1,.33-.07,2.32,2.32,0,0,1,.62.06h0c.32.07.59.16.87.24l1.58.5a18.27,18.27,0,0,0,3.12.66,10,10,0,0,0,3.09-.1,5.47,5.47,0,0,0,2.62-1.14,1.61,1.61,0,0,0,.24-.29,1,1,0,0,0,.19-.6V250a.89.89,0,0,0,0-.11l0,0a.44.44,0,0,0-.06-.16,1.34,1.34,0,0,0-.38-.37l-.25-.15a11.38,11.38,0,0,0-2.59-1l-.39-.1-1-.25-1.07-.24-.74-.17-1.5-.34c-.57-.14-1.15-.28-1.72-.45a.38.38,0,0,1-.26-.47.34.34,0,0,1,.1-.16.37.37,0,0,1,.24-.12,13.83,13.83,0,0,1,1.44,0,18.33,18.33,0,0,1,2,.17l.47.08c.52.09,1,.19,1.57.31l.93.22.37.1.5.15.38.11a9.51,9.51,0,0,1,2.42,1.11,3.24,3.24,0,0,1,.57.5,3.63,3.63,0,0,0,.74-.52,1.65,1.65,0,0,0,.5-.73,1.09,1.09,0,0,0,.05-.56.27.27,0,0,1,0-.12s0,0,0,0l0-.07,0,0-.05-.09-.05-.1h0l0,0a.47.47,0,0,0-.1-.11,2.62,2.62,0,0,0-.59-.38l-.16-.08a10.92,10.92,0,0,0-2-.62l-.19,0-.84-.17-.89-.14c-.69-.11-1.36-.19-2-.25s-1.12-.11-1.59-.14h-.1a9.66,9.66,0,0,1-1.12-.13,4.4,4.4,0,0,1-1-.29l-.07,0h0a.42.42,0,0,1-.18-.56.46.46,0,0,1,.2-.19,3.79,3.79,0,0,1,1.1-.27c.2,0,.43,0,.68,0s.37,0,.58,0c.49,0,1,0,1.63.1.82.07,1.74.15,2.72.3l.83.14.55.1.27.06a11.11,11.11,0,0,1,2.07.64,4.29,4.29,0,0,1,1.22.76,2.16,2.16,0,0,1,.25.27l.18-.12a.93.93,0,0,0,.33-.51c0-.05,0-.1,0-.15S166.94,244.34,166.94,244.29Z"/><path class="cls-8" d="M69.49,133.12a37.1,37.1,0,0,1,4-5.54,6.12,6.12,0,0,1-1.73-4.32,7,7,0,0,1,3.07-5.47,6.49,6.49,0,0,1,5.81-1.05,6.64,6.64,0,0,1,3.29,2.57,38.27,38.27,0,0,1,6.12-2.6,13.19,13.19,0,0,0-7.2-6.19,11.35,11.35,0,0,0-3.57-.57,13.84,13.84,0,0,0-8,2.72c-3.81,2.72-6.21,6.93-6.25,11A12.12,12.12,0,0,0,69.49,133.12Z"/><path class="cls-8" d="M138.58,123.75a6.5,6.5,0,0,1,5.4,2.4,7.05,7.05,0,0,1,1.67,6,6.15,6.15,0,0,1-2.73,3.8,37.63,37.63,0,0,1,2.57,6.33,12.12,12.12,0,0,0,6.59-8.14c.93-4-.39-8.62-3.44-12.16a12.88,12.88,0,0,0-10.72-4.84,13.21,13.21,0,0,0-8.45,4.25,39,39,0,0,1,5.32,4A6.53,6.53,0,0,1,138.58,123.75Z"/><path class="cls-8" d="M136.3,174.24a1.49,1.49,0,0,1,.45-.16A7.92,7.92,0,0,1,138,174c.9,0,2.07,0,3.26.09a36.7,36.7,0,0,0,1.84-4.13c-2.24-2.38-3.67-3.76-3.08-4.34s2.37-.64,4.49-.18a47.8,47.8,0,0,0,1-5.57,45.15,45.15,0,0,0,.31-6.22c-2.55-.95-4.39-1.92-4.21-2.7s1.81-1.25,3.92-1.45a40.43,40.43,0,0,0-1-5.2l-.21-.72c-.06-.23-.13-.47-.2-.7a36.86,36.86,0,0,0-2.53-6.27l-.36-.67-.36-.66a35,35,0,0,0-3-4.38,35.77,35.77,0,0,0-3-3.35l-.54-.52-.54-.5a36.83,36.83,0,0,0-5.29-4l-.63-.4-.63-.36a43.87,43.87,0,0,0-12.55-4.69c0,.17-.07.34-.1.52a37.65,37.65,0,0,1,8.43,2.82c2.5,1.29,3.1,2.35,1.4,2.43a94.7,94.7,0,0,1-10.83-.6c-.15.6-.3,1.22-.46,1.84a15.33,15.33,0,0,1,4.12,2.11c1.56,1.18,2.09,2,1,2.4a19,19,0,0,1-6.78.74c-1,2.57-2.07,4.4-3.22,4.26s-1.78-2.16-2.11-4.86a19.76,19.76,0,0,1-6.92-2.44c-.91-.69-.21-1.31,1.59-2.08a15.68,15.68,0,0,1,5-1.11v-1.79a98,98,0,0,1-11.29-2.08c-1.63-.49-.8-1.37,1.94-2a38.57,38.57,0,0,1,9.49-.71q0-.27,0-.51c-.66,0-1.32,0-2,0a43.4,43.4,0,0,0-11.92,1.63l-.7.2-.71.23a38.68,38.68,0,0,0-6.08,2.58L84,121c-.22.12-.44.24-.65.37a35.36,35.36,0,0,0-7.66,6l-.52.55-.5.57a35.07,35.07,0,0,0-4,5.47c-.13.21-.26.42-.38.63l-.35.66a38.64,38.64,0,0,0-2.08,4.51c2.13.79,4,2.19,3.93,2.87s-2.65,1.3-5.37,1.63a44,44,0,0,0-1.11,5.88A46.52,46.52,0,0,0,65,156c2.39,0,4.86.31,5.23.89s-2,2.29-4.88,4.16l0,.21c.06.42.12.84.19,1.25s.16.86.24,1.28l.18.78.7.09,1.24.19H68l.95.19.31.07.54.13a7.9,7.9,0,0,1,1.24.4,1.92,1.92,0,0,1,.42.29.22.22,0,0,1,0,.31.24.24,0,0,1-.11.06h0a1.52,1.52,0,0,1-.5,0l-.46-.1-.76-.2-.66-.14-.16,0c-.29-.07-.61-.11-.93-.17l-.19,0c-.47-.08-1-.14-1.47-.19a31.17,31.17,0,0,0,1.21,3.8l2.17-.48a11,11,0,0,1,1.13-.2h.12a1.75,1.75,0,0,1,.51.05.22.22,0,0,1,.13.28.17.17,0,0,1-.06.1l-.15.1-.29.14a12.4,12.4,0,0,1-1.23.3c-.58.13-1.28.3-2,.49a32.57,32.57,0,0,0,3.68,6.61,48.45,48.45,0,0,1,2.53-5q.19-.33.39-.63c.14-.22.28-.44.42-.63s.33-.47.49-.66c2.44-2.94,6.22-5.86,12.21-8.22a47.4,47.4,0,0,1,15.16-2.72,15.12,15.12,0,0,1,2.56.06,10.16,10.16,0,0,1,3.4.88,46.22,46.22,0,0,1,12.73,5.88c5.25,3.72,8.22,7.45,9.89,10.89a22.56,22.56,0,0,1,2.38,7.41,32.27,32.27,0,0,0,4.86-5.31l-1.66-1a11.88,11.88,0,0,1-1.06-.63,1.94,1.94,0,0,1-.34-.35.24.24,0,0,1,.07-.31l.11,0a1.44,1.44,0,0,1,.49.09,8.21,8.21,0,0,1,1.11.56l1.77,1a34.32,34.32,0,0,0,1.84-3c-1-.08-2-.12-2.82-.13a10.15,10.15,0,0,1-1.18,0,1.38,1.38,0,0,1-.45-.13h0a.22.22,0,0,1-.09-.3A.3.3,0,0,1,136.3,174.24ZM92.12,150a16.52,16.52,0,0,1-2.47,7.19C88.4,159,86.91,160,85.39,160l-.42,0c-1.66-.2-3-1.56-3.88-3.83a16.68,16.68,0,0,1-.69-7.57c.73-6,3.87-10.38,7.16-10,1.65.2,3,1.56,3.87,3.83A16.56,16.56,0,0,1,92.12,150ZM93,129.53a.25.25,0,0,1-.12,0l-.06,0a1.09,1.09,0,0,1-.2-.08l-.43-.27-.29-.24-.26-.23-.33-.25,0,0-.42-.26-.19-.09a5.89,5.89,0,0,0-.84-.36,6.7,6.7,0,0,0-1.23-.26,6.18,6.18,0,0,0-1.36,0,5.5,5.5,0,0,0-.69.11,4.37,4.37,0,0,0-.67.17,5.41,5.41,0,0,0-.71.24c-.2.06-.43.2-.64.29a11,11,0,0,0-1.21.71c-.37.27-.73.54-1,.82a11.57,11.57,0,0,0-.86.85c-.52.54-.85,1.07-1.17,1.38a3.62,3.62,0,0,1-.42.33l-.19.1a.45.45,0,0,1-.61-.18.39.39,0,0,1-.05-.14v0a1,1,0,0,1,0-.23,2.12,2.12,0,0,1,.14-.59,3.13,3.13,0,0,1,.45-.76c.2-.28.43-.58.71-.9s.36-.41.56-.62a13.18,13.18,0,0,1,1.54-1.36,13.91,13.91,0,0,1,1.41-.86l.07,0a7.2,7.2,0,0,1,.73-.33,5.85,5.85,0,0,1,.78-.28,6.93,6.93,0,0,1,.87-.22,7.93,7.93,0,0,1,2.56-.08,7,7,0,0,1,1.56.38,7.28,7.28,0,0,1,.89.41,3.78,3.78,0,0,1,.4.22,2.2,2.2,0,0,1,.25.17l.28.19.34.28.11.09a2.9,2.9,0,0,1,.6.72,1.82,1.82,0,0,1,.22.59,2,2,0,0,1,0,.23A.44.44,0,0,1,93,129.53Zm30.18,3.31a1.68,1.68,0,0,1,.42-.76,3,3,0,0,1,.76-.59,1.51,1.51,0,0,0,.17-.1c.22-.12.45-.24.71-.36l.23-.1.49-.18a7.62,7.62,0,0,1,2.57-.4,7.28,7.28,0,0,1,3.46,1,4.53,4.53,0,0,1,.4.26l.35.26.11.09.58.49a10.53,10.53,0,0,1,1.14,1.29,11.89,11.89,0,0,1,.85,1.34q.19.34.36.69c.09.2.18.39.26.58a7.5,7.5,0,0,1,.62,2,2.3,2.3,0,0,1,0,.62.66.66,0,0,1-.06.22v0a.43.43,0,0,1-.59.22.45.45,0,0,1-.14-.1l-.15-.15c-.08-.11-.19-.27-.31-.47A5.81,5.81,0,0,1,135,138a10.42,10.42,0,0,0-.41-1c-.17-.35-.36-.73-.59-1.11a8.8,8.8,0,0,0-.78-1.13,7.5,7.5,0,0,0-1-1.07c-.18-.17-.37-.31-.56-.47l-.31-.22-.3-.18a5.7,5.7,0,0,0-2.66-.82,6.4,6.4,0,0,0-2.3.33l-.14.05a5.92,5.92,0,0,0-.56.23l-.36.19-.31.18a3.55,3.55,0,0,1-1.09.42h0a.46.46,0,0,1-.52-.4A.33.33,0,0,1,123.17,132.84Zm8.21,21.56h0a16.52,16.52,0,0,1-2.47,7.19c-1.25,1.83-2.74,2.82-4.26,2.82a3,3,0,0,1-.42,0c-3.29-.39-5.29-5.4-4.57-11.39s3.86-10.39,7.16-10S132.11,148.41,131.38,154.4Z"/><path class="cls-8" d="M110.55,195a16.78,16.78,0,0,0,5.83-1.52l.28-.16a80.55,80.55,0,0,1-12.46.35l-.3,0-1.09,0-1.08-.07a59.23,59.23,0,0,1-7.69-1l-1.26-.27c-1.31-.3-2.38-.61-3.21-.88a13,13,0,0,0,2.47,1.3c.41.17.85.33,1.34.5a37.45,37.45,0,0,0,7,1.5l1,.12,1,.11.52,0A39,39,0,0,0,110.55,195Z"/><path class="cls-9" d="M84.39,191.3a3.86,3.86,0,0,1,1.34-1.5c-9.29-4.08-16-10.79-19.47-19.38l-.2.06c-1.34.35-2.66.75-3.64,1.09-.49.17-.89.33-1.18.4a1.46,1.46,0,0,1-.5,0h0a.22.22,0,0,1-.19-.24.22.22,0,0,1,.05-.11,1.42,1.42,0,0,1,.39-.32,8,8,0,0,1,1.18-.5c1-.37,2.33-.8,3.68-1.18l.11,0a36.08,36.08,0,0,1-1.33-4.32c-1-.07-1.87-.1-2.61-.11-.53,0-1,0-1.27,0a1.67,1.67,0,0,1-.49-.13.22.22,0,0,1-.1-.29.24.24,0,0,1,.08-.09,1.61,1.61,0,0,1,.48-.18,10.63,10.63,0,0,1,1.3-.07c.68,0,1.52,0,2.41.05-.18-.83-.32-1.67-.45-2.53-2.77-2.82-5.49-5.73-8-8.6a20.63,20.63,0,0,1-6.49,6.81c-3,2.08-4.89,3.18-7.91,3.73a452,452,0,0,0,30.31,36.28Z"/><path class="cls-9" d="M151.72,236.36c-10.73-17.55-11-18-18.65-29a66.73,66.73,0,0,0-10.54-12.21,4.94,4.94,0,0,1-1.11,1.23l4.4,7.44,0,.06c.14.28,3.37,7.11,4.26,22.73.16,2.85.3,6,.41,9.1q1.6,2,3.11,3.82c2.06,2.52,3.85,4.7,5.26,6.73a1.53,1.53,0,0,0,.56.49,1.37,1.37,0,0,0,.79.15h0c.26,0,.51-.08.77-.13l.26,0c.22,0,.43-.1.63-.15a7.15,7.15,0,0,0,.7-.19,14.41,14.41,0,0,0,7-5.09,21.39,21.39,0,0,0,1.67-2.53l.45-.87.08-.16a1.39,1.39,0,0,0,.1-.64A1.66,1.66,0,0,0,151.72,236.36Z"/><path class="cls-9" d="M129,235c0-.42,0-.84-.05-1.26-.1-2.4-.21-4.83-.34-7.05-.84-14.81-3.89-21.68-4.1-22.14l-4.34-7.34c-2.72,1.58-7.43,2.84-13.83,2.84-1,0-2.08,0-3.19-.1a47.67,47.67,0,0,1-6-.78l-.92-.19-.91-.2a36.2,36.2,0,0,1-5.88-1.89c-2.41-1.06-4.28-2.37-5-3.91L73,201.24l-.42.3,0,.3c0,.25-.06.57-.1,1-.3,3-.94,9.52-1.39,14.57-.16,1.9-.26,4.35-.32,7,0,.73,0,1.48,0,2.23h0v.16c0,1,0,2,0,2.94,0,1.19,0,2.37,0,3.5,0,1.66,0,3.22,0,4.6,0,2.18.07,3.88.09,4.7v.05l.71.25.71.25,1.31.44c1.36.43,2.74.83,4.14,1.19l1.6.4q2.59.6,5.31,1.07c1.45.25,2.94.48,4.45.68s3.33.42,5.06.6l.93.1.84.08c1.42.14,2.86.26,4.34.38a167,167,0,0,0,27.71.09l1.52-.15c0-1.7-.14-6.41-.33-11.64C129.05,235.88,129,235.46,129,235Zm-19.41-27.25a.74.74,0,0,1,.72-.59l13.35-.13a.73.73,0,0,1,.72.57c.07.27,1.51,6.52-1.36,10.19a6.43,6.43,0,0,1-3.31,2.19q-.36.1-.75.18l-.79.11c-.3,0-.62.05-1,.05h-.1a7.15,7.15,0,0,1-5.81-2.44,9.22,9.22,0,0,1-1.83-4.49c0-.25-.07-.5-.1-.75s0-.51-.05-.75A17.82,17.82,0,0,1,109.61,207.79Z"/><path class="cls-9" d="M110.91,212.84c0,.25.07.51.12.76a7.36,7.36,0,0,0,1.44,3.38,5.76,5.76,0,0,0,4.67,1.9h.28q.42,0,.81-.06a6,6,0,0,0,.76-.14,5,5,0,0,0,2.88-1.75c2-2.53,1.47-6.82,1.21-8.36l-12.11.11a17.62,17.62,0,0,0-.13,3.42C110.86,212.34,110.88,212.59,110.91,212.84Z"/><path class="cls-9" d="M86.2,193a4.36,4.36,0,0,0,.6.63,13.48,13.48,0,0,0,3.87,2.19,37.59,37.59,0,0,0,6.15,1.83l.93.18,1,.17a40.68,40.68,0,0,0,4.56.54c8.09.5,13.3-1,16-2.44a8.09,8.09,0,0,0,1.37-.92,3.42,3.42,0,0,0,.54-.54,1.58,1.58,0,0,0,.23-.41.49.49,0,0,0,0-.11,2,2,0,0,0-.54-.42c-.15-.09-.32-.19-.51-.28l-.64-.29-.27-.11-.4.42a10.1,10.1,0,0,1-3.62,2.05l-.31.1a25.28,25.28,0,0,1-7.19,1.06,45.78,45.78,0,0,1-5.17-.2c-.69-.06-1.34-.13-2-.2l-1-.13-1-.14a34.89,34.89,0,0,1-6.64-1.63,14.08,14.08,0,0,1-4-2.14,3.23,3.23,0,0,1-.27-.23,6,6,0,0,1-.62-.61,5.18,5.18,0,0,1-.4-.51l-.29.2a2.36,2.36,0,0,0-.82.85.18.18,0,0,0,0,.09A2.36,2.36,0,0,0,86.2,193Z"/><path d="M85.13,282.08c-3.21-2.07-13.16-3.53-15.9-3.95l-.71-.11-.35,1.48-.75,3.12,0,0a7,7,0,0,0,.7.25C73.35,284.49,89.35,284.8,85.13,282.08Z"/><path d="M89.21,292a.47.47,0,0,0,0-.1.81.81,0,0,0-.27-.25.84.84,0,0,0-.34-.08h-.07a.75.75,0,0,0-.33.1l-.44.28-.08.05a18.91,18.91,0,0,1-3.53,1.77c-1.54-2-4-3.29-8.15-4.14h0a11.36,11.36,0,0,0-6.84,1.2,4.8,4.8,0,0,1-2.38-1.6h0a1.52,1.52,0,0,1-.18-.28.8.8,0,0,0-.42-.39h0l-.2,0a.73.73,0,0,0-.59.26l0,0-.07.08a45.52,45.52,0,0,0-3.71,8.8,25.44,25.44,0,0,0-1,4.76.72.72,0,0,1,.79-.46h0a.74.74,0,0,1,.61.79,1.36,1.36,0,0,0,0,.28,25.3,25.3,0,0,1,.56-3.3c.12-.54.26-1.09.43-1.61.28-.86.56-1.66.83-2.39.56-1.53,1.1-2.79,1.55-3.76.12-.26.23-.5.34-.71l.32-.65a4.33,4.33,0,0,0,.38.34l.17.15A7.2,7.2,0,0,0,69,292.41a.77.77,0,0,0,.76-.23,10.28,10.28,0,0,1,5.85-1.05h0c3.55.72,5.65,1.69,7,3.24a5.91,5.91,0,0,1,.49.63l0,0a.77.77,0,0,0,.44.28c.74.14,2.24-.54,3.6-1.3l.64-.37c0,.23,0,.49,0,.76v.12c0,1.06,0,2.43-.1,4q-.06,1.2-.18,2.52l0,.58c0,.46-.08.91-.13,1.34l0,0a.73.73,0,0,1,.78-.49h.06a.76.76,0,0,1,.6.78s0,.05,0,.07c.06-.5.11-1,.15-1.52l.05-.58a68.35,68.35,0,0,0,.24-8.86A.68.68,0,0,0,89.21,292Z"/><path d="M110.82,283.72c-.44.74,4,2.62,13.43,2.7H125v-5.08l-.74.07C117.66,282,111.25,283,110.82,283.72Z"/><path d="M114.6,117.66c0-.18.07-.35.1-.52-1.5-.32-3-.58-4.61-.77-1.38-.17-2.73-.27-4.06-.32q0,.24,0,.51c1.3,0,2.66.15,4,.32C111.62,117.07,113.15,117.34,114.6,117.66Z"/><path d="M106.19,128.8c.33,2.7,1,4.72,2.11,4.86s2.25-1.69,3.22-4.26c-.92,0-1.9-.09-2.94-.22C107.74,129.08,106.94,129,106.19,128.8Z"/><path d="M109.3,123.25a18.48,18.48,0,0,1,3.84.9c.16-.62.31-1.24.46-1.84-1.31-.13-2.7-.28-4.17-.46-1.25-.15-2.44-.31-3.57-.47v1.79A19.1,19.1,0,0,1,109.3,123.25Z"/><path d="M71.82,142.68c0-.68-1.8-2.08-3.93-2.87a40.06,40.06,0,0,0-1.44,4.5C69.17,144,71.8,143.45,71.82,142.68Z"/><path d="M70.23,156.9c-.37-.58-2.84-.93-5.23-.89a43.66,43.66,0,0,0,.35,5.05C68.22,159.19,70.67,157.62,70.23,156.9Z"/><path d="M145.79,153.67c0-1.41-.13-2.79-.29-4.15-2.11.2-3.78.8-3.92,1.45S143.24,152.72,145.79,153.67Z"/><path d="M140,165.64c-.59.58.84,2,3.08,4.34a41.79,41.79,0,0,0,1.41-4.52C142.34,165,140.45,165.18,140,165.64Z"/><path d="M102.93,279.77l.73.08c1.65.16,4.15.35,8,.63l2.41.17c1.66.12,3.18.16,4.52.16,2.12,0,3.78-.1,4.78-.19l.89-.09.74-.09.74-.11c2-.35,2.15-.77,2.24-1.09.13-.53,1.41-20.3,2-29.89l.26,0a.75.75,0,0,0,.64-.75c0-.07-.1-4.7-.28-10.36,0-.4,0-.81,0-1.22s0-.82,0-1.24c-.11-3.05-.25-6.25-.41-9.1-.89-15.62-4.12-22.45-4.26-22.73l0-.06-4.4-7.44a4.94,4.94,0,0,0,1.11-1.23,2.67,2.67,0,0,0,.31-.73,1.91,1.91,0,0,0,.06-.33,1.34,1.34,0,0,0-.21-.77,3.57,3.57,0,0,0-1.29-1.11l-.28-.15c-.23-.12-.48-.23-.71-.33h0c-.34-.14-.67-.26-1-.36h-.09l-.13,0h-.11a.5.5,0,0,0-.12,0h0c-.12,0-.45.12-1,.22h0a65.8,65.8,0,0,1-12.29.58l-1.11,0h-.25l-.85,0a61.34,61.34,0,0,1-8.06-.88c-.91-.16-1.73-.33-2.47-.51a25.76,25.76,0,0,1-4.94-1.59,5.06,5.06,0,0,0-1.1,0l-.33.17h0a8.84,8.84,0,0,0-.77.48,3.86,3.86,0,0,0-1.34,1.5l-12.47,8.86-.52.37a.27.27,0,0,0-.08.07.73.73,0,0,0-.23.46l0,.33c-.17,1.72-1,9.84-1.51,15.85-.1,1.2-.18,2.62-.24,4.16,0,.49,0,1,0,1.51h0c0,.57,0,1.16,0,1.75s0,.94,0,1.42c0,2.32,0,4.7,0,6.92,0,1.93,0,3.74,0,5.28,0,2.82.09,4.73.09,4.79a.74.74,0,0,0,.48.67l.79.29-.13,1.09-.13,1-.12.95-3.07,24.25a.72.72,0,0,0,.15.55,6.89,6.89,0,0,0,1.57,1.3l.66.41c.21.13.43.25.68.38a37.17,37.17,0,0,0,10.89,3.36c4.46.77,7.49,1.16,9.53,1.34l.74.07.75,0a11.5,11.5,0,0,0,2.42,0,.73.73,0,0,0,.57-.57c1.46-6.69,3.22-13.9,4.24-17.08.27,2.68.44,7.78.55,11.15.22,6.5.26,6.55.53,6.86s.6.41,1.8.58Zm-2.36-20.24a3.08,3.08,0,0,0,.62-.37,3.44,3.44,0,0,0,.56-.58c1.71-2.11,2.29-6.59,2.48-8.82,4,.23,7.62.32,10.83.32h2a15.2,15.2,0,0,0,11,7c-.63,9.7-1.29,19.77-1.45,21.54a5.88,5.88,0,0,1-.83.19c-.22.05-.46.09-.74.13l-.74.09a55.8,55.8,0,0,1-10.08.14l-2.42-.18c-3-.21-6-.43-8.09-.64l-.73-.08-.74-.09c-.25,0-.45-.07-.6-.11-.09-.88-.17-3.42-.25-5.89-.22-6.75-.41-10.22-.66-12C100.64,259.93,100.61,259.72,100.57,259.53Zm-2.42.39c-.51,1.4-1.22,3.89-2.31,8.34-.93,3.82-1.79,7.68-2.09,9.06-.29,0-.72,0-1.35,0l-.74,0-.75-.06c-2-.17-5-.55-9.59-1.35a34.2,34.2,0,0,1-10.82-3.41c-.24-.13-.47-.27-.66-.39l-.66-.45c-.25-.19-.44-.35-.56-.46l2.51-19.78.59,0a19.59,19.59,0,0,0,3.92-.42c.38-.08.77-.17,1.18-.28l1.1-.36a15.13,15.13,0,0,0,5-2.95l.92.17c3.38.6,6.93,1.05,10.67,1.43l.75.07.73.08h.14c-.13,2-.24,6.56,1,9a3.15,3.15,0,0,0,1.16,1.34Q98.24,259.68,98.15,259.92ZM70.67,237.8c0-1.38,0-2.94,0-4.6,0-1.13,0-2.31,0-3.5,0-1,0-2,0-2.94v-.16h0c0-.75,0-1.5,0-2.23.06-2.64.16-5.09.32-7,.45-5.05,1.09-11.6,1.39-14.57,0-.39.07-.71.1-1l0-.3.42-.3L84.52,193c.7,1.54,2.57,2.85,5,3.91a36.2,36.2,0,0,0,5.88,1.89l.91.2.92.19a47.67,47.67,0,0,0,6,.78c1.11.07,2.17.1,3.19.1,6.4,0,11.11-1.26,13.83-2.84l4.34,7.34c.21.46,3.26,7.33,4.1,22.14.13,2.22.24,4.65.34,7.05,0,.42,0,.84.05,1.26s0,.84,0,1.25c.19,5.23.3,9.94.33,11.64l-1.52.15a167,167,0,0,1-27.71-.09c-1.48-.12-2.92-.24-4.34-.38l-.84-.08-.93-.1c-1.73-.18-3.41-.38-5.06-.6s-3-.43-4.45-.68q-2.72-.47-5.31-1.07l-1.6-.4c-1.4-.36-2.78-.76-4.14-1.19l-1.31-.44-.71-.25-.71-.25v-.05C70.74,241.68,70.7,240,70.67,237.8ZM86.56,191l.29-.2a5.18,5.18,0,0,0,.4.51,6,6,0,0,0,.62.61,3.23,3.23,0,0,0,.27.23,14.08,14.08,0,0,0,4,2.14A34.89,34.89,0,0,0,98.82,196l1,.14,1,.13c.63.07,1.28.14,2,.2a45.78,45.78,0,0,0,5.17.2,25.28,25.28,0,0,0,7.19-1.06l.31-.1a10.1,10.1,0,0,0,3.62-2.05l.4-.42.27.11.64.29c.19.09.36.19.51.28a2,2,0,0,1,.54.42.49.49,0,0,1,0,.11,1.58,1.58,0,0,1-.23.41,3.42,3.42,0,0,1-.54.54,8.09,8.09,0,0,1-1.37.92c-2.68,1.46-7.89,2.94-16,2.44A40.68,40.68,0,0,1,98.7,198l-1-.17-.93-.18a37.59,37.59,0,0,1-6.15-1.83,13.48,13.48,0,0,1-3.87-2.19,4.36,4.36,0,0,1-.6-.63,2.36,2.36,0,0,1-.48-1,.18.18,0,0,1,0-.09A2.36,2.36,0,0,1,86.56,191ZM94,192.52a59.23,59.23,0,0,0,7.69,1l1.08.07,1.09,0,.3,0a80.55,80.55,0,0,0,12.46-.35l-.28.16a16.78,16.78,0,0,1-5.83,1.52,39,39,0,0,1-7.65,0l-.52,0-1-.11-1-.12a37.45,37.45,0,0,1-7-1.5c-.49-.17-.93-.33-1.34-.5a13,13,0,0,1-2.47-1.3c.83.27,1.9.58,3.21.88ZM100.26,258a1.46,1.46,0,0,1-.42.23,1.14,1.14,0,0,1-.55,0l-.13,0c-.89-.39-1.89-3.35-1.52-9l2.41.21,2.7.2C102.52,252.3,101.83,256.74,100.26,258Zm28.22-1.59Zm-.37-.82c-.42-.07-.82-.14-1.21-.24a13.68,13.68,0,0,1-8.11-5.32h.12c4.43-.1,7.73-.35,9.59-.53C128.38,251.44,128.25,253.5,128.11,255.6Zm-56.48-8.18h0l.11-.9.15-1.18.1-.79.31.1q2.82.94,5.74,1.66c1,.25,2,.47,3,.69l-.25.18a14.24,14.24,0,0,1-4.08,2c-.32.09-.63.18-.94.25s-.75.17-1.11.23h0c-.41.07-.8.13-1.17.17l-.86.07c-.54,0-1,0-1.35,0l.2-1.59Z"/><path d="M109.4,212.68c0,.25.06.5.1.75a9.22,9.22,0,0,0,1.83,4.49,7.15,7.15,0,0,0,5.81,2.44h.1c.33,0,.65,0,1-.05l.79-.11q.39-.07.75-.18a6.43,6.43,0,0,0,3.31-2.19c2.87-3.67,1.43-9.92,1.36-10.19a.73.73,0,0,0-.72-.57l-13.35.13a.74.74,0,0,0-.72.59,17.82,17.82,0,0,0-.26,4.14C109.36,212.17,109.38,212.42,109.4,212.68Zm1.57-4,12.11-.11c.26,1.54.77,5.83-1.21,8.36a5,5,0,0,1-2.88,1.75,6,6,0,0,1-.76.14q-.39,0-.81.06h-.28a5.76,5.76,0,0,1-4.67-1.9A7.36,7.36,0,0,1,111,213.6c0-.25-.09-.51-.12-.76s0-.5-.07-.75A17.62,17.62,0,0,1,111,208.67Z"/><path d="M139.73,305.63c-.13-1-1.64-2.65-4.92-5.84a1.1,1.1,0,0,0,0-.18.71.71,0,0,0-.22-.52,39.88,39.88,0,0,0-5.87-5.12l-2.65-2.51a.69.69,0,0,0-.3-.17h-.06l-.74-.18h0c-.25,0-.5-.08-.74-.1h0a10.43,10.43,0,0,0-4.39.68,10.64,10.64,0,0,0-5.16,3.73,23.81,23.81,0,0,1-6.61-.55,11,11,0,0,1-4.43-1.68,2.44,2.44,0,0,1-.38-.33.72.72,0,0,0-.35-.22.61.61,0,0,0-.18-.05.72.72,0,0,0-.56.2h0a2.71,2.71,0,0,0-.79,1.87c0,.47,0,.86,0,1.18s0,.61,0,.65a44,44,0,0,0-.36,7.59.67.67,0,0,0,0,.24,12.2,12.2,0,0,0,.62,3.63c.61,1.23,6.32,4.4,13.8,5.88a66.81,66.81,0,0,0,12.71,1.5c3.93,0,6.89-.64,9-1.92,3.35-2.08,3-5.81,2.6-7.62C139.72,305.73,139.73,305.68,139.73,305.63ZM119.16,313c-1.09-.18-2.23-.38-3.42-.62-7.4-1.47-12.3-4.41-12.76-5.09a4.88,4.88,0,0,1-.28-1.16c0-.09,0-.18,0-.28a30.58,30.58,0,0,0,4.4,2.43,31.85,31.85,0,0,0,5.24,1.83c1.33.34,2.64.63,3.88.87s2.35.42,3.42.58a66.4,66.4,0,0,0,7.76.73l.14,0a.76.76,0,0,0,.55-.43s0-.1.12-.25l0,0c.46-1,2.13-4,4.85-5.21a7.37,7.37,0,0,1,1.91-.5l.75-.07h.74a6.13,6.13,0,0,1,1.73.24l.09,0a7.82,7.82,0,0,1,.16.88,8.17,8.17,0,0,1,.07,1,4.73,4.73,0,0,1-2.15,4.24C133.25,314.07,127.48,314.35,119.16,313ZM102.9,295.8c0-.31,0-.69,0-1.14a.65.65,0,0,1,0-.2h0a8,8,0,0,0,.73.46,14.43,14.43,0,0,0,4.15,1.38c.07,0,7.07,1.33,8,.15l0-.07a9,9,0,0,1,4.5-3.3,8.72,8.72,0,0,1,3.93-.61h0a6.68,6.68,0,0,1,.73.14h0l.22,0,.51.49.63.6-.49.13-.14,0c-.21.07-.43.14-.65.23l-.09,0c-.24.09-.49.2-.74.31a13.43,13.43,0,0,0-2.36,1.4,10,10,0,0,0-3.18,3.65,3.1,3.1,0,0,0-.22.72,1.75,1.75,0,0,0,0,.76l.06.19c.39.81,4.06,4.7,5.8,5.12a1.37,1.37,0,0,0,.38.05,1.16,1.16,0,0,0,.7-.22c.36-.28.77-.67,1.25-1.11a28.61,28.61,0,0,1,3-2.57,9.9,9.9,0,0,1,2.42-1.09l.33-.11.42-.14.73-.28.1,0c1.13,1.09,2.5,2.44,3.44,3.49a11.75,11.75,0,0,0-1.21-.05c-.26,0-.52,0-.79.05s-.53.06-.79.1a8.55,8.55,0,0,0-2,.55c-3.1,1.35-4.94,4.6-5.54,5.82a72.29,72.29,0,0,1-10.39-1.25c-1.24-.24-2.53-.52-3.86-.86a30.5,30.5,0,0,1-7.14-2.83c-.79-.44-1.46-.85-2-1.19s-.78-.54-1-.71c0-.55,0-1.15,0-1.77,0-1.26.09-2.56.16-3.56s.14-1.54.17-1.71A4.18,4.18,0,0,0,102.9,295.8Zm26.73.69c1,.85,2.21,2,3.34,3.06l-.34.13,0,0-.55.19-.15.05-.76.27a9.49,9.49,0,0,0-2.22,1.07,29.17,29.17,0,0,0-3.2,2.7c-.39.36-.74.69-1,.92-.83-.21-3.13-2.37-4.21-3.6a4.16,4.16,0,0,1-.54-.69.35.35,0,0,1,0-.14,2.05,2.05,0,0,1,.29-.7,9.14,9.14,0,0,1,2.53-2.68,11.24,11.24,0,0,1,1.47-.93c.25-.14.5-.26.74-.37l.74-.3.58-.19a6.14,6.14,0,0,1,.85-.21,3.65,3.65,0,0,1,.51-.06l.11.05A12.42,12.42,0,0,1,129.63,296.49Z"/><path d="M81.64,296.09a6,6,0,0,0-.82-.62,10,10,0,0,0-1.1-.62A15.38,15.38,0,0,0,76,293.57a15.15,15.15,0,0,0-6.28-.09,3,3,0,0,0-.86.39,1.41,1.41,0,0,0-.28.26l-.2.31c-.58,1-1.69,3.79-1.2,5.08a1.22,1.22,0,0,0,.92.81c.56.12,1.22.3,2.06.53s2.07.57,3.49.9c.67.16,1.41.41,2.13.65a11.61,11.61,0,0,0,3.39.82,2.56,2.56,0,0,0,1.05-.21h0c1.17-.56,1.7-2.66,1.88-3.54.21-1.08.35-2.49-.23-3.13A2.23,2.23,0,0,0,81.64,296.09Zm-2,5.59c-.55.26-2.09-.25-3.33-.67-.75-.25-1.53-.51-2.27-.69-1.38-.32-2.52-.63-3.43-.89s-1.44-.39-2-.52a9.3,9.3,0,0,1,1.17-3.81l0,0a2.73,2.73,0,0,1,1.09-.3,13.93,13.93,0,0,1,2.67-.06,16.49,16.49,0,0,1,1.85.24l.35.07a14,14,0,0,1,2.36.73,12.69,12.69,0,0,1,1.36.63,6.06,6.06,0,0,1,1.33.92,6.59,6.59,0,0,1-.42,3.11C80,301.32,79.72,301.64,79.62,301.68Z"/><path class="cls-10" d="M32.18,60a5,5,0,0,1,.91.67,4.48,4.48,0,0,1,1.31,1.74.58.58,0,0,1-.08.47.76.76,0,0,1-.53.29.59.59,0,0,1-.55-.21,21.13,21.13,0,0,0-1.73-1.81.88.88,0,0,1-.34-.44.61.61,0,0,1,.18-.56,1,1,0,0,1,.43-.2A1.13,1.13,0,0,1,32.18,60Zm.83,4a8.34,8.34,0,0,1,1,.52,3.82,3.82,0,0,1,1.31,1.43.57.57,0,0,1-.09.52.88.88,0,0,1-.57.32.68.68,0,0,1-.61-.18,17.49,17.49,0,0,0-1.71-1.46c-.19-.12-.31-.24-.33-.35a.62.62,0,0,1,.18-.61.91.91,0,0,1,.47-.23A.7.7,0,0,1,33,63.94Zm2.08,3.8c.2,0,.35.22.42.53s0,.52,0,.92c0,.61-.07,1.53-.17,2.76-.06.44-.1.86-.15,1.24a.84.84,0,0,1-.56.69,1.09,1.09,0,0,1-.6-.13.74.74,0,0,1-.3-.51c0-.17.07-1.46.29-3.89,0-.37.07-.7.09-1s.2-.55.45-.6A1.74,1.74,0,0,1,35.09,67.74Zm2.14-8.88a.51.51,0,0,1,.27.37.62.62,0,0,1-.12.61c-.05,0-.47.29-1.27.76A.37.37,0,0,0,36,61l.48,2.27a9.37,9.37,0,0,0,.87-.59c-.16-.23-.35-.5-.55-.82a.3.3,0,0,1-.08-.18.72.72,0,0,1,0-.21.61.61,0,0,1,.22-.29.92.92,0,0,1,.29-.11.77.77,0,0,1,.47.09,6.36,6.36,0,0,1,.66.93,3.81,3.81,0,0,1,.27.53,3.14,3.14,0,0,0,.13-.71,7.65,7.65,0,0,0-.18-1.7l-.17,0c-.3.06-.47-.08-.55-.46s0-.59.32-.66l2.31-.48a1,1,0,0,1,.69,0,1,1,0,0,1,.37.69q.3,1.44.42,2.22a2.11,2.11,0,0,1-.2,1.56,1.26,1.26,0,0,1-.73.48,2.43,2.43,0,0,1-1.15,0,.56.56,0,0,1-.31-.36,3.37,3.37,0,0,1-.14.32A.92.92,0,0,1,39,64a2.37,2.37,0,0,1,.36.09,25,25,0,0,0,2.86,1,.52.52,0,0,1,.27.34.79.79,0,0,1-.12.6.68.68,0,0,1-.47.29h-.08a.88.88,0,0,1,0,.22.59.59,0,0,1-.42.27L40,67.06l.17.8,2-.42a.66.66,0,0,1,.45,0,.55.55,0,0,1,.21.4.67.67,0,0,1,0,.43.56.56,0,0,1-.41.3l-2,.42.4,1.88.72-.2a.18.18,0,0,1-.07,0,.6.6,0,0,1-.28-.39.34.34,0,0,1,.07-.27.8.8,0,0,1,.05-.11c.06-.15.12-.27.16-.38a2.33,2.33,0,0,1,.09-.28.47.47,0,0,1,.32-.25,1.14,1.14,0,0,1,.45,0,.46.46,0,0,1,.33.33.74.74,0,0,1,0,.21c-.07.18-.12.37-.19.58a1.88,1.88,0,0,1-.16.36c.28-.08.57-.15.85-.24a.43.43,0,0,1,.42.11.66.66,0,0,1,.21.41.58.58,0,0,1-.07.45.6.6,0,0,1-.35.27q-3.16,1-6,1.7A.62.62,0,0,1,37,73.1a.76.76,0,0,1-.27-.48.59.59,0,0,1,0-.45.83.83,0,0,1,.56-.31l2.23-.6-.41-2L37,69.74a.51.51,0,0,1-.43-.06.61.61,0,0,1-.24-.44.59.59,0,0,1,0-.45.61.61,0,0,1,.38-.21l2.08-.44-.16-.8-1.29.27a.61.61,0,0,1-.45,0,.36.36,0,0,1-.1-.11.91.91,0,0,1-.38.21.75.75,0,0,1-.65-.14.77.77,0,0,1-.24-.44.57.57,0,0,1,.14-.48,29.75,29.75,0,0,0,2.17-2.21,1.26,1.26,0,0,1,.47-.35.11.11,0,0,1-.08,0,.48.48,0,0,1-.15-.24.73.73,0,0,1,0-.33.31.31,0,0,1-.17,0,14.39,14.39,0,0,1-2,1.68,1,1,0,0,1-.3.13.45.45,0,0,1-.44-.17.94.94,0,0,1-.28-.52.53.53,0,0,1,.15-.53l.28-.16-.69-3.27c-.06-.3.11-.6.52-.88l1.18-.7a2,2,0,0,1,.42-.2A.62.62,0,0,1,37.23,58.86Zm.72,11a2.12,2.12,0,0,1,.36.25,1.9,1.9,0,0,1,.52.58.52.52,0,0,1-.12.45.79.79,0,0,1-.44.24.4.4,0,0,1-.41-.16c-.25-.18-.49-.37-.73-.58-.07-.05-.11-.09-.12-.14a.47.47,0,0,1,.13-.45.8.8,0,0,1,.42-.24A.67.67,0,0,1,38,69.87ZM39,65.16a.32.32,0,0,0-.17,0,.24.24,0,0,0-.13.1c-.36.45-.67.84-1,1.16l2.71-.57C40,65.62,39.55,65.42,39,65.16Zm.67-4.42a6.92,6.92,0,0,1,.07,1.15,3.45,3.45,0,0,1-.08.75.77.77,0,0,1,.17-.07H40a1.29,1.29,0,0,0,.48,0c.25,0,.36-.24.33-.6s-.19-1.12-.39-2.09c0-.06-.05-.1-.08-.09l-.79.16C39.64,60.23,39.68,60.5,39.71,60.74Zm3.22-1.9a.66.66,0,0,1,.27.42l1.87,8.92a.64.64,0,0,1,0,.42.51.51,0,0,1-.44.32.54.54,0,0,1-.51-.12.53.53,0,0,1-.22-.36L42,59.51a.59.59,0,0,1,.07-.49.62.62,0,0,1,.41-.24A.66.66,0,0,1,42.93,58.84Zm2.16-1.21L47.68,70a1,1,0,0,1-.19.86,2.3,2.3,0,0,1-.92.53,4.22,4.22,0,0,1-.92.11,2.44,2.44,0,0,1-.8-.07.81.81,0,0,1-.49-.54c-.1-.47,0-.77.38-.91H45a2.46,2.46,0,0,0,1,0,.16.16,0,0,0,.15-.22L43.69,57.93c-.08-.34.11-.56.55-.69S45,57.28,45.09,57.63Z"/><path class="cls-10" d="M56,56.24c0,.35-.1.56-.37.61l-1.8.23.11.81,1.24-.16c.41,0,.64.1.68.41l.15,1.2c0,.46-.13.7-.54.76l-1.17.14.07.62,1.56-.19c.27,0,.44.12.49.44s-.09.56-.36.61L51,62.35c-.51.07-.78-.17-.85-.71l-.54-4.27c-.07-.54.12-.84.58-.9l5.34-.67C55.75,55.78,55.91,55.93,56,56.24Zm5.51,5.29a.89.89,0,0,1,1.12.88L63,65.63a.88.88,0,0,1-.88,1.11L59.92,67l.11.87c0,.26.17.37.41.34l2.3-.29c.25-.07.38-.18.42-.36a2.39,2.39,0,0,0,0-.78.55.55,0,0,1,.16-.42,1.27,1.27,0,0,1,.34-.14,2.14,2.14,0,0,1,.5,0,.57.57,0,0,1,.45.52,3.82,3.82,0,0,1,0,1.51,1.49,1.49,0,0,1-1.05.78l-4,.5c-.52,0-.82-.43-.92-1.27l-.14-1.06-2,.25a2.09,2.09,0,0,1-.58,1.12,9.86,9.86,0,0,1-3.38,1.76,5.53,5.53,0,0,1-1.17.29.66.66,0,0,1-.55-.17.67.67,0,0,1-.28-.42.6.6,0,0,1,.13-.46A19.45,19.45,0,0,0,54,68.39a1.7,1.7,0,0,0,.82-.73l-2.18.27a.88.88,0,0,1-1.12-.86l-.41-3.22A.9.9,0,0,1,52,62.72ZM52.68,58l-.1-.81-1.43.18c-.09,0-.12.08-.11.14l.08.69Zm1.91,1.21c.11,0,.16-.08.16-.21v-.13a.16.16,0,0,0-.21-.15l-3.29.41.06.49ZM53,60.4l-1.62.2.06.49c0,.1.06.13.14.12l1.5-.19Zm8,2.7,0-.19a.27.27,0,0,0-.34-.26l-7.64,1c-.2,0-.28.14-.26.34l0,.19Zm.18,1.37L61.16,64l-8.24,1,.07.49Zm.13,1,0-.18-8.23,1,0,.18c0,.22.13.31.34.28l7.64-1A.27.27,0,0,0,61.36,65.52ZM58,55.26a.52.52,0,0,1,.32.37.64.64,0,0,1,0,.25l4.39-.55a.56.56,0,0,1,.4.06.54.54,0,0,1,.18.38.46.46,0,0,1-.06.36.41.41,0,0,1-.38.26L57.79,57A10.18,10.18,0,0,1,57,58.15a.54.54,0,0,1-.36.22.65.65,0,0,1-.52-.16.8.8,0,0,1-.25-.44.5.5,0,0,1,.15-.34,6.19,6.19,0,0,0,.4-.53,12.18,12.18,0,0,0,1-1.56c.09-.11.16-.18.25-.19A.79.79,0,0,1,58,55.26Zm4.71,3.23a.49.49,0,0,1,.62.48l.16,1.24a.5.5,0,0,1-.49.63l-5.63.7c-.38.05-.6-.1-.64-.48l-.16-1.24a.51.51,0,0,1,.5-.63ZM62.31,57a.54.54,0,0,1,.33,0,.45.45,0,0,1,.17.33.61.61,0,0,1,0,.36.42.42,0,0,1-.35.19l-4.52.56a.41.41,0,0,1-.33-.07c-.09,0-.14-.17-.16-.36a.43.43,0,0,1,.07-.37.5.5,0,0,1,.3-.12Zm-3.63,2.71-.62.08q-.18,0-.15.21l.06.49c0,.13.07.19.2.17l.62-.08Zm1.75-.22-.81.1.11.87.81-.1Zm1.81.47-.06-.5a.16.16,0,0,0-.21-.16l-.62.07.11.88.62-.08A.17.17,0,0,0,62.24,60Z"/><path class="cls-10" d="M80.79,57.24l.48,9.49a1,1,0,0,1-.26.88,1.56,1.56,0,0,1-.93.31l-.94,0a8.2,8.2,0,0,1-.88,0,1.74,1.74,0,0,1-.9-.26.85.85,0,0,1-.33-.64.74.74,0,0,1,.07-.4.93.93,0,0,1,.54-.41,5.46,5.46,0,0,1,.94-.13l.78,0c.12,0,.18,0,.17-.14l-.08-1.71a1,1,0,0,1-.74.31A1.64,1.64,0,0,1,77.64,64a14.76,14.76,0,0,1-2.43-3.55,12.12,12.12,0,0,1-.53-1.32,13.23,13.23,0,0,1-1.13,2.67,12.87,12.87,0,0,1-2.1,2.9,1.09,1.09,0,0,1-.73.42.87.87,0,0,1-.73-.25.36.36,0,0,1-.09-.08l.15,2.93c0,.45-.26.7-.84.73s-.83-.2-.85-.64L67.86,58a1,1,0,0,1,1-1.13L74,56.64a7.78,7.78,0,0,1-.17-.81c0-.11-.14-.17-.31-.16l-4.32.22a.61.61,0,0,1-.57-.21.91.91,0,0,1,0-1.15.66.66,0,0,1,.52-.2l5-.26a1.06,1.06,0,0,1,1.23.88,12,12,0,0,0,.27,1.61l4-.21C80.35,56.31,80.75,56.61,80.79,57.24ZM70,63.53a21.14,21.14,0,0,0,2.12-2.61,13.62,13.62,0,0,0,1.26-2.61l-3.68.19c-.08,0-.11,0-.1.13l.26,5.07A.79.79,0,0,1,70,63.53Zm6.77-3.89A11.5,11.5,0,0,0,79.38,63l-.25-4.86c0-.08,0-.12-.13-.12l-2.91.15A7.45,7.45,0,0,0,76.76,59.64Z"/><path class="cls-10" d="M93.8,59.83a40.78,40.78,0,0,0,4.88,3.11.75.75,0,0,1,.5.69.84.84,0,0,1-.9.86,1.73,1.73,0,0,1-.89-.28,1.5,1.5,0,0,1-.28-.18l-.06,2.69a1,1,0,0,1-1.14,1.09l-7.7-.16a1,1,0,0,1-1.1-1.14l.06-2.69a1.71,1.71,0,0,1-.26.14,3.14,3.14,0,0,1-1.26.45.87.87,0,0,1-.66-.27.66.66,0,0,1-.2-.5.7.7,0,0,1,.46-.68,48.27,48.27,0,0,0,5.48-3.44A2.86,2.86,0,0,1,92.27,59,3,3,0,0,1,93.8,59.83Zm-2.82-3a.55.55,0,0,1,.27.42.65.65,0,0,1-.14.37,13.55,13.55,0,0,1-4.08,3,2,2,0,0,1-1,.26.69.69,0,0,1-.54-.26.77.77,0,0,1-.2-.51c0-.1,0-.19.19-.3s.68-.37,1.26-.73a23.4,23.4,0,0,0,3.07-2.13,1.42,1.42,0,0,1,.74-.22A.74.74,0,0,1,91,56.79Zm1.88-3a.83.83,0,0,1,.26.63v.43l4.62.1a1,1,0,0,1,1.1,1.16l0,1.44a.69.69,0,0,1-.21.54.9.9,0,0,1-.61.17c-.34,0-.56-.07-.67-.23a.79.79,0,0,1-.13-.52l0-1.07c0-.13-.09-.2-.25-.2l-9.62-.2a.17.17,0,0,0-.19.19l0,1.18a.74.74,0,0,1-.17.57.89.89,0,0,1-.66.16.8.8,0,0,1-.6-.17.65.65,0,0,1-.2-.59l0-1.56a1,1,0,0,1,1.16-1.11l4.56.1V54.4a.92.92,0,0,1,.27-.62,1.26,1.26,0,0,1,1.35,0Zm2.57,12.31,0-1.63a.27.27,0,0,0-.29-.31l-6.07-.13c-.22,0-.32.11-.32.3l0,1.63c0,.21.09.31.31.31l6.07.13A.27.27,0,0,0,95.43,66.12Zm-.11-3.31c-.69-.48-1.42-1-2.17-1.6a2.33,2.33,0,0,0-1-.53.73.73,0,0,0-.5.16c-1,.72-1.81,1.32-2.59,1.84ZM94.44,57a11.64,11.64,0,0,0,4.2,2.54.63.63,0,0,1,.36.57.69.69,0,0,1-.28.57.74.74,0,0,1-.55.17,4.38,4.38,0,0,1-1.74-.6,13.42,13.42,0,0,1-2.84-2,1.28,1.28,0,0,1-.37-.4.69.69,0,0,1-.1-.41.73.73,0,0,1,.76-.72A1.53,1.53,0,0,1,94.44,57Z"/><path class="cls-10" d="M106.69,55.57a.94.94,0,0,1,.94,1.17l-1,9.63a.93.93,0,0,1-1.15,1l-2.12-.21a.93.93,0,0,1-.94-1.17l1-9.63a1,1,0,0,1,1.16-1Zm-1.42,9.79.79-7.89a.23.23,0,0,0-.23-.28l-.75-.08a.24.24,0,0,0-.28.23l-.79,7.9a.22.22,0,0,0,.23.26l.75.08C105.15,65.59,105.26,65.52,105.27,65.36Zm9.94-4c.83.08,1.19.58,1.1,1.49l-.56,5.6a1.11,1.11,0,0,1-.51,1,3,3,0,0,1-1.48.15,5.68,5.68,0,0,1-2.13-.53.81.81,0,0,1-.39-.6c.05-.55.29-.81.7-.82a1.84,1.84,0,0,1,.4.09,6.2,6.2,0,0,0,1.51.36.25.25,0,0,0,.28-.23l.09-.92-4.67-.47-.2,2a.65.65,0,0,1-.29.57,1.14,1.14,0,0,1-.66.09.89.89,0,0,1-.6-.27.78.78,0,0,1-.12-.56l.63-6.22c.09-.91.5-1.33,1.25-1.26ZM113.62,55a.8.8,0,0,1,.21.65l0,.51,3.12.31a.81.81,0,0,1,.51.2.74.74,0,0,1,.11.55.87.87,0,0,1-.18.49.71.71,0,0,1-.58.18l-1-.1A10.1,10.1,0,0,1,116.93,60a2.12,2.12,0,0,1,.12.62.69.69,0,0,1-.3.59,1,1,0,0,1-.66.13.6.6,0,0,1-.53-.36c-.07-.21-.13-.43-.2-.66a17.8,17.8,0,0,1-2.2.13,33.61,33.61,0,0,1-4.44-.15c-.29,0-.49-.1-.57-.24a.76.76,0,0,1-.16-.66.89.89,0,0,1,.19-.49.92.92,0,0,1,.76-.17l.67.07.86-1.55-1.67-.17a.65.65,0,0,1-.51-.23.72.72,0,0,1-.1-.57.57.57,0,0,1,.75-.62l3,.3,0-.51a.86.86,0,0,1,.32-.59,1.35,1.35,0,0,1,1.33.13Zm.72,10.64.09-.88-4.66-.47-.09.88Zm.21-2.12.07-.62c0-.16,0-.26-.17-.28l-4.15-.41c-.23,0-.33.06-.35.22l-.06.62Zm0-5.17a.78.78,0,0,1-.14-.51.28.28,0,0,1,.1-.18l-2.33-.23-.84,1.5a31.8,31.8,0,0,0,3.5,0C114.69,58.77,114.6,58.57,114.51,58.36Z"/><path class="cls-10" d="M127.21,70.26a1.58,1.58,0,0,1-1.06.17,1.6,1.6,0,0,1-.91-.54,1.11,1.11,0,0,1-.27-1,1.16,1.16,0,0,1,.63-.84,1.55,1.55,0,0,1,2,.4,1.18,1.18,0,0,1-.35,1.82Zm.58-3.83c-.14.46-.48.64-1,.53a.71.71,0,0,1-.66-.86l.61-5.18c.11-1,.62-1.41,1.53-1.23a1.21,1.21,0,0,1,.86.57,1.42,1.42,0,0,1,.1,1.13Z"/><path class="cls-10" d="M37.85,36.79a.92.92,0,0,1,.59.05.77.77,0,0,1,.28.55.81.81,0,0,1,0,.53.76.76,0,0,1-.56.35l-3.87.7.19,1,2.71-.49a.92.92,0,0,1,1.22.85l.4,2.16a1,1,0,0,1-.85,1.24l-5.62,1a5.88,5.88,0,0,1-.26.92l7.26-1.31a.83.83,0,0,1,.6.07.75.75,0,0,1,.28.53.78.78,0,0,1-.05.53.76.76,0,0,1-.56.35l-2.32.42A2.49,2.49,0,0,1,37,47.53a5.6,5.6,0,0,1-.81,1.29c1.73.15,3,.3,3.78.42a.77.77,0,0,1,.69.64,1,1,0,0,1-.12.52.81.81,0,0,1-.55.36,2.55,2.55,0,0,1-.91,0c-1.5-.18-3-.36-4.58-.52a22.62,22.62,0,0,1-4.67,2.23,14,14,0,0,1-2.13.57.76.76,0,0,1-.72-.21,1,1,0,0,1-.23-.45.65.65,0,0,1,.33-.7A41.24,41.24,0,0,0,31.8,50l-2-.19c-.42,0-.65-.19-.71-.49a1.37,1.37,0,0,1,.12-.54c.13-.36.24-.73.37-1.07l-3,.54a.75.75,0,0,1-.59-.08c-.14-.07-.22-.25-.27-.53a.73.73,0,0,1,.07-.6.77.77,0,0,1,.52-.28l3.78-.68c.1-.31.19-.62.28-.93l-2.8.51a.94.94,0,0,1-1.23-.87l-.39-2.16a.94.94,0,0,1,.85-1.23l2.58-.46-.19-1-3.87.7a.75.75,0,0,1-.59-.09c-.14-.07-.23-.23-.29-.52a.65.65,0,0,1,.61-.87Zm-8.23,5.49-1.66.3a.34.34,0,0,0-.31.43l.15.8a.33.33,0,0,0,.44.31l1.66-.3Zm3.08-3-2,.36.18,1,2-.36Zm2.84,7.36-4.17.75c0,.09-.07.16-.09.23a2,2,0,0,0-.12.71c0,.11.25.18.71.21l2.24.15A3.4,3.4,0,0,0,35.54,46.61Zm-2.41-5-2,.36.28,1.54,2-.35Zm3.9.5-.15-.8a.33.33,0,0,0-.43-.3l-1.78.32L35,42.91l1.78-.33A.34.34,0,0,0,37,42.14Z"/><path class="cls-10" d="M45.5,35.84a.72.72,0,0,1,.53.66,6,6,0,0,1-.1,1,.81.81,0,0,0,0,.19l3-.36-.17-1.43a.9.9,0,0,1,.11-.67.87.87,0,0,1,.65-.31,1,1,0,0,1,.74.12,1,1,0,0,1,.31.64l.17,1.43,4.4-.53a.92.92,0,0,1,.62.1.86.86,0,0,1,.29.61.73.73,0,0,1-.72.9l-4.4.53.31,2.55,5-.6a.88.88,0,0,1,.64.1.8.8,0,0,1,.27.59A.91.91,0,0,1,57,42a.78.78,0,0,1-.62.33l-3.6.44.5,4.16a.39.39,0,0,0,.5.37l1.36-.16a.64.64,0,0,0,.49-.66,10.48,10.48,0,0,0-.06-1.54.59.59,0,0,1,.2-.47,1.92,1.92,0,0,1,.42-.17,2.78,2.78,0,0,1,.58,0,.68.68,0,0,1,.49.63,8.28,8.28,0,0,1,0,2.5,1.59,1.59,0,0,1-1.19,1.24L53.14,49c-.93.05-1.43-.42-1.55-1.39L51,42.94l-2.4.28a8.35,8.35,0,0,1-.29,2.92,7.29,7.29,0,0,1-2.61,3.51,2.17,2.17,0,0,1-.94.47,1,1,0,0,1-.72-.21,1,1,0,0,1-.32-.55.69.69,0,0,1,.18-.59,7.71,7.71,0,0,0,2.54-2.64,5.62,5.62,0,0,0,.48-2.7l-3.18.38a1,1,0,0,1-.64-.11q-.21-.12-.27-.6a.94.94,0,0,1,.12-.64,1,1,0,0,1,.6-.25l5.76-.7L49,39l-3.55.43a6.31,6.31,0,0,1-.72,1.67,1,1,0,0,1-.77.41,1,1,0,0,1-.53-.09.64.64,0,0,1-.43-.61.84.84,0,0,1,.12-.45A10,10,0,0,0,44,38.37a6.77,6.77,0,0,0,.37-1.8c0-.45.18-.71.53-.76A1.75,1.75,0,0,1,45.5,35.84Z"/><path class="cls-10" d="M65.82,34.1a1.37,1.37,0,0,1,.86.16,1.2,1.2,0,0,1,.29.24.77.77,0,0,1,.37-.12.8.8,0,0,1,.38.1,7.79,7.79,0,0,0,.76.64,10.42,10.42,0,0,0,1.38-1.69.9.9,0,0,1,.17-.17.77.77,0,0,1,.42-.16.85.85,0,0,1,.33.09.7.7,0,0,1,.4.49.67.67,0,0,1-.1.39,6.14,6.14,0,0,1-.87,1.28,8,8,0,0,1-.59.66c.38.3.77.56,1.16.81a13.81,13.81,0,0,0,1.77-2.09.81.81,0,0,1,.19-.21.76.76,0,0,1,.42-.15.68.68,0,0,1,.35.09.64.64,0,0,1,.38.48.77.77,0,0,1-.1.4,6.51,6.51,0,0,1-1.07,1.51c-.24.27-.47.53-.69.75.63.37,1.3.73,2,1a.63.63,0,0,1,.36.47.69.69,0,0,1-.19.54.59.59,0,0,1-.51.26,2.76,2.76,0,0,1-1.28-.44,12.52,12.52,0,0,1-1.14-.65.48.48,0,0,1-.08.21.56.56,0,0,1-.49.26l-6.29.42a.63.63,0,0,1-.49-.13.27.27,0,0,1-.11-.19,17,17,0,0,1-2.11,1.33,2.86,2.86,0,0,1-.91.3.63.63,0,0,1-.56-.25.83.83,0,0,1-.18-.46.69.69,0,0,1,.23-.53,23.55,23.55,0,0,0,2.24-1.43c-.55-.41-1.06-.76-1.51-1.08a.73.73,0,0,1-.31-.51.64.64,0,0,1,.24-.5.91.91,0,0,1,.53-.24.71.71,0,0,1,.39.12c.84.57,1.45,1,1.85,1.32l.41-.35a3.44,3.44,0,0,0,1.2-1.54c0-.08-.07-.12-.2-.11l-4.29.28c-.42,0-.64-.18-.67-.64a.56.56,0,0,1,.58-.67ZM63.08,44.81a.73.73,0,0,1-.87-.76l-.16-2.44a.72.72,0,0,1,.76-.86l8.92-.58a.72.72,0,0,1,.87.74l.16,2.44a.72.72,0,0,1-.76.87l-1,.06-.39,1.34,3.24-.21a.89.89,0,0,1,.55.11.78.78,0,0,1,.18.53.84.84,0,0,1-.09.51.7.7,0,0,1-.55.27l-12.53.83a.6.6,0,0,1-.73-.69.82.82,0,0,1,.12-.56.8.8,0,0,1,.52-.17L64.49,46,64,44.75Zm8-2.1L71,41.77c0-.16-.11-.23-.27-.22L64,42c-.18,0-.25.1-.24.26l.06.94c0,.18.09.25.27.24L70.84,43A.23.23,0,0,0,71.08,42.71ZM70,38a24.06,24.06,0,0,1-2.94-2.32,0,0,0,0,1,0-.05,5,5,0,0,1-.68,1.27A11.35,11.35,0,0,1,65,38.35Zm-4.41,6.62.54,1.28,2.9-.19.39-1.34Z"/><path class="cls-10" d="M85.36,33.66a1,1,0,0,1,1.15.86,15.84,15.84,0,0,0,1.77,6.33,15.15,15.15,0,0,0,3.61,4.6.93.93,0,0,1,.25.68.94.94,0,0,1-.26.61,1,1,0,0,1-.78.28,2.3,2.3,0,0,1-1.41-.79,18.82,18.82,0,0,1-3-4.62A22.55,22.55,0,0,1,85,35.72a.08.08,0,0,1,0-.06,7.55,7.55,0,0,1-.21.85A22.71,22.71,0,0,1,82.52,42,21,21,0,0,1,79,46.85a.93.93,0,0,1-.56.33.77.77,0,0,1-.6-.23.63.63,0,0,1-.23-.51,1.94,1.94,0,0,1,.49-1.18,33,33,0,0,0,3.17-4.53,26.29,26.29,0,0,0,2.16-5.24l-2.7,0a.73.73,0,0,1-.66-.26,1.06,1.06,0,0,1-.22-.66.91.91,0,0,1,.25-.67.77.77,0,0,1,.61-.22Z"/><path class="cls-10" d="M103.2,35.35l.07-1.76c0-.46.34-.69.91-.7s.84.3.84.78l-.08,1.75,3.44.15a1.07,1.07,0,0,1,.68.22,1.24,1.24,0,0,1,0,1.28.87.87,0,0,1-.73.25l-3.44-.15-.38,8.93a1.42,1.42,0,0,1-.4.95,1.76,1.76,0,0,1-1,.37,23,23,0,0,1-2.41-.22,11.31,11.31,0,0,1-2-.42,1,1,0,0,1-.4-.82c0-.55.26-.86.73-.91l.65.11a15.36,15.36,0,0,0,2.82.47c.16,0,.26-.07.26-.22l.32-7.47a13.38,13.38,0,0,1-2.19,3.44,12.06,12.06,0,0,1-4.12,3,2.57,2.57,0,0,1-1.17.27,1,1,0,0,1-.75-.4.84.84,0,0,1-.21-.57.63.63,0,0,1,.34-.61,14.16,14.16,0,0,0,4.1-2.42A10.09,10.09,0,0,0,101.6,37l-5.46-.24a.92.92,0,0,1-.67-.24.81.81,0,0,1-.18-.66,1,1,0,0,1,.24-.68,1,1,0,0,1,.68-.16Z"/><path class="cls-10" d="M118.52,39.58c.78.08,1.13.58,1,1.49l-.65,6.35a1,1,0,0,1-.53.91,3.07,3.07,0,0,1-1.52.13,3.26,3.26,0,0,1-1.41-.4.77.77,0,0,1-.37-.6c.05-.54.29-.81.71-.81l.26.06a4,4,0,0,0,1.09.27c.13,0,.2-.08.21-.23l.12-1.12-3.23-.33L114,47.35a.7.7,0,0,1-.29.57,1,1,0,0,1-.6.1.77.77,0,0,1-.6-.26.87.87,0,0,1-.14-.58l.7-6.78c.1-.9.51-1.33,1.26-1.25Zm-2-5.61a.58.58,0,0,1,.21.47c-.1.33-.46,1.19-1.09,2.59a17.68,17.68,0,0,0,2.72-.19c-.08-.26-.15-.53-.22-.78a1.59,1.59,0,0,1-.12-.68.64.64,0,0,1,.36-.53.88.88,0,0,1,.5-.08,1.12,1.12,0,0,1,.37.17,8.62,8.62,0,0,1,1.06,3.83.59.59,0,0,1-.24.45.89.89,0,0,1-.65.15.69.69,0,0,1-.52-.38c-.07-.26-.12-.53-.19-.79a21.29,21.29,0,0,1-5.35.22.79.79,0,0,1-.54-.25.72.72,0,0,1-.13-.58.86.86,0,0,1,.19-.46.65.65,0,0,1,.5-.16,4.35,4.35,0,0,0,.5,0c.34-.8.76-1.74,1.24-2.85a.85.85,0,0,1,.86-.36A1.15,1.15,0,0,1,116.52,34Zm1.07,10.36.11-1-3.23-.34L114.36,44Zm.25-2.38.08-.79c0-.16,0-.26-.16-.28L115,40.6c-.21,0-.31.07-.33.22l-.08.8Zm4.24.26L122,43.42a12,12,0,0,0,2.33-.58,3.68,3.68,0,0,1,.77-.19.66.66,0,0,1,.61.8,1,1,0,0,1-.31.55,11.94,11.94,0,0,1-3.55.84l-.2,2c0,.29.12.45.47.49l1.79.18c.23,0,.37-.12.45-.44a5.47,5.47,0,0,0,.23-1.24.61.61,0,0,1,.73-.43,1.5,1.5,0,0,1,.61.23.68.68,0,0,1,.26.6,6.22,6.22,0,0,1-.55,2,1.45,1.45,0,0,1-1.52.87l-3-.31a1.41,1.41,0,0,1-.91-.56A2.19,2.19,0,0,1,120,47l.51-5c0-.44.31-.66.82-.6S122.12,41.77,122.08,42.21Zm.73-7.1-.11,1a13.76,13.76,0,0,0,2.32-.45,3.23,3.23,0,0,1,.77-.16.76.76,0,0,1,.5.3.84.84,0,0,1,.11.51.88.88,0,0,1-.31.54,12,12,0,0,1-3.54.74l-.19,1.83c0,.29.12.45.47.48l1.73.18a.38.38,0,0,0,.44-.31,3.27,3.27,0,0,0,.19-.94.61.61,0,0,1,.74-.42,1.37,1.37,0,0,1,.6.23.71.71,0,0,1,.26.61,4.23,4.23,0,0,1-.51,1.67,1.42,1.42,0,0,1-1.49.7l-2.93-.3a1.28,1.28,0,0,1-1-.6,2.45,2.45,0,0,1-.11-1.27l.46-4.49c0-.44.31-.66.82-.6S122.85,34.67,122.81,35.11Z"/><path class="cls-1" d="M60.57,84.22l-15.18,8-.06.21c-.13.45-3.19,11.23,2.47,18.89l.54.72.33-.84c0-.14,5.61-14.17,12.57-19.06l.25-.17Z"/></g></svg>