<svg xmlns="http://www.w3.org/2000/svg" xmlns:xlink="http://www.w3.org/1999/xlink" viewBox="0 0 210 85"><defs><style>.cls-1{fill:none;}.cls-2{fill:#fff;}.cls-3{clip-path:url(#clip-path);}.cls-4{fill:#a7812b;}.cls-5{fill:#e33859;}.cls-6{fill:#eb848c;}.cls-7{fill:#231815;}.cls-8{fill:#0a5e7e;}.cls-9{fill:#fdde32;}.cls-10{fill:#e10b20;}.cls-11{fill:#4d4d4d;}</style><clipPath id="clip-path"><circle class="cls-1" cx="47" cy="36.23" r="45.5"/></clipPath></defs><title>頁面_Mobile_FAol</title><g id="內容"><circle class="cls-2" cx="47" cy="42.24" r="39.49"/><g class="cls-3"><path class="cls-4" d="M49.81,36.65a5.49,5.49,0,0,0-1.55-.37h0a5.77,5.77,0,0,0-1.59,0,2.1,2.1,0,0,0,1.09,1.12l0-.27a.4.4,0,1,1,.79.1l0,.23A2.36,2.36,0,0,0,49.81,36.65Z"/><path class="cls-4" d="M48.23,36.8a.41.41,0,0,0-.44.35l0,.27a1.4,1.4,0,0,0,.35.1,1.08,1.08,0,0,0,.44,0l0-.23A.4.4,0,0,0,48.23,36.8Z"/><path class="cls-5" d="M55.16,41.31a42.46,42.46,0,0,0-6.9-1.39l-.43-.05-.36,0c-2.1-.23-4.38-.37-5.86-.37a9.66,9.66,0,0,0-1.24.06c-.93.13-1.4.36-1.52,1.36a12.08,12.08,0,0,0,1.29,6.57,7.3,7.3,0,0,0,.49.84l.4.57c.09.11.17.22.26.32l.18-.16.35-.29A7.24,7.24,0,0,1,47.14,47a8.15,8.15,0,0,1,5.19,3.17,9.58,9.58,0,0,0,1.16-1.12A12.05,12.05,0,0,0,56.31,43C56.43,42,56,41.65,55.16,41.31Z"/><path class="cls-6" d="M47.05,47.81a6.23,6.23,0,0,0-4.34,1.24l-.38.29-.35.29-.14.13a7.38,7.38,0,0,0,2.74,1.72,8,8,0,0,0,1.79.42,8.32,8.32,0,0,0,1.72,0,7,7,0,0,0,.8-.11l.67-.16.68-.23.62-.29a4.68,4.68,0,0,0,.54-.3l.29-.18A7.38,7.38,0,0,0,47.05,47.81Z"/><path class="cls-7" d="M29.51,83l.07-.51.06-.52A9.38,9.38,0,0,1,28,79.09a3,3,0,0,1,1-.81c0-.83,0-1.8,0-2.84h-.13a3.32,3.32,0,0,0-1.52.61c0-.16,0-.32-.08-.48a20.72,20.72,0,0,0-.61-2.94,2.85,2.85,0,0,1,1.1-.87,1.87,1.87,0,0,1,1.25,0c0-.26,0-.52,0-.77s0-.63,0-.94h0l0-.81a13.39,13.39,0,0,0-4.66-4.68,2.27,2.27,0,0,0-3,.58,2.08,2.08,0,0,0,.59,3c3.67,2.34,4,4.69,4.52,7.66C26.82,78,27.24,80.67,29.51,83Zm-3-13.87a2.44,2.44,0,0,0-1,1.13A10,10,0,0,0,23,67.82a2,2,0,0,1,.51-1.37,2.12,2.12,0,0,1,1.33-.65,12.45,12.45,0,0,1,3,3A2.09,2.09,0,0,0,26.51,69.13Z"/><path class="cls-7" d="M82.38,81l-.07-.14,0-.08h0l0,0h0l0,0a1.54,1.54,0,0,0-.28-.34h0a.14.14,0,0,1,0-.07,1.61,1.61,0,0,0-.2-1.16,2.51,2.51,0,0,0-.71-.77,3.41,3.41,0,0,0-.86-.46,6.91,6.91,0,0,0-1.81-.39l-.46,0c-.14,0-.29,0-.44,0s-.58,0-.88,0c-.58,0-1.17,0-1.75.1l-.52.06a1.56,1.56,0,0,0-.22-.72c-5.79-9.47-6-9.7-10.07-15.63a35.85,35.85,0,0,0-6.24-7.11.79.79,0,0,1,.12.42l0,.18a1.85,1.85,0,0,1-.17.39,35.91,35.91,0,0,1,5.67,6.57c4.11,5.92,4.27,6.15,10,15.59a.83.83,0,0,1,.1.43.74.74,0,0,1-.05.34l0,.09c-.07.14-.15.29-.25.46a9.94,9.94,0,0,1-.9,1.37,7.8,7.8,0,0,1-3.74,2.74l-.38.1-.33.08-.15,0-.41.07h0a.69.69,0,0,1-.42-.08,1,1,0,0,1-.31-.26c-.76-1.1-1.72-2.27-2.83-3.62L62,76.92c0,.22,0,.44,0,.66s0,.45,0,.66c.34.43.68.84,1,1.24,1.1,1.34,2,2.5,2.79,3.57a1.59,1.59,0,0,0,1.27.69l0,.06c.12.28.26.56.39.83.28.55.58,1.08.89,1.6.16.26.32.52.49.78s.34.51.52.76a7.41,7.41,0,0,0,1.3,1.4,4,4,0,0,0,.46.29,1.8,1.8,0,0,0,.58.18h.45l.14,0a1.62,1.62,0,0,0,.55-.23,1.29,1.29,0,0,0,.45-.48,1.54,1.54,0,0,0,.18-.59,3.46,3.46,0,0,0,0-1c-.06-.32-.14-.62-.21-.9A3.38,3.38,0,0,1,73.2,86h0l.25.08.87.26a11,11,0,0,0,1.83.38l.49,0c.14,0,.31,0,.47,0a6.27,6.27,0,0,0,1-.11,3.78,3.78,0,0,0,1.83-.85,1.75,1.75,0,0,0,.35-.48,1.33,1.33,0,0,0,.12-.59,2.92,2.92,0,0,0,.69-.45,1.74,1.74,0,0,0,.48-.66,1.33,1.33,0,0,0,.12-.69,2.17,2.17,0,0,0,.34-.22,1.37,1.37,0,0,0,.49-.78A1.66,1.66,0,0,0,82.38,81Zm-1.92,2.6a1.68,1.68,0,0,1-.4.28,1.83,1.83,0,0,0-.3-.27,5.09,5.09,0,0,0-1.31-.6l-.2-.06L78,82.82l-.2,0-.5-.12c-.28-.07-.57-.12-.85-.17l-.25,0a9.3,9.3,0,0,0-1.05-.09,6.57,6.57,0,0,0-.77,0,.2.2,0,0,0-.14.06.19.19,0,0,0,0,.09.2.2,0,0,0,.14.25q.47.13.93.24l.81.19.39.08.58.14.53.13.21,0a6.21,6.21,0,0,1,1.39.56l.13.08a.68.68,0,0,1,.21.2.19.19,0,0,1,0,.08v0a.11.11,0,0,1,0,0v.06a.53.53,0,0,1-.1.33l-.13.15a2.85,2.85,0,0,1-1.41.62,5.44,5.44,0,0,1-1.66,0,9.1,9.1,0,0,1-1.69-.36l-.85-.26a3.81,3.81,0,0,0-.47-.14h0a1,1,0,0,0-.33,0,.42.42,0,0,0-.18,0h0l0,0,0,0,0,0a.69.69,0,0,0-.15.15.61.61,0,0,0-.07.14.92.92,0,0,0-.06.4l0,.28c0,.17.07.32.1.47.07.3.15.58.19.85a2.53,2.53,0,0,1,0,.76.57.57,0,0,1-.23.44,1.16,1.16,0,0,1-.27.11h-.3a1.38,1.38,0,0,1-.58-.28,6.36,6.36,0,0,1-1.14-1.22l-.5-.72c-.16-.25-.32-.49-.47-.75-.31-.5-.6-1-.87-1.54-.11-.2-.21-.41-.31-.61l.41-.1.43-.12.45-.17a8.66,8.66,0,0,0,3.5-2.67,11.63,11.63,0,0,0,1.37-2.15c.25,0,.5-.06.75-.09.57,0,1.13-.07,1.7-.08.29,0,.57,0,.85,0h.43c.14,0,.27,0,.4,0a5.7,5.7,0,0,1,1.57.34,2.13,2.13,0,0,1,1.11.85.74.74,0,0,1,.1.27,6.28,6.28,0,0,0-1-.32,15.69,15.69,0,0,0-2.26-.26h-.89a3,3,0,0,0-.7,0,2,2,0,0,0-.44.12l-.14.05,0,0,0,0a.23.23,0,0,0-.07.14.2.2,0,0,0,.18.23h0l0,0,.06,0a2.57,2.57,0,0,0,.43.08,4.38,4.38,0,0,0,.67,0c.25,0,.54,0,.86,0a14.15,14.15,0,0,1,1.47.17c.21,0,.43.07.64.12a5.53,5.53,0,0,1,1,.33l.06,0a1.92,1.92,0,0,1,.42.28h0a1.53,1.53,0,0,1,.13.16v0h0l0,.07.06.15a1.67,1.67,0,0,1,0,.18s0,.07,0,.1a.17.17,0,0,0,0,.07.52.52,0,0,1-.18.28l-.1.06a.86.86,0,0,0-.13-.14,2.38,2.38,0,0,0-.66-.41,6.37,6.37,0,0,0-1.11-.34l-.15,0L79,81,78.54,81c-.53-.07-1-.12-1.46-.16l-.88,0h-.68a1.9,1.9,0,0,0-.6.15.19.19,0,0,0-.1.1.22.22,0,0,0,.1.3h0l0,0a2.46,2.46,0,0,0,.53.16c.17,0,.37,0,.6.07h.06c.25,0,.54,0,.85.08s.69.07,1.07.13l.47.08.46.09.1,0a6.17,6.17,0,0,1,1.08.33l.08,0a1.44,1.44,0,0,1,.33.2l0,.06v0h0l0,.06,0,0v0l0,0v0a.14.14,0,0,0,0,.06.67.67,0,0,1,0,.31A.86.86,0,0,1,80.46,83.55Z"/><path class="cls-7" d="M58.72,16.16c.91,0,.59-.61-.76-1.31a20.37,20.37,0,0,0-4.53-1.51c-.78-.18-1.61-.32-2.46-.43s-1.47-.14-2.17-.16a20.26,20.26,0,0,0-5.11.38c-1.48.35-1.92.83-1,1.09a53.92,53.92,0,0,0,6.08,1.12c.61.09,1.25.17,1.93.25s1.54.18,2.24.25A50.31,50.31,0,0,0,58.72,16.16Z"/><path class="cls-7" d="M52.64,16.83a9.53,9.53,0,0,0-2.07-.48,9.68,9.68,0,0,0-1.85-.05,8.39,8.39,0,0,0-2.69.6c-1,.42-1.34.75-.86,1.12a10.65,10.65,0,0,0,3.73,1.31q.6.12,1.29.21c.56.07,1.09.1,1.58.12a10.05,10.05,0,0,0,3.65-.4c.56-.24.28-.66-.56-1.29A8.11,8.11,0,0,0,52.64,16.83Z"/><path class="cls-7" d="M30.18,45.09a17,17,0,0,1-2-3.56l1.08-.26c.27-.07.51-.1.66-.16L30.1,41l.08-.05a.09.09,0,0,0,0,0,.13.13,0,0,0-.07-.16,1,1,0,0,0-.27,0H29.8a5.41,5.41,0,0,0-.61.11L28,41.12a17.5,17.5,0,0,1-.66-2l.8.1.1,0,.5.08.08,0,.36.08.41.1.25.06a1,1,0,0,0,.27,0h0a.09.09,0,0,0,.06,0,.11.11,0,0,0,0-.16,1,1,0,0,0-.23-.16,3.35,3.35,0,0,0-.67-.21L29,38.9l-.17,0-.51-.1h0l-.67-.1-.37,0c0-.14-.07-.28-.1-.42s-.09-.46-.13-.69-.07-.45-.1-.67c0,0,0-.08,0-.12A24,24,0,0,1,26.72,34a26,26,0,0,1,.18-3.13,26.52,26.52,0,0,1,.6-3.17,23.57,23.57,0,0,1,.78-2.42,20.61,20.61,0,0,1,1.12-2.43,3.9,3.9,0,0,1,.19-.35,3.79,3.79,0,0,1,.2-.34,19.66,19.66,0,0,1,2.14-2.95l.27-.3.28-.3a19.41,19.41,0,0,1,4.12-3.26l.35-.19.35-.2a21.13,21.13,0,0,1,3.27-1.39l.39-.12.37-.11a23.48,23.48,0,0,1,6.42-.88c.35,0,.71,0,1.06,0,.72,0,1.45.08,2.19.17s1.67.25,2.48.42a23.34,23.34,0,0,1,6.76,2.52l.34.2.34.21a19.31,19.31,0,0,1,2.84,2.13l.29.27.29.28A21.47,21.47,0,0,1,66,20.47a19.5,19.5,0,0,1,1.59,2.36l.2.36c.06.12.12.24.19.36a19.79,19.79,0,0,1,1.36,3.37c0,.13.07.26.11.38s.08.26.11.39a19.77,19.77,0,0,1,.52,2.8,20.53,20.53,0,0,1,.16,2.23,23.72,23.72,0,0,1-.17,3.35,23.43,23.43,0,0,1-.55,3,21.23,21.23,0,0,1-1.75,4.66c-.64,0-1.27-.06-1.75,0a4,4,0,0,0-.65,0,.72.72,0,0,0-.24.09l0,0a.13.13,0,0,0,.05.17h0a.74.74,0,0,0,.24.07c.16,0,.38,0,.64,0,.42,0,1,0,1.52.06-.31.56-.64,1.09-1,1.6l-1-.53a4.71,4.71,0,0,0-.59-.3,1,1,0,0,0-.27,0l-.06,0a.11.11,0,0,0,0,.16.71.71,0,0,0,.18.19,6.57,6.57,0,0,0,.57.34l.9.53A18.27,18.27,0,0,1,63.65,49a18.93,18.93,0,0,1-7.41,3.92l-.5.13-.54.13a3.92,3.92,0,0,0,.55-.12H56l.53.19h0l.39.17.15.08a18.79,18.79,0,0,0,9.87-7l.14.09c.63.37,1.24.76,1.7,1.07.23.15.41.29.55.36a1.23,1.23,0,0,0,.25.09h.07a.13.13,0,0,0,.06-.16,1.08,1.08,0,0,0-.16-.22,3.77,3.77,0,0,0-.54-.4c-.45-.32-1.07-.73-1.69-1.12l-.11-.07a19.56,19.56,0,0,0,1.17-1.94c.53.05,1,.11,1.45.17s.48.08.63.08a.87.87,0,0,0,.25,0l.06,0a.12.12,0,0,0,0-.17.72.72,0,0,0-.23-.12,3.22,3.22,0,0,0-.64-.13c-.36-.06-.81-.13-1.29-.18a23.24,23.24,0,0,0,2.22-7.64,23.32,23.32,0,0,0-.56-8.78,7.29,7.29,0,0,0,4.1-5,8.48,8.48,0,0,0-2-7.25,7.74,7.74,0,0,0-6.44-2.88A7.88,7.88,0,0,0,60.75,15a25.15,25.15,0,0,0-9.66-3.11A25.28,25.28,0,0,0,41,12.58a7.89,7.89,0,0,0-4.39-3.84A7.71,7.71,0,0,0,29.65,10,8.5,8.5,0,0,0,26,16.56a7.36,7.36,0,0,0,2.79,5.8,23.39,23.39,0,0,0-2.63,8.4A24.52,24.52,0,0,0,26,35.88c-1.3-1.34-2.56-2.71-3.71-4.06.06-.11.12-.2.18-.29s.35-.48.63-.84a20,20,0,0,0,2.35-3.48A1.83,1.83,0,0,0,25,25.33a2,2,0,0,0-2.12-.51,5.61,5.61,0,0,0-2,1.6c-.46.49-1.09,1.15-1.37,1.12a.57.57,0,0,1-.16-.14,19.26,19.26,0,0,1-1.9-3.91A27.1,27.1,0,0,0,16.34,21a2.35,2.35,0,0,0-2.27-1.25,1.85,1.85,0,0,0-1.52,1.48c-.19.77.3,2.07.77,3.32a8.16,8.16,0,0,1,.55,1.76.31.31,0,0,1-.4.15,24.65,24.65,0,0,1-1.75-2.25l-.85-1.14c-.83-1-2.09-2.32-3.52-1.41-1.76,1.13-.41,3.34,0,4.07l1,1.52C8.83,28,9.41,29,9.64,29.4l-.21-.09L9,29.08A24.75,24.75,0,0,0,5.2,27.45a1.85,1.85,0,0,0-2.05,1.14c-.28.74-.08,1.84,1.31,2.71L5.63,32a17.07,17.07,0,0,1,2.62,1.79l0,0a8,8,0,0,1-.86,0,5.4,5.4,0,0,0-3,.51,1.65,1.65,0,0,0-.81,1.77c.15.58.82,1.59,3.63,1.79,1.19.09,2.09.19,2.81.28a18.22,18.22,0,0,0,2.18.17c.3,0,.62,0,1,0A244.5,244.5,0,0,0,30,58.42l0-.18a.39.39,0,0,1,.12-.25l.05,0,.28-.2A241,241,0,0,1,14.13,38.22a10.07,10.07,0,0,0,4.26-2,11.1,11.1,0,0,0,3.49-3.66c1.33,1.54,2.8,3.11,4.29,4.63.07.46.14.91.24,1.36l-1.3,0a6,6,0,0,0-.7,0,1.39,1.39,0,0,0-.26.09l0,0a.12.12,0,0,0,.06.16.76.76,0,0,0,.26.07c.16,0,.4,0,.68,0s.89,0,1.41.06a19.66,19.66,0,0,0,.71,2.33h-.06c-.72.21-1.44.44-2,.64a4.06,4.06,0,0,0-.63.27.77.77,0,0,0-.21.17.07.07,0,0,0,0,.06.12.12,0,0,0,.1.13h0a1.08,1.08,0,0,0,.27,0c.16,0,.37-.13.63-.22.53-.18,1.24-.4,2-.58l.11,0A19.33,19.33,0,0,0,37.88,52.18a3.76,3.76,0,0,1,.42-.26h0l.18-.09a.36.36,0,0,1,.29,0,.39.39,0,0,1,.3,0,13.23,13.23,0,0,0,2.66.85A20.54,20.54,0,0,1,30.18,45.09Zm-.07-34.44a7.5,7.5,0,0,1,4.31-1.46,6.26,6.26,0,0,1,1.92.3,7.13,7.13,0,0,1,3.88,3.33,20.22,20.22,0,0,0-3.3,1.41,3.57,3.57,0,0,0-1.77-1.39,3.5,3.5,0,0,0-3.13.57,3.76,3.76,0,0,0-1.65,2.94,3.33,3.33,0,0,0,.93,2.33,20.25,20.25,0,0,0-2.16,3,6.55,6.55,0,0,1-2.39-5.09A7.65,7.65,0,0,1,30.11,10.65Zm1.05,5.71a3,3,0,0,1,1.32-2.31,3,3,0,0,1,1.68-.57,2.34,2.34,0,0,1,.74.12,2.68,2.68,0,0,1,1.33,1,20.19,20.19,0,0,0-4.39,3.46A2.55,2.55,0,0,1,31.16,16.36Zm40.59-.67a7.65,7.65,0,0,1,1.86,6.55,6.56,6.56,0,0,1-3.55,4.38,19.94,19.94,0,0,0-1.38-3.41,3.37,3.37,0,0,0,1.47-2.05,3.8,3.8,0,0,0-.91-3.25,3.33,3.33,0,0,0-4.94-.38,21.66,21.66,0,0,0-2.86-2.16A7.07,7.07,0,0,1,66,13.08,6.92,6.92,0,0,1,71.75,15.69Zm-6.88,2.38a2.74,2.74,0,0,1,1.53-.66,2.71,2.71,0,0,1,2.24,1A3,3,0,0,1,69.37,21,2.56,2.56,0,0,1,68.3,22.5,19.51,19.51,0,0,0,66.6,20,21,21,0,0,0,64.87,18.07ZM21.44,31.73a1.62,1.62,0,0,0-.1.18,10.7,10.7,0,0,1-3.4,3.65,9,9,0,0,1-4.35,1.94l-.31,0h-.15l-.47,0a15,15,0,0,1-2.47-.15c-.73-.09-1.64-.19-2.84-.28-2-.14-2.8-.71-2.92-1.2a.9.9,0,0,1,.47-.91A4.07,4.07,0,0,1,7,34.67h.45c.91,0,1.63,0,1.74-.57a1,1,0,0,0-.33-.83,15.61,15.61,0,0,0-2.78-1.93l-1.17-.73c-.83-.52-1.2-1.18-1-1.75a1,1,0,0,1,1.17-.63A28,28,0,0,1,8.61,29.8L9.1,30c.38.18.86.35,1.19.11a.64.64,0,0,0,.24-.63A11.66,11.66,0,0,0,9,26.83c-.31-.49-.64-1-.94-1.52-1.24-2-.8-2.65-.29-3,.32-.2,1-.63,2.46,1.24.2.25.51.67.83,1.11,1.45,2,1.83,2.43,2.11,2.53a1.14,1.14,0,0,0,1.38-.5c.26-.4,0-1.07-.49-2.44a7.76,7.76,0,0,1-.75-2.84,1.06,1.06,0,0,1,.86-.89,1.54,1.54,0,0,1,1.47.86,25.33,25.33,0,0,1,1.07,2.4,18.45,18.45,0,0,0,2.05,4.13,1.07,1.07,0,0,0,.63.4c.7.09,1.33-.58,2.07-1.36a5.1,5.1,0,0,1,1.69-1.4,1.23,1.23,0,0,1,1.3.31,1,1,0,0,1,.26,1.05,21.66,21.66,0,0,1-2.24,3.28c-.29.39-.52.69-.64.87a.61.61,0,0,0-.07.1c-.07.11-.15.23-.22.36Z"/><path class="cls-7" d="M38.87,24.59C37.1,24.37,35.4,26.73,35,30A8.92,8.92,0,0,0,35.39,34c.45,1.23,1.19,2,2.08,2.07h.23A2.91,2.91,0,0,0,40,34.59a8.88,8.88,0,0,0,1.34-3.87A8.92,8.92,0,0,0,41,26.65C40.5,25.43,39.76,24.69,38.87,24.59Zm-.39,4.9c-.13,1.08-.72,1.91-1.31,1.83s-1-1-.84-2.09.72-1.91,1.31-1.84S38.61,28.4,38.48,29.49Z"/><path class="cls-7" d="M58.61,38.49l.23,0A3,3,0,0,0,61.13,37a8.92,8.92,0,0,0,1.33-3.87h0c.39-3.23-.69-5.92-2.46-6.14s-3.46,2.15-3.85,5.38S56.84,38.28,58.61,38.49Zm-.92-6.68c.13-1.08.72-1.91,1.31-1.83s1,1,.84,2.09-.72,1.91-1.32,1.84S57.56,32.9,57.69,31.81Z"/><path class="cls-7" d="M41.69,19.71h.1a.24.24,0,0,0,.25-.24,1.09,1.09,0,0,0,0-.12.92.92,0,0,0-.12-.32,1.53,1.53,0,0,0-.32-.39l-.06-.05-.18-.15-.15-.1-.14-.09-.21-.12a3.15,3.15,0,0,0-.49-.22,3.61,3.61,0,0,0-.83-.21,4.7,4.7,0,0,0-.92,0l-.46.07a4,4,0,0,0-.47.11,2.85,2.85,0,0,0-.42.16,3.7,3.7,0,0,0-.4.17l0,0a6.45,6.45,0,0,0-.76.47,6,6,0,0,0-.83.73q-.16.16-.3.33c-.15.17-.28.34-.39.48a1.85,1.85,0,0,0-.24.42.84.84,0,0,0-.07.31.36.36,0,0,0,0,.12v0a.24.24,0,0,0,0,.08.26.26,0,0,0,.34.09l.09-.05.23-.18c.18-.16.35-.45.63-.74s.29-.3.47-.46.36-.29.56-.44a4.61,4.61,0,0,1,.65-.38c.12-.05.24-.12.35-.16a2.45,2.45,0,0,1,.38-.13,1.9,1.9,0,0,1,.36-.09c.12,0,.25,0,.37-.06a3.56,3.56,0,0,1,.73,0,3.2,3.2,0,0,1,.66.14,2.76,2.76,0,0,1,.46.19l.1,0,.23.15h0l.18.13.14.13.16.13.23.14Z"/><path class="cls-7" d="M58.77,20.73l-.09.05a1.77,1.77,0,0,0-.41.32,1,1,0,0,0-.23.41v.08a.25.25,0,0,0,.28.21h0a1.35,1.35,0,0,0,.38-.12,1,1,0,0,0,.2-.11l.17-.09.19-.1.3-.13.08,0a3.08,3.08,0,0,1,1.24-.18,3,3,0,0,1,1.43.44l.16.09.17.12c.1.09.21.17.3.26a5.68,5.68,0,0,1,.53.57,5.55,5.55,0,0,1,.42.61c.12.21.22.41.31.6s.16.37.22.53a1.89,1.89,0,0,0,.18.4,2.11,2.11,0,0,0,.16.26l.08.08.08,0a.22.22,0,0,0,.31-.11v0a.64.64,0,0,0,0-.12,1.64,1.64,0,0,0,0-.33A4,4,0,0,0,65,23.4c0-.1-.09-.2-.14-.31s-.12-.24-.19-.37a5.78,5.78,0,0,0-.46-.72,4.87,4.87,0,0,0-.61-.69c-.1-.1-.21-.18-.31-.27L63.19,21,63,20.85l-.22-.14a3.82,3.82,0,0,0-3.24-.32l-.27.09-.12.06A3.36,3.36,0,0,0,58.77,20.73Z"/><path class="cls-7" d="M48.25,52.72a6,6,0,0,0,.74-.1,6.13,6.13,0,0,0,.87-.21,7.92,7.92,0,0,0,1.74-.74l.56-.35c.21-.14.42-.29.62-.45a12.92,12.92,0,0,0,4.32-7.78,2.16,2.16,0,0,0-1.65-2.52,42.49,42.49,0,0,0-7.1-1.44l.1-.83a3.12,3.12,0,0,0,2-1.12.85.85,0,0,0,.2-.82.91.91,0,0,0-.42-.4,5.35,5.35,0,0,0-1.84-.47,7.44,7.44,0,0,0-1.37,0,1.54,1.54,0,0,0-1,.31.79.79,0,0,0-.06.85,2.89,2.89,0,0,0,1.72,1.61l-.1.81a41.75,41.75,0,0,0-7.3-.31,2.16,2.16,0,0,0-2.2,2.05,12.79,12.79,0,0,0,1.37,7l0,0c.09.17.19.35.3.53s.22.37.35.55A8.62,8.62,0,0,0,44,52.09a8.83,8.83,0,0,0,2.33.6,9.36,9.36,0,0,0,1.16.07A7.09,7.09,0,0,0,48.25,52.72Zm-6.41-3,.14-.13.35-.29.38-.29a6.23,6.23,0,0,1,4.34-1.24,7.38,7.38,0,0,1,4.64,2.85l-.29.18a4.68,4.68,0,0,1-.54.3l-.62.29-.68.23-.67.16a7,7,0,0,1-.8.11,8.32,8.32,0,0,1-1.72,0,8,8,0,0,1-1.79-.42A7.38,7.38,0,0,1,41.84,49.76Zm-1.21-1.47a7.3,7.3,0,0,1-.49-.84,12.08,12.08,0,0,1-1.29-6.57c.12-1,.59-1.23,1.52-1.36a9.66,9.66,0,0,1,1.24-.06c1.48,0,3.76.14,5.86.37l.36,0,.43.05a42.46,42.46,0,0,1,6.9,1.39c.87.34,1.27.68,1.15,1.68a12.05,12.05,0,0,1-2.82,6.08,9.58,9.58,0,0,1-1.16,1.12A8.15,8.15,0,0,0,47.14,47a7.24,7.24,0,0,0-5.32,1.71l-.35.29-.18.16c-.09-.1-.17-.21-.26-.32Zm7.63-12h0a5.49,5.49,0,0,1,1.55.37,2.36,2.36,0,0,1-1.26.83,1.08,1.08,0,0,1-.44,0,1.4,1.4,0,0,1-.35-.1,2.1,2.1,0,0,1-1.09-1.12A5.77,5.77,0,0,1,48.26,36.28Z"/><path class="cls-8" d="M54.74,84.63H53.67c-1.72,0-3.68,0-5.83-.17-.1,1.2-.41,3.61-1.33,4.75a2.22,2.22,0,0,1-.3.31,1.68,1.68,0,0,1-.34.2c0,.1,0,.21.06.34.14,1,.24,2.84.36,6.48,0,1.33.09,2.69.14,3.17l.31.06.4,0,.4,0c1.09.11,2.74.23,4.35.34l1.3.1a30.81,30.81,0,0,0,5.43-.07l.4-.06.4-.06a3.28,3.28,0,0,0,.45-.11c.08-1,.44-6.37.78-11.59A8.2,8.2,0,0,1,54.74,84.63Z"/><path class="cls-8" d="M55.75,84.61h-.07a7.43,7.43,0,0,0,4.37,2.87l.65.13c.07-1.14.15-2.25.21-3.29C59.91,84.42,58.13,84.56,55.75,84.61Z"/><path class="cls-8" d="M30.85,84.51l.46,0,.63-.08h0l.61-.13c.16,0,.33-.08.5-.14a7.61,7.61,0,0,0,2.2-1.05l.13-.1c-.55-.11-1.1-.24-1.64-.37-1.05-.26-2.08-.55-3.09-.89l-.16-.06-.06.43-.08.64-.06.48h0l-.06.47-.11.86C30.31,84.53,30.56,84.53,30.85,84.51Z"/><path class="cls-8" d="M44,89c-.67-1.32-.61-3.75-.54-4.85h-.07l-.4,0-.4,0c-2-.2-3.92-.44-5.74-.77l-.5-.09a8.12,8.12,0,0,1-2.71,1.59c-.2.07-.4.14-.6.19l-.63.16a10.3,10.3,0,0,1-2.11.22H30L28.67,96l.3.25.36.24a2.87,2.87,0,0,0,.36.21,18.17,18.17,0,0,0,5.82,1.84c2.47.43,4.11.63,5.16.72l.4,0,.41,0c.33,0,.57,0,.72,0,.16-.75.63-2.83,1.13-4.88a45.59,45.59,0,0,1,1.24-4.49c0-.09.07-.17.1-.24A1.66,1.66,0,0,1,44,89Z"/><path class="cls-8" d="M45.59,84.3l-1.29-.11c-.2,3,.33,4.62.81,4.83l.07,0a.5.5,0,0,0,.3,0,.64.64,0,0,0,.23-.12c.84-.68,1.21-3.07,1.34-4.49Z"/><path class="cls-2" d="M36.23,14.62a2.68,2.68,0,0,0-1.33-1,2.34,2.34,0,0,0-.74-.12,3,3,0,0,0-1.68.57,3,3,0,0,0-1.32,2.31,2.55,2.55,0,0,0,.68,1.72A20.19,20.19,0,0,1,36.23,14.62Z"/><path class="cls-2" d="M68.64,18.43a2.71,2.71,0,0,0-2.24-1,2.74,2.74,0,0,0-1.53.66A21,21,0,0,1,66.6,20a19.51,19.51,0,0,1,1.7,2.52A2.56,2.56,0,0,0,69.37,21,3,3,0,0,0,68.64,18.43Z"/><path class="cls-2" d="M47.85,53.45h.74a34.73,34.73,0,0,0,6.61-.31h0l.54-.13.5-.13A18.93,18.93,0,0,0,63.65,49a12.15,12.15,0,0,0-1.28-4A15.74,15.74,0,0,0,57,39.13,24.89,24.89,0,0,0,50.19,36a.91.91,0,0,1,.42.4.85.85,0,0,1-.2.82,3.12,3.12,0,0,1-2,1.12l-.1.83a42.49,42.49,0,0,1,7.1,1.44,2.16,2.16,0,0,1,1.65,2.52,12.92,12.92,0,0,1-4.32,7.78c-.2.16-.41.31-.62.45l-.56.35a7.92,7.92,0,0,1-1.74.74,6.13,6.13,0,0,1-.87.21,6,6,0,0,1-.74.1,7.09,7.09,0,0,1-.81,0,9.36,9.36,0,0,1-1.16-.07,8.83,8.83,0,0,1-2.33-.6A8.62,8.62,0,0,1,40.11,49c-.13-.18-.24-.37-.35-.55s-.21-.36-.3-.53l0,0a12.79,12.79,0,0,1-1.37-7,2.16,2.16,0,0,1,2.2-2.05,41.75,41.75,0,0,1,7.3.31l.1-.81a2.89,2.89,0,0,1-1.72-1.61.79.79,0,0,1,.06-.85,1.54,1.54,0,0,1,1-.31,25.32,25.32,0,0,0-8.17,1.46,15.75,15.75,0,0,0-6.57,4.43L32,41.7c-.08.1-.15.22-.23.34l-.21.34a25.42,25.42,0,0,0-1.36,2.71,20.54,20.54,0,0,0,11.55,7.59c.4.1.84.19,1.33.28a33.87,33.87,0,0,0,4.34.47Z"/><path class="cls-2" d="M37.17,31.32c.59.08,1.18-.75,1.31-1.83s-.24-2-.84-2.1-1.18.75-1.31,1.84S36.57,31.25,37.17,31.32Z"/><path class="cls-2" d="M58.52,33.91c.6.07,1.18-.75,1.32-1.84s-.25-2-.84-2.09-1.18.75-1.31,1.83S57.93,33.84,58.52,33.91Z"/><path class="cls-9" d="M29,75.44c0-1.2,0-2.48,0-3.72a1.87,1.87,0,0,0-1.25,0,2.85,2.85,0,0,0-1.1.87,20.72,20.72,0,0,1,.61,2.94c0,.16.05.32.08.48a3.32,3.32,0,0,1,1.52-.61Z"/><path class="cls-9" d="M29.72,81.38l-.43-.15a.42.42,0,0,1-.26-.37s0-1.06-.05-2.58a3,3,0,0,0-1,.81A9.38,9.38,0,0,0,29.64,82Z"/><path class="cls-9" d="M27.87,68.85a12.45,12.45,0,0,0-3-3,2.12,2.12,0,0,0-1.33.65A2,2,0,0,0,23,67.82a10,10,0,0,1,2.46,2.44,2.44,2.44,0,0,1,1-1.13A2.09,2.09,0,0,1,27.87,68.85Z"/><path class="cls-9" d="M24.46,25.88a1.23,1.23,0,0,0-1.3-.31A5.1,5.1,0,0,0,21.47,27c-.74.78-1.37,1.45-2.07,1.36a1.07,1.07,0,0,1-.63-.4,18.45,18.45,0,0,1-2.05-4.13,25.33,25.33,0,0,0-1.07-2.4,1.54,1.54,0,0,0-1.47-.86,1.06,1.06,0,0,0-.86.89,7.76,7.76,0,0,0,.75,2.84c.51,1.37.75,2,.49,2.44a1.14,1.14,0,0,1-1.38.5c-.28-.1-.66-.55-2.11-2.53-.32-.44-.63-.86-.83-1.11C8.77,21.7,8.1,22.13,7.78,22.33c-.51.33-1,1,.29,3,.3.5.63,1,.94,1.52a11.66,11.66,0,0,1,1.52,2.68.64.64,0,0,1-.24.63c-.33.24-.81.07-1.19-.11l-.49-.23a28,28,0,0,0-3.54-1.56,1,1,0,0,0-1.17.63c-.22.57.15,1.23,1,1.75l1.17.73a15.61,15.61,0,0,1,2.78,1.93,1,1,0,0,1,.33.83c-.11.59-.83.58-1.74.57H7a4.07,4.07,0,0,0-2.07.38.9.9,0,0,0-.47.91c.12.49,1,1.06,2.92,1.2,1.2.09,2.11.19,2.84.28a15,15,0,0,0,2.47.15l.47,0h.15l.31,0a9,9,0,0,0,4.35-1.94,10.7,10.7,0,0,0,3.4-3.65,1.62,1.62,0,0,1,.1-.18l.11-.19c.07-.13.15-.25.22-.36a.61.61,0,0,1,.07-.1c.12-.18.35-.48.64-.87a21.66,21.66,0,0,0,2.24-3.28A1,1,0,0,0,24.46,25.88Z"/><path class="cls-9" d="M81.61,81.51a1.67,1.67,0,0,0,0-.18l-.06-.15,0-.07h0v0a1.53,1.53,0,0,0-.13-.16h0a1.92,1.92,0,0,0-.42-.28l-.06,0a5.53,5.53,0,0,0-1-.33c-.21-.05-.43-.09-.64-.12A14.15,14.15,0,0,0,77.71,80c-.32,0-.61,0-.86,0a4.38,4.38,0,0,1-.67,0,2.57,2.57,0,0,1-.43-.08l-.06,0,0,0h0a.2.2,0,0,1-.18-.23.23.23,0,0,1,.07-.14l0,0,0,0,.14-.05a2,2,0,0,1,.44-.12,3,3,0,0,1,.7,0h.89a15.69,15.69,0,0,1,2.26.26,6.28,6.28,0,0,1,1,.32.74.74,0,0,0-.1-.27,2.13,2.13,0,0,0-1.11-.85,5.7,5.7,0,0,0-1.57-.34c-.13,0-.26,0-.4,0h-.43c-.28,0-.56,0-.85,0-.57,0-1.13,0-1.7.08-.25,0-.5,0-.75.09a11.63,11.63,0,0,1-1.37,2.15,8.66,8.66,0,0,1-3.5,2.67l-.45.17-.43.12-.41.1c.1.2.2.41.31.61.27.53.56,1,.87,1.54.15.26.31.5.47.75l.5.72a6.36,6.36,0,0,0,1.14,1.22,1.38,1.38,0,0,0,.58.28h.3a1.16,1.16,0,0,0,.27-.11.57.57,0,0,0,.23-.44,2.53,2.53,0,0,0,0-.76c0-.27-.12-.55-.19-.85,0-.15-.07-.3-.1-.47l0-.28a.92.92,0,0,1,.06-.4.61.61,0,0,1,.07-.14.69.69,0,0,1,.15-.15l0,0,0,0,0,0h0a.42.42,0,0,1,.18,0,1,1,0,0,1,.33,0h0a3.81,3.81,0,0,1,.47.14l.85.26a9.1,9.1,0,0,0,1.69.36,5.44,5.44,0,0,0,1.66,0,2.85,2.85,0,0,0,1.41-.62l.13-.15a.53.53,0,0,0,.1-.33v-.06a.11.11,0,0,0,0,0v0a.19.19,0,0,0,0-.08.68.68,0,0,0-.21-.2l-.13-.08a6.21,6.21,0,0,0-1.39-.56l-.21,0L77,83.41l-.58-.14-.39-.08L75.24,83q-.46-.1-.93-.24a.2.2,0,0,1-.14-.25.19.19,0,0,1,0-.09.2.2,0,0,1,.14-.06,6.57,6.57,0,0,1,.77,0,9.3,9.3,0,0,1,1.05.09l.25,0c.28,0,.57.1.85.17l.5.12.2,0,.27.08.2.06a5.09,5.09,0,0,1,1.31.6,1.83,1.83,0,0,1,.3.27,1.68,1.68,0,0,0,.4-.28.86.86,0,0,0,.27-.39.67.67,0,0,0,0-.31.14.14,0,0,1,0-.06v0l0,0v0l0,0,0-.06h0v0l0-.06a1.44,1.44,0,0,0-.33-.2l-.08,0A6.17,6.17,0,0,0,79.1,82l-.1,0-.46-.09-.47-.08c-.38-.06-.74-.1-1.07-.13s-.6-.06-.85-.08h-.06c-.23,0-.43,0-.6-.07a2.46,2.46,0,0,1-.53-.16l0,0h0a.22.22,0,0,1-.1-.3.19.19,0,0,1,.1-.1,1.9,1.9,0,0,1,.6-.15h.68l.88,0c.44,0,.93.09,1.46.16L79,81l.29,0,.15,0a6.37,6.37,0,0,1,1.11.34,2.38,2.38,0,0,1,.66.41.86.86,0,0,1,.13.14l.1-.06a.52.52,0,0,0,.18-.28.17.17,0,0,1,0-.07S81.61,81.54,81.61,81.51Z"/><path class="cls-9" d="M29.14,21.66a20.25,20.25,0,0,1,2.16-3,3.33,3.33,0,0,1-.93-2.33A3.76,3.76,0,0,1,32,13.41a3.5,3.5,0,0,1,3.13-.57,3.57,3.57,0,0,1,1.77,1.39,20.22,20.22,0,0,1,3.3-1.41,7.13,7.13,0,0,0-3.88-3.33,6.26,6.26,0,0,0-1.92-.3,7.5,7.5,0,0,0-4.31,1.46,7.65,7.65,0,0,0-3.36,5.92A6.55,6.55,0,0,0,29.14,21.66Z"/><path class="cls-9" d="M66.34,16.62a3.46,3.46,0,0,1,2.9,1.29,3.8,3.8,0,0,1,.91,3.25,3.37,3.37,0,0,1-1.47,2.05,19.94,19.94,0,0,1,1.38,3.41,6.56,6.56,0,0,0,3.55-4.38,7.65,7.65,0,0,0-1.86-6.55A6.92,6.92,0,0,0,66,13.08a7.07,7.07,0,0,0-4.55,2.29,21.66,21.66,0,0,1,2.86,2.16A3.47,3.47,0,0,1,66.34,16.62Z"/><path class="cls-9" d="M65.11,43.8a.72.72,0,0,1,.24-.09,4,4,0,0,1,.65,0c.48,0,1.11,0,1.75,0a20.22,20.22,0,0,0,1-2.22c-1.2-1.29-2-2-1.65-2.34a3.53,3.53,0,0,1,2.41-.1,23.43,23.43,0,0,0,.55-3,23.72,23.72,0,0,0,.17-3.35c-1.37-.51-2.36-1-2.27-1.45s1-.67,2.11-.78a19.77,19.77,0,0,0-.52-2.8c0-.13-.07-.26-.11-.39s-.07-.25-.11-.38A19.79,19.79,0,0,0,68,23.55c-.07-.12-.13-.24-.19-.36l-.2-.36A19.5,19.5,0,0,0,66,20.47a21.47,21.47,0,0,0-1.64-1.8l-.29-.28-.29-.27A19.31,19.31,0,0,0,60.92,16l-.34-.21-.34-.2a23.34,23.34,0,0,0-6.76-2.52,2.33,2.33,0,0,0,0,.28A20.37,20.37,0,0,1,58,14.85c1.35.7,1.67,1.27.76,1.31a50.31,50.31,0,0,1-5.83-.32c-.08.32-.16.66-.25,1A8.11,8.11,0,0,1,54.86,18c.84.63,1.12,1.05.56,1.29a10.05,10.05,0,0,1-3.65.4C51.25,21,50.65,22,50,22s-1-1.16-1.13-2.62A10.65,10.65,0,0,1,45.17,18c-.48-.37-.11-.7.86-1.12a8.39,8.39,0,0,1,2.69-.6v-1a53.92,53.92,0,0,1-6.08-1.12c-.87-.26-.43-.74,1-1.09a20.26,20.26,0,0,1,5.11-.38c0-.1,0-.19,0-.28-.35,0-.71,0-1.06,0a23.48,23.48,0,0,0-6.42.88l-.37.11-.39.12a21.13,21.13,0,0,0-3.27,1.39l-.35.2-.35.19a19.41,19.41,0,0,0-4.12,3.26l-.28.3-.27.3a19.66,19.66,0,0,0-2.14,2.95,3.79,3.79,0,0,0-.2.34,3.9,3.9,0,0,0-.19.35,20.61,20.61,0,0,0-1.12,2.43c1.14.43,2.13,1.18,2.12,1.54s-1.43.71-2.9.88a26.52,26.52,0,0,0-.6,3.17A26,26,0,0,0,26.72,34c1.29,0,2.62.17,2.82.49s-1.09,1.22-2.63,2.23c0,0,0,.08,0,.12,0,.22.06.45.1.67s.08.46.13.69.06.28.1.42l.37,0,.67.1h0l.51.1.17,0,.29.07a3.35,3.35,0,0,1,.67.21,1,1,0,0,1,.23.16.11.11,0,0,1,0,.16.09.09,0,0,1-.06,0h0a1,1,0,0,1-.27,0l-.25-.06-.41-.1-.36-.08-.08,0-.5-.08-.1,0-.8-.1a17.5,17.5,0,0,0,.66,2l1.16-.26a5.41,5.41,0,0,1,.61-.11h.07a1,1,0,0,1,.27,0,.13.13,0,0,1,.07.16.09.09,0,0,1,0,0L30.1,41l-.16.08c-.15.06-.39.09-.66.16l-1.08.26a17,17,0,0,0,2,3.56,25.42,25.42,0,0,1,1.36-2.71l.21-.34c.08-.12.15-.24.23-.34l.26-.35a15.75,15.75,0,0,1,6.57-4.43A25.32,25.32,0,0,1,47,35.46a7.44,7.44,0,0,1,1.37,0,5.35,5.35,0,0,1,1.84.47A24.89,24.89,0,0,1,57,39.13,15.74,15.74,0,0,1,62.37,45a12.15,12.15,0,0,1,1.28,4,18.27,18.27,0,0,0,2.62-2.86l-.9-.53a6.57,6.57,0,0,1-.57-.34.71.71,0,0,1-.18-.19.11.11,0,0,1,0-.16l.06,0a1,1,0,0,1,.27,0,4.71,4.71,0,0,1,.59.3l1,.53c.35-.51.68-1,1-1.6-.56,0-1.1-.06-1.52-.06-.26,0-.48,0-.64,0a.74.74,0,0,1-.24-.07h0a.13.13,0,0,1-.05-.17ZM41.33,30.72A8.88,8.88,0,0,1,40,34.59a2.91,2.91,0,0,1-2.29,1.52h-.23c-.89-.11-1.63-.84-2.08-2.07A8.92,8.92,0,0,1,35,30c.39-3.23,2.09-5.59,3.86-5.37.89.1,1.63.84,2.08,2.06A8.92,8.92,0,0,1,41.33,30.72Zm.46-11h-.1l-.1-.05-.23-.14-.16-.13-.14-.13-.18-.13h0L40.64,19l-.1,0a2.76,2.76,0,0,0-.46-.19,3.2,3.2,0,0,0-.66-.14,3.56,3.56,0,0,0-.73,0c-.12,0-.25,0-.37.06a1.9,1.9,0,0,0-.36.09,2.45,2.45,0,0,0-.38.13c-.11,0-.23.11-.35.16a4.61,4.61,0,0,0-.65.38c-.2.15-.39.29-.56.44s-.33.31-.47.46-.45.58-.63.74l-.23.18-.09.05a.26.26,0,0,1-.34-.09.24.24,0,0,1,0-.08v0a.36.36,0,0,1,0-.12.84.84,0,0,1,.07-.31,1.85,1.85,0,0,1,.24-.42c.11-.14.24-.31.39-.48s.19-.22.3-.33a6,6,0,0,1,.83-.73,6.45,6.45,0,0,1,.76-.47l0,0a3.7,3.7,0,0,1,.4-.17,2.85,2.85,0,0,1,.42-.16,4,4,0,0,1,.47-.11l.46-.07a4.7,4.7,0,0,1,.92,0,3.61,3.61,0,0,1,.83.21,3.15,3.15,0,0,1,.49.22l.21.12.14.09.15.1.18.15.06.05a1.53,1.53,0,0,1,.32.39.92.92,0,0,1,.12.32,1.09,1.09,0,0,1,0,.12A.24.24,0,0,1,41.79,19.73ZM58,21.51a1,1,0,0,1,.23-.41,1.77,1.77,0,0,1,.41-.32l.09-.05a3.36,3.36,0,0,1,.38-.19l.12-.06.27-.09a3.82,3.82,0,0,1,3.24.32l.22.14.19.14.06.05c.1.09.21.17.31.27a4.87,4.87,0,0,1,.61.69,5.78,5.78,0,0,1,.46.72c.07.13.14.25.19.37s.1.21.14.31a4,4,0,0,1,.34,1.08,1.64,1.64,0,0,1,0,.33.64.64,0,0,1,0,.12v0a.22.22,0,0,1-.31.11l-.08,0-.08-.08a2.11,2.11,0,0,1-.16-.26,1.89,1.89,0,0,1-.18-.4c-.06-.16-.13-.34-.22-.53s-.19-.39-.31-.6a5.55,5.55,0,0,0-.42-.61A5.68,5.68,0,0,0,63,22c-.09-.09-.2-.17-.3-.26l-.17-.12-.16-.09a3,3,0,0,0-1.43-.44,3.08,3.08,0,0,0-1.24.18l-.08,0-.3.13-.19.1-.17.09a1,1,0,0,1-.2.11,1.35,1.35,0,0,1-.38.12h0a.25.25,0,0,1-.28-.21Zm4.42,11.61h0A8.92,8.92,0,0,1,61.13,37a3,3,0,0,1-2.29,1.52l-.23,0c-1.77-.21-2.85-2.91-2.46-6.13S58.23,26.76,60,27,62.85,29.89,62.46,33.12Z"/><path class="cls-9" d="M51.25,55a9.1,9.1,0,0,0,3.13-.82l.16-.09a43.25,43.25,0,0,1-6.71.19h-.16l-.59,0-.58,0a30.54,30.54,0,0,1-4.14-.54l-.68-.14C41,53.33,40.4,53.17,40,53a7.2,7.2,0,0,0,1.33.7L42,54a20.43,20.43,0,0,0,3.75.81l.55.07.55.05.28,0A21.81,21.81,0,0,0,51.25,55Z"/><path class="cls-10" d="M37.16,53a2.09,2.09,0,0,1,.72-.81A19.33,19.33,0,0,1,27.4,41.75l-.11,0c-.72.18-1.43.4-2,.58-.26.09-.47.18-.63.22a1.08,1.08,0,0,1-.27,0h0a.12.12,0,0,1-.1-.13.07.07,0,0,1,0-.06.77.77,0,0,1,.21-.17,4.06,4.06,0,0,1,.63-.27c.54-.2,1.26-.43,2-.64h.06A19.66,19.66,0,0,1,26.52,39c-.52,0-1-.05-1.41-.06s-.52,0-.68,0a.76.76,0,0,1-.26-.07.12.12,0,0,1-.06-.16l0,0a1.39,1.39,0,0,1,.26-.09,6,6,0,0,1,.7,0l1.3,0c-.1-.45-.17-.9-.24-1.36-1.49-1.52-3-3.09-4.29-4.63a11.1,11.1,0,0,1-3.49,3.66,10.07,10.07,0,0,1-4.26,2A241,241,0,0,0,30.45,57.75Z"/><path class="cls-10" d="M73.41,77.24c-5.77-9.44-5.93-9.67-10-15.59a35.91,35.91,0,0,0-5.67-6.57,2.76,2.76,0,0,1-.6.66l2.37,4v0c.08.15,1.82,3.83,2.3,12.24.09,1.53.16,3.26.22,4.9L63.67,79c1.11,1.35,2.07,2.52,2.83,3.62a1,1,0,0,0,.31.26.69.69,0,0,0,.42.08h0l.41-.07.15,0,.33-.08.38-.1a7.8,7.8,0,0,0,3.74-2.74,9.94,9.94,0,0,0,.9-1.37c.1-.17.18-.32.25-.46l0-.09a.74.74,0,0,0,.05-.34A.83.83,0,0,0,73.41,77.24Z"/><path class="cls-10" d="M61.19,76.53l0-.67c0-1.3-.11-2.6-.18-3.8-.45-8-2.09-11.67-2.21-11.92l-2.33-4A15.43,15.43,0,0,1,49,57.72q-.83,0-1.71-.06a24.86,24.86,0,0,1-3.21-.42l-.5-.1L43.08,57a17.84,17.84,0,0,1-3.17-1,5.08,5.08,0,0,1-2.68-2.1L31,58.34l-.23.16v.16c0,.13,0,.31-.05.51C30.55,60.78,30.2,64.3,30,67c-.09,1-.14,2.34-.17,3.76l0,1.2h0v.09c0,.52,0,1,0,1.58v1.88c0,.9,0,1.74,0,2.48,0,1.18,0,2.09,0,2.53v0l.38.13.39.14.7.23c.74.24,1.48.45,2.23.65l.87.21c.93.22,1.88.41,2.85.58q1.17.2,2.4.36c.89.12,1.79.23,2.72.33l.5.05.46,0c.76.08,1.54.14,2.33.21a91.32,91.32,0,0,0,14.92,0l.82-.08c0-.92-.08-3.46-.18-6.27C61.21,77,61.2,76.76,61.19,76.53ZM50.74,61.86a.42.42,0,0,1,.39-.32l7.18-.06a.4.4,0,0,1,.4.3c0,.15.8,3.51-.74,5.49a3.49,3.49,0,0,1-1.78,1.18c-.13,0-.26.07-.4.09a3,3,0,0,1-.43.06,4.12,4.12,0,0,1-.51,0h-.06a3.84,3.84,0,0,1-3.12-1.31,4.9,4.9,0,0,1-1-2.42c0-.14,0-.27,0-.41a2.69,2.69,0,0,1,0-.4A10.41,10.41,0,0,1,50.74,61.86Z"/><path class="cls-10" d="M51.44,64.58l.06.41a4.07,4.07,0,0,0,.78,1.82,3.1,3.1,0,0,0,2.51,1H55c.15,0,.29,0,.43,0l.41-.08a2.64,2.64,0,0,0,1.55-.94c1.07-1.36.79-3.67.65-4.5l-6.52.06a9.63,9.63,0,0,0-.07,1.84C51.41,64.31,51.43,64.45,51.44,64.58Z"/><path class="cls-10" d="M38.14,53.88a1.68,1.68,0,0,0,.32.34,7,7,0,0,0,2.08,1.18,19.91,19.91,0,0,0,3.31,1l.5.11.51.09a23.83,23.83,0,0,0,2.46.29c4.36.26,7.16-.53,8.6-1.32a4.11,4.11,0,0,0,.74-.49,1.58,1.58,0,0,0,.29-.29.89.89,0,0,0,.13-.22s0,0,0-.06a1.14,1.14,0,0,0-.29-.23l-.28-.15L56.19,54,56,53.89a2.09,2.09,0,0,1-.21.23,5.48,5.48,0,0,1-1.95,1.1l-.16.06a13.88,13.88,0,0,1-3.88.57,23.06,23.06,0,0,1-2.78-.11L46,55.63l-.54-.07-.53-.07a18.53,18.53,0,0,1-3.57-.88,7.49,7.49,0,0,1-2.18-1.15L39,53.34A3.64,3.64,0,0,1,38.7,53a1.57,1.57,0,0,1-.21-.28l-.16.11a1.19,1.19,0,0,0-.44.46.09.09,0,0,0,0,.05A1.14,1.14,0,0,0,38.14,53.88Z"/><path d="M53.43,13.34a2.33,2.33,0,0,1,0-.28c-.81-.17-1.63-.32-2.48-.42s-1.47-.14-2.19-.17c0,.09,0,.18,0,.28.7,0,1.43.07,2.17.16S52.65,13.16,53.43,13.34Z"/><path d="M48.9,19.33c.18,1.46.52,2.55,1.13,2.62s1.22-.91,1.74-2.29c-.49,0-1-.05-1.58-.12S49.3,19.41,48.9,19.33Z"/><path d="M50.57,16.35a9.53,9.53,0,0,1,2.07.48c.09-.33.17-.67.25-1-.7-.07-1.45-.15-2.24-.25s-1.32-.16-1.93-.25v1A9.68,9.68,0,0,1,50.57,16.35Z"/><path d="M30.4,26.8c0-.36-1-1.11-2.12-1.54a23.57,23.57,0,0,0-.78,2.42C29,27.51,30.39,27.22,30.4,26.8Z"/><path d="M29.54,34.47c-.2-.32-1.53-.51-2.82-.49a24,24,0,0,0,.19,2.72C28.45,35.69,29.77,34.85,29.54,34.47Z"/><path d="M70.22,32.72a20.53,20.53,0,0,0-.16-2.23c-1.13.11-2,.43-2.11.78S68.85,32.21,70.22,32.72Z"/><path d="M67.09,39.17c-.32.31.45,1,1.65,2.34a20.41,20.41,0,0,0,.76-2.44A3.53,3.53,0,0,0,67.09,39.17Z"/><path d="M47.14,100.62l.4,0c.89.09,2.23.19,4.3.34l1.3.09c.89.07,1.71.09,2.43.09,1.14,0,2-.06,2.57-.11l.48,0,.4,0,.4-.06c1.1-.19,1.16-.41,1.2-.59s.77-10.93,1.1-16.09l.13,0a.4.4,0,0,0,.35-.4s-.05-2.53-.15-5.58q0-.31,0-.66c0-.22,0-.44,0-.66-.06-1.64-.13-3.37-.22-4.9-.48-8.41-2.22-12.09-2.3-12.24v0l-2.37-4a2.76,2.76,0,0,0,.6-.66,1.85,1.85,0,0,0,.17-.39l0-.18a.79.79,0,0,0-.12-.42,2,2,0,0,0-.69-.6l-.15-.08-.39-.17h0L56,53h-.27a3.92,3.92,0,0,1-.55.12h0a34.73,34.73,0,0,1-6.61.31h-.74l-.45,0A33.87,33.87,0,0,1,43.06,53c-.49-.09-.93-.18-1.33-.28a13.23,13.23,0,0,1-2.66-.85.39.39,0,0,0-.3,0,.36.36,0,0,0-.29,0l-.18.09h0a3.76,3.76,0,0,0-.42.26,2.09,2.09,0,0,0-.72.81l-6.71,4.76-.28.2-.05,0a.39.39,0,0,0-.12.25l0,.18c-.09.92-.53,5.3-.81,8.53-.06.65-.1,1.41-.13,2.24L29,70h0c0,.31,0,.62,0,.94s0,.51,0,.77c0,1.24,0,2.52,0,3.72,0,1,0,2,0,2.84,0,1.52.05,2.55.05,2.58a.42.42,0,0,0,.26.37l.43.15-.08.59-.06.52-.07.51L27.86,96.06a.36.36,0,0,0,.08.3,3.59,3.59,0,0,0,.84.7l.36.22.36.2a19.76,19.76,0,0,0,5.87,1.81c2.4.42,4,.63,5.13.73l.4,0,.4,0a5.13,5.13,0,0,0,1.3,0,.38.38,0,0,0,.31-.3c.79-3.61,1.73-7.49,2.28-9.2.15,1.44.24,4.19.3,6,.12,3.5.14,3.53.29,3.7s.32.22,1,.31Zm-1.27-10.9a1.68,1.68,0,0,0,.34-.2,2.22,2.22,0,0,0,.3-.31c.92-1.14,1.23-3.55,1.33-4.75,2.15.13,4.11.17,5.83.17h1.07a8.2,8.2,0,0,0,5.91,3.78c-.34,5.22-.7,10.64-.78,11.59a3.28,3.28,0,0,1-.45.11l-.4.06-.4.06a30.81,30.81,0,0,1-5.43.07l-1.3-.1c-1.61-.11-3.26-.23-4.35-.34l-.4,0-.4,0-.31-.06c0-.48-.1-1.84-.14-3.17-.12-3.64-.22-5.51-.36-6.48C45.91,89.93,45.89,89.82,45.87,89.72Zm-1.3.21a45.59,45.59,0,0,0-1.24,4.49c-.5,2-1,4.13-1.13,4.88-.15,0-.39,0-.72,0l-.41,0-.4,0c-1.05-.09-2.69-.29-5.16-.72a18.17,18.17,0,0,1-5.82-1.84,2.87,2.87,0,0,1-.36-.21L29,96.22l-.3-.25L30,85.32h.32a10.3,10.3,0,0,0,2.11-.22l.63-.16c.2,0,.4-.12.6-.19a8.12,8.12,0,0,0,2.71-1.59l.5.09c1.82.33,3.73.57,5.74.77l.4,0,.4,0h.07c-.07,1.1-.13,3.53.54,4.85a1.66,1.66,0,0,0,.63.72C44.64,89.76,44.6,89.84,44.57,89.93ZM29.78,78c0-.74,0-1.58,0-2.48V73.66c0-.53,0-1.06,0-1.58V72h0l0-1.2c0-1.42.08-2.74.17-3.76.24-2.72.59-6.24.75-7.85,0-.2,0-.38.05-.51V58.5l.23-.16,6.23-4.43A5.08,5.08,0,0,0,39.91,56a17.84,17.84,0,0,0,3.17,1l.49.11.5.1a24.86,24.86,0,0,0,3.21.42q.88.06,1.71.06a15.43,15.43,0,0,0,7.45-1.53l2.33,4c.12.25,1.76,4,2.21,11.92.07,1.2.13,2.5.18,3.8l0,.67c0,.23,0,.46,0,.68.1,2.81.16,5.35.18,6.27l-.82.08a91.32,91.32,0,0,1-14.92,0c-.79-.07-1.57-.13-2.33-.21l-.46,0-.5-.05c-.93-.1-1.83-.21-2.72-.33s-1.62-.23-2.4-.36c-1-.17-1.92-.36-2.85-.58l-.87-.21c-.75-.2-1.49-.41-2.23-.65l-.7-.23-.39-.14-.38-.13v0C29.81,80.11,29.79,79.2,29.78,78Zm8.55-25.18.16-.11a1.57,1.57,0,0,0,.21.28,3.64,3.64,0,0,0,.34.33l.14.12a7.49,7.49,0,0,0,2.18,1.15,18.53,18.53,0,0,0,3.57.88l.53.07.54.07,1.06.11a23.06,23.06,0,0,0,2.78.11,13.88,13.88,0,0,0,3.88-.57l.16-.06a5.48,5.48,0,0,0,1.95-1.1,2.09,2.09,0,0,0,.21-.23l.15.06.34.16.28.15a1.14,1.14,0,0,1,.29.23s0,0,0,.06a.89.89,0,0,1-.13.22,1.58,1.58,0,0,1-.29.29,4.11,4.11,0,0,1-.74.49c-1.44.79-4.24,1.58-8.6,1.32a23.83,23.83,0,0,1-2.46-.29l-.51-.09-.5-.11a19.91,19.91,0,0,1-3.31-1,7,7,0,0,1-2.08-1.18,1.68,1.68,0,0,1-.32-.34,1.14,1.14,0,0,1-.26-.53.09.09,0,0,1,0-.05A1.19,1.19,0,0,1,38.33,52.84Zm4,.8a30.54,30.54,0,0,0,4.14.54l.58,0,.59,0h.16a43.25,43.25,0,0,0,6.71-.19l-.16.09a9.1,9.1,0,0,1-3.13.82,21.81,21.81,0,0,1-4.12,0l-.28,0-.55-.05-.55-.07A20.43,20.43,0,0,1,42,54l-.72-.27A7.2,7.2,0,0,1,40,53c.45.15,1,.31,1.73.48ZM45.71,88.9a.64.64,0,0,1-.23.12.5.5,0,0,1-.3,0l-.07,0c-.48-.21-1-1.81-.81-4.83l1.29.11,1.46.11C46.92,85.83,46.55,88.22,45.71,88.9ZM60.9,88Zm-.2-.43-.65-.13a7.43,7.43,0,0,1-4.37-2.87h.07c2.38,0,4.16-.19,5.16-.29C60.85,85.36,60.77,86.47,60.7,87.61ZM30.29,83.2h0l.06-.48.08-.64.06-.43.16.06c1,.34,2,.63,3.09.89.54.13,1.09.26,1.64.37l-.13.1a7.61,7.61,0,0,1-2.2,1.05c-.17.06-.34.1-.5.14l-.61.13h0l-.63.08-.46,0c-.29,0-.54,0-.73,0l.11-.86Z"/><path d="M50.63,64.49c0,.14,0,.27,0,.41a4.9,4.9,0,0,0,1,2.42,3.84,3.84,0,0,0,3.12,1.31h.06a4.12,4.12,0,0,0,.51,0,3,3,0,0,0,.43-.06c.14,0,.27-.06.4-.09A3.49,3.49,0,0,0,58,67.27c1.54-2,.77-5.34.74-5.49a.4.4,0,0,0-.4-.3l-7.18.06a.42.42,0,0,0-.39.32,10.41,10.41,0,0,0-.14,2.23A2.69,2.69,0,0,0,50.63,64.49Zm.84-2.15L58,62.28c.14.83.42,3.14-.65,4.5a2.64,2.64,0,0,1-1.55.94l-.41.08c-.14,0-.28,0-.43,0h-.16a3.1,3.1,0,0,1-2.51-1A4.07,4.07,0,0,1,51.5,65l-.06-.41c0-.13,0-.27,0-.4A9.63,9.63,0,0,1,51.47,62.34Z"/></g><path class="cls-2" d="M208.56,38.68v-.6a1.29,1.29,0,0,0-.1-.76c0-.06,0-.13,0-.19a1,1,0,0,0-.11-.63,3.89,3.89,0,0,0-.33-1.38.75.75,0,0,0-.15-.44l-.09-.25a2.67,2.67,0,0,0-.33-.75,5.62,5.62,0,0,0-.67-1.37l0,0a3.6,3.6,0,0,0-.57-1l-.1-.13a1,1,0,0,0-.33-.53.94.94,0,0,0-.26-.35l-.09-.08a.56.56,0,0,0-.23-.39.89.89,0,0,0-.38-.43,13.48,13.48,0,0,0-3.32-3.23l-.23-.19a4.12,4.12,0,0,0-1.24-.74,2.53,2.53,0,0,0-1-.7l-.21-.1a.66.66,0,0,0-.47-.24l-.48-.27a8.72,8.72,0,0,0-1.59-.72l-.53-.21-1.29-.41a.71.71,0,0,0-.45-.13,15.34,15.34,0,0,0-3.53-.71,15.08,15.08,0,0,0-3.12-.23H185.8a.52.52,0,0,1-.33,0,.42.42,0,0,1-.13-.31.66.66,0,0,0-.1-.27l0,0a2.5,2.5,0,0,0-.34-1.11v-.07a3.7,3.7,0,0,0-.45-1.05,3.34,3.34,0,0,0-.48-1l-.41-.68a5.89,5.89,0,0,0-1.15-1.66,5.54,5.54,0,0,0-1-1.21,1.56,1.56,0,0,0-.47-.45l-.44-.45a3,3,0,0,0-.81-.73,1.28,1.28,0,0,0-.43-.35l-.12-.07a3.88,3.88,0,0,0-.87-.7l-.31-.21a8.71,8.71,0,0,0-1.58-.95,4,4,0,0,0-.91-.52l-1.79-.79L173,8.61a7.34,7.34,0,0,0-1.51-.52A1.2,1.2,0,0,0,171,8a2.41,2.41,0,0,0-.8-.2,9.75,9.75,0,0,0-2-.41,1.06,1.06,0,0,0-.55-.11h-.07a1.75,1.75,0,0,0-.77-.1h-.23a1.32,1.32,0,0,0-.66-.09h-2.46a10.49,10.49,0,0,0-2.25.26H161a1.05,1.05,0,0,0-.58.1h0a5,5,0,0,0-1.4.29,2.85,2.85,0,0,0-1.07.3,11.66,11.66,0,0,0-3.57,1.48,1.82,1.82,0,0,0-.73.43,5,5,0,0,0-1.15.81,4.37,4.37,0,0,0-.92.8,3.31,3.31,0,0,0-.69.65l-.24.27-.61.66a1.22,1.22,0,0,0-.24.33,1.17,1.17,0,0,0-.3.39l0,0a2,2,0,0,0-.48.68.59.59,0,0,0-.23.32.83.83,0,0,0-.15.21,7.87,7.87,0,0,0-1.08-1,1.65,1.65,0,0,0-.51-.41l-.18-.11A16.92,16.92,0,0,0,143,11.25a5.36,5.36,0,0,0-1-.49l-.32-.13h0l-.24-.1-.54-.22a16.81,16.81,0,0,0-4.53-1.05l-1-.11A7.1,7.1,0,0,0,133.68,9h-1.53a14.15,14.15,0,0,0-3.58.48l-.17,0a1.55,1.55,0,0,0-.58.18,3.76,3.76,0,0,0-1,.39l-.65.21-.12.05a4.22,4.22,0,0,0-.92.42.66.66,0,0,0-.41.22,9.12,9.12,0,0,0-2.28,1.42,6.74,6.74,0,0,0-1.54,1.41l-.07.07a.66.66,0,0,0-.31.35,8.89,8.89,0,0,0-1.46,2.1,4.66,4.66,0,0,0-.6,1.15l-.23.57a1.32,1.32,0,0,0-.26.72.6.6,0,0,0-.12.37v.05a3,3,0,0,0-.23,1.33.81.81,0,0,0-.07.35,4.07,4.07,0,0,0,.06,1.62,2.09,2.09,0,0,1,0,.25,1.22,1.22,0,0,0,.11.71l.06.53a17.61,17.61,0,0,0-3.89-.17h-.21a7.87,7.87,0,0,0-2,.18c-.22,0-.44.07-.68.1a5.37,5.37,0,0,0-1,.19,8,8,0,0,0-1.73.43l-.2.07a4.6,4.6,0,0,0-1.07.4,5,5,0,0,0-1.2.52l-.2.1a11,11,0,0,0-2.1,1.32l-.22.17a6.62,6.62,0,0,0-1.11,1A8.31,8.31,0,0,0,100.61,30a3.36,3.36,0,0,0-.59.89,1.36,1.36,0,0,0-.37.66l-.12.25a7.65,7.65,0,0,0-.91,2.36,5.63,5.63,0,0,0-.36,2.06v.21c0,.15,0,.3,0,.45a2.5,2.5,0,0,0,.1,1.11v.14a3.87,3.87,0,0,0,.2,1.24,1.24,1.24,0,0,0,.11.52l0,.07a.68.68,0,0,0,0,.14L99,41a.5.5,0,0,0,.13.37v.11s0,0,0,.06l.18.36a4.4,4.4,0,0,0,.67,1.45v0a.55.55,0,0,0,.17.33,4.67,4.67,0,0,0,.66,1.07,4.57,4.57,0,0,0,.76,1,.58.58,0,0,0,.32.38l.15.14a1.51,1.51,0,0,0,.56.61l.32.33,1.32,1.11a1,1,0,0,0,.48.36,3.25,3.25,0,0,0,.82.58,6,6,0,0,0,1,.63,4.94,4.94,0,0,0,1.26.7,9.09,9.09,0,0,0,1.75.91c-.07.18-.18.47-.31.85a13.21,13.21,0,0,0-4.86,9.79c0,8.39,9,15.27,20.22,15.34a23.82,23.82,0,0,0,14.78-4.67l.23,0c.12,0,.19.12.3.3a1.17,1.17,0,0,0,.42.44l.07.1a1.1,1.1,0,0,0,.34.39,15.65,15.65,0,0,1,.8.81l.67.66a1.22,1.22,0,0,0,.52.46l1.06.87a3.58,3.58,0,0,0,.76.6l.21.13a11.5,11.5,0,0,0,2,1.26l.56.28a7,7,0,0,0,1.61.73l.13,0,.39.16.1,0,.11,0a9.37,9.37,0,0,0,1.72.57,22.66,22.66,0,0,0,5.08.84h.64a2.61,2.61,0,0,0,.77.11,4.74,4.74,0,0,0,.89-.1h.42a2.69,2.69,0,0,0,1-.1,13.23,13.23,0,0,0,3.53-.67,6,6,0,0,0,1.87-.63,6.12,6.12,0,0,0,1.65-.7l.07,0,0,0a1.05,1.05,0,0,0,.47-.2.47.47,0,0,0,.28-.19,1,1,0,0,0,.55-.31h0l.05,0a6.35,6.35,0,0,0,1.31-1,1.73,1.73,0,0,0,.57-.49l0,0a3.52,3.52,0,0,0,.73-.71l.18-.21.12-.12a1.53,1.53,0,0,0,.38-.48,3.17,3.17,0,0,0,.55-.71,2.28,2.28,0,0,0,.42-.64l0-.07a2.86,2.86,0,0,0,.45-.7,1.79,1.79,0,0,1,.12-.24l.15-.36a3,3,0,0,0,.47-1.12,1.31,1.31,0,0,0,.24-.65c.06-.14.11-.27.15-.34a1,1,0,0,1,.18.09,11,11,0,0,0,2.34,1.23l.9.4a8.73,8.73,0,0,0,1.73.63,4.16,4.16,0,0,0,1,.32l.38.08a9,9,0,0,0,2.27.44,1,1,0,0,0,.58.1h.14a4.81,4.81,0,0,0,1.4.11h.83a8.26,8.26,0,0,0,1.85-.09h.06a1.56,1.56,0,0,0,.78-.09,15.54,15.54,0,0,0,3.55-.8l.15,0a9.15,9.15,0,0,0,1.57-.62,1.09,1.09,0,0,0,.39-.17.33.33,0,0,1,.1-.06l.27-.13a5.14,5.14,0,0,0,1.13-.66,2.35,2.35,0,0,0,.6-.37l.17-.14a2.8,2.8,0,0,0,.77-.61l.2-.18a5.53,5.53,0,0,0,.93-.82,1.26,1.26,0,0,0,.36-.37l.09-.11a.64.64,0,0,0,.27-.28l0,0a4,4,0,0,0,.79-1,1.87,1.87,0,0,0,.48-.75l.43-.85a2.26,2.26,0,0,0,.38-1,1.64,1.64,0,0,0,.23-.74,7.92,7.92,0,0,0,.35-2.74v-.91a.67.67,0,0,0-.1-.49,6.06,6.06,0,0,0-.33-1.84.56.56,0,0,0-.12-.39,7.1,7.1,0,0,0-.89-2.27.9.9,0,0,0-.24-.45,3.43,3.43,0,0,0-.56-1,1,1,0,0,0-.37-.56,7.57,7.57,0,0,0-1.13-1.48,3,3,0,0,0-.22-.26l-.1-.1.31-.13a3.18,3.18,0,0,0,.72-.35,2.84,2.84,0,0,0,.8-.4,17.25,17.25,0,0,0,3.91-2.59,3.63,3.63,0,0,0,.85-.75l.32-.35a4.85,4.85,0,0,0,.9-1l.05-.07a3.86,3.86,0,0,0,.73-1.13,2.06,2.06,0,0,0,.45-.81,6.41,6.41,0,0,0,.72-2,.62.62,0,0,0,.12-.44v-.08a3.16,3.16,0,0,0,.23-1.16A6.74,6.74,0,0,0,208.56,38.68Z"/><path class="cls-2" d="M120.17,62.15l-8.81-14.72-.2,0c-.46-.11-11.39-2.57-18.73,3.5l-.7.58.86.28c.15,0,14.47,4.82,19.73,11.51l.18.24Z"/><path class="cls-11" d="M114.74,51.35a4.76,4.76,0,0,1,.71.58,3.75,3.75,0,0,1,1,1.45.55.55,0,0,1-.08.39.64.64,0,0,1-.44.21.47.47,0,0,1-.44-.19,17.66,17.66,0,0,0-1.35-1.52.81.81,0,0,1-.26-.37.49.49,0,0,1,.16-.45.91.91,0,0,1,.36-.15A1.32,1.32,0,0,1,114.74,51.35Zm.54,3.26a8.07,8.07,0,0,1,.75.45,3.1,3.1,0,0,1,1,1.21.52.52,0,0,1-.08.42.78.78,0,0,1-.48.24.53.53,0,0,1-.49-.17,13.29,13.29,0,0,0-1.34-1.24.61.61,0,0,1-.26-.3.52.52,0,0,1,.17-.49.86.86,0,0,1,.39-.17A.55.55,0,0,1,115.28,54.61Zm1.55,3.15c.17,0,.29.19.33.45s0,.42,0,.74c0,.5-.11,1.25-.24,2.24-.06.36-.11.69-.16,1a.69.69,0,0,1-.48.54,1,1,0,0,1-.48-.13.64.64,0,0,1-.23-.43c0-.14.11-1.17.37-3.14,0-.3.08-.57.11-.8s.18-.44.38-.47A1.92,1.92,0,0,1,116.83,57.76Zm2-7.14a.42.42,0,0,1,.21.31.52.52,0,0,1-.11.49s-.4.23-1.07.58a.28.28,0,0,0-.13.28l.31,1.86a6.87,6.87,0,0,0,.72-.45c-.12-.19-.26-.42-.41-.68a.26.26,0,0,1-.07-.15,1.23,1.23,0,0,1,0-.17.59.59,0,0,1,.19-.23.85.85,0,0,1,.24-.08.59.59,0,0,1,.38.1,4.82,4.82,0,0,1,.5.77c.09.17.16.32.21.44a2.5,2.5,0,0,0,.12-.58,5.64,5.64,0,0,0-.08-1.38l-.14,0c-.25,0-.39-.08-.44-.38s0-.49.29-.53l1.89-.31a.81.81,0,0,1,.55.06c.14.07.23.27.29.58.13.78.21,1.38.26,1.81a1.71,1.71,0,0,1-.21,1.26,1,1,0,0,1-.61.37,2,2,0,0,1-.94,0,.45.45,0,0,1-.24-.31,1.26,1.26,0,0,1-.12.26.66.66,0,0,1-.32.26,2.46,2.46,0,0,1,.29.09,19.19,19.19,0,0,0,2.29.92.41.41,0,0,1,.21.28.61.61,0,0,1-.12.49.56.56,0,0,1-.38.22h-.07c0,.08,0,.14,0,.17a.47.47,0,0,1-.34.21l-1.11.18L121,58l1.66-.27a.52.52,0,0,1,.36,0,.46.46,0,0,1,.16.33.54.54,0,0,1,0,.35.46.46,0,0,1-.35.23l-1.65.27.26,1.54.59-.14s0,0-.06,0a.46.46,0,0,1-.21-.32.31.31,0,0,1,.07-.22.31.31,0,0,1,0-.09q.09-.16.15-.3a1,1,0,0,1,.08-.22.36.36,0,0,1,.27-.19.9.9,0,0,1,.36,0,.37.37,0,0,1,.26.27,1,1,0,0,1,0,.17c-.06.15-.11.3-.18.47a2.24,2.24,0,0,1-.13.29l.69-.17a.36.36,0,0,1,.34.1.6.6,0,0,1,.16.34.56.56,0,0,1-.07.37.55.55,0,0,1-.3.21q-2.61.72-4.9,1.17a.53.53,0,0,1-.4-.07.64.64,0,0,1-.2-.4.51.51,0,0,1,.06-.36.73.73,0,0,1,.46-.24l1.83-.41-.26-1.6-1.71.28a.4.4,0,0,1-.35-.06.51.51,0,0,1-.18-.36.44.44,0,0,1,.06-.37.48.48,0,0,1,.31-.16l1.71-.28-.11-.66-1,.18a.48.48,0,0,1-.37-.05.18.18,0,0,1-.08-.09.62.62,0,0,1-.31.16.6.6,0,0,1-.53-.14.77.77,0,0,1-.18-.36.46.46,0,0,1,.14-.38c.68-.59,1.29-1.17,1.83-1.73a1.11,1.11,0,0,1,.39-.26.13.13,0,0,1-.06,0,.33.33,0,0,1-.11-.2.48.48,0,0,1,0-.27.21.21,0,0,1-.14,0,11.62,11.62,0,0,1-1.7,1.3.85.85,0,0,1-.25.09.37.37,0,0,1-.36-.15.72.72,0,0,1-.2-.43.42.42,0,0,1,.14-.43l.23-.12-.45-2.68c0-.24.11-.48.45-.69s.63-.35,1-.54a1.84,1.84,0,0,1,.35-.15A.53.53,0,0,1,118.87,50.62Zm.22,9a1.85,1.85,0,0,1,.29.22,1.51,1.51,0,0,1,.39.48.39.39,0,0,1-.11.36.57.57,0,0,1-.36.18.3.3,0,0,1-.33-.14,6.58,6.58,0,0,1-.57-.5c-.06,0-.09-.07-.1-.11a.43.43,0,0,1,.12-.37.64.64,0,0,1,.36-.17A.5.5,0,0,1,119.09,59.59Zm1-3.79a.28.28,0,0,0-.13,0,.26.26,0,0,0-.11.07c-.31.36-.58.67-.81.92l2.22-.37C120.92,56.21,120.54,56,120.13,55.8Zm.7-3.57a6,6,0,0,1,0,.94,3.61,3.61,0,0,1-.08.61.27.27,0,0,1,.13-.05H121a1,1,0,0,0,.38,0c.21,0,.3-.19.29-.48s-.11-.91-.24-1.71a.1.1,0,0,0-.07-.08l-.64.11C120.79,51.82,120.81,52,120.83,52.23Zm2.67-1.43a.5.5,0,0,1,.21.35l1.22,7.31a.54.54,0,0,1-.05.34.44.44,0,0,1-.37.24.45.45,0,0,1-.42-.11.53.53,0,0,1-.17-.3l-1.21-7.32a.44.44,0,0,1,.08-.39.56.56,0,0,1,.71-.12Zm1.8-.91L127,60a.81.81,0,0,1-.19.69,1.85,1.85,0,0,1-.76.41,4.43,4.43,0,0,1-.76.06,2.25,2.25,0,0,1-.64-.09.7.7,0,0,1-.38-.45c-.07-.39,0-.63.34-.73a.79.79,0,0,1,.2,0,2.42,2.42,0,0,0,.84.07.14.14,0,0,0,.13-.18l-1.62-9.73c-.05-.28.11-.45.48-.54S125.24,49.6,125.3,49.89Z"/><path class="cls-11" d="M134.23,49.17q0,.44-.33.48l-1.46.12.05.66,1-.08c.34,0,.52.1.54.36l.07,1c0,.38-.12.57-.46.6l-1,.07,0,.51,1.27-.1c.22,0,.35.12.38.37s-.09.46-.31.49l-4.16.32c-.42,0-.63-.17-.66-.61L129,49.84c0-.44.14-.68.51-.7l4.36-.34C134.06,48.79,134.18,48.91,134.23,49.17Zm4.26,4.5a.72.72,0,0,1,.88.76l.21,2.63a.72.72,0,0,1-.76.87l-1.81.14.05.71a.28.28,0,0,0,.33.29l1.88-.15a.4.4,0,0,0,.35-.27,2.54,2.54,0,0,0,0-.63.43.43,0,0,1,.15-.34.83.83,0,0,1,.27-.1,1.77,1.77,0,0,1,.41,0,.47.47,0,0,1,.35.44,3.17,3.17,0,0,1-.1,1.22,1.19,1.19,0,0,1-.88.59l-3.29.26c-.42,0-.65-.38-.7-1.07l-.07-.87-1.63.13a1.77,1.77,0,0,1-.52.89,7.94,7.94,0,0,1-2.81,1.3,4.77,4.77,0,0,1-1,.19.56.56,0,0,1-.44-.16.6.6,0,0,1-.21-.35.47.47,0,0,1,.13-.37,15,15,0,0,0,2.83-.84,1.34,1.34,0,0,0,.68-.56l-1.77.14a.72.72,0,0,1-.88-.74L130,55.16a.72.72,0,0,1,.75-.88Zm-7-3.16,0-.67-1.17.09c-.08,0-.1.06-.1.12l.05.55Zm1.5,1.05c.09,0,.14-.06.15-.17v-.1a.14.14,0,0,0-.17-.13l-2.68.21,0,.4Zm-1.3.87-1.32.11,0,.4c0,.07.05.1.11.09l1.22-.09Zm6.4,2.5v-.15a.23.23,0,0,0-.27-.23l-6.23.49a.22.22,0,0,0-.23.26l0,.16Zm.09,1.12,0-.41-6.73.53,0,.4Zm.07.85,0-.14-6.72.52v.15a.22.22,0,0,0,.27.24l6.23-.49C138.17,57.17,138.25,57.08,138.24,56.9Zm-2.31-8.45a.43.43,0,0,1,.25.32.33.33,0,0,1,0,.2l3.59-.28a.5.5,0,0,1,.32.06.42.42,0,0,1,.13.32.44.44,0,0,1-.05.29.39.39,0,0,1-.33.2l-4.13.32a8.08,8.08,0,0,1-.7.87.43.43,0,0,1-.3.17.52.52,0,0,1-.42-.15.59.59,0,0,1-.18-.36.34.34,0,0,1,.13-.27c.07-.07.18-.21.35-.42a12.51,12.51,0,0,0,.83-1.23c.07-.08.13-.14.21-.14A.62.62,0,0,1,135.93,48.45Zm3.7,2.8a.41.41,0,0,1,.49.42l.08,1a.4.4,0,0,1-.42.49l-4.6.36c-.31,0-.48-.11-.5-.42l-.08-1a.41.41,0,0,1,.43-.49Zm-.3-1.2a.51.51,0,0,1,.27,0,.39.39,0,0,1,.12.28.54.54,0,0,1,0,.29.35.35,0,0,1-.29.14l-3.69.29a.35.35,0,0,1-.27-.07c-.07-.05-.1-.15-.12-.31a.36.36,0,0,1,.07-.29.47.47,0,0,1,.26-.08Zm-3.05,2.06-.5,0c-.1,0-.14.06-.13.17l0,.4c0,.1,0,.15.16.14l.5,0Zm1.43-.11-.66,0,.06.72.66-.06Zm1.46.45,0-.4a.15.15,0,0,0-.17-.15l-.51,0,.06.72.5,0A.15.15,0,0,0,139.17,52.45Z"/><path class="cls-11" d="M154.35,51l0,7.73a.87.87,0,0,1-.25.7,1.25,1.25,0,0,1-.77.2h-.76a6.89,6.89,0,0,1-.72,0,1.42,1.42,0,0,1-.71-.25.71.71,0,0,1-.25-.54.63.63,0,0,1,.08-.32.76.76,0,0,1,.46-.31,4.22,4.22,0,0,1,.77-.06h.63c.09,0,.15,0,.15-.1v-1.4a.74.74,0,0,1-.61.22,1.3,1.3,0,0,1-.84-.52,11.48,11.48,0,0,1-1.81-3,8,8,0,0,1-.38-1.1,11,11,0,0,1-1,2.12,10.59,10.59,0,0,1-1.83,2.26.9.9,0,0,1-.61.31.72.72,0,0,1-.59-.24s-.05,0-.06-.06V59c0,.37-.25.56-.72.56s-.66-.2-.66-.56l0-7.92a.77.77,0,0,1,.87-.87l4.16,0c-.05-.22-.07-.44-.1-.67s-.1-.14-.25-.14H145a.52.52,0,0,1-.45-.2.61.61,0,0,1-.15-.47.57.57,0,0,1,.18-.46.55.55,0,0,1,.43-.15l4.07,0a.85.85,0,0,1,1,.77,8.58,8.58,0,0,0,.15,1.31h3.24C154,50.26,154.35,50.53,154.35,51Zm-9,4.63a18.8,18.8,0,0,0,1.84-2,11.36,11.36,0,0,0,1.14-2.07h-3c-.07,0-.1,0-.1.11v4.12ZM151,52.8a9.11,9.11,0,0,0,2,2.84l0-4a.1.1,0,0,0-.11-.1H150.5A5.75,5.75,0,0,0,151,52.8Z"/><path class="cls-11" d="M164.85,53.78a32.21,32.21,0,0,0,3.79,2.77.62.62,0,0,1,.37.58.71.71,0,0,1-.19.45.69.69,0,0,1-.58.2,1.34,1.34,0,0,1-.71-.26,1.4,1.4,0,0,1-.22-.17l-.18,2.18a.82.82,0,0,1-1,.83l-6.23-.53a.8.8,0,0,1-.83-1l.19-2.18a1,1,0,0,1-.22.1,2.56,2.56,0,0,1-1,.3.69.69,0,0,1-.53-.25.55.55,0,0,1-.13-.41.57.57,0,0,1,.41-.53,40,40,0,0,0,4.62-2.51,2.33,2.33,0,0,1,1.26-.31A2.46,2.46,0,0,1,164.85,53.78Zm-2.13-2.61a.46.46,0,0,1,.19.36.58.58,0,0,1-.13.29A11.06,11.06,0,0,1,159.32,54a1.51,1.51,0,0,1-.81.16.61.61,0,0,1-.42-.23.61.61,0,0,1-.13-.43.31.31,0,0,1,.16-.24,10.44,10.44,0,0,0,1.06-.52,18.71,18.71,0,0,0,2.6-1.57,1.12,1.12,0,0,1,.61-.14A.62.62,0,0,1,162.72,51.17Zm1.67-2.32a.69.69,0,0,1,.18.52l0,.35,3.74.32a.82.82,0,0,1,.83,1L169,52.2a.55.55,0,0,1-.19.43.76.76,0,0,1-.51.11.64.64,0,0,1-.53-.22.66.66,0,0,1-.08-.43l.08-.87c0-.1-.07-.16-.2-.17l-7.78-.66a.14.14,0,0,0-.17.14l-.08,1a.64.64,0,0,1-.17.46.77.77,0,0,1-.54.1.67.67,0,0,1-.48-.18.54.54,0,0,1-.13-.49l.1-1.26a.82.82,0,0,1,1-.84l3.69.31,0-.34a.75.75,0,0,1,.25-.49.74.74,0,0,1,.57-.11A.76.76,0,0,1,164.39,48.85ZM165.84,59l.11-1.32a.22.22,0,0,0-.22-.26L160.82,57c-.18,0-.27.07-.28.22l-.11,1.33c0,.16.06.25.24.26l4.91.42A.22.22,0,0,0,165.84,59Zm.09-2.69q-.81-.63-1.68-1.41a2,2,0,0,0-.77-.48.68.68,0,0,0-.42.11c-.8.53-1.53,1-2.18,1.35Zm-.42-4.73a9.46,9.46,0,0,0,3.27,2.27.48.48,0,0,1,.26.48.55.55,0,0,1-.26.45.59.59,0,0,1-.45.1,3.41,3.41,0,0,1-1.37-.57,10.55,10.55,0,0,1-2.2-1.74,1,1,0,0,1-.29-.35.66.66,0,0,1-.06-.33.63.63,0,0,1,.24-.43.55.55,0,0,1,.42-.11A1.24,1.24,0,0,1,165.51,51.54Z"/><path class="cls-11" d="M175.63,51.07a.75.75,0,0,1,.69,1l-1.39,7.74a.76.76,0,0,1-1,.71l-1.7-.31a.76.76,0,0,1-.69-1l1.39-7.74a.77.77,0,0,1,1-.7Zm-1.76,7.84L175,52.56a.2.2,0,0,0-.17-.24l-.6-.11a.19.19,0,0,0-.24.17l-1.14,6.35c0,.13,0,.2.16.23l.61.1A.18.18,0,0,0,173.87,58.91Zm8.3-2.64c.67.12.93.55.8,1.28l-.81,4.5c-.07.41-.23.66-.47.75a2.27,2.27,0,0,1-1.21,0,4.51,4.51,0,0,1-1.7-.57.63.63,0,0,1-.27-.51c.07-.43.28-.63.62-.61a1.69,1.69,0,0,1,.31.09,4.64,4.64,0,0,0,1.2.39.2.2,0,0,0,.24-.17l.14-.74L177.27,60l-.29,1.6a.54.54,0,0,1-.28.44,1,1,0,0,1-.53,0,.69.69,0,0,1-.47-.25.68.68,0,0,1-.06-.47l.9-5c.13-.73.49-1,1.09-.94Zm-.88-5.22a.69.69,0,0,1,.13.54l-.08.41,2.51.45a.68.68,0,0,1,.4.19.58.58,0,0,1,.05.46.64.64,0,0,1-.17.38.57.57,0,0,1-.48.11l-.78-.14a8.33,8.33,0,0,1,.78,1.86,1.91,1.91,0,0,1,.06.51.59.59,0,0,1-.28.46.88.88,0,0,1-.54.07.48.48,0,0,1-.41-.33l-.12-.55a15.31,15.31,0,0,1-1.79,0A25.66,25.66,0,0,1,177,55a.62.62,0,0,1-.45-.22.62.62,0,0,1-.08-.55.74.74,0,0,1,.18-.39.72.72,0,0,1,.63-.08l.53.09.8-1.2-1.34-.24a.56.56,0,0,1-.4-.22.66.66,0,0,1,0-.47.7.7,0,0,1,.21-.41.67.67,0,0,1,.44,0l2.4.43.07-.41a.75.75,0,0,1,.29-.46.85.85,0,0,1,.58,0A.81.81,0,0,1,181.29,51.05Zm-.09,8.66.12-.7-3.74-.67-.13.7Zm.3-1.7.09-.5c0-.12,0-.21-.11-.23l-3.34-.6c-.18,0-.27,0-.3.16l-.09.5Zm.29-4.19a.72.72,0,0,1-.08-.42.31.31,0,0,1,.09-.14l-1.86-.34-.78,1.17c1,.13,2,.22,2.83.25C181.92,54.16,181.86,54,181.79,53.82Z"/><path class="cls-11" d="M191.33,64.46a1.3,1.3,0,0,1-.87,0,1.27,1.27,0,0,1-.69-.5.93.93,0,0,1-.13-.85.94.94,0,0,1,.58-.62,1.27,1.27,0,0,1,.86,0,1.33,1.33,0,0,1,.69.53,1,1,0,0,1-.44,1.44Zm.8-3a.64.64,0,0,1-.88.35.59.59,0,0,1-.47-.76l.94-4.13c.18-.79.62-1.09,1.34-.87a1,1,0,0,1,.65.54,1.18,1.18,0,0,1,0,.92Z"/><path class="cls-11" d="M121.75,34.28a.76.76,0,0,1,.48.07c.11.06.18.22.21.46a.56.56,0,0,1-.06.42.57.57,0,0,1-.46.26l-3.17.43.12.85,2.21-.3a.75.75,0,0,1,1,.74l.24,1.76a.76.76,0,0,1-.73,1l-4.6.62a4.4,4.4,0,0,1-.24.74l5.94-.8a.66.66,0,0,1,.48.08.62.62,0,0,1,.21.44.68.68,0,0,1-.06.43.63.63,0,0,1-.47.26l-1.89.25a2.06,2.06,0,0,1-.25,1,4.06,4.06,0,0,1-.7,1q2.1.29,3.06.48a.62.62,0,0,1,.53.54.77.77,0,0,1-.12.42.63.63,0,0,1-.46.27,2.23,2.23,0,0,1-.73,0c-1.21-.21-2.44-.41-3.7-.59a19.07,19.07,0,0,1-3.87,1.64,11.38,11.38,0,0,1-1.75.38.61.61,0,0,1-.57-.2.66.66,0,0,1-.17-.37.52.52,0,0,1,.29-.55,34.16,34.16,0,0,0,3.89-1.22c-.55-.07-1.1-.14-1.65-.23-.34,0-.52-.17-.55-.42a.94.94,0,0,1,.11-.43c.12-.3.22-.59.34-.86l-2.43.33a.68.68,0,0,1-.47-.08.63.63,0,0,1-.21-.45.65.65,0,0,1,.08-.48A.6.6,0,0,1,112,42l3.1-.42c.09-.25.18-.5.26-.75l-2.29.31a.76.76,0,0,1-1-.74l-.24-1.77a.76.76,0,0,1,.74-1l2.11-.29-.11-.85-3.17.43a.62.62,0,0,1-.47-.09.53.53,0,0,1-.22-.43.67.67,0,0,1,.09-.5.75.75,0,0,1,.43-.19Zm-6.87,4.16-1.35.18c-.21,0-.3.15-.27.34l.09.66a.27.27,0,0,0,.35.26l1.35-.18Zm2.61-2.35-1.61.22.11.85,1.61-.22Zm2,6.07-3.41.46a1,1,0,0,0-.08.19,1.27,1.27,0,0,0-.12.56c0,.09.19.16.56.2.65.07,1.25.15,1.81.2A2.74,2.74,0,0,0,119.53,42.16Zm-1.78-4.11-1.61.22.17,1.26,1.61-.22Zm3.14.54-.08-.65a.28.28,0,0,0-.34-.26l-1.45.2.17,1.26,1.45-.2C120.83,38.92,120.92,38.8,120.89,38.59Z"/><path class="cls-11" d="M128.05,33.79a.6.6,0,0,1,.4.56,4.38,4.38,0,0,1-.12.83,1.13,1.13,0,0,0,0,.15l2.41-.17L130.61,34a.8.8,0,0,1,.12-.54.71.71,0,0,1,.55-.22.85.85,0,0,1,.59.12.75.75,0,0,1,.22.54l.08,1.16,3.59-.25a.72.72,0,0,1,.51.1.69.69,0,0,1,.2.51.61.61,0,0,1-.08.44.62.62,0,0,1-.53.26l-3.59.25.15,2.09,4.09-.29a.78.78,0,0,1,.52.1.69.69,0,0,1,.19.5.75.75,0,0,1-.1.46.67.67,0,0,1-.52.25l-2.94.2.24,3.4a.33.33,0,0,0,.39.33l1.11-.08a.52.52,0,0,0,.42-.52,7.45,7.45,0,0,0,0-1.25.5.5,0,0,1,.18-.38,1.79,1.79,0,0,1,.34-.11,2.28,2.28,0,0,1,.48,0,.54.54,0,0,1,.37.53,6.88,6.88,0,0,1-.09,2,1.28,1.28,0,0,1-1,1l-2.39.16c-.75,0-1.15-.4-1.2-1.19l-.27-3.79-2,.13a6.75,6.75,0,0,1-.35,2.36A5.92,5.92,0,0,1,127.68,45a1.58,1.58,0,0,1-.78.34.75.75,0,0,1-.57-.19.83.83,0,0,1-.25-.47.56.56,0,0,1,.18-.47,6.18,6.18,0,0,0,2.16-2,4.56,4.56,0,0,0,.5-2.17l-2.59.19a.79.79,0,0,1-.52-.12.65.65,0,0,1-.19-.5.74.74,0,0,1,.12-.52.81.81,0,0,1,.49-.17l4.71-.34-.15-2.08-2.9.2a5.18,5.18,0,0,1-.65,1.32.82.82,0,0,1-.65.31.79.79,0,0,1-.42-.1.52.52,0,0,1-.32-.51.56.56,0,0,1,.12-.36,9.46,9.46,0,0,0,.75-1.54,5.75,5.75,0,0,0,.36-1.45c0-.36.18-.57.47-.59A1.56,1.56,0,0,1,128.05,33.79Z"/><path class="cls-11" d="M144.6,33.22a1.21,1.21,0,0,1,.69.17,1.17,1.17,0,0,1,.23.21.63.63,0,0,1,.31-.09.8.8,0,0,1,.3.1,6.19,6.19,0,0,0,.59.55,8.21,8.21,0,0,0,1.19-1.32l.14-.13a.61.61,0,0,1,.35-.11.58.58,0,0,1,.26.09.56.56,0,0,1,.31.41.55.55,0,0,1-.1.31,4.66,4.66,0,0,1-.75,1c-.18.2-.35.37-.51.52.3.25.6.48.9.7A10.54,10.54,0,0,0,150,34a.78.78,0,0,1,.17-.16.8.8,0,0,1,.35-.11.72.72,0,0,1,.27.09.55.55,0,0,1,.3.41.66.66,0,0,1-.1.32,5.22,5.22,0,0,1-.93,1.18c-.21.21-.4.41-.59.58.5.33,1,.65,1.56.93a.49.49,0,0,1,.27.4.58.58,0,0,1-.17.43.5.5,0,0,1-.43.19,2.33,2.33,0,0,1-1-.42,6.86,6.86,0,0,1-.9-.57.34.34,0,0,1-.07.17.44.44,0,0,1-.41.19l-5.13.09a.5.5,0,0,1-.39-.12.27.27,0,0,1-.08-.16,12.62,12.62,0,0,1-1.76,1,2.12,2.12,0,0,1-.75.21.5.5,0,0,1-.45-.23.63.63,0,0,1-.12-.37.54.54,0,0,1,.2-.42,20,20,0,0,0,1.88-1.07c-.44-.36-.83-.66-1.19-.94a.64.64,0,0,1-.12-.13.41.41,0,0,1-.11-.3.53.53,0,0,1,.22-.39.71.71,0,0,1,.44-.18.72.72,0,0,1,.31.11c.66.5,1.14.88,1.45,1.15a4.11,4.11,0,0,0,.35-.27,2.79,2.79,0,0,0,1-1.2c0-.06-.05-.1-.16-.1l-3.49.06c-.34,0-.51-.17-.52-.55a.45.45,0,0,1,.5-.52ZM142,41.81a.59.59,0,0,1-.68-.65l0-2a.58.58,0,0,1,.65-.66l7.27-.12a.58.58,0,0,1,.67.64l0,2a.59.59,0,0,1-.66.68h-.78l-.37,1.07,2.64,0a.68.68,0,0,1,.44.11.66.66,0,0,1,.13.44.71.71,0,0,1-.1.4.56.56,0,0,1-.45.21l-10.2.17a.49.49,0,0,1-.57-.59.65.65,0,0,1,.12-.45.69.69,0,0,1,.43-.12l2.54,0-.38-1.06Zm6.58-1.38v-.77a.18.18,0,0,0-.21-.19l-5.53.09c-.14,0-.21.07-.2.2v.77c0,.14.07.2.21.2l5.53-.09A.18.18,0,0,0,148.53,40.43Zm-.7-3.85a20.56,20.56,0,0,1-2.3-2s0,0,0,0a4.07,4.07,0,0,1-.61,1,8.94,8.94,0,0,1-1.11,1.11ZM144,41.78l.38,1.06,2.37,0,.37-1.08Z"/><path class="cls-11" d="M160.58,33.76a.83.83,0,0,1,.89.76,12.71,12.71,0,0,0,1.13,5.22,12.17,12.17,0,0,0,2.7,3.91.74.74,0,0,1,.17.57.76.76,0,0,1-.24.48.85.85,0,0,1-.65.19,1.84,1.84,0,0,1-1.1-.72,14.78,14.78,0,0,1-2.25-3.89,18.26,18.26,0,0,1-1-4.86.11.11,0,0,1,0-.05,6.93,6.93,0,0,1-.21.68,18.6,18.6,0,0,1-2.11,4.31,17.22,17.22,0,0,1-3.13,3.8.69.69,0,0,1-.46.24.59.59,0,0,1-.47-.22.48.48,0,0,1-.17-.43,1.55,1.55,0,0,1,.45-.92,27.17,27.17,0,0,0,2.8-3.53,21.78,21.78,0,0,0,2-4.15l-2.2-.1a.63.63,0,0,1-.52-.25.82.82,0,0,1-.14-.54.79.79,0,0,1,.23-.54.63.63,0,0,1,.5-.14Z"/><path class="cls-11" d="M175,36.08l.16-1.42c0-.38.31-.54.78-.52s.66.28.63.67l-.16,1.43,2.78.31a.84.84,0,0,1,.53.21.73.73,0,0,1,.1.58.85.85,0,0,1-.19.46.72.72,0,0,1-.6.16l-2.78-.32-.81,7.23a1.12,1.12,0,0,1-.37.74,1.45,1.45,0,0,1-.85.25c-.76-.09-1.41-.2-1.94-.31a10.27,10.27,0,0,1-1.56-.45.87.87,0,0,1-.28-.69c0-.45.26-.69.64-.7l.53.13a12.32,12.32,0,0,0,2.25.54.19.19,0,0,0,.23-.17l.67-6a10.64,10.64,0,0,1-2,2.67,9.66,9.66,0,0,1-3.5,2.2,2.06,2.06,0,0,1-1,.16.8.8,0,0,1-.59-.37.69.69,0,0,1-.14-.48.51.51,0,0,1,.31-.47,11.38,11.38,0,0,0,3.45-1.73,8.18,8.18,0,0,0,2.25-2.8l-4.42-.5a.7.7,0,0,1-.52-.22.65.65,0,0,1-.11-.55.85.85,0,0,1,.23-.54.8.8,0,0,1,.56-.09Z"/><path class="cls-11" d="M187.27,40.44c.62.12.88.55.74,1.28l-.94,5.1a.83.83,0,0,1-.49.7,2.67,2.67,0,0,1-1.24,0,2.94,2.94,0,0,1-1.12-.42.63.63,0,0,1-.26-.51c.08-.44.29-.64.63-.61l.21.06a3.35,3.35,0,0,0,.86.29c.11,0,.17,0,.19-.17l.17-.9-2.6-.48-.3,1.65a.58.58,0,0,1-.27.44.77.77,0,0,1-.49,0,.66.66,0,0,1-.48-.24.78.78,0,0,1-.07-.48l1-5.44c.14-.73.5-1,1.1-.94ZM186,35.77a.53.53,0,0,1,.14.4c-.11.26-.45.93-1,2a15,15,0,0,0,2.21,0c0-.22-.09-.44-.13-.65a1.28,1.28,0,0,1-.05-.56.5.5,0,0,1,.32-.4.73.73,0,0,1,.42,0,.88.88,0,0,1,.28.16,6.47,6.47,0,0,1,.35,1,7.11,7.11,0,0,1,.26,2.19.49.49,0,0,1-.23.36.68.68,0,0,1-.52.07.53.53,0,0,1-.4-.34c0-.22-.07-.43-.11-.65a17.61,17.61,0,0,1-4.34-.17.6.6,0,0,1-.42-.24.55.55,0,0,1-.07-.47.69.69,0,0,1,.18-.36.5.5,0,0,1,.42-.1,2.91,2.91,0,0,0,.4,0c.33-.63.73-1.36,1.19-2.23a.68.68,0,0,1,.72-.23A1,1,0,0,1,186,35.77Zm.19,8.46.16-.85-2.6-.48-.15.85Zm.35-1.91.12-.64c0-.13,0-.21-.11-.23l-2.2-.41c-.17,0-.26,0-.28.16l-.12.64Zm3.42.49-.18,1a10.26,10.26,0,0,0,1.92-.32,3.24,3.24,0,0,1,.64-.11.64.64,0,0,1,.39.27.72.72,0,0,1,.05.42.82.82,0,0,1-.29.43,9.61,9.61,0,0,1-2.92.45l-.3,1.58c0,.23.07.37.35.42l1.44.27q.27,0,.39-.33a4.59,4.59,0,0,0,.27-1c.09-.25.3-.35.62-.3a1.08,1.08,0,0,1,.47.22.54.54,0,0,1,.17.51,4.64,4.64,0,0,1-.57,1.59,1.18,1.18,0,0,1-1.29.61L188.7,48a1.09,1.09,0,0,1-.69-.51,1.67,1.67,0,0,1,0-1l.74-4c.06-.36.29-.52.7-.44S190,42.45,190,42.81Zm1.05-5.7-.15.79a10.56,10.56,0,0,0,1.91-.22,3.59,3.59,0,0,1,.63-.08.61.61,0,0,1,.39.29.7.7,0,0,1,.05.42.67.67,0,0,1-.29.4,9.29,9.29,0,0,1-2.91.38l-.27,1.47c0,.23.07.37.35.42l1.39.26a.31.31,0,0,0,.37-.23,2.75,2.75,0,0,0,.22-.75.49.49,0,0,1,.62-.29,1.09,1.09,0,0,1,.47.23.57.57,0,0,1,.18.51,3.56,3.56,0,0,1-.53,1.32,1.12,1.12,0,0,1-1.25.46l-2.35-.43a1,1,0,0,1-.73-.55,2,2,0,0,1,0-1l.67-3.6c.07-.36.29-.52.7-.44S191.1,36.75,191,37.11Z"/></g></svg>