<svg xmlns="http://www.w3.org/2000/svg" xmlns:xlink="http://www.w3.org/1999/xlink" viewBox="0 0 67 67"><defs><style>.cls-1{fill:none;}.cls-2{fill:#fff;}.cls-3{clip-path:url(#clip-path);}.cls-4{fill:#a7812b;}.cls-5{fill:#e33859;}.cls-6{fill:#eb848c;}.cls-7{fill:#231815;}.cls-8{fill:#0a5e7e;}.cls-9{fill:#fdde32;}.cls-10{fill:#e10b20;}</style><clipPath id="clip-path"><circle class="cls-1" cx="33.5" cy="33.5" r="33.5"/></clipPath></defs><title>頁面_Mobile_FAol</title><g id="Menu"><circle class="cls-2" cx="33.96" cy="39.5" r="27.5"/><g class="cls-3"><path class="cls-4" d="M35.57,33.81a4,4,0,0,0-1.14-.28h0a4.43,4.43,0,0,0-1.18,0,1.61,1.61,0,0,0,.81.82l0-.19a.3.3,0,0,1,.33-.26.29.29,0,0,1,.25.33l0,.17A1.75,1.75,0,0,0,35.57,33.81Z"/><path class="cls-4" d="M34.41,33.92a.3.3,0,0,0-.33.26l0,.19a.79.79,0,0,0,.26.08.89.89,0,0,0,.32,0l0-.17A.29.29,0,0,0,34.41,33.92Z"/><path class="cls-5" d="M39.51,37.23a32.51,32.51,0,0,0-5.08-1l-.32,0-.27,0c-1.54-.17-3.22-.27-4.31-.27a7.05,7.05,0,0,0-.91,0c-.69.09-1,.27-1.12,1a8.93,8.93,0,0,0,.95,4.84,5.79,5.79,0,0,0,.36.62q.14.21.3.42a2.11,2.11,0,0,0,.19.23l.13-.11.26-.22a5.31,5.31,0,0,1,3.92-1.26,6,6,0,0,1,3.81,2.33,6.79,6.79,0,0,0,.86-.82,8.89,8.89,0,0,0,2.07-4.47C40.44,37.74,40.15,37.49,39.51,37.23Z"/><path class="cls-6" d="M33.54,42a4.53,4.53,0,0,0-3.2.91l-.28.21-.26.22-.1.09a5.59,5.59,0,0,0,2,1.27A6.38,6.38,0,0,0,33,45a6.69,6.69,0,0,0,1.26,0l.59-.08.49-.12c.18,0,.34-.11.5-.17l.46-.21c.14-.07.27-.15.4-.23l.21-.13A5.39,5.39,0,0,0,33.54,42Z"/><path class="cls-7" d="M20.62,67.94l.05-.38,0-.39a6.64,6.64,0,0,1-1.19-2.12,2,2,0,0,1,.71-.59c0-.61,0-1.33,0-2.09h-.1a2.61,2.61,0,0,0-1.12.45c0-.12,0-.24-.05-.35a16.87,16.87,0,0,0-.45-2.16,2.06,2.06,0,0,1,.8-.65,1.42,1.42,0,0,1,.93,0c0-.19,0-.38,0-.57s0-.46,0-.69h0c0-.2,0-.4,0-.6a9.84,9.84,0,0,0-3.42-3.44,1.67,1.67,0,0,0-2.24.43,1.49,1.49,0,0,0-.26,1.17,1.58,1.58,0,0,0,.69,1c2.7,1.72,3,3.45,3.33,5.64A9,9,0,0,0,20.62,67.94ZM18.41,57.72a1.85,1.85,0,0,0-.75.84,7.18,7.18,0,0,0-1.81-1.8,1.53,1.53,0,0,1,.37-1,1.54,1.54,0,0,1,1-.48,9.18,9.18,0,0,1,2.22,2.24A1.62,1.62,0,0,0,18.41,57.72Z"/><path class="cls-7" d="M59.55,66.43l0-.11,0,0v0l0,0h0l0,0a1,1,0,0,0-.21-.25h0s0,0,0,0a1.15,1.15,0,0,0-.14-.85,1.91,1.91,0,0,0-.52-.57,3.28,3.28,0,0,0-.64-.34,4.86,4.86,0,0,0-1.33-.28l-.34,0h-1c-.43,0-.86,0-1.29.07l-.38,0a1.31,1.31,0,0,0-.16-.53c-4.26-7-4.38-7.14-7.42-11.51a26.1,26.1,0,0,0-4.59-5.23.5.5,0,0,1,.08.31.69.69,0,0,1,0,.13.85.85,0,0,1-.12.28,27,27,0,0,1,4.17,4.85c3,4.35,3.14,4.52,7.4,11.47A.76.76,0,0,1,53,64a.66.66,0,0,1,0,.25l0,.06c-.05.11-.11.22-.18.35a7.73,7.73,0,0,1-.66,1,5.79,5.79,0,0,1-2.76,2l-.27.07-.25.06-.11,0-.31,0h0a.59.59,0,0,1-.32-.06.66.66,0,0,1-.22-.19C47.3,66.83,46.59,66,45.77,65l-1.23-1.51c0,.16,0,.32,0,.48s0,.33,0,.49l.74.91c.81,1,1.51,1.84,2.06,2.63a1.17,1.17,0,0,0,.93.51l0,0c.1.21.19.41.3.61.2.4.42.8.65,1.18q.16.28.36.57c.12.19.25.38.38.56a5.52,5.52,0,0,0,1,1,2.66,2.66,0,0,0,.33.21,1.36,1.36,0,0,0,.43.13h.33l.11,0a1.28,1.28,0,0,0,.41-.17,1.14,1.14,0,0,0,.33-.36,1.41,1.41,0,0,0,.13-.43,2.35,2.35,0,0,0,0-.76c0-.23-.1-.45-.15-.67s0-.2-.07-.29h0l.19.05.63.2a7.62,7.62,0,0,0,1.36.27c.11,0,.23,0,.35,0h.35a5.71,5.71,0,0,0,.71-.08,2.8,2.8,0,0,0,1.34-.63,1.18,1.18,0,0,0,.26-.35,1,1,0,0,0,.09-.43,2.06,2.06,0,0,0,.51-.34,1.25,1.25,0,0,0,.35-.48,1.08,1.08,0,0,0,.09-.51,1.17,1.17,0,0,0,.25-.16,1,1,0,0,0,.36-.57A1.17,1.17,0,0,0,59.55,66.43Zm-1.41,1.91a1.21,1.21,0,0,1-.3.2,1.24,1.24,0,0,0-.22-.19,3.42,3.42,0,0,0-1-.44l-.15,0-.2-.06-.15,0-.37-.09-.62-.12-.19,0c-.25,0-.51-.06-.77-.07h-.57a.14.14,0,0,0-.1.05.15.15,0,0,0,0,.06.16.16,0,0,0,.11.19l.68.17.6.14.29.06.42.1.39.1.16,0a4.94,4.94,0,0,1,1,.41l.1.06a.52.52,0,0,1,.15.14l0,.07h0a.11.11,0,0,1,0,0v0a.46.46,0,0,1-.08.24.52.52,0,0,1-.1.11,2.17,2.17,0,0,1-1,.46A4.6,4.6,0,0,1,55,70a8.11,8.11,0,0,1-1.24-.27l-.62-.19-.35-.1h0a.7.7,0,0,0-.24,0l-.13,0h0l0,0s0,0,0,0l-.11.11-.05.1a.91.91,0,0,0,0,.3,1.23,1.23,0,0,0,0,.2,3,3,0,0,0,.08.35c.05.22.1.43.14.63a2.12,2.12,0,0,1,0,.55.41.41,0,0,1-.17.33l-.19.08H51.8a1.12,1.12,0,0,1-.43-.21,4.51,4.51,0,0,1-.83-.9c-.13-.17-.25-.35-.37-.53s-.24-.36-.35-.55c-.22-.37-.44-.75-.64-1.13-.08-.15-.15-.3-.22-.46l.3-.07c.1,0,.21,0,.31-.09a3.21,3.21,0,0,0,.33-.12,6.34,6.34,0,0,0,2.58-2,9,9,0,0,0,1-1.59A5.14,5.14,0,0,1,54,64.5c.42,0,.84-.06,1.25-.06h.94l.3,0a3.93,3.93,0,0,1,1.15.25,1.57,1.57,0,0,1,.82.62.64.64,0,0,1,.08.2,4,4,0,0,0-.77-.23,9.82,9.82,0,0,0-1.67-.19l-.66,0a3.78,3.78,0,0,0-.51,0l-.33.09-.1,0,0,0,0,0a.12.12,0,0,0-.05.1.16.16,0,0,0,.13.17h0l.05,0,.31.06.5,0,.63,0c.33,0,.7.06,1.08.13l.48.09a3.86,3.86,0,0,1,.75.24.05.05,0,0,0,0,0,1.2,1.2,0,0,1,.31.21h0a.47.47,0,0,1,.09.12h0l0,.06.05.1a.89.89,0,0,1,0,.14s0,0,0,.07a.09.09,0,0,0,0,0,.32.32,0,0,1-.13.21l-.07,0-.1-.1a1.62,1.62,0,0,0-.49-.3,4.56,4.56,0,0,0-.82-.26l-.1,0-.22,0-.33-.06c-.39-.05-.75-.09-1.08-.11l-.64,0h-.5a1.63,1.63,0,0,0-.44.1.2.2,0,0,0-.08.08.16.16,0,0,0,.07.22h0l0,0a3,3,0,0,0,.4.11,2.55,2.55,0,0,0,.44,0h0l.63,0,.78.1.35.06.34.07h.07a4.37,4.37,0,0,1,.8.25l.06,0a.9.9,0,0,1,.24.15l0,0h0l0,0,0,0h0l0,0h0s0,0,0,0a.34.34,0,0,1,0,.22A.64.64,0,0,1,58.14,68.34Z"/><path class="cls-7" d="M42.13,18.72c.67,0,.44-.45-.56-1a14.72,14.72,0,0,0-3.34-1.12c-.57-.12-1.18-.23-1.81-.31s-1.08-.1-1.6-.12a14.83,14.83,0,0,0-3.76.28c-1.08.26-1.41.61-.77.8a39.33,39.33,0,0,0,4.48.83l1.41.18,1.65.18A35.88,35.88,0,0,0,42.13,18.72Z"/><path class="cls-7" d="M37.65,19.21a7.91,7.91,0,0,0-1.52-.35,7,7,0,0,0-1.36,0,6.23,6.23,0,0,0-2,.43c-.71.31-1,.56-.62.83a7.73,7.73,0,0,0,2.74,1c.3.06.61.11,1,.15s.8.08,1.16.09A7.58,7.58,0,0,0,39.7,21c.41-.18.2-.48-.41-.95A6.51,6.51,0,0,0,37.65,19.21Z"/><path class="cls-7" d="M21.11,40a13.12,13.12,0,0,1-1.46-2.62l.81-.19c.2-.05.37-.08.48-.12l.12-.06.05,0s0,0,0,0a.09.09,0,0,0-.05-.11.91.91,0,0,0-.2,0h-.05a3.62,3.62,0,0,0-.45.08c-.25.05-.55.11-.86.19a12.64,12.64,0,0,1-.48-1.51l.58.07h.08l.37.07h.06l.26.06.3.08.18,0a.51.51,0,0,0,.2,0h0l0,0a.08.08,0,0,0,0-.12.8.8,0,0,0-.17-.12,3.13,3.13,0,0,0-.49-.16l-.22,0-.12,0-.38-.07h0l-.49-.07-.28,0c0-.1-.05-.2-.07-.31l-.09-.5c0-.17-.06-.33-.08-.5v-.08a16.4,16.4,0,0,1-.14-2,20.21,20.21,0,0,1,.13-2.3,18.49,18.49,0,0,1,.44-2.33,17,17,0,0,1,.58-1.79,15.31,15.31,0,0,1,.82-1.79c.05-.08.09-.17.14-.26l.15-.25A14.82,14.82,0,0,1,22.4,21l.2-.22.21-.22a14.12,14.12,0,0,1,3-2.4L26.1,18l.26-.15a16.14,16.14,0,0,1,2.41-1l.28-.09.28-.08A17.14,17.14,0,0,1,34.05,16l.78,0c.53,0,1.07.07,1.61.13s1.24.18,1.83.31a17,17,0,0,1,5,1.86l.25.14.25.16a13.43,13.43,0,0,1,2.09,1.57,2.09,2.09,0,0,1,.22.2l.21.2a13.72,13.72,0,0,1,1.2,1.33,13.14,13.14,0,0,1,1.17,1.73l.15.27c.05.08.09.17.14.26a14.23,14.23,0,0,1,1,2.49,2.29,2.29,0,0,1,.08.28,2.29,2.29,0,0,1,.08.28,14.13,14.13,0,0,1,.39,2.06,14.9,14.9,0,0,1,.12,1.65,18.61,18.61,0,0,1-.13,2.46,18.82,18.82,0,0,1-.4,2.21,16.25,16.25,0,0,1-.56,1.79A14.31,14.31,0,0,1,48.78,39c-.47,0-.93,0-1.29,0A3,3,0,0,0,47,39a.62.62,0,0,0-.18.06l0,0a.09.09,0,0,0,0,.12h0a.62.62,0,0,0,.18.06h.47c.31,0,.71,0,1.12.05-.23.41-.47.8-.73,1.18l-.7-.4c-.19-.09-.33-.18-.44-.22a.5.5,0,0,0-.2,0h0a.09.09,0,0,0,0,.12.49.49,0,0,0,.14.14,2.72,2.72,0,0,0,.42.25l.65.39a12.77,12.77,0,0,1-1.92,2.1,13.79,13.79,0,0,1-5.46,2.89l-.37.1-.39.09.4-.08h.2l.39.15h0l.29.13.11.06a13.85,13.85,0,0,0,7.27-5.12l.1.06c.46.28.92.57,1.25.79a4.62,4.62,0,0,0,.41.27.62.62,0,0,0,.18.06h0a.08.08,0,0,0,0-.11.67.67,0,0,0-.11-.16,3.42,3.42,0,0,0-.4-.3c-.33-.24-.78-.54-1.25-.83l-.08,0a12.9,12.9,0,0,0,.86-1.43l1.07.12a4,4,0,0,0,.47.06.72.72,0,0,0,.18,0l0,0a.08.08,0,0,0,0-.12.81.81,0,0,0-.17-.1,2.81,2.81,0,0,0-.47-.09c-.27-.05-.6-.09-.95-.13a17.27,17.27,0,0,0,1.63-5.63A16.94,16.94,0,0,0,50.64,27a5.39,5.39,0,0,0,3-3.66A6.24,6.24,0,0,0,52.17,18a5.68,5.68,0,0,0-4.74-2.12,5.86,5.86,0,0,0-3.81,2,18.66,18.66,0,0,0-7.11-2.28,18.59,18.59,0,0,0-7.44.54,5.82,5.82,0,0,0-3.24-2.83,5.67,5.67,0,0,0-5.1.93A6.24,6.24,0,0,0,18,19a5.41,5.41,0,0,0,2.05,4.26,17.41,17.41,0,0,0-1.93,6.19,18.41,18.41,0,0,0-.07,3.77c-.95-1-1.88-2-2.73-3a1.91,1.91,0,0,1,.14-.21c.08-.12.25-.35.46-.62a14.74,14.74,0,0,0,1.73-2.56,1.35,1.35,0,0,0-.32-1.39,1.49,1.49,0,0,0-1.56-.38,4.06,4.06,0,0,0-1.49,1.19c-.34.36-.81.84-1,.82a.57.57,0,0,1-.12-.1,14.59,14.59,0,0,1-1.4-2.88,19.64,19.64,0,0,0-.82-1.84,1.76,1.76,0,0,0-1.68-.92,1.37,1.37,0,0,0-1.11,1.1A5.24,5.24,0,0,0,8.7,24.9a6.16,6.16,0,0,1,.41,1.29.24.24,0,0,1-.3.12c-.19-.16-.87-1.1-1.29-1.66-.24-.33-.47-.65-.62-.84-.61-.77-1.54-1.71-2.59-1-1.3.84-.3,2.46,0,3,.22.37.47.75.7,1.12.35.57.78,1.25,1,1.58l-.16-.07-.35-.17A18.14,18.14,0,0,0,2.72,27a1.37,1.37,0,0,0-1.5.84c-.21.55-.07,1.35,1,2L3,30.4A12,12,0,0,1,5,31.73l0,0c-.16,0-.43,0-.63,0a4.06,4.06,0,0,0-2.19.37,1.22,1.22,0,0,0-.59,1.31c.11.42.6,1.17,2.67,1.32.88.06,1.54.14,2.07.2a14.43,14.43,0,0,0,1.61.13c.22,0,.45,0,.69,0A182.21,182.21,0,0,0,21,49.83V49.7a.31.31,0,0,1,.09-.18l0,0,.2-.15A179.76,179.76,0,0,1,9.3,35a7.5,7.5,0,0,0,3.14-1.49A8.19,8.19,0,0,0,15,30.79c1,1.14,2,2.29,3.15,3.41.05.33.11.67.18,1-.35,0-.68,0-1,0a2.43,2.43,0,0,0-.51,0,.49.49,0,0,0-.19.07,0,0,0,0,0,0,0,.08.08,0,0,0,0,.12.91.91,0,0,0,.19,0h.5c.3,0,.66,0,1,0A13.59,13.59,0,0,0,19,37.24H18.9c-.53.15-1.06.33-1.46.47a3.09,3.09,0,0,0-.46.2.74.74,0,0,0-.16.13.05.05,0,0,0,0,0,.1.1,0,0,0,.08.1h0a.6.6,0,0,0,.2,0c.12,0,.27-.09.47-.16.38-.13.91-.29,1.44-.43l.08,0a14.24,14.24,0,0,0,7.72,7.68c.11-.08.22-.14.3-.19h0l.14-.07a.26.26,0,0,1,.21,0,.28.28,0,0,1,.22,0,10,10,0,0,0,2,.63A15.18,15.18,0,0,1,21.11,40Zm0-25.36a5.47,5.47,0,0,1,3.17-1.07,4.52,4.52,0,0,1,1.41.22,5.29,5.29,0,0,1,2.86,2.45,15.06,15.06,0,0,0-2.43,1,2.59,2.59,0,0,0-1.31-1,2.56,2.56,0,0,0-2.3.41,2.81,2.81,0,0,0-1.22,2.17,2.48,2.48,0,0,0,.69,1.72,14.6,14.6,0,0,0-1.59,2.19A4.79,4.79,0,0,1,18.59,19,5.67,5.67,0,0,1,21.07,14.66Zm.77,4.21a2.21,2.21,0,0,1,1-1.7,2.13,2.13,0,0,1,1.24-.42,1.7,1.7,0,0,1,.54.09,2,2,0,0,1,1,.74,14.58,14.58,0,0,0-3.23,2.56A1.93,1.93,0,0,1,21.84,18.87Zm29.89-.5a5.68,5.68,0,0,1,1.36,4.83,4.82,4.82,0,0,1-2.61,3.22,15.71,15.71,0,0,0-1-2.51,2.43,2.43,0,0,0,1.08-1.5,2.8,2.8,0,0,0-.66-2.4,2.46,2.46,0,0,0-3.64-.28,14.94,14.94,0,0,0-2.11-1.59,5.24,5.24,0,0,1,3.35-1.69A5.15,5.15,0,0,1,51.73,18.37Zm-5.07,1.76a2,2,0,0,1,1.13-.49,2,2,0,0,1,1.64.75A2.19,2.19,0,0,1,50,22.27a1.88,1.88,0,0,1-.79,1.12,14.4,14.4,0,0,0-1.25-1.86A15.28,15.28,0,0,0,46.66,20.13Zm-32,10.06-.08.12A7.54,7.54,0,0,1,12.1,33a6.73,6.73,0,0,1-3.2,1.44l-.23,0H8.56l-.34,0a11.09,11.09,0,0,1-1.82-.11c-.54-.07-1.21-.14-2.09-.21-1.45-.1-2.06-.52-2.16-.88a.66.66,0,0,1,.36-.67A3,3,0,0,1,4,32.35h.33c.67,0,1.2,0,1.28-.42a.74.74,0,0,0-.24-.61,11.35,11.35,0,0,0-2.05-1.42l-.86-.54c-.61-.39-.89-.87-.73-1.29a.79.79,0,0,1,.87-.47,22.91,22.91,0,0,1,2.61,1.15l.36.17c.27.13.63.26.87.08a.46.46,0,0,0,.18-.46,8.78,8.78,0,0,0-1.12-2l-.7-1.12c-.9-1.48-.58-1.95-.21-2.19s.73-.47,1.82.9l.61.83c1.07,1.45,1.34,1.78,1.55,1.85a.83.83,0,0,0,1-.36c.19-.3,0-.79-.37-1.8a5.57,5.57,0,0,1-.54-2.09.78.78,0,0,1,.62-.66,1.16,1.16,0,0,1,1.09.64c.2.35.49,1,.79,1.76a14.09,14.09,0,0,0,1.5,3.05.81.81,0,0,0,.47.29c.51.07,1-.43,1.52-1a3.92,3.92,0,0,1,1.25-1,.92.92,0,0,1,1,.23.76.76,0,0,1,.19.77,16.08,16.08,0,0,1-1.65,2.41L15,29.7a.22.22,0,0,1-.05.08l-.16.27S14.71,30.14,14.68,30.19Z"/><path class="cls-7" d="M27.51,24.92c-1.3-.15-2.55,1.58-2.83,4a6.47,6.47,0,0,0,.27,3,2,2,0,0,0,1.54,1.52h.16a2.15,2.15,0,0,0,1.69-1.12,6.55,6.55,0,0,0,1-2.85,6.48,6.48,0,0,0-.27-3C28.71,25.54,28.17,25,27.51,24.92Zm-.28,3.61c-.1.8-.53,1.41-1,1.36s-.71-.75-.62-1.55.53-1.4,1-1.35S27.32,27.73,27.23,28.53Z"/><path class="cls-7" d="M42.05,35.16h.17a2.14,2.14,0,0,0,1.68-1.11,6.69,6.69,0,0,0,1-2.85h0c.28-2.38-.51-4.36-1.82-4.52s-2.54,1.58-2.83,4S40.75,35,42.05,35.16Zm-.68-4.91c.09-.8.53-1.41,1-1.36s.72.75.62,1.55-.53,1.4-1,1.35S41.27,31,41.37,30.25Z"/><path class="cls-7" d="M29.59,21.33h.08a.18.18,0,0,0,.18-.18.62.62,0,0,0,0-.09.62.62,0,0,0-.09-.23.88.88,0,0,0-.24-.29l0,0-.13-.12-.11-.07-.1-.07L29,20.18,28.61,20a2.87,2.87,0,0,0-.61-.15,3.08,3.08,0,0,0-.68,0,2,2,0,0,0-.34.05,1.4,1.4,0,0,0-.34.08,1.85,1.85,0,0,0-.31.11l-.29.13,0,0a5.21,5.21,0,0,0-.56.34,5.45,5.45,0,0,0-.61.54l-.22.24c-.11.13-.2.25-.28.36a1.25,1.25,0,0,0-.18.3.87.87,0,0,0-.06.23v.11s0,0,0,.05a.18.18,0,0,0,.25.07l.07,0a1.1,1.1,0,0,0,.17-.13c.13-.12.25-.33.46-.55s.22-.22.34-.33l.42-.33a3.77,3.77,0,0,1,.48-.28,1.36,1.36,0,0,1,.25-.11l.28-.1.27-.07.27,0a2.44,2.44,0,0,1,.54,0,1.94,1.94,0,0,1,.49.11,1.22,1.22,0,0,1,.33.14l.08,0,.16.11h0l.12.1.11.09.11.09a1.46,1.46,0,0,0,.18.11Z"/><path class="cls-7" d="M42.17,22.09l-.07,0a1.31,1.31,0,0,0-.3.24.62.62,0,0,0-.17.3v.06a.18.18,0,0,0,.21.15h0a.79.79,0,0,0,.28-.09l.15-.07.13-.08.14-.07.22-.09.06,0a2.36,2.36,0,0,1,.91-.13,2.29,2.29,0,0,1,1.05.32l.12.07.12.09.23.19a3,3,0,0,1,.38.42,4,4,0,0,1,.31.45,3.74,3.74,0,0,1,.23.44c.07.14.12.27.17.39a2.33,2.33,0,0,0,.12.3l.13.19,0,.06.06,0a.17.17,0,0,0,.23-.09h0a.66.66,0,0,0,0-.09.93.93,0,0,0,0-.25,3.19,3.19,0,0,0-.24-.79c0-.07-.07-.15-.11-.23s-.09-.18-.14-.27a4.3,4.3,0,0,0-.79-1l-.23-.2,0,0-.14-.1-.16-.11a2.82,2.82,0,0,0-2.39-.24l-.19.07-.09,0Z"/><path class="cls-7" d="M34.42,45.64l.55-.07c.22,0,.43-.1.64-.16a6.07,6.07,0,0,0,1.28-.54l.41-.26.45-.33a9.46,9.46,0,0,0,3.18-5.73,1.58,1.58,0,0,0-1.21-1.86,31.06,31.06,0,0,0-5.22-1l.07-.62A2.33,2.33,0,0,0,36,34.2a.53.53,0,0,0-.16-.9A4.18,4.18,0,0,0,34.5,33a6.22,6.22,0,0,0-1,0,1.13,1.13,0,0,0-.71.23.56.56,0,0,0-.05.62A2.09,2.09,0,0,0,34,35l-.08.6a30.83,30.83,0,0,0-5.37-.23,1.59,1.59,0,0,0-1.62,1.51,9.39,9.39,0,0,0,1,5.18l0,0c.06.12.14.26.22.39a4.53,4.53,0,0,0,.26.4,6.36,6.36,0,0,0,2.83,2.32,6.89,6.89,0,0,0,1.71.44,8.43,8.43,0,0,0,.86.05A5.68,5.68,0,0,0,34.42,45.64ZM29.7,43.46l.1-.09.26-.22.28-.21a4.53,4.53,0,0,1,3.2-.91A5.39,5.39,0,0,1,37,44.12l-.21.13c-.13.08-.26.16-.4.23l-.46.21c-.16.06-.32.12-.5.17l-.49.12-.59.08A6.69,6.69,0,0,1,33,45a6.38,6.38,0,0,1-1.32-.31A5.59,5.59,0,0,1,29.7,43.46Zm-.89-1.08a5.79,5.79,0,0,1-.36-.62,8.93,8.93,0,0,1-.95-4.84c.09-.73.43-.91,1.12-1a7.05,7.05,0,0,1,.91,0c1.09,0,2.77.1,4.31.27l.27,0,.32,0a32.51,32.51,0,0,1,5.08,1c.64.26.93.51.84,1.25A8.89,8.89,0,0,1,38.28,43a6.79,6.79,0,0,1-.86.82,6,6,0,0,0-3.81-2.33,5.31,5.31,0,0,0-3.92,1.26l-.26.22L29.3,43a2.11,2.11,0,0,1-.19-.23Q28.95,42.59,28.81,42.38Zm5.62-8.85h0a4,4,0,0,1,1.14.28,1.75,1.75,0,0,1-.93.61.89.89,0,0,1-.32,0,.79.79,0,0,1-.26-.08,1.61,1.61,0,0,1-.81-.82A4.43,4.43,0,0,1,34.43,33.53Z"/><path class="cls-8" d="M21.61,69.05,22,69l.46-.07h0a3.58,3.58,0,0,0,.45-.09l.37-.1A5.68,5.68,0,0,0,24.85,68l.1-.08c-.41-.08-.81-.17-1.21-.27q-1.15-.28-2.28-.66l-.12,0,0,.31-.06.47,0,.36h0l-.05.35-.08.63Z"/><path class="cls-2" d="M25.57,17.58a2,2,0,0,0-1-.74,1.7,1.7,0,0,0-.54-.09,2.13,2.13,0,0,0-1.24.42,2.21,2.21,0,0,0-1,1.7,1.93,1.93,0,0,0,.5,1.27A14.58,14.58,0,0,1,25.57,17.58Z"/><path class="cls-2" d="M49.43,20.39a2,2,0,0,0-1.64-.75,2,2,0,0,0-1.13.49,15.28,15.28,0,0,1,1.27,1.4,14.4,14.4,0,0,1,1.25,1.86A1.88,1.88,0,0,0,50,22.27,2.19,2.19,0,0,0,49.43,20.39Z"/><path class="cls-2" d="M34.13,46.18h.54A25,25,0,0,0,39.54,46h0l.39-.09.37-.1a13.79,13.79,0,0,0,5.46-2.89A8.92,8.92,0,0,0,44.81,40a11.51,11.51,0,0,0-3.92-4.32,18.21,18.21,0,0,0-5-2.33.53.53,0,0,1,.16.9,2.33,2.33,0,0,1-1.44.82l-.07.62a31.06,31.06,0,0,1,5.22,1,1.58,1.58,0,0,1,1.21,1.86,9.46,9.46,0,0,1-3.18,5.73l-.45.33-.41.26a6.07,6.07,0,0,1-1.28.54c-.21.06-.42.12-.64.16l-.55.07a5.68,5.68,0,0,1-.59,0,8.43,8.43,0,0,1-.86-.05,6.89,6.89,0,0,1-1.71-.44,6.36,6.36,0,0,1-2.83-2.32,4.53,4.53,0,0,1-.26-.4c-.08-.13-.16-.27-.22-.39l0,0a9.39,9.39,0,0,1-1-5.18,1.59,1.59,0,0,1,1.62-1.51,30.83,30.83,0,0,1,5.37.23L34,35a2.09,2.09,0,0,1-1.27-1.19.56.56,0,0,1,.05-.62,1.13,1.13,0,0,1,.71-.23,18.49,18.49,0,0,0-6,1.08,11.65,11.65,0,0,0-4.84,3.25l-.19.26-.17.25-.15.26a18.63,18.63,0,0,0-1,2,15.18,15.18,0,0,0,8.51,5.59l1,.21a26,26,0,0,0,3.19.34Z"/><path class="cls-2" d="M26.26,29.89c.44.05.87-.56,1-1.36S27.05,27,26.61,27s-.87.55-1,1.35S25.82,29.83,26.26,29.89Z"/><path class="cls-2" d="M42,31.79c.44.05.87-.55,1-1.35s-.18-1.49-.62-1.55-.87.56-1,1.36S41.55,31.74,42,31.79Z"/><path class="cls-9" d="M20.22,62.37c0-.88,0-1.83,0-2.74a1.42,1.42,0,0,0-.93,0,2.06,2.06,0,0,0-.8.65A16.87,16.87,0,0,1,19,62.47c0,.11,0,.23.05.35a2.61,2.61,0,0,1,1.12-.45Z"/><path class="cls-9" d="M20.78,66.74l-.32-.11a.32.32,0,0,1-.19-.27s0-.78,0-1.9a2,2,0,0,0-.71.59,6.64,6.64,0,0,0,1.19,2.12Z"/><path class="cls-9" d="M19.42,57.51a9.18,9.18,0,0,0-2.22-2.24,1.54,1.54,0,0,0-1,.48,1.53,1.53,0,0,0-.37,1,7.18,7.18,0,0,1,1.81,1.8,1.85,1.85,0,0,1,.75-.84A1.62,1.62,0,0,1,19.42,57.51Z"/><path class="cls-9" d="M16.91,25.88a.92.92,0,0,0-1-.23,3.92,3.92,0,0,0-1.25,1c-.54.57-1,1.07-1.52,1a.81.81,0,0,1-.47-.29,14.09,14.09,0,0,1-1.5-3.05c-.3-.72-.59-1.41-.79-1.76a1.16,1.16,0,0,0-1.09-.64.78.78,0,0,0-.62.66,5.57,5.57,0,0,0,.54,2.09c.38,1,.56,1.5.37,1.8a.83.83,0,0,1-1,.36c-.21-.07-.48-.4-1.55-1.85l-.61-.83c-1.09-1.37-1.58-1.06-1.82-.9s-.69.71.21,2.19l.7,1.12a8.78,8.78,0,0,1,1.12,2,.46.46,0,0,1-.18.46c-.24.18-.6,0-.87-.08l-.36-.17a22.91,22.91,0,0,0-2.61-1.15.79.79,0,0,0-.87.47c-.16.42.12.9.73,1.29l.86.54A11.35,11.35,0,0,1,5.4,31.33a.74.74,0,0,1,.24.61c-.08.43-.61.42-1.28.42H4a3,3,0,0,0-1.52.28.66.66,0,0,0-.36.67c.1.36.71.78,2.16.88.88.07,1.55.14,2.09.21a11.09,11.09,0,0,0,1.82.11l.34,0h.11l.23,0A6.73,6.73,0,0,0,12.1,33a7.54,7.54,0,0,0,2.5-2.69l.08-.12c0-.05.05-.1.08-.14l.16-.27A.22.22,0,0,0,15,29.7l.48-.64a16.08,16.08,0,0,0,1.65-2.41A.76.76,0,0,0,16.91,25.88Z"/><path class="cls-9" d="M59,66.84a.89.89,0,0,0,0-.14l-.05-.1,0-.06h0a.47.47,0,0,0-.09-.12h0a1.2,1.2,0,0,0-.31-.21.05.05,0,0,1,0,0,3.86,3.86,0,0,0-.75-.24l-.48-.09c-.38-.07-.75-.1-1.08-.13l-.63,0-.5,0-.31-.06-.05,0h0a.16.16,0,0,1-.13-.17.12.12,0,0,1,.05-.1l0,0,0,0,.1,0,.33-.09a3.78,3.78,0,0,1,.51,0l.66,0a9.82,9.82,0,0,1,1.67.19,4,4,0,0,1,.77.23.64.64,0,0,0-.08-.2,1.57,1.57,0,0,0-.82-.62,3.93,3.93,0,0,0-1.15-.25l-.3,0h-.94c-.41,0-.83,0-1.25.06a5.14,5.14,0,0,0-.55.06,9,9,0,0,1-1,1.59,6.34,6.34,0,0,1-2.58,2,3.21,3.21,0,0,1-.33.12c-.1,0-.21.06-.31.09l-.3.07c.07.16.14.31.22.46.2.38.42.76.64,1.13.11.19.23.37.35.55s.24.36.37.53a4.51,4.51,0,0,0,.83.9,1.12,1.12,0,0,0,.43.21H52l.19-.08a.41.41,0,0,0,.17-.33,2.12,2.12,0,0,0,0-.55c0-.2-.09-.41-.14-.63a3,3,0,0,1-.08-.35,1.23,1.23,0,0,1,0-.2.91.91,0,0,1,0-.3l.05-.1.11-.11s0,0,0,0l0,0h0l.13,0a.7.7,0,0,1,.24,0h0l.35.1.62.19A8.11,8.11,0,0,0,55,70a4.6,4.6,0,0,0,1.23,0,2.17,2.17,0,0,0,1-.46.52.52,0,0,0,.1-.11.46.46,0,0,0,.08-.24v0a.11.11,0,0,0,0,0h0l0-.07a.52.52,0,0,0-.15-.14l-.1-.06a4.94,4.94,0,0,0-1-.41l-.16,0-.39-.1-.42-.1-.29-.06-.6-.14-.68-.17a.16.16,0,0,1-.11-.19.15.15,0,0,1,0-.06.14.14,0,0,1,.1-.05h.57c.26,0,.52,0,.77.07l.19,0,.62.12.37.09.15,0,.2.06.15,0a3.42,3.42,0,0,1,1,.44,1.24,1.24,0,0,1,.22.19,1.21,1.21,0,0,0,.3-.2.64.64,0,0,0,.19-.29.34.34,0,0,0,0-.22s0,0,0,0h0l0,0h0l0,0,0,0h0l0,0a.9.9,0,0,0-.24-.15l-.06,0a4.37,4.37,0,0,0-.8-.25h-.07l-.34-.07L56.37,67l-.78-.1-.63,0h0a2.55,2.55,0,0,1-.44,0,3,3,0,0,1-.4-.11l0,0h0a.16.16,0,0,1-.07-.22.2.2,0,0,1,.08-.08,1.63,1.63,0,0,1,.44-.1H55l.64,0c.33,0,.69.06,1.08.11l.33.06.22,0,.1,0a4.56,4.56,0,0,1,.82.26,1.62,1.62,0,0,1,.49.3l.1.1.07,0A.32.32,0,0,0,59,67a.09.09,0,0,1,0,0S59,66.86,59,66.84Z"/><path class="cls-9" d="M20.35,22.77a14.6,14.6,0,0,1,1.59-2.19,2.48,2.48,0,0,1-.69-1.72,2.81,2.81,0,0,1,1.22-2.17,2.56,2.56,0,0,1,2.3-.41,2.59,2.59,0,0,1,1.31,1,15.06,15.06,0,0,1,2.43-1,5.29,5.29,0,0,0-2.86-2.45,4.52,4.52,0,0,0-1.41-.22,5.47,5.47,0,0,0-3.17,1.07A5.67,5.67,0,0,0,18.59,19,4.79,4.79,0,0,0,20.35,22.77Z"/><path class="cls-9" d="M47.74,19.06a2.55,2.55,0,0,1,2.14,1,2.8,2.8,0,0,1,.66,2.4,2.43,2.43,0,0,1-1.08,1.5,15.71,15.71,0,0,1,1,2.51,4.82,4.82,0,0,0,2.61-3.22,5.68,5.68,0,0,0-1.36-4.83,5.15,5.15,0,0,0-4.25-1.92,5.24,5.24,0,0,0-3.35,1.69,14.94,14.94,0,0,1,2.11,1.59A2.55,2.55,0,0,1,47.74,19.06Z"/><path class="cls-9" d="M46.83,39.07A.62.62,0,0,1,47,39a3,3,0,0,1,.48,0c.36,0,.82,0,1.29,0a14.31,14.31,0,0,0,.73-1.64c-.89-.94-1.45-1.49-1.22-1.72a2.63,2.63,0,0,1,1.78-.07,18.82,18.82,0,0,0,.4-2.21,18.61,18.61,0,0,0,.13-2.46c-1-.38-1.74-.76-1.67-1.08s.72-.49,1.55-.57a14.13,14.13,0,0,0-.39-2.06,2.29,2.29,0,0,0-.08-.28,2.29,2.29,0,0,0-.08-.28,14.23,14.23,0,0,0-1-2.49c0-.09-.09-.18-.14-.26l-.15-.27a13.14,13.14,0,0,0-1.17-1.73,13.72,13.72,0,0,0-1.2-1.33l-.21-.2a2.09,2.09,0,0,0-.22-.2,13.43,13.43,0,0,0-2.09-1.57l-.25-.16-.25-.14a17,17,0,0,0-5-1.86,1.77,1.77,0,0,1,0,.2,14.72,14.72,0,0,1,3.34,1.12c1,.51,1.23.93.56,1a35.88,35.88,0,0,1-4.3-.24c0,.24-.11.49-.18.73a6.51,6.51,0,0,1,1.64.84c.61.47.82.77.41.95a7.58,7.58,0,0,1-2.69.3c-.38,1-.82,1.74-1.28,1.68s-.7-.85-.83-1.92a7.73,7.73,0,0,1-2.74-1c-.36-.27-.09-.52.62-.83a6.23,6.23,0,0,1,2-.43v-.71a39.33,39.33,0,0,1-4.48-.83c-.64-.19-.31-.54.77-.8a14.83,14.83,0,0,1,3.76-.28,1.48,1.48,0,0,0,0-.21l-.78,0a17.14,17.14,0,0,0-4.72.65l-.28.08-.28.09a16.14,16.14,0,0,0-2.41,1L26.1,18l-.26.14a14.12,14.12,0,0,0-3,2.4l-.21.22-.2.22a14.82,14.82,0,0,0-1.57,2.17l-.15.25c-.05.09-.09.18-.14.26a15.31,15.31,0,0,0-.82,1.79c.84.32,1.56.87,1.55,1.14s-1.05.52-2.13.65a18.49,18.49,0,0,0-.44,2.33,20.21,20.21,0,0,0-.13,2.3,3.72,3.72,0,0,1,2.07.36c.18.28-.79.9-1.93,1.65v.08c0,.17.05.33.08.5l.09.5c0,.11.05.21.07.31l.28,0,.49.07h0l.38.07.12,0,.22,0a3.13,3.13,0,0,1,.49.16.8.8,0,0,1,.17.12.08.08,0,0,1,0,.12l0,0h0a.51.51,0,0,1-.2,0l-.18,0-.3-.08-.26-.06h-.06l-.37-.07h-.08l-.58-.07a12.64,12.64,0,0,0,.48,1.51c.31-.08.61-.14.86-.19a3.62,3.62,0,0,1,.45-.08h.05a.91.91,0,0,1,.2,0,.09.09,0,0,1,.05.11s0,0,0,0l-.05,0-.12.06c-.11,0-.28.07-.48.12l-.81.19A13.12,13.12,0,0,0,21.11,40a18.63,18.63,0,0,1,1-2l.15-.26.17-.25.19-.26A11.65,11.65,0,0,1,27.47,34a18.49,18.49,0,0,1,6-1.08,6.22,6.22,0,0,1,1,0,4.18,4.18,0,0,1,1.35.35,18.21,18.21,0,0,1,5,2.33A11.51,11.51,0,0,1,44.81,40a8.92,8.92,0,0,1,.95,2.93,12.77,12.77,0,0,0,1.92-2.1L47,40.39a2.72,2.72,0,0,1-.42-.25.49.49,0,0,1-.14-.14.09.09,0,0,1,0-.12h0a.5.5,0,0,1,.2,0c.11,0,.25.13.44.22l.7.4c.26-.38.5-.77.73-1.18-.41,0-.81-.05-1.12-.05H47a.62.62,0,0,1-.18-.06h0a.09.09,0,0,1,0-.12ZM29.32,29.44a6.55,6.55,0,0,1-1,2.85,2.15,2.15,0,0,1-1.69,1.12h-.16A2,2,0,0,1,25,31.88a6.47,6.47,0,0,1-.27-3c.28-2.38,1.53-4.11,2.83-4,.66.08,1.2.62,1.54,1.52A6.48,6.48,0,0,1,29.32,29.44Zm.35-8.09h-.08l-.07,0a1.46,1.46,0,0,1-.18-.11l-.11-.09L29.12,21l-.12-.1h0l-.16-.11-.08,0a1.22,1.22,0,0,0-.33-.14,1.94,1.94,0,0,0-.49-.11,2.44,2.44,0,0,0-.54,0l-.27,0-.27.07-.28.1a1.36,1.36,0,0,0-.25.11,3.77,3.77,0,0,0-.48.28l-.42.33c-.12.11-.24.22-.34.33s-.33.43-.46.55a1.1,1.1,0,0,1-.17.13l-.07,0a.18.18,0,0,1-.25-.07s0,0,0-.05v-.11a.87.87,0,0,1,.06-.23,1.25,1.25,0,0,1,.18-.3c.08-.11.17-.23.28-.36l.22-.24a5.45,5.45,0,0,1,.61-.54,5.21,5.21,0,0,1,.56-.34l0,0,.29-.13a1.85,1.85,0,0,1,.31-.11,1.4,1.4,0,0,1,.34-.08,2,2,0,0,1,.34-.05,3.08,3.08,0,0,1,.68,0,2.87,2.87,0,0,1,.61.15l.36.16.16.09.1.07.11.07.13.12,0,0a.88.88,0,0,1,.24.29.62.62,0,0,1,.09.23.62.62,0,0,1,0,.09A.18.18,0,0,1,29.67,21.35Zm12,1.31a.62.62,0,0,1,.17-.3,1.31,1.31,0,0,1,.3-.24l.07,0,.28-.15.09,0,.19-.07a2.82,2.82,0,0,1,2.39.24l.16.11.14.1,0,0,.23.2a4.3,4.3,0,0,1,.79,1c.05.09.1.18.14.27s.07.16.11.23a3.19,3.19,0,0,1,.24.79.93.93,0,0,1,0,.25.66.66,0,0,1,0,.09h0a.17.17,0,0,1-.23.09l-.06,0,0-.06L46.46,25a2.33,2.33,0,0,1-.12-.3c-.05-.12-.1-.25-.17-.39a3.74,3.74,0,0,0-.23-.44,4,4,0,0,0-.31-.45,3,3,0,0,0-.38-.42L45,22.8l-.12-.09-.12-.07a2.29,2.29,0,0,0-1.05-.32,2.36,2.36,0,0,0-.91.13l-.06,0-.22.09-.14.07-.13.08-.15.07a.79.79,0,0,1-.28.09h0a.18.18,0,0,1-.21-.15Zm3.26,8.55h0a6.69,6.69,0,0,1-1,2.85,2.14,2.14,0,0,1-1.68,1.11h-.17C40.75,35,40,33,40.24,30.65s1.53-4.12,2.83-4S45.17,28.83,44.89,31.21Z"/><path class="cls-9" d="M36.63,47.29a6.71,6.71,0,0,0,2.31-.6l.11-.06a32.07,32.07,0,0,1-4.94.13H34l-.43,0-.43,0a24.28,24.28,0,0,1-3.05-.39l-.5-.11c-.52-.12-.94-.24-1.27-.35a5.68,5.68,0,0,0,1,.52l.53.19a14.58,14.58,0,0,0,2.76.6l.4,0,.41,0,.2,0A15.38,15.38,0,0,0,36.63,47.29Z"/><path class="cls-10" d="M26.25,45.84a1.56,1.56,0,0,1,.54-.6,14.24,14.24,0,0,1-7.72-7.68l-.08,0c-.53.14-1.06.3-1.44.43-.2.07-.35.13-.47.16a.6.6,0,0,1-.2,0h0a.1.1,0,0,1-.08-.1.05.05,0,0,1,0,0,.74.74,0,0,1,.16-.13,3.09,3.09,0,0,1,.46-.2c.4-.14.93-.32,1.46-.47H19a13.59,13.59,0,0,1-.53-1.71c-.38,0-.74,0-1,0h-.5a.91.91,0,0,1-.19,0,.08.08,0,0,1,0-.12,0,0,0,0,1,0,0,.49.49,0,0,1,.19-.07,2.43,2.43,0,0,1,.51,0c.28,0,.61,0,1,0-.07-.33-.13-.67-.18-1C17.06,33.08,16,31.93,15,30.79a8.19,8.19,0,0,1-2.57,2.69A7.5,7.5,0,0,1,9.3,35a179.76,179.76,0,0,0,12,14.37Z"/><path class="cls-10" d="M53,63.69c-4.26-6.95-4.37-7.12-7.4-11.47a27,27,0,0,0-4.17-4.85,1.84,1.84,0,0,1-.45.49l1.75,3v0c.06.11,1.34,2.82,1.69,9,.07,1.13.12,2.4.16,3.61L45.77,65c.82,1,1.53,1.86,2.09,2.67a.66.66,0,0,0,.22.19.59.59,0,0,0,.32.06h0l.31,0,.11,0,.25-.06.27-.07a5.79,5.79,0,0,0,2.76-2,7.73,7.73,0,0,0,.66-1c.07-.13.13-.24.18-.35l0-.06A.66.66,0,0,0,53,64,.76.76,0,0,0,53,63.69Z"/><path class="cls-10" d="M44,63.17c0-.16,0-.33,0-.5,0-1-.08-1.91-.13-2.79-.34-5.87-1.55-8.6-1.63-8.78l-1.72-2.91A11.31,11.31,0,0,1,35,49.32c-.41,0-.83,0-1.27,0A19.66,19.66,0,0,1,31.34,49L31,48.89l-.36-.08a13,13,0,0,1-2.33-.75,3.71,3.71,0,0,1-2-1.54l-4.59,3.25-.17.12V50c0,.1,0,.23,0,.38-.11,1.18-.37,3.78-.55,5.78-.06.75-.1,1.72-.12,2.77,0,.29,0,.58,0,.88h0v.06c0,.39,0,.78,0,1.16v1.39c0,.66,0,1.28,0,1.83,0,.86,0,1.54,0,1.86v0l.28.1.29.1.52.17c.54.17,1.08.33,1.64.48l.63.15c.69.16,1.39.3,2.1.43s1.17.19,1.77.27l2,.24.37,0,.34,0,1.72.15a66.24,66.24,0,0,0,11,0l.61-.06c0-.67-.06-2.54-.13-4.61C44,63.5,44,63.34,44,63.17Zm-7.7-10.8a.29.29,0,0,1,.29-.23l5.29,0a.28.28,0,0,1,.29.22c0,.11.59,2.59-.54,4a2.62,2.62,0,0,1-1.31.87l-.3.07-.31,0a2.42,2.42,0,0,1-.38,0h0a2.8,2.8,0,0,1-2.3-1,3.5,3.5,0,0,1-.73-1.77c0-.1,0-.2,0-.3s0-.2,0-.3A7.87,7.87,0,0,1,36.25,52.37Z"/><path class="cls-10" d="M36.77,54.37c0,.1,0,.2,0,.3A2.88,2.88,0,0,0,37.39,56a2.28,2.28,0,0,0,1.85.76h.11l.32,0,.3-.05a2,2,0,0,0,1.14-.7,4.59,4.59,0,0,0,.48-3.32l-4.8,0a7.48,7.48,0,0,0,0,1.36Z"/><path class="cls-10" d="M27,46.49a2.84,2.84,0,0,0,.24.26,5.3,5.3,0,0,0,1.54.86,14.84,14.84,0,0,0,2.43.73l.37.07.38.07a16.47,16.47,0,0,0,1.81.21,12,12,0,0,0,6.33-1,2.91,2.91,0,0,0,.55-.36,1.39,1.39,0,0,0,.21-.22.65.65,0,0,0,.09-.16.06.06,0,0,0,0,0,.86.86,0,0,0-.21-.17l-.2-.11-.25-.11-.11,0-.16.17a4.06,4.06,0,0,1-1.44.81l-.12,0a9.44,9.44,0,0,1-2.85.42c-.6,0-1.28,0-2.05-.07l-.78-.09-.39-.05-.39,0A13.75,13.75,0,0,1,29.35,47a5.54,5.54,0,0,1-1.61-.85l-.1-.09a1.93,1.93,0,0,1-.25-.24,2.33,2.33,0,0,1-.16-.2l-.11.08a.91.91,0,0,0-.33.33s0,0,0,0A1,1,0,0,0,27,46.49Z"/><path d="M38.23,16.64a1.77,1.77,0,0,0,0-.2c-.59-.13-1.2-.23-1.83-.31S35.36,16,34.83,16a1.48,1.48,0,0,1,0,.21c.52,0,1.06.06,1.6.12S37.66,16.52,38.23,16.64Z"/><path d="M34.9,21.06c.13,1.07.38,1.87.83,1.92s.9-.67,1.28-1.68c-.36,0-.75,0-1.16-.09S35.2,21.12,34.9,21.06Z"/><path d="M36.13,18.86a7.91,7.91,0,0,1,1.52.35c.07-.24.13-.49.18-.73l-1.65-.18-1.41-.18v.71A7,7,0,0,1,36.13,18.86Z"/><path d="M21.27,26.56c0-.27-.71-.82-1.55-1.14a17,17,0,0,0-.58,1.79C20.22,27.08,21.27,26.87,21.27,26.56Z"/><path d="M20.64,32.2a3.72,3.72,0,0,0-2.07-.36,16.4,16.4,0,0,0,.14,2C19.85,33.1,20.82,32.48,20.64,32.2Z"/><path d="M50.6,30.92a14.9,14.9,0,0,0-.12-1.65c-.83.08-1.5.32-1.55.57S49.59,30.54,50.6,30.92Z"/><path d="M48.29,35.66c-.23.23.33.78,1.22,1.72a16.25,16.25,0,0,0,.56-1.79A2.63,2.63,0,0,0,48.29,35.66Z"/><path d="M33.6,80.9l.3,0c.65.06,1.64.14,3.16.24l1,.07c.65,0,1.26.07,1.79.07.84,0,1.5,0,1.89-.08l.36,0,.29,0,.29,0c.81-.13.86-.3.89-.43s.56-8,.8-11.84l.1,0a.29.29,0,0,0,.26-.29s0-1.87-.11-4.11c0-.16,0-.32,0-.49s0-.32,0-.48c0-1.21-.09-2.48-.16-3.61-.35-6.19-1.63-8.9-1.69-9v0l-1.75-3a1.84,1.84,0,0,0,.45-.49.85.85,0,0,0,.12-.28.69.69,0,0,0,0-.13.5.5,0,0,0-.08-.31,1.48,1.48,0,0,0-.51-.44l-.11-.06L40.53,46h0l-.39-.15h-.2l-.4.08h0a25,25,0,0,1-4.87.23h-.54l-.34,0a26,26,0,0,1-3.19-.34l-1-.21a10,10,0,0,1-2-.63.28.28,0,0,0-.22,0,.26.26,0,0,0-.21,0l-.14.07h0c-.08.05-.19.11-.3.19a1.56,1.56,0,0,0-.54.6l-4.94,3.5-.2.15,0,0a.31.31,0,0,0-.09.18v.13c-.07.68-.39,3.9-.6,6.29,0,.47-.07,1-.1,1.64,0,.2,0,.4,0,.6h0c0,.23,0,.46,0,.69s0,.38,0,.57c0,.91,0,1.86,0,2.74s0,1.48,0,2.09c0,1.12,0,1.88,0,1.9a.32.32,0,0,0,.19.27l.32.11-.06.43,0,.39-.05.38-1.21,9.61a.29.29,0,0,0,.06.22,2.35,2.35,0,0,0,.62.51l.26.17.27.15a14.92,14.92,0,0,0,4.32,1.33c1.76.31,3,.46,3.77.53l.3,0,.29,0a5,5,0,0,0,1,0,.3.3,0,0,0,.23-.23c.58-2.65,1.27-5.51,1.68-6.77.11,1.06.18,3.08.22,4.42.08,2.58.1,2.6.21,2.72s.24.16.71.23Zm-.93-8a1.1,1.1,0,0,0,.25-.15,1.21,1.21,0,0,0,.22-.23,7.4,7.4,0,0,0,1-3.49c1.58.09,3,.13,4.29.13h.79a6,6,0,0,0,4.35,2.78c-.25,3.85-.51,7.84-.58,8.54a2,2,0,0,1-.33.08l-.29,0-.29,0a22.85,22.85,0,0,1-4,0l-1-.07c-1.19-.08-2.4-.17-3.2-.25l-.3,0-.29,0-.23,0c0-.36-.07-1.36-.1-2.34-.09-2.67-.17-4.05-.27-4.77C32.7,73,32.68,73,32.67,72.88Zm-1,.16c-.2.55-.48,1.54-.91,3.3-.37,1.51-.71,3-.83,3.59h-.54l-.29,0-.3,0c-.78-.06-2-.21-3.8-.53A13.48,13.48,0,0,1,20.75,78l-.26-.16a1.46,1.46,0,0,1-.26-.18,1.86,1.86,0,0,1-.23-.18l1-7.84h.23a7.23,7.23,0,0,0,1.56-.17,4.35,4.35,0,0,0,.46-.11l.44-.14a6.08,6.08,0,0,0,2-1.17l.36.07c1.35.23,2.75.41,4.24.56l.29,0,.29,0h.06a8.22,8.22,0,0,0,.39,3.57,1.27,1.27,0,0,0,.46.53ZM20.82,64.27c0-.55,0-1.17,0-1.83V61.05c0-.38,0-.77,0-1.16v-.06h0c0-.3,0-.59,0-.88,0-1,.06-2,.12-2.77.18-2,.44-4.6.55-5.78,0-.15,0-.28,0-.38v-.12l.17-.12,4.59-3.25a3.71,3.71,0,0,0,2,1.54,13,13,0,0,0,2.33.75l.36.08.37.08a19.66,19.66,0,0,0,2.36.31c.44,0,.86,0,1.27,0a11.31,11.31,0,0,0,5.48-1.13l1.72,2.91c.08.18,1.29,2.91,1.63,8.78.05.88.09,1.84.13,2.79,0,.17,0,.34,0,.5s0,.33,0,.5c.07,2.07.11,3.94.13,4.61l-.61.06a66.24,66.24,0,0,1-11,0l-1.72-.15-.34,0-.37,0-2-.24q-.9-.12-1.77-.27c-.71-.13-1.41-.27-2.1-.43L23.58,67c-.56-.15-1.1-.31-1.64-.48l-.52-.17-.29-.1-.28-.1v0C20.85,65.81,20.83,65.13,20.82,64.27Zm6.3-18.54.11-.08a2.33,2.33,0,0,0,.16.2,1.93,1.93,0,0,0,.25.24l.1.09a5.54,5.54,0,0,0,1.61.85,13.75,13.75,0,0,0,2.63.65l.39,0,.39.05.78.09c.77.06,1.45.08,2.05.07a9.44,9.44,0,0,0,2.85-.42l.12,0A4.06,4.06,0,0,0,40,46.67l.16-.17.11,0,.25.11.2.11a.86.86,0,0,1,.21.17.06.06,0,0,1,0,0,.65.65,0,0,1-.09.16,1.39,1.39,0,0,1-.21.22,2.91,2.91,0,0,1-.55.36,12,12,0,0,1-6.33,1,16.47,16.47,0,0,1-1.81-.21l-.38-.07-.37-.07a14.84,14.84,0,0,1-2.43-.73,5.3,5.3,0,0,1-1.54-.86,2.84,2.84,0,0,1-.24-.26,1,1,0,0,1-.18-.39s0,0,0,0A.91.91,0,0,1,27.12,45.73Zm3,.59a24.28,24.28,0,0,0,3.05.39l.43,0,.43,0h.12a32.07,32.07,0,0,0,4.94-.13l-.11.06a6.71,6.71,0,0,1-2.31.6,15.38,15.38,0,0,1-3,0l-.2,0-.41,0-.4,0a14.58,14.58,0,0,1-2.76-.6l-.53-.19a5.68,5.68,0,0,1-1-.52c.33.11.75.23,1.27.35Zm2.47,26a.7.7,0,0,1-.17.09.53.53,0,0,1-.22,0l0,0c-.35-.16-.75-1.33-.6-3.56l.95.08,1.08.08C33.44,70,33.17,71.78,32.55,72.28Zm11.18-.63Zm-.14-.33a3.41,3.41,0,0,1-.48-.09,5.46,5.46,0,0,1-3.22-2.11h0c1.76,0,3.07-.14,3.8-.21C43.69,69.67,43.64,70.49,43.59,71.32ZM21.2,68.08h0l0-.36.06-.47,0-.31.12,0q1.13.38,2.28.66c.4.1.8.19,1.21.27l-.1.08a5.68,5.68,0,0,1-1.62.77l-.37.1a3.58,3.58,0,0,1-.45.09h0L22,69l-.34,0h-.54l.08-.63Z"/><path d="M36.17,54.31c0,.1,0,.2,0,.3a3.5,3.5,0,0,0,.73,1.77,2.8,2.8,0,0,0,2.3,1h0a2.42,2.42,0,0,0,.38,0l.31,0,.3-.07a2.62,2.62,0,0,0,1.31-.87c1.13-1.45.56-3.93.54-4a.28.28,0,0,0-.29-.22l-5.29,0a.29.29,0,0,0-.29.23,7.87,7.87,0,0,0-.1,1.64C36.15,54.11,36.16,54.21,36.17,54.31Zm.62-1.59,4.8,0A4.59,4.59,0,0,1,41.11,56a2,2,0,0,1-1.14.7l-.3.05-.32,0h-.11A2.28,2.28,0,0,1,37.39,56a2.88,2.88,0,0,1-.57-1.34c0-.1,0-.2,0-.3l0-.29A7.48,7.48,0,0,1,36.79,52.72Z"/></g></g></svg>