<svg xmlns="http://www.w3.org/2000/svg" xmlns:xlink="http://www.w3.org/1999/xlink" viewBox="0 0 55 40"><defs><style>.cls-1{isolation:isolate;}.cls-2{fill:#fdde32;}.cls-3{fill:url(#鍊踑臇蜸馯鳺艜_407);}.cls-4{fill:url(#鍊踑臇蜸馯鳺艜_34);}.cls-5{fill:url(#鍊踑臇蜸馯鳺艜_42);}.cls-6{fill:url(#鍊踑臇蜸馯鳺艜_42-2);}.cls-7{fill:url(#未命名漸層_713);}.cls-8{fill:url(#鍊踑臇蜸馯鳺艜_407-2);}.cls-9{fill:url(#鍊踑臇蜸馯鳺艜_11);}.cls-10{fill:url(#鍊踑臇蜸馯鳺艜_382);}.cls-11{fill:url(#鍊踑臇蜸馯鳺艜_382-2);}.cls-12{fill:url(#鍊踑臇蜸馯鳺艜_382-3);}.cls-13{fill:url(#鍊踑臇蜸馯鳺艜_7);}.cls-14{fill:url(#鍊踑臇蜸馯鳺艜_382-4);}.cls-15{fill:url(#鍊踑臇蜸馯鳺艜_246);}.cls-16,.cls-17,.cls-25{opacity:0.2;mix-blend-mode:multiply;}.cls-16{fill:url(#鍊踑臇蜸馯鳺艜_157);}.cls-17{fill:url(#鍊踑臇蜸馯鳺艜_157-2);}.cls-18,.cls-19,.cls-20,.cls-21{opacity:0.71;mix-blend-mode:screen;}.cls-18{fill:url(#鍊踑臇蜸馯鳺艜_173);}.cls-19{fill:url(#鍊踑臇蜸馯鳺艜_49);}.cls-20{fill:url(#鍊踑臇蜸馯鳺艜_49-2);}.cls-21{fill:url(#鍊踑臇蜸馯鳺艜_173-2);}.cls-22{fill:url(#未命名漸層_299);}.cls-23{fill:url(#鍊踑臇蜸馯鳺艜_42-3);}.cls-24{fill:url(#鍊踑臇蜸馯鳺艜_407-3);}.cls-25{fill:url(#鍊踑臇蜸馯鳺艜_55);}</style><linearGradient id="鍊踑臇蜸馯鳺艜_407" x1="220.76" y1="-46.12" x2="220.76" y2="-60.07" gradientTransform="matrix(1, -0.03, 0.03, 1, -177.92, 82.41)" gradientUnits="userSpaceOnUse"><stop offset="0" stop-color="#d40c44"/><stop offset="1" stop-color="#bf2b31"/></linearGradient><linearGradient id="鍊踑臇蜸馯鳺艜_34" x1="-1632.58" y1="1572.15" x2="-1632.58" y2="1569.72" gradientTransform="translate(2014.13 -1058.73) rotate(15.79)" gradientUnits="userSpaceOnUse"><stop offset="0" stop-color="#fbbdab"/><stop offset="0.35" stop-color="#f8b9aa"/><stop offset="0.66" stop-color="#efafa7"/><stop offset="0.96" stop-color="#df9ca3"/><stop offset="1" stop-color="#dc99a2"/></linearGradient><linearGradient id="鍊踑臇蜸馯鳺艜_42" x1="211.85" y1="-43.23" x2="211.85" y2="-56.14" gradientTransform="matrix(1, -0.03, 0.03, 1, -177.92, 82.41)" gradientUnits="userSpaceOnUse"><stop offset="0" stop-color="#faa499"/><stop offset="0.38" stop-color="#f6a39a"/><stop offset="0.72" stop-color="#ec9f9d"/><stop offset="1" stop-color="#dc99a2"/></linearGradient><linearGradient id="鍊踑臇蜸馯鳺艜_42-2" x1="196.72" y1="-51.01" x2="194.05" y2="-56.19" xlink:href="#鍊踑臇蜸馯鳺艜_42"/><linearGradient id="未命名漸層_713" x1="205.12" y1="-42.95" x2="205.12" y2="-68.02" gradientTransform="matrix(1, -0.03, 0.03, 1, -177.92, 82.41)" gradientUnits="userSpaceOnUse"><stop offset="0" stop-color="#fbc687"/><stop offset="0.23" stop-color="#fbc88b"/><stop offset="0.44" stop-color="#fccd95"/><stop offset="0.64" stop-color="#fdd5a8"/><stop offset="0.83" stop-color="#fee1c1"/><stop offset="1" stop-color="#ffeede"/></linearGradient><linearGradient id="鍊踑臇蜸馯鳺艜_407-2" x1="200.25" y1="-60.74" x2="200.25" y2="-68.83" xlink:href="#鍊踑臇蜸馯鳺艜_407"/><linearGradient id="鍊踑臇蜸馯鳺艜_11" x1="198.66" y1="-67.53" x2="198.66" y2="-69.45" gradientTransform="matrix(1, -0.03, 0.03, 1, -177.92, 82.41)" gradientUnits="userSpaceOnUse"><stop offset="0" stop-color="#ffeede"/><stop offset="0.18" stop-color="#fedccc"/><stop offset="0.44" stop-color="#fccbb9"/><stop offset="0.7" stop-color="#fbc0af"/><stop offset="1" stop-color="#fbbdab"/></linearGradient><linearGradient id="鍊踑臇蜸馯鳺艜_382" x1="218.04" y1="-42.77" x2="218.04" y2="-44.49" gradientTransform="matrix(1, -0.03, 0.03, 1, -177.92, 82.41)" gradientUnits="userSpaceOnUse"><stop offset="0" stop-color="#d40c44"/><stop offset="1" stop-color="#fa8545"/></linearGradient><linearGradient id="鍊踑臇蜸馯鳺艜_382-2" x1="211.6" y1="-43.17" x2="211.6" y2="-44.73" xlink:href="#鍊踑臇蜸馯鳺艜_382"/><linearGradient id="鍊踑臇蜸馯鳺艜_382-3" x1="196.12" y1="-44.43" x2="196.12" y2="-46.23" xlink:href="#鍊踑臇蜸馯鳺艜_382"/><linearGradient id="鍊踑臇蜸馯鳺艜_7" x1="208.07" y1="-57.65" x2="208.07" y2="-61.41" gradientTransform="matrix(1, -0.03, 0.03, 1, -177.92, 82.41)" gradientUnits="userSpaceOnUse"><stop offset="0" stop-color="#9a3041"/><stop offset="1" stop-color="#db5b35"/></linearGradient><linearGradient id="鍊踑臇蜸馯鳺艜_382-4" x1="190.98" y1="-48.81" x2="190.98" y2="-50.84" xlink:href="#鍊踑臇蜸馯鳺艜_382"/><linearGradient id="鍊踑臇蜸馯鳺艜_246" x1="207.88" y1="-57.94" x2="207.88" y2="-61.41" gradientTransform="matrix(1, -0.03, 0.03, 1, -177.92, 82.41)" gradientUnits="userSpaceOnUse"><stop offset="0" stop-color="#e56b46"/><stop offset="1" stop-color="#fab63f"/></linearGradient><linearGradient id="鍊踑臇蜸馯鳺艜_157" x1="196.21" y1="-44.56" x2="196.21" y2="-49.28" gradientTransform="matrix(1, -0.03, 0.03, 1, -177.92, 82.41)" gradientUnits="userSpaceOnUse"><stop offset="0" stop-color="#80042c"/><stop offset="0.09" stop-color="#830a31"/><stop offset="0.22" stop-color="#8a1c40"/><stop offset="0.37" stop-color="#973958"/><stop offset="0.53" stop-color="#a8617a"/><stop offset="0.7" stop-color="#be95a6"/><stop offset="0.88" stop-color="#d8d3da"/><stop offset="1" stop-color="#ebffff"/></linearGradient><linearGradient id="鍊踑臇蜸馯鳺艜_157-2" x1="205.12" y1="-42.95" x2="205.12" y2="-63.92" xlink:href="#鍊踑臇蜸馯鳺艜_157"/><linearGradient id="鍊踑臇蜸馯鳺艜_173" x1="215.94" y1="-55.02" x2="215.94" y2="-61.15" gradientTransform="matrix(1, -0.03, 0.03, 1, -177.92, 82.41)" gradientUnits="userSpaceOnUse"><stop offset="0"/><stop offset="1" stop-color="#cab63c"/></linearGradient><linearGradient id="鍊踑臇蜸馯鳺艜_49" x1="200.9" y1="-60" x2="200.9" y2="-67.12" gradientTransform="matrix(1, -0.03, 0.03, 1, -177.92, 82.41)" gradientUnits="userSpaceOnUse"><stop offset="0"/><stop offset="1" stop-color="#f2eed2"/></linearGradient><linearGradient id="鍊踑臇蜸馯鳺艜_49-2" x1="196.97" y1="-47.96" x2="196.97" y2="-51.4" xlink:href="#鍊踑臇蜸馯鳺艜_49"/><linearGradient id="鍊踑臇蜸馯鳺艜_173-2" x1="222.28" y1="-46.2" x2="222.28" y2="-58.72" xlink:href="#鍊踑臇蜸馯鳺艜_173"/><linearGradient id="未命名漸層_299" x1="199.37" y1="-55.29" x2="199.37" y2="-61.41" gradientTransform="matrix(1, -0.03, 0.03, 1, -177.92, 82.41)" gradientUnits="userSpaceOnUse"><stop offset="0" stop-color="#a9d8c8"/><stop offset="0.6" stop-color="#1474f2"/><stop offset="0.64" stop-color="#1a77f0"/><stop offset="0.69" stop-color="#2b7eeb"/><stop offset="0.75" stop-color="#478be3"/><stop offset="0.82" stop-color="#6d9dd7"/><stop offset="0.89" stop-color="#9fb4c8"/><stop offset="0.96" stop-color="#dbcfb7"/><stop offset="0.99" stop-color="#fbdead"/></linearGradient><linearGradient id="鍊踑臇蜸馯鳺艜_42-3" x1="195.35" y1="-65.56" x2="195.12" y2="-66" xlink:href="#鍊踑臇蜸馯鳺艜_42"/><linearGradient id="鍊踑臇蜸馯鳺艜_407-3" x1="195.32" y1="-65.57" x2="195.32" y2="-66.2" xlink:href="#鍊踑臇蜸馯鳺艜_407"/><linearGradient id="鍊踑臇蜸馯鳺艜_55" x1="197.13" y1="-60.04" x2="197.13" y2="-63.03" gradientTransform="matrix(1, -0.03, 0.03, 1, -177.92, 82.41)" gradientUnits="userSpaceOnUse"><stop offset="0" stop-color="#c3a6b7"/><stop offset="0.07" stop-color="#bc94a8"/><stop offset="0.3" stop-color="#a7617c"/><stop offset="0.51" stop-color="#963959"/><stop offset="0.71" stop-color="#8a1c40"/><stop offset="0.88" stop-color="#830a31"/><stop offset="1" stop-color="#80042c"/></linearGradient></defs><title>頁面_Mobile_FAol</title><g class="cls-1"><g id="Menu"><circle class="cls-2" cx="27.6" cy="19.57" r="13.5"/><path class="cls-3" d="M37.72,16.88c7.37-2.24,4.46,9.7,7.28,12.21,0,0-2.36,1.86-4.58,1.31-.94-.69,2.16-16.08-2.13-12.9Z"/><path class="cls-4" d="M15.14,9.88a1.64,1.64,0,0,1,.6-2.35,12.62,12.62,0,0,0,.48,2Z"/><path class="cls-5" d="M35.76,27.79A6.3,6.3,0,0,0,34,33.5a3.22,3.22,0,0,1-2.62-.29,14.15,14.15,0,0,1,2.17-5.16c-5-1.35-4.3-4.08-4.21-7.26l4.54-.11C34.42,22,33.78,26.28,35.76,27.79Z"/><path class="cls-6" d="M22.24,21.66c.5,5.27-9.29,1.95-9.18,6.88a3,3,0,0,1-2.56-1.15c1.41-6.52,7.2-1.06,7.78-8.29C19.85,18.77,22.56,21,22.24,21.66Z"/><path class="cls-7" d="M39.84,30.83a19.61,19.61,0,0,0,.49,2.29,3.43,3.43,0,0,1-2.67.55A26.76,26.76,0,0,1,38,28.22c-3.46,2-5.79-3.79-5.16-6.18-1.94,1.72-3.63,3-9.31,3.7-2.5,2.22-7.14,2.64-4.95,6.6a3.19,3.19,0,0,1-2.84.07c-1.25-4.54,2-4.75,3.81-7.13C13.73,24,17.16,19.61,17,15.17c-14,4.34.68-15.57,5.54.34C43.8,17.15,36.63,12.71,39.84,30.83Z"/><path class="cls-8" d="M15.88,8.84c6-2.51,9.33,6.51,9.39,7.42C21.09,17,20.7,7.83,15.88,8.84Z"/><path class="cls-9" d="M17,8.94a4.06,4.06,0,0,1,3.7-1.1C20.24,8,19.42,11,17,8.94Z"/><path class="cls-10" d="M37.63,32.38s.52,1,2.46-.22l.24,1a2.56,2.56,0,0,1-2.82.65Z"/><path class="cls-11" d="M34,33.5s-1,.51-3.12-.24l.7-1.12s.47.59,2.36.54C34,32.79,34,33,34,33.5Z"/><path class="cls-12" d="M15.52,31.07s.17,1.24,2.79.33l.22.94s-.64.68-3.13.47Z"/><path class="cls-13" d="M22.87,15.69c1.43,5.37,14.46,4.19,10.48-.11C33.84,16.26,23.28,17.17,22.87,15.69Z"/><path class="cls-14" d="M10.81,26.58s.25.82,2.58.85l-.33,1.11a5.37,5.37,0,0,1-3.06-.7Z"/><path class="cls-15" d="M22.87,15.69c.16,3.57,13.25,5.15,10.48-.11C33.65,15.54,23.9,16.69,22.87,15.69Z"/><path class="cls-16" d="M18.53,32.34a3.19,3.19,0,0,1-2.84.07s-.62-3,.55-4.41a3.34,3.34,0,0,0,1.91.76C17.77,29.46,18.53,32.34,18.53,32.34Z"/><path class="cls-17" d="M39.84,30.83a19.61,19.61,0,0,0,.49,2.29,3.43,3.43,0,0,1-2.67.55A26.76,26.76,0,0,1,38,28.22a3.72,3.72,0,0,1-2.66.14c-.7.65-1.62,2.43-1.26,5.14,0,0-1,.51-3.12-.24.68-.95,2.1-4.77,2.67-5.21-3.26-.17-4.31-3.67-4.31-3.67-2.21.63-1.44.83-5.79,1.36-.11.21,0,.13-.36.49-1.18-.85-7.79-1.42-10.41-2.36a12.17,12.17,0,0,1,3.54-.6c-.85-.48,1.1-6.33.79-8.1-.71.69-2.64.37-5.86.37,1-.41,6.11.07,7.16-2.24-.75,9.46,6.12,15,14.6,7.87-.62,3,1.51,7.15,5.23,4.22C39.33,26.91,40.76,27,39.84,30.83Z"/><path class="cls-18" d="M34.56,16.43c2.43-.51,4.59,3.87,4,5.24,1.13-3-1.44-6.39-4.49-6C34,15.68,33.92,16,34.56,16.43Z"/><path class="cls-19" d="M18.91,10.09c.36.62,1.57,7.61,4.68,7l-.71-1.19C21.59,15.3,21,12,18.91,10.09Z"/><path class="cls-20" d="M15.81,29.34c-.08-1,2.49-2.39,3.75-3.54C19.22,26.87,17.89,27.23,15.81,29.34Z"/><path class="cls-21" d="M41.75,17.89c2.12,1.7.91,8.83,2.81,11.5a5,5,0,0,1-3,1C43.09,29.61,42.74,20.27,41.75,17.89Z"/><path class="cls-22" d="M16.87,17.76c-1.52,4.72,3.26,1.73,6-2.07l.49.12C23.84,16.24,13.85,28.08,16.87,17.76Z"/><path class="cls-23" d="M14.94,11.59c-.2-.15.8.47,1.13-.24A2.83,2.83,0,0,0,14.94,11.59Z"/><path class="cls-24" d="M14.44,11.75c.54-.22.21-.81,2.33-.64C16,11.35,16.28,11.27,14.44,11.75Z"/><path class="cls-25" d="M17,15.17s.38-.08,1-1a6.23,6.23,0,0,1-1.09,3A15.43,15.43,0,0,0,17,15.17Z"/></g></g></svg>