<svg xmlns="http://www.w3.org/2000/svg" xmlns:xlink="http://www.w3.org/1999/xlink" viewBox="0 0 55 40"><defs><style>.cls-1{isolation:isolate;}.cls-2{fill:#fdde32;}.cls-3{fill:#e2e2e2;}.cls-4{fill:url(#未命名漸層_1431);}.cls-5{fill:#c8bb9b;}.cls-6{fill:url(#未命名漸層_1067);}.cls-7{fill:url(#未命名漸層_1086);}.cls-8{fill:url(#未命名漸層_1463);}.cls-9{fill:url(#鍊踑臇蜸馯鳺艜_132);}.cls-10{fill:url(#鍊踑臇蜸馯鳺艜_132-2);}.cls-11{fill:#c56321;}.cls-12{fill:url(#鍊踑臇蜸馯鳺艜_132-3);}.cls-13,.cls-16,.cls-17,.cls-20,.cls-21{mix-blend-mode:screen;}.cls-13{fill:url(#鍊踑臇蜸馯鳺艜_130);}.cls-14{fill:url(#鍊踑臇蜸馯鳺艜_132-4);}.cls-15{fill:url(#鍊踑臇蜸馯鳺艜_132-5);}.cls-16{fill:url(#鍊踑臇蜸馯鳺艜_130-2);}.cls-17{fill:url(#鍊踑臇蜸馯鳺艜_130-3);}.cls-18{fill:#fbd37a;}.cls-19{fill:url(#鍊踑臇蜸馯鳺艜_136);}.cls-20{fill:url(#鍊踑臇蜸馯鳺艜_130-4);}.cls-21{fill:url(#鍊踑臇蜸馯鳺艜_130-5);}.cls-22{fill:url(#鍊踑臇蜸馯鳺艜_5);}.cls-23{fill:url(#鍊踑臇蜸馯鳺艜_5-2);}.cls-24{fill:url(#鍊踑臇蜸馯鳺艜_5-3);}.cls-25{fill:url(#鍊踑臇蜸馯鳺艜_5-4);}.cls-26{fill:url(#鍊踑臇蜸馯鳺艜_2);}.cls-27{fill:url(#鍊踑臇蜸馯鳺艜_2-2);}.cls-28{fill:url(#鍊踑臇蜸馯鳺艜_2-3);}.cls-29{fill:#e4c3ad;mix-blend-mode:multiply;}.cls-30{fill:url(#未命名漸層_655);}.cls-31{fill:url(#未命名漸層_657);}.cls-32{fill:url(#未命名漸層_664);}.cls-33{fill:url(#鍊踑臇蜸馯鳺艜_5-5);}.cls-34{fill:url(#未命名漸層_666);}.cls-35{fill:url(#未命名漸層_665);}.cls-36{fill:url(#未命名漸層_657-2);}.cls-37{fill:url(#未命名漸層_682);}.cls-38{fill:url(#未命名漸層_681);}.cls-39{fill:url(#未命名漸層_1412);}.cls-40{fill:url(#未命名漸層_1419);}</style><linearGradient id="未命名漸層_1431" x1="270.54" y1="516.1" x2="272.43" y2="516.1" gradientTransform="matrix(1.02, 0.03, 0.03, 1.06, -271.12, -545.06)" gradientUnits="userSpaceOnUse"><stop offset="0.06" stop-color="#515660"/><stop offset="0.22" stop-color="#565b64"/><stop offset="0.41" stop-color="#646870"/><stop offset="0.61" stop-color="#7b7e84"/><stop offset="0.82" stop-color="#9c9c9f"/><stop offset="0.9" stop-color="#aaaaab"/></linearGradient><linearGradient id="未命名漸層_1067" x1="17.87" y1="26.72" x2="37.1" y2="26.72" gradientUnits="userSpaceOnUse"><stop offset="0" stop-color="#eec253"/><stop offset="0.51" stop-color="#cf5e22"/><stop offset="0.59" stop-color="#d06224"/><stop offset="0.67" stop-color="#d26d2b"/><stop offset="0.75" stop-color="#d68037"/><stop offset="0.82" stop-color="#db9b47"/><stop offset="0.9" stop-color="#e2bd5c"/><stop offset="0.97" stop-color="#ebe775"/><stop offset="1" stop-color="#eef87f"/></linearGradient><linearGradient id="未命名漸層_1086" x1="16.13" y1="26.76" x2="39.01" y2="26.76" gradientUnits="userSpaceOnUse"><stop offset="0" stop-color="#fff" stop-opacity="0"/><stop offset="0.44" stop-color="#fff" stop-opacity="0.01"/><stop offset="0.59" stop-color="#fff" stop-opacity="0.03"/><stop offset="0.71" stop-color="#fff" stop-opacity="0.08"/><stop offset="0.8" stop-color="#fff" stop-opacity="0.15"/><stop offset="0.87" stop-color="#fff" stop-opacity="0.23"/><stop offset="0.92" stop-color="#fff" stop-opacity="0.3"/></linearGradient><linearGradient id="未命名漸層_1463" x1="27.53" y1="31.03" x2="27.53" y2="20.27" gradientUnits="userSpaceOnUse"><stop offset="0" stop-color="#a5a5a5"/><stop offset="0.12" stop-color="#9c9d9e"/><stop offset="0.31" stop-color="#85878b"/><stop offset="0.55" stop-color="#60646c"/><stop offset="0.63" stop-color="#515660"/></linearGradient><linearGradient id="鍊踑臇蜸馯鳺艜_132" x1="-23.16" y1="-890.39" x2="-12.76" y2="-890.39" gradientTransform="matrix(1, 0, 0, 0.88, 43.04, 808.54)" gradientUnits="userSpaceOnUse"><stop offset="0.14" stop-color="#fbd88d"/><stop offset="0.97" stop-color="#e6a12c"/></linearGradient><linearGradient id="鍊踑臇蜸馯鳺艜_132-2" x1="-13.09" y1="-884.73" x2="-14.32" y2="-884.73" xlink:href="#鍊踑臇蜸馯鳺艜_132"/><linearGradient id="鍊踑臇蜸馯鳺艜_132-3" x1="-22.88" y1="-884.73" x2="-15.95" y2="-884.73" xlink:href="#鍊踑臇蜸馯鳺艜_132"/><linearGradient id="鍊踑臇蜸馯鳺艜_130" x1="-22.82" y1="-884.83" x2="-16.16" y2="-884.83" gradientTransform="matrix(1, 0, 0, 0.88, 43.04, 808.54)" gradientUnits="userSpaceOnUse"><stop offset="0" stop-color="#d3ba79"/><stop offset="0.1" stop-color="#c8b073"/><stop offset="0.27" stop-color="#ab9762"/><stop offset="0.5" stop-color="#7c6d47"/><stop offset="0.77" stop-color="#3c3422"/><stop offset="1"/></linearGradient><linearGradient id="鍊踑臇蜸馯鳺艜_132-4" x1="-12.24" y1="-891.59" x2="-13.54" y2="-891.59" xlink:href="#鍊踑臇蜸馯鳺艜_132"/><linearGradient id="鍊踑臇蜸馯鳺艜_132-5" x1="-23.7" y1="-893.07" x2="-15.26" y2="-893.07" xlink:href="#鍊踑臇蜸馯鳺艜_132"/><linearGradient id="鍊踑臇蜸馯鳺艜_130-2" x1="-23.65" y1="-893.12" x2="-15.49" y2="-893.12" xlink:href="#鍊踑臇蜸馯鳺艜_130"/><linearGradient id="鍊踑臇蜸馯鳺艜_130-3" x1="-22.16" y1="-885.4" x2="-22.54" y2="-890.07" xlink:href="#鍊踑臇蜸馯鳺艜_130"/><linearGradient id="鍊踑臇蜸馯鳺艜_136" x1="-18.7" y1="-2475.47" x2="-17.2" y2="-2475.47" gradientTransform="matrix(1, 0, 0, 0.74, 39.79, 1833.07)" gradientUnits="userSpaceOnUse"><stop offset="0.21" stop-color="#fbd88d"/><stop offset="0.97" stop-color="#e6a12c"/></linearGradient><linearGradient id="鍊踑臇蜸馯鳺艜_130-4" x1="-18.25" y1="-2473.77" x2="-18.25" y2="-2477.39" gradientTransform="matrix(1, 0, 0, 0.74, 39.79, 1833.07)" xlink:href="#鍊踑臇蜸馯鳺艜_130"/><linearGradient id="鍊踑臇蜸馯鳺艜_130-5" x1="-18.52" y1="-2473.8" x2="-18.52" y2="-2473.04" gradientTransform="matrix(1, 0, 0, 0.74, 39.79, 1833.07)" xlink:href="#鍊踑臇蜸馯鳺艜_130"/><linearGradient id="鍊踑臇蜸馯鳺艜_5" x1="-22.75" y1="-905.31" x2="-13.87" y2="-905.31" gradientTransform="matrix(1, 0, 0, 0.88, 43.04, 808.54)" gradientUnits="userSpaceOnUse"><stop offset="0" stop-color="#ea864d"/><stop offset="0.27" stop-color="#e24f2e"/><stop offset="0.52" stop-color="#d13f3f"/><stop offset="1" stop-color="#a9186a"/></linearGradient><linearGradient id="鍊踑臇蜸馯鳺艜_5-2" x1="-22.75" y1="-905.32" x2="-13.87" y2="-905.32" xlink:href="#鍊踑臇蜸馯鳺艜_5"/><linearGradient id="鍊踑臇蜸馯鳺艜_5-3" x1="-22.75" y1="-905.34" x2="-13.87" y2="-905.34" xlink:href="#鍊踑臇蜸馯鳺艜_5"/><linearGradient id="鍊踑臇蜸馯鳺艜_5-4" x1="-22.75" y1="-905.35" x2="-13.87" y2="-905.35" xlink:href="#鍊踑臇蜸馯鳺艜_5"/><linearGradient id="鍊踑臇蜸馯鳺艜_2" x1="-22.75" y1="-905.31" x2="-13.87" y2="-905.31" gradientTransform="matrix(1, 0, 0, 0.88, 43.04, 808.54)" gradientUnits="userSpaceOnUse"><stop offset="0" stop-color="#f6d697"/><stop offset="0.23" stop-color="#f2d195"/><stop offset="0.51" stop-color="#e8c190"/><stop offset="0.82" stop-color="#d7a889"/><stop offset="1" stop-color="#cb9683"/></linearGradient><linearGradient id="鍊踑臇蜸馯鳺艜_2-2" x1="-22.75" y1="-905.33" x2="-13.87" y2="-905.33" xlink:href="#鍊踑臇蜸馯鳺艜_2"/><linearGradient id="鍊踑臇蜸馯鳺艜_2-3" x1="-22.75" y1="-905.34" x2="-13.87" y2="-905.34" xlink:href="#鍊踑臇蜸馯鳺艜_2"/><linearGradient id="未命名漸層_655" x1="16.69" y1="20.92" x2="22" y2="13.95" gradientUnits="userSpaceOnUse"><stop offset="0" stop-color="#ea864d"/><stop offset="0.29" stop-color="#e24f2e"/><stop offset="0.54" stop-color="#d13f3f"/><stop offset="1" stop-color="#a9186a"/></linearGradient><linearGradient id="未命名漸層_657" x1="19.65" y1="22.61" x2="22.23" y2="14.93" gradientTransform="matrix(1, 0, 0, 1, 0, 0)" xlink:href="#鍊踑臇蜸馯鳺艜_2"/><linearGradient id="未命名漸層_664" x1="23.01" y1="20.85" x2="26.26" y2="14.54" gradientUnits="userSpaceOnUse"><stop offset="0.24" stop-color="#e24f2e"/><stop offset="0.5" stop-color="#d13f3f"/><stop offset="1" stop-color="#a9186a"/></linearGradient><linearGradient id="鍊踑臇蜸馯鳺艜_5-5" x1="33.77" y1="14.15" x2="38.21" y2="21.29" gradientTransform="matrix(1, 0, 0, 1, 0, 0)" xlink:href="#鍊踑臇蜸馯鳺艜_5"/><linearGradient id="未命名漸層_666" x1="37.06" y1="24.9" x2="33.46" y2="17.23" gradientUnits="userSpaceOnUse"><stop offset="0" stop-color="#f6d697"/><stop offset="0.88" stop-color="#cb9683"/></linearGradient><linearGradient id="未命名漸層_665" x1="32.39" y1="23.35" x2="30.38" y2="17.44" gradientUnits="userSpaceOnUse"><stop offset="0.04" stop-color="#e24f2e"/><stop offset="0.37" stop-color="#d13f3f"/><stop offset="1" stop-color="#a9186a"/></linearGradient><linearGradient id="未命名漸層_657-2" x1="27.19" y1="22.65" x2="27.75" y2="13.34" gradientTransform="matrix(1, 0, 0, 1, 0, 0)" xlink:href="#鍊踑臇蜸馯鳺艜_2"/><radialGradient id="未命名漸層_682" cx="27.5" cy="137.66" r="7.76" gradientTransform="translate(0 -122.14) scale(1 1.02)" gradientUnits="userSpaceOnUse"><stop offset="0.01" stop-color="#feecd8"/><stop offset="0.51" stop-color="#fce2c3"/><stop offset="0.69" stop-color="#fce1c0"/><stop offset="0.8" stop-color="#fcddb8"/><stop offset="0.9" stop-color="#fbd6a9"/><stop offset="0.99" stop-color="#facc94"/><stop offset="1" stop-color="#facb92"/></radialGradient><linearGradient id="未命名漸層_681" x1="16.95" y1="18.41" x2="38.08" y2="18.41" gradientUnits="userSpaceOnUse"><stop offset="0" stop-color="#c588ff"/><stop offset="1"/></linearGradient><linearGradient id="未命名漸層_1412" x1="19.4" y1="14.26" x2="36.42" y2="14.26" gradientUnits="userSpaceOnUse"><stop offset="0" stop-color="#a5a5a5"/><stop offset="0.22" stop-color="#eee6dc"/><stop offset="0.25" stop-color="#d0cbc5"/><stop offset="0.3" stop-color="#a3a1a1"/><stop offset="0.36" stop-color="#7f8185"/><stop offset="0.41" stop-color="#666970"/><stop offset="0.45" stop-color="#565b64"/><stop offset="0.49" stop-color="#515660"/><stop offset="0.53" stop-color="#565a64"/><stop offset="0.57" stop-color="#64676f"/><stop offset="0.63" stop-color="#7b7d81"/><stop offset="0.68" stop-color="#9c9b9b"/><stop offset="0.73" stop-color="#c6c1bc"/><stop offset="0.78" stop-color="#eee6dc"/><stop offset="0.83" stop-color="#e9e2d8"/><stop offset="0.88" stop-color="#dbd5ce"/><stop offset="0.94" stop-color="#c4c1bd"/><stop offset="1" stop-color="#a5a5a5"/></linearGradient><linearGradient id="未命名漸層_1419" x1="35.76" y1="10.56" x2="20.55" y2="16.56" gradientUnits="userSpaceOnUse"><stop offset="0" stop-color="#5f557b"/><stop offset="0.14" stop-color="#96909f"/><stop offset="0.34" stop-color="#232539"/><stop offset="0.53" stop-color="#272a3f"/><stop offset="0.79" stop-color="#303651"/><stop offset="1" stop-color="#3b4464"/></linearGradient></defs><title>頁面_Mobile_FAol</title><g class="cls-1"><g id="Menu"><circle class="cls-2" cx="27.5" cy="20" r="13.5"/><path class="cls-3" d="M31.55,10.12h0c-.07.13-.14.26-.22.39l-1.48,2.63-.22.39s0,0,0,0a5.59,5.59,0,0,1,1.79,2.16l2.19-3.1a6.06,6.06,0,0,0-2-2.5Z"/><path class="cls-4" d="M21.07,11.11a7,7,0,0,0-1.2,3h0v0c0-.16-.05-.31-.08-.47-.19-1.08-.39-2.17-.58-3.25,0-.16-.06-.32-.08-.48a0,0,0,0,1,0,0,5.65,5.65,0,0,1,1.07-2.57C20.48,8.55,20.78,9.83,21.07,11.11Z"/><path class="cls-5" d="M34.58,18.5l0-.06a4.56,4.56,0,0,0-1.8-1.71h0l0,0-.05,0a3.5,3.5,0,0,0-1.94-.24h-.1a8.79,8.79,0,0,0-2,.64h0l0,0c-.69.3-1.38.65-2.07.94h0l-.05,0a9.31,9.31,0,0,1-2,.64h-.1a3.41,3.41,0,0,1-1.94-.23h0l0,0,0,0a4.56,4.56,0,0,1-1.8-1.71l0,0,0,0-1.14-6.62,0,.05,0,0a6,6,0,0,0,2.24,2.21l.05,0,0,0h0a4.32,4.32,0,0,0,2.42.37h.11a10.76,10.76,0,0,0,2.53-.73l.06,0h.06c.85-.35,1.71-.75,2.56-1.1l.06,0,0,0h0A10.9,10.9,0,0,1,32,10.16h.12a4.35,4.35,0,0,1,2.42.37l0,0,0,0h0a6,6,0,0,1,2.24,2.21.35.35,0,0,1,0,.08C36.14,14.75,35.36,16.62,34.58,18.5Z"/><path class="cls-6" d="M37.05,18.12a.3.3,0,0,0-.17-.08L18.08,18a.21.21,0,0,0-.16.08.23.23,0,0,0-.05.18l2.14,16h0a.19.19,0,0,0,0,.08c0,.62,3.33,1.12,7.43,1.12s7.33-.49,7.42-1.1c0,0,0,0,0-.06l2.24-16A.29.29,0,0,0,37.05,18.12Z"/><path class="cls-7" d="M37.05,18.16a.3.3,0,0,0-.17-.08L18.08,18a.21.21,0,0,0-.16.08.23.23,0,0,0-.05.18l2.14,16h0a.19.19,0,0,0,0,.08c0,.62,3.33,1.12,7.43,1.12s7.33-.49,7.42-1.1c0,0,0,0,0-.06l2.24-16A.29.29,0,0,0,37.05,18.16Z"/><path class="cls-8" d="M22.87,25.91l.7,5,7.74,0,.89-5a4.41,4.41,0,0,0-4.74-3.83C23.1,22.15,22.87,25.91,22.87,25.91Z"/><path class="cls-9" d="M31.31,30.7h-.38s2.88-8-3.07-8h-.73c-5.71,0-3.12,8-3.12,8h-.88l-.84-5c0-6.09,10.41-6.06,10.4,0l-.88,4.95Z"/><path class="cls-10" d="M32,30.7c.28,0,.26.27.12.42H31.3a.61.61,0,0,0,0-.42H32Z"/><path class="cls-11" d="M31.3,31.12h.78a.31.31,0,0,1-.22.12h-.14l-8.47,0h-.44a.21.21,0,0,1-.17-.12l6.76,0Z"/><path class="cls-11" d="M31.31,30.7a.61.61,0,0,1,0,.42H29.4a.77.77,0,0,0,.07-.42h1.84Z"/><path class="cls-12" d="M29.47,30.69a.77.77,0,0,1-.07.42l-6.76,0c-.11-.16-.14-.42.06-.42H24Z"/><polygon class="cls-13" points="22.68 30.7 29.27 30.73 29.2 30.9 22.61 30.88 22.68 30.7"/><path class="cls-14" d="M33.11,25.83c0,.65-.26.55-.41.24h0a5,5,0,0,0-.7-2.45.83.83,0,0,0,.4-.16,5.3,5.3,0,0,1,.69,2.14A1.79,1.79,0,0,0,33.11,25.83Z"/><path class="cls-11" d="M32,23.62a5,5,0,0,1,.7,2.45h0a1,1,0,0,1-.12-.41,2.51,2.51,0,0,0,0-.27c-.84-5.29-9-5.42-10.16-.34a5.27,5.27,0,0,0-.11.71.66.66,0,0,1-.08.26c.18-4.27,4.74-5.68,7.8-4.2A4.77,4.77,0,0,1,32,23.62Z"/><path class="cls-11" d="M32.4,23.46a.83.83,0,0,1-.4.16,4.77,4.77,0,0,0-2-1.8.68.68,0,0,0,.22-.36A5.14,5.14,0,0,1,32.4,23.46Z"/><path class="cls-15" d="M30.21,21.46a.68.68,0,0,1-.22.36c-3.06-1.48-7.62-.07-7.8,4.2-.14.28-.46.43-.44-.08a2.43,2.43,0,0,1,0-.38,5.06,5.06,0,0,1,3.15-4.23,6.5,6.5,0,0,1,5,0Z"/><path class="cls-16" d="M21.8,26c.2-4.5,4.91-6,8.17-4.58l-.09.18c-3.18-1.4-7.77.11-7.87,4.55Z"/><path class="cls-17" d="M22.57,26.21l.73,4.46h.35a22.62,22.62,0,0,1-.45-4.42Z"/><path class="cls-18" d="M28.45,7.44a.62.62,0,0,1,0,.4h-.18a1.34,1.34,0,0,0,0-.4h.21Z"/><path class="cls-11" d="M28.24,7.44H26.86l.85-.12c-.09-.79-.12-1.57-.14-2.49l-.19,0a.31.31,0,0,0,0-.1h.35v.1l0,0A9.35,9.35,0,0,0,28,7.32l.29.08v0Z"/><path class="cls-11" d="M28.24,7.44a1.34,1.34,0,0,1,0,.4H28a.68.68,0,0,0,0-.4Z"/><path class="cls-18" d="M28,7.44a.68.68,0,0,1,0,.4H26.6a.66.66,0,0,1,0-.41H28Z"/><path class="cls-11" d="M27.83,4.5c.06.06,0,.13,0,.21h-.14a.2.2,0,0,0,0-.2h.14Z"/><path class="cls-19" d="M28.28,7.4,28,7.32a9.35,9.35,0,0,1-.3-2.49l0,0A5.84,5.84,0,0,0,28.28,7.4Zm-.71-2.58-.19,0a6.11,6.11,0,0,1-.6,2.63h.08l.85-.12C27.62,6.52,27.59,5.74,27.57,4.82Z"/><path class="cls-18" d="M27.69,4.5a.2.2,0,0,1,0,.2h-.36c-.08-.07-.09-.13,0-.2h.4Z"/><path class="cls-20" d="M27.43,4.89a6.71,6.71,0,0,1-.5,2.39,1.18,1.18,0,0,0,.46,0,11.61,11.61,0,0,0,.13-2.36Z"/><path class="cls-21" d="M26.64,7.43a.58.58,0,0,0,0,.32h.58l0-.32Z"/><path class="cls-22" d="M37.85,17.82l-2.63,0C32,16,29.65,12.59,28,7.84h.27C30.45,12.6,33.6,16,37.85,17.82Z"/><path class="cls-23" d="M32.11,17.78l-3.1,0c-.75-1.92-1.18-5.21-1.43-9.92h.22C28.74,12.57,30.14,15.9,32.11,17.78Z"/><path class="cls-24" d="M27.13,7.84h.22a73.42,73.42,0,0,1-1.45,9.89h0l-3.12,0h0C24.5,15.7,26,12.51,27.13,7.84Z"/><path class="cls-25" d="M26.81,7.84h.09c-1.81,4.65-4.28,7.79-7.23,9.84h0l-2.43,0A22.17,22.17,0,0,0,26.81,7.84Z"/><path class="cls-26" d="M35.22,17.8l-3.11,0c-2-1.88-3.37-5.21-4.31-9.94H28C29.65,12.59,32,16,35.22,17.8Z"/><path class="cls-27" d="M29,17.76l-3.11,0h0a73.42,73.42,0,0,0,1.45-9.89h.23C27.83,12.55,28.26,15.84,29,17.76Z"/><path class="cls-28" d="M26.9,7.84h.23C26,12.51,24.5,15.7,22.78,17.71h0l-3.11,0h0C22.62,15.63,25.09,12.49,26.9,7.84Z"/><path class="cls-29" d="M26.64,8.15c.37,0,.73.08,1.09.14a16,16,0,0,0,3.64,9.48h.74l3.11,0h.46a15.43,15.43,0,0,1-7.34-9.47l.15-.08c-.07-.14-.13-.27-.19-.41H26.81Z"/><path class="cls-30" d="M17.56,21.3a3.48,3.48,0,0,0,.88-.78,4.76,4.76,0,0,0,1-2.09H17.13C17.32,19.36,17.47,20.48,17.56,21.3Z"/><path class="cls-31" d="M20,20a4,4,0,0,0,.81,1.32,7.3,7.3,0,0,0,1.34-2c.14-.29.28-.58.4-.85h-3A8.38,8.38,0,0,0,20,20Z"/><path class="cls-32" d="M24.06,21.32a1.72,1.72,0,0,0,.35-.36,15.83,15.83,0,0,0,1.36-2.53H22.69A6.71,6.71,0,0,0,24.06,21.32Z"/><path class="cls-33" d="M35.92,19.89a6.39,6.39,0,0,0,1.38,1.82,26,26,0,0,1,.6-3.28H35.47A7.61,7.61,0,0,0,35.92,19.89Z"/><path class="cls-34" d="M33.83,20.91a2.62,2.62,0,0,0,.63.45,21,21,0,0,0,1.26-2.93H32.38A6.41,6.41,0,0,0,33.83,20.91Z"/><path class="cls-35" d="M29.4,18.61A7.59,7.59,0,0,0,31,21.34a5.2,5.2,0,0,0,.57-1.18c.21-.59.4-1.24.57-1.73h-2.8C29.34,18.49,29.37,18.54,29.4,18.61Z"/><path class="cls-36" d="M26.67,20.45a3.07,3.07,0,0,0,.6.88A6.2,6.2,0,0,0,29,18.43H25.89A16.26,16.26,0,0,0,26.67,20.45Z"/><path class="cls-37" d="M38.45,17.7H30.81L22,17.65l-1.87,0c-.95,0-1.9,0-2.84-.06h-.68a.66.66,0,0,0,.2.66H17l16,.06h5.37A.68.68,0,0,0,38.45,17.7Z"/><path class="cls-38" d="M36.94,18.27h1.14c-.06.1-.06.25-.11.35h0l-3-.06H17c0-.1-.05-.2-.08-.3l16.27.06Z"/><path class="cls-39" d="M22,17a4.84,4.84,0,0,1-1.89-1.81.1.1,0,0,1,0,0c0-.15-.05-.29-.08-.44-.17-1-.34-2-.52-3,0-.14,0-.29-.07-.44v0h0a6,6,0,0,0,2.16,2.11C21.7,14.6,21.84,15.82,22,17ZM33,15.21c.38-1.24.75-2.47,1.13-3.7a4,4,0,0,0-2.33-.35h0v0c0,.14-.07.28-.1.42-.21,1-.43,1.93-.64,2.89l-.09.43s0,0,0,0A3.86,3.86,0,0,1,33,15.21Zm-3.75-3.33h0v0l-.06.41c-.14,1-.27,1.91-.41,2.86l-.05.42s0,0,0,0A10.62,10.62,0,0,1,30.87,15c.28-1.26.55-2.52.83-3.78A9.54,9.54,0,0,0,29.27,11.88Zm5-.32h0v0c0,.14-.09.27-.13.41l-.87,2.83c0,.14-.08.27-.13.41v0A5.29,5.29,0,0,1,35,17.07c.46-1.13.93-2.26,1.4-3.4A5.72,5.72,0,0,0,34.26,11.56ZM21.67,13.43h0v0c0,.13,0,.27,0,.41.1.93.21,1.86.31,2.79,0,.14,0,.28.05.41v0a3.53,3.53,0,0,0,2.05.26L24,13.77A4.27,4.27,0,0,1,21.67,13.43Zm5-.43h0v0l0,.41c-.05.92-.1,1.85-.16,2.77,0,.14,0,.27,0,.41s0,0,0,0c.71-.3,1.45-.66,2.16-1l.51-3.73C28.33,12.26,27.49,12.65,26.68,13Zm-2.56.76h0v0c0,.13,0,.27,0,.4,0,.91.06,1.82.08,2.73,0,.14,0,.27,0,.41h0a8.21,8.21,0,0,0,2.14-.66c.06-1.2.13-2.41.19-3.62A11.49,11.49,0,0,1,24.12,13.76Z"/><path class="cls-40" d="M34.63,10.34h-.06l0,0a4.28,4.28,0,0,0-2.43-.37H32a11,11,0,0,0-2.54.73h-.06l-.06,0c-.85.34-1.72.75-2.57,1.1h0l0,0-.06,0a10.07,10.07,0,0,1-2.54.73H24a4.37,4.37,0,0,1-2.43-.38h0l0,0-.06,0A6.12,6.12,0,0,1,19.17,10l0,0,0,0,1.14,6.61,0,.05h0a4.68,4.68,0,0,0,1.81,1.72l.05,0h0a3.56,3.56,0,0,0,2,.24h.09a8.76,8.76,0,0,0,2-.65l.05,0h.05c.69-.3,1.38-.64,2.07-.94l.05,0h0a9.34,9.34,0,0,1,2.05-.65h.09a3.57,3.57,0,0,1,2,.24l0,0h0a4.68,4.68,0,0,1,1.81,1.72.21.21,0,0,1,0,.06q1.19-2.82,2.35-5.63l0-.08A6.2,6.2,0,0,0,34.63,10.34Zm1.22,2.18c0-.13.11-.31.17-.44h0a1,1,0,0,1,.13.16s0,0,0,0,0,0,0,0h0c0,.14-.12.32-.17.44h0s0,0,0,0h0a1,1,0,0,1-.13-.16h0s0,0,0,0Zm-.45-.47a4.19,4.19,0,0,1,.16-.46h0a.8.8,0,0,1,.13.13h0a0,0,0,0,1,0,0v0a3.43,3.43,0,0,1-.16.45h0s0,0,0,0h0l-.13-.13h0s0,0,0,0Zm-.47-.39c0-.15.1-.33.15-.46h0s0,0,0,0h0a.67.67,0,0,1,.14.11h0s0,0,0,0h0c0,.14-.1.32-.15.46a0,0,0,0,1,0,0h0l-.14-.1h0s0,0,0,0Zm-.47-.31a3.5,3.5,0,0,1,.14-.46v0h0a.34.34,0,0,1,.14.08h0s0,0,0,0v0c0,.14-.1.33-.15.46a0,0,0,0,1,0,0s0,0,0,0h0a.5.5,0,0,1-.14-.08h0s0,0,0,0ZM34,11.13c0-.14.09-.33.14-.47h0s0,0,0,0h0a.28.28,0,0,1,.14.06h0s0,0,0,0v0l-.14.46v0s0,0,0,0h0a.29.29,0,0,1-.14-.05s0,0,0,0,0,0,0,0ZM33.5,11l.13-.47h0s0,0,0,0h0a.37.37,0,0,1,.15,0h0s0,0,0,0,0,0,0,0-.09.33-.13.47h0s0,0,0,0h0a.35.35,0,0,1-.14,0h0s0,0,0,0ZM33,10.88c0-.14.08-.33.12-.47s0,0,0,0v0h0a.22.22,0,0,1,.14,0h0s0,0,0,0,0,0,0,0-.08.33-.12.47v0s0,0,0,0h0a.25.25,0,0,1-.15,0h0s0,0,0,0S33,10.88,33,10.88Zm-.51,0c0-.15.08-.34.12-.48h0s0,0,0,0h0a.26.26,0,0,1,.15,0h0s0,0,0,0v0c0,.14-.08.33-.12.47h0s0,0,0,0h-.15s0,0,0,0Zm-.5,0c0-.15.07-.33.11-.48h0s0,0,0,0h0a.39.39,0,0,1,.15,0h0s0,0,0,0,0,0,0,0a4,4,0,0,1-.11.47v0s0,0,0,0H32s0,0,0,0Zm-.49.06a3.94,3.94,0,0,1,.1-.47v0l0,0h0l.15,0h0s0,0,0,0,0,0,0,0a3.94,3.94,0,0,1-.1.47v0l0,0h0l-.14,0h0s0,0,0,0S31.51,10.94,31.51,10.93ZM31,11c0-.14.06-.33.09-.47v0a0,0,0,0,1,0,0h0l.15,0h0s0,0,0,0,0,0,0,0-.06.34-.09.48h0a0,0,0,0,1,0,0h0a.42.42,0,0,1-.15,0h0s0,0,0,0Zm-.52.15c0-.14.06-.33.09-.48h0s0,0,0,0h0a.33.33,0,0,1,.16-.05h0s0,0,0,0v0c0,.14-.06.33-.09.47v0s0,0,0,0h0a.42.42,0,0,1-.15,0h0s0,0,0,0Zm-.52.17c0-.14.05-.33.08-.47h0s0,0,0,0h0a.49.49,0,0,1,.16-.05h0s0,0,0,0h0c0,.14,0,.33-.08.48h0s0,0,0,0h0a.47.47,0,0,1-.15.06h0Zm-.52.2a3.81,3.81,0,0,1,.07-.47h0s0,0,0,0h0l.15-.06h0s0,0,0,0v0c0,.13-.05.32-.07.47h0s0,0,0,0h0a.32.32,0,0,1-.15.06h0s0,0,0,0S29.43,11.57,29.43,11.56Zm-.51.21c0-.14,0-.33.06-.47s0,0,0,0,0,0,0,0h0a.32.32,0,0,1,.15-.06h0s0,0,0,0h0a3.78,3.78,0,0,1-.06.47h0s0,0,0,0h0l-.15.06h0s0,0,0,0Zm-.53.22a3.87,3.87,0,0,1,.06-.46v0l0,0h0l.15-.07h0s0,0,0,0h0a3.78,3.78,0,0,1-.06.47h0s0,0,0,0h0a.32.32,0,0,1-.15.06h0s0,0,0,0Zm-.48-.23h0s0,0,0,0h0a.43.43,0,0,1,.16-.07h0s0,0,0,0h0a3.73,3.73,0,0,1,0,.46v0s0,0,0,0h0a.51.51,0,0,1-.15.07h0s0,0,0,0h0A3.73,3.73,0,0,1,27.91,11.76Zm-.53.24v0s0,0,0,0,0,0,0,0a.51.51,0,0,1,.15-.07h0s0,0,0,0h0c0,.14,0,.32,0,.46v0l0,0h0l-.15.07h0s0,0,0,0h0A3.57,3.57,0,0,1,27.38,12Zm-.54.22h0s0,0,0,0h0a.56.56,0,0,1,.16-.07h0s0,0,0,0h0c0,.14,0,.32,0,.46h0s0,0,0,0,0,0,0,0a.47.47,0,0,1-.15.06h0s0,0,0,0h0C26.82,12.54,26.83,12.36,26.84,12.22Zm-.51.21v0l0,0h0l.15-.06h0s0,0,0,0h0c0,.14,0,.32,0,.46h0s0,0,0,0h0a.49.49,0,0,1-.16.05h0s0,0,0,0h0C26.31,12.75,26.32,12.57,26.33,12.43Zm-.53.19h0s0,0,0,0h0a.47.47,0,0,1,.15-.06h0s0,0,0,0h0c0,.14,0,.32,0,.46h0s0,0,0,0h0a.47.47,0,0,1-.15.06h0s0,0,0,0h0C25.78,12.94,25.79,12.76,25.8,12.62Zm-.53.17h0s0,0,0,0h0l.15-.05h0s0,0,0,0h0c0,.14,0,.32,0,.46h0s0,0,0,0h0l-.15,0h0s0,0,0,0v0C25.26,13.11,25.26,12.93,25.27,12.79Zm-.53.14h0s0,0,0,0h0a.42.42,0,0,1,.15,0h0a3.53,3.53,0,0,1,0,.46h0v0a0,0,0,0,1,0,0,.37.37,0,0,1-.15,0h0s0,0,0,0h0Zm-.52.1h0s0,0,0,0h0a.4.4,0,0,1,.15,0h0s0,0,0,0h0c0,.13,0,.31,0,.45s0,0,0,0,0,0,0,0h0a.26.26,0,0,1-.15,0h0s0,0,0,0h0C24.22,13.35,24.22,13.17,24.22,13Zm-.5,0s0,0,0,0h0a.36.36,0,0,1,.15,0h0s0,0,0,0h0c0,.13,0,.31,0,.45h0s0,0,0,0h0a.39.39,0,0,1-.15,0h0l0,0h0c0-.14,0-.32,0-.46Zm-.51,0s0,0,0,0h.15l0,0v0c0,.13,0,.31,0,.45h0s0,0,0,0h-.15s0,0,0,0v0c0-.13,0-.31,0-.45ZM22.7,13s0,0,0,0h0a.23.23,0,0,1,.14,0h0a0,0,0,0,1,0,0v0a3.29,3.29,0,0,1,0,.45s0,0,0,0,0,0,0,0h0l-.14,0h0s0,0,0,0h0c0-.14,0-.32,0-.46Zm-.5-.11s0,0,0,0h0a.42.42,0,0,1,.15,0h0s0,0,0,0h0c0,.14,0,.32,0,.45v0s0,0,0,0h0a.37.37,0,0,1-.14,0h0s0,0,0,0h0c0-.14,0-.32,0-.46Zm-.49-.18s0,0,0,0,0,0,0,0l.14.06h0a0,0,0,0,1,0,0v0c0,.14,0,.32.05.46h0l-.14-.06h0s0,0,0,0v0c0-.14,0-.32-.05-.46Zm-.47-.24s0,0,0,0,0,0,0,0l.14.08h0l0,0v0c0,.14,0,.33.05.46h0s0,0,0,0h0a.34.34,0,0,1-.14-.08h0l0,0v0c0-.14,0-.32-.06-.46Zm-.48-.33s0,0,0,0h0l.13.11h0a0,0,0,0,1,0,0v0c0,.14,0,.33.06.47h0s0,0,0,0h0a.41.41,0,0,1-.14-.1h0s0,0,0,0h0c0-.15-.05-.33-.07-.47Zm-.48-.42s0,0,0,0h0a.55.55,0,0,1,.14.13h0s0,0,0,0h0a4.28,4.28,0,0,1,.07.48h0a.53.53,0,0,1-.13-.13h0a0,0,0,0,1,0,0h0c0-.15-.05-.34-.07-.48Zm-.45-.52h0a1,1,0,0,1,.13.15h0s0,0,0,0h0l.07.49h0a1.26,1.26,0,0,1-.13-.16h0s0,0,0,0v0c0-.15-.06-.34-.08-.48h0S19.82,11.22,19.83,11.23Zm-.45-.61h0l.13.18v0s0,0,0,0v0c0,.15.06.35.08.49h0s0,0,0,0h0a1.4,1.4,0,0,1-.12-.18h0s0,0,0,0v0c0-.15-.06-.35-.08-.49h0S19.37,10.61,19.38,10.62Zm1.06,5.8h0a1.18,1.18,0,0,1-.11-.15h0s0,0,0,0v0c0-.15-.06-.35-.08-.5h0s0,0,0,0h0s.07.1.11.16h0a0,0,0,0,1,0,0v0c0,.15.06.35.08.49h0S20.45,16.43,20.44,16.42Zm-.36-1.19a.1.1,0,0,1,0,0c0-.15-.05-.29-.08-.44-.17-1-.34-2-.52-3,0-.14,0-.29-.07-.44v0h0a6,6,0,0,0,2.16,2.11c.14,1.22.28,2.44.41,3.66A4.84,4.84,0,0,1,20.08,15.23Zm.74,1.66h0a.5.5,0,0,1-.11-.13h0s0,0,0,0h0c0-.15-.06-.35-.08-.49h0s0,0,0,0h0a.5.5,0,0,1,.11.13h0s0,0,0,0h0c0,.15.06.35.08.49h0S20.83,16.9,20.82,16.89Zm.39.38s0,0,0,0l-.11-.11h0a0,0,0,0,1,0,0v0c0-.15-.05-.34-.07-.48h0s0,0,0,0h0l.12.1h0s0,0,0,0v0c0,.14.05.33.06.47s0,0,0,0S21.21,17.28,21.21,17.27Zm.4.3s0,0,0,0h0l-.12-.08h0s0,0,0,0h0c0-.15,0-.33-.06-.47h0s0,0,0,0h0a.62.62,0,0,1,.12.08h0s0,0,0,0h0c0,.15,0,.33.06.47Zm.4.24s0,0,0,0h0a.27.27,0,0,1-.12-.06h0s0,0,0,0v0c0-.14,0-.33-.05-.46h0s0,0,0,0h0l.12.06h0s0,0,0,0v0c0,.14,0,.32.05.46Zm.39.17s0,0,0,0h0a.34.34,0,0,1-.12,0h0s0,0,0,0v0c0-.14,0-.32-.05-.46h0s0,0,0,0h0a.38.38,0,0,1,.12,0h0s0,0,0,0h0c0,.14,0,.32,0,.46Zm.41.12s0,0,0,0h0l-.12,0h0s0,0,0,0h0c0-.14,0-.32,0-.46h0s0,0,0,0,0,0,0,0l.12,0h0s0,0,0,0h0c0,.14,0,.32,0,.46S22.82,18.1,22.81,18.1Zm.42.06s0,0,0,0h0a.17.17,0,0,1-.12,0h0s0,0,0,0h0c0-.14,0-.32,0-.45h0s0,0,0,0h0a.25.25,0,0,1,.12,0h0v0a3.29,3.29,0,0,1,0,.45Zm.42,0s0,0,0,0h0a.24.24,0,0,1-.12,0h0s0,0,0,0h0c0-.14,0-.31,0-.45h0s0,0,0,0h0a.28.28,0,0,1,.13,0h0s0,0,0,0h0c0,.13,0,.31,0,.45S23.66,18.17,23.65,18.17Zm.43,0s0,0,0,0h0a.25.25,0,0,1-.12,0h0s0,0,0,0v0c0-.13,0-.31,0-.45h0s0,0,0,0,0,0,0,0h.12s0,0,0,0v0c0,.13,0,.31,0,.45S24.08,18.14,24.08,18.14Zm-2-1.05v0c0-.13,0-.27-.05-.41-.1-.93-.21-1.86-.31-2.79,0-.14,0-.28,0-.41v0h0a4.27,4.27,0,0,0,2.33.34l.12,3.58A3.53,3.53,0,0,1,22.07,17.09Zm2.43,1h0s0,0,0,0h0a.2.2,0,0,1-.13,0h0s0,0,0,0h0c0-.14,0-.32,0-.45s0,0,0,0,0,0,0,0h0a.28.28,0,0,1,.13,0h0s0,0,0,0v0C24.5,17.74,24.5,17.92,24.5,18.06Zm.44-.11s0,0,0,0,0,0,0,0h0a.33.33,0,0,1-.13,0h0s0,0,0,0v0c0-.13,0-.31,0-.45h0s0,0,0,0h0a.31.31,0,0,1,.13,0h0s0,0,0,0h0Zm.43-.13h0s0,0,0,0h0a.33.33,0,0,1-.13,0h0s0,0,0,0h0c0-.14,0-.32,0-.45v0h0a.28.28,0,0,1,.12,0h0s0,0,0,0h0C25.38,17.5,25.38,17.68,25.37,17.82Zm.44-.16h0s0,0,0,0h0a.24.24,0,0,1-.13.05h0s0,0,0,0h0c0-.14,0-.32,0-.46h0s0,0,0,0h0a.43.43,0,0,1,.13,0h0s0,0,0,0h0C25.83,17.34,25.82,17.52,25.81,17.66Zm.45-.18h0s0,0,0,0h0a.38.38,0,0,1-.13.06h0s0,0,0,0h0c0-.14,0-.32,0-.46h0s0,0,0,0h0a.49.49,0,0,1,.13-.06h0s0,0,0,0h0C26.28,17.16,26.27,17.34,26.26,17.48Zm.1-.81a8.21,8.21,0,0,1-2.14.66h0c0-.14,0-.27,0-.41,0-.91-.05-1.82-.08-2.73,0-.13,0-.27,0-.4v0h0a11.49,11.49,0,0,0,2.43-.71C26.49,14.26,26.42,15.47,26.36,16.67Zm.32.62v0a0,0,0,0,1,0,0s0,0,0,0a.34.34,0,0,1-.12.06h0s0,0,0,0h0c0-.14,0-.32,0-.46v0a0,0,0,0,1,0,0h0l.13-.06h0s0,0,0,0h0A3.55,3.55,0,0,1,26.68,17.29Zm.49-.66c0,.14,0,.32,0,.46s0,0,0,0,0,0,0,0h0a.38.38,0,0,1-.13.06h0s0,0,0,0h0c0-.14,0-.32,0-.46s0,0,0,0,0,0,0,0h0a.49.49,0,0,1,.13-.06h0s0,0,0,0Zm.45-.21c0,.14,0,.33-.05.47h0s0,0,0,0h0a.25.25,0,0,1-.13.06h0s0,0,0,0h0c0-.14,0-.32.05-.46v0a0,0,0,0,1,0,0,0,0,0,0,1,0,0,.31.31,0,0,1,.13-.06h0s0,0,0,0Zm.45-.2c0,.14,0,.32-.05.46s0,0,0,0,0,0,0,0h0a.49.49,0,0,1-.13.06h0s0,0,0,0,0,0,0,0,0-.33.05-.47h0s0,0,0,0h0a.25.25,0,0,1,.13-.06h0s0,0,0,0Zm.45-.2a4,4,0,0,1-.06.47h0s0,0,0,0h0a.38.38,0,0,1-.13.06h0s0,0,0,0h0c0-.14,0-.33.06-.47s0,0,0,0,0,0,0,0h0l.13-.06h0s0,0,0,0Zm-2.05.61s0,0,0,0,0-.27,0-.41c.06-.92.11-1.85.16-2.77l0-.41v0h0c.81-.35,1.65-.74,2.46-1.07l-.51,3.73C27.92,16,27.18,16.33,26.47,16.63ZM29,15.84c0,.13-.05.32-.07.47a0,0,0,0,1,0,0s0,0,0,0h0a.49.49,0,0,1-.13.06h0s0,0,0,0v0a4.11,4.11,0,0,1,.07-.47h0s0,0,0,0h0A.38.38,0,0,1,29,15.8h0s0,0,0,0Zm.45-.18c0,.14-.05.33-.08.48h0s0,0,0,0h0a.27.27,0,0,1-.13.05h0s0,0,0,0h0c0-.14,0-.33.08-.48h0s0,0,0,0h0a.24.24,0,0,1,.13,0h0s0,0,0,0Zm.45-.15c0,.15-.06.33-.09.48h0s0,0,0,0h0l-.13,0h0s0,0,0,0h0c0-.14.05-.33.08-.47v0s0,0,0,0h0a.33.33,0,0,1,.13,0h0s0,0,0,0Zm.44-.12c0,.14-.06.33-.09.48a0,0,0,0,0,0,0s0,0,0,0h0l-.12,0h0s0,0,0,0,0,0,0,0,.06-.33.09-.48h0s0,0,0,0h0a.22.22,0,0,1,.13,0h0s0,0,0,0Zm.44-.09c0,.14-.07.33-.1.48h0s0,0,0,0h0a.17.17,0,0,1-.12,0h0s0,0,0,0h0l.1-.48h0a0,0,0,0,1,0,0h0l.12,0h0s0,0,0,0Zm-2,.31s0,0,0,0l.05-.42c.14-.95.27-1.9.41-2.86l.06-.41v0h0a9.54,9.54,0,0,1,2.43-.71c-.28,1.26-.55,2.52-.83,3.78A10.62,10.62,0,0,0,28.74,15.61Zm2.42-.36c0,.14-.07.33-.11.48h0l0,0h0a.29.29,0,0,1-.13,0h0s0,0,0,0,0,0,0,0,.07-.33.11-.48h0s0,0,0,0h0a.29.29,0,0,1,.13,0h0s0,0,0,0S31.16,15.24,31.16,15.25ZM31,14.94s0,0,0,0l.09-.43c.21-1,.43-1.92.64-2.89,0-.14.07-.28.1-.42v0h0a4,4,0,0,1,2.33.35c-.38,1.23-.75,2.46-1.13,3.7A3.86,3.86,0,0,0,31,14.94Zm.62.3c0,.14-.08.33-.12.47s0,0,0,0h-.14s0,0,0,0v0c0-.14.07-.33.11-.47s0,0,0,0v0h0a.17.17,0,0,1,.12,0h0s0,0,0,0Zm.43,0-.13.48h0s0,0,0,0h0a.25.25,0,0,1-.12,0h0s0,0,0,0,0,0,0,0,.08-.33.12-.48h0s0,0,0,0h0a.24.24,0,0,1,.12,0h0s0,0,0,0Zm.42.09-.13.48h0s0,0,0,0h0a.24.24,0,0,1-.12,0h0s0,0,0,0h0a4.27,4.27,0,0,1,.13-.48h0l0,0h0a.24.24,0,0,1,.12,0h0s0,0,0,0Zm.42.15-.14.47h0s0,0,0,0h0a.18.18,0,0,1-.12-.05h0s0,0,0,0h0c0-.14.09-.33.14-.47h0s0,0,0,0h0a.18.18,0,0,1,.12.05h0s0,0,0,0Zm.39.21c0,.14-.09.32-.14.46h0s0,0,0,0h0a.29.29,0,0,1-.12-.07h0s0,0,0,0h0c0-.15.1-.33.15-.47h0s0,0,0,0h0a.29.29,0,0,1,.12.07h0s0,0,0,0Zm.41.27a3.11,3.11,0,0,1-.16.46h0s0,0,0,0h0a.34.34,0,0,1-.12-.09h0a0,0,0,0,1,0,0v0c0-.14.1-.32.15-.45a0,0,0,0,0,0,0h0a.32.32,0,0,1,.12.08h0s0,0,0,0Zm.4.36-.16.44h0s0,0,0,0h0a.29.29,0,0,1-.11-.11h0s0,0,0,0v0c.05-.14.11-.32.16-.45h0s0,0,0,0h0a.31.31,0,0,1,.12.11h0s0,0,0,0Zm.39.43-.17.44a0,0,0,0,1,0,0h0l-.11-.13h0s0,0,0,0v0c.05-.13.11-.31.17-.44h0s0,0,0,0,0,0,0,0l.11.13h0s0,0,0,0Zm.38.5h0a4.27,4.27,0,0,1-.18.43h0s0,0,0,0h0a.42.42,0,0,1-.11-.15h0a0,0,0,0,1,0,0s0,0,0,0,.12-.31.17-.43a0,0,0,0,1,0,0s0,0,0,0h0a.5.5,0,0,1,.11.16h0S34.85,17.26,34.84,17.28Zm.18-.21a5.29,5.29,0,0,0-1.9-1.82v0c.05-.14.09-.27.13-.41L34.12,12c0-.14.09-.27.13-.41v0h0a5.72,5.72,0,0,1,2.16,2.11C36,14.81,35.48,15.94,35,17.07Zm1.62-4.16c0,.13-.12.3-.18.43h0s0,0,0,0h0l-.13-.19h0a0,0,0,0,1,0,0v0c.05-.14.12-.31.17-.43h0s0,0,0,0h0a.81.81,0,0,1,.12.18s0,0,0,0,0,0,0,0Z"/></g></g></svg>