<svg xmlns="http://www.w3.org/2000/svg" viewBox="0 0 42 35.37"><defs><style>.cls-1{fill:#fffbe1;}.cls-2{fill:#f15a24;}.cls-3{fill:#e95513;}</style></defs><title>頁面_FAol_1108</title><g id="頁面內容"><path class="cls-1" d="M41,25v6.46a2.78,2.78,0,0,1-1.75,2.78,2.12,2.12,0,0,1-.75.14H31.34c-.32.06-.65,0-1,0H30c-3.71,0-7.42,0-11.14,0H5.31a13,13,0,0,1-2.07-.08A2.84,2.84,0,0,1,1,31.58q0-10,0-20V3.85a2.53,2.53,0,0,1,.35-1.41A2.77,2.77,0,0,1,3.75,1C5.53,1,7.32,1,9.1,1l.67,0H36.92c.53,0,1.06,0,1.59,0a2.48,2.48,0,0,1,2.42,2.25c.13,1.87,0,3.74,0,5.61Q41,16.92,41,25Z"/><path class="cls-2" d="M31.08,35.37l-.36,0H5.31c-.32,0-.56,0-.79,0A5.46,5.46,0,0,1,3,35.24a3.85,3.85,0,0,1-3-3.66Q0,24.19,0,16.8V3.85A3.62,3.62,0,0,1,.5,1.91,3.77,3.77,0,0,1,3.73,0C5,0,6.2,0,7.43,0h30c.39,0,.78,0,1.16,0A3.47,3.47,0,0,1,41.93,3.2c.09,1.35.07,2.71.06,4,0,.55,0,1.1,0,1.65q0,5.87,0,11.74V31.42a3.78,3.78,0,0,1-2.38,3.71,3.87,3.87,0,0,1-1.4.21H31.42A2,2,0,0,1,31.08,35.37Zm-.57-2,.36,0a1.33,1.33,0,0,0,.27,0l.1,0h7.24a1,1,0,0,0,.38-.07A1.8,1.8,0,0,0,40,31.42V20.61q0-5.86,0-11.73c0-.56,0-1.13,0-1.69,0-1.27,0-2.58-.06-3.85A1.46,1.46,0,0,0,38.46,2c-.35,0-.69,0-1,0H33.87l-.15-1,0,1H7.42C6.2,2,5,2,3.77,2A1.82,1.82,0,0,0,2.19,3,1.64,1.64,0,0,0,2,3.86V16.8q0,7.38,0,14.78A1.84,1.84,0,0,0,3.48,33.3a3.81,3.81,0,0,0,1,0c.31,0,.62,0,.93,0H30.51Z"/><path class="cls-3" d="M37.74,26.5V17.09c0-3,0-6,0-9,0-.15,0-.29-.2-.28-.78,0-1.56,0-2.34,0H33.87l-.45,0-.62,0H6.15a2.35,2.35,0,0,0-.7,0c-.93,0-.93,0-.88.87,0,.13,0,.25,0,.38,0,6,0,12,0,18.07,0,.37.1.46.47.46H37.36q.48.11.36-.36A1.65,1.65,0,0,0,37.74,26.5Zm-17.1-2.94a5.94,5.94,0,0,1,.71-11.85,5.94,5.94,0,1,1-.71,11.85Z"/><path class="cls-3" d="M28.65,29.35H26.53c-.2,0-.25.07-.25.26q0,1.18,0,2.37c0,.22.07.28.28.28.7,0,1.41,0,2.11,0,.21,0,.22-.07.22-.23,0-.41,0-.82,0-1.23s0-.79,0-1.19C28.89,29.44,28.86,29.35,28.65,29.35Z"/><path class="cls-3" d="M33.24,29.49c0-.15-.12-.14-.21-.14H30.88c-.17,0-.21.06-.21.22v2.48c0,.12,0,.21.17.21H33c.18,0,.21-.08.16-.23a.39.39,0,0,0,0-.3A18.61,18.61,0,0,0,33.24,29.49Z"/><path class="cls-3" d="M22.2,6h2.11c.17,0,.24,0,.24-.22,0-.77,0-1.53,0-2.3,0-.17,0-.24-.22-.24H22.2c-.21,0-.24.09-.24.27,0,.36,0,.72,0,1.07s0,.8,0,1.19C22,6,22,6,22.2,6Z"/><path class="cls-3" d="M15.57,29.35h-1.9c-.22,0-.27.08-.26.28,0,.4,0,.79,0,1.19s0,.79,0,1.18c0,.2.06.26.25.26.63,0,1.27,0,1.9,0,.24,0,.29-.09.29-.3q0-1.17,0-2.34C15.85,29.41,15.78,29.35,15.57,29.35Z"/><path class="cls-3" d="M24.54,30.81h0c0-.4,0-.81,0-1.22,0-.18-.05-.24-.23-.24h-2c-.18,0-.23.07-.22.24,0,.8,0,1.61,0,2.42,0,.19.06.25.26.25H24.3c.2,0,.25-.06.24-.26C24.53,31.61,24.54,31.21,24.54,30.81Z"/><path class="cls-3" d="M19.93,29.35H18c-.19,0-.27,0-.26.25,0,.4,0,.81,0,1.22h0c0,.4,0,.79,0,1.19,0,.2,0,.25.23.25h1.93c.19,0,.26,0,.26-.25,0-.8,0-1.61,0-2.41C20.19,29.4,20.13,29.35,19.93,29.35Z"/><path class="cls-3" d="M13.26,5.77c0,.15,0,.23.2.23h2c.14,0,.21,0,.21-.19q0-1.18,0-2.37c0-.18-.11-.2-.24-.2h-2c-.21,0-.24.09-.24.27,0,.37,0,.74,0,1.11S13.27,5.39,13.26,5.77Z"/><path class="cls-3" d="M17.85,6h1.93C20,6,20,6,20,5.75c0-.75,0-1.5,0-2.26,0-.2-.07-.25-.26-.25H17.85c-.2,0-.28,0-.27.27s0,.72,0,1.07,0,.77,0,1.15C17.57,6,17.65,6,17.85,6Z"/><path class="cls-3" d="M26.55,6h1.93c.23,0,.26-.09.26-.28,0-.36,0-.72,0-1.08s0-.74,0-1.12c0-.19,0-.28-.26-.28H26.55c-.23,0-.27.09-.27.29q0,1.1,0,2.19C26.28,5.92,26.33,6,26.55,6Z"/><path class="cls-3" d="M8.88,5.7c0,.21,0,.31.28.3h1.93c.2,0,.25-.07.24-.26V3.48c0-.17,0-.24-.22-.24-.42,0-.84,0-1.26,0H9a4.22,4.22,0,0,0-.06,1.18C8.89,4.86,8.89,5.28,8.88,5.7Z"/><path class="cls-3" d="M5.6,6H6.72c.36.09.48-.06.45-.41s0-.51,0-.77a5.67,5.67,0,0,0-.06-1.54c-.77,0-1.53,0-2.29,0-.22,0-.24.09-.24.27,0,.5,0,1,0,1.52C4.56,6,4.56,6,5.6,6Z"/><path class="cls-3" d="M35.51,6H37c.76,0,.59,0,.59-.44V4.36c0-.29,0-.59,0-.89s-.06-.23-.23-.23c-.52,0-1,0-1.56,0-.13,0-.27,0-.4,0-.31,0-.43.06-.41.4,0,.61,0,1.22,0,1.84S34.88,6,35.51,6Z"/><path class="cls-3" d="M30.67,5.1c0,.94,0,.94,1,.89H32c.27,0,.54,0,.81,0s.3,0,.29-.28c0-.51,0-1,0-1.52,0-1,0-1-1-.94h-.44c-.24,0-.47,0-.7,0s-.28.06-.27.27C30.68,4,30.67,4.57,30.67,5.1Z"/><path class="cls-3" d="M7.09,29.37H4.79c-.11,0-.08.11-.08.18,0,.7,0,1.4,0,2.11s0,.6.57.59H6.72c.33.08.45,0,.44-.38,0-.72,0-1.44,0-2.15C7.16,29.59,7.23,29.46,7.09,29.37Z"/><path class="cls-3" d="M37.18,29.35l-.34,0H35a1.85,1.85,0,0,0,0,.23.53.53,0,0,1,0,.13c0,.67,0,1.35,0,2h0c0,.16,0,.32,0,.48l0,0h2.4c.12,0,.29.06.28-.17,0-.71,0-1.42,0-2.13S37.76,29.35,37.18,29.35Z"/><path class="cls-3" d="M10.74,29.36h-.52l-.89,0c-.17,0-.26,0-.25.22,0,.84,0,1.68,0,2.52,0,.21.11.18.23.15h1.42c.59,0,.59,0,.58-.36V30C11.34,29.23,11.42,29.37,10.74,29.36Z"/><path class="cls-3" d="M24.88,17.07,24.71,17c-1.23-.72-2.45-1.45-3.69-2.15A14.07,14.07,0,0,0,19.4,14a.48.48,0,0,0-.74.38,1.81,1.81,0,0,0,0,.4v2.94h0c0,1,0,2.05,0,3.08,0,.55.32.75.83.54l.3-.15,5.07-2.94C25.42,17.87,25.44,17.44,24.88,17.07Z"/></g></svg>