<?xml version="1.0" encoding="utf-8"?>
<!-- Generator: Adobe Illustrator 24.0.1, SVG Export Plug-In . SVG Version: 6.00 Build 0)  -->
<svg version="1.1" id="圖層_1" xmlns="http://www.w3.org/2000/svg" xmlns:xlink="http://www.w3.org/1999/xlink" x="0px" y="0px"
	 viewBox="0 0 230 149" style="enable-background:new 0 0 230 149;" xml:space="preserve">
<style type="text/css">
	.st0{fill:url(#SVGID_1_);}
	.st1{fill:url(#SVGID_2_);}
	.st2{opacity:0.5;}
	.st3{fill:url(#SVGID_3_);}
	.st4{fill:url(#SVGID_4_);}
	.st5{fill:url(#SVGID_5_);}
	.st6{fill:url(#SVGID_6_);}
	.st7{fill:url(#SVGID_7_);}
	.st8{fill:#C56321;}
	.st9{fill:url(#SVGID_8_);}
	.st10{fill:url(#SVGID_9_);}
	.st11{fill:url(#SVGID_10_);}
	.st12{fill:url(#SVGID_11_);}
	.st13{fill:url(#SVGID_12_);}
	.st14{fill:url(#SVGID_13_);}
	.st15{fill:#FBD37A;}
	.st16{fill:url(#SVGID_14_);}
	.st17{fill:url(#SVGID_15_);}
	.st18{fill:url(#SVGID_16_);}
	.st19{fill:url(#SVGID_17_);}
	.st20{fill:url(#SVGID_18_);}
	.st21{fill:url(#SVGID_19_);}
	.st22{fill:url(#SVGID_20_);}
	.st23{fill:url(#SVGID_21_);}
	.st24{fill:url(#SVGID_22_);}
	.st25{fill:url(#SVGID_23_);}
	.st26{fill:#E4C3AD;}
	.st27{fill:url(#SVGID_24_);}
	.st28{fill:url(#SVGID_25_);}
	.st29{fill:url(#SVGID_26_);}
	.st30{fill:url(#SVGID_27_);}
	.st31{fill:url(#SVGID_28_);}
	.st32{fill:url(#SVGID_29_);}
	.st33{fill:url(#SVGID_30_);}
	.st34{fill:url(#SVGID_31_);}
	.st35{fill:url(#SVGID_32_);}
	.st36{fill:#534741;stroke:#534741;stroke-width:7;stroke-linecap:round;stroke-linejoin:round;}
	.st37{fill:#D37B04;}
	.st38{fill:#FFFFFF;}
</style>
<title>頁面_FAol_1108</title>
<g>
	<g id="頁面內容">
		
			<linearGradient id="SVGID_1_" gradientUnits="userSpaceOnUse" x1="32.13" y1="80.2781" x2="184.29" y2="80.2781" gradientTransform="matrix(1 0 0 -1 0 150)">
			<stop  offset="0" style="stop-color:#A5A5A5"/>
			<stop  offset="0.22" style="stop-color:#EEE6DC"/>
			<stop  offset="0.25" style="stop-color:#D0CBC5"/>
			<stop  offset="0.3" style="stop-color:#A3A1A1"/>
			<stop  offset="0.36" style="stop-color:#7F8185"/>
			<stop  offset="0.41" style="stop-color:#666970"/>
			<stop  offset="0.45" style="stop-color:#565B64"/>
			<stop  offset="0.49" style="stop-color:#515660"/>
			<stop  offset="0.53" style="stop-color:#565A64"/>
			<stop  offset="0.57" style="stop-color:#64676F"/>
			<stop  offset="0.63" style="stop-color:#7B7D81"/>
			<stop  offset="0.68" style="stop-color:#9C9B9B"/>
			<stop  offset="0.73" style="stop-color:#C6C1BC"/>
			<stop  offset="0.78" style="stop-color:#EEE6DC"/>
			<stop  offset="0.83" style="stop-color:#E9E2D8"/>
			<stop  offset="0.88" style="stop-color:#DBD5CE"/>
			<stop  offset="0.94" style="stop-color:#C4C1BD"/>
			<stop  offset="1" style="stop-color:#A5A5A5"/>
		</linearGradient>
		<path class="st0" d="M55.2,90.6c-5.8-2.3-11.6-6.7-16.9-13.6c0,0-0.1-0.1-0.1-0.2c-0.2-1.1-0.5-2.2-0.7-3.3
			c-1.5-7.6-3.1-15.2-4.7-22.8c-0.2-1.1-0.5-2.2-0.7-3.3v-0.2l0.1,0.1c6,7.8,12.6,12.9,19.3,15.8L55.2,90.6z M154,76.8
			c3.3-9.2,6.7-18.5,10-27.7c-6.6-2.6-13.8-3.5-20.8-2.6h-0.1c0,0,0,0.1,0,0.2c-0.3,1.1-0.6,2.1-0.9,3.2c-1.9,7.2-3.8,14.5-5.7,21.7
			c-0.3,1-0.6,2.1-0.8,3.2c0,0.1,0,0.2,0,0.2C141.9,74.1,148.1,74.8,154,76.8z M120.4,51.9L120.4,51.9c-0.1,0-0.1,0.1-0.1,0.1
			c-0.2,1-0.4,2.1-0.6,3.1l-3.6,21.4c-0.2,1-0.3,2.1-0.5,3.1c0,0.1,0,0.2,0,0.1c6.2-2.2,12.6-3.9,19.1-4.9l7.4-28.4
			C134.7,47.4,127.4,49.2,120.4,51.9z M165,49.5L165,49.5c-0.1,0-0.1,0.1-0.1,0.2c-0.4,1-0.8,2.1-1.2,3.1c-2.6,7-5.1,14.1-7.7,21.1
			c-0.4,1.1-0.8,2.1-1.1,3.1c0,0.1-0.1,0.2,0,0.2c5.8,2.5,11.6,6.9,16.9,13.6c4.1-8.5,8.3-17,12.5-25.4
			C178.3,57.4,171.7,52.3,165,49.5z M52.4,63.5L52.4,63.5c-0.1,0-0.1,0.1-0.1,0.1c0.1,1,0.3,2.1,0.4,3.1l2.8,21
			c0.1,1,0.3,2.1,0.4,3.1c0,0.1,0,0.2,0.1,0.2c5.8,2.2,12.1,2.9,18.3,2c-0.3-8.9-0.7-17.9-1-26.8C66.2,66.9,59.1,66,52.4,63.5
			L52.4,63.5z M97.2,60.2L97.2,60.2c-0.1,0-0.1,0.1-0.1,0.2c-0.1,1-0.2,2-0.2,3.1c-0.5,6.9-1,13.9-1.4,20.8c-0.1,1-0.1,2-0.2,3
			c0,0.1,0,0.2,0,0.1c6.4-2.2,13-4.9,19.4-7.3c1.5-9.3,3.1-18.6,4.6-27.9C112,54.7,104.5,57.7,97.2,60.2L97.2,60.2z M74.4,66
			L74.4,66l-0.1,0.1l0.1,3c0.2,6.8,0.5,13.7,0.7,20.5c0,1,0.1,2,0.1,3c0,0.1,0,0.2,0.1,0.1c6.5-0.9,12.9-2.6,19.1-5
			c0.6-9.1,1.2-18.1,1.8-27.2C89,63.1,81.8,64.9,74.4,66z"/>
		
			<linearGradient id="SVGID_2_" gradientUnits="userSpaceOnUse" x1="177.7668" y1="112.7319" x2="43.5668" y2="59.8619" gradientTransform="matrix(1 0 0 -1 0 150)">
			<stop  offset="0" style="stop-color:#5F557B"/>
			<stop  offset="0.14" style="stop-color:#96909F"/>
			<stop  offset="0.34" style="stop-color:#232539"/>
			<stop  offset="0.53" style="stop-color:#272A3F"/>
			<stop  offset="0.79" style="stop-color:#303651"/>
			<stop  offset="1" style="stop-color:#3B4464"/>
		</linearGradient>
		<path class="st1" d="M168.3,40.3l-0.1-0.1l-0.3-0.1l-0.5-0.2c-6.9-2.7-14.4-3.6-21.7-2.8h-0.2h-0.4h-0.5c-7.7,1-15.4,2.8-22.7,5.5
			l-0.2,0.1c-0.1,0-0.2,0.1-0.4,0.1l-0.5,0.2c-7.7,2.6-15.4,5.6-23,8.2l-0.2,0.1l-0.4,0.1l-0.5,0.2c-7.3,2.7-15,4.5-22.7,5.6h-0.2
			h-0.3H73C65.6,58,58.1,57,51.2,54.3l-0.2,0l-0.3-0.1L50.2,54c-7-3-13.8-8.3-20.1-16.6l-0.1-0.2l-0.3-0.4
			c3.4,16.5,6.8,33.1,10.2,49.6l0.2,0.3l0.1,0.1c5.1,6.6,10.6,10.6,16.2,12.9l0.4,0.2l0.3,0.1h0.1c5.6,2,11.6,2.6,17.5,1.8h0.4h0.3
			h0.1c6.2-1,12.4-2.6,18.3-4.9l0.4-0.2l0.3-0.1h0.1c6.2-2.2,12.4-4.8,18.5-7.1l0.4-0.2l0.3-0.1h0.1c5.9-2.3,12-3.9,18.3-4.8
			l0.4-0.1h0.3h0.1c5.9-0.8,11.9-0.2,17.5,1.8l0.4,0.1l0.3,0.1l0.1,0.1c5.6,2.3,11,6.3,16.2,12.9c0.1,0.2,0.2,0.3,0.4,0.5l21-42.3
			c-0.1-0.2-0.3-0.4-0.4-0.6C182,48.6,175.3,43.4,168.3,40.3z M179.3,56.7c0.4-1,1-2.4,1.5-3.3c0,0,0-0.1,0.1-0.1s0.1-0.1,0.2,0
			s0,0,0.1,0c0.5,0.3,0.9,0.7,1.2,1.2c0,0,0,0,0,0.1c0.1,0,0.1,0.1,0,0.2c0,0,0,0,0,0c0,0,0,0.1,0,0.1c-0.4,1-1,2.3-1.5,3.3
			c0,0.1-0.1,0.1-0.1,0.1s-0.1,0.1-0.2,0s0,0,0,0c-0.4-0.3-0.8-0.7-1.2-1.2c0,0,0,0,0-0.1c-0.1-0.1-0.1-0.2,0-0.2c0,0,0,0,0,0
			C179.3,56.8,179.2,56.7,179.3,56.7L179.3,56.7z M175.2,53.1c0.4-1,1-2.4,1.4-3.4c0-0.1,0-0.1,0.1-0.1s0.1-0.1,0.2-0.1s0,0,0.1,0
			c0.5,0.3,0.9,0.6,1.2,1c0,0,0,0,0,0.1c0.1,0.1,0.1,0.2,0,0.2c0,0,0,0,0,0c0,0,0,0.1,0,0.1c-0.4,1-1,2.4-1.5,3.4c0,0,0,0.1-0.1,0.1
			s-0.1,0.1-0.2,0.1s0,0-0.1,0c-0.4-0.3-0.8-0.6-1.2-1c0,0,0,0,0-0.1S175.1,53.3,175.2,53.1C175.3,53.1,175.2,53.1,175.2,53.1
			L175.2,53.1z M171,50.2c0.4-1.1,0.9-2.4,1.4-3.4c0-0.1,0-0.1,0.1-0.1s0.1-0.1,0.2-0.1s0,0,0,0c0.5,0.2,0.9,0.5,1.2,0.8
			c0,0,0,0,0,0.1s0.1,0.1,0,0.2s0,0.1,0,0.1c-0.4,1.1-0.9,2.4-1.4,3.4c0,0.1,0,0.1-0.1,0.1s-0.1,0.1-0.2,0.1s0,0,0,0
			c-0.4-0.2-0.8-0.5-1.2-0.8c0,0,0,0,0-0.1S170.9,50.4,171,50.2C171,50.1,171,50.2,171,50.2z M166.8,47.9c0.4-1.1,0.9-2.5,1.3-3.5
			c0-0.1,0-0.1,0.1-0.1s0.1-0.1,0.2-0.1s0,0,0,0c0.5,0.1,0.9,0.3,1.2,0.6c0,0,0,0,0,0.1s0.1,0.1,0,0.2s0,0.1,0,0.1
			c-0.4,1.1-0.9,2.5-1.3,3.5c0,0.1,0,0.1-0.1,0.1c0,0.1-0.1,0.1-0.2,0.1s0,0,0,0c-0.4-0.1-0.9-0.3-1.2-0.6c0,0,0,0,0,0
			s-0.1-0.1-0.1-0.2S166.7,47.9,166.8,47.9L166.8,47.9z M162.6,46.2c0.3-1.1,0.8-2.5,1.2-3.5c0-0.1,0-0.1,0.1-0.1s0.1-0.2,0.2-0.1
			s0,0,0,0c0.4,0.1,0.9,0.2,1.3,0.5c0,0,0,0,0,0.1s0.1,0.1,0.1,0.2s0,0.1,0,0.1c-0.3,1.1-0.8,2.5-1.3,3.5c0,0.1,0,0.1-0.1,0.1
			c0,0.1-0.1,0.1-0.2,0.1s0,0,0,0c-0.4-0.1-0.9-0.2-1.2-0.5l0,0c0,0-0.1-0.1-0.1-0.2S162.6,46.3,162.6,46.2L162.6,46.2z M158.2,45
			c0.3-1.1,0.8-2.5,1.2-3.5c0-0.1,0-0.1,0.1-0.1c0-0.1,0.1-0.2,0.2-0.1s0,0,0,0c0.4,0,0.9,0.1,1.3,0.3c0,0,0,0,0,0.1s0.1,0,0.1,0.2
			s0,0.1,0,0.1c-0.3,1.1-0.8,2.5-1.2,3.5c0,0,0,0.1-0.1,0.1s-0.1,0.2-0.2,0.1s0,0,0,0c-0.4,0-0.9-0.1-1.3-0.3c0,0,0,0,0-0.1
			s-0.1,0-0.1-0.2S158.2,45.1,158.2,45z M153.8,44.3c0.3-1.1,0.7-2.5,1.1-3.6c0-0.1,0-0.1,0.1-0.1s0.1-0.2,0.2-0.1s0,0,0,0
			c0.4,0,0.9,0,1.3,0.2l0,0c0,0,0.1,0,0.1,0.2s0,0.1,0,0.1c-0.3,1.1-0.7,2.5-1.1,3.5c0,0.1,0,0.1-0.1,0.1s-0.1,0.2-0.2,0.1s0,0,0,0
			c-0.4,0-0.9,0-1.3-0.2l0,0C153.9,44.6,153.8,44.6,153.8,44.3C153.9,44.2,153.8,44.4,153.8,44.3L153.8,44.3z M149.3,44.1
			c0.3-1.1,0.7-2.5,1-3.6c0,0,0-0.1,0.1-0.1s0.1-0.2,0.1-0.2s0,0,0.1,0c0.4-0.1,0.9-0.1,1.3,0l0,0c0,0,0.1,0,0.1,0.2s0,0.1,0,0.1
			c-0.3,1.1-0.7,2.5-1.1,3.6c0,0.1,0,0.1-0.1,0.1c0,0.1-0.1,0.2-0.2,0.2s0,0,0,0c-0.4,0.1-0.9,0.1-1.3,0c0,0,0,0,0-0.1
			S149.3,44.2,149.3,44.1C149.4,43.9,149.3,44.2,149.3,44.1L149.3,44.1z M144.8,44.2c0.2-1.1,0.6-2.5,1-3.6c0,0,0-0.1,0.1-0.1
			c0-0.1,0.1-0.2,0.1-0.2s0,0,0,0c0.4-0.1,0.9-0.1,1.3-0.1c0,0,0,0,0,0s0.1,0,0.1,0.2s0,0.1,0,0.1c-0.2,1.1-0.6,2.5-1,3.6
			c0,0.1,0,0.1-0.1,0.1s-0.1,0.2-0.2,0.2s0,0,0,0c-0.4,0.1-0.9,0.1-1.3,0.1c0,0,0,0,0-0.1s-0.1,0-0.1-0.1S144.8,44.3,144.8,44.2
			L144.8,44.2z M140.4,44.7c0.2-1.1,0.6-2.5,0.9-3.6c0-0.1,0-0.1,0.1-0.1s0.1-0.2,0.2-0.2c0,0,0,0,0-0.1c0.4-0.1,0.9-0.2,1.3-0.2
			l0,0c0,0,0.1,0,0.1,0.1s0,0.1,0,0.1c-0.2,1.1-0.6,2.5-0.9,3.6c0,0,0,0.1-0.1,0.1c0,0.1-0.1,0.2-0.1,0.2c0,0,0,0,0,0.1
			c-0.4,0.1-0.9,0.2-1.3,0.2l0,0C140.5,45,140.4,45,140.4,44.7C140.4,44.7,140.4,44.8,140.4,44.7L140.4,44.7z M135.8,45.5
			c0.2-1.1,0.5-2.5,0.8-3.6c0,0,0-0.1,0.1-0.1c0-0.1,0.1-0.2,0.2-0.2c0,0,0,0,0-0.1c0.4-0.2,0.9-0.3,1.4-0.3l0,0c0,0,0.1,0,0.1,0.1
			s0,0.1,0,0.1c-0.2,1.1-0.6,2.5-0.9,3.6c0,0,0,0.1,0,0.1c0,0.1-0.1,0.2-0.1,0.2s0,0.1,0,0.1c-0.4,0.2-0.9,0.2-1.3,0.3c0,0,0,0,0,0
			S135.8,45.7,135.8,45.5C135.9,45.5,135.8,45.6,135.8,45.5L135.8,45.5z M131.1,46.6c0.2-1.1,0.5-2.5,0.8-3.5c0,0,0-0.1,0.1-0.1
			c0-0.1,0.1-0.2,0.1-0.2c0,0,0,0,0-0.1c0.4-0.2,0.9-0.3,1.4-0.3l0,0c0,0,0.1,0,0.1,0.1s0,0.1,0,0.1c-0.2,1.1-0.5,2.5-0.8,3.6
			c0,0.1,0,0.1,0,0.1s-0.1,0.2-0.1,0.2s0,0.1,0,0.1c-0.4,0.2-0.9,0.3-1.3,0.3c0,0,0,0,0,0S131.2,46.8,131.1,46.6
			C131.2,46.6,131.1,46.7,131.1,46.6L131.1,46.6z M126.5,48c0.2-1.1,0.4-2.5,0.7-3.5c0,0,0-0.1,0-0.1c0-0.1,0.1-0.2,0.1-0.2
			s0,0,0-0.1c0.4-0.2,0.9-0.3,1.4-0.4l0,0c0,0,0.1,0,0.1,0.1s0,0,0,0.1c-0.2,1-0.4,2.5-0.7,3.5c0,0.1,0,0.1,0,0.1s-0.1,0.2-0.2,0.2
			s0,0,0,0c-0.4,0.2-0.9,0.3-1.3,0.4l0,0C126.6,48.2,126.4,48.2,126.5,48C126.5,47.9,126.5,48,126.5,48z M121.8,49.5
			c0.1-1,0.4-2.5,0.6-3.5c0,0,0-0.1,0-0.1s0.1-0.2,0.1-0.2s0-0.1,0-0.1c0.4-0.2,0.9-0.4,1.4-0.4l0,0c0,0,0.1,0,0.1,0.1
			c0,0,0,0,0,0.1c-0.1,1-0.4,2.5-0.6,3.5c0,0,0,0.1,0,0.1c0,0.1-0.1,0.2-0.1,0.2s0,0.1,0,0.1c-0.4,0.2-0.9,0.4-1.3,0.4l0,0
			C121.9,49.7,121.8,49.7,121.8,49.5C121.8,49.5,121.8,49.5,121.8,49.5L121.8,49.5z M117.3,51c0.1-1,0.3-2.4,0.5-3.5
			c0-0.1,0-0.1,0-0.1s0.1-0.2,0.1-0.2c0,0,0,0,0-0.1c0.4-0.2,0.9-0.4,1.4-0.5l0,0c0,0,0.1,0,0.1,0.1s0,0,0,0.1
			c-0.1,1-0.3,2.4-0.6,3.5c0,0,0,0.1,0,0.1s-0.1,0.2-0.1,0.2c0,0,0,0,0,0.1c-0.4,0.2-0.9,0.4-1.3,0.5l0,0
			C117.3,51.2,117.2,51.2,117.3,51C117.3,51,117.3,51.1,117.3,51z M112.6,52.7c0.1-1,0.3-2.4,0.5-3.5c0,0,0-0.1,0-0.1
			c0-0.1,0-0.2,0.1-0.2 M113.2,48.8c0.4-0.2,0.9-0.4,1.4-0.5l0,0c0,0,0.1,0,0.1,0.1s0,0.1,0,0.1c-0.1,1-0.3,2.4-0.5,3.5
			c0,0.1,0,0.1,0,0.1s-0.1,0.2-0.1,0.2c0,0,0,0,0,0.1c-0.4,0.2-0.9,0.4-1.3,0.5l0,0c0,0-0.1,0-0.1-0.1c0,0,0,0,0-0.1L113.2,48.8z
			 M108.2,51C108.2,51,108.2,50.9,108.2,51c0-0.2,0.1-0.3,0.1-0.3s0-0.1,0-0.1c0.4-0.2,0.9-0.4,1.4-0.5l0,0c0,0,0.1,0,0.1,0.1
			s0,0,0,0.1c-0.1,1-0.2,2.4-0.4,3.5c0,0,0,0.1,0,0.1c0,0.1-0.1,0.2-0.1,0.2s0,0,0,0.1c-0.4,0.2-0.9,0.4-1.4,0.5l0,0
			c0,0-0.1,0-0.1-0.1s0-0.1,0-0.1C107.9,53.4,108.1,52,108.2,51z M103.4,52.8c0,0,0-0.1,0-0.1c0-0.1,0-0.2,0.1-0.2 M103.6,52.4
			c0.4-0.2,0.9-0.4,1.4-0.5l0,0c0,0,0.1,0,0.1,0.1s0,0,0,0.1c-0.1,1-0.2,2.4-0.4,3.5c0,0,0,0.1,0,0.1s-0.1,0.2-0.1,0.2
			c0,0,0,0,0,0.1c-0.4,0.2-0.9,0.4-1.3,0.5l0,0c0,0-0.1,0-0.1-0.1s0-0.1,0-0.1c0-1.1,0.2-2.4,0.3-3.5L103.6,52.4z M98.7,54.4
			C98.7,54.4,98.7,54.4,98.7,54.4c0-0.2,0.1-0.3,0.1-0.3c0,0,0,0,0-0.1c0.4-0.2,0.9-0.4,1.4-0.5l0,0c0,0,0.1,0,0.1,0.1s0,0.1,0,0.1
			c0,1-0.1,2.4-0.3,3.5c0,0,0,0.1,0,0.1c0,0.1-0.1,0.2-0.1,0.2c0,0,0,0,0,0.1c-0.4,0.2-0.9,0.4-1.3,0.5l0,0c0,0-0.1,0-0.1-0.1
			c0,0,0,0,0-0.1C98.4,56.8,98.6,55.5,98.7,54.4L98.7,54.4z M94.1,56C94.1,55.9,94.1,55.9,94.1,56c0-0.2,0-0.3,0.1-0.3
			c0,0,0,0,0-0.1c0.4-0.2,0.9-0.4,1.4-0.5l0,0c0,0,0.1,0,0.1,0.1s0,0,0,0.1c0,1-0.1,2.4-0.2,3.4c0,0,0,0.1,0,0.1
			c0,0.1,0,0.2-0.1,0.2 M95.3,59.2c-0.4,0.2-0.9,0.4-1.3,0.4l0,0c0,0-0.1,0-0.1-0.1s0,0,0-0.1c0-1.1,0.1-2.4,0.2-3.4L95.3,59.2z
			 M89.3,57.5c0,0,0-0.1,0-0.1c0-0.1,0-0.2,0.1-0.2s0,0,0,0c0.4-0.2,0.9-0.4,1.4-0.4l0,0c0,0,0.1,0,0.1,0.1c0,0,0,0,0,0.1
			c0,1,0,2.4-0.1,3.4c0,0,0,0.1,0,0.1c0,0.1,0,0.2-0.1,0.2s0,0,0,0.1c-0.4,0.2-0.9,0.3-1.3,0.4l0,0c0,0-0.1,0-0.1-0.1s0,0,0-0.1
			C89.2,59.8,89.2,58.5,89.3,57.5L89.3,57.5z M84.6,58.7C84.6,58.7,84.6,58.6,84.6,58.7c0-0.2,0-0.3,0.1-0.3 M84.7,58.4
			c0.4-0.2,0.9-0.3,1.4-0.4l0,0c0,0,0.1,0,0.1,0.1s0,0,0,0.1c0,1,0,2.4-0.1,3.4c0,0.1,0,0.1,0,0.1s0,0.2-0.1,0.2s0,0,0,0
			c-0.4,0.2-0.9,0.3-1.3,0.3l0,0c0,0-0.1,0-0.1-0.1s0,0,0-0.1c-0.1-1-0.1-2.3,0-3.4L84.7,58.4z M79.9,59.7
			C79.9,59.6,79.9,59.6,79.9,59.7c0-0.1,0-0.3,0.1-0.3s0,0,0,0c0.4-0.2,0.9-0.2,1.3-0.3l0,0c0,0,0.1,0,0.1,0.1s0,0,0,0.1
			c0.1,1,0.1,2.3,0,3.4c0,0,0,0.1,0,0.1c0,0.1,0,0.2-0.1,0.2s0,0,0,0c-0.4,0.2-0.9,0.3-1.3,0.3l0,0c0,0-0.1,0-0.1-0.1s0-0.1,0-0.1
			C79.9,62.1,79.8,60.8,79.9,59.7L79.9,59.7z M75.2,60.5C75.2,60.5,75.2,60.4,75.2,60.5c0-0.1,0-0.2,0.1-0.2s0,0,0-0.1
			c0.4-0.1,0.9-0.2,1.4-0.1l0,0c0,0,0.1,0,0.1,0.1s0,0,0,0.1c0.1,1,0.1,2.4,0.1,3.4c0,0,0,0.1,0,0.1c0,0.1,0,0.2-0.1,0.2 M76.8,63.9
			c-0.4,0.1-0.9,0.2-1.3,0.2l0,0c0,0-0.1,0-0.1-0.1s0,0,0-0.1c-0.1-1-0.2-2.4-0.2-3.4L76.8,63.9z M70.8,60.8c0-0.1,0-0.2,0.1-0.2
			s0,0,0,0c0.4-0.1,0.9-0.1,1.3-0.1l0,0c0,0,0.1,0,0.1,0.1s0,0,0,0.1c0.1,1,0.1,2.4,0.1,3.4c0,0,0,0.1,0,0.1c0,0.1,0,0.2-0.1,0.1
			s0,0,0,0c-0.4,0.1-0.9,0.1-1.3,0.1l0,0c0,0-0.1,0-0.1-0.1s0-0.1,0-0.1C70.8,63.2,70.8,61.9,70.8,60.8
			C70.8,60.8,70.8,60.8,70.8,60.8L70.8,60.8z M66.2,60.8c0-0.1,0-0.2,0.1-0.1s0,0,0,0c0.4-0.1,0.9-0.1,1.3,0c0,0,0,0,0,0.1
			s0.1,0,0.1,0.1s0,0.1,0,0.1c0.1,1,0.2,2.4,0.2,3.4c0,0,0,0.1,0,0.1s0,0.2-0.1,0.1s0,0,0,0c-0.4,0.1-0.9,0.1-1.3,0l0,0
			c0,0-0.1,0-0.1-0.1s0-0.1,0-0.1c-0.1-1-0.2-2.4-0.2-3.4C66.2,60.9,66.2,60.9,66.2,60.8L66.2,60.8z M61.7,60.5c0-0.1,0-0.2,0.1-0.1
			s0,0,0,0c0.4,0,0.9,0,1.3,0.1c0,0,0,0,0,0s0.1,0,0.1,0.2s0,0.1,0,0.1c0.1,1,0.2,2.4,0.3,3.4v0.1c0,0,0,0.2-0.1,0.1s0,0.1,0,0.1
			c-0.4,0-0.9,0-1.3-0.1c0,0,0,0,0-0.1s-0.1,0-0.1-0.2s0-0.1,0-0.1c-0.1-1-0.3-2.4-0.3-3.4C61.6,60.5,61.6,60.5,61.7,60.5L61.7,60.5
			z M57.2,59.6c0-0.1,0-0.1,0.1-0.1s0,0,0,0c0.4,0,0.9,0.1,1.3,0.3c0,0,0,0,0,0.1s0.1,0,0.1,0.2s0,0.1,0,0.1c0.2,1,0.3,2.4,0.3,3.4
			c0,0.1,0,0.1,0,0.1s0,0.1-0.1,0.1s0,0,0,0c-0.4,0-0.9-0.1-1.3-0.3l0,0c0,0-0.1,0-0.1-0.2s0-0.1,0-0.1c-0.2-1-0.3-2.4-0.4-3.4
			C57.1,59.7,57.2,59.7,57.2,59.6L57.2,59.6z M52.8,58.3c0-0.1,0-0.1,0.1-0.1s0,0,0,0c0.4,0.1,0.9,0.2,1.3,0.4c0,0,0,0,0,0.1
			s0.1,0.1,0.1,0.2s0,0.1,0,0.1c0.2,1,0.3,2.4,0.4,3.4c0,0.1,0,0.1,0,0.1s0,0.2-0.1,0.1s0,0,0,0c-0.4-0.1-0.9-0.2-1.2-0.4
			c0,0,0,0,0-0.1s-0.1-0.1-0.1-0.2s0-0.1,0-0.1C53,60.8,52.8,59.4,52.8,58.3C52.7,58.3,52.7,58.3,52.8,58.3L52.8,58.3z M48.5,56.5
			C48.5,56.4,48.5,56.4,48.5,56.5C48.7,56.5,48.6,56.4,48.5,56.5c0.5,0,1,0.2,1.4,0.5c0,0,0,0,0,0.1c0.1,0,0.1,0.1,0.1,0.2
			c0,0,0,0.1,0,0.1c0.2,1.1,0.4,2.4,0.5,3.5c0,0,0,0.1,0,0.1s0,0.1-0.1,0.1s0,0,0,0c-0.4-0.1-0.8-0.3-1.2-0.6c0,0,0,0,0-0.1
			s-0.1-0.1-0.1-0.2s0-0.1,0-0.1C48.9,59,48.7,57.6,48.5,56.5C48.5,56.5,48.5,56.5,48.5,56.5z M44.2,54C44.2,53.8,44.2,53.9,44.2,54
			C44.4,54,44.3,53.9,44.2,54c0.5,0.1,0.9,0.4,1.3,0.7c0,0,0,0,0,0.1c0.1,0,0.1,0.1,0.1,0.2c0,0,0,0.1,0,0.1
			c0.2,1.1,0.4,2.5,0.5,3.5c0,0.1,0,0.1,0,0.1c0,0.1,0,0.1-0.1,0.1s0,0,0,0c-0.4-0.2-0.8-0.5-1.2-0.8c0,0,0,0,0-0.1
			s-0.1-0.1-0.1-0.2s0-0.1,0-0.1C44.6,56.5,44.4,55.1,44.2,54C44.2,54,44.2,54,44.2,54z M40,50.9C40,50.7,40,50.7,40,50.9
			C40.2,50.9,40.1,50.8,40,50.9c0.5,0.2,0.9,0.6,1.3,0.9c0,0,0,0,0,0.1c0.1,0,0.1,0.1,0.1,0.2c0,0,0,0.1,0,0.1
			c0.2,1.1,0.5,2.5,0.6,3.6c0,0.1,0,0.1,0,0.1s0,0.1-0.1,0.1s0,0,0,0c-0.4-0.3-0.8-0.6-1.1-0.9c0,0,0,0,0-0.1s-0.1-0.1-0.1-0.2
			s0-0.1,0-0.1C40.4,53.4,40.2,52,40,51C40,50.9,40,50.9,40,50.9z M36,47C36,46.9,36,47,36,47c0.4,0.4,0.8,0.8,1.2,1.2
			c0,0,0,0,0,0.1c0.1,0.1,0.1,0.2,0.1,0.2c0,0,0,0.1,0,0.1c0.2,1.1,0.5,2.6,0.7,3.6c0,0.1,0,0.1,0,0.1s0,0.1-0.1,0.1s0,0,0,0
			c-0.4-0.3-0.8-0.7-1.2-1.1c0,0,0,0,0-0.1c-0.1-0.1-0.1-0.2-0.1-0.2c0,0,0-0.1,0-0.1c-0.2-1.1-0.5-2.6-0.7-3.7
			C35.9,47.1,35.9,47,36,47C35.9,47.1,35.9,46.9,36,47z M32,42.4L32,42.4c0.4,0.4,0.8,0.9,1.2,1.4c0,0,0,0,0,0.1
			c0.1,0.1,0.1,0.2,0.1,0.3c0,0,0,0.1,0,0.1c0.3,1.2,0.5,2.6,0.7,3.7c0,0.1,0,0.1,0,0.1c0,0.2,0,0.1-0.1,0s0,0,0,0
			c-0.4-0.4-0.8-0.9-1.1-1.4c0,0,0-0.1,0-0.1c-0.1-0.1-0.1-0.2-0.1-0.3c0,0,0-0.1,0-0.2c-0.3-1.2-0.6-2.7-0.8-3.7
			C31.9,42.5,31.9,42.4,32,42.4C31.8,42.3,31.9,42.3,32,42.4L32,42.4z M41.5,85.9L41.5,85.9c-0.4-0.3-0.7-0.7-1-1.1c0,0,0,0,0-0.1
			c-0.1-0.1-0.1-0.2-0.1-0.2c0,0,0-0.1,0-0.1c-0.3-1.2-0.6-2.7-0.8-3.7c0-0.1,0-0.1,0-0.1c0-0.1,0-0.1,0-0.1s0,0,0,0
			c0.4,0.4,0.7,0.7,1,1.2c0,0,0,0.1,0,0.1c0.1,0.1,0.1,0.2,0.1,0.3c0,0,0,0.1,0,0.1c0.3,1.2,0.5,2.6,0.7,3.7
			C41.5,85.8,41.5,85.9,41.5,85.9C41.5,86,41.5,86,41.5,85.9L41.5,85.9z M38.2,77c0,0-0.1-0.1-0.1-0.2c-0.2-1.1-0.5-2.2-0.7-3.3
			c-1.5-7.6-3.1-15.2-4.7-22.8c-0.2-1.1-0.5-2.2-0.7-3.3v-0.2l0.1,0.1c6,7.8,12.6,12.9,19.3,15.8l3.7,27.5
			C49.3,88.2,43.5,83.9,38.2,77z M44.8,89.4L44.8,89.4c-0.4-0.3-0.7-0.6-1-1c0,0,0,0,0-0.1c-0.1-0.1-0.1-0.1-0.1-0.2
			c0,0,0-0.1,0-0.1c-0.2-1.1-0.5-2.6-0.7-3.7c0-0.1,0-0.1,0-0.1c0-0.1,0-0.1,0-0.1s0,0,0,0c0.4,0.3,0.7,0.6,1,1c0,0,0,0,0,0.1
			c0.1,0.1,0.1,0.1,0.1,0.2c0,0,0,0.1,0,0.1c0.2,1.1,0.5,2.6,0.7,3.6C44.9,89.3,44.9,89.3,44.8,89.4C44.9,89.5,44.9,89.5,44.8,89.4
			L44.8,89.4z M48.3,92.3C48.3,92.4,48.3,92.3,48.3,92.3c-0.4-0.2-0.7-0.5-1-0.8c0,0,0,0,0-0.1c-0.1-0.1-0.1-0.1-0.1-0.2
			c0,0,0-0.1,0-0.1c-0.2-1.1-0.5-2.5-0.6-3.6c0-0.1,0-0.1,0-0.1s0-0.1,0.1-0.1s0,0,0,0c0.4,0.2,0.7,0.5,1,0.8c0,0,0,0,0,0.1
			c0.1,0.1,0.1,0.1,0.1,0.2c0,0,0,0.1,0,0.1c0.2,1.1,0.5,2.5,0.6,3.6C48.3,92.2,48.3,92.2,48.3,92.3C48.3,92.2,48.3,92.4,48.3,92.3
			L48.3,92.3z M51.9,94.6C51.9,94.7,51.9,94.7,51.9,94.6C51.7,94.6,51.8,94.7,51.9,94.6c-0.4-0.1-0.8-0.3-1.1-0.5c0,0,0,0,0-0.1
			s-0.1-0.1-0.1-0.2c0,0,0-0.1,0-0.1c-0.2-1.1-0.4-2.5-0.6-3.5v-0.1c0,0,0-0.2,0.1-0.1s0,0,0,0c0.4,0.2,0.7,0.4,1,0.6c0,0,0,0,0,0.1
			s0.1,0.1,0.1,0.2s0,0.1,0,0.1C51.5,92.1,51.7,93.5,51.9,94.6C51.9,94.5,51.9,94.6,51.9,94.6L51.9,94.6z M55.5,96.4
			C55.5,96.5,55.5,96.5,55.5,96.4C55.3,96.4,55.4,96.5,55.5,96.4c-0.4,0-0.8-0.1-1.1-0.4c0,0,0,0,0-0.1s-0.1-0.1-0.1-0.2
			s0-0.1,0-0.1c-0.2-1.1-0.4-2.4-0.5-3.5c0-0.1,0-0.1,0-0.1s0-0.1,0.1-0.1s0,0,0,0c0.4,0.1,0.7,0.3,1.1,0.5c0,0,0,0,0,0.1
			s0.1,0.1,0.1,0.2s0,0.1,0,0.1C55.2,93.9,55.4,95.3,55.5,96.4C55.5,96.3,55.5,96.3,55.5,96.4L55.5,96.4z M59,97.6
			c0,0.1,0,0.1-0.1,0.1s0,0,0,0c-0.4,0-0.7-0.2-1-0.3l0,0c0,0-0.1-0.1-0.1-0.2s0-0.1,0-0.1c-0.2-1-0.3-2.4-0.4-3.4v-0.1
			c0,0,0-0.1,0.1-0.1s0,0,0,0c0.4,0.1,0.7,0.2,1.1,0.3l0,0c0,0,0.1,0,0.1,0.2s0,0.1,0,0.1C58.8,95.1,59,96.5,59,97.6
			C59,97.6,59,97.6,59,97.6z M62.7,98.5c0,0.1,0,0.2-0.1,0.1s0,0.1,0,0.1c-0.4,0-0.7-0.1-1.1-0.2l0,0c0,0-0.1,0-0.1-0.2s0-0.1,0-0.1
			c-0.2-1-0.3-2.4-0.4-3.4v-0.1c0,0,0-0.2,0.1-0.1s0,0,0,0c0.4,0,0.7,0.1,1.1,0.2c0,0,0,0,0,0.1s0.1,0,0.1,0.2s0,0.1,0,0.1
			C62.5,96.1,62.6,97.5,62.7,98.5C62.7,98.5,62.7,98.5,62.7,98.5L62.7,98.5z M66.4,99c0,0.1,0,0.2-0.1,0.1s0,0.1,0,0.1
			c-0.4,0.1-0.7,0-1.1-0.1l0,0c0,0-0.1,0-0.1-0.2s0-0.1,0-0.1c-0.1-1-0.3-2.4-0.3-3.4v-0.1c0,0,0-0.2,0.1-0.1s0,0,0,0
			c0.4,0,0.7,0,1.1,0.1l0,0c0,0,0.1,0,0.1,0.2s0,0,0,0.1C66.3,96.5,66.4,97.9,66.4,99C66.4,98.9,66.4,99,66.4,99L66.4,99z
			 M70.2,99.1c0,0.1,0,0.2-0.1,0.2s0,0,0,0c-0.4,0.1-0.7,0.1-1.1,0c0,0,0,0,0-0.1s-0.1,0-0.1-0.1s0-0.1,0-0.1
			c-0.1-1-0.2-2.4-0.2-3.4v-0.1c0,0,0-0.2,0.1-0.1s0,0,0-0.1c0.4-0.1,0.7-0.1,1.1,0l0,0c0,0,0.1,0,0.1,0.1s0,0.1,0,0.1
			c0.1,1,0.2,2.4,0.2,3.4C70.2,99,70.2,99.1,70.2,99.1L70.2,99.1z M74,98.8c0,0.1,0,0.2-0.1,0.2s0,0,0,0c-0.4,0.1-0.7,0.2-1.1,0.1
			l0,0c0,0-0.1,0-0.1-0.1s0-0.1,0-0.1c-0.1-1-0.2-2.4-0.2-3.4c0,0,0-0.1,0-0.1c0-0.1,0-0.2,0.1-0.2s0,0,0,0c0.4-0.1,0.7-0.1,1.1-0.1
			c0,0,0,0,0,0.1s0.1,0,0.1,0.1s0,0.1,0,0.1C73.9,96.4,74,97.7,74,98.8C74,98.8,74,98.8,74,98.8z M56,90.9c0,0,0-0.1-0.1-0.2
			c-0.1-1-0.3-2-0.4-3.1l-2.8-21c-0.1-1-0.3-2-0.4-3.1c0,0,0-0.1,0-0.1h0.1c6.6,2.4,13.8,3.3,20.8,2.6c0.4,8.9,0.7,17.9,1,26.8
			C68.1,93.7,61.8,93.1,56,90.9z M77.7,98.2C77.7,98.3,77.7,98.3,77.7,98.2c0,0.1,0,0.3-0.1,0.3s0,0,0,0.1c-0.4,0.1-0.7,0.2-1.1,0.2
			l0,0c0,0-0.1,0-0.1-0.1s0,0,0-0.1c-0.1-1-0.1-2.3-0.1-3.4c0-0.1,0-0.1,0-0.1s0-0.2,0.1-0.2s0,0,0-0.1c0.4-0.1,0.7-0.2,1.1-0.2l0,0
			c0,0,0.1,0,0.1,0.1s0,0.1,0,0.1C77.7,95.8,77.8,97.2,77.7,98.2z M81.6,97.4C81.6,97.5,81.6,97.5,81.6,97.4c0,0.1,0,0.3-0.1,0.3
			l0,0c-0.4,0.2-0.7,0.2-1.1,0.2l0,0c0,0-0.1,0-0.1-0.1s0-0.1,0-0.1c0-1-0.1-2.4,0-3.4c0-0.1,0-0.1,0-0.1s0-0.2,0.1-0.2l0,0
			c0.4-0.1,0.7-0.2,1.1-0.2l0,0c0,0,0.1,0,0.1,0.1s0,0.1,0,0.1C81.7,95,81.7,96.4,81.6,97.4z M85.5,96.4c0,0,0,0.1,0,0.1
			c0,0.1,0,0.2-0.1,0.2s0,0.1,0,0.1c-0.4,0.2-0.7,0.3-1.1,0.3c0,0,0,0,0-0.1s-0.1,0-0.1-0.1s0-0.1,0-0.1c0-1,0-2.4,0-3.4
			c0-0.1,0-0.1,0-0.1s0-0.2,0.1-0.2s0-0.1,0-0.1c0.4-0.2,0.8-0.3,1.2-0.3l0,0c0,0,0.1,0,0.1,0.1c0,0,0,0,0,0.1
			C85.6,94,85.6,95.4,85.5,96.4L85.5,96.4z M89.5,95.2C89.5,95.3,89.5,95.3,89.5,95.2c0,0.1,0,0.3-0.1,0.3s0,0,0,0
			c-0.4,0.2-0.7,0.3-1.1,0.4l0,0c0,0-0.1,0-0.1-0.1s0,0,0-0.1c0-1,0-2.4,0.1-3.4c0,0,0-0.1,0-0.1c0-0.1,0-0.2,0.1-0.2s0-0.1,0-0.1
			c0.4-0.2,0.7-0.3,1.2-0.4l0,0c0,0,0.1,0,0.1,0.1s0,0.1,0,0.1C89.6,92.8,89.6,94.2,89.5,95.2L89.5,95.2z M93.5,93.9
			c0,0,0,0.1,0,0.1c0,0.1,0,0.2-0.1,0.2s0,0,0,0.1c-0.3,0.2-0.7,0.3-1.1,0.4l0,0c0,0-0.1,0-0.1-0.1s0,0,0-0.1c0-1,0.1-2.4,0.2-3.4
			c0,0,0-0.1,0-0.1c0-0.1,0-0.2,0.1-0.2s0,0,0,0c0.4-0.2,0.8-0.3,1.2-0.4l0,0c0,0,0.1,0,0.1,0.1s0,0.1,0,0.1
			C93.6,91.4,93.5,92.8,93.5,93.9L93.5,93.9z M94.4,87.9c-6.2,2.4-12.6,4.1-19.1,5c0,0,0-0.1-0.1-0.1c0-1-0.1-2-0.1-3
			c-0.2-6.8-0.5-13.7-0.7-20.5l-0.1-3V66h0.1c7.4-1.1,14.7-2.9,21.7-5.4C95.5,69.7,94.9,78.8,94.4,87.9L94.4,87.9z M97.3,92.5
			c0,0,0,0.1,0,0.1c0,0.1,0,0.2-0.1,0.2s0,0,0,0c-0.3,0.2-0.7,0.4-1.1,0.4l0,0c0,0-0.1,0-0.1-0.1s0,0,0-0.1c0-1,0.1-2.4,0.3-3.4
			c0,0,0-0.1,0-0.1c0-0.1,0-0.2,0.1-0.2s0-0.1,0-0.1c0.4-0.2,0.8-0.4,1.2-0.4l0,0c0,0,0.1,0,0.1,0.1s0,0.1,0,0.1
			C97.5,90,97.4,91.4,97.3,92.5L97.3,92.5z M101.6,87.5c-0.1,1-0.2,2.4-0.4,3.5c0,0.1,0,0.1,0,0.1s0,0.2-0.1,0.2l0,0
			c-0.4,0.2-0.7,0.4-1.1,0.4l0,0c0,0-0.1,0-0.1-0.1s0,0,0-0.1c0.1-1,0.2-2.4,0.3-3.4c0,0,0-0.1,0-0.1c0-0.1,0-0.2,0.1-0.2
			s0-0.1,0-0.1c0.4-0.2,0.8-0.4,1.2-0.4l0,0c0,0,0.1,0,0.1,0.1C101.6,87.4,101.6,87.5,101.6,87.5L101.6,87.5z M105.6,86
			c-0.1,1-0.3,2.4-0.4,3.5c0,0,0,0.1,0,0.1c0,0.1-0.1,0.2-0.1,0.2l0,0c-0.4,0.2-0.7,0.4-1.2,0.4l0,0c0,0-0.1,0-0.1-0.1s0,0,0-0.1
			c0.1-1,0.2-2.4,0.4-3.5c0,0,0-0.1,0-0.1c0-0.1,0.1-0.2,0.1-0.2c0,0,0,0,0-0.1c0.4-0.2,0.8-0.4,1.2-0.4l0,0c0,0,0.1,0,0.1,0.1
			S105.6,85.9,105.6,86L105.6,86z M109.6,84.4c-0.1,1-0.3,2.4-0.5,3.5c0,0,0,0.1,0,0.1c0,0.1-0.1,0.2-0.1,0.2l0,0
			c-0.4,0.2-0.7,0.4-1.1,0.4l0,0c0,0-0.1,0-0.1-0.1s0,0,0-0.1c0.1-1,0.3-2.4,0.5-3.5c0-0.1,0-0.1,0-0.1s0.1-0.2,0.1-0.2s0-0.1,0-0.1
			c0.4-0.2,0.8-0.4,1.2-0.4l0,0c0,0,0.1,0,0.1,0.1C109.7,84.3,109.7,84.4,109.6,84.4L109.6,84.4z M113.6,82.9
			c-0.1,1-0.4,2.4-0.6,3.5c0,0,0,0.1,0,0.1c0,0.1-0.1,0.2-0.1,0.2s0,0.1,0,0.1c-0.4,0.2-0.7,0.3-1.1,0.4l0,0c0,0-0.1,0-0.1-0.1
			s0,0,0-0.1c0.1-1,0.3-2.4,0.5-3.5c0,0,0-0.1,0-0.1c0-0.1,0.1-0.2,0.1-0.2s0,0,0-0.1c0.4-0.2,0.8-0.4,1.2-0.4l0,0
			c0,0,0.1,0,0.1,0.1S113.7,82.9,113.6,82.9L113.6,82.9z M95.3,87.5c-0.1,0,0-0.1,0-0.1c0.1-1,0.1-2,0.2-3
			c0.5-6.9,0.9-13.9,1.4-20.8c0.1-1,0.2-2,0.2-3.1c0,0,0-0.1,0-0.2h0.1c7.3-2.6,14.8-5.6,22-8c-1.5,9.3-3.1,18.6-4.6,27.9
			C108.3,82.6,101.7,85.3,95.3,87.5z M117.6,81.5c-0.2,1-0.4,2.5-0.6,3.5c0,0,0,0.1,0,0.1c0,0.1-0.1,0.2-0.1,0.2l0,0
			c-0.3,0.2-0.7,0.3-1.1,0.4l0,0c0,0-0.1,0-0.1-0.1s0-0.1,0-0.1c0.1-1,0.4-2.4,0.6-3.5c0,0,0-0.1,0-0.1c0-0.1,0.1-0.2,0.1-0.2
			s0,0,0,0c0.4-0.2,0.8-0.3,1.2-0.4l0,0C117.6,81.3,117.7,81.3,117.6,81.5C117.6,81.5,117.6,81.5,117.6,81.5L117.6,81.5z
			 M121.6,80.2c-0.2,1.1-0.4,2.5-0.7,3.5c0,0.1,0,0.1,0,0.1s-0.1,0.2-0.1,0.2s0,0.1,0,0.1c-0.4,0.2-0.7,0.3-1.1,0.4l0,0
			c0,0-0.1,0-0.1-0.1s0,0,0-0.1c0.2-1,0.4-2.5,0.7-3.6c0-0.1,0-0.1,0-0.1s0.1-0.2,0.1-0.2c0,0,0,0,0-0.1c0.4-0.2,0.8-0.3,1.2-0.3
			l0,0C121.6,80,121.7,80,121.6,80.2C121.6,80.2,121.6,80.2,121.6,80.2L121.6,80.2z M125.6,79.1c-0.2,1.1-0.5,2.5-0.8,3.6
			c0,0.1,0,0.1,0,0.1s-0.1,0.2-0.1,0.2c0,0,0,0,0,0.1c-0.4,0.2-0.7,0.3-1.1,0.3l0,0c0,0-0.1,0-0.1-0.1s0-0.1,0-0.1
			c0.2-1.1,0.5-2.5,0.8-3.6c0-0.1,0-0.1,0-0.1s0.1-0.2,0.1-0.2s0,0,0,0c0.4-0.2,0.8-0.3,1.2-0.3l0,0
			C125.5,78.9,125.6,78.9,125.6,79.1C125.7,79,125.6,79.1,125.6,79.1L125.6,79.1z M129.6,78.1c-0.2,1.1-0.6,2.5-0.9,3.6
			c0,0,0,0.1,0,0.1c0,0.1-0.1,0.2-0.1,0.2c0,0,0,0,0,0.1c-0.4,0.1-0.7,0.2-1.1,0.2l0,0c0,0-0.1,0-0.1-0.1s0-0.1,0-0.1
			c0.2-1.1,0.5-2.5,0.8-3.6c0,0,0-0.1,0-0.1c0-0.1,0.1-0.2,0.1-0.2s0-0.1,0-0.1c0.4-0.2,0.7-0.2,1.1-0.2l0,0
			C129.5,77.9,129.6,77.9,129.6,78.1C129.6,78.2,129.6,78.2,129.6,78.1L129.6,78.1z M133.6,77.5c-0.2,1.1-0.6,2.5-0.9,3.6
			c0,0.1,0,0.1,0,0.1s-0.1,0.2-0.1,0.2s0,0,0,0c-0.4,0.1-0.7,0.2-1.1,0.2l0,0c0,0-0.1,0-0.1-0.1s0-0.1,0-0.1
			c0.2-1.1,0.6-2.5,0.9-3.6c0,0,0-0.1,0-0.1c0-0.1,0.1-0.2,0.1-0.2s0,0,0,0c0.4-0.1,0.7-0.2,1.1-0.2c0,0,0,0,0,0.1
			S133.6,77.3,133.6,77.5C133.6,77.6,133.6,77.5,133.6,77.5L133.6,77.5z M115.7,79.8c-0.1,0,0,0,0-0.1c0.2-1,0.3-2.1,0.5-3.1
			l3.6-21.4c0.2-1,0.4-2.1,0.6-3.1c0,0,0-0.1,0-0.1h0.1c7-2.6,14.3-4.4,21.7-5.3l-7.4,28.4C128.3,76,121.9,77.6,115.7,79.8
			L115.7,79.8z M137.4,77.1c-0.3,1.1-0.6,2.5-1,3.6c0,0,0,0.1-0.1,0.1c0,0.1-0.1,0.2-0.1,0.2s0,0.1,0,0.1c-0.4,0.1-0.7,0.1-1.1,0.1
			l0,0c0,0-0.1,0-0.1-0.1s0-0.1,0-0.1c0.2-1.1,0.6-2.5,1-3.6c0,0,0-0.1,0.1-0.1c0-0.1,0.1-0.2,0.1-0.2s0,0,0,0
			c0.4-0.1,0.8-0.2,1.1-0.1l0,0C137.3,76.9,137.4,76.9,137.4,77.1C137.2,77.2,137.3,77.1,137.4,77.1L137.4,77.1z M135.7,74.8
			c-0.1,0,0-0.1,0-0.2c0.3-1.1,0.6-2.1,0.8-3.2c1.9-7.2,3.8-14.5,5.7-21.7c0.3-1.1,0.6-2.1,0.9-3.2c0,0,0-0.1,0-0.2h0.1
			c7-0.9,14.2,0,20.8,2.7c-3.3,9.3-6.7,18.5-10,27.7C148.1,74.8,141.9,74.1,135.7,74.8L135.7,74.8z M141.2,77
			c-0.3,1.1-0.7,2.5-1.1,3.6c0,0,0,0.1,0,0.1c0,0.1-0.1,0.2-0.1,0.1s0,0.1,0,0.1c-0.4,0.1-0.7,0.1-1.1,0l0,0c0,0-0.1,0-0.1-0.2
			s0-0.1,0-0.1c0.3-1.1,0.7-2.5,1-3.6c0,0,0-0.1,0-0.1c0-0.1,0.1-0.2,0.1-0.1s0-0.1,0-0.1c0.4-0.1,0.7-0.1,1.1,0c0,0,0,0,0,0.1
			S141.2,76.8,141.2,77C141,77.1,141.2,77,141.2,77z M145,77.3c-0.3,1.1-0.7,2.5-1.1,3.6c0,0.1,0,0.1-0.1,0.1s-0.1,0.2-0.1,0.1
			s0,0.1,0,0.1c-0.4,0.1-0.8,0-1.1-0.1l0,0c0,0-0.1,0-0.1-0.2s0-0.1,0-0.1c0.3-1.1,0.7-2.5,1.1-3.6c0,0,0-0.1,0-0.1
			c0-0.2,0.1-0.2,0.1-0.2s0,0,0,0c0.4-0.1,0.8-0.1,1.2,0.1l0,0c0,0,0.1,0,0,0.2S145,77.3,145,77.3L145,77.3z M148.8,77.9
			c-0.3,1.1-0.8,2.5-1.2,3.5c0,0.1,0,0.1-0.1,0.1s-0.1,0.2-0.1,0.1s0,0.1,0,0.1c-0.4,0-0.7-0.1-1.1-0.2c0,0,0,0,0-0.1s-0.1,0,0-0.2
			s0-0.1,0-0.1c0.3-1.1,0.8-2.5,1.2-3.5c0-0.1,0-0.1,0.1-0.1c0-0.1,0.1-0.2,0.1-0.1s0,0,0,0c0.4,0,0.8,0.1,1.1,0.2l0,0
			C148.8,77.7,148.9,77.7,148.8,77.9C148.7,78,148.8,78,148.8,77.9L148.8,77.9z M152.6,79.1c-0.3,1.1-0.8,2.5-1.3,3.5
			c0,0.1,0,0.1-0.1,0.1s-0.1,0.2-0.1,0.1s0,0,0,0c-0.4,0-0.8-0.1-1.1-0.3l0,0c0,0-0.1-0.1,0-0.2s0-0.1,0-0.1
			c0.3-1.1,0.8-2.5,1.2-3.5c0-0.1,0-0.1,0.1-0.1c0-0.1,0.1-0.2,0.1-0.1s0,0,0,0c0.4,0,0.8,0.2,1.1,0.4l0,0
			C152.5,78.9,152.6,78.9,152.6,79.1C152.4,79.2,152.6,79.1,152.6,79.1L152.6,79.1z M156.1,80.6c-0.4,1.1-0.9,2.4-1.3,3.5
			c0,0.1,0,0.1-0.1,0.1s-0.1,0.1-0.1,0.1s0,0,0,0c-0.4-0.1-0.7-0.3-1-0.5c0,0,0,0,0-0.1s-0.1,0,0-0.2s0-0.1,0-0.1
			c0.4-1.1,0.9-2.4,1.3-3.5c0-0.1,0-0.1,0.1-0.1s0.1-0.2,0.1-0.1s0,0,0,0c0.4,0.1,0.8,0.3,1.1,0.5l0,0c0,0,0.1,0.1,0,0.2
			S156.1,80.6,156.1,80.6L156.1,80.6z M159.7,82.7c-0.4,1.1-0.9,2.4-1.4,3.4c0,0.1,0,0.1-0.1,0.1c0,0.1-0.1,0.1-0.1,0.1s0,0,0,0
			c-0.4-0.1-0.7-0.4-1-0.6c0,0,0,0,0-0.1s-0.1-0.1,0-0.2s0-0.1,0-0.1c0.4-1,0.9-2.4,1.4-3.4c0-0.1,0-0.1,0.1-0.1s0.1-0.1,0.1-0.1
			s0,0,0,0c0.4,0.1,0.7,0.4,1,0.7c0,0,0,0,0,0.1s0.1,0.1,0,0.2S159.7,82.7,159.7,82.7L159.7,82.7z M163.3,85.3c-0.4,1-1,2.4-1.4,3.4
			c0,0.1,0,0.1-0.1,0.1s-0.1,0.1-0.1,0.1s0,0,0,0c-0.4-0.2-0.7-0.5-1-0.8c0,0,0,0,0-0.1s-0.1-0.1,0-0.2s0-0.1,0-0.1
			c0.4-1,1-2.4,1.4-3.4c0-0.1,0-0.1,0.1-0.1s0.1-0.1,0.1-0.1s0,0,0,0c0.4,0.2,0.7,0.5,1,0.8c0,0,0,0,0,0.1s0.1,0.1,0,0.2
			S163.3,85.3,163.3,85.3L163.3,85.3z M166.8,88.6c-0.4,1-1,2.3-1.5,3.3c0,0.1-0.1,0.1-0.1,0.1s-0.1,0.1-0.1,0s0,0,0,0
			c-0.4-0.3-0.7-0.6-1-1c0,0,0,0,0-0.1s-0.1-0.1,0-0.2s0-0.1,0-0.1c0.4-1,1-2.4,1.5-3.3c0,0,0-0.1,0.1-0.1s0.1-0.1,0.1-0.1s0,0,0,0
			c0.4,0.3,0.7,0.6,1,1c0,0,0,0,0,0.1s0.1,0.1,0,0.2S166.8,88.6,166.8,88.6L166.8,88.6z M170.2,92.3c0,0,0,0.1,0,0.1
			c-0.4,1-1.1,2.3-1.6,3.2c0,0-0.1,0.1-0.1,0.1s-0.1,0.1-0.1,0s0,0,0,0c-0.4-0.3-0.7-0.7-1-1.1c0,0,0,0,0-0.1
			c-0.1-0.1-0.1-0.2,0-0.2c0,0,0-0.1,0-0.1c0.4-1,1.1-2.3,1.6-3.2c0-0.1,0-0.1,0.1-0.1s0.1-0.1,0.1,0s0,0,0,0c0.4,0.3,0.7,0.7,1,1.2
			c0,0,0,0,0,0.1S170.3,92.2,170.2,92.3L170.2,92.3z M171.8,90.7c-5.4-6.8-11.1-11.1-16.9-13.6c-0.1,0,0-0.1,0-0.2
			c0.4-1,0.8-2.1,1.1-3.1c2.6-7.1,5.2-14.1,7.8-21.2c0.4-1,0.8-2.1,1.2-3.1c0-0.1,0-0.1,0.1-0.2h0.1c6.7,2.8,13.2,7.9,19.2,15.8
			C180.1,73.8,175.9,82.3,171.8,90.7L171.8,90.7z M186.3,59.5c-0.4,1-1.1,2.3-1.6,3.2c0,0-0.1,0.1-0.1,0.1s-0.1,0.1-0.2,0s0,0-0.1,0
			c-0.4-0.4-0.8-0.9-1.1-1.4c0,0,0,0,0-0.1c-0.1-0.1-0.1-0.2,0-0.2c0,0,0,0,0,0c0,0,0-0.1,0-0.1c0.5-1.1,1-2.2,1.6-3.2
			c0,0,0-0.1,0.1-0.1s0.1-0.1,0.2,0s0,0,0.1,0c0.4,0.4,0.8,0.9,1.1,1.4c0,0,0,0,0,0.1C186.3,59.2,186.3,59.4,186.3,59.5
			C186.3,59.4,186.3,59.4,186.3,59.5C186.3,59.4,186.3,59.5,186.3,59.5L186.3,59.5z"/>
		<g class="st2">
			
				<image style="overflow:visible;enable-background:new    ;" width="122" height="81" xlink:href="452C72D2AD22C77D.png"  transform="matrix(1 0 0 1 -13.28 99.53)">
			</image>
		</g>
		
			<linearGradient id="SVGID_3_" gradientUnits="userSpaceOnUse" x1="30.3153" y1="32.92" x2="86.6216" y2="32.92" gradientTransform="matrix(1 0 0 -1 0 150)">
			<stop  offset="0" style="stop-color:#EEC253"/>
			<stop  offset="0.51" style="stop-color:#CF5E22"/>
			<stop  offset="0.59" style="stop-color:#D06224"/>
			<stop  offset="0.67" style="stop-color:#D26D2B"/>
			<stop  offset="0.75" style="stop-color:#D68037"/>
			<stop  offset="0.82" style="stop-color:#DB9B47"/>
			<stop  offset="0.9" style="stop-color:#E2BD5C"/>
			<stop  offset="0.97" style="stop-color:#EBE775"/>
			<stop  offset="1" style="stop-color:#EEF87F"/>
		</linearGradient>
		<path class="st3" d="M86.4,91.9c-0.1-0.1-0.3-0.2-0.5-0.2l-55-0.2c-0.2,0-0.4,0.1-0.5,0.2c-0.1,0.2-0.2,0.3-0.1,0.5l6.3,46.9l0,0
			c0,0.1-0.1,0.1-0.1,0.2c0,1.8,9.7,3.3,21.7,3.3c11.8,0,21.5-1.4,21.7-3.2c0-0.1,0-0.1,0.1-0.2l6.6-46.9
			C86.6,92.2,86.6,92,86.4,91.9z"/>
		
			<linearGradient id="SVGID_4_" gradientUnits="userSpaceOnUse" x1="25.17" y1="32.83" x2="92.2" y2="32.83" gradientTransform="matrix(1 0 0 -1 0 150)">
			<stop  offset="0" style="stop-color:#FFFFFF;stop-opacity:0"/>
			<stop  offset="0.44" style="stop-color:#FFFFFF;stop-opacity:1.000000e-02"/>
			<stop  offset="0.59" style="stop-color:#FFFFFF;stop-opacity:3.000000e-02"/>
			<stop  offset="0.71" style="stop-color:#FFFFFF;stop-opacity:8.000000e-02"/>
			<stop  offset="0.8" style="stop-color:#FFFFFF;stop-opacity:0.15"/>
			<stop  offset="0.87" style="stop-color:#FFFFFF;stop-opacity:0.23"/>
			<stop  offset="0.92" style="stop-color:#FFFFFF;stop-opacity:0.3"/>
		</linearGradient>
		<path class="st4" d="M86.4,92c-0.1-0.1-0.3-0.2-0.5-0.2l-55-0.2c-0.2,0-0.4,0.1-0.5,0.2c-0.1,0.2-0.2,0.3-0.1,0.5l6.3,46.9l0,0
			c0,0.1-0.1,0.1-0.1,0.2c0,1.8,9.7,3.3,21.7,3.3c11.8,0,21.5-1.4,21.7-3.2c0-0.1,0-0.1,0.1-0.2l6.6-46.9
			C86.6,92.3,86.6,92.1,86.4,92z"/>
		
			<linearGradient id="SVGID_5_" gradientUnits="userSpaceOnUse" x1="58.595" y1="20.28" x2="58.595" y2="51.8" gradientTransform="matrix(1 0 0 -1 0 150)">
			<stop  offset="0" style="stop-color:#A5A5A5"/>
			<stop  offset="0.12" style="stop-color:#9C9D9E"/>
			<stop  offset="0.31" style="stop-color:#85878B"/>
			<stop  offset="0.55" style="stop-color:#60646C"/>
			<stop  offset="0.63" style="stop-color:#515660"/>
		</linearGradient>
		<path class="st5" d="M44.9,114.7l2.1,14.6l22.7,0.1l2.6-14.6c0,0-1.1-11.3-13.9-11.2S44.9,114.7,44.9,114.7z"/>
		
			<linearGradient id="SVGID_6_" gradientUnits="userSpaceOnUse" x1="15.71" y1="112.5015" x2="46.1701" y2="112.5015" gradientTransform="matrix(1 0 0 -0.88 27.5 213.78)">
			<stop  offset="0.14" style="stop-color:#FBD88D"/>
			<stop  offset="0.97" style="stop-color:#E6A12C"/>
		</linearGradient>
		<path class="st6" d="M69.6,128.7h-1.1c0,0,8.4-23.4-9-23.4h-2.1c-16.7-0.1-9.1,23.4-9.1,23.4h-2.6l-2.5-14.5
			c0-17.8,30.5-17.7,30.5,0.1l-2.6,14.5H69.6z"/>
		
			<linearGradient id="SVGID_7_" gradientUnits="userSpaceOnUse" x1="45.18" y1="95.9318" x2="41.57" y2="95.9318" gradientTransform="matrix(1 0 0 -0.88 27.5 213.78)">
			<stop  offset="0.14" style="stop-color:#FBD88D"/>
			<stop  offset="0.97" style="stop-color:#E6A12C"/>
		</linearGradient>
		<path class="st7" d="M71.6,128.7c0.8,0,0.8,0.8,0.3,1.2h-2.3c0.1-0.4,0.1-0.8,0-1.2H71.6L71.6,128.7z"/>
		<path class="st8" d="M69.6,130h2.3c-0.2,0.2-0.4,0.3-0.7,0.3h-0.4L46,130.2h-1.3c-0.2,0-0.4-0.2-0.5-0.3L64,130H69.6z"/>
		<path class="st8" d="M69.6,128.7c0.1,0.4,0.1,0.8,0,1.2l-5.6,0c0.2-0.4,0.3-0.8,0.2-1.2h4.3L69.6,128.7z"/>
		
			<linearGradient id="SVGID_8_" gradientUnits="userSpaceOnUse" x1="16.52" y1="95.9432" x2="36.8" y2="95.9432" gradientTransform="matrix(1 0 0 -0.88 27.5 213.78)">
			<stop  offset="0.14" style="stop-color:#FBD88D"/>
			<stop  offset="0.97" style="stop-color:#E6A12C"/>
		</linearGradient>
		<path class="st9" d="M64.3,128.7c0.1,0.4,0,0.9-0.3,1.3l-19.8-0.1c-0.3-0.5-0.4-1.2,0.2-1.2h3.8L64.3,128.7z"/>
		
			<linearGradient id="SVGID_9_" gradientUnits="userSpaceOnUse" x1="16.69" y1="96.2955" x2="36.19" y2="96.2955" gradientTransform="matrix(1 0 0 -0.88 27.5 213.78)">
			<stop  offset="0" style="stop-color:#D3BA79"/>
			<stop  offset="0.1" style="stop-color:#C8B073"/>
			<stop  offset="0.27" style="stop-color:#AB9762"/>
			<stop  offset="0.5" style="stop-color:#7C6D47"/>
			<stop  offset="0.77" style="stop-color:#3C3422"/>
			<stop  offset="1" style="stop-color:#000000"/>
		</linearGradient>
		<polygon class="st10" points="44.4,128.8 63.7,128.8 63.5,129.3 44.2,129.3 		"/>
		
			<linearGradient id="SVGID_10_" gradientUnits="userSpaceOnUse" x1="47.67" y1="115.979" x2="43.88" y2="115.979" gradientTransform="matrix(1 0 0 -0.88 27.5 213.78)">
			<stop  offset="0.14" style="stop-color:#FBD88D"/>
			<stop  offset="0.97" style="stop-color:#E6A12C"/>
		</linearGradient>
		<path class="st11" d="M74.9,114.5c0.1,1.9-0.8,1.6-1.2,0.7l0,0c-0.1-2.5-0.8-5-2.1-7.2c0.4,0,0.8-0.2,1.2-0.5
			c1.1,1.9,1.8,4.1,2,6.3L74.9,114.5z"/>
		<path class="st8" d="M71.7,108c1.3,2.2,2,4.6,2.1,7.2l0,0c-0.2-0.4-0.3-0.8-0.3-1.2c0-0.3-0.1-0.5-0.1-0.8
			c-2.5-15.5-26.4-15.9-29.8-1c-0.2,0.7-0.3,1.4-0.3,2.1c0,0.3-0.1,0.5-0.2,0.8c0.5-12.5,13.9-16.6,22.8-12.3
			C68.2,103.9,70.2,105.7,71.7,108z"/>
		<path class="st8" d="M72.8,107.5c-0.3,0.3-0.8,0.4-1.2,0.5c-1.4-2.3-3.5-4.1-5.9-5.2c0.3-0.3,0.5-0.6,0.6-1.1
			C69.1,103,71.3,105,72.8,107.5z"/>
		
			<linearGradient id="SVGID_11_" gradientUnits="userSpaceOnUse" x1="14.1281" y1="120.4226" x2="38.8581" y2="120.4226" gradientTransform="matrix(1 0 0 -0.88 27.5 213.78)">
			<stop  offset="0.14" style="stop-color:#FBD88D"/>
			<stop  offset="0.97" style="stop-color:#E6A12C"/>
		</linearGradient>
		<path class="st12" d="M66.4,101.7c-0.1,0.4-0.3,0.8-0.6,1.1c-9-4.3-22.3-0.2-22.8,12.3c-0.4,0.8-1.3,1.2-1.3-0.2
			c0-0.4,0-0.8,0.1-1.1c0.5-5.5,4.1-10.3,9.3-12.4c4.7-2,10-2,14.7,0L66.4,101.7z"/>
		
			<linearGradient id="SVGID_12_" gradientUnits="userSpaceOnUse" x1="14.29" y1="120.499" x2="38.18" y2="120.499" gradientTransform="matrix(1 0 0 -0.88 27.5 213.78)">
			<stop  offset="0" style="stop-color:#D3BA79"/>
			<stop  offset="0.1" style="stop-color:#C8B073"/>
			<stop  offset="0.27" style="stop-color:#AB9762"/>
			<stop  offset="0.5" style="stop-color:#7C6D47"/>
			<stop  offset="0.77" style="stop-color:#3C3422"/>
			<stop  offset="1" style="stop-color:#000000"/>
		</linearGradient>
		<path class="st13" d="M41.8,115c0.6-13.2,14.4-17.6,23.9-13.4l-0.3,0.6c-9.3-4.1-22.7,0.3-23,13.3L41.8,115z"/>
		
			<linearGradient id="SVGID_13_" gradientUnits="userSpaceOnUse" x1="18.5812" y1="98.0333" x2="17.4612" y2="111.7233" gradientTransform="matrix(1 0 0 -0.88 27.5 213.78)">
			<stop  offset="0" style="stop-color:#D3BA79"/>
			<stop  offset="0.1" style="stop-color:#C8B073"/>
			<stop  offset="0.27" style="stop-color:#AB9762"/>
			<stop  offset="0.5" style="stop-color:#7C6D47"/>
			<stop  offset="0.77" style="stop-color:#3C3422"/>
			<stop  offset="1" style="stop-color:#000000"/>
		</linearGradient>
		<path class="st14" d="M44,115.6l2.2,13.1h1c-0.9-4.3-1.3-8.6-1.3-13L44,115.6z"/>
		<path class="st15" d="M61.3,60.6c0.1,0.4,0.1,0.8-0.1,1.2h-0.5c0.1-0.4,0.1-0.8,0-1.2H61.3L61.3,60.6z"/>
		<path class="st8" d="M60.6,60.6h-4l2.5-0.4c-0.3-2.3-0.3-4.6-0.4-7.3l-0.5,0c0-0.1,0-0.2,0-0.3h1c0,0.1,0,0.2,0,0.3L59,53
			c0,2.5,0.3,4.9,0.9,7.3L60.6,60.6L60.6,60.6L60.6,60.6z"/>
		<path class="st8" d="M60.6,60.6c0.1,0.4,0.1,0.8,0,1.2h-0.8c0.1-0.4,0.1-0.8,0-1.2H60.6z"/>
		<path class="st15" d="M59.8,60.6c0.1,0.4,0.1,0.8,0,1.2h-4c-0.2-0.4-0.2-0.8-0.1-1.2H59.8L59.8,60.6z"/>
		<path class="st8" d="M59.4,52c0.2,0.2,0.1,0.4-0.1,0.6H59c0.1-0.2,0.1-0.4,0.1-0.6H59.4L59.4,52z"/>
		
			<linearGradient id="SVGID_14_" gradientUnits="userSpaceOnUse" x1="28.97" y1="411.5743" x2="33.35" y2="411.5743" gradientTransform="matrix(1 0 0 -0.74 26.55 361.36)">
			<stop  offset="0.21" style="stop-color:#FBD88D"/>
			<stop  offset="0.97" style="stop-color:#E6A12C"/>
		</linearGradient>
		<path class="st16" d="M60.8,60.5l-0.8-0.2C59.3,57.9,59,55.5,59,53l0.2-0.1C59.1,55.6,59.7,58.1,60.8,60.5z M58.7,53l-0.5,0
			c-0.4,3.7-0.5,5.2-1.8,7.7h0.2l2.5-0.4C58.8,57.9,58.8,55.6,58.7,53z"/>
		<path class="st15" d="M59,52c0.1,0.2,0,0.4-0.1,0.6h-1.1c-0.2-0.2-0.2-0.4-0.1-0.6H59z"/>
		
			<linearGradient id="SVGID_15_" gradientUnits="userSpaceOnUse" x1="31.1424" y1="407.7762" x2="31.1424" y2="418.4062" gradientTransform="matrix(1 0 0 -0.74 26.55 361.36)">
			<stop  offset="0" style="stop-color:#D3BA79"/>
			<stop  offset="0.1" style="stop-color:#C8B073"/>
			<stop  offset="0.27" style="stop-color:#AB9762"/>
			<stop  offset="0.5" style="stop-color:#7C6D47"/>
			<stop  offset="0.77" style="stop-color:#3C3422"/>
			<stop  offset="1" style="stop-color:#000000"/>
		</linearGradient>
		<path class="st17" d="M58.3,53.2c0,2.4-0.5,4.8-1.5,7c0.4,0.1,0.9,0.1,1.4,0c0.3-2.3,0.5-4.6,0.4-6.9L58.3,53.2z"/>
		
			<linearGradient id="SVGID_16_" gradientUnits="userSpaceOnUse" x1="30.4076" y1="407.8862" x2="30.4076" y2="405.6662" gradientTransform="matrix(1 0 0 -0.74 26.55 361.36)">
			<stop  offset="0" style="stop-color:#D3BA79"/>
			<stop  offset="0.1" style="stop-color:#C8B073"/>
			<stop  offset="0.27" style="stop-color:#AB9762"/>
			<stop  offset="0.5" style="stop-color:#7C6D47"/>
			<stop  offset="0.77" style="stop-color:#3C3422"/>
			<stop  offset="1" style="stop-color:#000000"/>
		</linearGradient>
		<path class="st18" d="M56,60.6c0,0.3,0,0.6,0.1,0.9h1.7l0.1-0.9L56,60.6z"/>
		
			<linearGradient id="SVGID_17_" gradientUnits="userSpaceOnUse" x1="16.89" y1="156.1193" x2="42.9" y2="156.1193" gradientTransform="matrix(1 0 0 -0.88 27.5 213.78)">
			<stop  offset="0" style="stop-color:#EA864D"/>
			<stop  offset="0.27" style="stop-color:#E24F2E"/>
			<stop  offset="0.52" style="stop-color:#D13F3F"/>
			<stop  offset="1" style="stop-color:#A9186A"/>
		</linearGradient>
		<path class="st19" d="M88.8,91h-7.7C71.7,85.6,64.8,75.7,60,61.8h0.8C67.1,75.7,76.3,85.6,88.8,91z"/>
		
			<linearGradient id="SVGID_18_" gradientUnits="userSpaceOnUse" x1="16.89" y1="156.1534" x2="42.9" y2="156.1534" gradientTransform="matrix(1 0 0 -0.88 27.5 213.78)">
			<stop  offset="0" style="stop-color:#EA864D"/>
			<stop  offset="0.27" style="stop-color:#E24F2E"/>
			<stop  offset="0.52" style="stop-color:#D13F3F"/>
			<stop  offset="1" style="stop-color:#A9186A"/>
		</linearGradient>
		<path class="st20" d="M72,90.9l-9.1-0.1c-2.2-5.6-3.5-15.2-4.2-29h0.7C62.1,75.6,66.2,85.4,72,90.9z"/>
		
			<linearGradient id="SVGID_19_" gradientUnits="userSpaceOnUse" x1="16.9" y1="156.25" x2="42.9" y2="156.25" gradientTransform="matrix(1 0 0 -0.88 27.5 213.78)">
			<stop  offset="0" style="stop-color:#EA864D"/>
			<stop  offset="0.27" style="stop-color:#E24F2E"/>
			<stop  offset="0.52" style="stop-color:#D13F3F"/>
			<stop  offset="1" style="stop-color:#A9186A"/>
		</linearGradient>
		<path class="st21" d="M57.4,61.8H58c-1.3,13.8-2.8,23.2-4.3,29l0,0l-9.1-0.1l0,0C49.7,84.8,54.1,75.5,57.4,61.8z"/>
		
			<linearGradient id="SVGID_20_" gradientUnits="userSpaceOnUse" x1="16.9" y1="156.3466" x2="42.9" y2="156.3466" gradientTransform="matrix(1 0 0 -0.88 27.5 213.78)">
			<stop  offset="0" style="stop-color:#EA864D"/>
			<stop  offset="0.27" style="stop-color:#E24F2E"/>
			<stop  offset="0.52" style="stop-color:#D13F3F"/>
			<stop  offset="1" style="stop-color:#A9186A"/>
		</linearGradient>
		<path class="st22" d="M56.4,61.8h0.3c-5.3,13.6-12.5,22.8-21.2,28.8l0,0h-7.1C39.8,84.6,49.4,75.4,56.4,61.8z"/>
		
			<linearGradient id="SVGID_21_" gradientUnits="userSpaceOnUse" x1="16.89" y1="156.1193" x2="42.9" y2="156.1193" gradientTransform="matrix(1 0 0 -0.88 27.5 213.78)">
			<stop  offset="0" style="stop-color:#F6D697"/>
			<stop  offset="0.23" style="stop-color:#F2D195"/>
			<stop  offset="0.51" style="stop-color:#E8C190"/>
			<stop  offset="0.82" style="stop-color:#D7A889"/>
			<stop  offset="1" style="stop-color:#CB9683"/>
		</linearGradient>
		<path class="st23" d="M81.1,91L72,90.9c-5.8-5.5-9.9-15.3-12.6-29.1H60C64.8,75.7,71.7,85.6,81.1,91z"/>
		
			<linearGradient id="SVGID_22_" gradientUnits="userSpaceOnUse" x1="16.9" y1="156.2273" x2="42.9" y2="156.2273" gradientTransform="matrix(1 0 0 -0.88 27.5 213.78)">
			<stop  offset="0" style="stop-color:#F6D697"/>
			<stop  offset="0.23" style="stop-color:#F2D195"/>
			<stop  offset="0.51" style="stop-color:#E8C190"/>
			<stop  offset="0.82" style="stop-color:#D7A889"/>
			<stop  offset="1" style="stop-color:#CB9683"/>
		</linearGradient>
		<path class="st24" d="M62.9,90.8l-9.1-0.1l0,0c1.4-5.7,3-15.2,4.3-29h0.7C59.4,75.6,60.7,85.2,62.9,90.8z"/>
		<g>
			
				<image style="overflow:visible;enable-background:new    ;" width="132" height="83" xlink:href="452C72D2AD22C77F.png"  transform="matrix(1 0 0 1 -7.28 56.53)">
			</image>
		</g>
		
			<linearGradient id="SVGID_23_" gradientUnits="userSpaceOnUse" x1="16.9" y1="156.3011" x2="42.9" y2="156.3011" gradientTransform="matrix(1 0 0 -0.88 27.5 213.78)">
			<stop  offset="0" style="stop-color:#F6D697"/>
			<stop  offset="0.23" style="stop-color:#F2D195"/>
			<stop  offset="0.51" style="stop-color:#E8C190"/>
			<stop  offset="0.82" style="stop-color:#D7A889"/>
			<stop  offset="1" style="stop-color:#CB9683"/>
		</linearGradient>
		<path class="st25" d="M56.7,61.8h0.7c-3.3,13.7-7.7,23-12.7,28.9l0,0l-9.1-0.1l0,0C44.2,84.6,51.4,75.4,56.7,61.8z"/>
		<path class="st26" d="M56,62.7c1.1,0.1,2.1,0.2,3.2,0.4c0.4,10.2,4.2,19.9,10.7,27.8H72l9.1,0.1h1.3c-9.9-5.1-18-15.6-21.5-27.8
			c0.2-0.1,0.3-0.2,0.4-0.2c-0.2-0.4-0.4-0.8-0.6-1.2h-4.4L56,62.7z"/>
		
			<linearGradient id="SVGID_24_" gradientUnits="userSpaceOnUse" x1="26.8279" y1="49.8964" x2="42.3879" y2="70.2963" gradientTransform="matrix(1 0 0 -1 0 150)">
			<stop  offset="0" style="stop-color:#EA864D"/>
			<stop  offset="0.29" style="stop-color:#E24F2E"/>
			<stop  offset="0.54" style="stop-color:#D13F3F"/>
			<stop  offset="1" style="stop-color:#A9186A"/>
		</linearGradient>
		<path class="st27" d="M29.4,101.2c1-0.6,1.9-1.4,2.6-2.3c1.5-1.8,2.5-3.9,3-6.1h-6.9C28.7,95.5,29.1,98.8,29.4,101.2z"/>
		
			<linearGradient id="SVGID_25_" gradientUnits="userSpaceOnUse" x1="35.4864" y1="44.9646" x2="43.0264" y2="67.4646" gradientTransform="matrix(1 0 0 -1 0 150)">
			<stop  offset="0" style="stop-color:#F6D697"/>
			<stop  offset="0.23" style="stop-color:#F2D195"/>
			<stop  offset="0.51" style="stop-color:#E8C190"/>
			<stop  offset="0.82" style="stop-color:#D7A889"/>
			<stop  offset="1" style="stop-color:#CB9683"/>
		</linearGradient>
		<path class="st28" d="M36.5,97.4c0.5,1.4,1.3,2.7,2.4,3.9c1.6-1.8,3-3.8,3.9-6c0.4-0.8,0.8-1.7,1.2-2.5h-8.8
			C35.5,94.3,35.9,95.9,36.5,97.4z"/>
		
			<linearGradient id="SVGID_26_" gradientUnits="userSpaceOnUse" x1="45.3038" y1="50.1232" x2="54.8438" y2="68.5932" gradientTransform="matrix(1 0 0 -1 0 150)">
			<stop  offset="0.24" style="stop-color:#E24F2E"/>
			<stop  offset="0.5" style="stop-color:#D13F3F"/>
			<stop  offset="1" style="stop-color:#A9186A"/>
		</linearGradient>
		<path class="st29" d="M48.4,101.3c0.4-0.3,0.7-0.7,1-1.1c1.5-1.9,2.9-5.3,4-7.4h-9C45.2,95.6,46.6,99.9,48.4,101.3z"/>
		
			<linearGradient id="SVGID_27_" gradientUnits="userSpaceOnUse" x1="76.8451" y1="69.7432" x2="89.8651" y2="48.8132" gradientTransform="matrix(1 0 0 -1 0 150)">
			<stop  offset="0" style="stop-color:#EA864D"/>
			<stop  offset="0.27" style="stop-color:#E24F2E"/>
			<stop  offset="0.52" style="stop-color:#D13F3F"/>
			<stop  offset="1" style="stop-color:#A9186A"/>
		</linearGradient>
		<path class="st30" d="M83.1,97.1c1,2,2.4,3.8,4.1,5.3c0.4-3.2,1-6.5,1.7-9.6h-7.1C82.1,94.3,82.6,95.7,83.1,97.1z"/>
		
			<linearGradient id="SVGID_28_" gradientUnits="userSpaceOnUse" x1="86.4648" y1="38.2282" x2="75.9048" y2="60.6982" gradientTransform="matrix(1 0 0 -1 0 150)">
			<stop  offset="0" style="stop-color:#F6D697"/>
			<stop  offset="0.88" style="stop-color:#CB9683"/>
		</linearGradient>
		<path class="st31" d="M77,100.1c0.5,0.5,1.1,1,1.8,1.3c1.5-2.8,2.7-5.6,3.7-8.6h-9.8C73.6,95.5,75.1,98,77,100.1z"/>
		
			<linearGradient id="SVGID_29_" gradientUnits="userSpaceOnUse" x1="72.802" y1="42.7773" x2="66.9221" y2="60.0773" gradientTransform="matrix(1 0 0 -1 0 150)">
			<stop  offset="4.000000e-02" style="stop-color:#E24F2E"/>
			<stop  offset="0.37" style="stop-color:#D13F3F"/>
			<stop  offset="1" style="stop-color:#A9186A"/>
		</linearGradient>
		<path class="st32" d="M64,93.3c1.2,2.8,2.7,6.4,4.7,8c0.7-1.1,1.2-2.2,1.7-3.5c0.7-1.7,1.2-3.6,1.7-5h-8.2L64,93.3z"/>
		
			<linearGradient id="SVGID_30_" gradientUnits="userSpaceOnUse" x1="57.5858" y1="44.8497" x2="59.2058" y2="72.0997" gradientTransform="matrix(1 0 0 -1 0 150)">
			<stop  offset="0" style="stop-color:#F6D697"/>
			<stop  offset="0.23" style="stop-color:#F2D195"/>
			<stop  offset="0.51" style="stop-color:#E8C190"/>
			<stop  offset="0.82" style="stop-color:#D7A889"/>
			<stop  offset="1" style="stop-color:#CB9683"/>
		</linearGradient>
		<path class="st33" d="M56.1,98.7c0.4,0.9,1,1.8,1.7,2.6c2.2-1.4,4.1-5.7,5.1-8.5h-9.1C54.4,94.8,55.2,96.8,56.1,98.7z"/>
		
			<radialGradient id="SVGID_31_" cx="58.4258" cy="44.3941" r="22.7583" gradientTransform="matrix(1 0 0 -1.02 0 136.86)" gradientUnits="userSpaceOnUse">
			<stop  offset="1.000000e-02" style="stop-color:#FEECD8"/>
			<stop  offset="0.51" style="stop-color:#FCE2C3"/>
			<stop  offset="0.69" style="stop-color:#FCE1C0"/>
			<stop  offset="0.8" style="stop-color:#FCDDB8"/>
			<stop  offset="0.9" style="stop-color:#FBD6A9"/>
			<stop  offset="0.99" style="stop-color:#FACC94"/>
			<stop  offset="1" style="stop-color:#FACB92"/>
		</radialGradient>
		<path class="st34" d="M90.5,90.7h-1.7h-3.8h-7.6h-9.3l-26-0.2l-5.5-0.1c-2.8-0.1-5.6-0.1-8.3-0.2h-2c-0.2,0.7,0,1.5,0.6,2h0.5
			l46.7,0.2h10.7h5C90.4,91.9,90.6,91.3,90.5,90.7z"/>
		
			<linearGradient id="SVGID_32_" gradientUnits="userSpaceOnUse" x1="27.59" y1="57.18" x2="89.48" y2="57.18" gradientTransform="matrix(1 0 0 -1 0 150)">
			<stop  offset="0" style="stop-color:#C588FF"/>
			<stop  offset="1" style="stop-color:#000000"/>
		</linearGradient>
		<path class="st35" d="M86.1,92.3h3.3c-0.2,0.3-0.2,0.7-0.3,1l0,0l-8.8-0.2H70.3h-8.5h-8.1h-9.4h-9.2h-7.3
			c-0.1-0.3-0.2-0.6-0.2-0.9l47.6,0.2L86.1,92.3z"/>
		<path class="st36" d="M67.1,32.3c-4,0.8-8,1.4-12,2c-0.1,0.4-0.2,0.9-0.4,1.3c4.6-1.1,9.3-2.1,13.9-3.1l1.1,4.5
			c-5.5,0.8-10.9,1.6-16.4,2.5c-0.2,0.5-0.4,1-0.6,1.5c6-1.3,12-2.4,18.1-3.6c0.4,1.6,0.7,3.2,1.1,4.8c-7.1,0.8-14.1,1.8-21.1,2.8
			L50,46.8c5.8-1.2,11.6-2.3,17.5-3.3c0.9,5.1,1.8,10.3,2.7,15.5c-2.2,0.3-4.3,0.7-6.5,1c0-0.3,0-0.5,0-0.8
			c-3.5,0.4-7.1,0.8-10.6,1.3l0.1,0.7c-2.2,0.4-4.3,0.9-6.5,1.4c0-3.6,0.1-7.2,0.2-10.9c-1.2,1.5-2.5,2.8-3.9,4.1
			c-1.6-1.9-3.2-3.9-4.8-5.8c2-0.9,3.8-2.1,5.4-3.6c-1.3,0.2-2.6,0.4-3.8,0.6c-0.2-0.9-0.5-1.8-0.7-2.7c2.6-0.6,5.3-1.2,7.9-1.8
			c0.4-0.6,0.8-1.2,1.2-1.8c-2.5,0.4-4.9,0.9-7.3,1.3c-0.2-0.9-0.5-1.8-0.7-2.7c3.3-0.8,6.7-1.7,10-2.5c0.3-0.6,0.5-1.2,0.8-1.8
			c-3,0.4-6,0.8-9,1.1c-0.3-1-0.7-2-1-3c8.3-1.4,16.5-3.3,24.6-5.6C66,29,66.5,30.7,67.1,32.3z M63.5,48.3v-0.7
			c-4.1,0.5-8.1,1.1-12.1,1.7c0.1,0.5,0.2,1,0.2,1.5C55.5,50,59.5,49.1,63.5,48.3z M63.5,52.1c0-0.2,0-0.5,0-0.7
			c-3.9,0.6-7.7,1.2-11.6,1.8c0.1,0.5,0.2,0.9,0.2,1.4C55.9,53.7,59.7,52.9,63.5,52.1z M63.6,55.9c0-0.2,0-0.5,0-0.8
			c-3.7,0.6-7.4,1.1-11.1,1.7c0,0.4,0.1,0.8,0.2,1.2C56.3,57.4,59.9,56.6,63.6,55.9z"/>
		<path class="st36" d="M109.3,39.3c-3,4.1-7,7.3-11.6,9.4c-1.1-1.9-2.1-3.9-3.2-5.8c-6.2,0.9-12.4,1.9-18.6,2.9
			c-0.2-1-0.5-1.9-0.7-2.9c2.4-0.7,4.8-1.3,7.2-1.9c0.2-0.7,0.3-1.4,0.5-2l-0.8,0.1l0.1,0.6c-2,0.3-4,0.7-5.9,1.1
			c0.2-4,0.4-8,0.6-12.1c5-0.8,10.1-1.5,15.1-2.2c0.7,3.8,1.4,7.6,2.1,11.3c-2,0.3-3.9,0.6-5.9,0.9c0-0.1,0-0.2,0-0.4l-0.8,0.1
			c0.1,0.4,0.2,0.8,0.2,1.2l6.9-1.8c0.3,1.3,0.5,2.7,0.8,4c4.7-0.7,8.3-2.5,10.9-5.3C107.3,37.6,108.3,38.5,109.3,39.3z M110,49
			c-3,4.3-7.1,7.8-11.9,10.1c-0.7-1.4-1.4-2.7-2.2-4.1c-0.8,1.4-1.5,2.8-2.3,4.2c-1.9-1.3-3.3-3.1-4.3-5.1l2-1.3l-2.6,0.4l0.1-0.7
			l-0.9,0.1c0.4,2.2,0.9,4.3,1.3,6.4l-5.7,1.1c0.2-2.3,0.4-4.7,0.6-7l-0.8,0.1c0,0.1,0,0.2,0,0.4L81.4,54l1.6,0.7
			c-0.3,2.1-1.4,4-3.1,5.3c-1.2-1.2-2.5-2.4-3.7-3.6c1.3-0.4,2.5-1.2,3.5-2.1L78,54.7l0.8-8.3c4.5-0.9,9-1.8,13.5-2.6
			c0.5,2.9,1,5.8,1.6,8.7L92,52.6c1,0.8,2.2,1.4,3.5,1.7c-0.3-0.7-0.7-1.3-1.1-2c5.5-0.7,9.6-2.7,12.5-6L110,49z M88.4,31.1
			c0-0.2,0-0.3,0-0.5c-2.4,0.1-4.8,0.1-7.2,0.2c0.1,0.6,0.2,1.3,0.3,2C83.8,32.2,86.1,31.7,88.4,31.1z M88.4,35c0-0.2,0-0.5,0-0.7
			c-2.2,0.3-4.4,0.6-6.6,0.9c0,0.4,0.1,0.8,0.2,1.2C84.1,36,86.2,35.5,88.4,35L88.4,35z M89.2,48.8c0-0.4,0-0.7,0.1-1.1
			c-2.3,0.2-4.5,0.4-6.8,0.7c0.1,0.8,0.3,1.5,0.4,2.2L89.2,48.8z M108.7,29.3c-2.9,3.9-6.8,7-11.3,9c-1.2-2.2-2.4-4.4-3.7-6.5
			c5.2-0.6,9.1-2.2,11.9-5.1L108.7,29.3z"/>
		<path class="st36" d="M138.4,27.7c0.1,2.5,0.1,5,0.2,7.5c2.1-0.2,4.1-0.4,6.2-0.6c0.3,2.1,0.6,4.2,0.8,6.3c-7.1,0-14.1,0-21.2,0.2
			c-0.1,1.4-0.3,2.8-0.5,4c5.5-0.7,11.1-1.3,16.6-1.9c0.4,5.4,0.8,10.8,1.2,16.2c-2.3,0-4.6,0.1-6.9,0.2c0.4-3.6,0.9-7.2,1.3-10.9
			c-4.3,0-8.6,0-12.9,0c-1.2,4.8-3,8.3-5.4,10.6c-1.4-2.2-2.9-4.3-4.4-6.5c2.1-1.3,3.8-3.2,4.7-5.5c1.3-2.2,2.2-8.8,2.6-19.9
			l3.8,0.8c0.1,1.7,0.1,4.3,0.1,7.9c0,0.3,0,0.5,0,0.8c2.6-0.3,5.1-0.6,7.7-0.9c0.6-2.9,1.2-5.8,1.9-8.7L138.4,27.7z"/>
		<path class="st36" d="M106.1,72.3c-2.7,0.3-5.5,0.7-8.2,1l2.3,1.7c-0.8,1.4-1.6,2.8-2.5,4.2c1.2,1.2,2.3,2.4,3.4,3.6
			c-1.3,1-2.7,2-4,3c-1.3-2.2-2.7-4.3-4-6.5c1.4-2,2.8-4,4.2-6L92.5,74l2.1,1.4c-1,1.5-1.9,3-2.8,4.5c1.2,1.3,2.5,2.7,3.7,4
			c-1.3,1-2.6,1.9-3.9,2.8c-1.3-2-2.6-4-3.9-6c0.5,2.8,0.9,5.6,1.4,8.4l-4.5,0.9c0-0.2,0-0.3,0-0.5l-0.5,0.1
			c0.1,0.6,0.1,1.2,0.2,1.7l4.1-1c0.4,1.6,0.8,3.2,1.2,4.8L84.8,96l0.5,4.2l-5.9,1l-0.2-4.4l-4.6,0.7l-1-3.4
			c1.8-0.5,3.6-0.9,5.4-1.3l-0.1-2.2l-0.5,0.1l0.2,1l-4.5,1c-0.1-4.8-0.2-9.6-0.3-14.4l4.7-1.1v-1.4l-5,1c-0.3-1.2-0.7-2.3-1-3.4
			c1.9-0.6,3.9-1.2,5.9-1.8c0-1,0-2-0.1-3l3.1,0.1l0.2,1.9l4.2-1.3l1.2,4.9L82.4,75c0.1,0.4,0.1,0.8,0.2,1.3l4.3-0.9
			c0.2,1.4,0.5,2.9,0.7,4.4c1.3-1.8,2.7-3.7,4-5.5l-3,0.4c-0.3-1.2-0.7-2.5-1-3.8c5.8-1.3,11.6-2.5,17.4-3.7
			C105.3,68.9,105.7,70.6,106.1,72.3z M78.9,82.7c0-0.7-0.1-1.4-0.1-2.2l-1.5,0.2c0.1,0.8,0.2,1.6,0.3,2.4L78.9,82.7z M79.1,87.5
			L79,85.8l-1,0.2c0.1,0.6,0.2,1.2,0.2,1.9L79.1,87.5z M83.1,81.5l1.3-0.3c0-0.4,0-0.8,0-1.1L83,80.2C83,80.6,83.1,81,83.1,81.5z
			 M83.7,86.1l0.8-0.2V85l-0.9,0.1C83.6,85.4,83.6,85.8,83.7,86.1z M105.7,89.6c-1.8,0.2-3.7,0.4-5.5,0.6l0.7,3.9l5.9-1.1
			c0.4,1.8,0.8,3.5,1.1,5.2c-6,0.5-12,1.1-18,1.8c-0.3-1.2-0.6-2.3-0.9-3.5c2.1-0.4,4.2-0.9,6.3-1.3l0.4-4.5
			c-1.7,0.2-3.5,0.4-5.2,0.7L89.7,88c5-1.2,10-2.3,15-3.4L105.7,89.6z M106.2,74.6c-0.8,1.2-1.7,2.5-2.5,3.7l3.5,3.4l-4,2.8
			c-1.3-2-2.7-4.1-4.1-6.1c1.5-1.9,3-3.8,4.5-5.7L106.2,74.6z"/>
		<path class="st36" d="M126.1,85.9c1.3-0.6,2.4-1.6,3.2-2.8l2.9,1.4c-0.6,2.7-2,5.1-4,7c-0.8-1-1.6-2-2.4-2.9l-3,0.3
			c1.8,0.8,3.5,1.7,5.2,2.7l-3.4,4.2c-0.7-0.9-1.3-1.8-2.1-2.7c0.2,1.8,0.3,3.6,0.5,5.4c-2,0.2-3.9,0.4-5.9,0.7
			c0.1-1.4,0.2-2.8,0.2-4.3c-1,1.5-2.1,2.8-3.5,3.9c-1.1-1.7-2.2-3.3-3.4-5c2.3-0.9,4.3-2.3,5.9-4.2l-4.5,0.6
			c-0.2-1.1-0.5-2.1-0.7-3.2c2.2-0.5,4.5-1.1,6.7-1.6l0.1-2.1c-2.3,0.3-4.5,0.7-6.8,1.1c1.3-1.6,2.6-3.2,3.8-4.8l-4.1,0.6
			c-0.2-0.7-0.3-1.4-0.5-2.2l2.5-0.5c0.2-3.3,0.4-6.6,0.7-9.9l3.4,0.2c0,0.1,0,0.2,0,0.3c3.5-0.8,7-1.5,10.6-2.3
			c0.2,1,0.3,1.9,0.5,2.9c-3.6,0.4-7.2,0.9-10.8,1.4c0,0.4,0.1,0.8,0.1,1.2c3.3-0.8,6.7-1.5,10.1-2.2c0.1,0.8,0.3,1.6,0.4,2.4
			c-3.4,0.5-6.9,1-10.3,1.5c0,0.3,0.1,0.6,0.1,0.9c3.3-0.7,6.6-1.4,9.9-2.1c0.1,0.8,0.3,1.5,0.4,2.3c-3.4,0.5-6.8,0.9-10.1,1.5
			c0,0.3,0.1,0.6,0.1,0.9c3.8-0.7,7.6-1.5,11.4-2.2c0.2,1.1,0.4,2.1,0.6,3.2l-2.2,0.3c0.9,1,1.7,2,2.4,3.2c-1.6,0.8-3.1,1.6-4.7,2.5
			c-0.1-0.4-0.2-0.9-0.3-1.3c-2.2,0.3-4.5,0.7-6.8,1l3.3,0.3l0.1,1.1l3.9-0.9C125.8,84.4,126,85.2,126.1,85.9z M123.6,78.3l-4.3,0.6
			l-0.8,1.7l5.3-1.8C123.8,78.6,123.7,78.5,123.6,78.3z M135.6,89.1c-0.8,1.8-1.5,3.6-2.3,5.3c1-0.3,1.9-0.7,2.9-1
			c-0.4-0.5-0.8-1.1-1.2-1.6l2.7-2.2c2.3,1.6,4.4,3.6,5.9,6c-1.6,1.1-3.2,2.1-4.7,3.2c-0.2-0.7-0.4-1.3-0.6-1.9
			c-4.3,0.4-8.6,0.9-12.8,1.4c2.6-3.6,5.2-7.2,7.8-10.8L135.6,89.1z M143.2,68.6c-3.8,2.1-8,3.4-12.3,4.1c-0.5-1.5-1-3-1.5-4.6
			c4.4-0.1,8.7-0.8,12.9-1.9L143.2,68.6z M143.9,73.2c-3.8,2.4-8,4.1-12.5,4.9l-1.5-4.6c4.5-0.2,8.9-1.2,13-2.9L143.9,73.2z
			 M144.4,78c-3.8,2.6-8.1,4.4-12.6,5.3c-0.5-1.6-1-3.1-1.5-4.7c4.6-0.2,9-1.3,13.2-3.3L144.4,78z M144.9,86.6
			c-1.2,1.6-2.4,3.3-3.5,4.9c-2-1.3-3.6-3.1-4.5-5.4l-3.9-0.1l-0.6-2.7c2.4-0.4,4.7-0.8,7.1-1.2C140.1,84.2,141.9,85.7,144.9,86.6
			L144.9,86.6z"/>
		<path class="st36" d="M160.6,70.2l-5.2,1.2c0,0.4,0.1,0.7,0.1,1.1l4.2-1.1c0.2,1.2,0.4,2.3,0.5,3.5l-4.5,0.4l0.1,1.2l3.9-0.8
			c0.2,1.2,0.3,2.3,0.5,3.5l-4.1,0.3c0,0.3,0,0.6,0,0.8l6.2-0.3c-0.7-1.1-1.3-2.2-2-3.3c0.9-0.1,1.7-0.4,2.6-0.7
			c-0.5-0.4-1-0.8-1.4-1.1l0.4-0.4l-2.2-3.6c1.2-0.2,2.3-0.6,3.4-1.1c-0.6-0.5-1.1-0.9-1.6-1.3l1.6-1.9l2.9,1.5
			c0.6-0.4,1.3-0.8,2-1.4l1.6,1.5c-0.3,0.5-0.7,1-1.1,1.5c0.6,0.4,1.1,0.8,1.6,1.1c0-0.7,0-1.4,0-2.2c2.9-0.3,5.9-0.6,8.9-0.8
			c0.1,4,0.2,7.9,0.2,11.9h1.1c0.4,2.5,0.8,5,1.1,7.5c-2.1,0.1-4.2,0.3-6.3,0.4c0.3-1.2,0.7-2.4,1-3.6c-7.5-0.4-15-0.7-22.5-0.9
			c0.1,1.6,0.3,3.2,0.5,4.7l-6.3,0.5c0.5-2.5,1.1-5.1,1.6-7.6h1.1c0.5-4.2,1-8.3,1.4-12.5l1.9,0.2c1.8-0.6,3.5-1.3,5.3-1.9
			C159.6,67.6,160.1,68.9,160.6,70.2z M170.2,88.5c3-0.2,6-0.3,9-0.4l0.6,5.2c-4.3-0.1-8.7-0.3-13-0.3c0,0.1,0.1,0.2,0.1,0.4
			c-0.2,4.4-2.9,6.5-8.1,6.3c-0.5-1.9-1-3.8-1.5-5.7c2.7,0.1,4.4-0.3,5.2-1.1c-4.1-0.1-8.3-0.1-12.4,0l-0.5-3.1
			c4.4-0.3,8.8-0.6,13.2-0.9l2-0.9l0.1,0.1l1.3-0.8c-3.3-0.1-6.6-0.2-9.9-0.3c-0.1-0.9-0.2-1.8-0.3-2.6c5.5-0.3,11.1-0.5,16.6-0.6
			C171.9,85.3,171,86.9,170.2,88.5z M165.9,74.4c0.4-0.2,0.8-0.5,1.2-0.8c-0.4-0.5-0.9-1-1.2-1.4c-0.5,0.5-1.1,0.9-1.7,1.2
			C164.7,73.7,165.3,74,165.9,74.4z M166.7,79.8c-0.4-0.4-0.6-0.8-0.9-1.1c-0.6,0.5-1.3,0.9-1.9,1.2L166.7,79.8z M173.8,79.6
			c0-0.2,0.1-0.4,0.1-0.6l-3.1,0.1l-0.5-2.5l4.1-0.7l0.1-0.7l-3.7,0.1c-0.2-0.8-0.3-1.7-0.5-2.6l4.7-0.7c0-0.2,0.1-0.4,0.1-0.7
			l-5-0.3v-0.1l-1.9,2l1.5,1.4c-0.4,0.6-0.8,1.2-1.3,1.8l1.5,1.1l-2.5,2.7L173.8,79.6z"/>
		<path class="st37" d="M72,57.9c0.3-0.5,0.5-1.1,0.4-1.7c-0.8-4.6-1.6-9.1-2.4-13.7l2.2-0.3c0.4-0.1,0.7-0.2,1.1-0.4l0.5,2.2
			c0.3,1.1,1.4,1.9,2.5,1.7c-0.2,2.1-0.4,4.1-0.6,6.2l-0.3,0.1c-1.2,0.4-1.8,1.7-1.4,2.9c0.1,0.3,0.3,0.6,0.6,0.9
			c1.2,1.2,2.5,2.4,3.7,3.6c0.8,0.8,2,0.9,2.9,0.2l0.5-0.4c0.1,0.1,0.2,0.2,0.3,0.3c0.4,0.4,1,0.6,1.5,0.6c0.1,0,0.3,0,0.4,0
			l5.7-1.1c0.6-0.1,1.1-0.5,1.5-1l0.1-0.2c0.4,0.3,0.7,0.6,1.1,0.9c1,0.7,2.4,0.5,3.1-0.5c0-0.1,0.1-0.1,0.1-0.2l0.3-0.5l0.2,0.4
			c0.6,1.1,1.9,1.5,3,1c5.1-2.5,9.5-6.2,12.7-10.9c0.7-0.9,0.5-2.2-0.4-3l-3-2.7c-0.1-0.1-0.3-0.2-0.4-0.3c1.2-1.1,2.2-2.4,3.2-3.7
			c0.7-0.9,0.5-2.2-0.3-3l-3-2.6c-0.2-0.2-0.5-0.3-0.8-0.4c1.3-1.2,2.5-2.5,3.5-3.9c0.7-1,0.6-2.3-0.3-3.1l-3-2.6
			c-0.9-0.8-2.3-0.7-3.1,0.1C102,25,99,26.4,95,27c-0.2-1.1-0.4-2.1-0.6-3.2c-0.2-1.2-1.4-2-2.6-1.8c-5,0.7-10.1,1.4-15.2,2.2
			c-1.1,0.2-1.9,1.1-1.9,2.1c-0.2,4-0.4,8-0.6,12.1c0,0.1,0,0.2,0,0.4L74,38.8c-0.3-1.4-0.6-2.7-0.9-4.1c-0.2-0.7-0.7-1.4-1.4-1.6
			c-0.3-1.1-0.6-2.3-0.8-3.4c-0.2-1-1.1-1.7-2.1-1.7c-0.4-1.2-0.8-2.4-1.2-3.6c-0.4-1.1-1.6-1.8-2.7-1.5c-8,2.3-16.1,4.1-24.3,5.6
			c-1.2,0.2-2.1,1.3-1.9,2.5c0,0.1,0.1,0.3,0.1,0.4l1,3c0,0.1,0,0.1,0.1,0.2l-0.2,0.1c-1.2,0.3-1.9,1.6-1.6,2.7l0.6,2.2
			c-0.6,0.1-1.1,0.5-1.4,1c-0.3,0.5-0.4,1.2-0.2,1.7l0.7,2.7c0,0.1,0,0.2,0.1,0.2l-0.3,0.2c-0.7,0.3-1.2,0.9-1.3,1.6
			c-0.2,0.7,0,1.4,0.5,2c1.6,1.9,3.2,3.8,4.8,5.7c0.4,0.5,1,0.8,1.6,0.8c0.6,0.1,1.2-0.1,1.7-0.5l0.1-0.1c0,1.7,0,3.4-0.1,5.2
			c0,1.2,1,2.3,2.2,2.3c0,0,0,0,0,0c0.2,0,0.3,0,0.5,0c2.1-0.5,4.3-0.9,6.4-1.4c0.6-0.1,1-0.5,1.4-0.9c2.4-0.3,4.8-0.6,7.2-0.9
			l0.1,0.1c0.5,0.4,1.2,0.6,1.8,0.5c2.2-0.4,4.3-0.7,6.4-1C71.2,58.7,71.7,58.4,72,57.9z M95.8,47.5L95.8,47.5
			c-0.1-0.1-0.1-0.2-0.1-0.3c0,0.1,0,0.1,0.1,0.2L95.8,47.5z"/>
		<path class="st37" d="M111.3,50c-0.1,0.6,0,1.3,0.3,1.8c1.5,2.2,2.9,4.3,4.4,6.5c0.4,0.6,1,0.9,1.6,1c0.7,0.1,1.3-0.2,1.8-0.6
			c2.5-2.3,4.3-5.6,5.6-10c2.8,0,5.7,0,8.6,0c-0.3,2.8-0.7,5.6-1,8.3c-0.2,1.2,0.7,2.4,1.9,2.5c0.1,0,0.2,0,0.3,0h0.1
			c2.3-0.1,4.6-0.1,6.9-0.2c1.2,0,2.2-1.1,2.2-2.3c0,0,0-0.1,0-0.1c-0.4-5.4-0.8-10.7-1.1-16.1h2.7l0,0c0.6,0,1.3-0.3,1.7-0.8
			c0.4-0.5,0.6-1.1,0.6-1.8l-0.8-6.2c-0.1-1.2-1.2-2.1-2.4-2l-3.8,0.4l-0.1-5.1c0-1.1-0.9-2-2-2.2l-4.1-0.5
			c-1.2-0.1-2.2,0.6-2.5,1.8l-1.5,7.1l-3.5,0.4c0-2.7,0-4.8-0.1-6.2c-0.1-1-0.8-1.9-1.8-2.1l-3.9-0.8c-0.6-0.1-1.3,0-1.8,0.4
			c-0.5,0.4-0.8,1-0.9,1.7c-0.5,14.5-1.8,18-2.3,18.9c0,0.1-0.1,0.2-0.1,0.2c-0.8,1.9-2.1,3.4-3.8,4.5
			C111.8,48.9,111.4,49.4,111.3,50z"/>
		<path class="st37" d="M183.7,84.5l-1.1-7.5c-0.1-0.7-0.5-1.3-1.1-1.6c-0.1-3.3-0.1-6.7-0.2-10c0-0.6-0.3-1.2-0.7-1.6
			c-0.5-0.4-1.1-0.6-1.7-0.6c-2.7,0.2-5.3,0.5-8,0.7l-1.3-1.2c-0.8-0.7-2-0.8-2.9-0.1l-0.7,0.5l-1.7-0.9c-0.9-0.5-2.1-0.3-2.8,0.5
			l-0.3,0.3c-0.5-1-1.7-1.4-2.7-1.1c-1.6,0.6-3.2,1.1-4.8,1.7l-1.3-0.2c-0.6-0.1-1.2,0.1-1.7,0.5c-0.5,0.4-0.8,0.9-0.8,1.5
			c-0.4,3.6-0.8,7.2-1.3,10.7c-0.7,0.3-1.1,0.9-1.3,1.6c-0.3,1.6-0.7,3.2-1,4.7c-0.2-0.1-0.4-0.2-0.6-0.3c-1.9-0.6-3.2-1.4-3.7-2.4
			c1.3-0.7,2.6-1.4,3.8-2.3c0.8-0.6,1.2-1.6,0.8-2.6l-0.9-2.5c0.6-0.6,0.7-1.5,0.5-2.3l-0.9-2.6c0.4-0.6,0.4-1.3,0.2-2l-0.9-2.4
			c-0.4-1.1-1.6-1.7-2.7-1.4c-3.8,1.1-7.8,1.7-11.8,1.8l-0.1-0.4c-0.1-0.6-0.5-1.2-1-1.5c-0.5-0.3-1.1-0.5-1.7-0.3
			c-3.1,0.7-6.3,1.3-9.4,2c-0.2-0.1-0.4-0.1-0.6-0.1l-3.4-0.2c-1.2-0.1-2.3,0.9-2.4,2.1l-0.5,8.2l-0.8,0.2c-1.2,0.2-2,1.4-1.8,2.6
			c0,0,0,0.1,0,0.1l0.3,1.2l-1.9-1.8l1.4-2.1c0.5-0.7,0.5-1.7,0.1-2.5c0.2-0.5,0.3-1,0.2-1.6c-0.4-1.7-0.8-3.4-1.2-5.2
			c-0.3-1.2-1.4-2-2.6-1.7c-5.4,1.1-11,2.2-16.4,3.5c-0.4-1.1-1.6-1.7-2.8-1.4l-1.7,0.5c-0.4-0.8-1.1-1.3-2-1.3L78.5,64
			c-0.6,0-1.2,0.2-1.7,0.7c-0.4,0.4-0.7,1-0.7,1.7v1.2L72,68.9c-1.2,0.4-1.8,1.6-1.5,2.8l1,3.5c0.1,0.2,0.2,0.4,0.3,0.6
			c0,0.1,0,0.2,0,0.3c0.1,4.8,0.2,9.6,0.3,14.4c0,0,0,0,0,0.1c-0.1,0.1-0.1,0.2-0.2,0.3c-0.3,0.5-0.4,1.2-0.2,1.7l0.9,3.4
			c0.3,1.1,1.4,1.8,2.5,1.6l2.1-0.3l0.1,1.8c0,1.2,1,2.2,2.2,2.2c0.1,0,0.3,0,0.4,0l5.8-1c1-0.2,1.7-0.9,1.9-1.9l0,0
			c0.3,1.1,1.3,1.8,2.4,1.7c6-0.7,12-1.3,18-1.8c0.6-0.1,1.2-0.4,1.6-0.9c0.4-0.5,0.5-1.2,0.4-1.8l-0.2-0.7L112,98
			c0.7,1,2.1,1.3,3.2,0.6c0,0,0.1,0,0.1-0.1l0.1-0.1c0.1,0.1,0.2,0.2,0.3,0.3c0.4,0.4,1,0.6,1.6,0.6h0.3c1.9-0.2,3.9-0.5,5.8-0.7
			c0.4,0,0.8-0.2,1.1-0.4c0.4,0.2,0.9,0.3,1.4,0.3c3.7-0.4,7.4-0.8,11-1.2c0,0.1,0,0.1,0.1,0.2c0.4,1.2,1.7,1.8,2.8,1.4
			c0.2-0.1,0.4-0.2,0.6-0.3c1.6-1.1,3.1-2.2,4.7-3.2c1-0.7,1.3-2.1,0.6-3.1c-0.5-0.8-1.1-1.6-1.8-2.3c0.7-0.9,1.4-1.9,2-2.8
			c0.1,0.1,0.1,0.2,0.2,0.3c0.4,0.4,0.9,0.7,1.4,0.8l0.4,2.9c0.2,1.1,1.1,1.9,2.2,1.9l0,0c1.7,0,3.4,0,5.1,0
			c0.4,1.7,0.9,3.4,1.4,5.2c0.3,1,1.1,1.6,2.1,1.7h0.7c6.7,0,8.9-3.6,9.5-6.7c3.6,0.1,7.2,0.2,10.8,0.3c0.7,0,1.3-0.2,1.7-0.7
			c0.5-0.5,0.7-1.2,0.6-1.8l-0.4-3.9c0.6,0,1.2-0.3,1.6-0.8C183.6,85.8,183.7,85.2,183.7,84.5z M93,91.2l-1.4,0.3v-0.1L93,91.2z
			 M109.8,89.6c-0.4,0.1-0.7,0.3-0.9,0.6c-0.2-0.6-0.7-1.1-1.3-1.4c0.4-0.5,0.5-1.1,0.4-1.8l-1-4.6l1.5-1.1c0.5-0.4,0.9-1,0.9-1.6
			c0.2,0.2,0.4,0.3,0.6,0.4l-0.6,0.8c-0.6,0.7-0.6,1.7-0.2,2.5l0.1,0.1c-0.4,0.5-0.5,1.2-0.4,1.9l0.7,3.2c0.1,0.3,0.2,0.6,0.4,0.9
			C110,89.5,109.9,89.5,109.8,89.6L109.8,89.6z"/>
		<path class="st38" d="M67.1,30.1c-4,0.8-8,1.4-12,2c-0.1,0.4-0.2,0.9-0.3,1.3c4.6-1.1,9.2-2.1,13.9-3.1l1.1,4.5
			c-5.5,0.8-10.9,1.7-16.3,2.6c-0.2,0.5-0.4,1-0.6,1.5c6-1.3,12.1-2.5,18.2-3.6l1,4.8C65,41,58,41.9,51,43l-0.9,1.6
			c5.8-1.2,11.6-2.3,17.5-3.4c0.9,5.1,1.8,10.3,2.7,15.4c-2.2,0.3-4.3,0.7-6.4,1v-0.8c-3.5,0.4-7.1,0.9-10.6,1.3l0.1,0.7l-6.4,1.4
			C47,56.7,47,53.1,47,49.4c-1.2,1.5-2.5,2.8-3.9,4.1c-1.6-1.9-3.2-3.8-4.8-5.7c2-0.9,3.8-2.1,5.4-3.7l-3.8,0.6L39.2,42
			c2.6-0.6,5.2-1.2,7.9-1.8c0.4-0.6,0.8-1.2,1.2-1.8c-2.4,0.4-4.9,0.9-7.3,1.3c-0.2-0.9-0.5-1.8-0.7-2.7c3.3-0.9,6.6-1.7,10-2.5
			c0.3-0.6,0.5-1.2,0.8-1.8c-3,0.4-6,0.8-9,1.1l-1-3c8.3-1.4,16.5-3.3,24.5-5.7C66,26.8,66.6,28.5,67.1,30.1z M63.6,46.1v-0.7
			c-4,0.5-8.1,1.1-12.1,1.7c0.1,0.5,0.2,1,0.2,1.5C55.7,47.8,59.6,47,63.6,46.1L63.6,46.1z M63.6,49.9v-0.7
			c-3.9,0.6-7.7,1.2-11.6,1.9c0.1,0.5,0.2,0.9,0.2,1.4C56.1,51.5,59.9,50.7,63.6,49.9L63.6,49.9z M63.7,53.7c0-0.3,0-0.5,0-0.8
			c-3.7,0.6-7.4,1.1-11,1.7c0.1,0.4,0.1,0.8,0.2,1.2C56.5,55.2,60.1,54.4,63.7,53.7L63.7,53.7z"/>
		<path class="st38" d="M109.3,37.1c-3,4-7,7.3-11.6,9.3c-1-1.9-2.1-3.8-3.2-5.8c-6.2,0.9-12.4,1.8-18.5,2.9l-0.7-2.9
			c2.4-0.7,4.8-1.3,7.2-1.9c0.2-0.7,0.3-1.4,0.5-2.1l-0.8,0.1l0.1,0.6c-2,0.3-4,0.7-5.9,1.1c0.2-4,0.4-8,0.6-12.1
			c5-0.8,10.1-1.5,15.1-2.2c0.7,3.8,1.4,7.6,2.1,11.3l-5.8,0.9c0-0.1,0-0.2,0-0.4l-0.8,0.1c0.1,0.4,0.2,0.8,0.2,1.2
			c2.3-0.6,4.6-1.1,6.8-1.7c0.3,1.3,0.5,2.7,0.8,4c4.7-0.7,8.3-2.5,10.8-5.3L109.3,37.1z M109.9,46.8c-3,4.3-7.1,7.8-11.8,10.1
			c-0.7-1.4-1.4-2.7-2.2-4.1c-0.8,1.4-1.5,2.8-2.3,4.2c-1.9-1.3-3.3-3.1-4.3-5.1l2-1.3L88.7,51l0.1-0.7l-0.9,0.1
			c0.4,2.2,0.9,4.3,1.3,6.4c-1.9,0.3-3.8,0.7-5.7,1.1l0.6-7l-0.8,0.1c0,0.1,0,0.2,0,0.4l-1.9,0.4l1.6,0.7c-0.3,2.1-1.4,4-3,5.3
			c-1.2-1.2-2.5-2.4-3.7-3.6c1.3-0.4,2.5-1.2,3.5-2.2L78,52.5c0.3-2.8,0.5-5.5,0.8-8.3c4.5-0.9,9-1.8,13.5-2.6
			c0.5,2.9,1,5.8,1.6,8.7L92,50.4c1,0.8,2.2,1.4,3.5,1.7l-1.1-2c5.4-0.7,9.6-2.7,12.5-6L109.9,46.8z M88.4,28.9c0-0.2,0-0.3,0-0.5
			c-2.4,0.1-4.8,0.1-7.2,0.2l0.3,2C83.8,30,86.1,29.4,88.4,28.9z M88.4,32.8c0-0.2,0-0.5,0-0.7c-2.2,0.3-4.4,0.6-6.6,0.9
			c0,0.4,0.1,0.8,0.2,1.2L88.4,32.8z M89.2,46.6c0-0.4,0.1-0.7,0.1-1.1c-2.2,0.2-4.5,0.4-6.8,0.7c0.1,0.7,0.3,1.5,0.4,2.2L89.2,46.6
			z M108.7,27.1c-2.9,3.9-6.8,7-11.3,9c-1.2-2.2-2.4-4.3-3.6-6.5c5.2-0.6,9.1-2.2,11.9-5.1L108.7,27.1z"/>
		<path class="st38" d="M138.3,25.5c0.1,2.5,0.1,5,0.2,7.5l6.2-0.6c0.3,2.1,0.5,4.2,0.8,6.3c-7.1-0.1-14.1,0-21.1,0.1
			c-0.1,1.4-0.3,2.8-0.5,4c5.5-0.7,11-1.3,16.6-1.8c0.4,5.4,0.7,10.8,1.1,16.3c-2.3,0-4.6,0.1-6.9,0.2l1.3-10.9c-4.3,0-8.6,0-12.8,0
			c-1.2,4.8-3,8.3-5.4,10.6c-1.4-2.2-2.9-4.3-4.3-6.5c2.1-1.3,3.8-3.2,4.7-5.5c1.3-2.2,2.2-8.8,2.6-20l3.8,0.8
			c0.1,1.7,0.1,4.3,0,7.9c0,0.3,0,0.5,0,0.8c2.6-0.3,5.1-0.6,7.7-0.9c0.6-2.9,1.2-5.8,1.9-8.7L138.3,25.5z"/>
		<path class="st38" d="M106.2,70.3c-2.7,0.3-5.5,0.7-8.2,1l2.3,1.7c-0.8,1.4-1.7,2.8-2.5,4.3c1.2,1.2,2.3,2.4,3.4,3.6
			c-1.3,1-2.7,2-4,3c-1.3-2.2-2.7-4.3-4-6.5c1.4-2,2.8-4,4.2-6L92.6,72l2.1,1.4c-1,1.5-1.9,3-2.8,4.6l3.7,4
			c-1.3,0.9-2.6,1.9-3.9,2.8c-1.3-2-2.6-4-3.9-5.9c0.5,2.8,1,5.6,1.4,8.4l-4.5,0.9v-0.5l-0.5,0.1c0.1,0.6,0.1,1.2,0.2,1.7l4.1-1
			l1.2,4.8L85,94c0.2,1.4,0.3,2.8,0.5,4.2c-2,0.3-3.9,0.7-5.8,1c-0.1-1.5-0.1-2.9-0.2-4.4c-1.5,0.2-3.1,0.5-4.6,0.7
			c-0.3-1.2-0.7-2.3-1-3.5c1.8-0.5,3.6-0.9,5.4-1.4c0-0.8,0-1.5-0.1-2.2l-0.5,0.1l0.2,1c-1.5,0.3-3,0.7-4.5,1
			c-0.1-4.8-0.2-9.6-0.3-14.4l4.7-1.1c0-0.5,0-0.9,0-1.4l-5,1l-1-3.4l5.9-1.8l-0.1-3l3.1,0.1c0.1,0.6,0.2,1.3,0.2,1.9l4.2-1.2
			c0.4,1.6,0.8,3.2,1.2,4.9l-4.8,1c0,0.4,0.1,0.8,0.2,1.3l4.3-0.9l0.8,4.3l4-5.5l-3,0.4c-0.3-1.2-0.7-2.5-1-3.8
			c5.8-1.3,11.6-2.6,17.4-3.7C105.4,66.8,105.8,68.5,106.2,70.3z M79.1,80.8L79,78.6l-1.5,0.2c0.1,0.8,0.2,1.6,0.3,2.4L79.1,80.8z
			 M79.2,85.6l-0.1-1.8l-1,0.2l0.3,1.9L79.2,85.6z M83.3,79.5l1.2-0.3v-1.1l-1.4,0.1C83.2,78.6,83.2,79.1,83.3,79.5z M83.8,84.2
			l0.8-0.2v-1l-0.9,0.1C83.8,83.5,83.8,83.8,83.8,84.2z M105.8,87.6l-5.5,0.6c0.2,1.3,0.4,2.6,0.7,3.9l5.8-1.1
			c0.4,1.8,0.8,3.5,1.1,5.2c-6,0.5-12,1.1-18,1.8L89,94.5c2.1-0.4,4.2-0.9,6.3-1.3c0.1-1.5,0.2-3,0.4-4.5l-5.2,0.7L89.8,86
			c5-1.2,9.9-2.4,14.9-3.5C105.1,84.2,105.5,85.8,105.8,87.6L105.8,87.6z M106.3,72.6l-2.5,3.7l3.5,3.3l-4,2.8
			c-1.3-2-2.7-4.1-4.1-6.1c1.5-1.9,3-3.8,4.5-5.7L106.3,72.6z"/>
		<path class="st38" d="M126.1,83.8c1.3-0.6,2.4-1.6,3.2-2.8l2.9,1.4c-0.6,2.7-2,5.1-3.9,7l-2.4-2.9l-3,0.3c1.8,0.8,3.5,1.7,5.2,2.8
			c-1.1,1.4-2.3,2.8-3.4,4.2c-0.7-0.9-1.3-1.8-2.1-2.7c0.2,1.8,0.3,3.6,0.5,5.4l-5.8,0.7c0.1-1.4,0.1-2.8,0.2-4.3
			c-1,1.5-2.1,2.8-3.5,3.9c-1.1-1.7-2.2-3.3-3.4-5c2.3-0.9,4.3-2.4,5.9-4.2l-4.4,0.6c-0.2-1.1-0.5-2.1-0.7-3.2
			c2.2-0.5,4.4-1.1,6.7-1.6c0-0.7,0.1-1.4,0.1-2.2c-2.3,0.3-4.5,0.7-6.8,1.1c1.3-1.6,2.5-3.2,3.8-4.8c-1.4,0.2-2.7,0.4-4.1,0.6
			c-0.2-0.7-0.3-1.4-0.5-2.2l2.5-0.5c0.2-3.3,0.4-6.6,0.6-9.9l3.4,0.2v0.3c3.5-0.8,7-1.6,10.6-2.3c0.2,1,0.3,1.9,0.5,2.9
			c-3.6,0.4-7.2,0.9-10.8,1.4c0,0.4,0.1,0.8,0.1,1.2c3.3-0.8,6.7-1.5,10.1-2.2c0.1,0.8,0.3,1.6,0.4,2.4c-3.4,0.5-6.8,1-10.3,1.6
			c0,0.3,0.1,0.6,0.1,0.9c3.3-0.7,6.6-1.4,9.9-2.1c0.1,0.8,0.3,1.6,0.4,2.3c-3.4,0.5-6.7,1-10.1,1.5c0,0.3,0.1,0.6,0.1,0.9
			c3.8-0.7,7.6-1.5,11.4-2.2c0.2,1.1,0.4,2.1,0.6,3.2l-2.2,0.3c0.9,1,1.8,2.1,2.4,3.2c-1.6,0.8-3.1,1.6-4.7,2.5
			c-0.1-0.4-0.2-0.9-0.3-1.3c-2.2,0.3-4.5,0.7-6.7,1l3.2,0.3c0,0.4,0.1,0.7,0.1,1.1l3.9-0.9C125.8,82.3,126,83.1,126.1,83.8z
			 M123.6,76.3l-4.3,0.6l-0.8,1.7l5.3-1.8C123.8,76.6,123.7,76.4,123.6,76.3z M135.6,87l-2.3,5.3l2.9-1c-0.4-0.5-0.7-1.1-1.2-1.6
			l2.7-2.2c2.3,1.6,4.3,3.7,5.9,6.1c-1.6,1.1-3.1,2.1-4.7,3.2c-0.2-0.7-0.4-1.3-0.6-1.9c-4.3,0.4-8.5,0.9-12.8,1.4
			c2.6-3.6,5.1-7.2,7.8-10.8C134,86.1,134.8,86.5,135.6,87L135.6,87z M143.2,66.6c-3.8,2-8,3.4-12.3,4.1l-1.5-4.6
			c4.4-0.1,8.7-0.8,12.9-1.9L143.2,66.6z M143.9,71.1c-3.8,2.4-8.1,4.1-12.5,4.9l-1.5-4.7c4.5-0.2,8.9-1.2,13-2.9
			C143.2,69.4,143.6,70.2,143.9,71.1L143.9,71.1z M144.4,75.9c-3.8,2.6-8.1,4.4-12.6,5.3c-0.5-1.6-1-3.1-1.5-4.7
			c4.5-0.2,9-1.3,13.1-3.2C143.7,74.2,144,75.1,144.4,75.9L144.4,75.9z M144.9,84.6c-1.2,1.6-2.4,3.3-3.5,4.9
			c-2-1.3-3.6-3.2-4.5-5.4L133,84c-0.2-0.9-0.4-1.8-0.6-2.7c2.3-0.4,4.7-0.8,7.1-1.2C140,82.2,141.9,83.7,144.9,84.6L144.9,84.6z"/>
		<path class="st38" d="M160.5,68.2l-5.2,1.1l0.1,1.1l4.2-1.1c0.2,1.2,0.4,2.3,0.5,3.5l-4.5,0.4l0.1,1.2l3.9-0.8
			c0.2,1.2,0.3,2.3,0.5,3.5c-1.4,0.1-2.8,0.2-4.1,0.3c0,0.3,0,0.6,0.1,0.8c2.1-0.1,4.2-0.2,6.2-0.2l-2-3.3c0.9-0.1,1.7-0.4,2.6-0.7
			c-0.5-0.4-1-0.8-1.4-1.2l0.4-0.4l-2.2-3.7c1.2-0.2,2.3-0.6,3.4-1.1c-0.6-0.5-1.1-0.9-1.6-1.3c0.5-0.6,1.1-1.2,1.6-1.9l2.9,1.6
			c0.6-0.4,1.3-0.8,2-1.4l1.6,1.4c-0.3,0.5-0.7,1-1.1,1.5c0.6,0.4,1.1,0.8,1.6,1.1v-2.2c3-0.3,5.9-0.5,8.9-0.8
			c0.1,4,0.1,7.9,0.2,11.9h1.1c0.4,2.5,0.7,5,1.1,7.5c-2.1,0.1-4.2,0.2-6.3,0.4c0.3-1.2,0.7-2.4,1-3.6c-7.5-0.4-15-0.7-22.5-0.9
			c0.2,1.6,0.3,3.2,0.5,4.7c-2.1,0.1-4.2,0.3-6.3,0.5c0.5-2.5,1.1-5.1,1.6-7.6h1.1c0.5-4.2,1-8.3,1.5-12.5l1.9,0.2l5.3-1.9
			C159.6,65.6,160,66.9,160.5,68.2z M170.1,86.5c3-0.1,6-0.2,9-0.3c0.2,1.8,0.4,3.5,0.6,5.2c-4.3-0.2-8.6-0.3-12.9-0.4
			c0,0.1,0.1,0.2,0.1,0.4c-0.2,4.4-2.9,6.5-8.1,6.3c-0.5-1.9-1-3.8-1.5-5.7c2.7,0.1,4.4-0.3,5.2-1.1c-4.1-0.1-8.3-0.1-12.4-0.1
			l-0.5-3.1c4.4-0.3,8.8-0.6,13.2-0.8l2-0.9l0.1,0.1l1.3-0.8c-3.3-0.1-6.6-0.2-9.8-0.3l-0.3-2.6c5.5-0.3,11-0.5,16.6-0.6
			C171.7,83.3,170.9,84.9,170.1,86.5L170.1,86.5z M165.8,72.4c0.4-0.2,0.8-0.5,1.2-0.8c-0.4-0.5-0.9-1-1.2-1.4
			c-0.5,0.5-1.1,0.8-1.7,1.2C164.7,71.7,165.2,72,165.8,72.4L165.8,72.4z M166.6,77.8c-0.4-0.4-0.6-0.8-0.9-1.1
			c-0.6,0.5-1.3,0.9-1.9,1.2L166.6,77.8z M173.6,77.6c0-0.2,0.1-0.4,0.1-0.6l-3.1,0.1c-0.2-0.8-0.3-1.7-0.5-2.5l4.1-0.7l0.1-0.7
			h-3.7c-0.2-0.9-0.3-1.7-0.5-2.6l4.7-0.7c0-0.2,0.1-0.4,0.1-0.6c-1.7-0.1-3.3-0.2-5-0.3v-0.1l-1.9,2.1l1.5,1.4
			c-0.4,0.6-0.8,1.2-1.2,1.8l1.5,1.1c-0.8,0.9-1.6,1.8-2.5,2.7C169.5,77.7,171.6,77.7,173.6,77.6L173.6,77.6z"/>
	</g>
</g>
</svg>
