<svg xmlns="http://www.w3.org/2000/svg" viewBox="0 0 31.19 29.28"><defs><style>.cls-1{fill:#ade633;}</style></defs><title>頁面_FAol_1108</title><g id="頁面內容"><path class="cls-1" d="M9.52,19.6c.06-.78,0-1.74,0-2.85s-.06-2.41,0-3.66a1.29,1.29,0,0,0-.3-1,1.15,1.15,0,0,0-.88-.33H1.77a1.89,1.89,0,0,0-1.36.6A1.52,1.52,0,0,0,0,13.53c.14,1.52.3,3.14.51,5.09.12,1.15.25,2.29.37,3.44.18,1.64.36,3.28.53,4.92s.9,2.28,2.2,2.28H4.88c1,0,2.14,0,3.21,0h.07a1.36,1.36,0,0,0,1-.35,1.43,1.43,0,0,0,.36-1.06c0-1.75,0-3.55,0-5.63C9.51,21.42,9.52,20.55,9.52,19.6Z"/><path class="cls-1" d="M31.17,13.57a4.75,4.75,0,0,0-.82-2.18,1.6,1.6,0,0,0-1.48-.82H22.72a10.76,10.76,0,0,0,.14-6.29C22.16,2.07,21,.72,19.26.16a2.14,2.14,0,0,0-2.21.31,2.28,2.28,0,0,0-.57,2.14,9.54,9.54,0,0,1-1.3,6.94,6.42,6.42,0,0,1-3.2,3A1.33,1.33,0,0,0,11,14c0,1.71,0,3.45,0,5.13v3.15c0,1.71,0,3.42,0,5.12,0,0,0,0,0,.06a1,1,0,0,0,.76,1.28c.21.05.43.12.66.2a5.45,5.45,0,0,0,1.68.35h3.78c2.18,0,4.43,0,6.64,0h0a4.54,4.54,0,0,0,2.59-.84,2.71,2.71,0,0,0,1.36-1.83,2.09,2.09,0,0,0-.35-1.32,5.94,5.94,0,0,0,.77-.5A2.58,2.58,0,0,0,30,22.91a2.26,2.26,0,0,0-.7-1.68,2.77,2.77,0,0,0,1.17-1.67,3.8,3.8,0,0,0-.68-2.89A3,3,0,0,0,31.17,13.57Z"/></g></svg>