<svg xmlns="http://www.w3.org/2000/svg" xmlns:xlink="http://www.w3.org/1999/xlink" viewBox="0 0 230 120"><defs><style>.cls-1{fill:none;}.cls-2{isolation:isolate;}.cls-3{fill:#ccb3ff;}.cls-4{clip-path:url(#clip-path);}.cls-5{clip-path:url(#clip-path-2);}.cls-6{fill:#f8c316;}.cls-7{fill:#fff10d;}.cls-24,.cls-25,.cls-26,.cls-27,.cls-28,.cls-8{opacity:0.5;}.cls-18,.cls-22,.cls-24,.cls-25,.cls-26,.cls-27,.cls-28,.cls-30,.cls-34,.cls-8{mix-blend-mode:multiply;}.cls-9{fill:#f5921c;}.cls-10{clip-path:url(#clip-path-3);}.cls-11{fill:#f9e01e;}.cls-12{fill:#ca9c0d;}.cls-13{clip-path:url(#clip-path-4);}.cls-14{fill:#fff;}.cls-15{clip-path:url(#clip-path-5);}.cls-16{fill:#f7cd1e;}.cls-17{fill:url(#未命名漸層_136);}.cls-18{fill:#f2e6cc;}.cls-19{fill:#ffbc1d;}.cls-20{fill:url(#linear-gradient);}.cls-21{fill:url(#linear-gradient-2);}.cls-22{fill:url(#radial-gradient);}.cls-23{fill:#d9990e;}.cls-24{fill:url(#未命名漸層_141);}.cls-25{fill:url(#未命名漸層_141-2);}.cls-26{fill:url(#未命名漸層_141-3);}.cls-27{fill:url(#未命名漸層_141-4);}.cls-28{fill:url(#未命名漸層_141-5);}.cls-29{fill:url(#未命名漸層_189);}.cls-30{fill:url(#未命名漸層_228);}.cls-31{fill:url(#黃綠色);}.cls-32{opacity:0.9;}.cls-33{fill:#8ac43f;}.cls-34{fill:url(#未命名漸層_195);}.cls-35{fill:url(#未命名漸層_206);}.cls-36{fill:url(#未命名漸層_155);}.cls-37{fill:url(#未命名漸層_135);}.cls-38{fill:#5b2d7f;}.cls-39{fill:url(#未命名漸層_19);}.cls-40{fill:url(#未命名漸層_18);}.cls-41{fill:url(#未命名漸層_19-2);}.cls-42{fill:url(#未命名漸層_18-2);}.cls-43{fill:url(#未命名漸層_18-3);}.cls-44{fill:url(#未命名漸層_18-4);}</style><clipPath id="clip-path"><polygon class="cls-1" points="190.8 81.64 147.61 81.82 147.58 3.08 190.77 2.91 190.8 81.64"/></clipPath><clipPath id="clip-path-2"><path class="cls-1" d="M170.05,19.15c-.11-.13.94,2.78,8,0,7.26-2.84,12.19-.65,12.19-.65s-2.48-2.82-7.78-3.28c1.85-1.65,6.36-2.44,6.36-2.44s-3.17-1.36-10.67.76c-7.09,2-7-1.93-7-1.93S169.56,18,170.05,19.15Z"/></clipPath><clipPath id="clip-path-3"><polygon class="cls-1" points="163.84 21.56 164.49 21.57 164.72 9.36 164.07 9.36 163.84 21.56"/></clipPath><clipPath id="clip-path-4"><path class="cls-1" d="M162.84,9a1.54,1.54,0,0,0,1.53,1.58A1.59,1.59,0,0,0,166,9.06a1.55,1.55,0,0,0-1.53-1.58A1.59,1.59,0,0,0,162.84,9Z"/></clipPath><clipPath id="clip-path-5"><path class="cls-1" d="M164.38,11a6.65,6.65,0,0,0,2.4-.14c4-1.67,4.79.61,4.79.61h0l-.11,5.65s-.75-2.27-4.78-.61a6.71,6.71,0,0,1-2.41.14Z"/></clipPath><linearGradient id="未命名漸層_136" x1="140.12" y1="122.97" x2="167.98" y2="122.97" gradientTransform="translate(11.42 -38.93) rotate(0.75)" gradientUnits="userSpaceOnUse"><stop offset="0" stop-color="#f4f2eb"/><stop offset="0.34" stop-color="#f1dfce"/><stop offset="0.64" stop-color="#efd3bb"/><stop offset="0.84" stop-color="#eecfb4"/><stop offset="0.92" stop-color="#f5dfc1"/><stop offset="1" stop-color="#fff4d2"/></linearGradient><linearGradient id="linear-gradient" x1="149.57" y1="99.92" x2="149.02" y2="99.46" gradientTransform="translate(11.42 -38.93) rotate(0.75)" gradientUnits="userSpaceOnUse"><stop offset="0.33" stop-color="#fff" stop-opacity="0"/><stop offset="0.45" stop-color="#fff" stop-opacity="0.01"/><stop offset="0.54" stop-color="#fff" stop-opacity="0.05"/><stop offset="0.62" stop-color="#fff" stop-opacity="0.11"/><stop offset="0.69" stop-color="#fff" stop-opacity="0.2"/><stop offset="0.76" stop-color="#fff" stop-opacity="0.32"/><stop offset="0.83" stop-color="#fff" stop-opacity="0.46"/><stop offset="0.89" stop-color="#fff" stop-opacity="0.63"/><stop offset="0.95" stop-color="#fff" stop-opacity="0.82"/><stop offset="1" stop-color="#fff"/></linearGradient><linearGradient id="linear-gradient-2" x1="160.87" y1="108.86" x2="147.64" y2="98.65" xlink:href="#linear-gradient"/><radialGradient id="radial-gradient" cx="-1231.57" cy="233.33" r="21.84" gradientTransform="matrix(1.25, 0.01, -0.02, 1.07, 1699.86, -185.5)" gradientUnits="userSpaceOnUse"><stop offset="0.57" stop-color="#fff" stop-opacity="0"/><stop offset="0.64" stop-color="#fefefe" stop-opacity="0.02"/><stop offset="0.7" stop-color="#fcf9f9" stop-opacity="0.07"/><stop offset="0.75" stop-color="#f8f2f2" stop-opacity="0.16"/><stop offset="0.81" stop-color="#f2e8e8" stop-opacity="0.28"/><stop offset="0.87" stop-color="#ebdada" stop-opacity="0.44"/><stop offset="0.92" stop-color="#e2caca" stop-opacity="0.64"/><stop offset="0.97" stop-color="#d7b7b7" stop-opacity="0.86"/><stop offset="1" stop-color="#d1acac"/></radialGradient><linearGradient id="未命名漸層_141" x1="149.2" y1="119.76" x2="152.26" y2="126.47" gradientTransform="translate(11.42 -38.93) rotate(0.75)" gradientUnits="userSpaceOnUse"><stop offset="0" stop-color="#ffeca5"/><stop offset="1" stop-color="#f6b100"/></linearGradient><linearGradient id="未命名漸層_141-2" x1="157.49" y1="110.91" x2="159.62" y2="115.58" xlink:href="#未命名漸層_141"/><linearGradient id="未命名漸層_141-3" x1="160.84" y1="136.96" x2="162.97" y2="141.63" xlink:href="#未命名漸層_141"/><linearGradient id="未命名漸層_141-4" x1="146.7" y1="114.57" x2="148.23" y2="117.92" xlink:href="#未命名漸層_141"/><linearGradient id="未命名漸層_141-5" x1="158.62" y1="125.42" x2="160.15" y2="128.76" xlink:href="#未命名漸層_141"/><linearGradient id="未命名漸層_189" x1="130.9" y1="125.77" x2="124.65" y2="125.77" gradientTransform="matrix(0.99, 0.01, -0.01, 1, 28.52, -38.85)" gradientUnits="userSpaceOnUse"><stop offset="0.33" stop-color="#fff" stop-opacity="0"/><stop offset="0.44" stop-color="#fff" stop-opacity="0.01"/><stop offset="0.51" stop-color="#fff" stop-opacity="0.05"/><stop offset="0.58" stop-color="#fff" stop-opacity="0.11"/><stop offset="0.64" stop-color="#fff" stop-opacity="0.2"/><stop offset="0.7" stop-color="#fff" stop-opacity="0.32"/><stop offset="0.76" stop-color="#fff" stop-opacity="0.46"/><stop offset="0.82" stop-color="#fff" stop-opacity="0.63"/><stop offset="0.87" stop-color="#fff" stop-opacity="0.82"/><stop offset="0.91" stop-color="#fff"/></linearGradient><linearGradient id="未命名漸層_228" x1="138.94" y1="114.77" x2="138.94" y2="69.56" gradientTransform="matrix(0.99, 0.01, -0.01, 1, 28.52, -38.85)" gradientUnits="userSpaceOnUse"><stop offset="0" stop-color="#fff" stop-opacity="0"/><stop offset="0.07" stop-color="#fdfdfc" stop-opacity="0.03"/><stop offset="0.16" stop-color="#f8f6f3" stop-opacity="0.11"/><stop offset="0.26" stop-color="#f0ebe5" stop-opacity="0.25"/><stop offset="0.37" stop-color="#e5dcd0" stop-opacity="0.45"/><stop offset="0.48" stop-color="#d7c8b7" stop-opacity="0.7"/><stop offset="0.6" stop-color="#c5b097"/><stop offset="0.61" stop-color="#c5b097"/></linearGradient><linearGradient id="黃綠色" x1="146.89" y1="64.8" x2="154.91" y2="89.76" gradientTransform="translate(11.42 -38.93) rotate(0.75)" gradientUnits="userSpaceOnUse"><stop offset="0" stop-color="#d6e5a3"/><stop offset="0.5" stop-color="#b2d36c"/><stop offset="1" stop-color="#78b626"/></linearGradient><radialGradient id="未命名漸層_195" cx="-1441.71" cy="37" r="35.94" gradientTransform="matrix(1.16, 0.01, -0.02, 0.96, 1813.68, 15.15)" gradientUnits="userSpaceOnUse"><stop offset="0.3" stop-color="#fff" stop-opacity="0"/><stop offset="0.38" stop-color="#fefcfc" stop-opacity="0.03"/><stop offset="0.48" stop-color="#faf5f5" stop-opacity="0.12"/><stop offset="0.59" stop-color="#f3e9e9" stop-opacity="0.26"/><stop offset="0.72" stop-color="#ead9d9" stop-opacity="0.46"/><stop offset="0.86" stop-color="#dec4c4" stop-opacity="0.71"/><stop offset="1" stop-color="#d1acac"/></radialGradient><radialGradient id="未命名漸層_206" cx="-1397.05" cy="62.63" r="50.65" gradientTransform="matrix(1.16, 0.01, -0.02, 0.96, 1813.68, 15.15)" gradientUnits="userSpaceOnUse"><stop offset="0.33" stop-color="#fff" stop-opacity="0"/><stop offset="0.45" stop-color="#fff" stop-opacity="0.01"/><stop offset="0.5" stop-color="#fffffe" stop-opacity="0.04"/><stop offset="0.54" stop-color="#fffffc" stop-opacity="0.09"/><stop offset="0.55" stop-color="#fffffc" stop-opacity="0.09"/><stop offset="0.59" stop-color="#fffffb" stop-opacity="0.11"/><stop offset="0.63" stop-color="#fffff9" stop-opacity="0.16"/><stop offset="0.67" stop-color="#fffff6" stop-opacity="0.25"/><stop offset="0.72" stop-color="#fffff1" stop-opacity="0.37"/><stop offset="0.76" stop-color="#ffffea" stop-opacity="0.52"/><stop offset="0.81" stop-color="#ffffe3" stop-opacity="0.71"/><stop offset="0.85" stop-color="#ffffda" stop-opacity="0.93"/><stop offset="0.87" stop-color="#ffffd7"/></radialGradient><linearGradient id="未命名漸層_155" x1="138.23" y1="88.92" x2="170.17" y2="88.92" gradientTransform="translate(11.42 -38.93) rotate(0.75)" gradientUnits="userSpaceOnUse"><stop offset="0" stop-color="#fff4e7"/><stop offset="0.34" stop-color="#e8d1b8"/><stop offset="0.76" stop-color="#cea982"/><stop offset="0.97" stop-color="#c49a6d"/></linearGradient><linearGradient id="未命名漸層_135" x1="154.86" y1="94.22" x2="154.04" y2="83.89" gradientTransform="translate(11.42 -38.93) rotate(0.75)" gradientUnits="userSpaceOnUse"><stop offset="0.33" stop-color="#fff" stop-opacity="0"/><stop offset="0.39" stop-color="#fff" stop-opacity="0.02"/><stop offset="0.46" stop-color="#fff" stop-opacity="0.07"/><stop offset="0.53" stop-color="#fff" stop-opacity="0.16"/><stop offset="0.6" stop-color="#fff" stop-opacity="0.28"/><stop offset="0.67" stop-color="#fff" stop-opacity="0.43"/><stop offset="0.74" stop-color="#fff" stop-opacity="0.63"/><stop offset="0.82" stop-color="#fff" stop-opacity="0.85"/><stop offset="0.86" stop-color="#fff"/></linearGradient><linearGradient id="未命名漸層_19" x1="201.56" y1="279.26" x2="188.59" y2="240.95" gradientTransform="matrix(1, -0.03, 0.03, 1, -153.77, -157.83)" gradientUnits="userSpaceOnUse"><stop offset="0" stop-color="#ffb6ce"/><stop offset="1" stop-color="#ff83ba"/></linearGradient><linearGradient id="未命名漸層_18" x1="231.37" y1="268.29" x2="231.37" y2="243.06" gradientTransform="matrix(1, -0.03, 0.03, 1, -153.77, -157.83)" gradientUnits="userSpaceOnUse"><stop offset="0" stop-color="#aab1d5"/><stop offset="0.09" stop-color="#a29ecc"/><stop offset="0.25" stop-color="#947dbc"/><stop offset="0.43" stop-color="#8964b0"/><stop offset="0.6" stop-color="#8151a7"/><stop offset="0.79" stop-color="#7d47a2"/><stop offset="1" stop-color="#7b43a0"/></linearGradient><linearGradient id="未命名漸層_19-2" x1="270.59" y1="273.22" x2="270.89" y2="234.33" xlink:href="#未命名漸層_19"/><linearGradient id="未命名漸層_18-2" x1="309.73" y1="274.64" x2="309.73" y2="251.57" xlink:href="#未命名漸層_18"/><linearGradient id="未命名漸層_18-3" x1="235.62" y1="228.62" x2="235.62" y2="189.71" xlink:href="#未命名漸層_18"/><linearGradient id="未命名漸層_18-4" x1="273.64" y1="228.86" x2="273.64" y2="190.09" xlink:href="#未命名漸層_18"/></defs><title>頁面_FAol_1108</title><g class="cls-2"><g id="頁面內容"><path class="cls-3" d="M147.54,43.23A16.32,16.32,0,0,0,121.47,32.5a40.61,40.61,0,0,0-28.6-13.42,42.4,42.4,0,0,0-29.19,9.7,38.67,38.67,0,0,0-9.89,12.41A15.54,15.54,0,0,0,35.44,54a21,21,0,0,0-6.5,40.66,21.33,21.33,0,0,0,8.28,2.07,22.38,22.38,0,0,0,6.3-.63,5,5,0,0,1,3.27.29c2.94,9.46,14.16,16.34,27.41,16.05,10.79-.23,20-5.14,24.49-12.12,6.71,9.31,19.84,12.68,31.31,7.41a26,26,0,0,0,14.7-17.8c.63.06,1.27.1,1.91.1a23.4,23.4,0,1,0,.93-46.79Z"/><g class="cls-4"><g class="cls-5"><path class="cls-6" d="M170.05,19.15c0,.27.94,2.78,8,0,7.26-2.84,12.19-.65,12.19-.65s-2.48-2.82-7.78-3.28c1.85-1.65,6.36-2.44,6.36-2.44s-3.17-1.36-10.67.76c-7.09,2-7-1.93-7-1.93S169.57,18.14,170.05,19.15Z"/><path class="cls-7" d="M188.81,12.8s-4.34-.73-11.5,1.46c-5.57,1.69-6.95-1.85-6.95-1.85l3.34-.76S186.49,9,188.81,12.8Z"/><g class="cls-8"><path class="cls-6" d="M188.81,12.8s-7.06-.11-11.17,3.37a13.91,13.91,0,0,1,4.81-.93Z"/></g><g class="cls-8"><path class="cls-6" d="M190.23,18.52a11.59,11.59,0,0,0-10.55-1.2c-6,2.36-9.11,2-9.84,1.39.27,1.38,3.21,2.36,3.21,2.36Z"/></g><g class="cls-8"><path class="cls-6" d="M172.9,12.83s0,2.28-.11,4.34c0,.69-2.43,1-2.63,2.28-1.41-.69,1-7.68,1-7.68S172.93,12.31,172.9,12.83Z"/></g></g><path class="cls-9" d="M171.46,17.08s-1.83.93-1.41,2.07a5.46,5.46,0,0,1-.06-3.21S171.46,15.88,171.46,17.08Z"/><g class="cls-10"><polygon class="cls-11" points="163.84 21.56 164.49 21.57 164.72 9.36 164.07 9.36 163.84 21.56"/><polygon class="cls-12" points="164.18 21.57 164.79 21.57 165.02 9.37 164.41 9.36 164.18 21.57"/></g><g class="cls-13"><path class="cls-11" d="M162.84,9a1.54,1.54,0,0,0,1.53,1.58A1.59,1.59,0,0,0,166,9.06a1.55,1.55,0,0,0-1.53-1.58A1.59,1.59,0,0,0,162.84,9Z"/><path class="cls-14" d="M163.44,8.32a.65.65,0,0,0,.64.66.66.66,0,0,0,.66-.65.64.64,0,0,0-.64-.66A.67.67,0,0,0,163.44,8.32Z"/><path class="cls-6" d="M164,9.71a1.58,1.58,0,0,0,1.58-1.56.29.29,0,0,0,0-.13,1.53,1.53,0,0,1,.38,1,1.59,1.59,0,0,1-1.59,1.55,1.52,1.52,0,0,1-1.51-1.45A1.53,1.53,0,0,0,164,9.71Z"/></g><g class="cls-15"><path class="cls-16" d="M164.38,11a6.65,6.65,0,0,0,2.4-.14c4-1.67,4.79.61,4.79.61h0l-.11,5.65s-.75-2.27-4.78-.61a6.71,6.71,0,0,1-2.41.14Z"/><path class="cls-7" d="M170.35,10.36s-2.11.52-2.57,4.13c-.28,2.15-4.47,1.1-4.47,1.1l.57-4.75,3.21-.65S169.9,9.4,170.35,10.36Z"/><polygon class="cls-16" points="164.27 16.88 164.98 16.89 165.1 10.78 164.39 10.77 164.27 16.88"/></g><polygon class="cls-17" points="176.93 120.43 149.46 120.2 150.76 51.65 178.23 51.88 176.93 120.43"/><path class="cls-18" d="M164.54,59.83c-2.74,0-5,1.88-5,4.23l-.15,7.6,9.95.08.14-7.6C169.48,61.79,167.28,59.86,164.54,59.83Zm3.84,4.3-3.39,0,.06-3.33A3.54,3.54,0,0,1,168.38,64.13ZM165,65l3.39,0-.05,2.65-3.39,0Zm-1.11,2.64-3.38,0,.05-2.64,3.38,0Zm.14-6.88-.07,3.33-3.38,0A3.63,3.63,0,0,1,164,60.77Zm-3.54,7.76,3.39,0,0,2.23-3.39,0Zm4.4,2.26,0-2.23,3.39,0,0,2.23Z"/><path class="cls-14" d="M168.37,70.93l.14-7.14c0-2.11-1.92-3.83-4.38-3.85s-4.47,1.67-4.51,3.78l-.14,7.14Z"/><path class="cls-19" d="M164.14,59.48c-2.74,0-5,1.88-5,4.23l-.14,7.6,9.94.08.14-7.6C169.08,61.44,166.88,59.51,164.14,59.48Zm3.84,4.3-3.39,0,.06-3.33A3.54,3.54,0,0,1,168,63.78Zm-3.41.88,3.39,0-.05,2.65-3.39,0Zm-1.1,2.64-3.39,0,0-2.64,3.39,0Zm.13-6.88-.07,3.33-3.38,0A3.63,3.63,0,0,1,163.6,60.42Zm-3.54,7.76,3.39,0,0,2.23-3.39,0Zm4.4,2.26,0-2.22,3.38,0,0,2.23Z"/><path class="cls-20" d="M164.14,59.48c-2.74,0-5,1.88-5,4.23l-.14,7.6,9.94.08.14-7.6C169.08,61.44,166.88,59.51,164.14,59.48Zm3.84,4.3-3.39,0,.06-3.33A3.54,3.54,0,0,1,168,63.78Zm-3.41.88,3.39,0-.05,2.65-3.39,0Zm-1.1,2.64-3.39,0,0-2.64,3.39,0Zm.13-6.88-.07,3.33-3.38,0A3.63,3.63,0,0,1,163.6,60.42Zm-3.54,7.76,3.39,0,0,2.23-3.39,0Zm4.4,2.26,0-2.22,3.38,0,0,2.23Z"/><path class="cls-21" d="M164.14,59.48c-2.74,0-5,1.88-5,4.23l-.14,7.6,9.94.08.14-7.6C169.08,61.44,166.88,59.51,164.14,59.48Zm3.84,4.3-3.39,0,.06-3.33A3.54,3.54,0,0,1,168,63.78Zm-3.41.88,3.39,0-.05,2.65-3.39,0Zm-1.1,2.64-3.39,0,0-2.64,3.39,0Zm.13-6.88-.07,3.33-3.38,0A3.63,3.63,0,0,1,163.6,60.42Zm-3.54,7.76,3.39,0,0,2.23-3.39,0Zm4.4,2.26,0-2.22,3.38,0,0,2.23Z"/><path class="cls-22" d="M164.14,59.48c-2.74,0-5,1.88-5,4.23l-.14,7.6,9.94.08.14-7.6C169.08,61.44,166.88,59.51,164.14,59.48Zm3.84,4.3-3.39,0,.06-3.33A3.54,3.54,0,0,1,168,63.78Zm-3.41.88,3.39,0-.05,2.65-3.39,0Zm-1.1,2.64-3.39,0,0-2.64,3.39,0Zm.13-6.88-.07,3.33-3.38,0A3.63,3.63,0,0,1,163.6,60.42Zm-3.54,7.76,3.39,0,0,2.23-3.39,0Zm4.4,2.26,0-2.22,3.38,0,0,2.23Z"/><polygon class="cls-23" points="164.47 70.26 164.47 70.26 164.51 68.22 167.59 68.24 167.59 68.24 164.2 68.02 164.47 70.26"/><polygon class="cls-23" points="164.53 67.12 164.53 67.12 164.57 64.66 167.65 64.69 167.65 64.69 164.27 64.47 164.53 67.12"/><path class="cls-23" d="M164.59,63.57h0l.06-3.14a4.32,4.32,0,0,1,1.59.52,4.23,4.23,0,0,0-1.89-.71Z"/><path class="cls-23" d="M160.16,63.53h0a3.65,3.65,0,0,1,3.44-3.11l-.31,0A3.12,3.12,0,0,0,160.16,63.53Z"/><path class="cls-23" d="M166.83,60.2a4,4,0,0,1,1.9,3.4l-.14,7.6L159,71.12v.19l9.94.08.14-7.6A4.1,4.1,0,0,0,166.83,60.2Z"/><polygon class="cls-23" points="160.06 68.18 163.14 68.2 163.14 68.2 159.76 67.99 160.02 70.22 160.02 70.22 160.06 68.18"/><polygon class="cls-23" points="160.08 67.08 160.08 67.08 160.13 64.63 163.21 64.65 163.21 64.65 159.83 64.44 160.08 67.08"/><path class="cls-24" d="M163.27,84.37l-5.46,0c-.33,0-.6.19-.6.43l-.05,2.65c0,.25.26.45.59.45l5.45,0c.33,0,.6-.2.6-.44l.06-2.65C163.86,84.57,163.6,84.37,163.27,84.37Z"/><path class="cls-25" d="M170.39,75.14l-3.8,0c-.23,0-.42.13-.42.3l0,1.85c0,.17.18.31.41.31l3.8,0c.23,0,.42-.13.42-.3l0-1.85C170.8,75.28,170.62,75.14,170.39,75.14Z"/><path class="cls-26" d="M173.4,101.24l-3.8,0c-.23,0-.42.13-.42.3l0,1.85c0,.17.18.31.4.31l3.81,0c.23,0,.41-.13.42-.3l0-1.85C173.81,101.38,173.63,101.24,173.4,101.24Z"/><path class="cls-27" d="M158.72,78.35l-2.73,0c-.16,0-.3.1-.3.22l0,1.33a.26.26,0,0,0,.29.22l2.72,0c.17,0,.3-.09.31-.22l0-1.32A.26.26,0,0,0,158.72,78.35Z"/><path class="cls-28" d="M170.5,89.35l-2.73,0a.27.27,0,0,0-.3.21l0,1.33a.26.26,0,0,0,.29.22l2.73,0a.27.27,0,0,0,.3-.22l0-1.32A.26.26,0,0,0,170.5,89.35Z"/><polygon class="cls-29" points="176.75 123.09 149.66 122.86 150.96 54.32 178.04 54.54 176.75 123.09"/><polygon class="cls-30" points="176.75 123.09 149.66 122.86 150.96 54.32 178.04 54.54 176.75 123.09"/><path class="cls-31" d="M178.79,49.1l-14-29.17a.6.6,0,0,0-.54-.3.58.58,0,0,0-.54.31L149.47,49.69a.42.42,0,0,0,.06.45.64.64,0,0,0,.47.2h0l28.24-.58a.57.57,0,0,0,.47-.22A.4.4,0,0,0,178.79,49.1Z"/><g class="cls-32"><polygon class="cls-33" points="172.55 37.44 169.17 30.43 159 31 155.75 37.83 172.55 37.44"/><polygon class="cls-33" points="178.25 49.28 175.71 44.02 151.22 47.33 150.01 49.86 178.25 49.28"/><polygon class="cls-33" points="161.89 24.95 166.26 24.4 164.2 20.11 161.89 24.95"/></g><path class="cls-34" d="M178.79,49.1l-14-29.17a.6.6,0,0,0-.54-.3.58.58,0,0,0-.54.31L149.47,49.69a.42.42,0,0,0,.06.45.64.64,0,0,0,.47.2h0l28.24-.58a.57.57,0,0,0,.47-.22A.4.4,0,0,0,178.79,49.1Z"/><path class="cls-35" d="M178.79,49.1l-14-29.17a.6.6,0,0,0-.54-.3.58.58,0,0,0-.54.31L149.47,49.69a.42.42,0,0,0,.06.45.64.64,0,0,0,.47.2h0l28.24-.58a.57.57,0,0,0,.47-.22A.4.4,0,0,0,178.79,49.1Z"/><path class="cls-36" d="M180.33,49.33a.51.51,0,0,0-.36-.14L149,47.89a.63.63,0,0,0-.39.13.35.35,0,0,0-.13.32l.74,7a.47.47,0,0,0,.49.38h0l29.43-.88a.47.47,0,0,0,.48-.36l.75-4.83A.36.36,0,0,0,180.33,49.33Z"/><path class="cls-37" d="M180.33,49.33a.51.51,0,0,0-.36-.14L149,47.89a.63.63,0,0,0-.39.13.35.35,0,0,0-.13.32l.74,7a.47.47,0,0,0,.49.38h0l29.43-.88a.47.47,0,0,0,.48-.36l.75-4.83A.36.36,0,0,0,180.33,49.33Z"/></g><path class="cls-38" d="M67.16,97.47a2.6,2.6,0,0,0-.06-2.08l-3.57-7.53a2.67,2.67,0,0,0-.67-.88l-2.65-6,1.42-.34a2.64,2.64,0,0,0,1.7-1.34,2.59,2.59,0,0,0,.08-2.16l-2.07-5a2.61,2.61,0,0,0-3.4-1.4l-7,2.94a2.55,2.55,0,0,0-2.07-.6l-3.83.56a2.58,2.58,0,0,0-2.21,2.63l0,1.26L42.69,77a2.58,2.58,0,0,0-2.8-1.68l-3.83.56A2.6,2.6,0,0,0,33.88,78l-8.63,3.57A2.59,2.59,0,0,0,23.85,85l1.27,3.11a2.59,2.59,0,0,0,3,1.52l.43-.11.8,7.5a2.59,2.59,0,0,0-.83,2l.38,7.19a2.58,2.58,0,0,0,3.19,2.38l-.09.19a2.56,2.56,0,0,0,.14,2.33l2.76,4.72a2.6,2.6,0,0,0,2.22,1.28,3.13,3.13,0,0,0,.6-.06,41.59,41.59,0,0,0,10-3.48c6.47-3.43,10.33-7.55,11.54-12.28l.19-.06,6.15-2.29A2.59,2.59,0,0,0,67.16,97.47Z"/><path class="cls-38" d="M102.53,72a2.57,2.57,0,0,0-3.08-2.36L82.57,73a2.65,2.65,0,0,0-1.1-1.38L78.78,70a2.59,2.59,0,0,0-3.47.72L65.67,84.4a2.57,2.57,0,0,0,.48,3.49l5.49,4.46L66,102.94a2.59,2.59,0,0,0,2.59,3.79l21.06-2.5,1.17,2.61a2.59,2.59,0,0,0,2.34,1.54,2.82,2.82,0,0,0,.65-.08c7.27-1.84,10.49-9.7,9.56-23.36C103.29,84,103.1,80.35,102.53,72ZM83.85,89.13l2.33-6a2.54,2.54,0,0,0,.16-1.24l7-.25c.19,8.44-1.23,13.57-3.91,13.86h0L86.6,90.42a2.56,2.56,0,0,0-2.25-1.33A2.15,2.15,0,0,0,83.85,89.13Z"/><path class="cls-38" d="M137.42,86.34h-.06l-.63-5.66,4.33,0h0a2.58,2.58,0,0,0,2.59-2.9l-.7-5.65a2.59,2.59,0,0,0-2.69-2.27l-11.18.52a2.57,2.57,0,0,0-2.22-2.11l-4.49-.57a2.59,2.59,0,0,0-2.74,1.65l-.56,1.47-11.71.52a2.55,2.55,0,0,0-1.85.91,2.59,2.59,0,0,0-.6,2l.44,3.76a2.6,2.6,0,0,0,2.54,2.29l3.7,0-1.2,6.25-1.34,0a2.59,2.59,0,0,0-2.53,2.17L104,104.59a2.58,2.58,0,0,0,.64,2.16,2.63,2.63,0,0,0,2.1.84l7.19-.51a2.73,2.73,0,0,0,1-.29h.1l4.9-.39a2.58,2.58,0,0,0,1.39-.54l1.9.08.18.21a2.55,2.55,0,0,0,2.1.84l3.69-.27a2.58,2.58,0,0,0,2.52,2.11h.2l7-.48a2.58,2.58,0,0,0,2.41-2.77L140,88.73A2.59,2.59,0,0,0,137.42,86.34Z"/><path class="cls-38" d="M182,77.64l-1.54-.11A2.57,2.57,0,0,0,178.76,76l-3.45-1a2.59,2.59,0,0,0-3.16,1.67l-.08.24-.79-.06a2.59,2.59,0,0,0-1.91-2.5L166,73.4a2.59,2.59,0,0,0-3.12,1.6l-.41,1.13-2.91-.21h-.3a2.58,2.58,0,0,0-1.79-2.65l-3.77-1.21a2.6,2.6,0,0,0-3.29,1.81l-1.68,6.45h-2.1A2.57,2.57,0,0,0,144,82.85L144,87.09a2.57,2.57,0,0,0,2.23,2.6h.09l-1.35,5.14-1.62.24a2.58,2.58,0,0,0-2.21,2.73l.29,4.23a2.58,2.58,0,0,0,2.54,2.41l10.06.14-1.23,4a2.55,2.55,0,0,0,.36,2.22,2.58,2.58,0,0,0,2,1.11l6.09.36a2.5,2.5,0,0,0,1.76-.55l2.94.51a2.91,2.91,0,0,0,.38.77,2.61,2.61,0,0,0,1.93,1.07l6.35.42h.16a2.58,2.58,0,0,0,1.75-.66,2.6,2.6,0,0,0,.85-1.82l.44-11.7L182,95.89a2.59,2.59,0,0,0-.57-4c-1.48-.86-2.81-1.7-4-2.52a2.54,2.54,0,0,0,1.89-.57,2.57,2.57,0,0,0,.73-.94l1.11.18a2.56,2.56,0,0,0,2.05-.55,2.59,2.59,0,0,0,.95-1.91l.19-5.25A2.58,2.58,0,0,0,182,77.64Z"/><path class="cls-14" d="M62.05,87.85a.92.92,0,0,0-.5-.47v0L58,79.22a.3.3,0,0,0,0-.08l3.34-.81a.94.94,0,0,0,.62-.48,1,1,0,0,0,0-.79l-2.08-5a.94.94,0,0,0-.51-.51,1,1,0,0,0-.72,0L50.29,75l-.14-.42a.94.94,0,0,0-1-.62l-3.83.56a.94.94,0,0,0-.8,1l.22,7.07L43.37,83l-2.22-6.13a.93.93,0,0,0-1-.61l-3.83.56a.93.93,0,0,0-.8.94v.67l-9.62,4a.93.93,0,0,0-.51,1.22l1.27,3.11a.94.94,0,0,0,1.1.55l7.8-2a.57.57,0,0,0,0,.18L30.81,87a1,1,0,0,0-.65,1l1,9.09a.5.5,0,0,1,0,.12l-.3.1a.94.94,0,0,0-.64.94l.37,7.19a1,1,0,0,0,.42.73.94.94,0,0,0,.83.11L35.44,105l1.64,2.48c-1,.24-1.93.46-2.87.67a1,1,0,0,0-.66.55,1,1,0,0,0,.06.85l2.76,4.72a.93.93,0,0,0,.8.46l.22,0A39.67,39.67,0,0,0,47,111.38c6.63-3.52,10.31-7.75,11-12.61l.13.1A.94.94,0,0,0,59,99l6.15-2.29a.91.91,0,0,0,.54-.53.93.93,0,0,0,0-.75Zm-25,2.47L38.41,90v.54l-1.13.4Zm7.47-2.08,1-.27-.94.33ZM50,102.08a12.23,12.23,0,0,1-2.29,1.67q-.59-.51-1.26-1Zm-12.18-1.51,1-.29c-.3.15-.62.29-.94.43Z"/><path class="cls-14" d="M100.9,71.41a.94.94,0,0,0-1.12-.86L82.29,74a.94.94,0,0,0-.74,1.13l.85,3.76a.94.94,0,0,0,.95.74l11.57-.43c.34,7.76-.37,16.67-5.33,17.21a.93.93,0,0,0-.71.47.72.72,0,0,0-.09.2L85.16,90.5A.94.94,0,0,0,84,90.07l-3,1.12,3.63-9.38a.94.94,0,0,0-.39-1.15l-2.85-1.72a.94.94,0,0,0-.73-.1,1,1,0,0,0-.58.46L77.58,84l-1.22-.58L81,73.49a.93.93,0,0,0-.36-1.2l-2.68-1.65a1,1,0,0,0-1.27.26L67,84.63a.94.94,0,0,0,.17,1.27l6.55,5.31L67.42,103a.94.94,0,0,0,.94,1.38l21.57-2.56a.9.9,0,0,0,.59-.31l1.77,3.95a.93.93,0,0,0,.85.55,1,1,0,0,0,.24,0c6.38-1.62,9.18-8.91,8.32-21.67C101.65,83.4,101.47,79.77,100.9,71.41ZM79.24,95.77,79.93,94l.57,1.49Z"/><path class="cls-14" d="M140.35,70.84l-12.67.59-.2-1.39a.93.93,0,0,0-.81-.8l-4.49-.57a1,1,0,0,0-1,.6l-.94,2.48-12.79.57a.92.92,0,0,0-.67.33.94.94,0,0,0-.22.72l.44,3.76a.93.93,0,0,0,.92.83l5.74.07a1.28,1.28,0,0,0-.14.34l-1.72,9a.66.66,0,0,0,0,.2l-2.71,0a.93.93,0,0,0-.92.79l-2.56,15.78a1,1,0,0,0,.23.79,1,1,0,0,0,.77.3l7.19-.51a1,1,0,0,1,1.12-.3l4.89-.38a1,1,0,0,0,.8-.59l3.78.16a1,1,0,0,0,.24.71.9.9,0,0,0,.76.3l5.17-.37a1,1,0,0,0,.41-.13l-.16,1.28a1,1,0,0,0,.25.76.93.93,0,0,0,.68.3h.07l7-.48a.93.93,0,0,0,.64-.33.9.9,0,0,0,.23-.68l-1.25-16.83a.94.94,0,0,0-.93-.87h0l-1.67,0a1,1,0,0,0,.07-.48l-1-8.52,6.2.08a1,1,0,0,0,.71-.31,1,1,0,0,0,.23-.75l-.7-5.65A1,1,0,0,0,140.35,70.84Zm-18,27.72-1.94.21,0-.44Zm1.8-11.15-4,0a.59.59,0,0,0,0-.23Zm0-5-4.36.24,0-.45Zm-9.57,17.16-.31-7,10.78.42-8.72.27a.93.93,0,0,0-.9.79Zm16.78,2.08-.79-7.92a.93.93,0,0,0-.2-.49l2,.07Z"/><path class="cls-14" d="M181.9,78.57,179,78.36l0-.58a1,1,0,0,0-.68-1l-3.46-1a.94.94,0,0,0-1.15.61l-.48,1.46-3.75-.3.15-1.42a.93.93,0,0,0-.69-1l-3.38-.93a.93.93,0,0,0-1.13.58l-.84,2.3-4.15-.31a.93.93,0,0,0-.7.24.94.94,0,0,0-.31.66l-.13,3.36a.76.76,0,0,0,0,.15h-1.58l.88-6.11a.94.94,0,0,0-.65-1l-3.77-1.21a.94.94,0,0,0-1.19.66l-2,7.68h-3.36a.94.94,0,0,0-.94.93l-.07,4.24a1,1,0,0,0,.81.95l1.93.26-2.1,8-2.7.39a.94.94,0,0,0-.8,1l.29,4.24a.92.92,0,0,0,.92.87l12.24.17-1.86,6.13a.94.94,0,0,0,.85,1.21l6.08.37a1,1,0,0,0,1-.7l5.31.91-.1.4a1,1,0,0,0,.14.79,1,1,0,0,0,.7.39l6.36.42h.05a.93.93,0,0,0,.64-.24.94.94,0,0,0,.31-.66l.47-12.43v-.07a.93.93,0,0,0,.41-.25L180.83,94a.94.94,0,0,0,.25-.78.91.91,0,0,0-.45-.68,35.6,35.6,0,0,1-8.4-6.29l.08-.13,0,0,5.27.86a.93.93,0,0,0,1.09-.89l0-.87,2.76.45a.93.93,0,0,0,1.09-.89l.2-5.25A.94.94,0,0,0,181.9,78.57Zm-26,10.08-.22,0v-.08Zm.49,5.54-1.5.22.52-3.74,3,4.78a.94.94,0,0,0,1.1.39c.61-.21,1.18-.42,1.72-.64v.62a1,1,0,0,0,.16.53l-2.45-.27a1,1,0,0,0-1,.67l-.26.85-.18-2.54a.93.93,0,0,0-.34-.67,1,1,0,0,0-.59-.21ZM171,84l.18,0,0,.09Zm-3.78,7.76c.39-.3.76-.61,1.13-.94.17.32.34.63.53.94Zm-7.31-9.55h0l1.72.28-.47,1.25a1,1,0,0,0,.07.8,1,1,0,0,0,.67.45l2.91.47a28,28,0,0,1-5,2.14Zm3,21.67.19-1.6,6.18,1.5-.11.45Zm10.58-6.19a2,2,0,0,0,0-.24v-.25l.66.57Z"/><path class="cls-39" d="M36.44,77.71l3.83-.56,2.3,6.34-6.08,1.72,0-1.15-8.94,2.29-1.27-3.1L36.46,79Zm24.24,10-6.14,2.33,0-.43-16.9,4.89.12.37-5.64,2.06-1-9.09,26-8.26Zm4.09,8-6.15,2.29-.35-4.31-10.47,3,.54.4a7.6,7.6,0,0,1-.5,1l9.14-3q1.56,9.12-10.39,15.46a39.24,39.24,0,0,1-9.41,3.24l-2.76-4.72c1.44-.33,2.92-.67,4.39-1a33.37,33.37,0,0,0,3.94-1.14c-.37-.56-.79-1.14-1.15-1.7a21.58,21.58,0,0,1-3.58,2l-2.2-3.32-4.3,1.46-.37-7.18L61.2,88.24ZM39.33,91.15l0-2.45-3.53,1,.87,2.39Zm4.8,6.61L36.48,100l.89,2A19.82,19.82,0,0,0,44.13,97.76Zm2.67-9.25V86.63l-3.58,1,.83,1.84Zm5.28,12.22L45.26,102l-.58.61a36.24,36.24,0,0,1,2.88,2.29C49.91,103.62,51.43,102.23,52.08,100.73ZM49.26,74.88l.47,1.37L59,72.37l2.08,5L51,79.83l.44,1.22-5.82,1.61-.22-7.22Zm4.85,11L54,84.63l-3.23.9.56,1.39Z"/><path class="cls-14" d="M59.77,73.05a1.75,1.75,0,1,1-3.13,1.57,1.75,1.75,0,0,1,3.13-1.57Z"/><path class="cls-40" d="M80.12,73.08l-5,10.76L78,85.21l3-5.47,2.85,1.72-6,15.6,4-.9-1.43-3.73,4-1.48,5.48,9.93-21.57,2.56L74.93,91l-7.14-5.8,9.64-13.73Zm20.64,11.29c.84,12.32-1.7,19.2-7.61,20.7l-3.46-7.73c4.73-.52,6.8-6.9,6.12-19.12l-12.5.46-.84-3.77L100,71.46Q100.64,81.5,100.76,84.37Z"/><path class="cls-14" d="M101,73a1.63,1.63,0,1,1-1.62-1.64A1.62,1.62,0,0,1,101,73Z"/><path class="cls-14" d="M141.22,73.45a1.63,1.63,0,1,1-1.62-1.64A1.63,1.63,0,0,1,141.22,73.45Z"/><path class="cls-41" d="M138.7,105l-7,.48,1.61-13.06-20.16-.79.54,12.12-7.2.5,2.56-15.78,28.36-.3ZM126.55,70.16l.32,2.24,13.53-.63.7,5.65L107.93,77l-.44-3.77,13.41-.59,1.16-3.07Zm8.35,16.75-6.3.47.15-.69-9.64-.47.11.94-6.49.35,1.72-9,19.5-.18Zm-4.42,16.39-5.16.38.16-1-5.8-.24,0,.62-4.9.39,1.43-9.21,13.28-.41Zm-.75-21.52-11.12-.54.23,2.43,10.63-.58Zm-3.57,17.3.17-1-7-.81.19,2.55Z"/><path class="cls-14" d="M141.35,72.79a1.63,1.63,0,1,1-1.62-1.65A1.63,1.63,0,0,1,141.35,72.79Z"/><path class="cls-42" d="M158.85,88.12l-4-.57-1.11,8,2.75-.39.44,6.21-13-.19-.28-4.23,3.31-.47,2.52-9.62-3-.41.07-4.24h4.09l2.19-8.38L156.68,75l-1,7.18H159Zm15.87,23.11-6.35-.42.36-1.39-7.3-1.25-.09.85-6.09-.37L158.78,97l16.41,1.8Zm6.92-26.49-3.81-.62-.08,1.94-6-1,.61-1.83-4.35-.68-.21,2c.43-.35.82-.67,1.16-1l2.51,2.11c-.17.28-.33.48-.46.7,1.78,2.19,4.81,4.52,9.1,7l-4.29,4.49A21.73,21.73,0,0,1,172.62,95l-.08,2.36-10.42-1.57,0-2.1a24.33,24.33,0,0,1-3,1.22l-3.32-5.33a30.34,30.34,0,0,0,11.54-4.72L162,84l.87-2.33-3.66-.59.13-3.35,4.86.36,1.08-3,3.39.93-.25,2.37,5.44.44.71-2.16,3.46,1-.07,1.5,3.84.27Zm-11.81,20.45.55-2.11-8.14-2-.43,3.64Zm-1.19-16a23.2,23.2,0,0,1-4.52,3.45l6.52,0A15.6,15.6,0,0,1,168.64,89.24Z"/><path class="cls-14" d="M182.5,80.29a1.63,1.63,0,1,1-1.61-1.64A1.62,1.62,0,0,1,182.5,80.29Z"/><path class="cls-38" d="M106.72,50a2.52,2.52,0,0,0,.48-2l-1-5.47a2.53,2.53,0,0,0-2.05-2l.06-4.1a1.71,1.71,0,0,0,.18-.2,2.52,2.52,0,0,0,.47-2l-1-5.43a2.52,2.52,0,0,0-2.91-2L84.2,29.62l-.15-.74a2.53,2.53,0,0,0-3-2L70.47,29.23a2.53,2.53,0,0,0-1.92,3l.69,3.15a2.51,2.51,0,0,0-1.65,2.9l.75,3.64a2.53,2.53,0,0,0,.94,1.5,2.11,2.11,0,0,0,0,.35l.58,2.88A3.37,3.37,0,0,0,70,47a2.49,2.49,0,0,0-.28,1.81l.47,2.1a2.52,2.52,0,0,0-.89,1.72l-1,11a2.53,2.53,0,0,0,2.87,2.72l6-.83a2.46,2.46,0,0,0,.67-.19,2.51,2.51,0,0,0,1.77.41l3.43-.47a2.64,2.64,0,0,0,.35.4,2.46,2.46,0,0,0,1.76.67,2.19,2.19,0,0,0,.36,0l6.39-1a2.54,2.54,0,0,0,1.21-.55l2.09-.13.21.23a2.54,2.54,0,0,0,2.12.65l6.69-1a2.52,2.52,0,0,0,1.66-1,2.48,2.48,0,0,0,.44-1.9L104.57,51l.32,0A2.54,2.54,0,0,0,106.72,50Z"/><path class="cls-38" d="M141.79,51c-.43,0-.86,0-1.2,0a29.61,29.61,0,0,1-5.9-.57A34.63,34.63,0,0,0,138,40.84l4.21-.34a2.51,2.51,0,0,0,2.28-3l-1.15-6.31a2.52,2.52,0,0,0-2.84-2.05l-10.23,1.48-.39-2.25a2.52,2.52,0,0,0-2.34-2.09l-4.39-.27a2.53,2.53,0,0,0-2.64,2.07l-.74,4.07-11.56,1.7a2.52,2.52,0,0,0-2.12,3l.77,4.15a2.52,2.52,0,0,0,2.67,2.06l2-.16c0,.11,0,.22.07.33A25.44,25.44,0,0,0,116,51.45a38,38,0,0,1-7,1.44,2.53,2.53,0,0,0-2,3.65l3.8,7.51a2.51,2.51,0,0,0,2.3,1.39,2.22,2.22,0,0,0,.51-.06,35.21,35.21,0,0,0,12.45-5.32,47.17,47.17,0,0,0,12.17,4.54,2.52,2.52,0,0,0,3-1.6l3.16-8.67A2.52,2.52,0,0,0,141.79,51Zm-16.66-5a16.88,16.88,0,0,1-3.42-3.87l6.17-.48A15.66,15.66,0,0,1,125.13,46Z"/><path class="cls-14" d="M103.49,41l-.94.15.08-5.81a1,1,0,0,0-.23-.66,1,1,0,0,0,.72-.39,1.06,1.06,0,0,0,.19-.81l-1-5.43a1,1,0,0,0-1.17-.8l-17.29,3a1,1,0,0,0-.66.43l-.08.12-.51-2.6a1,1,0,0,0-.44-.65,1,1,0,0,0-.77-.14L70.78,29.79A1,1,0,0,0,70,31l.79,3.6a1,1,0,0,0,1.07.79l.84-.06-2.85.54a1,1,0,0,0-.81,1.19l.76,3.65a1,1,0,0,0,1.07.8l.4,0a1,1,0,0,0-.34.32,1,1,0,0,0-.15.76l.59,2.88a1,1,0,0,0,1.07.81h.07l-.54.11a1,1,0,0,0-.65.44,1,1,0,0,0-.14.77l.67,3a1,1,0,0,0,.13.33l-.29,0a1,1,0,0,0-.9.92l-.94,11a1,1,0,0,0,.31.82,1,1,0,0,0,.83.26l6-.83a1,1,0,0,0,.76-.53l.56,0a1.05,1.05,0,0,0,.3.52,1,1,0,0,0,.83.26l4.71-.64v.13a1,1,0,0,0,.31.83,1,1,0,0,0,.71.27h.14l6.39-1a1,1,0,0,0,.74-.54l3.74-.21a1,1,0,0,0,1.16,1L104,62a1,1,0,0,0,.66-.41,1,1,0,0,0,.18-.76l-2.06-12.2,2-.13a1,1,0,0,0,.73-.39,1,1,0,0,0,.2-.81l-1.06-5.47A1,1,0,0,0,103.49,41ZM96.71,54.47l-.1,1.3L92,56.53l-.19-2.13ZM78.78,56l-.07.75-1.51.34L77,55.88ZM95,41.5l-.26.89-1.09.17.18-1ZM84.8,36l3.49-.25-.12.34-3.6.45-.09,0-.12-.63A1,1,0,0,0,84.8,36Zm-.66,4.46.12.71a1,1,0,0,0,1,.84l.77,0-.66,1.84-1.92.28-.72-3.52,1.31-.1Zm.67,14.65-.9-4.54a1,1,0,0,0-.21-.44l.12-.13.05-.07H84l1.27-.09h0Z"/><path class="cls-14" d="M142,38.08a1.08,1.08,0,0,0,.72-.39,1,1,0,0,0,.19-.8l-1.14-6.31a1,1,0,0,0-1.14-.82L129,31.45l-.64-3.7a1,1,0,0,0-.94-.84L123,26.65a1,1,0,0,0-1.05.82L121,32.62l-12.63,1.85a1,1,0,0,0-.67.41,1,1,0,0,0-.17.77l.76,4.14a1,1,0,0,0,1.07.83l4.83-.37-.73.42a1,1,0,0,0-.46,1.18,24.64,24.64,0,0,0,5.52,9.37,36.51,36.51,0,0,1-9.35,2.26,1,1,0,0,0-.77.52,1,1,0,0,0,0,.94l3.79,7.51a1,1,0,0,0,.92.56.76.76,0,0,0,.21,0A33.31,33.31,0,0,0,126,57.34a44.06,44.06,0,0,0,12.6,4.86,1,1,0,0,0,1.18-.63L143,52.89a1,1,0,0,0-1-1.35c-.47.05-.94.05-1.35.06a29.29,29.29,0,0,1-8.22-1.11,32.11,32.11,0,0,0,4.32-12Zm-16.78,9a18.15,18.15,0,0,1-6-7.21L130.06,39A17.25,17.25,0,0,1,125.26,47.07Z"/><path class="cls-43" d="M84,39.46l-13.21,1L70,36.86l13-2.45Zm1,22.06-5.78.79.06-.84-2.55.12,0,.5-6,.83,1-11,11.11-1.15Zm-2.5-28-10.77.85L71,30.78l10.56-2.33Zm0,10.87-10.16.83-.59-2.88,9.92-2Zm.48,5-10.17,1-.66-3,10-2Zm-3.36,8.22.22-2.48-4-.38.49,3.61Zm22.67-23.9-8.3.61-.35,2.07,8-1-.1,7,2.13-.34,1,5.47L84,48.92l-.75-3.76,3-.44,1.38-3.83L85.26,41l-.56-3.46L88.92,37l.83-2.38-5,.36L84,31.31l17.29-3ZM103.85,61l-6.7,1,.1-1-5.79.33.05.5-6.39,1,1.18-13,15.41-1.57Zm-6.3-4.38.25-3.17-7.06-.1.39,4.34Zm-2-13.35.83-2.87L93,40.6l-.55,3.17Z"/><path class="cls-44" d="M127.34,27.92l.81,4.67,12.66-1.83L142,37.07l-6.17.49a30.75,30.75,0,0,1-5,13.48,29,29,0,0,0,9.78,1.57c.46,0,1,0,1.45-.06l-3.16,8.67a42.91,42.91,0,0,1-12.9-5.1A32,32,0,0,1,113.1,62l-3.8-7.52a35.61,35.61,0,0,0,11-2.91,24.28,24.28,0,0,1-6.28-10l3.88-2.29a19.33,19.33,0,0,0,7.49,9.09,18.43,18.43,0,0,0,6-10.44l-22.08,1.7-.76-4.14,13.35-2L123,27.66Z"/></g></g></svg>