<svg xmlns="http://www.w3.org/2000/svg" viewBox="0 0 31.41 30"><defs><style>.cls-1{fill:#ade633;}</style></defs><title>頁面_FAol_1108</title><g id="頁面內容"><path class="cls-1" d="M31.3,15a7.35,7.35,0,0,0,.1-1.55,4.74,4.74,0,0,0-1.31-2.87,3.51,3.51,0,0,0-2.62-.77,17.24,17.24,0,0,1-3.13-.09c-.25,0-.38,0-.35-.39a10,10,0,0,0-1.18-6.15A6.05,6.05,0,0,0,18.29,0c-2-.27-4,1.5-3.54,4.22a7.3,7.3,0,0,1-.05,3,7,7,0,0,1-3.06,4.42.48.48,0,0,1-.71-.08A2.15,2.15,0,0,0,9.34,11c-1.95,0-3.91,0-5.86,0a3.75,3.75,0,0,0-2.57.76C-.22,12.72,0,14,.09,15.37c.23,2.91.58,5.82.93,8.72.14,1.13.15,2.28.39,3.4A3,3,0,0,0,4.54,30c1.63,0,3.26,0,4.89,0a1.65,1.65,0,0,0,1.13-.33.82.82,0,0,1,.93-.14,8.61,8.61,0,0,0,3.3.47c3.33,0,6.65,0,10,0,1.91,0,4.23-2,4.35-3.83A1.71,1.71,0,0,1,29.59,25a3.3,3.3,0,0,0,.8-3.44.41.41,0,0,1,.07-.38,4.31,4.31,0,0,0,.35-3.64.64.64,0,0,1-.07-.46A15.25,15.25,0,0,0,31.3,15ZM9.48,27.35c0,.5-.17.6-.62.59-1.39,0-2.78,0-4.18,0-.85,0-1.24-.45-1.34-1.49-.27-2.59-.56-5.18-.84-7.77C2.33,17.1,2.17,15.52,2,14a.9.9,0,0,1,1-.88c2,0,4.07,0,6.1,0,.4,0,.4.24.39.52-.11,2.32.11,4.63,0,6.05C9.47,22.79,9.45,25.07,9.48,27.35ZM27.86,16.69c1.33,1.39,1.85,3.46-.61,4.31.13.27.42.37.62.55a1.39,1.39,0,0,1-.17,2.37,6,6,0,0,1-1.44.75c1.09,1.12,1,1.78-.25,2.61a3.71,3.71,0,0,1-2.13.67c-3.35,0-6.69,0-10,0a9.26,9.26,0,0,1-2.08-.49c-.32-.08-.19-.37-.19-.57,0-2,0-4,0-6s0-4.27,0-6.41c0-.37.09-.53.48-.67a6.93,6.93,0,0,0,3.44-3.06,9.37,9.37,0,0,0,1.34-6.95c-.21-1.14.46-1.9,1.79-1.49a4.69,4.69,0,0,1,3,3.4,9.33,9.33,0,0,1-.24,5.77c-.14.44-.09.57.41.56,2.09,0,4.19,0,6.28,0a.84.84,0,0,1,.83.44,3.72,3.72,0,0,1,.69,1.7A2.25,2.25,0,0,1,27.86,16.69Z"/></g></svg>