<svg xmlns="http://www.w3.org/2000/svg" xmlns:xlink="http://www.w3.org/1999/xlink" viewBox="0 0 230 120"><defs><style>.cls-1{isolation:isolate;}.cls-2{fill:url(#金色);}.cls-3{fill:url(#radial-gradient);}.cls-4,.cls-5,.cls-7{fill:#8bb928;}.cls-4,.cls-6{opacity:0.3;}.cls-4,.cls-6,.cls-8,.cls-9{mix-blend-mode:screen;}.cls-5{opacity:0.5;mix-blend-mode:multiply;}.cls-8{opacity:0.1;}.cls-9{opacity:0.2;}.cls-10{fill:#754c24;}.cls-11{fill:#fff;}.cls-12{fill:url(#未命名漸層_831);}.cls-13{fill:url(#橙色);}.cls-14{fill:url(#未命名漸層_831-2);}.cls-15{fill:url(#橙色-2);}.cls-16{fill:url(#橙色-3);}.cls-17{fill:url(#橙色-4);}.cls-18{fill:url(#橙色-5);}</style><linearGradient id="金色" x1="34.34" y1="59.97" x2="182.05" y2="59.97" gradientTransform="translate(-0.12 0.29) rotate(-0.15)" gradientUnits="userSpaceOnUse"><stop offset="0" stop-color="#ffeca5"/><stop offset="0.5" stop-color="#fbce00"/><stop offset="1" stop-color="#f6b100"/></linearGradient><radialGradient id="radial-gradient" cx="3302.48" cy="497.24" r="51.25" gradientTransform="matrix(-0.97, -0.24, -0.24, 0.93, 3372.73, 357.36)" gradientUnits="userSpaceOnUse"><stop offset="0" stop-color="#8bb928"/><stop offset="1" stop-color="#4e7712"/></radialGradient><linearGradient id="未命名漸層_831" x1="731.12" y1="1314.82" x2="731.12" y2="1352.45" gradientTransform="translate(-946.37 -1078.9) rotate(-12.03)" gradientUnits="userSpaceOnUse"><stop offset="0.26" stop-color="#64e196"/><stop offset="0.49" stop-color="#4fb697"/><stop offset="1" stop-color="#225c9a"/></linearGradient><linearGradient id="橙色" x1="768.44" y1="1358.01" x2="770.85" y2="1322.18" gradientTransform="translate(-946.37 -1078.9) rotate(-12.03)" gradientUnits="userSpaceOnUse"><stop offset="0" stop-color="#f09647"/><stop offset="0.5" stop-color="#ec7300"/><stop offset="1" stop-color="#d25e12"/></linearGradient><linearGradient id="未命名漸層_831-2" x1="806.16" y1="1325.24" x2="806.16" y2="1372.98" xlink:href="#未命名漸層_831"/><linearGradient id="橙色-2" x1="841.94" y1="1381.93" x2="844.67" y2="1341.32" xlink:href="#橙色"/><linearGradient id="橙色-3" x1="766.1" y1="1329.31" x2="766.1" y2="1298.54" xlink:href="#橙色"/><linearGradient id="橙色-4" x1="798.02" y1="1334.5" x2="798.02" y2="1304.88" xlink:href="#橙色"/><linearGradient id="橙色-5" x1="827.25" y1="1341.07" x2="827.25" y2="1311.14" xlink:href="#橙色"/></defs><title>頁面_FAol_1108</title><g class="cls-1"><g id="頁面內容"><path class="cls-2" d="M161.28,41.41A15.51,15.51,0,0,0,137,30.13,38.58,38.58,0,0,0,110.44,16.2a40.29,40.29,0,0,0-28.09,8,36.75,36.75,0,0,0-9.91,11.36,14.24,14.24,0,0,0-3.16-.42A14.7,14.7,0,0,0,54.5,46.89a19.92,19.92,0,0,0-7.88,38.29,20.16,20.16,0,0,0,7.77,2.31,21.25,21.25,0,0,0,6-.32,4.74,4.74,0,0,1,3.09.41C65.87,96.67,76.22,103.67,88.8,104c10.24.24,19.22-4,23.74-10.47,6,9.11,18.28,12.87,29.38,8.35a24.72,24.72,0,0,0,14.7-16.26c.6.08,1.2.14,1.81.18a22.22,22.22,0,1,0,2.85-44.35Z"/><path class="cls-3" d="M22.77,49.08a2.35,2.35,0,0,0,1.81,1.15,2.65,2.65,0,0,0-.81,2.2,1.94,1.94,0,0,0,1.4,1.85,1,1,0,0,0-.49,1.26,1.68,1.68,0,0,0,1.11,1c-.64.47-1.24,1-1,2s.75,1,1.38,1.35a1.51,1.51,0,0,0-.82,1.8,2.35,2.35,0,0,0,2.53,1.61,2.61,2.61,0,0,0,1.05,1.38,2.36,2.36,0,0,0,2.23.49,1.93,1.93,0,0,0,1.61,1.49c-.36,1.39,2.8,3.38,4,2.77a3.16,3.16,0,0,0,1.41,1.92c1.21.7,1.74,0,2.1-.76.9,1.75,4.41,3.61,4.63,1.72a2.33,2.33,0,0,0,1.69.21c.93-.17,1.43-.63,1.48-1.47,1.77,1,4,1,4.07-.67,1.39.82,3,.6,3.41-.53,1.38.64,2.51.23,2.91-.8,1.88,1.2,3.54.51,3.25-1.3,1.54,1,3.51.53,3.46-.89,1.09.74,2.32,1,2.6,0,1.43,1,3,.62,3.13-.65,1.12,1,2.74.81,2.88-.36.79.49,1.78.56,2.17,0s0-1.54-.63-2.38c.62.28,1.22.36,1.47-.13.38-.76-.5-2-1.4-3,.78.23,1.49.13,1.55-.71.08-1.23-1.23-3-2.54-4,.92-.22.71-1.2.12-2.15.7.2,1.15-.25,1-1.24a7.9,7.9,0,0,0-1.72-3.2c.47.07.86,0,.89-.58A3.56,3.56,0,0,0,73.24,46c1.1.47,2.23.77,2.26-.32s-1.37-3.08-2.79-4.07c.81-.18.8-1-.57-1.8a14,14,0,0,0-2.41-1.17,0,0,0,0,1,0,0c.26-.77-.54-1.65-1.35-2.19a7.9,7.9,0,0,0-1.74-.83,15.14,15.14,0,0,1-2.13-.43c-.59-.31-.59-.91-1.17-1.25a1.78,1.78,0,0,0-1-.23,1,1,0,0,0-.19-1.24,3.14,3.14,0,0,0-2.32-.72.55.55,0,0,0,0-.69,2.29,2.29,0,0,0-1.26-.71c-.89-.28-2.33-.62-2.86-.07-.59-1.32-2.75-1.67-2.62-.62a3.93,3.93,0,0,0-2.8-.83c-.72.22-.64.88-.22,1.49-1.31-.42-2.5-.22-2,1.06-1.37-.77-3.54-1.83-4.33-1-.5.51.21,1.41.87,2.08-.79-.16-1.69-.28-2.09.16a.58.58,0,0,0-.18.49,3.48,3.48,0,0,0-2.5-.76c-.55.16-.62.55-.43,1-1.25-.47-3.21-.52-3.34.17-1-.71-2.41-1.38-3.08-.75s0,1.52.64,2.31c-1.08-.25-2.13.14-1.72,1.07-.78-.32-1.58-.56-1.9,0-.9-.58-2.15-1.35-2.83-.8-.47.37-.26,1,.15,1.55-1.16-.44-2.39-.57-3,.19a1,1,0,0,0,0,1.22c-.95-.22-2-.19-2.13.53-.23,1,.85,1.61,1.92,1.92a2.16,2.16,0,0,0-1.62,2.07,1.32,1.32,0,0,0,1.12,1.36c-.78.76-1.46,2.19-.56,2.74A1.82,1.82,0,0,0,22.77,49.08Z"/><path class="cls-4" d="M24.32,38.28a1,1,0,0,1,0-1.22c.61-.76,1.84-.63,3-.19-.41-.57-.62-1.18-.15-1.55.68-.55,1.93.22,2.83.8.32-.54,1.12-.3,1.9,0-.41-.93.64-1.32,1.72-1.07-.61-.79-1.19-1.78-.64-2.31s2,0,3.08.75c.13-.69,2.09-.64,3.34-.17-.19-.45-.12-.84.43-1a3.48,3.48,0,0,1,2.5.76.58.58,0,0,1,.18-.49c.4-.44,1.3-.32,2.09-.16-.66-.67-1.37-1.57-.87-2.08.79-.81,3,.25,4.33,1-.5-1.28.69-1.48,2-1.06-.42-.61-.5-1.27.22-1.49a3.93,3.93,0,0,1,2.8.83c-.13-1.05,2-.7,2.62.62.53-.55,2-.21,2.86.07a2.29,2.29,0,0,1,1.26.71.55.55,0,0,1,0,.69,3.14,3.14,0,0,1,2.32.72,1,1,0,0,1,.19,1.24,1.78,1.78,0,0,1,1,.23c.58.34.58.94,1.17,1.25a15.14,15.14,0,0,0,2.13.43,7.9,7.9,0,0,1,1.74.83c.81.54,1.61,1.42,1.35,2.19a0,0,0,0,0,0,0,14,14,0,0,1,2.41,1.17c1.37.83,1.38,1.62.57,1.8a8,8,0,0,1,1.86,1.86.38.38,0,0,1-.32.31c-.74.22-2.17-.66-3-1.39a.75.75,0,0,1-.16.84c-.56.42-1.5-.28-2.18-.82.16.54.2,1.12-.24,1.35s-1.32-.17-2-.61c.11.26.14.51,0,.68-.35.32-1,0-1.59-.34.63.88,1.34,2.08.26,2.33-.77.19-2-.71-2.69-1.47.2.47.25.94-.07,1.1s-1.24-.21-1.84-.63c.27.52.38,1.09,0,1.34s-1.1-.16-1.64-.56c.23.79.29,1.65-.62,1.74a3.17,3.17,0,0,1-2.19-1.2c.08.3.06.58-.21.72a1.44,1.44,0,0,1-1.35-.33,1.38,1.38,0,0,1,0,1.39c-.38.43-1.38.23-2.08-.19.18.56.18,1.12-.31,1.24s-1.31-.51-1.82-1a1,1,0,0,1-.49,1c-.7.32-1.57-.24-2.35-.7,0,.89-1,.66-1.95.15.37.76.57,1.64-.22,1.87-.56.15-1.26-.28-1.85-.74.15.8-.13,1.68-.69,1.83a1.84,1.84,0,0,1-1.7-.86,5.69,5.69,0,0,1-.83-1.39c0,.7-.48,1.35-1.36,1.07a2.31,2.31,0,0,1-1.4-2.12,1.14,1.14,0,0,1-1.47,0,1.28,1.28,0,0,1-.51-.62,2.79,2.79,0,0,1-2.91-.87,1.36,1.36,0,0,1-.33-1.26A1.76,1.76,0,0,1,31.41,45a1.26,1.26,0,0,1-.7-1.39,2.72,2.72,0,0,1-2-.26,1.38,1.38,0,0,1-.89-1.78c-.68,0-1.7.06-2.17-.55a.46.46,0,0,1-.08-.51,8.56,8.56,0,0,1-1.19-.35,5.4,5.4,0,0,1-2.15-1.42C22.49,38.09,23.43,38.08,24.32,38.28Z"/><path class="cls-5" d="M23.05,46.9c-.9-.55-.22-2,.56-2.74a1.32,1.32,0,0,1-1.12-1.36,2.16,2.16,0,0,1,1.62-2.07c-1.07-.31-2.15-.89-1.92-1.92a.43.43,0,0,1,0-.12,5.4,5.4,0,0,0,2.15,1.42,8.56,8.56,0,0,0,1.19.35.46.46,0,0,0,.08.51c.47.61,1.49.58,2.17.55a1.38,1.38,0,0,0,.89,1.78,2.72,2.72,0,0,0,2,.26,1.26,1.26,0,0,0,.7,1.39,1.76,1.76,0,0,0,1.16.35,1.36,1.36,0,0,0,.33,1.26,2.79,2.79,0,0,0,2.91.87,1.28,1.28,0,0,0,.51.62,1.14,1.14,0,0,0,1.47,0,2.31,2.31,0,0,0,1.4,2.12c.88.28,1.35-.37,1.36-1.07a5.69,5.69,0,0,0,.83,1.39,3,3,0,0,0,.34.37,1.23,1.23,0,0,1-.93.85,1.52,1.52,0,0,1,.4,1.3,1.56,1.56,0,0,1-.64,1.09,3.85,3.85,0,0,1,1.16,2.08.87.87,0,0,1-.74,1,1.27,1.27,0,0,1,.17.7.88.88,0,0,1-.32.5,3.66,3.66,0,0,1,1.3,1.94c.09.65-.52,1.11-1.21,1.15a2.26,2.26,0,0,1,.56,1.87.73.73,0,0,1-.66.61h-.23A3.75,3.75,0,0,1,42,66.68a1.12,1.12,0,0,1-1,1.19c.7.57,1.16,1.66.74,2.06a1.91,1.91,0,0,1,.54.7c1.08.79,2,.18,1.92-.39a2.25,2.25,0,0,0,2,.62,1.3,1.3,0,0,0,.93-1.11,3.89,3.89,0,0,0,2.63.83,1.07,1.07,0,0,0,.85-1.67,3.15,3.15,0,0,0,1.7.65.88.88,0,0,0,1-.78c.76.38,1.7.63,2.15.16a1.39,1.39,0,0,0,.24-1.18,4.09,4.09,0,0,0,1.49.77,1.46,1.46,0,0,0,1.41-.24,1,1,0,0,0,.72-.87,1.63,1.63,0,0,0,1.24.2,1,1,0,0,0,.59-1.06,3.39,3.39,0,0,0,2.95.27,1.46,1.46,0,0,0,.78-1.38,3.64,3.64,0,0,0,1.91.78.7.7,0,0,0,.81-.82,3.06,3.06,0,0,0,2.21.2,1.29,1.29,0,0,0,.82-1,3.53,3.53,0,0,0,2.09.56.78.78,0,0,0,.78-.69,3.37,3.37,0,0,0,2,.64,1.43,1.43,0,0,0,.61-.21,1.15,1.15,0,0,1-.11.81c-.39.61-1.38.54-2.17,0-.14,1.17-1.76,1.39-2.88.36-.1,1.27-1.7,1.65-3.13.65-.28,1-1.51.75-2.6,0,.05,1.42-1.92,1.86-3.46.89.29,1.81-1.37,2.5-3.25,1.3-.4,1-1.53,1.44-2.91.8-.44,1.13-2,1.35-3.41.53-.1,1.68-2.3,1.69-4.07.67,0,.84-.55,1.3-1.48,1.47a2.33,2.33,0,0,1-1.69-.21c-.22,1.89-3.73,0-4.63-1.72-.36.71-.89,1.46-2.1.76a3.16,3.16,0,0,1-1.41-1.92c-1.23.61-4.39-1.38-4-2.77a1.93,1.93,0,0,1-1.61-1.49,2.36,2.36,0,0,1-2.23-.49,2.61,2.61,0,0,1-1.05-1.38,2.35,2.35,0,0,1-2.53-1.61,1.51,1.51,0,0,1,.82-1.8c-.63-.31-1.18-.49-1.38-1.35s.36-1.52,1-2a1.68,1.68,0,0,1-1.11-1,1,1,0,0,1,.49-1.26,1.94,1.94,0,0,1-1.4-1.85,2.65,2.65,0,0,1,.81-2.2,2.35,2.35,0,0,1-1.81-1.15A1.82,1.82,0,0,1,23.05,46.9Z"/><g class="cls-6"><path class="cls-7" d="M47.45,35.5c.67.65,1.88,1.52,2.61,1.21a1.38,1.38,0,0,0,2.06.5,2,2,0,0,0,1.77,1.32,3.47,3.47,0,0,0,1.4,3.25,1.6,1.6,0,0,0,2.59-1c.85.59,1.42.37,1.55-.36.47.41,1,.75,1.49.58.75-.23.52-1.07.24-1.77.34.15.69.32,1,.16s.2-.33.11-.55c.61.28,1.38.65,1.63.2.39-.72-1.06-2-1.86-2.58.19-.24.14-.49-.07-.8.45,0,.91,0,.82-.49-.16-.85-1.55-1.34-2.4-1.53.32-.87-1.21-1.66-2-1.27a1.5,1.5,0,0,0-2.49-.68c-.55-.44-1.23-.71-1.52-.41a2.49,2.49,0,0,0-2.05-1.16c-.74.09-.82.68-.62,1.32-.75-.29-1.58-.36-1.85.25a.89.89,0,0,0,0,.6,2.34,2.34,0,0,0-1.78.09c-.48.31-.44.72,0,1.19-.49.08-1.09.08-1.2.57S47.05,35.11,47.45,35.5Z"/><path class="cls-7" d="M64,40.6a1.85,1.85,0,0,0,1.63,1.59c.76.12,1.8-.13,1.93-.82.06-.35-.27-.5.25-.4a3.62,3.62,0,0,1,.74.41,4.67,4.67,0,0,0,1.93.7c.9,0,.76-.82.23-1.53a4.76,4.76,0,0,0-1.54-1.31c-.34-.19-.65-.19-.84-.54-.09-.17.06-.75,0-1-.62-1.94-3.3-1.67-3,0a.62.62,0,0,0-.73.37c-.17.48.3,1,.8,1.37C64.65,39.54,64,39.85,64,40.6Z"/><path class="cls-7" d="M34.28,40.51c.25,1,1.63,1.68,2.59,1.88a1.47,1.47,0,0,0,.86,1.89,2.27,2.27,0,0,0,2.5-.23c.21,1,.31,2.25,1.52,3,.84.5,1.34.27,1.54-.27a1.7,1.7,0,0,0,1.44.7c.7-.14.66-.95.68-1.6.55.7,1.35,1.75,2.12,1.72.44,0,.52-.39.51-.78.36.37.8.75,1.22.66s.37-.53.25-.95c.77.51,1.82,1,2.29.43.26-.32.1-.77-.19-1.18.87.3,2,.43,2-.42s-1.2-2-2.28-2.58c.34,0,.63-.14.67-.46.07-.62-.9-1.42-1.46-1.77A3.73,3.73,0,0,0,49,40c-.59-.08-.28.08-.83-.35a4.32,4.32,0,0,0-2.2-1c.24-.72-.91-2-1.74-2.12a2.5,2.5,0,0,0-1.55-2.3c-1.35-.54-2,.19-1.74,1.22-1.13-.79-3.44-2.6-3.89-1.29-.2.58.54,1.45,1.32,2a.52.52,0,0,0-.17.12c-.3.37.18.56-.33.79-.3.14-.77-.16-.81.33a.4.4,0,0,0,0,.11c-1-.39-2-.54-2.5.12s.12,1.47.83,2.12C34.78,39.7,34.1,39.83,34.28,40.51Z"/><path class="cls-7" d="M34.77,33.8a1.93,1.93,0,0,1,1.32.58,2.56,2.56,0,0,1,1,1.41,1.06,1.06,0,0,1,0,.24c.05.33-.07.57-.49.56a1.37,1.37,0,0,1-1-.23,2.94,2.94,0,0,1-1.41-2A.55.55,0,0,1,34.77,33.8Z"/><path class="cls-7" d="M49.55,38.94A3.45,3.45,0,0,0,51,40.16a6.91,6.91,0,0,0,1.17.62,1.29,1.29,0,0,0,.42.12.55.55,0,0,0,.52-.17c.32-.28.07-.89-.39-1.42a2.53,2.53,0,0,0-.42-.48,2.94,2.94,0,0,0-2-.76C49.84,38.11,49.34,38.41,49.55,38.94Z"/><path class="cls-7" d="M47.23,36.31a1,1,0,0,1,1,.5l.08.12a1.28,1.28,0,0,1,.43,1.5c-.21.27-.72.2-1.1-.09a2.2,2.2,0,0,1-.75-1.14C46.76,36.81,46.85,36.42,47.23,36.31Z"/><path class="cls-7" d="M45.5,32.19c.46.31,1.39.69,1.63.25s-.21-.8-.63-1a1.88,1.88,0,0,0-1.69-.67C44.13,31,45,31.87,45.5,32.19Z"/><path class="cls-7" d="M44,34.22a3.27,3.27,0,0,0,1.47,1.45c.67.33,1.15.09,1.08-.53a2.07,2.07,0,0,0-1.12-1.48,2.3,2.3,0,0,0-.77-.43C43.86,33,43.66,33.61,44,34.22Z"/><path class="cls-7" d="M55.68,42.68c.53-.62,1.48,0,2.13.8,1.14,1,1.31,3.4-.61,2.24C56.17,45.1,55,43.45,55.68,42.68Z"/><path class="cls-7" d="M59.9,43.19a1.81,1.81,0,0,0,1.51.81c.43-.06.53-.37.51-.74.83.53,2.54,1.5,2.2.22a2.38,2.38,0,0,0-1-1.13c-.49-.68-1.62-.91-1.81-.21-.51-.3-1.07-.56-1.45-.23A1,1,0,0,0,59.9,43.19Z"/><path class="cls-7" d="M52.7,42.09c0-.53.56-.82,1.19-.42a2.37,2.37,0,0,1,.69.75c.69.69.46,2.21-.85,1.39A2.3,2.3,0,0,1,52.7,42.09Z"/><path class="cls-7" d="M29,41a.93.93,0,0,0,.17,1.17,2.27,2.27,0,0,0,2.83.52c.69,1,2.47,1.15,2.58.13s-1-1.12-1.58-1.72.53-.8.24-1.43c.46-.12.82-.45.34-.81.07-1-2.29-2-2.47-1.21a3.06,3.06,0,0,0-2.67-.8c-.61.23-.45.82,0,1.36-.88-.3-1.83-.37-1.95.38C26.3,39.68,27.85,40.57,29,41Z"/><path class="cls-7" d="M35.35,46.13c.43.9,1.71,1.22,2.1.85.77.78,2.37,1.84,2.74.93.55-1.33-1.63-3-3-2.84-.87-1.3-2.35-1.86-3.15-.8C33.51,45,34.37,46.26,35.35,46.13Z"/><path class="cls-7" d="M41.46,48.1c.13-.55.89-.73,1.4,0a1.41,1.41,0,0,1,.24.85.55.55,0,0,1,0,.4c-.11.25-.41.32-.75.22A1.29,1.29,0,0,1,41.46,48.1Z"/></g><g class="cls-6"><path class="cls-7" d="M32.31,38.08a.49.49,0,0,1,.3.14,2.1,2.1,0,0,1,.15.22c.52.28.39,1.26-.36,1S31.65,38.08,32.31,38.08Z"/><path class="cls-7" d="M38.4,47.15c.3.25.71.51,1,.41s.26-.54,0-.88a3.25,3.25,0,0,0-.82-.78c-.36-.37-.84-.64-1.13-.42C37.05,45.84,38,46.78,38.4,47.15Z"/><path class="cls-7" d="M35.56,44.38a1.05,1.05,0,0,1,.86.39.77.77,0,0,1,.1.23c.23.23,0,.54-.25.61A1.45,1.45,0,0,1,35,45.3C34.55,44.8,35.13,44.37,35.56,44.38Z"/><path class="cls-7" d="M43.07,44c.15-.28.55-.34.89,0l0,0a1.46,1.46,0,0,1,.32.26,3.26,3.26,0,0,1,.39.63c.17.38.3.84.09,1.11-.52.68-1.45-.46-1.71-1.06A1.13,1.13,0,0,1,43.07,44Z"/><path class="cls-7" d="M41.26,45.68c.28.53,1,1,1.44.66a.82.82,0,0,0,.2-.79A2.49,2.49,0,0,0,42.35,44a.73.73,0,0,0-1.19,0A1.79,1.79,0,0,0,41.26,45.68Z"/><path class="cls-7" d="M65.52,38.89a.75.75,0,0,1,0-.84.77.77,0,0,1,.59-.29c.12-.48.55-.84,1.2-.34a1.47,1.47,0,0,1,.32,1.83c.67.24,1.64.69,1.39,1.24s-1.44-.09-2.17-.6a.46.46,0,0,1-.28.43.84.84,0,0,1-.9-.3A1.13,1.13,0,0,1,65.52,38.89Z"/><path class="cls-7" d="M50.78,34.55c.09,1.46,2.66,2.5,3.2,1.5a1.14,1.14,0,0,0,1.4.22c.11.59.15,1.19.95,1.58a.86.86,0,0,0,1.23-.24c.42.71,1.09,1.58,1.82,1.7,1,.15.85-.85.53-1.62.7.27,1.5.4,1.64-.24S61,36.1,60.31,35.64c.42,0,.72-.14.38-.76a3,3,0,0,0-2.47-1.18c.32-1.35-1.92-1.65-2.32-1.11a7.68,7.68,0,0,0-.69-.37,5.05,5.05,0,0,0-1.64-.82c-.9-.12-1.36.55-1,1.29-1-.24-2.05-.22-2.47.5C49.76,33.75,50.1,34.29,50.78,34.55Z"/><path class="cls-7" d="M56.14,40a1.41,1.41,0,0,0,1.34.35.41.41,0,0,0,.27-.22.6.6,0,0,0,.07-.3v-.06s0-.07,0-.11a1.11,1.11,0,0,0-.09-.31,2.57,2.57,0,0,0-.92-1.11c-.59-.36-1.31-.27-1.41.26A1.81,1.81,0,0,0,56.14,40Z"/><path class="cls-7" d="M55.91,41.27c.32,0,.35-.26.26-.55a1.24,1.24,0,0,0-.18-.53,1,1,0,0,0-.58-.49.37.37,0,0,0-.52.25C54.82,40.35,55.34,41.25,55.91,41.27Z"/><path class="cls-7" d="M56.14,43.4c0-.25.3-.35.6-.22a1.21,1.21,0,0,1,.39.26.24.24,0,0,1,.14.05c.49.39,1.14,1.19.76,1.6s-1.27-.27-1.6-.82A1.46,1.46,0,0,1,56.14,43.4Z"/><path class="cls-7" d="M50.59,38.47c.26-.18.77.06,1.09.29a2.93,2.93,0,0,1,.34.3,1,1,0,0,1,.53.46c.23.44-.13.75-.57.66a2.37,2.37,0,0,1-1.15-.71C50.54,39.16,50.29,38.68,50.59,38.47Z"/><path class="cls-7" d="M48,34c.3-.4,1.15-.24,1.67.16a1.49,1.49,0,0,1,.14.12l.07,0c.53.48.82,1.23.37,1.57s-1.32,0-1.83-.5S47.73,34.36,48,34Z"/><path class="cls-7" d="M39.19,42c.61,1.05,2.33,1.26,2.67.38a1.65,1.65,0,0,0,1.07.67c.63,0,.65-.43.64-.88.58.72,1.55,1.86,1.94,1.61.52.67,1.3,1.39,2.05,1.23.56-.12.67-.59.52-1.11.92.57,2.18,1,2.63.41s-.45-1.65-1.37-2.18c.37-.15.46-.47,0-1.1a4.45,4.45,0,0,0-3.43-1.48c.08-.79-1.07-1.42-1.95-1.46-.06-.89-.45-2.22-1.68-2.42-.76-.12-.9.38-.81,1a2,2,0,0,0-2-.89c-1,.32-.53,1.48,0,2.37a3.18,3.18,0,0,0-2.48.21c-.38.32-.32.64,0,1C33.94,39.5,37.85,42.55,39.19,42Z"/><path class="cls-7" d="M35,34.47c.19-.16.45-.09.7.08a1,1,0,0,1,.67.38,1.31,1.31,0,0,1,.34.8c0,.5-.61.43-1.06.15S34.61,34.8,35,34.47Z"/><path class="cls-7" d="M32.6,38s0,.06,0,.05S32.57,38,32.6,38Z"/><path class="cls-7" d="M29.42,40.49a.5.5,0,0,0,.06.54,2.31,2.31,0,0,0,1.43.82c1.34.28,1.35-.88,1.17-1.86a2.68,2.68,0,0,0-2.39-2.14.5.5,0,0,0-.53.64.85.85,0,0,0,.11.26c-.58-.18-1.18-.11-1.3.33C27.81,39.71,28.68,40.21,29.42,40.49Z"/></g><g class="cls-6"><path class="cls-7" d="M51.91,34.52c.61.78,2.1,1.09,2.61.58.63.49,1.66,1.14,2.06.73.91.94,2.86,2.26,3.45,1.27.47-.79-.83-1.9-1.86-2.26.28-.71-1.69-2.07-2.2-1.33-.61-.68-1.48-1.34-2.21-1.13-.48.13-.46.5-.24.9-.61-.23-1.2-.3-1.58.09A.83.83,0,0,0,51.91,34.52Z"/><path class="cls-7" d="M48.42,34.63c.18.38.95.81,1.28.66.18-.08.2-.3.08-.51a1.26,1.26,0,0,0-.59-.48.12.12,0,0,0-.08,0l-.12,0C48.68,34.19,48.22,34.23,48.42,34.63Z"/><path class="cls-7" d="M41.28,40.28c.5.24.95.23,1.13-.09.72.69,2,1.72,2.5,1.24a3.63,3.63,0,0,0,.48.48.81.81,0,0,0-.5.09c-.46.29,0,1,.6,1.16.32.1.67.06.79-.17a.6.6,0,0,0,.06-.19.23.23,0,0,0,0-.16.88.88,0,0,0,0-.15,2.22,2.22,0,0,0,1.94.24c.5-.29.4-.88-.15-1.4a3.83,3.83,0,0,0-2.42-1c0-.61-1-1.19-1.84-1.26a2.12,2.12,0,0,0-.91-2,.93.93,0,0,0-1.4.26.92.92,0,0,0-1.55.5c0,.26.19.47.2.69,0,.39.27.24-.17.3a2.44,2.44,0,0,1-.51-.08c-.59-.08-1.36-.1-1.66.31C36.8,40.48,40.92,41.93,41.28,40.28Z"/><path class="cls-7" d="M41.74,40.54a1.46,1.46,0,0,1,.95.51c.55.29.59,1.25-.14,1.14A1.77,1.77,0,0,1,41.3,41,.4.4,0,0,1,41.74,40.54Z"/><path class="cls-7" d="M29.18,39.57c.06-.31.31-.35.61-.26a.9.9,0,0,1-.22-.74c.07-.23.32-.33.61-.2a1.51,1.51,0,0,1,.42.29,2.54,2.54,0,0,1,.76.59c.3.36.6,1,.13,1.1a1,1,0,0,1-.75-.18v0a.42.42,0,0,1-.3.17.25.25,0,0,1-.2,0C29.84,40.34,29.09,40,29.18,39.57Z"/></g><g class="cls-8"><path class="cls-7" d="M27.46,51.7a.82.82,0,0,1,.17-.5c.5-.67,1.5-.33,2.39.13-.33-1.51,1.13-2.42,2.76-1.58a1.55,1.55,0,0,1,2.09-1.21,2,2,0,0,1,1.37,1.57A3.27,3.27,0,0,1,39,51.29c1.57,2.08-.93,2.5-2.47,2.65,1,1,2.29,2.33,2,3.41a.76.76,0,0,1-1.18.47c.08.56-.24,1-1,.89a3.48,3.48,0,0,1-2.24-1.53,2.19,2.19,0,0,1-3,1.68c-1-.31-2.79-1.42-2.48-2.37-1.69-.87-3.28-2.19-3.25-3.93C25.39,51.6,26.46,51.29,27.46,51.7Z"/><path class="cls-7" d="M24.75,44.67c.12-.43.37-.94.9-.89-.06-.86.32-1.86,1.57-1,1.09.72,1,2.07,1,3,1.09,0,2.82.77,2.88,2s-1.54,1.27-2.67.82c-.11,1.28-1.1,2.16-2.81,1a1.56,1.56,0,0,1-.15-2.79A2.05,2.05,0,0,1,24.75,44.67Z"/><path class="cls-7" d="M35.87,64.63c-2.08-1.06-1.51-2.65-.21-3.07-.78-.93-1-2,.12-2.3a2,2,0,0,1,1.54.38c.66-.3,1.91.66,2.41,1.46.87,1.43-.51,1.75-1.6,1.89C39.17,64.49,37.47,65.45,35.87,64.63Z"/><path class="cls-7" d="M31.73,59.62c.73-.11,1.72.45,1.48,1.25a.12.12,0,0,1-.05.05c.15.61.06,1.18-.5,1.4A2,2,0,0,1,31,62.05a1.35,1.35,0,0,1-.73-1.36A1.64,1.64,0,0,1,31.73,59.62Z"/><path class="cls-7" d="M29.18,58.18a.16.16,0,0,1-.14.2,3,3,0,0,1,.33,1.38c0,.32-.27.5-.36.78-.17.55.36.67.79,1.1s.62,1,.29,1.3c-.64.51-2.46-.79-3-1.48a1.68,1.68,0,0,1-.31-1.08c0-.65.28-.86-.36-1.5a1,1,0,0,1-.32-1.32A1.78,1.78,0,0,1,29.18,58.18Z"/><path class="cls-7" d="M38.08,66a1.85,1.85,0,0,1,1.4,2.08c-.37,1-2.18.72-3.31.16s-2.1-1.74-1.25-2.52C35.46,65.19,37.38,64.82,38.08,66Z"/><path class="cls-7" d="M72.29,51.36c.31.35.49.74.28,1.07-.32.52-1.16.31-1.86.11.25,1,.28,1.75-.69,1.56,1.15,1.43,2.89,3.61,1.82,4.71-.7.72-2.26.1-3.4-.55.27,1.21-.27,2.9-1.61,2.38a2.08,2.08,0,0,1-2.95,2.2c-1.65-.79-1.49-2.84-1.19-4a3.24,3.24,0,0,1-2.55-3.19c.18-1.1,1.36-.95,2.51-.68-1.41-1-2.72-2.51-2.72-3.86s1.2-1.41,2.35-.76c-.25-.86-.25-1.9.57-1.8a1.61,1.61,0,0,1,1-2.23c1.27-.36,2.5.75,3.59,1.71.16-.46.65-.52,1.29-.42-.51-1-1.07-2.22-.12-2.46.06-.65.68-1.1,1.56-.66,1.44.72,1.27,2.33,1,3.26a3.63,3.63,0,0,1,2.62,2.26C74,51,73.11,51.28,72.29,51.36Z"/><path class="cls-7" d="M46.76,60.27a2.3,2.3,0,0,1-2.64-.84,1.63,1.63,0,0,1,.61-2.83c-.78-.56-1.6-1-1.86-1.93a1.35,1.35,0,0,1,1-1.81c-.45-.78.05-1.16.85-1.27a3.6,3.6,0,0,1,2.45.47c-.24-1.17.33-2.31,1.79-1.94s1.69,1.86,1.85,2.94a2.33,2.33,0,0,1,2.53,1.68,2.82,2.82,0,0,1,2.37.93,1.49,1.49,0,0,1,.39,1.23c1.63-.36,4,.19,4.3,2.38A1.18,1.18,0,0,1,60,60.41c-.3.23-1.19.1-1.38.39s.13.66,0,.9a2,2,0,0,1-1.12.57c.72.81,1.63,1.82,1.1,2.57-.4.57-1.28.37-2.06,0,.36,1.74-1,3.34-2.93,1.86-.43.71-1.37,1-2.45.25-1.64-1.09-1.46-3-1.82-4.54C48.62,62.8,47.25,61.35,46.76,60.27Z"/><path class="cls-7" d="M58.86,54.33c.57.82.47,1.77-.58,1.74-1.23,0-2.81-1.59-3.26-2.74a2.77,2.77,0,0,1-2.47-1.54c-.27-.89.57-1.28,1.41-1.2-.31-.59-.33-1.08.27-1.36a1.68,1.68,0,0,1,1.5.11c0-.91,1.32-1.36,2.32-.67s.69,2,.32,2.76A2.87,2.87,0,0,1,60,53.37C60.11,54.21,59.57,54.34,58.86,54.33Z"/><path class="cls-7" d="M74.75,58.77c-1.21-.13-3.93-2.68-2.41-3.23.45-.17,1.15.2,1.68.67,0,0,0,0,.09,0a3.42,3.42,0,0,1,1.18,1.65C75.43,58.35,75.35,58.84,74.75,58.77Z"/><path class="cls-7" d="M68.62,62.94a1.56,1.56,0,0,1,1.49-2.25c-.09-.63.12-1.2.8-1.32.85-.15,1.66.62,2.22,1.34.75-.16,1.78.88,1.88,1.63.17,1.23-1.64.76-2.64.53C72.26,64.19,69.61,64.47,68.62,62.94Z"/><path class="cls-7" d="M61.33,62a3.85,3.85,0,0,1,2.5,2.54c.08.92-1.29.52-2.12.12,0,.55-.27.92-1,.68a3.37,3.37,0,0,1-1.84-2C58.43,62,60,60.28,61.33,62Z"/><path class="cls-7" d="M44.33,65.06c-.86-.84-1.76-2.13-.75-2.63a2.4,2.4,0,0,1,1.75,0c-.13-.6.09-1.18.83-1,1.45.31,1.52,2.2,2.16,3,1,1.35,2,3,.91,4-.67.63-1.56.07-2.25-.7a2.24,2.24,0,0,1-3.28.52C42,67,43.21,65.54,44.33,65.06Z"/></g><g class="cls-8"><path class="cls-7" d="M67.41,54.72c0,.19.27.62.36.82A1.84,1.84,0,0,1,68,56.6c-.14.78-1.1,1-2,.8a3.12,3.12,0,0,1-2.26-1.7,6.39,6.39,0,0,1-.1-1.14l-.59-.25a5.16,5.16,0,0,1-1.26-.92c-.68-.7-1-1.57-.45-2.1s1.45-.38,2.34,0c-.47-.61-.78-1.28-.47-1.79a1.19,1.19,0,0,1,1.4-.36c-.35-.65-.46-1.38.12-1.63,1-.43,2,.83,2.73,1.75.18-.31.56-.4,1-.36.25-1.25,2.68-.63,3.57.52.45.6.33,1.21-.26,1.34a2.84,2.84,0,0,1-1.52-.23h0a1.58,1.58,0,0,1,0,1A1.06,1.06,0,0,1,69,52a2.85,2.85,0,0,1,.56,1.25c.16.85-.22,1.19-1.06,1.19C68.08,54.45,67.47,54.18,67.41,54.72Z"/><path class="cls-7" d="M70.22,47a.59.59,0,0,1-.48.42.87.87,0,0,1-.62-.34,1,1,0,0,1-.24-.82c.05-.37.43-1,1-.57s.7,1,.46,1.29A.1.1,0,0,1,70.22,47Z"/><path class="cls-7" d="M70.13,55.93a1.28,1.28,0,0,1,.77.81,1.07,1.07,0,0,1,.27.57.46.46,0,0,1-.24.43,1.19,1.19,0,0,1-1.28-.26c-.41-.37-.7-1-.51-1.33A.78.78,0,0,1,70.13,55.93Z"/><path class="cls-7" d="M65.48,58.12a1.06,1.06,0,0,1,.52.82.43.43,0,0,1-.3.4c0,.78-1,1-1.85.32C62.61,58.56,64.27,57.29,65.48,58.12Z"/><path class="cls-7" d="M62.39,56.77a1.85,1.85,0,0,1-.49-.43c-.1-.1-.2-.19-.21-.31-.07-.58.9-.48,1.36-.31s1,.78.63,1.07a1.25,1.25,0,0,1-.94.08A.81.81,0,0,1,62.39,56.77Z"/><path class="cls-7" d="M71.38,60.11a.78.78,0,0,1,.66.29,3.73,3.73,0,0,1,1.08.81c.18.21.37.47.32.69s-.34.32-.61.31a1.94,1.94,0,0,1-1.78-1.44C71,60.49,71.09,60.17,71.38,60.11Z"/><path class="cls-7" d="M57.9,54.57c-1,.28-1.86-1.17-2.32-2-.71.1-1.75-.7-1.58-1.43.13-.55,1.1-.85,1.78-.43a1,1,0,0,1,1.46-1c1.35.61.75,1.73.24,2.28C58.34,52.78,58.91,54.3,57.9,54.57Z"/><path class="cls-7" d="M61.31,63.52a.7.7,0,0,1-.77.47,1.19,1.19,0,0,1-.82-.94c-.1-.46,0-1,.49-1.1a1.23,1.23,0,0,1,.76.2c.22.16.39.43.3.6A1,1,0,0,1,61.31,63.52Z"/><path class="cls-7" d="M49.7,57.08A8.31,8.31,0,0,1,48,55.87c-.65,1.2-3,.61-4-1A1.44,1.44,0,0,1,44,53c.76-.68,1.88-.37,3,0-.22-.93.37-2,1.4-1.86,1.22.22,1.65,1.61,1.8,2.57a1.86,1.86,0,0,1,1.59.32,2.11,2.11,0,0,1,.89,1.91,2.46,2.46,0,0,1,2.24.48,2.58,2.58,0,0,1,.82,1.08c.81-.56,3,.23,3.35,1.42s-1.76.88-2.82.56c.31,1-.31,1.55-1.31,1.24.45.79,1.11,1.78.32,2.21-.49.28-1.08-.12-1.56-.58,0,1-.36,2.24-1.7,1.53a2.65,2.65,0,0,1-1.2-3.36,2.4,2.4,0,0,1-2-1.06C48,58.12,48.83,57.51,49.7,57.08Z"/><path class="cls-7" d="M56.35,62.7a.55.55,0,0,1,.82.19,1.2,1.2,0,0,1,.52.79c.06.54-.52.48-1,.17S56,63,56.35,62.7Z"/><path class="cls-7" d="M47.89,57.77a.66.66,0,0,1,0,.56c.11,1.14-2.53,1.24-3.06,0s1-1.63,1.9-1.47A1.51,1.51,0,0,1,47.89,57.77Z"/><path class="cls-7" d="M46.09,64.32c-.35-.64-.07-1.29.74-1.15s1,1.08,1,1.66.5.85.88,1.38.44.93.08,1.22c-.63.5-1.68-.3-2.3-1a.71.71,0,0,1-.79.31A1.06,1.06,0,0,1,45,66C44.77,65.14,45.18,64.25,46.09,64.32Z"/><path class="cls-7" d="M44.67,63c.3,0,.82.39.6.67a.46.46,0,0,1-.48.62.94.94,0,0,1-.87-.89C44,63.06,44.31,62.94,44.67,63Z"/><path class="cls-7" d="M30.68,54.1c-.62-1,.42-1.5,1.27-1.58-.44-.63-.7-1.12-.28-1.66a1.36,1.36,0,0,1,1.72-.3c0-.59.39-1.18,1.17-1a1.71,1.71,0,0,1,1.18,1.15,2.43,2.43,0,0,1,1.95.92c.89,1.43-1.19,1.61-2.36,1.48.79,1.09,2.1,2.56.68,3.11-.91.35-2-.66-2.55-1.53A1.91,1.91,0,0,1,30.68,54.1Z"/><path class="cls-7" d="M30.35,55.21a1.4,1.4,0,0,1,.8.06c.59-.06,1.46.91,1.46,1.5,0,1.15-2.7.33-2.83-.82A.66.66,0,0,1,30.35,55.21Z"/><path class="cls-7" d="M27.06,53.35a1.48,1.48,0,0,1,2-.93,1,1,0,0,1,.67,1.42c.05.74-.42,1.2-1.3,1S26.89,54.05,27.06,53.35Z"/><path class="cls-7" d="M28.13,47.87c-.46,0-.81,1.22-1.73.47s-.31-1.54.22-2c-.84-.64-1-2-.43-2.42,1.09-.86,1.87,1.6,2.16,2.57a1.4,1.4,0,0,1,1.35.88C30,48.44,28.67,47.85,28.13,47.87Z"/><path class="cls-7" d="M27.27,57.56a1.38,1.38,0,0,1,.77.18.7.7,0,0,1,.29.34h0a.37.37,0,0,1,.14.07.68.68,0,0,1,.3.33.77.77,0,0,1,.1.24,0,0,0,0,1,0,.06.73.73,0,0,1-.7.71C27,59.56,26.06,57.65,27.27,57.56Z"/><path class="cls-7" d="M32.27,60.07a.71.71,0,0,1,.52.67c0,.08,0,.17-.14.18a.43.43,0,0,1-.07.25.73.73,0,0,1-.69.37.75.75,0,0,1-.66-.56.74.74,0,0,1,.28-.7A.85.85,0,0,1,32.27,60.07Z"/><path class="cls-7" d="M36.44,61.6a.17.17,0,0,1,0-.18.85.85,0,0,1-.18-1.08A1.33,1.33,0,0,1,38,60.26c.75.45,1.15,1.36.73,1.85a1,1,0,0,1-1,.24A2.14,2.14,0,0,1,36.44,61.6Z"/><path class="cls-7" d="M37.13,62.8c.29.36.25,1-.28,1A1.61,1.61,0,0,1,35.64,63a.52.52,0,0,1,.3-.78A1.21,1.21,0,0,1,37.13,62.8Z"/><path class="cls-7" d="M36.28,65.68a1.38,1.38,0,0,1,1.07.44.63.63,0,0,1,.45.21A.75.75,0,0,1,38,67c-.11.4-.71.31-1.14.16s-1.06-.48-1.18-.93S36,65.7,36.28,65.68Z"/><path class="cls-7" d="M52,64.41a1.1,1.1,0,0,1,.62.83.7.7,0,0,1,0,.25.66.66,0,0,1-.3.55,1.1,1.1,0,0,1-1.41-.46c-.31-.43-.44-1-.08-1.22A1.18,1.18,0,0,1,52,64.41Z"/></g><g class="cls-9"><path class="cls-7" d="M65,51.69a1.09,1.09,0,0,1-.12-1.36.82.82,0,0,1,.91-.16c.5.2.71.69,1.09,1s1.13.33,1.57.91a1.65,1.65,0,0,1,.28,1.5c-.32.72-1.39.33-2.14-.19A1.4,1.4,0,0,1,64.73,53C64.28,52.39,64.49,51.8,65,51.69Z"/><path class="cls-7" d="M67.44,50.29a1,1,0,0,1,1.48-.51,1.25,1.25,0,0,1,.46.87s0,0,0,0C69.7,51.79,67.24,51.34,67.44,50.29Z"/><path class="cls-7" d="M65.22,48.82c-.46-.86,1-.54,1.06.1a.3.3,0,0,1-.09.45C65.87,49.54,65.4,49.16,65.22,48.82Z"/><path class="cls-7" d="M70.29,48.82a1,1,0,0,1,1,.61.42.42,0,0,1,0,.29c0,.09,0,.2-.09.22h-.13a.51.51,0,0,1-.41,0l0,0a1.54,1.54,0,0,1-.61-.4C69.69,49.08,69.94,48.83,70.29,48.82Z"/><path class="cls-7" d="M62.86,51.71a1.17,1.17,0,0,1,.77.42,2.25,2.25,0,0,1,.28.37,2.56,2.56,0,0,1,.17.43.08.08,0,0,1,0,.08.45.45,0,0,1-.27.43,1.34,1.34,0,0,1-1.48-.67C62,52.23,62.29,51.69,62.86,51.71Z"/><path class="cls-7" d="M66.19,54.44a.69.69,0,0,1,.34.78s0,0,0,.05c.24.83-1.23.21-1.32-.44C65.19,54.42,65.76,54.21,66.19,54.44Z"/><path class="cls-7" d="M56.15,51a.65.65,0,0,1,.65-.7c.44,0,.81.55.65.85a.5.5,0,0,1-.46.5A.71.71,0,0,1,56.15,51Z"/><path class="cls-7" d="M49.74,54.84l0,0a1,1,0,0,1,1.44-.64,2.09,2.09,0,0,1,1,1.94c1.91-.29,4.5,3.28,1.87,2.8-.49-.09-1.47-.58-1.81-.48-.11,0-.23.38-.37.46a1,1,0,0,1-.6.11c-1.58-.19-1.4-1.73-1.14-2.58a1.92,1.92,0,0,1-1.65-1C48.27,54.73,49.12,54.65,49.74,54.84Z"/><path class="cls-7" d="M48.53,51.89a1.1,1.1,0,0,1,.8,1.09c.12.38.06.75-.3.88s-1-.36-1.1-.83S47.86,51.76,48.53,51.89Z"/><path class="cls-7" d="M45.51,53.19a2.8,2.8,0,0,1,1.32.38,2,2,0,0,1,.51.4,1,1,0,0,1,.22.2.58.58,0,0,1,0,.85c-.47.33-1.54,0-2.13-.46a1.38,1.38,0,0,1-.62-.87C44.78,53.32,45.16,53.2,45.51,53.19Z"/><path class="cls-7" d="M56.45,57.8a1.51,1.51,0,0,1,1.13.39.77.77,0,0,1,.32.49.25.25,0,0,1-.18.27c-.24.25-1.09.11-1.42-.3S56.11,57.88,56.45,57.8Z"/><path class="cls-7" d="M52.55,59.41a.83.83,0,0,1,.62,0,.7.7,0,0,1,.41.49,1.16,1.16,0,0,1,.45.68c.07.36-.08.72-.49.71a1.82,1.82,0,0,1-1.33-1A.67.67,0,0,1,52.55,59.41Z"/><path class="cls-7" d="M47.25,64c.32.2.59.74.35.93,0,.14-.12.24-.33.24-.49,0-.79-.61-.77-1S46.88,63.72,47.25,64Z"/></g><path class="cls-10" d="M152,25.77a3.24,3.24,0,0,0-2.45-.84l-8.5.74c0-.29,0-.58,0-.87a3.19,3.19,0,0,0-2.58-3.31l-3.06-.58a3.17,3.17,0,0,0-3.77,3c0,1-.11,1.84-.17,2.61l-5.8.49a3.2,3.2,0,0,0-2.21,1.18,2.65,2.65,0,0,0-.38.62l0-.24a3.18,3.18,0,0,0-1.54-2.27,3.23,3.23,0,0,0-.94-2.64l-2-2a3.2,3.2,0,0,0-2.38-.9,3.13,3.13,0,0,0-1.52.48,3.34,3.34,0,0,0-1-.08l-2.93.25a3.21,3.21,0,0,0-2.09-1.16l-3.07-.36a3.17,3.17,0,0,0-3.43,2.27l-5,.43a3.19,3.19,0,0,0-2.86,3.68L94.61,28l-.79.07A3.19,3.19,0,0,0,91,31.73L91.29,34a3,3,0,0,0-.68.49L89.68,22.7a3.2,3.2,0,0,0-3.4-2.93L66.21,21.2a3.18,3.18,0,0,0-2.93,2.85L61.76,38.94a3.19,3.19,0,0,0,.3,1.7,32.07,32.07,0,0,1-2.74,4.23,3.15,3.15,0,0,0-.59,2.63,3.19,3.19,0,0,0,1.63,2.14l4.83,2.51a3.18,3.18,0,0,0,4.08-1c2.07,1.45,4.92,2.18,8.72,2.25h1a33.83,33.83,0,0,0,4.38-.32,3.18,3.18,0,0,0,2.07-1.17,3.14,3.14,0,0,0,1.4-.34l4.7-2.4a3.18,3.18,0,0,0,1.41-4.25,30.82,30.82,0,0,0-3-4.75,3.2,3.2,0,0,0,.56-.8l2.16,4.25a3.2,3.2,0,0,0,2.67,1.74l.08.12A3.19,3.19,0,0,0,98,46.94l5.24.12,1,5a3.18,3.18,0,0,0,3.14,2.54h.17a16.58,16.58,0,0,0,7.34-1.84,9.43,9.43,0,0,0,4-5.46,35.7,35.7,0,0,0,1-6.8,3.29,3.29,0,0,0,.65-.74,3.19,3.19,0,0,0,.37-2.5l-.16-.61a3.23,3.23,0,0,0,2.31-1.13,3.33,3.33,0,0,0,.5-.85,3.19,3.19,0,0,0,2.88,1.81l3,0c-1.38,3.24-3.38,5.24-6,6.08a3.19,3.19,0,0,0-1.67,4.82l3.9,5.75A3.17,3.17,0,0,0,130,54a23,23,0,0,0,5.57-5l1.14,3.3a3.17,3.17,0,0,0,3,2.14l.29,0c5.71-.57,12.56-4,12.81-17.08,0-.71.13-3.32.23-9.13A3.2,3.2,0,0,0,152,25.77Zm-9.72,10.6c-.6,3.58-1.85,4.91-3,5.4a28.88,28.88,0,0,0,1.17-5.39Z"/><path class="cls-10" d="M60.87,75.67,62.73,75a2.64,2.64,0,0,0,1.48-3.54L58.86,59.16a2.67,2.67,0,0,0-3.28-1.45L30.64,66.1a2.65,2.65,0,0,0-1.78,2.83l1.61,13.55A2.66,2.66,0,0,0,34,84.65l1.28-.47,2.13,15.16a2.67,2.67,0,0,0,1.27,1.91,2.6,2.6,0,0,0,1.38.37,2.74,2.74,0,0,0,.89-.16l6.24-2.3a2.6,2.6,0,0,0,.73-.41l8-2.09a2.72,2.72,0,0,0,2.11.18l6.35-2.14a2.65,2.65,0,0,0,1.67-3.34Z"/><path class="cls-10" d="M142.77,81.88a2.67,2.67,0,0,0-.91-.6l1.51-1.92a2.64,2.64,0,0,0-1.06-4.09c-.58-.23-1.13-.49-1.66-.75h.71a2.7,2.7,0,0,0,2-.88,2.6,2.6,0,0,0,.67-2l-.61-5.9a2.6,2.6,0,0,0-1.25-2c.2-.43.4-.87.59-1.32a2.64,2.64,0,0,0-1-3.28l-3.29-2a2.65,2.65,0,0,0-3.51.66c-.07.08-.13.17-.2.26a2.65,2.65,0,0,0-2.24-2.09l-3.72-.49a2.59,2.59,0,0,0-2,.52,2.65,2.65,0,0,0-1,1.76L125.57,59a13.87,13.87,0,0,0-1.75-1.45,2.65,2.65,0,0,0-3,0l-2.44,1.68A35.61,35.61,0,0,0,116,55.85a2.65,2.65,0,0,0-3.22-.73L108.92,57a2.66,2.66,0,0,0-1.26,3.48,34.85,34.85,0,0,1,2.21,6.45l-2.11.19a2.66,2.66,0,0,0-2.39,3l.43,3.41A2.64,2.64,0,0,0,108,75.78l1,.15-3.52,8.5a2.43,2.43,0,0,0-.38-.33q-.69-.46-1.35-.87a2.63,2.63,0,0,0,2-3.12l-2-9.86a2.67,2.67,0,0,0-.6-1.2l2-4.84a2.65,2.65,0,0,0-.21-2.4,2.68,2.68,0,0,0-2.08-1.24,15.59,15.59,0,0,1-6.4-1.63,2.63,2.63,0,0,0-1.3-2.43l-2.8-1.66A2.65,2.65,0,0,0,88.7,56a12.92,12.92,0,0,1-4.81,5.38l.28-1.65a2.66,2.66,0,0,0-3.1-3L75,57.77a2.61,2.61,0,0,0-1.48-.48l-3.57,0A2.6,2.6,0,0,0,68,58a2.64,2.64,0,0,0-.77,1.9l.45,32.26a2.66,2.66,0,0,0,.91,2,2.71,2.71,0,0,0,1.76.65l.32,0L76.92,94a2.65,2.65,0,0,0,2.3-2.89l-.13-1.3a2.28,2.28,0,0,0,.52-.1l3.76,3.5a2.64,2.64,0,0,0,3.31.25c.42-.29.83-.61,1.22-.94l.23.3a2.65,2.65,0,0,0,2.11,1,2.82,2.82,0,0,0,2.1-1l1.21-1.59,1.3,1.21a2.66,2.66,0,0,0,3.61,0c.13-.13.26-.25.38-.38a2.72,2.72,0,0,0,1.93.79,2.64,2.64,0,0,0,2.07-1.06l1.83-2.43A2.65,2.65,0,0,0,106,90.49l6.5,2.4a2.69,2.69,0,0,0,2.2-.17A2.66,2.66,0,0,0,116,91l.31-1.47a49.68,49.68,0,0,0,15.16,4.09l.17,0c2.24.14,4,.2,5.37.19a13.94,13.94,0,0,0,1.77-.09A2.63,2.63,0,0,0,141,91.88l2.37-7.32A2.67,2.67,0,0,0,142.77,81.88Z"/><path class="cls-10" d="M181.67,66.54l-9.73-1.78V64.3a2.65,2.65,0,0,0-1.78-2.5l-4.09-1.42a2.64,2.64,0,0,0-3.14,1.16L162.08,63,152,61.13a2.64,2.64,0,0,0-2.89,1.51l-3.54,7.78a2.64,2.64,0,0,0,2,3.72l4.3.64-1.95,4.89-.8-.11a2.65,2.65,0,0,0-2.78,1.6l-4.53,10.7a2.66,2.66,0,0,0,.14,2.35,2.63,2.63,0,0,0,2,1.31l6.74.87a2.69,2.69,0,0,0,2.11-.65l11,2.57a2.66,2.66,0,0,0,.31.69,2.61,2.61,0,0,0,1.85,1.22l6.85,1a1.49,1.49,0,0,0,.42,0,2.63,2.63,0,0,0,2.62-2.42l1.09-13.12a2.64,2.64,0,0,0-1.69-2.69l.28-2.23,4.75.62a2.66,2.66,0,0,0,3-2.47l.58-9.68A2.64,2.64,0,0,0,181.67,66.54Z"/><path class="cls-11" d="M70.18,48.84c1.77,1.24,4.41,1.91,7.84,2h.9a34.74,34.74,0,0,0,4.19-.31,1.57,1.57,0,0,0,1.34-1.22l0-.21.19.11a1.59,1.59,0,0,0,1.38,0l4.7-2.4a1.58,1.58,0,0,0,.7-2.12,30.55,30.55,0,0,0-4-6.08l.39,0a1.58,1.58,0,0,0,1.45-1.71l-1.18-15a1.59,1.59,0,0,0-1.7-1.46L66.33,21.79a1.58,1.58,0,0,0-1.47,1.42L63.34,38.1a1.6,1.6,0,0,0,.46,1.29l.13.11a33.74,33.74,0,0,1-3.36,5.34,1.61,1.61,0,0,0-.29,1.31,1.57,1.57,0,0,0,.82,1.07l4.83,2.52a1.62,1.62,0,0,0,1.31.07,1.6,1.6,0,0,0,.92-1c.18-.5.35-1,.52-1.57A6.67,6.67,0,0,0,70.18,48.84Zm-2-9.32h0ZM75,42.28a1.86,1.86,0,0,1-.5-.18l0-.26Z"/><path class="cls-11" d="M107.4,52h.09a14.91,14.91,0,0,0,6.6-1.61,7.88,7.88,0,0,0,3.31-4.55,36.62,36.62,0,0,0,.95-6.77,1.27,1.27,0,0,0,0-.48,1.61,1.61,0,0,0,1.08-1.94l-.69-2.56,2-.05a1.57,1.57,0,0,0,1.53-1.82l-.66-4.45a1.59,1.59,0,0,0-1.71-1.35l-.63,0,.47-.61a1.59,1.59,0,0,0-.15-2.1l-2-2a1.57,1.57,0,0,0-1.19-.45,1.6,1.6,0,0,0-1.13.57c-.07.07-.13.15-.19.22a1.59,1.59,0,0,0-1.2-.39l-4,.34a1.58,1.58,0,0,0-1.37-1.25l-3.07-.37a1.59,1.59,0,0,0-1.75,1.29l-.16.89-6.17.53A1.59,1.59,0,0,0,95.89,25l.47,2.9a2,2,0,0,0,.19.54L94,28.67a1.6,1.6,0,0,0-1.44,1.82l.42,2.77a1.48,1.48,0,0,0,.41.85l-.83.14a1.6,1.6,0,0,0-1.16.86,1.57,1.57,0,0,0,0,1.43l2.73,5.37a1.6,1.6,0,0,0,2,.77l.47-.17a1.61,1.61,0,0,0,.23,1.11,1.64,1.64,0,0,0,1.3.73l6.73.15a1.6,1.6,0,0,0-.06.84l1.11,5.4A1.6,1.6,0,0,0,107.4,52Z"/><path class="cls-11" d="M126.93,51.2a1.58,1.58,0,0,0,2.18.44A20.87,20.87,0,0,0,136,44.35a1.77,1.77,0,0,0,.08.4l2.07,6a1.59,1.59,0,0,0,1.51,1.07h.15c5.07-.51,11.16-3.63,11.38-15.55,0-.68.13-3.27.24-9.12a1.63,1.63,0,0,0-.51-1.19,1.57,1.57,0,0,0-1.22-.42l-10.31.89c0-.88.08-1.78.13-2.7a1.58,1.58,0,0,0-1.29-1.65l-3.06-.59a1.63,1.63,0,0,0-1.28.31,1.65,1.65,0,0,0-.61,1.17c-.08,1.6-.17,2.89-.28,4l-7.14.6a1.6,1.6,0,0,0-1.44,1.79l.41,3.15a1.58,1.58,0,0,0,1.58,1.38l5.26,0c-1.53,5-4.11,8-7.84,9.19a1.59,1.59,0,0,0-1,1,1.57,1.57,0,0,0,.19,1.41Zm12.12-17.41,5.08,0c-.73,7.85-4,8.85-6.49,8.88h0a1.86,1.86,0,0,0-.82.23A26.29,26.29,0,0,0,139.05,33.79Z"/><path class="cls-11" d="M58.91,73.82l0-.09,3.28-1.26a1.07,1.07,0,0,0,.6-.58,1.11,1.11,0,0,0,0-.84L57.4,58.8a1.05,1.05,0,0,0-1.31-.58L31.15,66.6a1.08,1.08,0,0,0-.72,1.13l1.62,13.55a1,1,0,0,0,.5.78,1,1,0,0,0,.92.09L36.6,81,39,98.12a1.08,1.08,0,0,0,.5.76,1.12,1.12,0,0,0,.56.15.84.84,0,0,0,.35-.07l6.24-2.29a1.09,1.09,0,0,0,.48-.36l9.19-2.4a1,1,0,0,0,.34.32,1.09,1.09,0,0,0,.88.1l6.35-2.14a1.06,1.06,0,0,0,.67-1.34ZM39.06,69.91l-.93.39a.79.79,0,0,0-.25.15l-.07-.2Zm.16,4.79,0-.06.07,0Z"/><path class="cls-11" d="M101.09,82.59c0-.17,0-.35.08-.54l.07-.44a1.06,1.06,0,0,0,0-.5l2.27-.43a1.1,1.1,0,0,0,.68-.45,1.09,1.09,0,0,0,.16-.8l-2-9.86a1.08,1.08,0,0,0-.46-.68,1.06,1.06,0,0,0-.57-.17l2.48-6.11a1,1,0,0,0-.09-1,1,1,0,0,0-.83-.49,15.9,15.9,0,0,1-8.1-2.47c.06-.21.13-.42.18-.63a1.07,1.07,0,0,0-.48-1.19l-2.81-1.66a1.08,1.08,0,0,0-.84-.1,1,1,0,0,0-.65.54,14.23,14.23,0,0,1-8.31,7.4l.79-4.64a1.07,1.07,0,0,0-.3-.93,1.09,1.09,0,0,0-.94-.29l-7,1.29a1.06,1.06,0,0,0-1-.6l-3.57,0a1.18,1.18,0,0,0-.76.32,1.07,1.07,0,0,0-.31.76l.45,32.26a1,1,0,0,0,.36.78,1,1,0,0,0,.71.26h.12l6.26-.81a1.06,1.06,0,0,0,.92-1.15l-.46-4.58.79,1.1A1,1,0,0,0,79.4,87a9.73,9.73,0,0,0,.81-.57,1.06,1.06,0,0,0,.33.9L84.45,91a1.07,1.07,0,0,0,1.33.1,13.33,13.33,0,0,0,2.26-2c.49.59.93,1.15,1.36,1.71a1.06,1.06,0,0,0,.84.41,1,1,0,0,0,.84-.41l2.28-3,2.57,2.4a1.05,1.05,0,0,0,1.44,0,10.25,10.25,0,0,0,1.46-1.69l1.07,1.28a1,1,0,0,0,1.67,0l2.94-3.9a1.06,1.06,0,0,0-.24-1.51A19.64,19.64,0,0,0,101.09,82.59ZM82.31,73.68a25.28,25.28,0,0,0-1.72-3.4l.64-3.77,2.42,3.88a1.05,1.05,0,0,0,1.45.35c.27-.17.55-.35.84-.55l.13.52s0,0,0,.06l-2.83.57a1.06,1.06,0,0,0-.85,1Zm5.41,2.06v.33l0-.33Zm4.66-4.28v.59l-.25-1.18.5-.06A1,1,0,0,0,92.38,71.46Zm.1-6.78-1,.28c.18-.24.36-.47.53-.72C92.14,64.39,92.31,64.54,92.48,64.68Zm5.41,9.9v.89l-.18-.87Zm.38-5.24a1,1,0,0,0,0-.46l-.05-.2.89.48ZM91.12,82.69a1.14,1.14,0,0,0,0-.45l1.66-.32a1.06,1.06,0,0,0,.72.11l2.35-.47a9.61,9.61,0,0,1-3.64,3.08,15.31,15.31,0,0,0-1.37-.81C91,83.44,91,83.06,91.12,82.69ZM76.5,75.82a3.78,3.78,0,0,1-.18,1.1l-.26-2.67A7.22,7.22,0,0,1,76.5,75.82ZM75.11,64.74h.73l-.55,1.78Zm7.52,18.65a1.16,1.16,0,0,0,.32,0L85,83a11.69,11.69,0,0,1-3.75,2.46A8.33,8.33,0,0,0,82.63,83.39Z"/><path class="cls-11" d="M142.14,71.57a1.06,1.06,0,0,0,.27-.81l-.61-5.9a1,1,0,0,0-1.15-.94l-1,.09a28.59,28.59,0,0,0,1.6-3.23,1.07,1.07,0,0,0-.42-1.32l-3.28-2a1.06,1.06,0,0,0-1.41.26,25.22,25.22,0,0,1-3.05,3.44l.05-3.58a1.06,1.06,0,0,0-.92-1.07L128.51,56a1.07,1.07,0,0,0-.79.21,1,1,0,0,0-.4.7l-.64,4.83a16,16,0,0,0-3.77-3.91,1.09,1.09,0,0,0-1.22,0l-2.9,2a1.07,1.07,0,0,0-.29,1.45,15.77,15.77,0,0,1,2.11,4.57l-1.94.18a1.11,1.11,0,0,0-.72.38,1.14,1.14,0,0,0-.21.41l-9.83.9a1.05,1.05,0,0,0-.73.4,1,1,0,0,0-.23.79l.43,3.41a1.05,1.05,0,0,0,.89.91l3,.45L106,86.6a1.07,1.07,0,0,0,.61,1.4l6.5,2.39a1.08,1.08,0,0,0,.88-.06,1,1,0,0,0,.52-.71l.75-3.53c4.14,2.39,9.68,4,16.55,4.91,1.66.1,3.7.2,5.27.19.62,0,1.17,0,1.59-.08a1.07,1.07,0,0,0,.89-.72l2.37-7.33a1.06,1.06,0,0,0-1.32-1.34,19.36,19.36,0,0,1-2.33.57l3.88-4.92a1.05,1.05,0,0,0,.2-.92,1.07,1.07,0,0,0-.62-.71,22.34,22.34,0,0,1-6.28-3.82h5.94A1,1,0,0,0,142.14,71.57Zm-25.58,8.2V79.7l.06.1Zm7.89-1.32L124,82.12a31.88,31.88,0,0,1-3.17-.77A24.8,24.8,0,0,0,124.45,78.45Zm8.43,1.13a19.18,19.18,0,0,0,3.11,3c-1,.11-2.05.18-3.15.2Zm.18-15.33.44.35-.44,0Zm-6.85,1-1.71.16,1.86-1.31Zm-7,6.6h1.69a17.27,17.27,0,0,1-3,1.69l.46-2.13A1.05,1.05,0,0,0,119.17,71.89Z"/><path class="cls-11" d="M113.44,55.55l-3.83,1.86a1.07,1.07,0,0,0-.5,1.4,37.1,37.1,0,0,1,2.43,7.26,1,1,0,0,0,.56.72,1,1,0,0,0,.48.11,1,1,0,0,0,.43-.09l5.53-2.51a1.06,1.06,0,0,0,.53-1.39,31.83,31.83,0,0,0-4.34-7.07A1.06,1.06,0,0,0,113.44,55.55Z"/><path class="cls-11" d="M181.38,67.1l-11-2V63.3a1.06,1.06,0,0,0-.71-1l-4.09-1.42a1.08,1.08,0,0,0-1.26.46l-1.41,2.39-11.18-2a1.05,1.05,0,0,0-1.15.6L147,70.08a1,1,0,0,0,0,.94,1.06,1.06,0,0,0,.78.55l6.28.93-2.87,7.17a1.1,1.1,0,0,0,0,.76l-2.29-.3a1.08,1.08,0,0,0-1.12.64l-4.53,10.71a1,1,0,0,0,.06.94,1,1,0,0,0,.78.52l6.75.87a1.07,1.07,0,0,0,1.18-.88l13.35,3.12-.07.23a1.05,1.05,0,0,0,.11.88,1.07,1.07,0,0,0,.74.49l6.85,1h.17a1.05,1.05,0,0,0,.65-.23,1.08,1.08,0,0,0,.4-.74l1.09-13.11a1.06,1.06,0,0,0-.92-1.14l-.95-.13v0l.64-5.27,6.35.82a1.06,1.06,0,0,0,1.19-1l.59-9.68A1.06,1.06,0,0,0,181.38,67.1ZM153,87.37l.19-1.15,14.43,3-.09.27Zm7.35-11.58.09-.69L165,76.2Zm-3.82-7.08.09-.5L161,69.36Z"/><path class="cls-12" d="M61.78,71.48l-6.39,2.45-1.85-9.11L36.47,69.53l2.94,9.31L33.1,81.16,31.49,67.61l24.94-8.39Zm1.78,19.71-6.35,2.13-.12-.7L46.24,95.45l0,.22L40.06,98,37.65,80.83,57.9,74.15ZM53.25,69.54,39.63,73.68l-1.09-2.4L51.7,65.83Zm1.18,4.57L40.88,78.19l-1.1-2.59,13-5.37Zm.45,6.06-.12-.71L42.33,82.59l.59,1.9Zm.74,4.17-.16-.85L43.64,86.9l.51,1.69Zm.81,4.47-.17-.89L44.92,91.1l.53,1.77Z"/><path class="cls-11" d="M58,61.35a2.51,2.51,0,1,1-2.5-2.51A2.51,2.51,0,0,1,58,61.35Z"/><path class="cls-13" d="M73.45,58.94l.09.78,8-1.49L79.48,70.49a19.92,19.92,0,0,1,3,7.88c.08,3.56-1.15,6.16-3.67,7.78l-3.09-4.34.84,8.54-6.25.81L69.88,58.9Zm4.12,16.82a13,13,0,0,0-2.41-5.29l2.12-6.78H73.94l1.58,15.85A4.28,4.28,0,0,0,77.57,75.76Zm25.19-13.55-2.57,6.32a31.85,31.85,0,0,1-3.62-2.09l.66,2.7L87.1,70.46l-.51-2.07a23.14,23.14,0,0,1-2,1.44l-3.39-5.45a15.48,15.48,0,0,0,9.91-8.25l2.81,1.66c-.12.45-.28.91-.41,1.3A16.3,16.3,0,0,0,102.76,62.21ZM90.08,82.47a17.58,17.58,0,0,1-.51,1.91,18.6,18.6,0,0,1,3.48,2.14l-2.81,3.67c-.74-1-1.47-1.85-2.2-2.71a12.14,12.14,0,0,1-2.87,2.77L81.26,86.6a12.57,12.57,0,0,0,6.39-5.21Zm3-1.7-4.41.85v-.9l-1.46.09.08.67-4.6.86.72-10L91,70.85ZM88.76,77.6l0-3-2.32.11.44,3.31Zm3.06-15a20,20,0,0,1-3.59,4.36l6.53-1.77A21.41,21.41,0,0,1,91.82,62.57Zm8.37,18.88c-.1.68-.18,1.25-.3,1.78a19.11,19.11,0,0,1,3.78,2l-3,3.91c-.69-.86-1.38-1.64-2.07-2.42a9.18,9.18,0,0,1-2,2.71l-4.11-3.83a11,11,0,0,0,5.26-5.29Zm3.08-1.81-4.41.84v-1l-1.23.08.11.59L93.29,81l.15-9.51,7.81-1.7Zm-4.34-3.29,0-3-2.54.31.65,3.15Z"/><path class="cls-11" d="M103.16,63.08a2,2,0,1,1-2-2A2,2,0,0,1,103.16,63.08Z"/><path class="cls-14" d="M141.36,70.86h-8.45a21.39,21.39,0,0,0,8.38,5.86l-4.24,5.36a21.18,21.18,0,0,1-5.2-5.65L131.78,83l-6.87.06,1-7.78a24.1,24.1,0,0,1-7.3,6.15l-2.51-4.77-.8,3.74a34.35,34.35,0,0,0,13.41,3.42,34.48,34.48,0,0,0,12.12-1l-2.37,7.32a48.16,48.16,0,0,1-6.68-.12c-7.45-1-13.22-2.81-17.33-5.54l-1.06,5-6.5-2.4,5.88-14.2-4.39-.64L108,68.75l10-.92-1.59,7.45a19,19,0,0,0,7.37-4.42l-4.62,0-.4-3.77,8.38-.8L128.37,57l3.72.49-.1,8.29,4.19-.41-3.33-2.68a23.48,23.48,0,0,0,4.15-4.4l3.28,2a24.4,24.4,0,0,1-2.7,4.9l3.17-.29ZM118.1,63.33l-5.53,2.51a36.86,36.86,0,0,0-2.5-7.47l3.84-1.87A31.28,31.28,0,0,1,118.1,63.33Zm8.13-.39-4.47,3.14a16.35,16.35,0,0,0-2.37-5.41l2.9-2A15.31,15.31,0,0,1,126.23,62.94Z"/><path class="cls-11" d="M140.75,61.2a2,2,0,1,1-2-2A2,2,0,0,1,140.75,61.2Z"/><path class="cls-15" d="M172.43,83.2l-6-.75.29-.81L165,81.26c-.35.72-.71,1.36-1,1.9l10.32,1.38-1.09,13.11-6.85-1.05.42-1.32-15.58-3.64L151,92.76l-6.74-.87,4.53-10.7,8.91,1.16a20.7,20.7,0,0,0,2.5-2.14l-1.46-.34-.12.9-6.4-.7,4.12-10.31,17.42,2.53Zm-3.14-19.9V66l11.9,2.17-.59,9.69L173.82,77l1.59-4.89L155.77,66.9l-.9,4.64-6.9-1,3.54-7.79,11.9,2.17,1.79-3Zm-1,27.33.71-2.25L152.3,85l-.55,3.3Zm0-13.08.58-1.52-9.32-2.23-.39,3Z"/><path class="cls-11" d="M170,64.43a2,2,0,1,1-2-2A2,2,0,0,1,170,64.43Z"/><path class="cls-16" d="M68.56,41.46a58.2,58.2,0,0,1-1.9,6.87l-4.83-2.52A35.22,35.22,0,0,0,65.45,40Zm19.13-4.52L82,37.39l.07-.71-11.59.44v.53l-5.6.61,1.52-14.89,20.07-1.43ZM73.47,39.66a7.8,7.8,0,0,0-.57,2.57c0,1.21,1.39,1.83,4.28,1.88A22.18,22.18,0,0,0,83.76,43c-.36-.91-.71-1.82-1.13-2.7l2.85-1.53a30.28,30.28,0,0,1,4.57,6.61l-4.7,2.4c-.35-1.34-.79-2.65-1.26-4L82.9,48.94a31.64,31.64,0,0,1-4.85.28c-3.14-.06-5.46-.63-7-1.68a4.94,4.94,0,0,1-2-4.29,18.91,18.91,0,0,1,1-4.74Zm1-11.07.33-2.45-4.94-.06L70,29.16ZM73.79,34l.33-2.39-4,.18.17,2.7Zm7.72,6.3-3.05,3.61a21.09,21.09,0,0,0-3.9-4.12l1.94-2.48A41.37,41.37,0,0,1,81.51,40.28Zm-3-12.21,4.33-.57L83,26.23l-4.6-.06Zm.41,5.2,3.48-.5.13-1.58-3.77.18Z"/><path class="cls-17" d="M114.26,25.28c.76-.76,1.49-1.55,2.15-2.35l2,2a41.41,41.41,0,0,1-3,3.49L120,28l.66,4.45-9.76.23a34.75,34.75,0,0,1-3,2.21,71.32,71.32,0,0,0,8.83-2.17l1.16,4.34A69.93,69.93,0,0,1,104,38.49l-.34,1.73,13.1-1.28a36,36,0,0,1-.9,6.45A6.2,6.2,0,0,1,113.26,49a13.83,13.83,0,0,1-5.87,1.38L106.28,45a13.44,13.44,0,0,0,1.61.12c2.64,0,4.24-.63,4.76-2l-14.56-.33,1.33-3.18c-1.28.6-2.6,1.13-3.91,1.61l-2.73-5.37a43.84,43.84,0,0,0,10.37-3L94.51,33l-.42-2.78,9.77-.84.32-1.8-6.25,0-.47-2.9,7.37-.64.38-2.07,3.07.37.07,1.4,5.6-.49Zm-2.53,2.29-3.2,0,.07,1.4,1.46-.13C110.63,28.45,111.16,28,111.73,27.57Z"/><path class="cls-18" d="M149.63,36.19c-.16,8.7-3.48,13.36-9.95,14l-2.06-6c5.15,0,7.87-4.05,8.21-12.06l-8.27,0c0,.31,0,.59-.05.84q-.67,11.69-9.27,17.26l-3.9-5.76q7.08-2.25,9.43-12.32l-7.34.05-.4-3.14,8.43-.72c.22-1.67.34-3.47.44-5.4l3.07.59c-.09,1.55-.15,3-.21,4.53l12.11-1.05C149.78,31.81,149.69,34.86,149.63,36.19Z"/></g></g></svg>